<?xml version="1.0" encoding="UTF-8" standalone="no"?>
<!DOCTYPE svg PUBLIC "-//W3C//DTD SVG 1.1//EN"
 "http://www.w3.org/Graphics/SVG/1.1/DTD/svg11.dtd">
<!-- Generated by graphviz version 2.49.3 (20211104.1129)
 -->
<!-- Title: snakemake_dag Pages: 1 -->
<svg width="2006pt" height="692pt"
 viewBox="0.00 0.00 2006.44 692.00" xmlns="http://www.w3.org/2000/svg" xmlns:xlink="http://www.w3.org/1999/xlink">
<g id="graph0" class="graph" transform="scale(1 1) rotate(0) translate(4 688)">
<title>snakemake_dag</title>
<polygon fill="white" stroke="transparent" points="-4,4 -4,-688 2002.44,-688 2002.44,4 -4,4"/>
<!-- 0 -->
<g id="node1" class="node">
<title>0</title>
<path fill="none" stroke="#d85e56" stroke-width="2" d="M1046.94,-36C1046.94,-36 1016.94,-36 1016.94,-36 1010.94,-36 1004.94,-30 1004.94,-24 1004.94,-24 1004.94,-12 1004.94,-12 1004.94,-6 1010.94,0 1016.94,0 1016.94,0 1046.94,0 1046.94,0 1052.94,0 1058.94,-6 1058.94,-12 1058.94,-12 1058.94,-24 1058.94,-24 1058.94,-30 1052.94,-36 1046.94,-36"/>
<text text-anchor="middle" x="1031.94" y="-15.5" font-family="sans" font-size="10.00">all</text>
</g>
<!-- 1 -->
<g id="node2" class="node">
<title>1</title>
<path fill="none" stroke="#568ad8" stroke-width="2" d="M539.44,-396C539.44,-396 452.44,-396 452.44,-396 446.44,-396 440.44,-390 440.44,-384 440.44,-384 440.44,-372 440.44,-372 440.44,-366 446.44,-360 452.44,-360 452.44,-360 539.44,-360 539.44,-360 545.44,-360 551.44,-366 551.44,-372 551.44,-372 551.44,-384 551.44,-384 551.44,-390 545.44,-396 539.44,-396"/>
<text text-anchor="middle" x="495.94" y="-375.5" font-family="sans" font-size="10.00">fix_gtdb_taxonomy</text>
</g>
<!-- 1&#45;&gt;0 -->
<g id="edge26" class="edge">
<title>1&#45;&gt;0</title>
<path fill="none" stroke="grey" stroke-width="2" d="M440.41,-375.87C394.65,-372.15 330.56,-360.17 287.94,-324 255.01,-296.06 248.94,-278.19 248.94,-235 248.94,-235 248.94,-235 248.94,-161 248.94,-106.61 283.85,-95.41 332.94,-72 392.84,-43.44 858,-25.07 994.44,-20.26"/>
<polygon fill="grey" stroke="grey" stroke-width="2" points="994.92,-23.75 1004.79,-19.9 994.67,-16.75 994.92,-23.75"/>
</g>
<!-- 21 -->
<g id="node22" class="node">
<title>21</title>
<path fill="none" stroke="#56d8d8" stroke-width="2" d="M547.44,-324C547.44,-324 444.44,-324 444.44,-324 438.44,-324 432.44,-318 432.44,-312 432.44,-312 432.44,-300 432.44,-300 432.44,-294 438.44,-288 444.44,-288 444.44,-288 547.44,-288 547.44,-288 553.44,-288 559.44,-294 559.44,-300 559.44,-300 559.44,-312 559.44,-312 559.44,-318 553.44,-324 547.44,-324"/>
<text text-anchor="middle" x="495.94" y="-303.5" font-family="sans" font-size="10.00">downstream_bgc_prep</text>
</g>
<!-- 1&#45;&gt;21 -->
<g id="edge60" class="edge">
<title>1&#45;&gt;21</title>
<path fill="none" stroke="grey" stroke-width="2" d="M495.94,-359.7C495.94,-351.98 495.94,-342.71 495.94,-334.11"/>
<polygon fill="grey" stroke="grey" stroke-width="2" points="499.44,-334.1 495.94,-324.1 492.44,-334.1 499.44,-334.1"/>
</g>
<!-- 2 -->
<g id="node3" class="node">
<title>2</title>
<path fill="none" stroke="#56d87b" stroke-width="2" d="M964.44,-540C964.44,-540 923.44,-540 923.44,-540 917.44,-540 911.44,-534 911.44,-528 911.44,-528 911.44,-516 911.44,-516 911.44,-510 917.44,-504 923.44,-504 923.44,-504 964.44,-504 964.44,-504 970.44,-504 976.44,-510 976.44,-516 976.44,-516 976.44,-528 976.44,-528 976.44,-534 970.44,-540 964.44,-540"/>
<text text-anchor="middle" x="943.94" y="-519.5" font-family="sans" font-size="10.00">gtdb_prep</text>
</g>
<!-- 2&#45;&gt;1 -->
<g id="edge27" class="edge">
<title>2&#45;&gt;1</title>
<path fill="none" stroke="grey" stroke-width="2" d="M911.36,-510.67C837.49,-487.26 656.16,-429.78 559.32,-399.09"/>
<polygon fill="grey" stroke="grey" stroke-width="2" points="560.24,-395.71 549.65,-396.02 558.13,-402.38 560.24,-395.71"/>
</g>
<!-- 16 -->
<g id="node17" class="node">
<title>16</title>
<path fill="none" stroke="#566bd8" stroke-width="2" d="M1037.44,-468C1037.44,-468 988.44,-468 988.44,-468 982.44,-468 976.44,-462 976.44,-456 976.44,-456 976.44,-444 976.44,-444 976.44,-438 982.44,-432 988.44,-432 988.44,-432 1037.44,-432 1037.44,-432 1043.44,-432 1049.44,-438 1049.44,-444 1049.44,-444 1049.44,-456 1049.44,-456 1049.44,-462 1043.44,-468 1037.44,-468"/>
<text text-anchor="middle" x="1012.94" y="-447.5" font-family="sans" font-size="10.00">format_gbk</text>
</g>
<!-- 2&#45;&gt;16 -->
<g id="edge50" class="edge">
<title>2&#45;&gt;16</title>
<path fill="none" stroke="grey" stroke-width="2" d="M961,-503.7C969.44,-495.14 979.77,-484.66 988.98,-475.3"/>
<polygon fill="grey" stroke="grey" stroke-width="2" points="991.55,-477.68 996.08,-468.1 986.57,-472.77 991.55,-477.68"/>
</g>
<!-- 3 -->
<g id="node4" class="node">
<title>3</title>
<path fill="none" stroke="#56d8c1" stroke-width="2" d="M170.94,-108C170.94,-108 42.94,-108 42.94,-108 36.94,-108 30.94,-102 30.94,-96 30.94,-96 30.94,-84 30.94,-84 30.94,-78 36.94,-72 42.94,-72 42.94,-72 170.94,-72 170.94,-72 176.94,-72 182.94,-78 182.94,-84 182.94,-84 182.94,-96 182.94,-96 182.94,-102 176.94,-108 170.94,-108"/>
<text text-anchor="middle" x="106.94" y="-87.5" font-family="sans" font-size="10.00">write_dependency_versions</text>
</g>
<!-- 3&#45;&gt;0 -->
<g id="edge21" class="edge">
<title>3&#45;&gt;0</title>
<path fill="none" stroke="grey" stroke-width="2" d="M182.95,-73.96C187.67,-73.24 192.37,-72.58 196.94,-72 503.37,-33.48 876.76,-22.39 994.52,-19.73"/>
<polygon fill="grey" stroke="grey" stroke-width="2" points="994.87,-23.23 1004.79,-19.51 994.72,-16.23 994.87,-23.23"/>
</g>
<!-- 4 -->
<g id="node5" class="node">
<title>4</title>
<path fill="none" stroke="#5682d8" stroke-width="2" d="M1257.44,-612C1257.44,-612 1208.44,-612 1208.44,-612 1202.44,-612 1196.44,-606 1196.44,-600 1196.44,-600 1196.44,-588 1196.44,-588 1196.44,-582 1202.44,-576 1208.44,-576 1208.44,-576 1257.44,-576 1257.44,-576 1263.44,-576 1269.44,-582 1269.44,-588 1269.44,-588 1269.44,-600 1269.44,-600 1269.44,-606 1263.44,-612 1257.44,-612"/>
<text text-anchor="middle" x="1232.94" y="-591.5" font-family="sans" font-size="10.00">seqfu_stats</text>
</g>
<!-- 4&#45;&gt;0 -->
<g id="edge25" class="edge">
<title>4&#45;&gt;0</title>
<path fill="none" stroke="grey" stroke-width="2" d="M1232.94,-575.95C1232.94,-549.29 1232.94,-496.11 1232.94,-451 1232.94,-451 1232.94,-451 1232.94,-233 1232.94,-190.5 1224.18,-177.44 1197.94,-144 1180.81,-122.17 1168.51,-125.45 1146.94,-108 1128.6,-93.17 1126.33,-86.78 1107.94,-72 1094.88,-61.5 1079.86,-50.77 1066.65,-41.73"/>
<polygon fill="grey" stroke="grey" stroke-width="2" points="1068.5,-38.76 1058.26,-36.06 1064.58,-44.56 1068.5,-38.76"/>
</g>
<!-- 5 -->
<g id="node6" class="node">
<title>5</title>
<path fill="none" stroke="#d85656" stroke-width="2" d="M1402.94,-684C1402.94,-684 1292.94,-684 1292.94,-684 1286.94,-684 1280.94,-678 1280.94,-672 1280.94,-672 1280.94,-660 1280.94,-660 1280.94,-654 1286.94,-648 1292.94,-648 1292.94,-648 1402.94,-648 1402.94,-648 1408.94,-648 1414.94,-654 1414.94,-660 1414.94,-660 1414.94,-672 1414.94,-672 1414.94,-678 1408.94,-684 1402.94,-684"/>
<text text-anchor="middle" x="1347.94" y="-663.5" font-family="sans" font-size="10.00">ncbi_genome_download</text>
</g>
<!-- 5&#45;&gt;4 -->
<g id="edge28" class="edge">
<title>5&#45;&gt;4</title>
<path fill="none" stroke="grey" stroke-width="2" d="M1319.81,-647.88C1304.77,-638.72 1286.07,-627.34 1269.88,-617.48"/>
<polygon fill="grey" stroke="grey" stroke-width="2" points="1271.54,-614.4 1261.18,-612.19 1267.9,-620.38 1271.54,-614.4"/>
</g>
<!-- 8 -->
<g id="node9" class="node">
<title>8</title>
<path fill="none" stroke="#59d856" stroke-width="2" d="M913.94,-612C913.94,-612 883.94,-612 883.94,-612 877.94,-612 871.94,-606 871.94,-600 871.94,-600 871.94,-588 871.94,-588 871.94,-582 877.94,-576 883.94,-576 883.94,-576 913.94,-576 913.94,-576 919.94,-576 925.94,-582 925.94,-588 925.94,-588 925.94,-600 925.94,-600 925.94,-606 919.94,-612 913.94,-612"/>
<text text-anchor="middle" x="898.94" y="-591.5" font-family="sans" font-size="10.00">mlst</text>
</g>
<!-- 5&#45;&gt;8 -->
<g id="edge31" class="edge">
<title>5&#45;&gt;8</title>
<path fill="none" stroke="grey" stroke-width="2" d="M1280.89,-649.57C1277.87,-649.01 1274.88,-648.48 1271.94,-648 1123.75,-623.57 1080.74,-651.87 935.94,-612 935.84,-611.97 935.74,-611.94 935.63,-611.91"/>
<polygon fill="grey" stroke="grey" stroke-width="2" points="936.64,-608.56 926.05,-608.65 934.38,-615.19 936.64,-608.56"/>
</g>
<!-- 9 -->
<g id="node10" class="node">
<title>9</title>
<path fill="none" stroke="#ced856" stroke-width="2" d="M1021.44,-612C1021.44,-612 956.44,-612 956.44,-612 950.44,-612 944.44,-606 944.44,-600 944.44,-600 944.44,-588 944.44,-588 944.44,-582 950.44,-576 956.44,-576 956.44,-576 1021.44,-576 1021.44,-576 1027.44,-576 1033.44,-582 1033.44,-588 1033.44,-588 1033.44,-600 1033.44,-600 1033.44,-606 1027.44,-612 1021.44,-612"/>
<text text-anchor="middle" x="988.94" y="-591.5" font-family="sans" font-size="10.00">refseq_masher</text>
</g>
<!-- 5&#45;&gt;9 -->
<g id="edge34" class="edge">
<title>5&#45;&gt;9</title>
<path fill="none" stroke="grey" stroke-width="2" d="M1280.85,-649.75C1277.84,-649.14 1274.86,-648.56 1271.94,-648 1173.89,-629.35 1145.04,-635.14 1043.63,-611.95"/>
<polygon fill="grey" stroke="grey" stroke-width="2" points="1044.12,-608.48 1033.59,-609.62 1042.54,-615.29 1044.12,-608.48"/>
</g>
<!-- 10 -->
<g id="node11" class="node">
<title>10</title>
<path fill="none" stroke="#d8a456" stroke-width="2" d="M1093.94,-612C1093.94,-612 1063.94,-612 1063.94,-612 1057.94,-612 1051.94,-606 1051.94,-600 1051.94,-600 1051.94,-588 1051.94,-588 1051.94,-582 1057.94,-576 1063.94,-576 1063.94,-576 1093.94,-576 1093.94,-576 1099.94,-576 1105.94,-582 1105.94,-588 1105.94,-588 1105.94,-600 1105.94,-600 1105.94,-606 1099.94,-612 1093.94,-612"/>
<text text-anchor="middle" x="1078.94" y="-591.5" font-family="sans" font-size="10.00">mash</text>
</g>
<!-- 5&#45;&gt;10 -->
<g id="edge37" class="edge">
<title>5&#45;&gt;10</title>
<path fill="none" stroke="grey" stroke-width="2" d="M1280.85,-649.92C1222.93,-636.88 1145,-619.27 1116.13,-611.56"/>
<polygon fill="grey" stroke="grey" stroke-width="2" points="1116.78,-608.1 1106.2,-608.62 1114.8,-614.81 1116.78,-608.1"/>
</g>
<!-- 11 -->
<g id="node12" class="node">
<title>11</title>
<path fill="none" stroke="#88d856" stroke-width="2" d="M1165.94,-612C1165.94,-612 1135.94,-612 1135.94,-612 1129.94,-612 1123.94,-606 1123.94,-600 1123.94,-600 1123.94,-588 1123.94,-588 1123.94,-582 1129.94,-576 1135.94,-576 1135.94,-576 1165.94,-576 1165.94,-576 1171.94,-576 1177.94,-582 1177.94,-588 1177.94,-588 1177.94,-600 1177.94,-600 1177.94,-606 1171.94,-612 1165.94,-612"/>
<text text-anchor="middle" x="1150.94" y="-591.5" font-family="sans" font-size="10.00">fastani</text>
</g>
<!-- 5&#45;&gt;11 -->
<g id="edge40" class="edge">
<title>5&#45;&gt;11</title>
<path fill="none" stroke="grey" stroke-width="2" d="M1291.49,-647.98C1260.61,-638.25 1221.84,-625.35 1187.94,-612 1187.84,-611.96 1187.74,-611.92 1187.65,-611.88"/>
<polygon fill="grey" stroke="grey" stroke-width="2" points="1188.85,-608.59 1178.27,-607.97 1186.15,-615.05 1188.85,-608.59"/>
</g>
<!-- 13 -->
<g id="node14" class="node">
<title>13</title>
<path fill="none" stroke="#b6d856" stroke-width="2" d="M1664.44,-612C1664.44,-612 1633.44,-612 1633.44,-612 1627.44,-612 1621.44,-606 1621.44,-600 1621.44,-600 1621.44,-588 1621.44,-588 1621.44,-582 1627.44,-576 1633.44,-576 1633.44,-576 1664.44,-576 1664.44,-576 1670.44,-576 1676.44,-582 1676.44,-588 1676.44,-588 1676.44,-600 1676.44,-600 1676.44,-606 1670.44,-612 1664.44,-612"/>
<text text-anchor="middle" x="1648.94" y="-591.5" font-family="sans" font-size="10.00">checkm</text>
</g>
<!-- 5&#45;&gt;13 -->
<g id="edge44" class="edge">
<title>5&#45;&gt;13</title>
<path fill="none" stroke="grey" stroke-width="2" d="M1414.95,-655.96C1468.98,-647.62 1546.48,-633.29 1611.94,-612 1612.04,-611.97 1612.14,-611.94 1612.23,-611.91"/>
<polygon fill="grey" stroke="grey" stroke-width="2" points="1613.18,-615.28 1621.34,-608.52 1610.75,-608.72 1613.18,-615.28"/>
</g>
<!-- 17 -->
<g id="node18" class="node">
<title>17</title>
<path fill="none" stroke="#56b9d8" stroke-width="2" d="M1451.94,-540C1451.94,-540 1421.94,-540 1421.94,-540 1415.94,-540 1409.94,-534 1409.94,-528 1409.94,-528 1409.94,-516 1409.94,-516 1409.94,-510 1415.94,-504 1421.94,-504 1421.94,-504 1451.94,-504 1451.94,-504 1457.94,-504 1463.94,-510 1463.94,-516 1463.94,-516 1463.94,-528 1463.94,-528 1463.94,-534 1457.94,-540 1451.94,-540"/>
<text text-anchor="middle" x="1436.94" y="-519.5" font-family="sans" font-size="10.00">prokka</text>
</g>
<!-- 5&#45;&gt;17 -->
<g id="edge51" class="edge">
<title>5&#45;&gt;17</title>
<path fill="none" stroke="grey" stroke-width="2" d="M1406.84,-647.96C1424.07,-639.93 1440.94,-628.4 1450.94,-612 1462.4,-593.21 1457.04,-568.19 1449.88,-549.46"/>
<polygon fill="grey" stroke="grey" stroke-width="2" points="1453.02,-547.92 1445.93,-540.05 1446.57,-550.62 1453.02,-547.92"/>
</g>
<!-- 18 -->
<g id="node19" class="node">
<title>18</title>
<path fill="none" stroke="#56a9d8" stroke-width="2" d="M1396.44,-612C1396.44,-612 1299.44,-612 1299.44,-612 1293.44,-612 1287.44,-606 1287.44,-600 1287.44,-600 1287.44,-588 1287.44,-588 1287.44,-582 1293.44,-576 1299.44,-576 1299.44,-576 1396.44,-576 1396.44,-576 1402.44,-576 1408.44,-582 1408.44,-588 1408.44,-588 1408.44,-600 1408.44,-600 1408.44,-606 1402.44,-612 1396.44,-612"/>
<text text-anchor="middle" x="1347.94" y="-591.5" font-family="sans" font-size="10.00">extract_meta_prokka</text>
</g>
<!-- 5&#45;&gt;18 -->
<g id="edge56" class="edge">
<title>5&#45;&gt;18</title>
<path fill="none" stroke="grey" stroke-width="2" d="M1347.94,-647.7C1347.94,-639.98 1347.94,-630.71 1347.94,-622.11"/>
<polygon fill="grey" stroke="grey" stroke-width="2" points="1351.44,-622.1 1347.94,-612.1 1344.44,-622.1 1351.44,-622.1"/>
</g>
<!-- 50 -->
<g id="node51" class="node">
<title>50</title>
<path fill="none" stroke="#56d863" stroke-width="2" d="M1986.44,-540C1986.44,-540 1871.44,-540 1871.44,-540 1865.44,-540 1859.44,-534 1859.44,-528 1859.44,-528 1859.44,-516 1859.44,-516 1859.44,-510 1865.44,-504 1871.44,-504 1871.44,-504 1986.44,-504 1986.44,-504 1992.44,-504 1998.44,-510 1998.44,-516 1998.44,-516 1998.44,-528 1998.44,-528 1998.44,-534 1992.44,-540 1986.44,-540"/>
<text text-anchor="middle" x="1928.94" y="-519.5" font-family="sans" font-size="10.00">extract_ncbi_information</text>
</g>
<!-- 5&#45;&gt;50 -->
<g id="edge98" class="edge">
<title>5&#45;&gt;50</title>
<path fill="none" stroke="grey" stroke-width="2" d="M1415.11,-658.39C1483.89,-650.7 1593.51,-635.93 1685.94,-612 1755.06,-594.11 1832,-564.14 1880.42,-543.97"/>
<polygon fill="grey" stroke="grey" stroke-width="2" points="1881.84,-547.17 1889.71,-540.08 1879.14,-540.72 1881.84,-547.17"/>
</g>
<!-- 6 -->
<g id="node7" class="node">
<title>6</title>
<path fill="none" stroke="#d86e56" stroke-width="2" d="M1250.94,-684C1250.94,-684 1132.94,-684 1132.94,-684 1126.94,-684 1120.94,-678 1120.94,-672 1120.94,-672 1120.94,-660 1120.94,-660 1120.94,-654 1126.94,-648 1132.94,-648 1132.94,-648 1250.94,-648 1250.94,-648 1256.94,-648 1262.94,-654 1262.94,-660 1262.94,-660 1262.94,-672 1262.94,-672 1262.94,-678 1256.94,-684 1250.94,-684"/>
<text text-anchor="middle" x="1191.94" y="-663.5" font-family="sans" font-size="10.00">patric_genome_download</text>
</g>
<!-- 6&#45;&gt;4 -->
<g id="edge29" class="edge">
<title>6&#45;&gt;4</title>
<path fill="none" stroke="grey" stroke-width="2" d="M1202.08,-647.7C1206.79,-639.64 1212.5,-629.89 1217.72,-620.98"/>
<polygon fill="grey" stroke="grey" stroke-width="2" points="1220.89,-622.5 1222.92,-612.1 1214.85,-618.96 1220.89,-622.5"/>
</g>
<!-- 6&#45;&gt;8 -->
<g id="edge32" class="edge">
<title>6&#45;&gt;8</title>
<path fill="none" stroke="grey" stroke-width="2" d="M1120.85,-649.86C1117.84,-649.23 1114.86,-648.61 1111.94,-648 1033.78,-631.7 1011.82,-636.83 935.94,-612 935.84,-611.97 935.74,-611.93 935.64,-611.9"/>
<polygon fill="grey" stroke="grey" stroke-width="2" points="936.73,-608.57 926.14,-608.34 934.28,-615.13 936.73,-608.57"/>
</g>
<!-- 6&#45;&gt;9 -->
<g id="edge35" class="edge">
<title>6&#45;&gt;9</title>
<path fill="none" stroke="grey" stroke-width="2" d="M1142.54,-647.97C1112.57,-637.63 1074.29,-624.43 1043.44,-613.79"/>
<polygon fill="grey" stroke="grey" stroke-width="2" points="1044.3,-610.39 1033.7,-610.44 1042.02,-617 1044.3,-610.39"/>
</g>
<!-- 6&#45;&gt;10 -->
<g id="edge38" class="edge">
<title>6&#45;&gt;10</title>
<path fill="none" stroke="grey" stroke-width="2" d="M1164.3,-647.88C1149.41,-638.66 1130.88,-627.17 1114.88,-617.26"/>
<polygon fill="grey" stroke="grey" stroke-width="2" points="1116.64,-614.24 1106.3,-611.95 1112.96,-620.19 1116.64,-614.24"/>
</g>
<!-- 6&#45;&gt;11 -->
<g id="edge41" class="edge">
<title>6&#45;&gt;11</title>
<path fill="none" stroke="grey" stroke-width="2" d="M1181.81,-647.7C1177.09,-639.64 1171.38,-629.89 1166.16,-620.98"/>
<polygon fill="grey" stroke="grey" stroke-width="2" points="1169.03,-618.96 1160.96,-612.1 1162.99,-622.5 1169.03,-618.96"/>
</g>
<!-- 6&#45;&gt;13 -->
<g id="edge45" class="edge">
<title>6&#45;&gt;13</title>
<path fill="none" stroke="grey" stroke-width="2" d="M1262.97,-649.51C1266,-648.97 1269,-648.47 1271.94,-648 1422.02,-624.18 1465.41,-652.25 1611.94,-612 1612.04,-611.97 1612.14,-611.95 1612.24,-611.92"/>
<polygon fill="grey" stroke="grey" stroke-width="2" points="1613.07,-615.33 1621.43,-608.81 1610.83,-608.7 1613.07,-615.33"/>
</g>
<!-- 6&#45;&gt;17 -->
<g id="edge52" class="edge">
<title>6&#45;&gt;17</title>
<path fill="none" stroke="grey" stroke-width="2" d="M1263.18,-649.24C1328.36,-634.67 1415.13,-614.86 1417.94,-612 1433.71,-595.91 1437.81,-570.13 1438.34,-550.45"/>
<polygon fill="grey" stroke="grey" stroke-width="2" points="1441.84,-550.24 1438.33,-540.24 1434.84,-550.25 1441.84,-550.24"/>
</g>
<!-- 6&#45;&gt;18 -->
<g id="edge57" class="edge">
<title>6&#45;&gt;18</title>
<path fill="none" stroke="grey" stroke-width="2" d="M1230.1,-647.88C1251.33,-638.35 1277.95,-626.41 1300.51,-616.28"/>
<polygon fill="grey" stroke="grey" stroke-width="2" points="1302.21,-619.36 1309.9,-612.07 1299.35,-612.97 1302.21,-619.36"/>
</g>
<!-- 7 -->
<g id="node8" class="node">
<title>7</title>
<path fill="none" stroke="#d87556" stroke-width="2" d="M1090.44,-684C1090.44,-684 1003.44,-684 1003.44,-684 997.44,-684 991.44,-678 991.44,-672 991.44,-672 991.44,-660 991.44,-660 991.44,-654 997.44,-648 1003.44,-648 1003.44,-648 1090.44,-648 1090.44,-648 1096.44,-648 1102.44,-654 1102.44,-660 1102.44,-660 1102.44,-672 1102.44,-672 1102.44,-678 1096.44,-684 1090.44,-684"/>
<text text-anchor="middle" x="1046.94" y="-663.5" font-family="sans" font-size="10.00">copy_custom_fasta</text>
</g>
<!-- 7&#45;&gt;4 -->
<g id="edge30" class="edge">
<title>7&#45;&gt;4</title>
<path fill="none" stroke="grey" stroke-width="2" d="M1092.44,-647.88C1121.14,-637.08 1158.09,-623.17 1186.89,-612.33"/>
<polygon fill="grey" stroke="grey" stroke-width="2" points="1188.2,-615.58 1196.32,-608.78 1185.73,-609.03 1188.2,-615.58"/>
</g>
<!-- 7&#45;&gt;8 -->
<g id="edge33" class="edge">
<title>7&#45;&gt;8</title>
<path fill="none" stroke="grey" stroke-width="2" d="M1010.74,-647.88C987.72,-636.99 958.04,-622.95 935.04,-612.07"/>
<polygon fill="grey" stroke="grey" stroke-width="2" points="936.49,-608.89 925.95,-607.78 933.5,-615.22 936.49,-608.89"/>
</g>
<!-- 7&#45;&gt;9 -->
<g id="edge36" class="edge">
<title>7&#45;&gt;9</title>
<path fill="none" stroke="grey" stroke-width="2" d="M1032.6,-647.7C1025.65,-639.3 1017.17,-629.07 1009.54,-619.86"/>
<polygon fill="grey" stroke="grey" stroke-width="2" points="1012.19,-617.57 1003.11,-612.1 1006.8,-622.04 1012.19,-617.57"/>
</g>
<!-- 7&#45;&gt;10 -->
<g id="edge39" class="edge">
<title>7&#45;&gt;10</title>
<path fill="none" stroke="grey" stroke-width="2" d="M1054.85,-647.7C1058.49,-639.73 1062.9,-630.1 1066.94,-621.26"/>
<polygon fill="grey" stroke="grey" stroke-width="2" points="1070.15,-622.65 1071.12,-612.1 1063.78,-619.74 1070.15,-622.65"/>
</g>
<!-- 7&#45;&gt;11 -->
<g id="edge42" class="edge">
<title>7&#45;&gt;11</title>
<path fill="none" stroke="grey" stroke-width="2" d="M1072.38,-647.88C1085.73,-638.89 1102.27,-627.76 1116.72,-618.03"/>
<polygon fill="grey" stroke="grey" stroke-width="2" points="1119.06,-620.68 1125.4,-612.19 1115.15,-614.87 1119.06,-620.68"/>
</g>
<!-- 7&#45;&gt;13 -->
<g id="edge47" class="edge">
<title>7&#45;&gt;13</title>
<path fill="none" stroke="grey" stroke-width="2" d="M1102.47,-649.76C1105.66,-649.11 1108.83,-648.51 1111.94,-648 1328.54,-612.19 1394.22,-665.78 1611.26,-611.57"/>
<polygon fill="grey" stroke="grey" stroke-width="2" points="1612.22,-614.93 1621.04,-609.07 1610.49,-608.15 1612.22,-614.93"/>
</g>
<!-- 7&#45;&gt;17 -->
<g id="edge54" class="edge">
<title>7&#45;&gt;17</title>
<path fill="none" stroke="grey" stroke-width="2" d="M991.35,-657.78C923.03,-646.77 820.98,-622.02 862.94,-576 899.11,-536.34 1277.74,-525.93 1399.47,-523.6"/>
<polygon fill="grey" stroke="grey" stroke-width="2" points="1399.84,-527.09 1409.78,-523.41 1399.71,-520.09 1399.84,-527.09"/>
</g>
<!-- 7&#45;&gt;18 -->
<g id="edge58" class="edge">
<title>7&#45;&gt;18</title>
<path fill="none" stroke="grey" stroke-width="2" d="M1102.57,-650.28C1105.74,-649.5 1108.88,-648.73 1111.94,-648 1182.77,-631.11 1203.3,-629.22 1277.55,-612.28"/>
<polygon fill="grey" stroke="grey" stroke-width="2" points="1278.42,-615.68 1287.38,-610.03 1276.85,-608.85 1278.42,-615.68"/>
</g>
<!-- 8&#45;&gt;0 -->
<g id="edge14" class="edge">
<title>8&#45;&gt;0</title>
<path fill="none" stroke="grey" stroke-width="2" d="M871.78,-593.54C780.82,-594.76 479.16,-594.2 237.94,-540 128.97,-515.52 2.94,-562.68 2.94,-451 2.94,-451 2.94,-451 2.94,-161 2.94,-120.55 -8.83,-98.26 21.94,-72 59.63,-39.83 816.35,-23.18 994.58,-19.7"/>
<polygon fill="grey" stroke="grey" stroke-width="2" points="994.83,-23.19 1004.76,-19.5 994.7,-16.19 994.83,-23.19"/>
</g>
<!-- 9&#45;&gt;0 -->
<g id="edge7" class="edge">
<title>9&#45;&gt;0</title>
<path fill="none" stroke="grey" stroke-width="2" d="M944.28,-578.43C941.13,-577.56 938,-576.74 934.94,-576 776.27,-537.51 210.94,-614.27 210.94,-451 210.94,-451 210.94,-451 210.94,-161 210.94,-114.5 226.13,-96.03 265.94,-72 328.71,-34.11 849.28,-22.2 994.47,-19.6"/>
<polygon fill="grey" stroke="grey" stroke-width="2" points="994.72,-23.1 1004.65,-19.42 994.59,-16.1 994.72,-23.1"/>
</g>
<!-- 10&#45;&gt;0 -->
<g id="edge4" class="edge">
<title>10&#45;&gt;0</title>
<path fill="none" stroke="grey" stroke-width="2" d="M1051.65,-579.46C1048.74,-578.21 1045.8,-577.03 1042.94,-576 933.51,-536.5 812.94,-567.34 812.94,-451 812.94,-451 812.94,-451 812.94,-377 812.94,-229.82 834.52,-172.62 941.94,-72 957.57,-57.36 977.94,-44.94 995.35,-35.82"/>
<polygon fill="grey" stroke="grey" stroke-width="2" points="997.33,-38.74 1004.66,-31.09 994.16,-32.5 997.33,-38.74"/>
</g>
<!-- 11&#45;&gt;0 -->
<g id="edge12" class="edge">
<title>11&#45;&gt;0</title>
<path fill="none" stroke="grey" stroke-width="2" d="M1160.06,-575.61C1172.95,-549.36 1194.94,-497.71 1194.94,-451 1194.94,-451 1194.94,-451 1194.94,-233 1194.94,-192.55 1199.8,-176.66 1175.94,-144 1156.92,-117.96 1138.1,-128.17 1112.94,-108 1089.37,-89.1 1066.58,-63.16 1051.22,-44.16"/>
<polygon fill="grey" stroke="grey" stroke-width="2" points="1053.87,-41.87 1044.9,-36.22 1048.39,-46.23 1053.87,-41.87"/>
</g>
<!-- 12 -->
<g id="node13" class="node">
<title>12</title>
<path fill="none" stroke="#afd856" stroke-width="2" d="M1872.94,-396C1872.94,-396 1820.94,-396 1820.94,-396 1814.94,-396 1808.94,-390 1808.94,-384 1808.94,-384 1808.94,-372 1808.94,-372 1808.94,-366 1814.94,-360 1820.94,-360 1820.94,-360 1872.94,-360 1872.94,-360 1878.94,-360 1884.94,-366 1884.94,-372 1884.94,-372 1884.94,-384 1884.94,-384 1884.94,-390 1878.94,-396 1872.94,-396"/>
<text text-anchor="middle" x="1846.94" y="-375.5" font-family="sans" font-size="10.00">checkm_out</text>
</g>
<!-- 12&#45;&gt;0 -->
<g id="edge9" class="edge">
<title>12&#45;&gt;0</title>
<path fill="none" stroke="grey" stroke-width="2" d="M1844.11,-359.57C1840.02,-332.84 1832.94,-280.09 1832.94,-235 1832.94,-235 1832.94,-235 1832.94,-161 1832.94,-117.99 1829.99,-96.93 1794.94,-72 1735.43,-29.67 1214.73,-20.95 1069.44,-19.34"/>
<polygon fill="grey" stroke="grey" stroke-width="2" points="1069.29,-15.84 1059.25,-19.23 1069.22,-22.84 1069.29,-15.84"/>
</g>
<!-- 13&#45;&gt;12 -->
<g id="edge43" class="edge">
<title>13&#45;&gt;12</title>
<path fill="none" stroke="grey" stroke-width="2" d="M1676.6,-578.17C1712.37,-557.73 1774.5,-517.7 1811.94,-468 1825.93,-449.43 1835.09,-424.54 1840.52,-405.8"/>
<polygon fill="grey" stroke="grey" stroke-width="2" points="1843.91,-406.67 1843.15,-396.1 1837.15,-404.83 1843.91,-406.67"/>
</g>
<!-- 14 -->
<g id="node15" class="node">
<title>14</title>
<path fill="none" stroke="#56d8a2" stroke-width="2" d="M1681.94,-684C1681.94,-684 1615.94,-684 1615.94,-684 1609.94,-684 1603.94,-678 1603.94,-672 1603.94,-672 1603.94,-660 1603.94,-660 1603.94,-654 1609.94,-648 1615.94,-648 1615.94,-648 1681.94,-648 1681.94,-648 1687.94,-648 1693.94,-654 1693.94,-660 1693.94,-660 1693.94,-672 1693.94,-672 1693.94,-678 1687.94,-684 1681.94,-684"/>
<text text-anchor="middle" x="1648.94" y="-663.5" font-family="sans" font-size="10.00">install_checkm</text>
</g>
<!-- 14&#45;&gt;13 -->
<g id="edge46" class="edge">
<title>14&#45;&gt;13</title>
<path fill="none" stroke="grey" stroke-width="2" d="M1648.94,-647.7C1648.94,-639.98 1648.94,-630.71 1648.94,-622.11"/>
<polygon fill="grey" stroke="grey" stroke-width="2" points="1652.44,-622.1 1648.94,-612.1 1645.44,-622.1 1652.44,-622.1"/>
</g>
<!-- 15 -->
<g id="node16" class="node">
<title>15</title>
<path fill="none" stroke="#56d8b9" stroke-width="2" d="M1016.94,-396C1016.94,-396 938.94,-396 938.94,-396 932.94,-396 926.94,-390 926.94,-384 926.94,-384 926.94,-372 926.94,-372 926.94,-366 932.94,-360 938.94,-360 938.94,-360 1016.94,-360 1016.94,-360 1022.94,-360 1028.94,-366 1028.94,-372 1028.94,-372 1028.94,-384 1028.94,-384 1028.94,-390 1022.94,-396 1016.94,-396"/>
<text text-anchor="middle" x="977.94" y="-375.5" font-family="sans" font-size="10.00">copy_prokka_gbk</text>
</g>
<!-- 15&#45;&gt;0 -->
<g id="edge20" class="edge">
<title>15&#45;&gt;0</title>
<path fill="none" stroke="grey" stroke-width="2" d="M984.08,-359.87C992.35,-336.03 1006.83,-291.34 1013.94,-252 1027.24,-178.39 1030.72,-89.95 1031.63,-46.22"/>
<polygon fill="grey" stroke="grey" stroke-width="2" points="1035.13,-46.17 1031.81,-36.11 1028.13,-46.04 1035.13,-46.17"/>
</g>
<!-- 16&#45;&gt;15 -->
<g id="edge48" class="edge">
<title>16&#45;&gt;15</title>
<path fill="none" stroke="grey" stroke-width="2" d="M1004.29,-431.7C1000.31,-423.73 995.49,-414.1 991.07,-405.26"/>
<polygon fill="grey" stroke="grey" stroke-width="2" points="994.1,-403.48 986.49,-396.1 987.84,-406.61 994.1,-403.48"/>
</g>
<!-- 22 -->
<g id="node23" class="node">
<title>22</title>
<path fill="none" stroke="#56b1d8" stroke-width="2" d="M896.94,-396C896.94,-396 852.94,-396 852.94,-396 846.94,-396 840.94,-390 840.94,-384 840.94,-384 840.94,-372 840.94,-372 840.94,-366 846.94,-360 852.94,-360 852.94,-360 896.94,-360 896.94,-360 902.94,-360 908.94,-366 908.94,-372 908.94,-372 908.94,-384 908.94,-384 908.94,-390 902.94,-396 896.94,-396"/>
<text text-anchor="middle" x="874.94" y="-375.5" font-family="sans" font-size="10.00">antismash</text>
</g>
<!-- 16&#45;&gt;22 -->
<g id="edge62" class="edge">
<title>16&#45;&gt;22</title>
<path fill="none" stroke="grey" stroke-width="2" d="M979.18,-431.88C960.72,-422.51 937.66,-410.81 917.92,-400.8"/>
<polygon fill="grey" stroke="grey" stroke-width="2" points="919.33,-397.59 908.83,-396.19 916.17,-403.83 919.33,-397.59"/>
</g>
<!-- 35 -->
<g id="node36" class="node">
<title>35</title>
<path fill="none" stroke="#56d8a9" stroke-width="2" d="M1144.94,-396C1144.94,-396 1058.94,-396 1058.94,-396 1052.94,-396 1046.94,-390 1046.94,-384 1046.94,-384 1046.94,-372 1046.94,-372 1046.94,-366 1052.94,-360 1058.94,-360 1058.94,-360 1144.94,-360 1144.94,-360 1150.94,-360 1156.94,-366 1156.94,-372 1156.94,-372 1156.94,-384 1156.94,-384 1156.94,-390 1150.94,-396 1144.94,-396"/>
<text text-anchor="middle" x="1101.94" y="-375.5" font-family="sans" font-size="10.00">prep_automlst_gbk</text>
</g>
<!-- 16&#45;&gt;35 -->
<g id="edge80" class="edge">
<title>16&#45;&gt;35</title>
<path fill="none" stroke="grey" stroke-width="2" d="M1034.94,-431.7C1046.15,-422.88 1059.94,-412.03 1072.1,-402.47"/>
<polygon fill="grey" stroke="grey" stroke-width="2" points="1074.5,-405.04 1080.19,-396.1 1070.17,-399.54 1074.5,-405.04"/>
</g>
<!-- 17&#45;&gt;16 -->
<g id="edge49" class="edge">
<title>17&#45;&gt;16</title>
<path fill="none" stroke="grey" stroke-width="2" d="M1409.77,-516.51C1339.01,-504.83 1148.35,-473.35 1059.59,-458.7"/>
<polygon fill="grey" stroke="grey" stroke-width="2" points="1059.97,-455.22 1049.54,-457.04 1058.83,-462.12 1059.97,-455.22"/>
</g>
<!-- 39 -->
<g id="node40" class="node">
<title>39</title>
<path fill="none" stroke="#56d89a" stroke-width="2" d="M1492.94,-180C1492.94,-180 1462.94,-180 1462.94,-180 1456.94,-180 1450.94,-174 1450.94,-168 1450.94,-168 1450.94,-156 1450.94,-156 1450.94,-150 1456.94,-144 1462.94,-144 1462.94,-144 1492.94,-144 1492.94,-144 1498.94,-144 1504.94,-150 1504.94,-156 1504.94,-156 1504.94,-168 1504.94,-168 1504.94,-174 1498.94,-180 1492.94,-180"/>
<text text-anchor="middle" x="1477.94" y="-159.5" font-family="sans" font-size="10.00">roary</text>
</g>
<!-- 17&#45;&gt;39 -->
<g id="edge84" class="edge">
<title>17&#45;&gt;39</title>
<path fill="none" stroke="grey" stroke-width="2" d="M1441.39,-503.65C1447.82,-477.02 1458.94,-424.4 1458.94,-379 1458.94,-379 1458.94,-379 1458.94,-305 1458.94,-264.86 1466.49,-218.9 1472.07,-190.4"/>
<polygon fill="grey" stroke="grey" stroke-width="2" points="1475.55,-190.88 1474.1,-180.39 1468.69,-189.5 1475.55,-190.88"/>
</g>
<!-- 40 -->
<g id="node41" class="node">
<title>40</title>
<path fill="none" stroke="#9fd856" stroke-width="2" d="M1316.94,-108C1316.94,-108 1286.94,-108 1286.94,-108 1280.94,-108 1274.94,-102 1274.94,-96 1274.94,-96 1274.94,-84 1274.94,-84 1274.94,-78 1280.94,-72 1286.94,-72 1286.94,-72 1316.94,-72 1316.94,-72 1322.94,-72 1328.94,-78 1328.94,-84 1328.94,-84 1328.94,-96 1328.94,-96 1328.94,-102 1322.94,-108 1316.94,-108"/>
<text text-anchor="middle" x="1301.94" y="-87.5" font-family="sans" font-size="10.00">eggnog</text>
</g>
<!-- 17&#45;&gt;40 -->
<g id="edge85" class="edge">
<title>17&#45;&gt;40</title>
<path fill="none" stroke="grey" stroke-width="2" d="M1431.57,-503.88C1410.82,-437.8 1335.88,-199.08 1310.45,-118.1"/>
<polygon fill="grey" stroke="grey" stroke-width="2" points="1313.67,-116.66 1307.33,-108.17 1306.99,-118.76 1313.67,-116.66"/>
</g>
<!-- 43 -->
<g id="node44" class="node">
<title>43</title>
<path fill="none" stroke="#56d892" stroke-width="2" d="M1362.44,-468C1362.44,-468 1273.44,-468 1273.44,-468 1267.44,-468 1261.44,-462 1261.44,-456 1261.44,-456 1261.44,-444 1261.44,-444 1261.44,-438 1267.44,-432 1273.44,-432 1273.44,-432 1362.44,-432 1362.44,-432 1368.44,-432 1374.44,-438 1374.44,-444 1374.44,-444 1374.44,-456 1374.44,-456 1374.44,-462 1368.44,-468 1362.44,-468"/>
<text text-anchor="middle" x="1317.94" y="-447.5" font-family="sans" font-size="10.00">create_diamond_db</text>
</g>
<!-- 17&#45;&gt;43 -->
<g id="edge89" class="edge">
<title>17&#45;&gt;43</title>
<path fill="none" stroke="grey" stroke-width="2" d="M1409.94,-505.12C1393.94,-495.7 1373.42,-483.63 1355.81,-473.28"/>
<polygon fill="grey" stroke="grey" stroke-width="2" points="1357.31,-470.1 1346.92,-468.04 1353.76,-476.13 1357.31,-470.1"/>
</g>
<!-- 46 -->
<g id="node47" class="node">
<title>46</title>
<path fill="none" stroke="#d88d56" stroke-width="2" d="M1740.44,-108C1740.44,-108 1691.44,-108 1691.44,-108 1685.44,-108 1679.44,-102 1679.44,-96 1679.44,-96 1679.44,-84 1679.44,-84 1679.44,-78 1685.44,-72 1691.44,-72 1691.44,-72 1740.44,-72 1740.44,-72 1746.44,-72 1752.44,-78 1752.44,-84 1752.44,-84 1752.44,-96 1752.44,-96 1752.44,-102 1746.44,-108 1740.44,-108"/>
<text text-anchor="middle" x="1715.94" y="-87.5" font-family="sans" font-size="10.00">deeptfactor</text>
</g>
<!-- 17&#45;&gt;46 -->
<g id="edge92" class="edge">
<title>17&#45;&gt;46</title>
<path fill="none" stroke="grey" stroke-width="2" d="M1464.36,-516.56C1523.33,-505.27 1656.94,-469.69 1656.94,-379 1656.94,-379 1656.94,-379 1656.94,-233 1656.94,-189.83 1680.49,-144.53 1697.83,-117.03"/>
<polygon fill="grey" stroke="grey" stroke-width="2" points="1700.91,-118.7 1703.43,-108.41 1695.05,-114.89 1700.91,-118.7"/>
</g>
<!-- 48 -->
<g id="node49" class="node">
<title>48</title>
<path fill="none" stroke="#bed856" stroke-width="2" d="M1790.94,-468C1790.94,-468 1696.94,-468 1696.94,-468 1690.94,-468 1684.94,-462 1684.94,-456 1684.94,-456 1684.94,-444 1684.94,-444 1684.94,-438 1690.94,-432 1696.94,-432 1696.94,-432 1790.94,-432 1790.94,-432 1796.94,-432 1802.94,-438 1802.94,-444 1802.94,-444 1802.94,-456 1802.94,-456 1802.94,-462 1796.94,-468 1790.94,-468"/>
<text text-anchor="middle" x="1743.94" y="-447.5" font-family="sans" font-size="10.00">cblaster_genome_db</text>
</g>
<!-- 17&#45;&gt;48 -->
<g id="edge96" class="edge">
<title>17&#45;&gt;48</title>
<path fill="none" stroke="grey" stroke-width="2" d="M1463.98,-514.93C1507.56,-505.14 1596.04,-485.2 1670.94,-468 1672.19,-467.71 1673.45,-467.42 1674.72,-467.13"/>
<polygon fill="grey" stroke="grey" stroke-width="2" points="1675.63,-470.51 1684.59,-464.85 1674.06,-463.69 1675.63,-470.51"/>
</g>
<!-- 18&#45;&gt;17 -->
<g id="edge55" class="edge">
<title>18&#45;&gt;17</title>
<path fill="none" stroke="grey" stroke-width="2" d="M1369.94,-575.7C1381.15,-566.88 1394.94,-556.03 1407.1,-546.47"/>
<polygon fill="grey" stroke="grey" stroke-width="2" points="1409.5,-549.04 1415.19,-540.1 1405.17,-543.54 1409.5,-549.04"/>
</g>
<!-- 19 -->
<g id="node20" class="node">
<title>19</title>
<path fill="none" stroke="#56c9d8" stroke-width="2" d="M1590.94,-612C1590.94,-612 1514.94,-612 1514.94,-612 1508.94,-612 1502.94,-606 1502.94,-600 1502.94,-600 1502.94,-588 1502.94,-588 1502.94,-582 1508.94,-576 1514.94,-576 1514.94,-576 1590.94,-576 1590.94,-576 1596.94,-576 1602.94,-582 1602.94,-588 1602.94,-588 1602.94,-600 1602.94,-600 1602.94,-606 1596.94,-612 1590.94,-612"/>
<text text-anchor="middle" x="1552.94" y="-591.5" font-family="sans" font-size="10.00">prokka_db_setup</text>
</g>
<!-- 19&#45;&gt;17 -->
<g id="edge53" class="edge">
<title>19&#45;&gt;17</title>
<path fill="none" stroke="grey" stroke-width="2" d="M1524.56,-575.88C1509.06,-566.52 1489.69,-554.83 1473.11,-544.83"/>
<polygon fill="grey" stroke="grey" stroke-width="2" points="1474.6,-541.64 1464.23,-539.47 1470.98,-547.63 1474.6,-541.64"/>
</g>
<!-- 20 -->
<g id="node21" class="node">
<title>20</title>
<path fill="none" stroke="#56d85b" stroke-width="2" d="M553.44,-180C553.44,-180 458.44,-180 458.44,-180 452.44,-180 446.44,-174 446.44,-168 446.44,-168 446.44,-156 446.44,-156 446.44,-150 452.44,-144 458.44,-144 458.44,-144 553.44,-144 553.44,-144 559.44,-144 565.44,-150 565.44,-156 565.44,-156 565.44,-168 565.44,-168 565.44,-174 559.44,-180 553.44,-180"/>
<text text-anchor="middle" x="505.94" y="-159.5" font-family="sans" font-size="10.00">antismash_summary</text>
</g>
<!-- 20&#45;&gt;0 -->
<g id="edge15" class="edge">
<title>20&#45;&gt;0</title>
<path fill="none" stroke="grey" stroke-width="2" d="M515.34,-143.86C527.81,-122.98 551.89,-88.46 582.94,-72 654.14,-34.25 899.99,-22.96 994.51,-19.97"/>
<polygon fill="grey" stroke="grey" stroke-width="2" points="994.86,-23.46 1004.75,-19.66 994.65,-16.46 994.86,-23.46"/>
</g>
<!-- 28 -->
<g id="node29" class="node">
<title>28</title>
<path fill="none" stroke="#56d0d8" stroke-width="2" d="M459.94,-108C459.94,-108 353.94,-108 353.94,-108 347.94,-108 341.94,-102 341.94,-96 341.94,-96 341.94,-84 341.94,-84 341.94,-78 347.94,-72 353.94,-72 353.94,-72 459.94,-72 459.94,-72 465.94,-72 471.94,-78 471.94,-84 471.94,-84 471.94,-96 471.94,-96 471.94,-102 465.94,-108 459.94,-108"/>
<text text-anchor="middle" x="406.94" y="-87.5" font-family="sans" font-size="10.00">bigscape_to_cytoscape</text>
</g>
<!-- 20&#45;&gt;28 -->
<g id="edge70" class="edge">
<title>20&#45;&gt;28</title>
<path fill="none" stroke="grey" stroke-width="2" d="M481.72,-143.88C469.02,-134.89 453.28,-123.76 439.52,-114.03"/>
<polygon fill="grey" stroke="grey" stroke-width="2" points="441.44,-111.11 431.25,-108.19 437.4,-116.82 441.44,-111.11"/>
</g>
<!-- 21&#45;&gt;20 -->
<g id="edge59" class="edge">
<title>21&#45;&gt;20</title>
<path fill="none" stroke="grey" stroke-width="2" d="M480.76,-287.7C473.21,-277.94 464.88,-265.1 460.94,-252 456.34,-236.68 455.43,-231.02 460.94,-216 464.73,-205.7 471.5,-196.02 478.66,-187.84"/>
<polygon fill="grey" stroke="grey" stroke-width="2" points="481.28,-190.16 485.56,-180.47 476.17,-185.38 481.28,-190.16"/>
</g>
<!-- 25 -->
<g id="node26" class="node">
<title>25</title>
<path fill="none" stroke="#d89c56" stroke-width="2" d="M703.44,-180C703.44,-180 640.44,-180 640.44,-180 634.44,-180 628.44,-174 628.44,-168 628.44,-168 628.44,-156 628.44,-156 628.44,-150 634.44,-144 640.44,-144 640.44,-144 703.44,-144 703.44,-144 709.44,-144 715.44,-150 715.44,-156 715.44,-156 715.44,-168 715.44,-168 715.44,-174 709.44,-180 703.44,-180"/>
<text text-anchor="middle" x="671.94" y="-159.5" font-family="sans" font-size="10.00">query_bigslice</text>
</g>
<!-- 21&#45;&gt;25 -->
<g id="edge65" class="edge">
<title>21&#45;&gt;25</title>
<path fill="none" stroke="grey" stroke-width="2" d="M523.36,-287.8C538.64,-277.87 557.79,-264.83 573.94,-252 592.41,-237.33 595.5,-231.88 612.94,-216 623.38,-206.49 634.93,-196.09 645.02,-187.04"/>
<polygon fill="grey" stroke="grey" stroke-width="2" points="647.64,-189.4 652.75,-180.12 642.97,-184.19 647.64,-189.4"/>
</g>
<!-- 21&#45;&gt;28 -->
<g id="edge68" class="edge">
<title>21&#45;&gt;28</title>
<path fill="none" stroke="grey" stroke-width="2" d="M432.27,-291.23C380.18,-279.33 313.86,-262.43 305.94,-252 295.43,-238.16 297.65,-164.83 310.94,-144 319.38,-130.77 332.34,-120.56 346.04,-112.81"/>
<polygon fill="grey" stroke="grey" stroke-width="2" points="347.87,-115.8 355.1,-108.05 344.62,-109.6 347.87,-115.8"/>
</g>
<!-- 29 -->
<g id="node30" class="node">
<title>29</title>
<path fill="none" stroke="#d8d356" stroke-width="2" d="M415.94,-180C415.94,-180 331.94,-180 331.94,-180 325.94,-180 319.94,-174 319.94,-168 319.94,-168 319.94,-156 319.94,-156 319.94,-150 325.94,-144 331.94,-144 331.94,-144 415.94,-144 415.94,-144 421.94,-144 427.94,-150 427.94,-156 427.94,-156 427.94,-168 427.94,-168 427.94,-174 421.94,-180 415.94,-180"/>
<text text-anchor="middle" x="373.94" y="-159.5" font-family="sans" font-size="10.00">copy_bigscape_zip</text>
</g>
<!-- 21&#45;&gt;29 -->
<g id="edge71" class="edge">
<title>21&#45;&gt;29</title>
<path fill="none" stroke="grey" stroke-width="2" d="M481.23,-287.87C459.88,-263.03 420.2,-216.85 395.54,-188.14"/>
<polygon fill="grey" stroke="grey" stroke-width="2" points="397.88,-185.49 388.71,-180.19 392.57,-190.06 397.88,-185.49"/>
</g>
<!-- 30 -->
<g id="node31" class="node">
<title>30</title>
<path fill="none" stroke="#68d856" stroke-width="2" d="M362.94,-252C362.94,-252 326.94,-252 326.94,-252 320.94,-252 314.94,-246 314.94,-240 314.94,-240 314.94,-228 314.94,-228 314.94,-222 320.94,-216 326.94,-216 326.94,-216 362.94,-216 362.94,-216 368.94,-216 374.94,-222 374.94,-228 374.94,-228 374.94,-240 374.94,-240 374.94,-246 368.94,-252 362.94,-252"/>
<text text-anchor="middle" x="344.94" y="-231.5" font-family="sans" font-size="10.00">bigscape</text>
</g>
<!-- 21&#45;&gt;30 -->
<g id="edge74" class="edge">
<title>21&#45;&gt;30</title>
<path fill="none" stroke="grey" stroke-width="2" d="M459,-287.88C436.44,-277.42 407.6,-264.05 384.57,-253.37"/>
<polygon fill="grey" stroke="grey" stroke-width="2" points="385.95,-250.15 375.41,-249.12 383.01,-256.5 385.95,-250.15"/>
</g>
<!-- 32 -->
<g id="node33" class="node">
<title>32</title>
<path fill="none" stroke="#d89556" stroke-width="2" d="M782.94,-252C782.94,-252 752.94,-252 752.94,-252 746.94,-252 740.94,-246 740.94,-240 740.94,-240 740.94,-228 740.94,-228 740.94,-222 746.94,-216 752.94,-216 752.94,-216 782.94,-216 782.94,-216 788.94,-216 794.94,-222 794.94,-228 794.94,-228 794.94,-240 794.94,-240 794.94,-246 788.94,-252 782.94,-252"/>
<text text-anchor="middle" x="767.94" y="-231.5" font-family="sans" font-size="10.00">bigslice</text>
</g>
<!-- 21&#45;&gt;32 -->
<g id="edge75" class="edge">
<title>21&#45;&gt;32</title>
<path fill="none" stroke="grey" stroke-width="2" d="M559.6,-294.64C605.35,-286.3 668.43,-272.97 731.05,-251.93"/>
<polygon fill="grey" stroke="grey" stroke-width="2" points="732.36,-255.18 740.68,-248.63 730.09,-248.56 732.36,-255.18"/>
</g>
<!-- 49 -->
<g id="node50" class="node">
<title>49</title>
<path fill="none" stroke="#569ad8" stroke-width="2" d="M552.44,-252C552.44,-252 481.44,-252 481.44,-252 475.44,-252 469.44,-246 469.44,-240 469.44,-240 469.44,-228 469.44,-228 469.44,-222 475.44,-216 481.44,-216 481.44,-216 552.44,-216 552.44,-216 558.44,-216 564.44,-222 564.44,-228 564.44,-228 564.44,-240 564.44,-240 564.44,-246 558.44,-252 552.44,-252"/>
<text text-anchor="middle" x="516.94" y="-231.5" font-family="sans" font-size="10.00">cblaster_bgc_db</text>
</g>
<!-- 21&#45;&gt;49 -->
<g id="edge97" class="edge">
<title>21&#45;&gt;49</title>
<path fill="none" stroke="grey" stroke-width="2" d="M501.13,-287.7C503.47,-279.9 506.29,-270.51 508.89,-261.83"/>
<polygon fill="grey" stroke="grey" stroke-width="2" points="512.29,-262.69 511.81,-252.1 505.58,-260.68 512.29,-262.69"/>
</g>
<!-- 22&#45;&gt;21 -->
<g id="edge61" class="edge">
<title>22&#45;&gt;21</title>
<path fill="none" stroke="grey" stroke-width="2" d="M840.64,-370.66C779.74,-359.42 651.48,-335.73 569.74,-320.63"/>
<polygon fill="grey" stroke="grey" stroke-width="2" points="569.99,-317.12 559.52,-318.74 568.72,-324 569.99,-317.12"/>
</g>
<!-- 24 -->
<g id="node25" class="node">
<title>24</title>
<path fill="none" stroke="#d8c356" stroke-width="2" d="M992.94,-252C992.94,-252 900.94,-252 900.94,-252 894.94,-252 888.94,-246 888.94,-240 888.94,-240 888.94,-228 888.94,-228 888.94,-222 894.94,-216 900.94,-216 900.94,-216 992.94,-216 992.94,-216 998.94,-216 1004.94,-222 1004.94,-228 1004.94,-228 1004.94,-240 1004.94,-240 1004.94,-246 998.94,-252 992.94,-252"/>
<text text-anchor="middle" x="946.94" y="-231.5" font-family="sans" font-size="10.00">copy_antismash_zip</text>
</g>
<!-- 22&#45;&gt;24 -->
<g id="edge64" class="edge">
<title>22&#45;&gt;24</title>
<path fill="none" stroke="grey" stroke-width="2" d="M884.57,-359.93C890.32,-349.6 897.7,-336.12 903.94,-324 914.68,-303.14 926.21,-279.19 934.62,-261.39"/>
<polygon fill="grey" stroke="grey" stroke-width="2" points="937.86,-262.73 938.95,-252.19 931.53,-259.75 937.86,-262.73"/>
</g>
<!-- 37 -->
<g id="node38" class="node">
<title>37</title>
<path fill="none" stroke="#5692d8" stroke-width="2" d="M882.94,-324C882.94,-324 852.94,-324 852.94,-324 846.94,-324 840.94,-318 840.94,-312 840.94,-312 840.94,-300 840.94,-300 840.94,-294 846.94,-288 852.94,-288 852.94,-288 882.94,-288 882.94,-288 888.94,-288 894.94,-294 894.94,-300 894.94,-300 894.94,-312 894.94,-312 894.94,-318 888.94,-324 882.94,-324"/>
<text text-anchor="middle" x="867.94" y="-303.5" font-family="sans" font-size="10.00">arts</text>
</g>
<!-- 22&#45;&gt;37 -->
<g id="edge81" class="edge">
<title>22&#45;&gt;37</title>
<path fill="none" stroke="grey" stroke-width="2" d="M873.21,-359.7C872.44,-351.98 871.51,-342.71 870.65,-334.11"/>
<polygon fill="grey" stroke="grey" stroke-width="2" points="874.13,-333.71 869.65,-324.1 867.16,-334.4 874.13,-333.71"/>
</g>
<!-- 23 -->
<g id="node24" class="node">
<title>23</title>
<path fill="none" stroke="#70d856" stroke-width="2" d="M946.44,-468C946.44,-468 853.44,-468 853.44,-468 847.44,-468 841.44,-462 841.44,-456 841.44,-456 841.44,-444 841.44,-444 841.44,-438 847.44,-432 853.44,-432 853.44,-432 946.44,-432 946.44,-432 952.44,-432 958.44,-438 958.44,-444 958.44,-444 958.44,-456 958.44,-456 958.44,-462 952.44,-468 946.44,-468"/>
<text text-anchor="middle" x="899.94" y="-447.5" font-family="sans" font-size="10.00">antismash_db_setup</text>
</g>
<!-- 23&#45;&gt;22 -->
<g id="edge63" class="edge">
<title>23&#45;&gt;22</title>
<path fill="none" stroke="grey" stroke-width="2" d="M893.76,-431.7C890.95,-423.81 887.55,-414.3 884.42,-405.55"/>
<polygon fill="grey" stroke="grey" stroke-width="2" points="887.71,-404.34 881.05,-396.1 881.12,-406.7 887.71,-404.34"/>
</g>
<!-- 24&#45;&gt;0 -->
<g id="edge6" class="edge">
<title>24&#45;&gt;0</title>
<path fill="none" stroke="grey" stroke-width="2" d="M951.08,-215.56C958.54,-185.44 975.69,-122.09 998.94,-72 1003.28,-62.66 1008.94,-52.95 1014.35,-44.44"/>
<polygon fill="grey" stroke="grey" stroke-width="2" points="1017.28,-46.35 1019.82,-36.06 1011.42,-42.52 1017.28,-46.35"/>
</g>
<!-- 25&#45;&gt;0 -->
<g id="edge5" class="edge">
<title>25&#45;&gt;0</title>
<path fill="none" stroke="grey" stroke-width="2" d="M684.32,-143.9C700.13,-123.4 729.5,-89.6 762.94,-72 838.57,-32.2 940.42,-22.16 994.52,-19.71"/>
<polygon fill="grey" stroke="grey" stroke-width="2" points="994.82,-23.2 1004.68,-19.31 994.55,-16.21 994.82,-23.2"/>
</g>
<!-- 26 -->
<g id="node27" class="node">
<title>26</title>
<path fill="none" stroke="#8fd856" stroke-width="2" d="M710.44,-252C710.44,-252 633.44,-252 633.44,-252 627.44,-252 621.44,-246 621.44,-240 621.44,-240 621.44,-228 621.44,-228 621.44,-222 627.44,-216 633.44,-216 633.44,-216 710.44,-216 710.44,-216 716.44,-216 722.44,-222 722.44,-228 722.44,-228 722.44,-240 722.44,-240 722.44,-246 716.44,-252 710.44,-252"/>
<text text-anchor="middle" x="671.94" y="-231.5" font-family="sans" font-size="10.00">fetch_bigslice_db</text>
</g>
<!-- 26&#45;&gt;25 -->
<g id="edge66" class="edge">
<title>26&#45;&gt;25</title>
<path fill="none" stroke="grey" stroke-width="2" d="M671.94,-215.7C671.94,-207.98 671.94,-198.71 671.94,-190.11"/>
<polygon fill="grey" stroke="grey" stroke-width="2" points="675.44,-190.1 671.94,-180.1 668.44,-190.1 675.44,-190.1"/>
</g>
<!-- 27 -->
<g id="node28" class="node">
<title>27</title>
<path fill="none" stroke="#d6d856" stroke-width="2" d="M738.44,-324C738.44,-324 673.44,-324 673.44,-324 667.44,-324 661.44,-318 661.44,-312 661.44,-312 661.44,-300 661.44,-300 661.44,-294 667.44,-288 673.44,-288 673.44,-288 738.44,-288 738.44,-288 744.44,-288 750.44,-294 750.44,-300 750.44,-300 750.44,-312 750.44,-312 750.44,-318 744.44,-324 738.44,-324"/>
<text text-anchor="middle" x="705.94" y="-303.5" font-family="sans" font-size="10.00">install_bigslice</text>
</g>
<!-- 27&#45;&gt;26 -->
<g id="edge67" class="edge">
<title>27&#45;&gt;26</title>
<path fill="none" stroke="grey" stroke-width="2" d="M697.54,-287.7C693.67,-279.73 688.99,-270.1 684.7,-261.26"/>
<polygon fill="grey" stroke="grey" stroke-width="2" points="687.77,-259.57 680.25,-252.1 681.47,-262.63 687.77,-259.57"/>
</g>
<!-- 27&#45;&gt;32 -->
<g id="edge76" class="edge">
<title>27&#45;&gt;32</title>
<path fill="none" stroke="grey" stroke-width="2" d="M721.27,-287.7C728.7,-279.3 737.76,-269.07 745.92,-259.86"/>
<polygon fill="grey" stroke="grey" stroke-width="2" points="748.78,-261.91 752.79,-252.1 743.54,-257.27 748.78,-261.91"/>
</g>
<!-- 28&#45;&gt;0 -->
<g id="edge22" class="edge">
<title>28&#45;&gt;0</title>
<path fill="none" stroke="grey" stroke-width="2" d="M472.01,-78.59C487.38,-76.28 503.72,-73.94 518.94,-72 696.74,-49.33 910.17,-29.71 994.78,-22.23"/>
<polygon fill="grey" stroke="grey" stroke-width="2" points="995.26,-25.7 1004.91,-21.33 994.64,-18.73 995.26,-25.7"/>
</g>
<!-- 29&#45;&gt;28 -->
<g id="edge69" class="edge">
<title>29&#45;&gt;28</title>
<path fill="none" stroke="grey" stroke-width="2" d="M382.1,-143.7C385.86,-135.73 390.39,-126.1 394.56,-117.26"/>
<polygon fill="grey" stroke="grey" stroke-width="2" points="397.78,-118.64 398.88,-108.1 391.45,-115.66 397.78,-118.64"/>
</g>
<!-- 30&#45;&gt;29 -->
<g id="edge72" class="edge">
<title>30&#45;&gt;29</title>
<path fill="none" stroke="grey" stroke-width="2" d="M352.11,-215.7C355.38,-207.81 359.32,-198.3 362.94,-189.55"/>
<polygon fill="grey" stroke="grey" stroke-width="2" points="366.26,-190.68 366.86,-180.1 359.79,-188 366.26,-190.68"/>
</g>
<!-- 31 -->
<g id="node32" class="node">
<title>31</title>
<path fill="none" stroke="#d87d56" stroke-width="2" d="M380.44,-324C380.44,-324 309.44,-324 309.44,-324 303.44,-324 297.44,-318 297.44,-312 297.44,-312 297.44,-300 297.44,-300 297.44,-294 303.44,-288 309.44,-288 309.44,-288 380.44,-288 380.44,-288 386.44,-288 392.44,-294 392.44,-300 392.44,-300 392.44,-312 392.44,-312 392.44,-318 386.44,-324 380.44,-324"/>
<text text-anchor="middle" x="344.94" y="-303.5" font-family="sans" font-size="10.00">install_bigscape</text>
</g>
<!-- 31&#45;&gt;30 -->
<g id="edge73" class="edge">
<title>31&#45;&gt;30</title>
<path fill="none" stroke="grey" stroke-width="2" d="M344.94,-287.7C344.94,-279.98 344.94,-270.71 344.94,-262.11"/>
<polygon fill="grey" stroke="grey" stroke-width="2" points="348.44,-262.1 344.94,-252.1 341.44,-262.1 348.44,-262.1"/>
</g>
<!-- 32&#45;&gt;0 -->
<g id="edge3" class="edge">
<title>32&#45;&gt;0</title>
<path fill="none" stroke="grey" stroke-width="2" d="M766.97,-215.9C766.09,-183.1 769.16,-111.15 808.94,-72 834.98,-46.38 938.34,-30.25 994.75,-23.17"/>
<polygon fill="grey" stroke="grey" stroke-width="2" points="995.2,-26.64 1004.7,-21.96 994.35,-19.7 995.2,-26.64"/>
</g>
<!-- 33 -->
<g id="node34" class="node">
<title>33</title>
<path fill="none" stroke="#97d856" stroke-width="2" d="M1154.94,-180C1154.94,-180 1052.94,-180 1052.94,-180 1046.94,-180 1040.94,-174 1040.94,-168 1040.94,-168 1040.94,-156 1040.94,-156 1040.94,-150 1046.94,-144 1052.94,-144 1052.94,-144 1154.94,-144 1154.94,-144 1160.94,-144 1166.94,-150 1166.94,-156 1166.94,-156 1166.94,-168 1166.94,-168 1166.94,-174 1160.94,-180 1154.94,-180"/>
<text text-anchor="middle" x="1103.94" y="-159.5" font-family="sans" font-size="10.00">automlst_wrapper_out</text>
</g>
<!-- 33&#45;&gt;0 -->
<g id="edge11" class="edge">
<title>33&#45;&gt;0</title>
<path fill="none" stroke="grey" stroke-width="2" d="M1094.32,-143.93C1088.56,-133.6 1081.18,-120.12 1074.94,-108 1064.21,-87.14 1052.68,-63.19 1044.26,-45.39"/>
<polygon fill="grey" stroke="grey" stroke-width="2" points="1047.36,-43.75 1039.93,-36.19 1041.02,-46.73 1047.36,-43.75"/>
</g>
<!-- 38 -->
<g id="node39" class="node">
<title>38</title>
<path fill="none" stroke="#56d882" stroke-width="2" d="M1206.44,-108C1206.44,-108 1167.44,-108 1167.44,-108 1161.44,-108 1155.44,-102 1155.44,-96 1155.44,-96 1155.44,-84 1155.44,-84 1155.44,-78 1161.44,-72 1167.44,-72 1167.44,-72 1206.44,-72 1206.44,-72 1212.44,-72 1218.44,-78 1218.44,-84 1218.44,-84 1218.44,-96 1218.44,-96 1218.44,-102 1212.44,-108 1206.44,-108"/>
<text text-anchor="middle" x="1186.94" y="-87.5" font-family="sans" font-size="10.00">roary_out</text>
</g>
<!-- 33&#45;&gt;38 -->
<g id="edge83" class="edge">
<title>33&#45;&gt;38</title>
<path fill="none" stroke="grey" stroke-width="2" d="M1124.46,-143.7C1134.81,-134.97 1147.53,-124.24 1158.78,-114.75"/>
<polygon fill="grey" stroke="grey" stroke-width="2" points="1161.27,-117.23 1166.66,-108.1 1156.76,-111.88 1161.27,-117.23"/>
</g>
<!-- 34 -->
<g id="node35" class="node">
<title>34</title>
<path fill="none" stroke="#d8b456" stroke-width="2" d="M1154.44,-252C1154.44,-252 1073.44,-252 1073.44,-252 1067.44,-252 1061.44,-246 1061.44,-240 1061.44,-240 1061.44,-228 1061.44,-228 1061.44,-222 1067.44,-216 1073.44,-216 1073.44,-216 1154.44,-216 1154.44,-216 1160.44,-216 1166.44,-222 1166.44,-228 1166.44,-228 1166.44,-240 1166.44,-240 1166.44,-246 1160.44,-252 1154.44,-252"/>
<text text-anchor="middle" x="1113.94" y="-231.5" font-family="sans" font-size="10.00">automlst_wrapper</text>
</g>
<!-- 34&#45;&gt;33 -->
<g id="edge77" class="edge">
<title>34&#45;&gt;33</title>
<path fill="none" stroke="grey" stroke-width="2" d="M1111.47,-215.7C1110.37,-207.98 1109.04,-198.71 1107.81,-190.11"/>
<polygon fill="grey" stroke="grey" stroke-width="2" points="1111.26,-189.51 1106.39,-180.1 1104.33,-190.5 1111.26,-189.51"/>
</g>
<!-- 35&#45;&gt;34 -->
<g id="edge79" class="edge">
<title>35&#45;&gt;34</title>
<path fill="none" stroke="grey" stroke-width="2" d="M1057.87,-359.98C1042.39,-351.62 1026.68,-339.85 1017.94,-324 1010.22,-309.99 1009.81,-301.78 1017.94,-288 1025.88,-274.55 1038.59,-264.28 1052.19,-256.53"/>
<polygon fill="grey" stroke="grey" stroke-width="2" points="1053.99,-259.54 1061.22,-251.79 1050.74,-253.34 1053.99,-259.54"/>
</g>
<!-- 36 -->
<g id="node37" class="node">
<title>36</title>
<path fill="none" stroke="#56d8c9" stroke-width="2" d="M1154.94,-324C1154.94,-324 1038.94,-324 1038.94,-324 1032.94,-324 1026.94,-318 1026.94,-312 1026.94,-312 1026.94,-300 1026.94,-300 1026.94,-294 1032.94,-288 1038.94,-288 1038.94,-288 1154.94,-288 1154.94,-288 1160.94,-288 1166.94,-294 1166.94,-300 1166.94,-300 1166.94,-312 1166.94,-312 1166.94,-318 1160.94,-324 1154.94,-324"/>
<text text-anchor="middle" x="1096.94" y="-303.5" font-family="sans" font-size="10.00">install_automlst_wrapper</text>
</g>
<!-- 36&#45;&gt;34 -->
<g id="edge78" class="edge">
<title>36&#45;&gt;34</title>
<path fill="none" stroke="grey" stroke-width="2" d="M1101.14,-287.7C1103.04,-279.9 1105.32,-270.51 1107.43,-261.83"/>
<polygon fill="grey" stroke="grey" stroke-width="2" points="1110.83,-262.65 1109.79,-252.1 1104.03,-261 1110.83,-262.65"/>
</g>
<!-- 37&#45;&gt;0 -->
<g id="edge24" class="edge">
<title>37&#45;&gt;0</title>
<path fill="none" stroke="grey" stroke-width="2" d="M867.9,-287.68C868.39,-269.29 870.74,-239.69 879.94,-216 907.64,-144.68 969.77,-77.76 1005.42,-43.28"/>
<polygon fill="grey" stroke="grey" stroke-width="2" points="1008.21,-45.46 1013.03,-36.02 1003.38,-40.39 1008.21,-45.46"/>
</g>
<!-- 38&#45;&gt;0 -->
<g id="edge18" class="edge">
<title>38&#45;&gt;0</title>
<path fill="none" stroke="grey" stroke-width="2" d="M1155.2,-74.67C1129.96,-63.27 1094.63,-47.31 1068.26,-35.4"/>
<polygon fill="grey" stroke="grey" stroke-width="2" points="1069.54,-32.14 1058.98,-31.21 1066.66,-38.52 1069.54,-32.14"/>
</g>
<!-- 39&#45;&gt;38 -->
<g id="edge82" class="edge">
<title>39&#45;&gt;38</title>
<path fill="none" stroke="grey" stroke-width="2" d="M1450.7,-147.31C1447.78,-146.09 1444.83,-144.96 1441.94,-144 1366.19,-118.77 1344.08,-124.4 1265.94,-108 1253.71,-105.43 1240.43,-102.6 1228.31,-99.99"/>
<polygon fill="grey" stroke="grey" stroke-width="2" points="1228.96,-96.55 1218.45,-97.86 1227.49,-103.39 1228.96,-96.55"/>
</g>
<!-- 42 -->
<g id="node43" class="node">
<title>42</title>
<path fill="none" stroke="#56d873" stroke-width="2" d="M1418.44,-108C1418.44,-108 1359.44,-108 1359.44,-108 1353.44,-108 1347.44,-102 1347.44,-96 1347.44,-96 1347.44,-84 1347.44,-84 1347.44,-78 1353.44,-72 1359.44,-72 1359.44,-72 1418.44,-72 1418.44,-72 1424.44,-72 1430.44,-78 1430.44,-84 1430.44,-84 1430.44,-96 1430.44,-96 1430.44,-102 1424.44,-108 1418.44,-108"/>
<text text-anchor="middle" x="1388.94" y="-87.5" font-family="sans" font-size="10.00">eggnog_roary</text>
</g>
<!-- 39&#45;&gt;42 -->
<g id="edge87" class="edge">
<title>39&#45;&gt;42</title>
<path fill="none" stroke="grey" stroke-width="2" d="M1455.94,-143.7C1444.73,-134.88 1430.94,-124.03 1418.79,-114.47"/>
<polygon fill="grey" stroke="grey" stroke-width="2" points="1420.71,-111.54 1410.69,-108.1 1416.39,-117.04 1420.71,-111.54"/>
</g>
<!-- 44 -->
<g id="node45" class="node">
<title>44</title>
<path fill="none" stroke="#5673d8" stroke-width="2" d="M1648.94,-108C1648.94,-108 1582.94,-108 1582.94,-108 1576.94,-108 1570.94,-102 1570.94,-96 1570.94,-96 1570.94,-84 1570.94,-84 1570.94,-78 1576.94,-72 1582.94,-72 1582.94,-72 1648.94,-72 1648.94,-72 1654.94,-72 1660.94,-78 1660.94,-84 1660.94,-84 1660.94,-96 1660.94,-96 1660.94,-102 1654.94,-108 1648.94,-108"/>
<text text-anchor="middle" x="1615.94" y="-87.5" font-family="sans" font-size="10.00">diamond_roary</text>
</g>
<!-- 39&#45;&gt;44 -->
<g id="edge91" class="edge">
<title>39&#45;&gt;44</title>
<path fill="none" stroke="grey" stroke-width="2" d="M1505.21,-147.17C1524.59,-137.34 1551.01,-123.94 1573.18,-112.69"/>
<polygon fill="grey" stroke="grey" stroke-width="2" points="1575.05,-115.66 1582.39,-108.02 1571.89,-109.42 1575.05,-115.66"/>
</g>
<!-- 47 -->
<g id="node48" class="node">
<title>47</title>
<path fill="none" stroke="#78d856" stroke-width="2" d="M1540.94,-108C1540.94,-108 1460.94,-108 1460.94,-108 1454.94,-108 1448.94,-102 1448.94,-96 1448.94,-96 1448.94,-84 1448.94,-84 1448.94,-78 1454.94,-72 1460.94,-72 1460.94,-72 1540.94,-72 1540.94,-72 1546.94,-72 1552.94,-78 1552.94,-84 1552.94,-84 1552.94,-96 1552.94,-96 1552.94,-102 1546.94,-108 1540.94,-108"/>
<text text-anchor="middle" x="1500.94" y="-87.5" font-family="sans" font-size="10.00">deeptfactor_roary</text>
</g>
<!-- 39&#45;&gt;47 -->
<g id="edge95" class="edge">
<title>39&#45;&gt;47</title>
<path fill="none" stroke="grey" stroke-width="2" d="M1483.63,-143.7C1486.19,-135.9 1489.27,-126.51 1492.13,-117.83"/>
<polygon fill="grey" stroke="grey" stroke-width="2" points="1495.53,-118.7 1495.32,-108.1 1488.87,-116.51 1495.53,-118.7"/>
</g>
<!-- 40&#45;&gt;0 -->
<g id="edge10" class="edge">
<title>40&#45;&gt;0</title>
<path fill="none" stroke="grey" stroke-width="2" d="M1274.83,-77.02C1270.24,-75.21 1265.49,-73.46 1260.94,-72 1194.61,-50.73 1114.92,-34.26 1069.18,-25.65"/>
<polygon fill="grey" stroke="grey" stroke-width="2" points="1069.6,-22.17 1059.13,-23.78 1068.32,-29.05 1069.6,-22.17"/>
</g>
<!-- 41 -->
<g id="node42" class="node">
<title>41</title>
<path fill="none" stroke="#5663d8" stroke-width="2" d="M1420.94,-180C1420.94,-180 1356.94,-180 1356.94,-180 1350.94,-180 1344.94,-174 1344.94,-168 1344.94,-168 1344.94,-156 1344.94,-156 1344.94,-150 1350.94,-144 1356.94,-144 1356.94,-144 1420.94,-144 1420.94,-144 1426.94,-144 1432.94,-150 1432.94,-156 1432.94,-156 1432.94,-168 1432.94,-168 1432.94,-174 1426.94,-180 1420.94,-180"/>
<text text-anchor="middle" x="1388.94" y="-159.5" font-family="sans" font-size="10.00">install_eggnog</text>
</g>
<!-- 41&#45;&gt;40 -->
<g id="edge86" class="edge">
<title>41&#45;&gt;40</title>
<path fill="none" stroke="grey" stroke-width="2" d="M1367.44,-143.7C1356.48,-134.88 1343,-124.03 1331.12,-114.47"/>
<polygon fill="grey" stroke="grey" stroke-width="2" points="1333.19,-111.65 1323.2,-108.1 1328.8,-117.1 1333.19,-111.65"/>
</g>
<!-- 41&#45;&gt;42 -->
<g id="edge88" class="edge">
<title>41&#45;&gt;42</title>
<path fill="none" stroke="grey" stroke-width="2" d="M1388.94,-143.7C1388.94,-135.98 1388.94,-126.71 1388.94,-118.11"/>
<polygon fill="grey" stroke="grey" stroke-width="2" points="1392.44,-118.1 1388.94,-108.1 1385.44,-118.1 1392.44,-118.1"/>
</g>
<!-- 42&#45;&gt;0 -->
<g id="edge17" class="edge">
<title>42&#45;&gt;0</title>
<path fill="none" stroke="grey" stroke-width="2" d="M1347.34,-74.57C1344.18,-73.64 1341.02,-72.77 1337.94,-72 1242.45,-47.96 1127.47,-31.25 1069.41,-23.64"/>
<polygon fill="grey" stroke="grey" stroke-width="2" points="1069.61,-20.14 1059.24,-22.33 1068.71,-27.08 1069.61,-20.14"/>
</g>
<!-- 43&#45;&gt;0 -->
<g id="edge19" class="edge">
<title>43&#45;&gt;0</title>
<path fill="none" stroke="grey" stroke-width="2" d="M1308.2,-431.68C1294.44,-405.53 1270.94,-354 1270.94,-307 1270.94,-307 1270.94,-307 1270.94,-233 1270.94,-158.94 1280.23,-124.45 1227.94,-72 1185.66,-29.59 1113.19,-20.13 1069.21,-18.56"/>
<polygon fill="grey" stroke="grey" stroke-width="2" points="1069.29,-15.06 1059.21,-18.32 1069.12,-22.06 1069.29,-15.06"/>
</g>
<!-- 44&#45;&gt;0 -->
<g id="edge1" class="edge">
<title>44&#45;&gt;0</title>
<path fill="none" stroke="grey" stroke-width="2" d="M1570.75,-74.03C1567.78,-73.28 1564.83,-72.59 1561.94,-72 1379.54,-34.58 1156.2,-23.24 1069.15,-20.1"/>
<polygon fill="grey" stroke="grey" stroke-width="2" points="1069.1,-16.6 1058.98,-19.75 1068.86,-23.59 1069.1,-16.6"/>
</g>
<!-- 45 -->
<g id="node46" class="node">
<title>45</title>
<path fill="none" stroke="#d8bc56" stroke-width="2" d="M1616.44,-180C1616.44,-180 1535.44,-180 1535.44,-180 1529.44,-180 1523.44,-174 1523.44,-168 1523.44,-168 1523.44,-156 1523.44,-156 1523.44,-150 1529.44,-144 1535.44,-144 1535.44,-144 1616.44,-144 1616.44,-144 1622.44,-144 1628.44,-150 1628.44,-156 1628.44,-156 1628.44,-168 1628.44,-168 1628.44,-174 1622.44,-180 1616.44,-180"/>
<text text-anchor="middle" x="1575.94" y="-159.5" font-family="sans" font-size="10.00">deeptfactor_setup</text>
</g>
<!-- 45&#45;&gt;44 -->
<g id="edge90" class="edge">
<title>45&#45;&gt;44</title>
<path fill="none" stroke="grey" stroke-width="2" d="M1585.83,-143.7C1590.43,-135.64 1596,-125.89 1601.09,-116.98"/>
<polygon fill="grey" stroke="grey" stroke-width="2" points="1604.25,-118.52 1606.17,-108.1 1598.17,-115.05 1604.25,-118.52"/>
</g>
<!-- 45&#45;&gt;46 -->
<g id="edge93" class="edge">
<title>45&#45;&gt;46</title>
<path fill="none" stroke="grey" stroke-width="2" d="M1610.19,-143.88C1629,-134.47 1652.53,-122.71 1672.61,-112.67"/>
<polygon fill="grey" stroke="grey" stroke-width="2" points="1674.18,-115.79 1681.56,-108.19 1671.05,-109.53 1674.18,-115.79"/>
</g>
<!-- 45&#45;&gt;47 -->
<g id="edge94" class="edge">
<title>45&#45;&gt;47</title>
<path fill="none" stroke="grey" stroke-width="2" d="M1557.4,-143.7C1548.14,-135.05 1536.78,-124.45 1526.68,-115.03"/>
<polygon fill="grey" stroke="grey" stroke-width="2" points="1528.97,-112.37 1519.27,-108.1 1524.19,-117.49 1528.97,-112.37"/>
</g>
<!-- 46&#45;&gt;0 -->
<g id="edge2" class="edge">
<title>46&#45;&gt;0</title>
<path fill="none" stroke="grey" stroke-width="2" d="M1679.3,-74.46C1676.16,-73.52 1673.02,-72.68 1669.94,-72 1445.91,-22.27 1168.23,-18.28 1069.18,-18.6"/>
<polygon fill="grey" stroke="grey" stroke-width="2" points="1069.06,-15.1 1059.08,-18.65 1069.09,-22.1 1069.06,-15.1"/>
</g>
<!-- 47&#45;&gt;0 -->
<g id="edge13" class="edge">
<title>47&#45;&gt;0</title>
<path fill="none" stroke="grey" stroke-width="2" d="M1448.82,-73.95C1445.82,-73.25 1442.85,-72.59 1439.94,-72 1304.84,-44.55 1141.54,-28.36 1069.35,-22.06"/>
<polygon fill="grey" stroke="grey" stroke-width="2" points="1069.64,-18.57 1059.38,-21.2 1069.04,-25.55 1069.64,-18.57"/>
</g>
<!-- 48&#45;&gt;0 -->
<g id="edge8" class="edge">
<title>48&#45;&gt;0</title>
<path fill="none" stroke="grey" stroke-width="2" d="M1751.43,-431.89C1762.24,-405.58 1780.94,-353.37 1780.94,-307 1780.94,-307 1780.94,-307 1780.94,-161 1780.94,-120.55 1792.44,-98.56 1761.94,-72 1709.41,-26.25 1211.24,-19.99 1069.43,-19.13"/>
<polygon fill="grey" stroke="grey" stroke-width="2" points="1069.11,-15.63 1059.09,-19.08 1069.07,-22.63 1069.11,-15.63"/>
</g>
<!-- 49&#45;&gt;0 -->
<g id="edge23" class="edge">
<title>49&#45;&gt;0</title>
<path fill="none" stroke="grey" stroke-width="2" d="M536.6,-215.72C581.97,-176.01 691.64,-80.92 711.94,-72 807.7,-29.91 932.97,-21 994.51,-19.27"/>
<polygon fill="grey" stroke="grey" stroke-width="2" points="994.62,-22.77 1004.53,-19.04 994.46,-15.78 994.62,-22.77"/>
</g>
<!-- 50&#45;&gt;0 -->
<g id="edge16" class="edge">
<title>50&#45;&gt;0</title>
<path fill="none" stroke="grey" stroke-width="2" d="M1927.36,-503.97C1925.03,-477.33 1920.94,-424.19 1920.94,-379 1920.94,-379 1920.94,-379 1920.94,-161 1920.94,-102.49 1877.73,-95.03 1823.94,-72 1754.11,-42.1 1217.09,-24.39 1069.41,-20.05"/>
<polygon fill="grey" stroke="grey" stroke-width="2" points="1069.17,-16.54 1059.07,-19.75 1068.97,-23.54 1069.17,-16.54"/>
</g>
</g>
</svg>
