<?xml version="1.0" encoding="UTF-8" standalone="no"?>
<!DOCTYPE svg PUBLIC "-//W3C//DTD SVG 1.1//EN"
 "http://www.w3.org/Graphics/SVG/1.1/DTD/svg11.dtd">
<!-- Generated by graphviz version 2.49.3 (20211104.1129)
 -->
<!-- Title: snakemake_dag Pages: 1 -->
<svg width="1475pt" height="548pt"
 viewBox="0.00 0.00 1475.00 548.00" xmlns="http://www.w3.org/2000/svg" xmlns:xlink="http://www.w3.org/1999/xlink">
<g id="graph0" class="graph" transform="scale(1 1) rotate(0) translate(4 544)">
<title>snakemake_dag</title>
<polygon fill="white" stroke="transparent" points="-4,4 -4,-544 1471,-544 1471,4 -4,4"/>
<!-- 0 -->
<g id="node1" class="node">
<title>0</title>
<path fill="none" stroke="#d88d56" stroke-width="2" d="M942,-36C942,-36 912,-36 912,-36 906,-36 900,-30 900,-24 900,-24 900,-12 900,-12 900,-6 906,0 912,0 912,0 942,0 942,0 948,0 954,-6 954,-12 954,-12 954,-24 954,-24 954,-30 948,-36 942,-36"/>
<text text-anchor="middle" x="927" y="-15.5" font-family="sans" font-size="10.00">all</text>
</g>
<!-- 1 -->
<g id="node2" class="node">
<title>1</title>
<path fill="none" stroke="#d89c56" stroke-width="2" d="M791,-108C791,-108 699,-108 699,-108 693,-108 687,-102 687,-96 687,-96 687,-84 687,-84 687,-78 693,-72 699,-72 699,-72 791,-72 791,-72 797,-72 803,-78 803,-84 803,-84 803,-96 803,-96 803,-102 797,-108 791,-108"/>
<text text-anchor="middle" x="745" y="-87.5" font-family="sans" font-size="10.00">copy_antismash_zip</text>
</g>
<!-- 1&#45;&gt;0 -->
<g id="edge6" class="edge">
<title>1&#45;&gt;0</title>
<path fill="none" stroke="grey" stroke-width="2" d="M789.52,-71.88C820.53,-59.95 861.39,-44.23 890.48,-33.04"/>
<polygon fill="grey" stroke="grey" stroke-width="2" points="891.79,-36.29 899.87,-29.43 889.28,-29.76 891.79,-36.29"/>
</g>
<!-- 2 -->
<g id="node3" class="node">
<title>2</title>
<path fill="none" stroke="#a7d856" stroke-width="2" d="M583,-252C583,-252 539,-252 539,-252 533,-252 527,-246 527,-240 527,-240 527,-228 527,-228 527,-222 533,-216 539,-216 539,-216 583,-216 583,-216 589,-216 595,-222 595,-228 595,-228 595,-240 595,-240 595,-246 589,-252 583,-252"/>
<text text-anchor="middle" x="561" y="-231.5" font-family="sans" font-size="10.00">antismash</text>
</g>
<!-- 2&#45;&gt;1 -->
<g id="edge19" class="edge">
<title>2&#45;&gt;1</title>
<path fill="none" stroke="grey" stroke-width="2" d="M595.02,-220.74C599.71,-219.11 604.47,-217.49 609,-216 661.08,-198.84 690.15,-220.6 727,-180 742.11,-163.36 745.97,-137.64 746.43,-118.12"/>
<polygon fill="grey" stroke="grey" stroke-width="2" points="749.93,-118 746.38,-108.02 742.93,-118.03 749.93,-118"/>
</g>
<!-- 15 -->
<g id="node16" class="node">
<title>15</title>
<path fill="none" stroke="#5673d8" stroke-width="2" d="M706.5,-180C706.5,-180 611.5,-180 611.5,-180 605.5,-180 599.5,-174 599.5,-168 599.5,-168 599.5,-156 599.5,-156 599.5,-150 605.5,-144 611.5,-144 611.5,-144 706.5,-144 706.5,-144 712.5,-144 718.5,-150 718.5,-156 718.5,-156 718.5,-168 718.5,-168 718.5,-174 712.5,-180 706.5,-180"/>
<text text-anchor="middle" x="659" y="-159.5" font-family="sans" font-size="10.00">antismash_summary</text>
</g>
<!-- 2&#45;&gt;15 -->
<g id="edge36" class="edge">
<title>2&#45;&gt;15</title>
<path fill="none" stroke="grey" stroke-width="2" d="M584.97,-215.88C597.55,-206.89 613.13,-195.76 626.75,-186.03"/>
<polygon fill="grey" stroke="grey" stroke-width="2" points="628.83,-188.85 634.93,-180.19 624.76,-183.15 628.83,-188.85"/>
</g>
<!-- 19 -->
<g id="node20" class="node">
<title>19</title>
<path fill="none" stroke="#569ad8" stroke-width="2" d="M569,-180C569,-180 477,-180 477,-180 471,-180 465,-174 465,-168 465,-168 465,-156 465,-156 465,-150 471,-144 477,-144 477,-144 569,-144 569,-144 575,-144 581,-150 581,-156 581,-156 581,-168 581,-168 581,-174 575,-180 569,-180"/>
<text text-anchor="middle" x="523" y="-159.5" font-family="sans" font-size="10.00">get_bigscape_inputs</text>
</g>
<!-- 2&#45;&gt;19 -->
<g id="edge39" class="edge">
<title>2&#45;&gt;19</title>
<path fill="none" stroke="grey" stroke-width="2" d="M551.61,-215.7C547.24,-207.64 541.94,-197.89 537.1,-188.98"/>
<polygon fill="grey" stroke="grey" stroke-width="2" points="540.13,-187.22 532.29,-180.1 533.98,-190.56 540.13,-187.22"/>
</g>
<!-- 21 -->
<g id="node22" class="node">
<title>21</title>
<path fill="none" stroke="#97d856" stroke-width="2" d="M202,-180C202,-180 116,-180 116,-180 110,-180 104,-174 104,-168 104,-168 104,-156 104,-156 104,-150 110,-144 116,-144 116,-144 202,-144 202,-144 208,-144 214,-150 214,-156 214,-156 214,-168 214,-168 214,-174 208,-180 202,-180"/>
<text text-anchor="middle" x="159" y="-159.5" font-family="sans" font-size="10.00">get_bigslice_inputs</text>
</g>
<!-- 2&#45;&gt;21 -->
<g id="edge42" class="edge">
<title>2&#45;&gt;21</title>
<path fill="none" stroke="grey" stroke-width="2" d="M526.72,-228.83C467.1,-221.3 340.32,-204.17 223.87,-180.07"/>
<polygon fill="grey" stroke="grey" stroke-width="2" points="224.58,-176.64 214.07,-178.02 223.14,-183.49 224.58,-176.64"/>
</g>
<!-- 3 -->
<g id="node4" class="node">
<title>3</title>
<path fill="none" stroke="#56a9d8" stroke-width="2" d="M699.5,-324C699.5,-324 650.5,-324 650.5,-324 644.5,-324 638.5,-318 638.5,-312 638.5,-312 638.5,-300 638.5,-300 638.5,-294 644.5,-288 650.5,-288 650.5,-288 699.5,-288 699.5,-288 705.5,-288 711.5,-294 711.5,-300 711.5,-300 711.5,-312 711.5,-312 711.5,-318 705.5,-324 699.5,-324"/>
<text text-anchor="middle" x="675" y="-303.5" font-family="sans" font-size="10.00">format_gbk</text>
</g>
<!-- 3&#45;&gt;0 -->
<g id="edge9" class="edge">
<title>3&#45;&gt;0</title>
<path fill="none" stroke="grey" stroke-width="2" d="M659.7,-287.96C644.63,-269.03 626,-238.19 642,-216 671.58,-174.95 706.34,-205.57 750,-180 814.04,-142.48 874.91,-78.91 905.84,-43.92"/>
<polygon fill="grey" stroke="grey" stroke-width="2" points="908.74,-45.92 912.69,-36.09 903.47,-41.32 908.74,-45.92"/>
</g>
<!-- 3&#45;&gt;2 -->
<g id="edge20" class="edge">
<title>3&#45;&gt;2</title>
<path fill="none" stroke="grey" stroke-width="2" d="M647.11,-287.88C632.21,-278.72 613.67,-267.34 597.62,-257.48"/>
<polygon fill="grey" stroke="grey" stroke-width="2" points="599.35,-254.44 588.99,-252.19 595.69,-260.41 599.35,-254.44"/>
</g>
<!-- 35 -->
<g id="node36" class="node">
<title>35</title>
<path fill="none" stroke="#d87d56" stroke-width="2" d="M907,-252C907,-252 821,-252 821,-252 815,-252 809,-246 809,-240 809,-240 809,-228 809,-228 809,-222 815,-216 821,-216 821,-216 907,-216 907,-216 913,-216 919,-222 919,-228 919,-228 919,-240 919,-240 919,-246 913,-252 907,-252"/>
<text text-anchor="middle" x="864" y="-231.5" font-family="sans" font-size="10.00">prep_automlst_gbk</text>
</g>
<!-- 3&#45;&gt;35 -->
<g id="edge66" class="edge">
<title>3&#45;&gt;35</title>
<path fill="none" stroke="grey" stroke-width="2" d="M711.89,-291.34C739.34,-281.17 777.29,-267.12 808.41,-255.59"/>
<polygon fill="grey" stroke="grey" stroke-width="2" points="809.67,-258.85 817.83,-252.1 807.24,-252.29 809.67,-258.85"/>
</g>
<!-- 4 -->
<g id="node5" class="node">
<title>4</title>
<path fill="none" stroke="#56d8d0" stroke-width="2" d="M834,-396C834,-396 804,-396 804,-396 798,-396 792,-390 792,-384 792,-384 792,-372 792,-372 792,-366 798,-360 804,-360 804,-360 834,-360 834,-360 840,-360 846,-366 846,-372 846,-372 846,-384 846,-384 846,-390 840,-396 834,-396"/>
<text text-anchor="middle" x="819" y="-375.5" font-family="sans" font-size="10.00">prokka</text>
</g>
<!-- 4&#45;&gt;3 -->
<g id="edge22" class="edge">
<title>4&#45;&gt;3</title>
<path fill="none" stroke="grey" stroke-width="2" d="M791.91,-363.83C771.49,-353.9 743.03,-340.07 719.31,-328.54"/>
<polygon fill="grey" stroke="grey" stroke-width="2" points="720.66,-325.31 710.14,-324.08 717.6,-331.6 720.66,-325.31"/>
</g>
<!-- 30 -->
<g id="node31" class="node">
<title>30</title>
<path fill="none" stroke="#56c1d8" stroke-width="2" d="M952,-324C952,-324 922,-324 922,-324 916,-324 910,-318 910,-312 910,-312 910,-300 910,-300 910,-294 916,-288 922,-288 922,-288 952,-288 952,-288 958,-288 964,-294 964,-300 964,-300 964,-312 964,-312 964,-318 958,-324 952,-324"/>
<text text-anchor="middle" x="937" y="-303.5" font-family="sans" font-size="10.00">eggnog</text>
</g>
<!-- 4&#45;&gt;30 -->
<g id="edge59" class="edge">
<title>4&#45;&gt;30</title>
<path fill="none" stroke="grey" stroke-width="2" d="M846.07,-360.94C862.3,-351.32 883.13,-338.96 900.76,-328.5"/>
<polygon fill="grey" stroke="grey" stroke-width="2" points="902.83,-331.34 909.65,-323.23 899.26,-325.32 902.83,-331.34"/>
</g>
<!-- 32 -->
<g id="node33" class="node">
<title>32</title>
<path fill="none" stroke="#d8c356" stroke-width="2" d="M857,-324C857,-324 827,-324 827,-324 821,-324 815,-318 815,-312 815,-312 815,-300 815,-300 815,-294 821,-288 827,-288 827,-288 857,-288 857,-288 863,-288 869,-294 869,-300 869,-300 869,-312 869,-312 869,-318 863,-324 857,-324"/>
<text text-anchor="middle" x="842" y="-303.5" font-family="sans" font-size="10.00">roary</text>
</g>
<!-- 4&#45;&gt;32 -->
<g id="edge61" class="edge">
<title>4&#45;&gt;32</title>
<path fill="none" stroke="grey" stroke-width="2" d="M824.69,-359.7C827.25,-351.9 830.33,-342.51 833.18,-333.83"/>
<polygon fill="grey" stroke="grey" stroke-width="2" points="836.58,-334.7 836.38,-324.1 829.93,-332.51 836.58,-334.7"/>
</g>
<!-- 5 -->
<g id="node6" class="node">
<title>5</title>
<path fill="none" stroke="#56d882" stroke-width="2" d="M906,-540C906,-540 796,-540 796,-540 790,-540 784,-534 784,-528 784,-528 784,-516 784,-516 784,-510 790,-504 796,-504 796,-504 906,-504 906,-504 912,-504 918,-510 918,-516 918,-516 918,-528 918,-528 918,-534 912,-540 906,-540"/>
<text text-anchor="middle" x="851" y="-519.5" font-family="sans" font-size="10.00">ncbi_genome_download</text>
</g>
<!-- 5&#45;&gt;4 -->
<g id="edge24" class="edge">
<title>5&#45;&gt;4</title>
<path fill="none" stroke="grey" stroke-width="2" d="M786.18,-503.95C768.5,-496 751.37,-484.51 741,-468 732.49,-454.45 733.51,-446.14 741,-432 749.9,-415.19 766.79,-402.72 782.59,-394.11"/>
<polygon fill="grey" stroke="grey" stroke-width="2" points="784.36,-397.14 791.69,-389.49 781.19,-390.9 784.36,-397.14"/>
</g>
<!-- 6 -->
<g id="node7" class="node">
<title>6</title>
<path fill="none" stroke="#70d856" stroke-width="2" d="M859.5,-468C859.5,-468 762.5,-468 762.5,-468 756.5,-468 750.5,-462 750.5,-456 750.5,-456 750.5,-444 750.5,-444 750.5,-438 756.5,-432 762.5,-432 762.5,-432 859.5,-432 859.5,-432 865.5,-432 871.5,-438 871.5,-444 871.5,-444 871.5,-456 871.5,-456 871.5,-462 865.5,-468 859.5,-468"/>
<text text-anchor="middle" x="811" y="-447.5" font-family="sans" font-size="10.00">extract_meta_prokka</text>
</g>
<!-- 5&#45;&gt;6 -->
<g id="edge29" class="edge">
<title>5&#45;&gt;6</title>
<path fill="none" stroke="grey" stroke-width="2" d="M841.11,-503.7C836.51,-495.64 830.94,-485.89 825.85,-476.98"/>
<polygon fill="grey" stroke="grey" stroke-width="2" points="828.77,-475.05 820.77,-468.1 822.7,-478.52 828.77,-475.05"/>
</g>
<!-- 14 -->
<g id="node15" class="node">
<title>14</title>
<path fill="none" stroke="#56b9d8" stroke-width="2" d="M612.5,-396C612.5,-396 497.5,-396 497.5,-396 491.5,-396 485.5,-390 485.5,-384 485.5,-384 485.5,-372 485.5,-372 485.5,-366 491.5,-360 497.5,-360 497.5,-360 612.5,-360 612.5,-360 618.5,-360 624.5,-366 624.5,-372 624.5,-372 624.5,-384 624.5,-384 624.5,-390 618.5,-396 612.5,-396"/>
<text text-anchor="middle" x="555" y="-375.5" font-family="sans" font-size="10.00">extract_ncbi_information</text>
</g>
<!-- 5&#45;&gt;14 -->
<g id="edge34" class="edge">
<title>5&#45;&gt;14</title>
<path fill="none" stroke="grey" stroke-width="2" d="M783.91,-511.2C710.1,-499.86 599.88,-481.08 585,-468 567.35,-452.49 560.07,-426.24 557.07,-406.26"/>
<polygon fill="grey" stroke="grey" stroke-width="2" points="560.53,-405.69 555.83,-396.19 553.58,-406.54 560.53,-405.69"/>
</g>
<!-- 24 -->
<g id="node25" class="node">
<title>24</title>
<path fill="none" stroke="#61d856" stroke-width="2" d="M970,-468C970,-468 940,-468 940,-468 934,-468 928,-462 928,-456 928,-456 928,-444 928,-444 928,-438 934,-432 940,-432 940,-432 970,-432 970,-432 976,-432 982,-438 982,-444 982,-444 982,-456 982,-456 982,-462 976,-468 970,-468"/>
<text text-anchor="middle" x="955" y="-447.5" font-family="sans" font-size="10.00">mlst</text>
</g>
<!-- 5&#45;&gt;24 -->
<g id="edge45" class="edge">
<title>5&#45;&gt;24</title>
<path fill="none" stroke="grey" stroke-width="2" d="M876.44,-503.88C889.79,-494.89 906.32,-483.76 920.78,-474.03"/>
<polygon fill="grey" stroke="grey" stroke-width="2" points="923.12,-476.68 929.46,-468.19 919.21,-470.87 923.12,-476.68"/>
</g>
<!-- 25 -->
<g id="node26" class="node">
<title>25</title>
<path fill="none" stroke="#c6d856" stroke-width="2" d="M1077.5,-468C1077.5,-468 1012.5,-468 1012.5,-468 1006.5,-468 1000.5,-462 1000.5,-456 1000.5,-456 1000.5,-444 1000.5,-444 1000.5,-438 1006.5,-432 1012.5,-432 1012.5,-432 1077.5,-432 1077.5,-432 1083.5,-432 1089.5,-438 1089.5,-444 1089.5,-444 1089.5,-456 1089.5,-456 1089.5,-462 1083.5,-468 1077.5,-468"/>
<text text-anchor="middle" x="1045" y="-447.5" font-family="sans" font-size="10.00">refseq_masher</text>
</g>
<!-- 5&#45;&gt;25 -->
<g id="edge48" class="edge">
<title>5&#45;&gt;25</title>
<path fill="none" stroke="grey" stroke-width="2" d="M898.46,-503.88C926.37,-493.8 961.77,-481.03 990.79,-470.56"/>
<polygon fill="grey" stroke="grey" stroke-width="2" points="992.14,-473.79 1000.36,-467.11 989.77,-467.21 992.14,-473.79"/>
</g>
<!-- 26 -->
<g id="node27" class="node">
<title>26</title>
<path fill="none" stroke="#d8b456" stroke-width="2" d="M1168.5,-468C1168.5,-468 1119.5,-468 1119.5,-468 1113.5,-468 1107.5,-462 1107.5,-456 1107.5,-456 1107.5,-444 1107.5,-444 1107.5,-438 1113.5,-432 1119.5,-432 1119.5,-432 1168.5,-432 1168.5,-432 1174.5,-432 1180.5,-438 1180.5,-444 1180.5,-444 1180.5,-456 1180.5,-456 1180.5,-462 1174.5,-468 1168.5,-468"/>
<text text-anchor="middle" x="1144" y="-447.5" font-family="sans" font-size="10.00">seqfu_stats</text>
</g>
<!-- 5&#45;&gt;26 -->
<g id="edge51" class="edge">
<title>5&#45;&gt;26</title>
<path fill="none" stroke="grey" stroke-width="2" d="M918.13,-505.94C921.12,-505.28 924.09,-504.63 927,-504 999.78,-488.2 1021.6,-489.39 1097.24,-467.99"/>
<polygon fill="grey" stroke="grey" stroke-width="2" points="1098.6,-471.24 1107.25,-465.12 1096.67,-464.51 1098.6,-471.24"/>
</g>
<!-- 28 -->
<g id="node29" class="node">
<title>28</title>
<path fill="none" stroke="#d87556" stroke-width="2" d="M1280.5,-468C1280.5,-468 1249.5,-468 1249.5,-468 1243.5,-468 1237.5,-462 1237.5,-456 1237.5,-456 1237.5,-444 1237.5,-444 1237.5,-438 1243.5,-432 1249.5,-432 1249.5,-432 1280.5,-432 1280.5,-432 1286.5,-432 1292.5,-438 1292.5,-444 1292.5,-444 1292.5,-456 1292.5,-456 1292.5,-462 1286.5,-468 1280.5,-468"/>
<text text-anchor="middle" x="1265" y="-447.5" font-family="sans" font-size="10.00">checkm</text>
</g>
<!-- 5&#45;&gt;28 -->
<g id="edge55" class="edge">
<title>5&#45;&gt;28</title>
<path fill="none" stroke="grey" stroke-width="2" d="M918.07,-505.68C921.09,-505.09 924.07,-504.53 927,-504 1043.11,-483.1 1073.92,-489.06 1190,-468 1202.19,-465.79 1215.4,-462.95 1227.29,-460.22"/>
<polygon fill="grey" stroke="grey" stroke-width="2" points="1228.39,-463.56 1237.34,-457.87 1226.8,-456.74 1228.39,-463.56"/>
</g>
<!-- 6&#45;&gt;0 -->
<g id="edge13" class="edge">
<title>6&#45;&gt;0</title>
<path fill="none" stroke="grey" stroke-width="2" d="M871.71,-437.1C916.54,-427.23 972.66,-412.21 990,-396 1020.82,-367.19 1023,-349.19 1023,-307 1023,-307 1023,-307 1023,-161 1023,-112.85 984.66,-68.85 956.44,-42.98"/>
<polygon fill="grey" stroke="grey" stroke-width="2" points="958.58,-40.2 948.78,-36.17 953.93,-45.43 958.58,-40.2"/>
</g>
<!-- 6&#45;&gt;4 -->
<g id="edge27" class="edge">
<title>6&#45;&gt;4</title>
<path fill="none" stroke="grey" stroke-width="2" d="M812.98,-431.7C813.86,-423.98 814.92,-414.71 815.9,-406.11"/>
<polygon fill="grey" stroke="grey" stroke-width="2" points="819.39,-406.44 817.05,-396.1 812.43,-405.64 819.39,-406.44"/>
</g>
<!-- 6&#45;&gt;14 -->
<g id="edge35" class="edge">
<title>6&#45;&gt;14</title>
<path fill="none" stroke="grey" stroke-width="2" d="M750.33,-432.41C713.39,-422.31 666,-409.35 627.14,-398.73"/>
<polygon fill="grey" stroke="grey" stroke-width="2" points="628.03,-395.34 617.46,-396.08 626.18,-402.09 628.03,-395.34"/>
</g>
<!-- 7 -->
<g id="node8" class="node">
<title>7</title>
<path fill="none" stroke="#d86656" stroke-width="2" d="M682,-468C682,-468 606,-468 606,-468 600,-468 594,-462 594,-456 594,-456 594,-444 594,-444 594,-438 600,-432 606,-432 606,-432 682,-432 682,-432 688,-432 694,-438 694,-444 694,-444 694,-456 694,-456 694,-462 688,-468 682,-468"/>
<text text-anchor="middle" x="644" y="-447.5" font-family="sans" font-size="10.00">prokka_db_setup</text>
</g>
<!-- 7&#45;&gt;4 -->
<g id="edge25" class="edge">
<title>7&#45;&gt;4</title>
<path fill="none" stroke="grey" stroke-width="2" d="M686.81,-431.88C716.14,-420.15 754.62,-404.75 782.5,-393.6"/>
<polygon fill="grey" stroke="grey" stroke-width="2" points="783.9,-396.81 791.88,-389.85 781.3,-390.31 783.9,-396.81"/>
</g>
<!-- 8 -->
<g id="node9" class="node">
<title>8</title>
<path fill="none" stroke="#568ad8" stroke-width="2" d="M709.5,-540C709.5,-540 578.5,-540 578.5,-540 572.5,-540 566.5,-534 566.5,-528 566.5,-528 566.5,-516 566.5,-516 566.5,-510 572.5,-504 578.5,-504 578.5,-504 709.5,-504 709.5,-504 715.5,-504 721.5,-510 721.5,-516 721.5,-516 721.5,-528 721.5,-528 721.5,-534 715.5,-540 709.5,-540"/>
<text text-anchor="middle" x="644" y="-519.5" font-family="sans" font-size="10.00">prokka_reference_download</text>
</g>
<!-- 8&#45;&gt;7 -->
<g id="edge32" class="edge">
<title>8&#45;&gt;7</title>
<path fill="none" stroke="grey" stroke-width="2" d="M644,-503.7C644,-495.98 644,-486.71 644,-478.11"/>
<polygon fill="grey" stroke="grey" stroke-width="2" points="647.5,-478.1 644,-468.1 640.5,-478.1 647.5,-478.1"/>
</g>
<!-- 9 -->
<g id="node10" class="node">
<title>9</title>
<path fill="none" stroke="#80d856" stroke-width="2" d="M695.5,-396C695.5,-396 654.5,-396 654.5,-396 648.5,-396 642.5,-390 642.5,-384 642.5,-384 642.5,-372 642.5,-372 642.5,-366 648.5,-360 654.5,-360 654.5,-360 695.5,-360 695.5,-360 701.5,-360 707.5,-366 707.5,-372 707.5,-372 707.5,-384 707.5,-384 707.5,-390 701.5,-396 695.5,-396"/>
<text text-anchor="middle" x="675" y="-375.5" font-family="sans" font-size="10.00">gtdb_prep</text>
</g>
<!-- 9&#45;&gt;3 -->
<g id="edge23" class="edge">
<title>9&#45;&gt;3</title>
<path fill="none" stroke="grey" stroke-width="2" d="M675,-359.7C675,-351.98 675,-342.71 675,-334.11"/>
<polygon fill="grey" stroke="grey" stroke-width="2" points="678.5,-334.1 675,-324.1 671.5,-334.1 678.5,-334.1"/>
</g>
<!-- 13 -->
<g id="node14" class="node">
<title>13</title>
<path fill="none" stroke="#56d0d8" stroke-width="2" d="M202.5,-252C202.5,-252 115.5,-252 115.5,-252 109.5,-252 103.5,-246 103.5,-240 103.5,-240 103.5,-228 103.5,-228 103.5,-222 109.5,-216 115.5,-216 115.5,-216 202.5,-216 202.5,-216 208.5,-216 214.5,-222 214.5,-228 214.5,-228 214.5,-240 214.5,-240 214.5,-246 208.5,-252 202.5,-252"/>
<text text-anchor="middle" x="159" y="-231.5" font-family="sans" font-size="10.00">fix_gtdb_taxonomy</text>
</g>
<!-- 9&#45;&gt;13 -->
<g id="edge33" class="edge">
<title>9&#45;&gt;13</title>
<path fill="none" stroke="grey" stroke-width="2" d="M642.14,-363.22C639.07,-362.08 635.99,-360.98 633,-360 571.98,-339.9 555.15,-340.27 493,-324 399.68,-299.57 291.86,-270.73 224.55,-252.65"/>
<polygon fill="grey" stroke="grey" stroke-width="2" points="225.08,-249.17 214.51,-249.95 223.26,-255.93 225.08,-249.17"/>
</g>
<!-- 10 -->
<g id="node11" class="node">
<title>10</title>
<path fill="none" stroke="#56d873" stroke-width="2" d="M607.5,-324C607.5,-324 514.5,-324 514.5,-324 508.5,-324 502.5,-318 502.5,-312 502.5,-312 502.5,-300 502.5,-300 502.5,-294 508.5,-288 514.5,-288 514.5,-288 607.5,-288 607.5,-288 613.5,-288 619.5,-294 619.5,-300 619.5,-300 619.5,-312 619.5,-312 619.5,-318 613.5,-324 607.5,-324"/>
<text text-anchor="middle" x="561" y="-303.5" font-family="sans" font-size="10.00">antismash_db_setup</text>
</g>
<!-- 10&#45;&gt;2 -->
<g id="edge21" class="edge">
<title>10&#45;&gt;2</title>
<path fill="none" stroke="grey" stroke-width="2" d="M561,-287.7C561,-279.98 561,-270.71 561,-262.11"/>
<polygon fill="grey" stroke="grey" stroke-width="2" points="564.5,-262.1 561,-252.1 557.5,-262.1 564.5,-262.1"/>
</g>
<!-- 11 -->
<g id="node12" class="node">
<title>11</title>
<path fill="none" stroke="#59d856" stroke-width="2" d="M1196,-540C1196,-540 1078,-540 1078,-540 1072,-540 1066,-534 1066,-528 1066,-528 1066,-516 1066,-516 1066,-510 1072,-504 1078,-504 1078,-504 1196,-504 1196,-504 1202,-504 1208,-510 1208,-516 1208,-516 1208,-528 1208,-528 1208,-534 1202,-540 1196,-540"/>
<text text-anchor="middle" x="1137" y="-519.5" font-family="sans" font-size="10.00">patric_genome_download</text>
</g>
<!-- 11&#45;&gt;4 -->
<g id="edge28" class="edge">
<title>11&#45;&gt;4</title>
<path fill="none" stroke="grey" stroke-width="2" d="M1159.8,-503.66C1182,-484.74 1209.72,-454.17 1190,-432 1144.5,-380.83 951.28,-408.69 884,-396 874.84,-394.27 865.06,-391.97 855.95,-389.61"/>
<polygon fill="grey" stroke="grey" stroke-width="2" points="856.57,-386.16 846.01,-386.96 854.77,-392.92 856.57,-386.16"/>
</g>
<!-- 11&#45;&gt;6 -->
<g id="edge30" class="edge">
<title>11&#45;&gt;6</title>
<path fill="none" stroke="grey" stroke-width="2" d="M1065.86,-505.72C1011.19,-493.98 936.04,-477.85 881.52,-466.14"/>
<polygon fill="grey" stroke="grey" stroke-width="2" points="882.1,-462.69 871.59,-464.01 880.63,-469.53 882.1,-462.69"/>
</g>
<!-- 11&#45;&gt;24 -->
<g id="edge46" class="edge">
<title>11&#45;&gt;24</title>
<path fill="none" stroke="grey" stroke-width="2" d="M1087.29,-503.94C1059.12,-494 1023.35,-480.91 992,-468 991.9,-467.96 991.8,-467.92 991.71,-467.88"/>
<polygon fill="grey" stroke="grey" stroke-width="2" points="992.94,-464.6 982.37,-463.87 990.18,-471.03 992.94,-464.6"/>
</g>
<!-- 11&#45;&gt;25 -->
<g id="edge49" class="edge">
<title>11&#45;&gt;25</title>
<path fill="none" stroke="grey" stroke-width="2" d="M1114.26,-503.7C1102.56,-494.8 1088.14,-483.82 1075.49,-474.2"/>
<polygon fill="grey" stroke="grey" stroke-width="2" points="1077.56,-471.37 1067.48,-468.1 1073.32,-476.94 1077.56,-471.37"/>
</g>
<!-- 11&#45;&gt;26 -->
<g id="edge52" class="edge">
<title>11&#45;&gt;26</title>
<path fill="none" stroke="grey" stroke-width="2" d="M1138.73,-503.7C1139.5,-495.98 1140.43,-486.71 1141.29,-478.11"/>
<polygon fill="grey" stroke="grey" stroke-width="2" points="1144.78,-478.4 1142.29,-468.1 1137.81,-477.71 1144.78,-478.4"/>
</g>
<!-- 11&#45;&gt;28 -->
<g id="edge57" class="edge">
<title>11&#45;&gt;28</title>
<path fill="none" stroke="grey" stroke-width="2" d="M1168.31,-503.88C1186.5,-493.93 1209.51,-481.35 1228.52,-470.95"/>
<polygon fill="grey" stroke="grey" stroke-width="2" points="1230.39,-473.91 1237.49,-466.05 1227.03,-467.77 1230.39,-473.91"/>
</g>
<!-- 12 -->
<g id="node13" class="node">
<title>12</title>
<path fill="none" stroke="#56d8c1" stroke-width="2" d="M1035.5,-540C1035.5,-540 948.5,-540 948.5,-540 942.5,-540 936.5,-534 936.5,-528 936.5,-528 936.5,-516 936.5,-516 936.5,-510 942.5,-504 948.5,-504 948.5,-504 1035.5,-504 1035.5,-504 1041.5,-504 1047.5,-510 1047.5,-516 1047.5,-516 1047.5,-528 1047.5,-528 1047.5,-534 1041.5,-540 1035.5,-540"/>
<text text-anchor="middle" x="992" y="-519.5" font-family="sans" font-size="10.00">copy_custom_fasta</text>
</g>
<!-- 12&#45;&gt;4 -->
<g id="edge26" class="edge">
<title>12&#45;&gt;4</title>
<path fill="none" stroke="grey" stroke-width="2" d="M966.79,-503.8C952.47,-493.75 934.38,-480.61 919,-468 900.76,-453.04 897.57,-447.74 880,-432 869.17,-422.3 857.12,-411.78 846.61,-402.68"/>
<polygon fill="grey" stroke="grey" stroke-width="2" points="848.77,-399.92 838.91,-396.04 844.19,-405.22 848.77,-399.92"/>
</g>
<!-- 12&#45;&gt;6 -->
<g id="edge31" class="edge">
<title>12&#45;&gt;6</title>
<path fill="none" stroke="grey" stroke-width="2" d="M947.72,-503.88C922.65,-494.18 891.1,-481.98 864.63,-471.74"/>
<polygon fill="grey" stroke="grey" stroke-width="2" points="865.72,-468.41 855.13,-468.07 863.2,-474.94 865.72,-468.41"/>
</g>
<!-- 12&#45;&gt;24 -->
<g id="edge47" class="edge">
<title>12&#45;&gt;24</title>
<path fill="none" stroke="grey" stroke-width="2" d="M982.85,-503.7C978.6,-495.64 973.44,-485.89 968.73,-476.98"/>
<polygon fill="grey" stroke="grey" stroke-width="2" points="971.81,-475.31 964.04,-468.1 965.62,-478.58 971.81,-475.31"/>
</g>
<!-- 12&#45;&gt;25 -->
<g id="edge50" class="edge">
<title>12&#45;&gt;25</title>
<path fill="none" stroke="grey" stroke-width="2" d="M1005.1,-503.7C1011.39,-495.39 1019.05,-485.28 1025.96,-476.14"/>
<polygon fill="grey" stroke="grey" stroke-width="2" points="1028.8,-478.19 1032.05,-468.1 1023.22,-473.96 1028.8,-478.19"/>
</g>
<!-- 12&#45;&gt;26 -->
<g id="edge53" class="edge">
<title>12&#45;&gt;26</title>
<path fill="none" stroke="grey" stroke-width="2" d="M1029.18,-503.88C1050.02,-494.28 1076.19,-482.23 1098.27,-472.06"/>
<polygon fill="grey" stroke="grey" stroke-width="2" points="1099.84,-475.19 1107.46,-467.83 1096.92,-468.83 1099.84,-475.19"/>
</g>
<!-- 12&#45;&gt;28 -->
<g id="edge58" class="edge">
<title>12&#45;&gt;28</title>
<path fill="none" stroke="grey" stroke-width="2" d="M1047.66,-506.42C1050.82,-505.6 1053.95,-504.79 1057,-504 1116.67,-488.6 1186.04,-470.98 1227.68,-460.43"/>
<polygon fill="grey" stroke="grey" stroke-width="2" points="1228.56,-463.82 1237.4,-457.97 1226.84,-457.04 1228.56,-463.82"/>
</g>
<!-- 13&#45;&gt;0 -->
<g id="edge1" class="edge">
<title>13&#45;&gt;0</title>
<path fill="none" stroke="grey" stroke-width="2" d="M121.61,-215.8C107.46,-207.2 92.87,-195.32 85,-180 61.75,-134.74 80.31,-99.69 123,-72 187.82,-29.95 739.65,-21 889.55,-19.34"/>
<polygon fill="grey" stroke="grey" stroke-width="2" points="889.68,-22.84 899.64,-19.24 889.6,-15.84 889.68,-22.84"/>
</g>
<!-- 13&#45;&gt;21 -->
<g id="edge43" class="edge">
<title>13&#45;&gt;21</title>
<path fill="none" stroke="grey" stroke-width="2" d="M159,-215.7C159,-207.98 159,-198.71 159,-190.11"/>
<polygon fill="grey" stroke="grey" stroke-width="2" points="162.5,-190.1 159,-180.1 155.5,-190.1 162.5,-190.1"/>
</g>
<!-- 14&#45;&gt;0 -->
<g id="edge2" class="edge">
<title>14&#45;&gt;0</title>
<path fill="none" stroke="grey" stroke-width="2" d="M485.27,-373.77C336.21,-364.95 0,-334.08 0,-235 0,-235 0,-235 0,-161 0,-107.21 33.44,-95.13 82,-72 155.55,-36.97 735.34,-22.87 889.48,-19.71"/>
<polygon fill="grey" stroke="grey" stroke-width="2" points="889.9,-23.21 899.83,-19.51 889.76,-16.21 889.9,-23.21"/>
</g>
<!-- 15&#45;&gt;0 -->
<g id="edge17" class="edge">
<title>15&#45;&gt;0</title>
<path fill="none" stroke="grey" stroke-width="2" d="M657.55,-143.69C656.88,-123.62 659.11,-90.87 678,-72 707.33,-42.69 827.44,-27.87 889.5,-22.05"/>
<polygon fill="grey" stroke="grey" stroke-width="2" points="890.01,-25.52 899.65,-21.13 889.38,-18.54 890.01,-25.52"/>
</g>
<!-- 16 -->
<g id="node17" class="node">
<title>16</title>
<path fill="none" stroke="#d8ac56" stroke-width="2" d="M1343,-108C1343,-108 1215,-108 1215,-108 1209,-108 1203,-102 1203,-96 1203,-96 1203,-84 1203,-84 1203,-78 1209,-72 1215,-72 1215,-72 1343,-72 1343,-72 1349,-72 1355,-78 1355,-84 1355,-84 1355,-96 1355,-96 1355,-102 1349,-108 1343,-108"/>
<text text-anchor="middle" x="1279" y="-87.5" font-family="sans" font-size="10.00">write_dependency_versions</text>
</g>
<!-- 16&#45;&gt;0 -->
<g id="edge7" class="edge">
<title>16&#45;&gt;0</title>
<path fill="none" stroke="grey" stroke-width="2" d="M1202.62,-73.81C1128.96,-59.16 1020.57,-37.61 964.18,-26.39"/>
<polygon fill="grey" stroke="grey" stroke-width="2" points="964.76,-22.94 954.27,-24.42 963.4,-29.81 964.76,-22.94"/>
</g>
<!-- 17 -->
<g id="node18" class="node">
<title>17</title>
<path fill="none" stroke="#5663d8" stroke-width="2" d="M541,-108C541,-108 505,-108 505,-108 499,-108 493,-102 493,-96 493,-96 493,-84 493,-84 493,-78 499,-72 505,-72 505,-72 541,-72 541,-72 547,-72 553,-78 553,-84 553,-84 553,-96 553,-96 553,-102 547,-108 541,-108"/>
<text text-anchor="middle" x="523" y="-87.5" font-family="sans" font-size="10.00">bigscape</text>
</g>
<!-- 17&#45;&gt;0 -->
<g id="edge18" class="edge">
<title>17&#45;&gt;0</title>
<path fill="none" stroke="grey" stroke-width="2" d="M553.04,-83.8C625.66,-71.21 810.64,-39.16 889.96,-25.42"/>
<polygon fill="grey" stroke="grey" stroke-width="2" points="890.73,-28.84 899.99,-23.68 889.54,-21.94 890.73,-28.84"/>
</g>
<!-- 18 -->
<g id="node19" class="node">
<title>18</title>
<path fill="none" stroke="#b6d856" stroke-width="2" d="M434.5,-180C434.5,-180 363.5,-180 363.5,-180 357.5,-180 351.5,-174 351.5,-168 351.5,-168 351.5,-156 351.5,-156 351.5,-150 357.5,-144 363.5,-144 363.5,-144 434.5,-144 434.5,-144 440.5,-144 446.5,-150 446.5,-156 446.5,-156 446.5,-168 446.5,-168 446.5,-174 440.5,-180 434.5,-180"/>
<text text-anchor="middle" x="399" y="-159.5" font-family="sans" font-size="10.00">install_bigscape</text>
</g>
<!-- 18&#45;&gt;17 -->
<g id="edge38" class="edge">
<title>18&#45;&gt;17</title>
<path fill="none" stroke="grey" stroke-width="2" d="M429.33,-143.88C445.82,-134.57 466.39,-122.96 484.05,-112.99"/>
<polygon fill="grey" stroke="grey" stroke-width="2" points="485.99,-115.91 492.98,-107.95 482.55,-109.82 485.99,-115.91"/>
</g>
<!-- 19&#45;&gt;17 -->
<g id="edge37" class="edge">
<title>19&#45;&gt;17</title>
<path fill="none" stroke="grey" stroke-width="2" d="M523,-143.7C523,-135.98 523,-126.71 523,-118.11"/>
<polygon fill="grey" stroke="grey" stroke-width="2" points="526.5,-118.1 523,-108.1 519.5,-118.1 526.5,-118.1"/>
</g>
<!-- 20 -->
<g id="node21" class="node">
<title>20</title>
<path fill="none" stroke="#d85656" stroke-width="2" d="M314.5,-108C314.5,-108 251.5,-108 251.5,-108 245.5,-108 239.5,-102 239.5,-96 239.5,-96 239.5,-84 239.5,-84 239.5,-78 245.5,-72 251.5,-72 251.5,-72 314.5,-72 314.5,-72 320.5,-72 326.5,-78 326.5,-84 326.5,-84 326.5,-96 326.5,-96 326.5,-102 320.5,-108 314.5,-108"/>
<text text-anchor="middle" x="283" y="-87.5" font-family="sans" font-size="10.00">query_bigslice</text>
</g>
<!-- 20&#45;&gt;0 -->
<g id="edge3" class="edge">
<title>20&#45;&gt;0</title>
<path fill="none" stroke="grey" stroke-width="2" d="M326.51,-84.27C445.99,-71.28 777.71,-35.23 889.6,-23.07"/>
<polygon fill="grey" stroke="grey" stroke-width="2" points="890.16,-26.52 899.72,-21.96 889.4,-19.57 890.16,-26.52"/>
</g>
<!-- 21&#45;&gt;20 -->
<g id="edge40" class="edge">
<title>21&#45;&gt;20</title>
<path fill="none" stroke="grey" stroke-width="2" d="M189.33,-143.88C205.7,-134.64 226.08,-123.13 243.65,-113.21"/>
<polygon fill="grey" stroke="grey" stroke-width="2" points="245.56,-116.15 252.55,-108.19 242.12,-110.06 245.56,-116.15"/>
</g>
<!-- 33 -->
<g id="node34" class="node">
<title>33</title>
<path fill="none" stroke="#56d8a9" stroke-width="2" d="M174,-108C174,-108 144,-108 144,-108 138,-108 132,-102 132,-96 132,-96 132,-84 132,-84 132,-78 138,-72 144,-72 144,-72 174,-72 174,-72 180,-72 186,-78 186,-84 186,-84 186,-96 186,-96 186,-102 180,-108 174,-108"/>
<text text-anchor="middle" x="159" y="-87.5" font-family="sans" font-size="10.00">bigslice</text>
</g>
<!-- 21&#45;&gt;33 -->
<g id="edge62" class="edge">
<title>21&#45;&gt;33</title>
<path fill="none" stroke="grey" stroke-width="2" d="M159,-143.7C159,-135.98 159,-126.71 159,-118.11"/>
<polygon fill="grey" stroke="grey" stroke-width="2" points="162.5,-118.1 159,-108.1 155.5,-118.1 162.5,-118.1"/>
</g>
<!-- 22 -->
<g id="node23" class="node">
<title>22</title>
<path fill="none" stroke="#5682d8" stroke-width="2" d="M321.5,-180C321.5,-180 244.5,-180 244.5,-180 238.5,-180 232.5,-174 232.5,-168 232.5,-168 232.5,-156 232.5,-156 232.5,-150 238.5,-144 244.5,-144 244.5,-144 321.5,-144 321.5,-144 327.5,-144 333.5,-150 333.5,-156 333.5,-156 333.5,-168 333.5,-168 333.5,-174 327.5,-180 321.5,-180"/>
<text text-anchor="middle" x="283" y="-159.5" font-family="sans" font-size="10.00">fetch_bigslice_db</text>
</g>
<!-- 22&#45;&gt;20 -->
<g id="edge41" class="edge">
<title>22&#45;&gt;20</title>
<path fill="none" stroke="grey" stroke-width="2" d="M283,-143.7C283,-135.98 283,-126.71 283,-118.11"/>
<polygon fill="grey" stroke="grey" stroke-width="2" points="286.5,-118.1 283,-108.1 279.5,-118.1 286.5,-118.1"/>
</g>
<!-- 23 -->
<g id="node24" class="node">
<title>23</title>
<path fill="none" stroke="#56d88a" stroke-width="2" d="M312.5,-252C312.5,-252 247.5,-252 247.5,-252 241.5,-252 235.5,-246 235.5,-240 235.5,-240 235.5,-228 235.5,-228 235.5,-222 241.5,-216 247.5,-216 247.5,-216 312.5,-216 312.5,-216 318.5,-216 324.5,-222 324.5,-228 324.5,-228 324.5,-240 324.5,-240 324.5,-246 318.5,-252 312.5,-252"/>
<text text-anchor="middle" x="280" y="-231.5" font-family="sans" font-size="10.00">install_bigslice</text>
</g>
<!-- 23&#45;&gt;22 -->
<g id="edge44" class="edge">
<title>23&#45;&gt;22</title>
<path fill="none" stroke="grey" stroke-width="2" d="M280.74,-215.7C281.07,-207.98 281.47,-198.71 281.84,-190.11"/>
<polygon fill="grey" stroke="grey" stroke-width="2" points="285.34,-190.25 282.27,-180.1 278.34,-189.95 285.34,-190.25"/>
</g>
<!-- 23&#45;&gt;33 -->
<g id="edge63" class="edge">
<title>23&#45;&gt;33</title>
<path fill="none" stroke="grey" stroke-width="2" d="M235.21,-219.57C231.09,-218.35 226.97,-217.15 223,-216 166.24,-199.55 130.68,-227.11 95,-180 85.34,-167.25 88.19,-158.48 95,-144 101.18,-130.87 112.38,-119.87 123.7,-111.36"/>
<polygon fill="grey" stroke="grey" stroke-width="2" points="125.73,-114.22 131.9,-105.61 121.71,-108.49 125.73,-114.22"/>
</g>
<!-- 24&#45;&gt;0 -->
<g id="edge15" class="edge">
<title>24&#45;&gt;0</title>
<path fill="none" stroke="grey" stroke-width="2" d="M982.1,-434.31C1003,-422.48 1029.56,-406.2 1037,-396 1061.14,-362.9 1061,-347.97 1061,-307 1061,-307 1061,-307 1061,-161 1061,-120.03 1063.16,-103.53 1037,-72 1018.32,-49.49 987.82,-35.85 963.67,-28.05"/>
<polygon fill="grey" stroke="grey" stroke-width="2" points="964.68,-24.7 954.09,-25.16 962.65,-31.4 964.68,-24.7"/>
</g>
<!-- 25&#45;&gt;0 -->
<g id="edge5" class="edge">
<title>25&#45;&gt;0</title>
<path fill="none" stroke="grey" stroke-width="2" d="M1056.19,-431.87C1072.01,-405.96 1099,-354.74 1099,-307 1099,-307 1099,-307 1099,-161 1099,-118.16 1092.59,-101.99 1062,-72 1035.3,-45.83 994.15,-32.18 964.3,-25.34"/>
<polygon fill="grey" stroke="grey" stroke-width="2" points="964.77,-21.86 954.26,-23.2 963.31,-28.71 964.77,-21.86"/>
</g>
<!-- 26&#45;&gt;0 -->
<g id="edge11" class="edge">
<title>26&#45;&gt;0</title>
<path fill="none" stroke="grey" stroke-width="2" d="M1142.62,-431.96C1140.58,-405.32 1137,-352.17 1137,-307 1137,-307 1137,-307 1137,-161 1137,-116.06 1123.48,-100.82 1089,-72 1053.04,-41.95 999.58,-28.79 964.03,-23.13"/>
<polygon fill="grey" stroke="grey" stroke-width="2" points="964.46,-19.66 954.06,-21.67 963.44,-26.58 964.46,-19.66"/>
</g>
<!-- 27 -->
<g id="node28" class="node">
<title>27</title>
<path fill="none" stroke="#ced856" stroke-width="2" d="M1256,-324C1256,-324 1204,-324 1204,-324 1198,-324 1192,-318 1192,-312 1192,-312 1192,-300 1192,-300 1192,-294 1198,-288 1204,-288 1204,-288 1256,-288 1256,-288 1262,-288 1268,-294 1268,-300 1268,-300 1268,-312 1268,-312 1268,-318 1262,-324 1256,-324"/>
<text text-anchor="middle" x="1230" y="-303.5" font-family="sans" font-size="10.00">checkm_out</text>
</g>
<!-- 27&#45;&gt;0 -->
<g id="edge14" class="edge">
<title>27&#45;&gt;0</title>
<path fill="none" stroke="grey" stroke-width="2" d="M1229.56,-287.96C1227.47,-244.89 1215.77,-130.92 1151,-72 1123.87,-47.32 1020.46,-30.78 964.13,-23.4"/>
<polygon fill="grey" stroke="grey" stroke-width="2" points="964.55,-19.92 954.18,-22.13 963.66,-26.87 964.55,-19.92"/>
</g>
<!-- 28&#45;&gt;27 -->
<g id="edge54" class="edge">
<title>28&#45;&gt;27</title>
<path fill="none" stroke="grey" stroke-width="2" d="M1260.78,-431.87C1254.79,-407.56 1243.76,-362.82 1236.66,-334.01"/>
<polygon fill="grey" stroke="grey" stroke-width="2" points="1240.03,-333.06 1234.24,-324.19 1233.23,-334.74 1240.03,-333.06"/>
</g>
<!-- 29 -->
<g id="node30" class="node">
<title>29</title>
<path fill="none" stroke="#56d8b9" stroke-width="2" d="M1304,-540C1304,-540 1238,-540 1238,-540 1232,-540 1226,-534 1226,-528 1226,-528 1226,-516 1226,-516 1226,-510 1232,-504 1238,-504 1238,-504 1304,-504 1304,-504 1310,-504 1316,-510 1316,-516 1316,-516 1316,-528 1316,-528 1316,-534 1310,-540 1304,-540"/>
<text text-anchor="middle" x="1271" y="-519.5" font-family="sans" font-size="10.00">install_checkm</text>
</g>
<!-- 29&#45;&gt;28 -->
<g id="edge56" class="edge">
<title>29&#45;&gt;28</title>
<path fill="none" stroke="grey" stroke-width="2" d="M1269.52,-503.7C1268.86,-495.98 1268.06,-486.71 1267.32,-478.11"/>
<polygon fill="grey" stroke="grey" stroke-width="2" points="1270.81,-477.77 1266.47,-468.1 1263.83,-478.37 1270.81,-477.77"/>
</g>
<!-- 30&#45;&gt;0 -->
<g id="edge4" class="edge">
<title>30&#45;&gt;0</title>
<path fill="none" stroke="grey" stroke-width="2" d="M946.95,-287.98C952.27,-277.89 958.27,-264.64 961,-252 977.88,-173.8 983.51,-148.77 961,-72 958.2,-62.45 953.09,-52.98 947.67,-44.76"/>
<polygon fill="grey" stroke="grey" stroke-width="2" points="950.38,-42.52 941.75,-36.37 944.65,-46.56 950.38,-42.52"/>
</g>
<!-- 31 -->
<g id="node32" class="node">
<title>31</title>
<path fill="none" stroke="#56d89a" stroke-width="2" d="M969,-396C969,-396 905,-396 905,-396 899,-396 893,-390 893,-384 893,-384 893,-372 893,-372 893,-366 899,-360 905,-360 905,-360 969,-360 969,-360 975,-360 981,-366 981,-372 981,-372 981,-384 981,-384 981,-390 975,-396 969,-396"/>
<text text-anchor="middle" x="937" y="-375.5" font-family="sans" font-size="10.00">install_eggnog</text>
</g>
<!-- 31&#45;&gt;30 -->
<g id="edge60" class="edge">
<title>31&#45;&gt;30</title>
<path fill="none" stroke="grey" stroke-width="2" d="M937,-359.7C937,-351.98 937,-342.71 937,-334.11"/>
<polygon fill="grey" stroke="grey" stroke-width="2" points="940.5,-334.1 937,-324.1 933.5,-334.1 940.5,-334.1"/>
</g>
<!-- 32&#45;&gt;0 -->
<g id="edge16" class="edge">
<title>32&#45;&gt;0</title>
<path fill="none" stroke="grey" stroke-width="2" d="M869.08,-296.44C889.3,-288.45 915.52,-274.36 928,-252 964.96,-185.81 947.27,-91.67 935.14,-45.97"/>
<polygon fill="grey" stroke="grey" stroke-width="2" points="938.48,-44.91 932.43,-36.2 931.73,-46.78 938.48,-44.91"/>
</g>
<!-- 33&#45;&gt;0 -->
<g id="edge8" class="edge">
<title>33&#45;&gt;0</title>
<path fill="none" stroke="grey" stroke-width="2" d="M186.11,-81.44C199.26,-78.04 215.35,-74.3 230,-72 480.08,-32.81 785.36,-22.3 889.86,-19.75"/>
<polygon fill="grey" stroke="grey" stroke-width="2" points="890,-23.25 899.91,-19.51 889.83,-16.25 890,-23.25"/>
</g>
<!-- 34 -->
<g id="node35" class="node">
<title>34</title>
<path fill="none" stroke="#d8d356" stroke-width="2" d="M906.5,-180C906.5,-180 825.5,-180 825.5,-180 819.5,-180 813.5,-174 813.5,-168 813.5,-168 813.5,-156 813.5,-156 813.5,-150 819.5,-144 825.5,-144 825.5,-144 906.5,-144 906.5,-144 912.5,-144 918.5,-150 918.5,-156 918.5,-156 918.5,-168 918.5,-168 918.5,-174 912.5,-180 906.5,-180"/>
<text text-anchor="middle" x="866" y="-159.5" font-family="sans" font-size="10.00">automlst_wrapper</text>
</g>
<!-- 34&#45;&gt;0 -->
<g id="edge10" class="edge">
<title>34&#45;&gt;0</title>
<path fill="none" stroke="grey" stroke-width="2" d="M873.36,-143.87C883.85,-119.46 903.19,-74.43 915.56,-45.64"/>
<polygon fill="grey" stroke="grey" stroke-width="2" points="918.88,-46.76 919.62,-36.19 912.45,-44 918.88,-46.76"/>
</g>
<!-- 35&#45;&gt;34 -->
<g id="edge64" class="edge">
<title>35&#45;&gt;34</title>
<path fill="none" stroke="grey" stroke-width="2" d="M864.49,-215.7C864.71,-207.98 864.98,-198.71 865.23,-190.11"/>
<polygon fill="grey" stroke="grey" stroke-width="2" points="868.72,-190.2 865.51,-180.1 861.73,-190 868.72,-190.2"/>
</g>
<!-- 36 -->
<g id="node37" class="node">
<title>36</title>
<path fill="none" stroke="#8fd856" stroke-width="2" d="M779,-252C779,-252 663,-252 663,-252 657,-252 651,-246 651,-240 651,-240 651,-228 651,-228 651,-222 657,-216 663,-216 663,-216 779,-216 779,-216 785,-216 791,-222 791,-228 791,-228 791,-240 791,-240 791,-246 785,-252 779,-252"/>
<text text-anchor="middle" x="721" y="-231.5" font-family="sans" font-size="10.00">install_automlst_wrapper</text>
</g>
<!-- 36&#45;&gt;34 -->
<g id="edge65" class="edge">
<title>36&#45;&gt;34</title>
<path fill="none" stroke="grey" stroke-width="2" d="M756.47,-215.88C776.12,-206.39 800.72,-194.51 821.63,-184.42"/>
<polygon fill="grey" stroke="grey" stroke-width="2" points="823.16,-187.57 830.64,-180.07 820.12,-181.26 823.16,-187.57"/>
</g>
<!-- 37 -->
<g id="node38" class="node">
<title>37</title>
<path fill="none" stroke="#56d863" stroke-width="2" d="M1455,-108C1455,-108 1385,-108 1385,-108 1379,-108 1373,-102 1373,-96 1373,-96 1373,-84 1373,-84 1373,-78 1379,-72 1385,-72 1385,-72 1455,-72 1455,-72 1461,-72 1467,-78 1467,-84 1467,-84 1467,-96 1467,-96 1467,-102 1461,-108 1455,-108"/>
<text text-anchor="middle" x="1420" y="-87.5" font-family="sans" font-size="10.00">rnammer_setup</text>
</g>
<!-- 37&#45;&gt;0 -->
<g id="edge12" class="edge">
<title>37&#45;&gt;0</title>
<path fill="none" stroke="grey" stroke-width="2" d="M1372.79,-74.04C1369.83,-73.3 1366.88,-72.61 1364,-72 1217.76,-41.18 1039.95,-26.52 964.13,-21.31"/>
<polygon fill="grey" stroke="grey" stroke-width="2" points="964.33,-17.82 954.12,-20.64 963.86,-24.8 964.33,-17.82"/>
</g>
</g>
</svg>
