<?xml version="1.0" encoding="UTF-8" standalone="no"?>
<!DOCTYPE svg PUBLIC "-//W3C//DTD SVG 1.1//EN"
 "http://www.w3.org/Graphics/SVG/1.1/DTD/svg11.dtd">
<!-- Generated by graphviz version 2.49.1 (20211004.0028)
 -->
<!-- Title: snakemake_dag Pages: 1 -->
<svg width="864pt" height="476pt"
 viewBox="0.00 0.00 863.50 476.00" xmlns="http://www.w3.org/2000/svg" xmlns:xlink="http://www.w3.org/1999/xlink">
<g id="graph0" class="graph" transform="scale(1 1) rotate(0) translate(4 472)">
<title>snakemake_dag</title>
<polygon fill="white" stroke="transparent" points="-4,4 -4,-472 859.5,-472 859.5,4 -4,4"/>
<!-- 0 -->
<g id="node1" class="node">
<title>0</title>
<path fill="none" stroke="#d87d56" stroke-width="2" d="M501.5,-36C501.5,-36 471.5,-36 471.5,-36 465.5,-36 459.5,-30 459.5,-24 459.5,-24 459.5,-12 459.5,-12 459.5,-6 465.5,0 471.5,0 471.5,0 501.5,0 501.5,0 507.5,0 513.5,-6 513.5,-12 513.5,-12 513.5,-24 513.5,-24 513.5,-30 507.5,-36 501.5,-36"/>
<text text-anchor="middle" x="486.5" y="-15.5" font-family="sans" font-size="10.00">all</text>
</g>
<!-- 1 -->
<g id="node2" class="node">
<title>1</title>
<path fill="none" stroke="#c6d856" stroke-width="2" d="M206,-108C206,-108 119,-108 119,-108 113,-108 107,-102 107,-96 107,-96 107,-84 107,-84 107,-78 113,-72 119,-72 119,-72 206,-72 206,-72 212,-72 218,-78 218,-84 218,-84 218,-96 218,-96 218,-102 212,-108 206,-108"/>
<text text-anchor="middle" x="162.5" y="-87.5" font-family="sans" font-size="10.00">fix_gtdb_taxonomy</text>
</g>
<!-- 1&#45;&gt;0 -->
<g id="edge5" class="edge">
<title>1&#45;&gt;0</title>
<path fill="none" stroke="grey" stroke-width="2" d="M218.25,-75.29C223.06,-74.16 227.86,-73.05 232.5,-72 309.42,-54.64 399.91,-36.24 449.44,-26.34"/>
<polygon fill="grey" stroke="grey" stroke-width="2" points="450.25,-29.75 459.37,-24.36 448.88,-22.88 450.25,-29.75"/>
</g>
<!-- 2 -->
<g id="node3" class="node">
<title>2</title>
<path fill="none" stroke="#d8a456" stroke-width="2" d="M206,-324C206,-324 107,-324 107,-324 101,-324 95,-318 95,-312 95,-312 95,-300 95,-300 95,-294 101,-288 107,-288 107,-288 206,-288 206,-288 212,-288 218,-294 218,-300 218,-300 218,-312 218,-312 218,-318 212,-324 206,-324"/>
<text text-anchor="middle" x="156.5" y="-303.5" font-family="sans" font-size="10.00">fetch_gtdb_taxonomy</text>
</g>
<!-- 2&#45;&gt;1 -->
<g id="edge13" class="edge">
<title>2&#45;&gt;1</title>
<path fill="none" stroke="grey" stroke-width="2" d="M156.98,-287.85C158.02,-250.83 160.48,-163.18 161.73,-118.39"/>
<polygon fill="grey" stroke="grey" stroke-width="2" points="165.24,-118.33 162.02,-108.23 158.24,-118.13 165.24,-118.33"/>
</g>
<!-- 3 -->
<g id="node4" class="node">
<title>3</title>
<path fill="none" stroke="#d86656" stroke-width="2" d="M179,-396C179,-396 138,-396 138,-396 132,-396 126,-390 126,-384 126,-384 126,-372 126,-372 126,-366 132,-360 138,-360 138,-360 179,-360 179,-360 185,-360 191,-366 191,-372 191,-372 191,-384 191,-384 191,-390 185,-396 179,-396"/>
<text text-anchor="middle" x="158.5" y="-375.5" font-family="sans" font-size="10.00">gtdb_prep</text>
</g>
<!-- 3&#45;&gt;2 -->
<g id="edge14" class="edge">
<title>3&#45;&gt;2</title>
<path fill="none" stroke="grey" stroke-width="2" d="M158.01,-359.7C157.79,-351.98 157.52,-342.71 157.27,-334.11"/>
<polygon fill="grey" stroke="grey" stroke-width="2" points="160.77,-334 156.99,-324.1 153.78,-334.2 160.77,-334"/>
</g>
<!-- 4 -->
<g id="node5" class="node">
<title>4</title>
<path fill="none" stroke="#d8b456" stroke-width="2" d="M371,-468C371,-468 284,-468 284,-468 278,-468 272,-462 272,-456 272,-456 272,-444 272,-444 272,-438 278,-432 284,-432 284,-432 371,-432 371,-432 377,-432 383,-438 383,-444 383,-444 383,-456 383,-456 383,-462 377,-468 371,-468"/>
<text text-anchor="middle" x="327.5" y="-447.5" font-family="sans" font-size="10.00">copy_custom_fasta</text>
</g>
<!-- 4&#45;&gt;3 -->
<g id="edge17" class="edge">
<title>4&#45;&gt;3</title>
<path fill="none" stroke="grey" stroke-width="2" d="M286.28,-431.94C263.35,-422.45 234.06,-410.32 200.69,-396.49"/>
<polygon fill="grey" stroke="grey" stroke-width="2" points="201.75,-393.14 191.17,-392.55 199.07,-399.61 201.75,-393.14"/>
</g>
<!-- 8 -->
<g id="node9" class="node">
<title>8</title>
<path fill="none" stroke="#56d87b" stroke-width="2" d="M270,-396C270,-396 221,-396 221,-396 215,-396 209,-390 209,-384 209,-384 209,-372 209,-372 209,-366 215,-360 221,-360 221,-360 270,-360 270,-360 276,-360 282,-366 282,-372 282,-372 282,-384 282,-384 282,-390 276,-396 270,-396"/>
<text text-anchor="middle" x="245.5" y="-375.5" font-family="sans" font-size="10.00">seqfu_stats</text>
</g>
<!-- 4&#45;&gt;8 -->
<g id="edge21" class="edge">
<title>4&#45;&gt;8</title>
<path fill="none" stroke="grey" stroke-width="2" d="M307.23,-431.7C297,-422.97 284.44,-412.24 273.32,-402.75"/>
<polygon fill="grey" stroke="grey" stroke-width="2" points="275.41,-399.94 265.54,-396.1 270.87,-405.26 275.41,-399.94"/>
</g>
<!-- 11 -->
<g id="node12" class="node">
<title>11</title>
<path fill="none" stroke="#567bd8" stroke-width="2" d="M613.5,-324C613.5,-324 545.5,-324 545.5,-324 539.5,-324 533.5,-318 533.5,-312 533.5,-312 533.5,-300 533.5,-300 533.5,-294 539.5,-288 545.5,-288 545.5,-288 613.5,-288 613.5,-288 619.5,-288 625.5,-294 625.5,-300 625.5,-300 625.5,-312 625.5,-312 625.5,-318 619.5,-324 613.5,-324"/>
<text text-anchor="middle" x="579.5" y="-303.5" font-family="sans" font-size="10.00">prokka_custom</text>
</g>
<!-- 4&#45;&gt;11 -->
<g id="edge29" class="edge">
<title>4&#45;&gt;11</title>
<path fill="none" stroke="grey" stroke-width="2" d="M383.37,-433.76C430.6,-420.6 492.22,-402.68 502.5,-396 516.01,-387.23 542.08,-355.51 560.12,-332.44"/>
<polygon fill="grey" stroke="grey" stroke-width="2" points="563,-334.43 566.36,-324.38 557.47,-330.14 563,-334.43"/>
</g>
<!-- 14 -->
<g id="node15" class="node">
<title>14</title>
<path fill="none" stroke="#56c9d8" stroke-width="2" d="M482,-396C482,-396 385,-396 385,-396 379,-396 373,-390 373,-384 373,-384 373,-372 373,-372 373,-366 379,-360 385,-360 385,-360 482,-360 482,-360 488,-360 494,-366 494,-372 494,-372 494,-384 494,-384 494,-390 488,-396 482,-396"/>
<text text-anchor="middle" x="433.5" y="-375.5" font-family="sans" font-size="10.00">extract_meta_prokka</text>
</g>
<!-- 4&#45;&gt;14 -->
<g id="edge33" class="edge">
<title>4&#45;&gt;14</title>
<path fill="none" stroke="grey" stroke-width="2" d="M353.43,-431.88C367.16,-422.81 384.21,-411.55 399.04,-401.76"/>
<polygon fill="grey" stroke="grey" stroke-width="2" points="401.05,-404.62 407.47,-396.19 397.2,-398.78 401.05,-404.62"/>
</g>
<!-- 16 -->
<g id="node17" class="node">
<title>16</title>
<path fill="none" stroke="#68d856" stroke-width="2" d="M342.5,-396C342.5,-396 312.5,-396 312.5,-396 306.5,-396 300.5,-390 300.5,-384 300.5,-384 300.5,-372 300.5,-372 300.5,-366 306.5,-360 312.5,-360 312.5,-360 342.5,-360 342.5,-360 348.5,-360 354.5,-366 354.5,-372 354.5,-372 354.5,-384 354.5,-384 354.5,-390 348.5,-396 342.5,-396"/>
<text text-anchor="middle" x="327.5" y="-375.5" font-family="sans" font-size="10.00">mlst</text>
</g>
<!-- 4&#45;&gt;16 -->
<g id="edge36" class="edge">
<title>4&#45;&gt;16</title>
<path fill="none" stroke="grey" stroke-width="2" d="M327.5,-431.7C327.5,-423.98 327.5,-414.71 327.5,-406.11"/>
<polygon fill="grey" stroke="grey" stroke-width="2" points="331,-406.1 327.5,-396.1 324,-406.1 331,-406.1"/>
</g>
<!-- 19 -->
<g id="node20" class="node">
<title>19</title>
<path fill="none" stroke="#d6d856" stroke-width="2" d="M628,-396C628,-396 563,-396 563,-396 557,-396 551,-390 551,-384 551,-384 551,-372 551,-372 551,-366 557,-360 563,-360 563,-360 628,-360 628,-360 634,-360 640,-366 640,-372 640,-372 640,-384 640,-384 640,-390 634,-396 628,-396"/>
<text text-anchor="middle" x="595.5" y="-375.5" font-family="sans" font-size="10.00">refseq_masher</text>
</g>
<!-- 4&#45;&gt;19 -->
<g id="edge41" class="edge">
<title>4&#45;&gt;19</title>
<path fill="none" stroke="grey" stroke-width="2" d="M383.16,-434.4C386.32,-433.59 389.45,-432.78 392.5,-432 456.41,-415.65 472.79,-413.14 536.5,-396 537.95,-395.61 539.41,-395.21 540.89,-394.81"/>
<polygon fill="grey" stroke="grey" stroke-width="2" points="542.07,-398.11 550.77,-392.07 540.2,-391.37 542.07,-398.11"/>
</g>
<!-- 5 -->
<g id="node6" class="node">
<title>5</title>
<path fill="none" stroke="#9fd856" stroke-width="2" d="M241.5,-468C241.5,-468 131.5,-468 131.5,-468 125.5,-468 119.5,-462 119.5,-456 119.5,-456 119.5,-444 119.5,-444 119.5,-438 125.5,-432 131.5,-432 131.5,-432 241.5,-432 241.5,-432 247.5,-432 253.5,-438 253.5,-444 253.5,-444 253.5,-456 253.5,-456 253.5,-462 247.5,-468 241.5,-468"/>
<text text-anchor="middle" x="186.5" y="-447.5" font-family="sans" font-size="10.00">ncbi_genome_download</text>
</g>
<!-- 5&#45;&gt;3 -->
<g id="edge15" class="edge">
<title>5&#45;&gt;3</title>
<path fill="none" stroke="grey" stroke-width="2" d="M179.58,-431.7C176.43,-423.81 172.62,-414.3 169.12,-405.55"/>
<polygon fill="grey" stroke="grey" stroke-width="2" points="172.31,-404.09 165.34,-396.1 165.81,-406.69 172.31,-404.09"/>
</g>
<!-- 7 -->
<g id="node8" class="node">
<title>7</title>
<path fill="none" stroke="#8fd856" stroke-width="2" d="M77,-108C77,-108 12,-108 12,-108 6,-108 0,-102 0,-96 0,-96 0,-84 0,-84 0,-78 6,-72 12,-72 12,-72 77,-72 77,-72 83,-72 89,-78 89,-84 89,-84 89,-96 89,-96 89,-102 83,-108 77,-108"/>
<text text-anchor="middle" x="44.5" y="-87.5" font-family="sans" font-size="10.00">ncbi_metadata</text>
</g>
<!-- 5&#45;&gt;7 -->
<g id="edge18" class="edge">
<title>5&#45;&gt;7</title>
<path fill="none" stroke="grey" stroke-width="2" d="M152.08,-431.87C112.09,-409.24 51.5,-365.34 51.5,-307 51.5,-307 51.5,-307 51.5,-233 51.5,-192.95 48.69,-146.62 46.63,-118.06"/>
<polygon fill="grey" stroke="grey" stroke-width="2" points="50.11,-117.75 45.88,-108.04 43.13,-118.27 50.11,-117.75"/>
</g>
<!-- 5&#45;&gt;8 -->
<g id="edge19" class="edge">
<title>5&#45;&gt;8</title>
<path fill="none" stroke="grey" stroke-width="2" d="M201.08,-431.7C208.16,-423.3 216.78,-413.07 224.55,-403.86"/>
<polygon fill="grey" stroke="grey" stroke-width="2" points="227.31,-406.01 231.08,-396.1 221.96,-401.49 227.31,-406.01"/>
</g>
<!-- 5&#45;&gt;11 -->
<g id="edge27" class="edge">
<title>5&#45;&gt;11</title>
<path fill="none" stroke="grey" stroke-width="2" d="M151.82,-431.83C138.19,-423.13 124.03,-411.15 116.5,-396 109.38,-381.67 105.85,-371.94 116.5,-360 119.87,-356.22 400.91,-325.96 523.44,-312.93"/>
<polygon fill="grey" stroke="grey" stroke-width="2" points="523.81,-316.41 533.39,-311.88 523.07,-309.45 523.81,-316.41"/>
</g>
<!-- 5&#45;&gt;14 -->
<g id="edge31" class="edge">
<title>5&#45;&gt;14</title>
<path fill="none" stroke="grey" stroke-width="2" d="M246.61,-431.97C281.87,-421.97 326.59,-409.3 363.44,-398.85"/>
<polygon fill="grey" stroke="grey" stroke-width="2" points="364.46,-402.2 373.12,-396.11 362.55,-395.47 364.46,-402.2"/>
</g>
<!-- 5&#45;&gt;16 -->
<g id="edge34" class="edge">
<title>5&#45;&gt;16</title>
<path fill="none" stroke="grey" stroke-width="2" d="M220.99,-431.88C242.3,-421.3 269.6,-407.74 291.23,-397.01"/>
<polygon fill="grey" stroke="grey" stroke-width="2" points="293.02,-400.03 300.42,-392.44 289.91,-393.76 293.02,-400.03"/>
</g>
<!-- 5&#45;&gt;19 -->
<g id="edge39" class="edge">
<title>5&#45;&gt;19</title>
<path fill="none" stroke="grey" stroke-width="2" d="M253.58,-433.72C256.59,-433.12 259.58,-432.55 262.5,-432 368.53,-412.22 396.1,-413.7 502.5,-396 514.89,-393.94 528.19,-391.59 540.74,-389.31"/>
<polygon fill="grey" stroke="grey" stroke-width="2" points="541.41,-392.75 550.61,-387.5 540.15,-385.86 541.41,-392.75"/>
</g>
<!-- 6 -->
<g id="node7" class="node">
<title>6</title>
<path fill="none" stroke="#d88d56" stroke-width="2" d="M531.5,-468C531.5,-468 413.5,-468 413.5,-468 407.5,-468 401.5,-462 401.5,-456 401.5,-456 401.5,-444 401.5,-444 401.5,-438 407.5,-432 413.5,-432 413.5,-432 531.5,-432 531.5,-432 537.5,-432 543.5,-438 543.5,-444 543.5,-444 543.5,-456 543.5,-456 543.5,-462 537.5,-468 531.5,-468"/>
<text text-anchor="middle" x="472.5" y="-447.5" font-family="sans" font-size="10.00">patric_genome_download</text>
</g>
<!-- 6&#45;&gt;3 -->
<g id="edge16" class="edge">
<title>6&#45;&gt;3</title>
<path fill="none" stroke="grey" stroke-width="2" d="M401.4,-433.99C398.05,-433.31 394.74,-432.64 391.5,-432 309.42,-415.69 284.5,-420.38 201.04,-396.18"/>
<polygon fill="grey" stroke="grey" stroke-width="2" points="201.99,-392.81 191.4,-393.33 200,-399.52 201.99,-392.81"/>
</g>
<!-- 6&#45;&gt;8 -->
<g id="edge20" class="edge">
<title>6&#45;&gt;8</title>
<path fill="none" stroke="grey" stroke-width="2" d="M410.18,-431.9C377.46,-422.65 336.53,-410.67 291.7,-395.96"/>
<polygon fill="grey" stroke="grey" stroke-width="2" points="292.67,-392.59 282.08,-392.78 290.47,-399.24 292.67,-392.59"/>
</g>
<!-- 6&#45;&gt;11 -->
<g id="edge28" class="edge">
<title>6&#45;&gt;11</title>
<path fill="none" stroke="grey" stroke-width="2" d="M543.56,-446.91C581.16,-441.72 624.42,-428.4 648.5,-396 658.04,-383.16 655.57,-374.35 648.5,-360 642.54,-347.91 632.35,-337.8 621.6,-329.77"/>
<polygon fill="grey" stroke="grey" stroke-width="2" points="623.55,-326.86 613.34,-324.04 619.56,-332.61 623.55,-326.86"/>
</g>
<!-- 6&#45;&gt;14 -->
<g id="edge32" class="edge">
<title>6&#45;&gt;14</title>
<path fill="none" stroke="grey" stroke-width="2" d="M462.86,-431.7C458.37,-423.64 452.94,-413.89 447.98,-404.98"/>
<polygon fill="grey" stroke="grey" stroke-width="2" points="450.95,-403.14 443.03,-396.1 444.84,-406.54 450.95,-403.14"/>
</g>
<!-- 6&#45;&gt;16 -->
<g id="edge35" class="edge">
<title>6&#45;&gt;16</title>
<path fill="none" stroke="grey" stroke-width="2" d="M437.03,-431.88C414.87,-421.18 386.41,-407.44 364.06,-396.65"/>
<polygon fill="grey" stroke="grey" stroke-width="2" points="365.41,-393.42 354.88,-392.22 362.37,-399.72 365.41,-393.42"/>
</g>
<!-- 6&#45;&gt;19 -->
<g id="edge40" class="edge">
<title>6&#45;&gt;19</title>
<path fill="none" stroke="grey" stroke-width="2" d="M502.59,-431.88C518.82,-422.64 539.04,-411.13 556.47,-401.21"/>
<polygon fill="grey" stroke="grey" stroke-width="2" points="558.34,-404.18 565.3,-396.19 554.87,-398.09 558.34,-404.18"/>
</g>
<!-- 7&#45;&gt;0 -->
<g id="edge7" class="edge">
<title>7&#45;&gt;0</title>
<path fill="none" stroke="grey" stroke-width="2" d="M89.17,-74.07C91.97,-73.32 94.77,-72.62 97.5,-72 224.9,-43.12 379.58,-27.78 449.28,-21.89"/>
<polygon fill="grey" stroke="grey" stroke-width="2" points="449.65,-25.37 459.33,-21.06 449.07,-18.39 449.65,-25.37"/>
</g>
<!-- 8&#45;&gt;0 -->
<g id="edge2" class="edge">
<title>8&#45;&gt;0</title>
<path fill="none" stroke="grey" stroke-width="2" d="M245.7,-359.95C245.99,-333.29 246.5,-280.12 246.5,-235 246.5,-235 246.5,-235 246.5,-161 246.5,-114.27 265.15,-100.09 302.5,-72 346.16,-39.17 409.58,-26.65 449.4,-21.89"/>
<polygon fill="grey" stroke="grey" stroke-width="2" points="449.92,-25.36 459.48,-20.79 449.16,-18.4 449.92,-25.36"/>
</g>
<!-- 9 -->
<g id="node10" class="node">
<title>9</title>
<path fill="none" stroke="#566bd8" stroke-width="2" d="M467,-180C467,-180 386,-180 386,-180 380,-180 374,-174 374,-168 374,-168 374,-156 374,-156 374,-150 380,-144 386,-144 386,-144 467,-144 467,-144 473,-144 479,-150 479,-156 479,-156 479,-168 479,-168 479,-174 473,-180 467,-180"/>
<text text-anchor="middle" x="426.5" y="-159.5" font-family="sans" font-size="10.00">automlst_wrapper</text>
</g>
<!-- 9&#45;&gt;0 -->
<g id="edge9" class="edge">
<title>9&#45;&gt;0</title>
<path fill="none" stroke="grey" stroke-width="2" d="M433.74,-143.87C444.05,-119.46 463.08,-74.43 475.25,-45.64"/>
<polygon fill="grey" stroke="grey" stroke-width="2" points="478.57,-46.76 479.24,-36.19 472.12,-44.04 478.57,-46.76"/>
</g>
<!-- 10 -->
<g id="node11" class="node">
<title>10</title>
<path fill="none" stroke="#56d88a" stroke-width="2" d="M604,-252C604,-252 555,-252 555,-252 549,-252 543,-246 543,-240 543,-240 543,-228 543,-228 543,-222 549,-216 555,-216 555,-216 604,-216 604,-216 610,-216 616,-222 616,-228 616,-228 616,-240 616,-240 616,-246 610,-252 604,-252"/>
<text text-anchor="middle" x="579.5" y="-231.5" font-family="sans" font-size="10.00">format_gbk</text>
</g>
<!-- 10&#45;&gt;0 -->
<g id="edge4" class="edge">
<title>10&#45;&gt;0</title>
<path fill="none" stroke="grey" stroke-width="2" d="M557.56,-216C546.71,-206.51 534.31,-193.82 526.5,-180 502.31,-137.2 492.59,-79.89 488.81,-46.46"/>
<polygon fill="grey" stroke="grey" stroke-width="2" points="492.24,-45.67 487.74,-36.09 485.28,-46.39 492.24,-45.67"/>
</g>
<!-- 10&#45;&gt;9 -->
<g id="edge23" class="edge">
<title>10&#45;&gt;9</title>
<path fill="none" stroke="grey" stroke-width="2" d="M542.85,-216.23C521.97,-206.68 495.58,-194.61 473.22,-184.38"/>
<polygon fill="grey" stroke="grey" stroke-width="2" points="474.46,-181.09 463.91,-180.12 471.55,-187.46 474.46,-181.09"/>
</g>
<!-- 20 -->
<g id="node21" class="node">
<title>20</title>
<path fill="none" stroke="#56d8d8" stroke-width="2" d="M591.5,-180C591.5,-180 547.5,-180 547.5,-180 541.5,-180 535.5,-174 535.5,-168 535.5,-168 535.5,-156 535.5,-156 535.5,-150 541.5,-144 547.5,-144 547.5,-144 591.5,-144 591.5,-144 597.5,-144 603.5,-150 603.5,-156 603.5,-156 603.5,-168 603.5,-168 603.5,-174 597.5,-180 591.5,-180"/>
<text text-anchor="middle" x="569.5" y="-159.5" font-family="sans" font-size="10.00">antismash</text>
</g>
<!-- 10&#45;&gt;20 -->
<g id="edge43" class="edge">
<title>10&#45;&gt;20</title>
<path fill="none" stroke="grey" stroke-width="2" d="M577.03,-215.7C575.93,-207.98 574.6,-198.71 573.37,-190.11"/>
<polygon fill="grey" stroke="grey" stroke-width="2" points="576.82,-189.51 571.94,-180.1 569.89,-190.5 576.82,-189.51"/>
</g>
<!-- 11&#45;&gt;0 -->
<g id="edge8" class="edge">
<title>11&#45;&gt;0</title>
<path fill="none" stroke="grey" stroke-width="2" d="M625.65,-305.38C670.91,-303.2 738.88,-292.66 779.5,-252 813.94,-217.52 822.03,-186.68 798.5,-144 744.11,-45.32 594.27,-24.39 523.91,-20.06"/>
<polygon fill="grey" stroke="grey" stroke-width="2" points="523.9,-16.55 513.73,-19.52 523.53,-23.54 523.9,-16.55"/>
</g>
<!-- 11&#45;&gt;10 -->
<g id="edge24" class="edge">
<title>11&#45;&gt;10</title>
<path fill="none" stroke="grey" stroke-width="2" d="M579.5,-287.7C579.5,-279.98 579.5,-270.71 579.5,-262.11"/>
<polygon fill="grey" stroke="grey" stroke-width="2" points="583,-262.1 579.5,-252.1 576,-262.1 583,-262.1"/>
</g>
<!-- 17 -->
<g id="node18" class="node">
<title>17</title>
<path fill="none" stroke="#56d8c9" stroke-width="2" d="M354.5,-252C354.5,-252 324.5,-252 324.5,-252 318.5,-252 312.5,-246 312.5,-240 312.5,-240 312.5,-228 312.5,-228 312.5,-222 318.5,-216 324.5,-216 324.5,-216 354.5,-216 354.5,-216 360.5,-216 366.5,-222 366.5,-228 366.5,-228 366.5,-240 366.5,-240 366.5,-246 360.5,-252 354.5,-252"/>
<text text-anchor="middle" x="339.5" y="-231.5" font-family="sans" font-size="10.00">eggnog</text>
</g>
<!-- 11&#45;&gt;17 -->
<g id="edge38" class="edge">
<title>11&#45;&gt;17</title>
<path fill="none" stroke="grey" stroke-width="2" d="M533.38,-295.61C493.75,-286.96 435.07,-272.79 376.56,-252.06"/>
<polygon fill="grey" stroke="grey" stroke-width="2" points="377.39,-248.64 366.79,-248.53 375.01,-255.22 377.39,-248.64"/>
</g>
<!-- 22 -->
<g id="node23" class="node">
<title>22</title>
<path fill="none" stroke="#56d86b" stroke-width="2" d="M777.5,-180C777.5,-180 747.5,-180 747.5,-180 741.5,-180 735.5,-174 735.5,-168 735.5,-168 735.5,-156 735.5,-156 735.5,-150 741.5,-144 747.5,-144 747.5,-144 777.5,-144 777.5,-144 783.5,-144 789.5,-150 789.5,-156 789.5,-156 789.5,-168 789.5,-168 789.5,-174 783.5,-180 777.5,-180"/>
<text text-anchor="middle" x="762.5" y="-159.5" font-family="sans" font-size="10.00">roary</text>
</g>
<!-- 11&#45;&gt;22 -->
<g id="edge44" class="edge">
<title>11&#45;&gt;22</title>
<path fill="none" stroke="grey" stroke-width="2" d="M625.62,-297.8C673.62,-289.26 744.06,-273.44 760.5,-252 773.83,-234.62 773.01,-209.2 769.63,-189.97"/>
<polygon fill="grey" stroke="grey" stroke-width="2" points="773.02,-189.09 767.55,-180.02 766.17,-190.52 773.02,-189.09"/>
</g>
<!-- 12 -->
<g id="node13" class="node">
<title>12</title>
<path fill="none" stroke="#d85656" stroke-width="2" d="M784.5,-396C784.5,-396 708.5,-396 708.5,-396 702.5,-396 696.5,-390 696.5,-384 696.5,-384 696.5,-372 696.5,-372 696.5,-366 702.5,-360 708.5,-360 708.5,-360 784.5,-360 784.5,-360 790.5,-360 796.5,-366 796.5,-372 796.5,-372 796.5,-384 796.5,-384 796.5,-390 790.5,-396 784.5,-396"/>
<text text-anchor="middle" x="746.5" y="-375.5" font-family="sans" font-size="10.00">prokka_db_setup</text>
</g>
<!-- 12&#45;&gt;11 -->
<g id="edge26" class="edge">
<title>12&#45;&gt;11</title>
<path fill="none" stroke="grey" stroke-width="2" d="M705.65,-359.88C682.72,-350.26 653.92,-338.19 629.63,-328.01"/>
<polygon fill="grey" stroke="grey" stroke-width="2" points="630.8,-324.71 620.22,-324.07 628.09,-331.16 630.8,-324.71"/>
</g>
<!-- 13 -->
<g id="node14" class="node">
<title>13</title>
<path fill="none" stroke="#56a2d8" stroke-width="2" d="M812,-468C812,-468 681,-468 681,-468 675,-468 669,-462 669,-456 669,-456 669,-444 669,-444 669,-438 675,-432 681,-432 681,-432 812,-432 812,-432 818,-432 824,-438 824,-444 824,-444 824,-456 824,-456 824,-462 818,-468 812,-468"/>
<text text-anchor="middle" x="746.5" y="-447.5" font-family="sans" font-size="10.00">prokka_reference_download</text>
</g>
<!-- 13&#45;&gt;12 -->
<g id="edge30" class="edge">
<title>13&#45;&gt;12</title>
<path fill="none" stroke="grey" stroke-width="2" d="M746.5,-431.7C746.5,-423.98 746.5,-414.71 746.5,-406.11"/>
<polygon fill="grey" stroke="grey" stroke-width="2" points="750,-406.1 746.5,-396.1 743,-406.1 750,-406.1"/>
</g>
<!-- 14&#45;&gt;11 -->
<g id="edge25" class="edge">
<title>14&#45;&gt;11</title>
<path fill="none" stroke="grey" stroke-width="2" d="M469.22,-359.88C489,-350.39 513.77,-338.51 534.83,-328.42"/>
<polygon fill="grey" stroke="grey" stroke-width="2" points="536.4,-331.55 543.9,-324.07 533.37,-325.24 536.4,-331.55"/>
</g>
<!-- 15 -->
<g id="node16" class="node">
<title>15</title>
<path fill="none" stroke="#56d8b1" stroke-width="2" d="M512.5,-252C512.5,-252 396.5,-252 396.5,-252 390.5,-252 384.5,-246 384.5,-240 384.5,-240 384.5,-228 384.5,-228 384.5,-222 390.5,-216 396.5,-216 396.5,-216 512.5,-216 512.5,-216 518.5,-216 524.5,-222 524.5,-228 524.5,-228 524.5,-240 524.5,-240 524.5,-246 518.5,-252 512.5,-252"/>
<text text-anchor="middle" x="454.5" y="-231.5" font-family="sans" font-size="10.00">install_automlst_wrapper</text>
</g>
<!-- 15&#45;&gt;9 -->
<g id="edge22" class="edge">
<title>15&#45;&gt;9</title>
<path fill="none" stroke="grey" stroke-width="2" d="M447.58,-215.7C444.43,-207.81 440.62,-198.3 437.12,-189.55"/>
<polygon fill="grey" stroke="grey" stroke-width="2" points="440.31,-188.09 433.34,-180.1 433.81,-190.69 440.31,-188.09"/>
</g>
<!-- 16&#45;&gt;0 -->
<g id="edge11" class="edge">
<title>16&#45;&gt;0</title>
<path fill="none" stroke="grey" stroke-width="2" d="M318.59,-359.58C306,-333.3 284.5,-281.62 284.5,-235 284.5,-235 284.5,-235 284.5,-161 284.5,-81.33 390.95,-42.5 449.3,-27.2"/>
<polygon fill="grey" stroke="grey" stroke-width="2" points="450.41,-30.53 459.26,-24.69 448.71,-23.74 450.41,-30.53"/>
</g>
<!-- 17&#45;&gt;0 -->
<g id="edge6" class="edge">
<title>17&#45;&gt;0</title>
<path fill="none" stroke="grey" stroke-width="2" d="M341.71,-215.95C344.7,-197.28 351.26,-166.93 364.5,-144 388.1,-103.13 428.09,-65.75 455.83,-42.73"/>
<polygon fill="grey" stroke="grey" stroke-width="2" points="458.12,-45.37 463.66,-36.34 453.7,-39.95 458.12,-45.37"/>
</g>
<!-- 18 -->
<g id="node19" class="node">
<title>18</title>
<path fill="none" stroke="#b6d856" stroke-width="2" d="M388.5,-324C388.5,-324 324.5,-324 324.5,-324 318.5,-324 312.5,-318 312.5,-312 312.5,-312 312.5,-300 312.5,-300 312.5,-294 318.5,-288 324.5,-288 324.5,-288 388.5,-288 388.5,-288 394.5,-288 400.5,-294 400.5,-300 400.5,-300 400.5,-312 400.5,-312 400.5,-318 394.5,-324 388.5,-324"/>
<text text-anchor="middle" x="356.5" y="-303.5" font-family="sans" font-size="10.00">install_eggnog</text>
</g>
<!-- 18&#45;&gt;17 -->
<g id="edge37" class="edge">
<title>18&#45;&gt;17</title>
<path fill="none" stroke="grey" stroke-width="2" d="M352.3,-287.7C350.4,-279.9 348.12,-270.51 346.02,-261.83"/>
<polygon fill="grey" stroke="grey" stroke-width="2" points="349.42,-261 343.65,-252.1 342.61,-262.65 349.42,-261"/>
</g>
<!-- 19&#45;&gt;0 -->
<g id="edge1" class="edge">
<title>19&#45;&gt;0</title>
<path fill="none" stroke="grey" stroke-width="2" d="M640.2,-362.7C714.53,-337.55 855.5,-283.47 855.5,-235 855.5,-235 855.5,-235 855.5,-161 855.5,-103.14 812.03,-98.3 760.5,-72 682.82,-32.35 578.92,-22.26 524.07,-19.76"/>
<polygon fill="grey" stroke="grey" stroke-width="2" points="523.91,-16.25 513.78,-19.35 523.63,-23.24 523.91,-16.25"/>
</g>
<!-- 20&#45;&gt;0 -->
<g id="edge10" class="edge">
<title>20&#45;&gt;0</title>
<path fill="none" stroke="grey" stroke-width="2" d="M560.74,-143.69C551.44,-125.56 536.1,-96.41 521.5,-72 516.12,-63.01 509.92,-53.39 504.24,-44.85"/>
<polygon fill="grey" stroke="grey" stroke-width="2" points="507.05,-42.76 498.57,-36.42 501.24,-46.67 507.05,-42.76"/>
</g>
<!-- 23 -->
<g id="node24" class="node">
<title>23</title>
<path fill="none" stroke="#78d856" stroke-width="2" d="M621.5,-108C621.5,-108 585.5,-108 585.5,-108 579.5,-108 573.5,-102 573.5,-96 573.5,-96 573.5,-84 573.5,-84 573.5,-78 579.5,-72 585.5,-72 585.5,-72 621.5,-72 621.5,-72 627.5,-72 633.5,-78 633.5,-84 633.5,-84 633.5,-96 633.5,-96 633.5,-102 627.5,-108 621.5,-108"/>
<text text-anchor="middle" x="603.5" y="-87.5" font-family="sans" font-size="10.00">bigscape</text>
</g>
<!-- 20&#45;&gt;23 -->
<g id="edge45" class="edge">
<title>20&#45;&gt;23</title>
<path fill="none" stroke="grey" stroke-width="2" d="M577.9,-143.7C581.77,-135.73 586.45,-126.1 590.74,-117.26"/>
<polygon fill="grey" stroke="grey" stroke-width="2" points="593.97,-118.63 595.19,-108.1 587.67,-115.57 593.97,-118.63"/>
</g>
<!-- 21 -->
<g id="node22" class="node">
<title>21</title>
<path fill="none" stroke="#d8c356" stroke-width="2" d="M739,-252C739,-252 646,-252 646,-252 640,-252 634,-246 634,-240 634,-240 634,-228 634,-228 634,-222 640,-216 646,-216 646,-216 739,-216 739,-216 745,-216 751,-222 751,-228 751,-228 751,-240 751,-240 751,-246 745,-252 739,-252"/>
<text text-anchor="middle" x="692.5" y="-231.5" font-family="sans" font-size="10.00">antismash_db_setup</text>
</g>
<!-- 21&#45;&gt;20 -->
<g id="edge42" class="edge">
<title>21&#45;&gt;20</title>
<path fill="none" stroke="grey" stroke-width="2" d="M662.41,-215.88C646.18,-206.64 625.96,-195.13 608.53,-185.21"/>
<polygon fill="grey" stroke="grey" stroke-width="2" points="610.13,-182.09 599.7,-180.19 606.66,-188.18 610.13,-182.09"/>
</g>
<!-- 22&#45;&gt;0 -->
<g id="edge3" class="edge">
<title>22&#45;&gt;0</title>
<path fill="none" stroke="grey" stroke-width="2" d="M743.39,-143.85C720.71,-124.24 681.09,-92.23 642.5,-72 603.98,-51.81 556.19,-36.91 523.73,-28.13"/>
<polygon fill="grey" stroke="grey" stroke-width="2" points="524.32,-24.67 513.75,-25.5 522.53,-31.44 524.32,-24.67"/>
</g>
<!-- 23&#45;&gt;0 -->
<g id="edge12" class="edge">
<title>23&#45;&gt;0</title>
<path fill="none" stroke="grey" stroke-width="2" d="M574.88,-71.88C559.12,-62.45 539.42,-50.66 522.61,-40.61"/>
<polygon fill="grey" stroke="grey" stroke-width="2" points="524,-37.36 513.62,-35.23 520.4,-43.36 524,-37.36"/>
</g>
<!-- 24 -->
<g id="node25" class="node">
<title>24</title>
<path fill="none" stroke="#56b1d8" stroke-width="2" d="M705,-180C705,-180 634,-180 634,-180 628,-180 622,-174 622,-168 622,-168 622,-156 622,-156 622,-150 628,-144 634,-144 634,-144 705,-144 705,-144 711,-144 717,-150 717,-156 717,-156 717,-168 717,-168 717,-174 711,-180 705,-180"/>
<text text-anchor="middle" x="669.5" y="-159.5" font-family="sans" font-size="10.00">install_bigscape</text>
</g>
<!-- 24&#45;&gt;23 -->
<g id="edge46" class="edge">
<title>24&#45;&gt;23</title>
<path fill="none" stroke="grey" stroke-width="2" d="M653.19,-143.7C645.19,-135.22 635.43,-124.86 626.68,-115.58"/>
<polygon fill="grey" stroke="grey" stroke-width="2" points="629.03,-112.98 619.63,-108.1 623.94,-117.78 629.03,-112.98"/>
</g>
</g>
</svg>
