<?xml version="1.0" encoding="UTF-8" standalone="no"?>
<!DOCTYPE svg PUBLIC "-//W3C//DTD SVG 1.1//EN"
 "http://www.w3.org/Graphics/SVG/1.1/DTD/svg11.dtd">
<!-- Generated by graphviz version 2.49.3 (20211104.1129)
 -->
<!-- Title: snakemake_dag Pages: 1 -->
<svg width="816pt" height="548pt"
 viewBox="0.00 0.00 816.00 548.00" xmlns="http://www.w3.org/2000/svg" xmlns:xlink="http://www.w3.org/1999/xlink">
<g id="graph0" class="graph" transform="scale(1 1) rotate(0) translate(4 544)">
<title>snakemake_dag</title>
<polygon fill="white" stroke="transparent" points="-4,4 -4,-544 812,-544 812,4 -4,4"/>
<!-- 0 -->
<g id="node1" class="node">
<title>0</title>
<path fill="none" stroke="#56d8a9" stroke-width="2" d="M453,-36C453,-36 423,-36 423,-36 417,-36 411,-30 411,-24 411,-24 411,-12 411,-12 411,-6 417,0 423,0 423,0 453,0 453,0 459,0 465,-6 465,-12 465,-12 465,-24 465,-24 465,-30 459,-36 453,-36"/>
<text text-anchor="middle" x="438" y="-15.5" font-family="sans" font-size="10.00">all</text>
</g>
<!-- 1 -->
<g id="node2" class="node">
<title>1</title>
<path fill="none" stroke="#d8cb56" stroke-width="2" d="M139.5,-252C139.5,-252 52.5,-252 52.5,-252 46.5,-252 40.5,-246 40.5,-240 40.5,-240 40.5,-228 40.5,-228 40.5,-222 46.5,-216 52.5,-216 52.5,-216 139.5,-216 139.5,-216 145.5,-216 151.5,-222 151.5,-228 151.5,-228 151.5,-240 151.5,-240 151.5,-246 145.5,-252 139.5,-252"/>
<text text-anchor="middle" x="96" y="-231.5" font-family="sans" font-size="10.00">fix_gtdb_taxonomy</text>
</g>
<!-- 1&#45;&gt;0 -->
<g id="edge3" class="edge">
<title>1&#45;&gt;0</title>
<path fill="none" stroke="grey" stroke-width="2" d="M92.12,-215.94C85.77,-183.21 77.37,-111.37 115,-72 153.72,-31.49 324.49,-21.94 400.86,-19.69"/>
<polygon fill="grey" stroke="grey" stroke-width="2" points="401.09,-23.19 410.99,-19.42 400.9,-16.19 401.09,-23.19"/>
</g>
<!-- 13 -->
<g id="node14" class="node">
<title>13</title>
<path fill="none" stroke="#d8b456" stroke-width="2" d="M247.5,-180C247.5,-180 144.5,-180 144.5,-180 138.5,-180 132.5,-174 132.5,-168 132.5,-168 132.5,-156 132.5,-156 132.5,-150 138.5,-144 144.5,-144 144.5,-144 247.5,-144 247.5,-144 253.5,-144 259.5,-150 259.5,-156 259.5,-156 259.5,-168 259.5,-168 259.5,-174 253.5,-180 247.5,-180"/>
<text text-anchor="middle" x="196" y="-159.5" font-family="sans" font-size="10.00">downstream_bgc_prep</text>
</g>
<!-- 1&#45;&gt;13 -->
<g id="edge21" class="edge">
<title>1&#45;&gt;13</title>
<path fill="none" stroke="grey" stroke-width="2" d="M120.46,-215.88C133.3,-206.89 149.2,-195.76 163.09,-186.03"/>
<polygon fill="grey" stroke="grey" stroke-width="2" points="165.26,-188.79 171.44,-180.19 161.24,-183.06 165.26,-188.79"/>
</g>
<!-- 2 -->
<g id="node3" class="node">
<title>2</title>
<path fill="none" stroke="#d6d856" stroke-width="2" d="M243.5,-396C243.5,-396 202.5,-396 202.5,-396 196.5,-396 190.5,-390 190.5,-384 190.5,-384 190.5,-372 190.5,-372 190.5,-366 196.5,-360 202.5,-360 202.5,-360 243.5,-360 243.5,-360 249.5,-360 255.5,-366 255.5,-372 255.5,-372 255.5,-384 255.5,-384 255.5,-390 249.5,-396 243.5,-396"/>
<text text-anchor="middle" x="223" y="-375.5" font-family="sans" font-size="10.00">gtdb_prep</text>
</g>
<!-- 2&#45;&gt;1 -->
<g id="edge10" class="edge">
<title>2&#45;&gt;1</title>
<path fill="none" stroke="grey" stroke-width="2" d="M190.31,-363.02C172.39,-354.02 150.86,-340.84 136,-324 120.13,-306.02 109.58,-280.71 103.32,-261.68"/>
<polygon fill="grey" stroke="grey" stroke-width="2" points="106.66,-260.62 100.36,-252.1 99.97,-262.69 106.66,-260.62"/>
</g>
<!-- 8 -->
<g id="node9" class="node">
<title>8</title>
<path fill="none" stroke="#56c1d8" stroke-width="2" d="M451.5,-324C451.5,-324 402.5,-324 402.5,-324 396.5,-324 390.5,-318 390.5,-312 390.5,-312 390.5,-300 390.5,-300 390.5,-294 396.5,-288 402.5,-288 402.5,-288 451.5,-288 451.5,-288 457.5,-288 463.5,-294 463.5,-300 463.5,-300 463.5,-312 463.5,-312 463.5,-318 457.5,-324 451.5,-324"/>
<text text-anchor="middle" x="427" y="-303.5" font-family="sans" font-size="10.00">format_gbk</text>
</g>
<!-- 2&#45;&gt;8 -->
<g id="edge15" class="edge">
<title>2&#45;&gt;8</title>
<path fill="none" stroke="grey" stroke-width="2" d="M255.78,-365.75C289.48,-354.19 342.28,-336.07 380.34,-323.01"/>
<polygon fill="grey" stroke="grey" stroke-width="2" points="381.84,-326.2 390.16,-319.64 379.57,-319.57 381.84,-326.2"/>
</g>
<!-- 3 -->
<g id="node4" class="node">
<title>3</title>
<path fill="none" stroke="#97d856" stroke-width="2" d="M796,-108C796,-108 668,-108 668,-108 662,-108 656,-102 656,-96 656,-96 656,-84 656,-84 656,-78 662,-72 668,-72 668,-72 796,-72 796,-72 802,-72 808,-78 808,-84 808,-84 808,-96 808,-96 808,-102 802,-108 796,-108"/>
<text text-anchor="middle" x="732" y="-87.5" font-family="sans" font-size="10.00">write_dependency_versions</text>
</g>
<!-- 3&#45;&gt;0 -->
<g id="edge1" class="edge">
<title>3&#45;&gt;0</title>
<path fill="none" stroke="grey" stroke-width="2" d="M660.46,-71.97C601.99,-58.04 521.67,-38.92 475.26,-27.87"/>
<polygon fill="grey" stroke="grey" stroke-width="2" points="475.87,-24.42 465.33,-25.51 474.25,-31.23 475.87,-24.42"/>
</g>
<!-- 4 -->
<g id="node5" class="node">
<title>4</title>
<path fill="none" stroke="#d85e56" stroke-width="2" d="M649.5,-396C649.5,-396 600.5,-396 600.5,-396 594.5,-396 588.5,-390 588.5,-384 588.5,-384 588.5,-372 588.5,-372 588.5,-366 594.5,-360 600.5,-360 600.5,-360 649.5,-360 649.5,-360 655.5,-360 661.5,-366 661.5,-372 661.5,-372 661.5,-384 661.5,-384 661.5,-390 655.5,-396 649.5,-396"/>
<text text-anchor="middle" x="625" y="-375.5" font-family="sans" font-size="10.00">seqfu_stats</text>
</g>
<!-- 4&#45;&gt;0 -->
<g id="edge4" class="edge">
<title>4&#45;&gt;0</title>
<path fill="none" stroke="grey" stroke-width="2" d="M625.59,-359.95C626.47,-333.3 628,-280.12 628,-235 628,-235 628,-235 628,-161 628,-85.4 530.3,-45.21 475.02,-28.51"/>
<polygon fill="grey" stroke="grey" stroke-width="2" points="475.8,-25.1 465.22,-25.67 473.85,-31.82 475.8,-25.1"/>
</g>
<!-- 5 -->
<g id="node6" class="node">
<title>5</title>
<path fill="none" stroke="#56b9d8" stroke-width="2" d="M520.5,-540C520.5,-540 433.5,-540 433.5,-540 427.5,-540 421.5,-534 421.5,-528 421.5,-528 421.5,-516 421.5,-516 421.5,-510 427.5,-504 433.5,-504 433.5,-504 520.5,-504 520.5,-504 526.5,-504 532.5,-510 532.5,-516 532.5,-516 532.5,-528 532.5,-528 532.5,-534 526.5,-540 520.5,-540"/>
<text text-anchor="middle" x="477" y="-519.5" font-family="sans" font-size="10.00">copy_custom_fasta</text>
</g>
<!-- 5&#45;&gt;4 -->
<g id="edge11" class="edge">
<title>5&#45;&gt;4</title>
<path fill="none" stroke="grey" stroke-width="2" d="M532.6,-505.05C553.18,-496.81 575.3,-484.84 591,-468 606.99,-450.85 615.69,-425.4 620.28,-406.11"/>
<polygon fill="grey" stroke="grey" stroke-width="2" points="623.75,-406.63 622.43,-396.11 616.91,-405.16 623.75,-406.63"/>
</g>
<!-- 6 -->
<g id="node7" class="node">
<title>6</title>
<path fill="none" stroke="#68d856" stroke-width="2" d="M42,-180C42,-180 12,-180 12,-180 6,-180 0,-174 0,-168 0,-168 0,-156 0,-156 0,-150 6,-144 12,-144 12,-144 42,-144 42,-144 48,-144 54,-150 54,-156 54,-156 54,-168 54,-168 54,-174 48,-180 42,-180"/>
<text text-anchor="middle" x="27" y="-159.5" font-family="sans" font-size="10.00">mash</text>
</g>
<!-- 5&#45;&gt;6 -->
<g id="edge12" class="edge">
<title>5&#45;&gt;6</title>
<path fill="none" stroke="grey" stroke-width="2" d="M421.37,-515.85C297.95,-502.89 12,-463.73 12,-379 12,-379 12,-379 12,-305 12,-264.99 17.96,-219 22.37,-190.46"/>
<polygon fill="grey" stroke="grey" stroke-width="2" points="25.85,-190.85 23.96,-180.43 18.94,-189.75 25.85,-190.85"/>
</g>
<!-- 9 -->
<g id="node10" class="node">
<title>9</title>
<path fill="none" stroke="#56d882" stroke-width="2" d="M448,-396C448,-396 418,-396 418,-396 412,-396 406,-390 406,-384 406,-384 406,-372 406,-372 406,-366 412,-360 418,-360 418,-360 448,-360 448,-360 454,-360 460,-366 460,-372 460,-372 460,-384 460,-384 460,-390 454,-396 448,-396"/>
<text text-anchor="middle" x="433" y="-375.5" font-family="sans" font-size="10.00">prokka</text>
</g>
<!-- 5&#45;&gt;9 -->
<g id="edge17" class="edge">
<title>5&#45;&gt;9</title>
<path fill="none" stroke="grey" stroke-width="2" d="M467.62,-503.75C462.41,-493.59 456.16,-480.34 452,-468 445.15,-447.7 440.22,-423.93 437.11,-406.06"/>
<polygon fill="grey" stroke="grey" stroke-width="2" points="440.53,-405.33 435.44,-396.04 433.63,-406.48 440.53,-405.33"/>
</g>
<!-- 10 -->
<g id="node11" class="node">
<title>10</title>
<path fill="none" stroke="#569ad8" stroke-width="2" d="M570.5,-468C570.5,-468 473.5,-468 473.5,-468 467.5,-468 461.5,-462 461.5,-456 461.5,-456 461.5,-444 461.5,-444 461.5,-438 467.5,-432 473.5,-432 473.5,-432 570.5,-432 570.5,-432 576.5,-432 582.5,-438 582.5,-444 582.5,-444 582.5,-456 582.5,-456 582.5,-462 576.5,-468 570.5,-468"/>
<text text-anchor="middle" x="522" y="-447.5" font-family="sans" font-size="10.00">extract_meta_prokka</text>
</g>
<!-- 5&#45;&gt;10 -->
<g id="edge19" class="edge">
<title>5&#45;&gt;10</title>
<path fill="none" stroke="grey" stroke-width="2" d="M488.12,-503.7C493.36,-495.56 499.7,-485.69 505.48,-476.7"/>
<polygon fill="grey" stroke="grey" stroke-width="2" points="508.54,-478.41 511,-468.1 502.65,-474.62 508.54,-478.41"/>
</g>
<!-- 6&#45;&gt;0 -->
<g id="edge6" class="edge">
<title>6&#45;&gt;0</title>
<path fill="none" stroke="grey" stroke-width="2" d="M32.59,-143.73C40.24,-123.06 56.06,-89.09 82,-72 133.94,-37.78 320.36,-24.73 400.71,-20.62"/>
<polygon fill="grey" stroke="grey" stroke-width="2" points="401.05,-24.11 410.87,-20.12 400.71,-17.12 401.05,-24.11"/>
</g>
<!-- 7 -->
<g id="node8" class="node">
<title>7</title>
<path fill="none" stroke="#56d89a" stroke-width="2" d="M550,-180C550,-180 472,-180 472,-180 466,-180 460,-174 460,-168 460,-168 460,-156 460,-156 460,-150 466,-144 472,-144 472,-144 550,-144 550,-144 556,-144 562,-150 562,-156 562,-156 562,-168 562,-168 562,-174 556,-180 550,-180"/>
<text text-anchor="middle" x="511" y="-159.5" font-family="sans" font-size="10.00">copy_prokka_gbk</text>
</g>
<!-- 7&#45;&gt;0 -->
<g id="edge8" class="edge">
<title>7&#45;&gt;0</title>
<path fill="none" stroke="grey" stroke-width="2" d="M515.12,-143.86C518.68,-125.1 521.63,-94.69 510,-72 502.22,-56.82 487.84,-44.9 473.97,-36.25"/>
<polygon fill="grey" stroke="grey" stroke-width="2" points="475.41,-33.03 465.01,-31.03 471.89,-39.08 475.41,-33.03"/>
</g>
<!-- 8&#45;&gt;7 -->
<g id="edge13" class="edge">
<title>8&#45;&gt;7</title>
<path fill="none" stroke="grey" stroke-width="2" d="M463.68,-291.46C491.05,-280.54 525.02,-264.91 533,-252 544.81,-232.89 536.91,-207.8 527.44,-189.13"/>
<polygon fill="grey" stroke="grey" stroke-width="2" points="530.47,-187.37 522.6,-180.27 524.33,-190.73 530.47,-187.37"/>
</g>
<!-- 14 -->
<g id="node15" class="node">
<title>14</title>
<path fill="none" stroke="#80d856" stroke-width="2" d="M226,-252C226,-252 182,-252 182,-252 176,-252 170,-246 170,-240 170,-240 170,-228 170,-228 170,-222 176,-216 182,-216 182,-216 226,-216 226,-216 232,-216 238,-222 238,-228 238,-228 238,-240 238,-240 238,-246 232,-252 226,-252"/>
<text text-anchor="middle" x="204" y="-231.5" font-family="sans" font-size="10.00">antismash</text>
</g>
<!-- 8&#45;&gt;14 -->
<g id="edge23" class="edge">
<title>8&#45;&gt;14</title>
<path fill="none" stroke="grey" stroke-width="2" d="M390.5,-295.29C355.92,-285.87 302.39,-270.68 247.67,-252.09"/>
<polygon fill="grey" stroke="grey" stroke-width="2" points="248.76,-248.76 238.16,-248.83 246.49,-255.38 248.76,-248.76"/>
</g>
<!-- 18 -->
<g id="node19" class="node">
<title>18</title>
<path fill="none" stroke="#56d8b9" stroke-width="2" d="M512,-252C512,-252 426,-252 426,-252 420,-252 414,-246 414,-240 414,-240 414,-228 414,-228 414,-222 420,-216 426,-216 426,-216 512,-216 512,-216 518,-216 524,-222 524,-228 524,-228 524,-240 524,-240 524,-246 518,-252 512,-252"/>
<text text-anchor="middle" x="469" y="-231.5" font-family="sans" font-size="10.00">prep_automlst_gbk</text>
</g>
<!-- 8&#45;&gt;18 -->
<g id="edge28" class="edge">
<title>8&#45;&gt;18</title>
<path fill="none" stroke="grey" stroke-width="2" d="M437.38,-287.7C442.26,-279.56 448.19,-269.69 453.58,-260.7"/>
<polygon fill="grey" stroke="grey" stroke-width="2" points="456.59,-262.48 458.74,-252.1 450.59,-258.88 456.59,-262.48"/>
</g>
<!-- 9&#45;&gt;8 -->
<g id="edge14" class="edge">
<title>9&#45;&gt;8</title>
<path fill="none" stroke="grey" stroke-width="2" d="M431.52,-359.7C430.86,-351.98 430.06,-342.71 429.32,-334.11"/>
<polygon fill="grey" stroke="grey" stroke-width="2" points="432.81,-333.77 428.47,-324.1 425.83,-334.37 432.81,-333.77"/>
</g>
<!-- 20 -->
<g id="node21" class="node">
<title>20</title>
<path fill="none" stroke="#78d856" stroke-width="2" d="M588,-324C588,-324 494,-324 494,-324 488,-324 482,-318 482,-312 482,-312 482,-300 482,-300 482,-294 488,-288 494,-288 494,-288 588,-288 588,-288 594,-288 600,-294 600,-300 600,-300 600,-312 600,-312 600,-318 594,-324 588,-324"/>
<text text-anchor="middle" x="541" y="-303.5" font-family="sans" font-size="10.00">cblaster_genome_db</text>
</g>
<!-- 9&#45;&gt;20 -->
<g id="edge29" class="edge">
<title>9&#45;&gt;20</title>
<path fill="none" stroke="grey" stroke-width="2" d="M459.42,-359.88C473.41,-350.81 490.78,-339.55 505.89,-329.76"/>
<polygon fill="grey" stroke="grey" stroke-width="2" points="507.99,-332.57 514.48,-324.19 504.18,-326.69 507.99,-332.57"/>
</g>
<!-- 10&#45;&gt;9 -->
<g id="edge18" class="edge">
<title>10&#45;&gt;9</title>
<path fill="none" stroke="grey" stroke-width="2" d="M500,-431.7C488.79,-422.88 475,-412.03 462.85,-402.47"/>
<polygon fill="grey" stroke="grey" stroke-width="2" points="464.77,-399.54 454.75,-396.1 460.44,-405.04 464.77,-399.54"/>
</g>
<!-- 11 -->
<g id="node12" class="node">
<title>11</title>
<path fill="none" stroke="#59d856" stroke-width="2" d="M393,-468C393,-468 317,-468 317,-468 311,-468 305,-462 305,-456 305,-456 305,-444 305,-444 305,-438 311,-432 317,-432 317,-432 393,-432 393,-432 399,-432 405,-438 405,-444 405,-444 405,-456 405,-456 405,-462 399,-468 393,-468"/>
<text text-anchor="middle" x="355" y="-447.5" font-family="sans" font-size="10.00">prokka_db_setup</text>
</g>
<!-- 11&#45;&gt;9 -->
<g id="edge16" class="edge">
<title>11&#45;&gt;9</title>
<path fill="none" stroke="grey" stroke-width="2" d="M374.28,-431.7C383.92,-423.05 395.73,-412.45 406.23,-403.03"/>
<polygon fill="grey" stroke="grey" stroke-width="2" points="408.84,-405.39 413.94,-396.1 404.16,-400.18 408.84,-405.39"/>
</g>
<!-- 12 -->
<g id="node13" class="node">
<title>12</title>
<path fill="none" stroke="#5663d8" stroke-width="2" d="M344.5,-108C344.5,-108 249.5,-108 249.5,-108 243.5,-108 237.5,-102 237.5,-96 237.5,-96 237.5,-84 237.5,-84 237.5,-78 243.5,-72 249.5,-72 249.5,-72 344.5,-72 344.5,-72 350.5,-72 356.5,-78 356.5,-84 356.5,-84 356.5,-96 356.5,-96 356.5,-102 350.5,-108 344.5,-108"/>
<text text-anchor="middle" x="297" y="-87.5" font-family="sans" font-size="10.00">antismash_summary</text>
</g>
<!-- 12&#45;&gt;0 -->
<g id="edge9" class="edge">
<title>12&#45;&gt;0</title>
<path fill="none" stroke="grey" stroke-width="2" d="M331.49,-71.88C352.8,-61.3 380.1,-47.74 401.73,-37.01"/>
<polygon fill="grey" stroke="grey" stroke-width="2" points="403.52,-40.03 410.92,-32.44 400.41,-33.76 403.52,-40.03"/>
</g>
<!-- 13&#45;&gt;12 -->
<g id="edge20" class="edge">
<title>13&#45;&gt;12</title>
<path fill="none" stroke="grey" stroke-width="2" d="M220.71,-143.88C233.67,-134.89 249.73,-123.76 263.77,-114.03"/>
<polygon fill="grey" stroke="grey" stroke-width="2" points="265.97,-116.76 272.2,-108.19 261.98,-111.01 265.97,-116.76"/>
</g>
<!-- 21 -->
<g id="node22" class="node">
<title>21</title>
<path fill="none" stroke="#d87556" stroke-width="2" d="M207.5,-108C207.5,-108 136.5,-108 136.5,-108 130.5,-108 124.5,-102 124.5,-96 124.5,-96 124.5,-84 124.5,-84 124.5,-78 130.5,-72 136.5,-72 136.5,-72 207.5,-72 207.5,-72 213.5,-72 219.5,-78 219.5,-84 219.5,-84 219.5,-96 219.5,-96 219.5,-102 213.5,-108 207.5,-108"/>
<text text-anchor="middle" x="172" y="-87.5" font-family="sans" font-size="10.00">cblaster_bgc_db</text>
</g>
<!-- 13&#45;&gt;21 -->
<g id="edge30" class="edge">
<title>13&#45;&gt;21</title>
<path fill="none" stroke="grey" stroke-width="2" d="M190.07,-143.7C187.39,-135.9 184.17,-126.51 181.2,-117.83"/>
<polygon fill="grey" stroke="grey" stroke-width="2" points="184.42,-116.43 177.86,-108.1 177.8,-118.7 184.42,-116.43"/>
</g>
<!-- 14&#45;&gt;13 -->
<g id="edge22" class="edge">
<title>14&#45;&gt;13</title>
<path fill="none" stroke="grey" stroke-width="2" d="M202.02,-215.7C201.14,-207.98 200.08,-198.71 199.1,-190.11"/>
<polygon fill="grey" stroke="grey" stroke-width="2" points="202.57,-189.64 197.95,-180.1 195.61,-190.44 202.57,-189.64"/>
</g>
<!-- 15 -->
<g id="node16" class="node">
<title>15</title>
<path fill="none" stroke="#566bd8" stroke-width="2" d="M250.5,-324C250.5,-324 157.5,-324 157.5,-324 151.5,-324 145.5,-318 145.5,-312 145.5,-312 145.5,-300 145.5,-300 145.5,-294 151.5,-288 157.5,-288 157.5,-288 250.5,-288 250.5,-288 256.5,-288 262.5,-294 262.5,-300 262.5,-300 262.5,-312 262.5,-312 262.5,-318 256.5,-324 250.5,-324"/>
<text text-anchor="middle" x="204" y="-303.5" font-family="sans" font-size="10.00">antismash_db_setup</text>
</g>
<!-- 15&#45;&gt;14 -->
<g id="edge24" class="edge">
<title>15&#45;&gt;14</title>
<path fill="none" stroke="grey" stroke-width="2" d="M204,-287.7C204,-279.98 204,-270.71 204,-262.11"/>
<polygon fill="grey" stroke="grey" stroke-width="2" points="207.5,-262.1 204,-252.1 200.5,-262.1 207.5,-262.1"/>
</g>
<!-- 16 -->
<g id="node17" class="node">
<title>16</title>
<path fill="none" stroke="#8fd856" stroke-width="2" d="M489,-108C489,-108 387,-108 387,-108 381,-108 375,-102 375,-96 375,-96 375,-84 375,-84 375,-78 381,-72 387,-72 387,-72 489,-72 489,-72 495,-72 501,-78 501,-84 501,-84 501,-96 501,-96 501,-102 495,-108 489,-108"/>
<text text-anchor="middle" x="438" y="-87.5" font-family="sans" font-size="10.00">automlst_wrapper_out</text>
</g>
<!-- 16&#45;&gt;0 -->
<g id="edge2" class="edge">
<title>16&#45;&gt;0</title>
<path fill="none" stroke="grey" stroke-width="2" d="M438,-71.7C438,-63.98 438,-54.71 438,-46.11"/>
<polygon fill="grey" stroke="grey" stroke-width="2" points="441.5,-46.1 438,-36.1 434.5,-46.1 441.5,-46.1"/>
</g>
<!-- 17 -->
<g id="node18" class="node">
<title>17</title>
<path fill="none" stroke="#d8a456" stroke-width="2" d="M429.5,-180C429.5,-180 348.5,-180 348.5,-180 342.5,-180 336.5,-174 336.5,-168 336.5,-168 336.5,-156 336.5,-156 336.5,-150 342.5,-144 348.5,-144 348.5,-144 429.5,-144 429.5,-144 435.5,-144 441.5,-150 441.5,-156 441.5,-156 441.5,-168 441.5,-168 441.5,-174 435.5,-180 429.5,-180"/>
<text text-anchor="middle" x="389" y="-159.5" font-family="sans" font-size="10.00">automlst_wrapper</text>
</g>
<!-- 17&#45;&gt;16 -->
<g id="edge25" class="edge">
<title>17&#45;&gt;16</title>
<path fill="none" stroke="grey" stroke-width="2" d="M401.11,-143.7C406.87,-135.47 413.86,-125.48 420.21,-116.42"/>
<polygon fill="grey" stroke="grey" stroke-width="2" points="423.16,-118.3 426.03,-108.1 417.42,-114.29 423.16,-118.3"/>
</g>
<!-- 18&#45;&gt;17 -->
<g id="edge26" class="edge">
<title>18&#45;&gt;17</title>
<path fill="none" stroke="grey" stroke-width="2" d="M449.22,-215.7C439.25,-206.97 426.99,-196.24 416.14,-186.75"/>
<polygon fill="grey" stroke="grey" stroke-width="2" points="418.38,-184.06 408.55,-180.1 413.77,-189.32 418.38,-184.06"/>
</g>
<!-- 19 -->
<g id="node20" class="node">
<title>19</title>
<path fill="none" stroke="#56d88a" stroke-width="2" d="M384,-252C384,-252 268,-252 268,-252 262,-252 256,-246 256,-240 256,-240 256,-228 256,-228 256,-222 262,-216 268,-216 268,-216 384,-216 384,-216 390,-216 396,-222 396,-228 396,-228 396,-240 396,-240 396,-246 390,-252 384,-252"/>
<text text-anchor="middle" x="326" y="-231.5" font-family="sans" font-size="10.00">install_automlst_wrapper</text>
</g>
<!-- 19&#45;&gt;17 -->
<g id="edge27" class="edge">
<title>19&#45;&gt;17</title>
<path fill="none" stroke="grey" stroke-width="2" d="M341.57,-215.7C349.2,-207.22 358.52,-196.86 366.88,-187.58"/>
<polygon fill="grey" stroke="grey" stroke-width="2" points="369.52,-189.88 373.61,-180.1 364.31,-185.2 369.52,-189.88"/>
</g>
<!-- 20&#45;&gt;0 -->
<g id="edge7" class="edge">
<title>20&#45;&gt;0</title>
<path fill="none" stroke="grey" stroke-width="2" d="M549.18,-287.88C562.23,-258.24 584.95,-195.6 571,-144 561.33,-108.24 555.2,-98.19 529,-72 513.36,-56.37 492.19,-43.68 474.21,-34.64"/>
<polygon fill="grey" stroke="grey" stroke-width="2" points="475.67,-31.46 465.14,-30.25 472.62,-37.76 475.67,-31.46"/>
</g>
<!-- 21&#45;&gt;0 -->
<g id="edge5" class="edge">
<title>21&#45;&gt;0</title>
<path fill="none" stroke="grey" stroke-width="2" d="M219.61,-74.38C222.45,-73.56 225.26,-72.76 228,-72 288.25,-55.26 358.83,-37.91 400.9,-27.8"/>
<polygon fill="grey" stroke="grey" stroke-width="2" points="401.8,-31.18 410.71,-25.45 400.17,-24.38 401.8,-31.18"/>
</g>
</g>
</svg>
