<?xml version="1.0" encoding="UTF-8" standalone="no"?>
<!DOCTYPE svg PUBLIC "-//W3C//DTD SVG 1.1//EN"
 "http://www.w3.org/Graphics/SVG/1.1/DTD/svg11.dtd">
<!-- Generated by graphviz version 2.49.1 (20211004.0028)
 -->
<!-- Title: snakemake_dag Pages: 1 -->
<svg width="860pt" height="404pt"
 viewBox="0.00 0.00 859.96 404.00" xmlns="http://www.w3.org/2000/svg" xmlns:xlink="http://www.w3.org/1999/xlink">
<g id="graph0" class="graph" transform="scale(1 1) rotate(0) translate(4 400)">
<title>snakemake_dag</title>
<polygon fill="white" stroke="transparent" points="-4,4 -4,-400 855.96,-400 855.96,4 -4,4"/>
<!-- 0 -->
<g id="node1" class="node">
<title>0</title>
<path fill="none" stroke="#56d86b" stroke-width="2" d="M545.5,-36C545.5,-36 515.5,-36 515.5,-36 509.5,-36 503.5,-30 503.5,-24 503.5,-24 503.5,-12 503.5,-12 503.5,-6 509.5,0 515.5,0 515.5,0 545.5,0 545.5,0 551.5,0 557.5,-6 557.5,-12 557.5,-12 557.5,-24 557.5,-24 557.5,-30 551.5,-36 545.5,-36"/>
<text text-anchor="middle" x="530.5" y="-15.5" font-family="sans" font-size="10.00">all</text>
</g>
<!-- 1 -->
<g id="node2" class="node">
<title>1</title>
<path fill="none" stroke="#80d856" stroke-width="2" d="M331,-108C331,-108 244,-108 244,-108 238,-108 232,-102 232,-96 232,-96 232,-84 232,-84 232,-78 238,-72 244,-72 244,-72 331,-72 331,-72 337,-72 343,-78 343,-84 343,-84 343,-96 343,-96 343,-102 337,-108 331,-108"/>
<text text-anchor="middle" x="287.5" y="-87.5" font-family="sans" font-size="10.00">fix_gtdb_taxonomy</text>
</g>
<!-- 1&#45;&gt;0 -->
<g id="edge4" class="edge">
<title>1&#45;&gt;0</title>
<path fill="none" stroke="grey" stroke-width="2" d="M343.25,-72.94C389.4,-59.65 453.65,-41.14 493.62,-29.62"/>
<polygon fill="grey" stroke="grey" stroke-width="2" points="494.84,-32.91 503.48,-26.78 492.91,-26.19 494.84,-32.91"/>
</g>
<!-- 2 -->
<g id="node3" class="node">
<title>2</title>
<path fill="none" stroke="#ced856" stroke-width="2" d="M295,-252C295,-252 196,-252 196,-252 190,-252 184,-246 184,-240 184,-240 184,-228 184,-228 184,-222 190,-216 196,-216 196,-216 295,-216 295,-216 301,-216 307,-222 307,-228 307,-228 307,-240 307,-240 307,-246 301,-252 295,-252"/>
<text text-anchor="middle" x="245.5" y="-231.5" font-family="sans" font-size="10.00">fetch_gtdb_taxonomy</text>
</g>
<!-- 2&#45;&gt;1 -->
<g id="edge11" class="edge">
<title>2&#45;&gt;1</title>
<path fill="none" stroke="grey" stroke-width="2" d="M250.57,-215.87C257.76,-191.56 270.99,-146.82 279.51,-118.01"/>
<polygon fill="grey" stroke="grey" stroke-width="2" points="282.94,-118.77 282.42,-108.19 276.22,-116.79 282.94,-118.77"/>
</g>
<!-- 3 -->
<g id="node4" class="node">
<title>3</title>
<path fill="none" stroke="#56d0d8" stroke-width="2" d="M350,-324C350,-324 309,-324 309,-324 303,-324 297,-318 297,-312 297,-312 297,-300 297,-300 297,-294 303,-288 309,-288 309,-288 350,-288 350,-288 356,-288 362,-294 362,-300 362,-300 362,-312 362,-312 362,-318 356,-324 350,-324"/>
<text text-anchor="middle" x="329.5" y="-303.5" font-family="sans" font-size="10.00">gtdb_prep</text>
</g>
<!-- 3&#45;&gt;2 -->
<g id="edge12" class="edge">
<title>3&#45;&gt;2</title>
<path fill="none" stroke="grey" stroke-width="2" d="M308.74,-287.7C298.26,-278.97 285.39,-268.24 274,-258.75"/>
<polygon fill="grey" stroke="grey" stroke-width="2" points="275.95,-255.82 266.03,-252.1 271.47,-261.19 275.95,-255.82"/>
</g>
<!-- 4 -->
<g id="node5" class="node">
<title>4</title>
<path fill="none" stroke="#5692d8" stroke-width="2" d="M646,-396C646,-396 559,-396 559,-396 553,-396 547,-390 547,-384 547,-384 547,-372 547,-372 547,-366 553,-360 559,-360 559,-360 646,-360 646,-360 652,-360 658,-366 658,-372 658,-372 658,-384 658,-384 658,-390 652,-396 646,-396"/>
<text text-anchor="middle" x="602.5" y="-375.5" font-family="sans" font-size="10.00">copy_custom_fasta</text>
</g>
<!-- 4&#45;&gt;3 -->
<g id="edge14" class="edge">
<title>4&#45;&gt;3</title>
<path fill="none" stroke="grey" stroke-width="2" d="M546.87,-362.29C543.7,-361.5 540.56,-360.73 537.5,-360 467.09,-343.17 445.41,-345.97 372.03,-323.88"/>
<polygon fill="grey" stroke="grey" stroke-width="2" points="372.91,-320.49 362.32,-320.9 370.86,-327.18 372.91,-320.49"/>
</g>
<!-- 9 -->
<g id="node10" class="node">
<title>9</title>
<path fill="none" stroke="#68d856" stroke-width="2" d="M563.5,-252C563.5,-252 495.5,-252 495.5,-252 489.5,-252 483.5,-246 483.5,-240 483.5,-240 483.5,-228 483.5,-228 483.5,-222 489.5,-216 495.5,-216 495.5,-216 563.5,-216 563.5,-216 569.5,-216 575.5,-222 575.5,-228 575.5,-228 575.5,-240 575.5,-240 575.5,-246 569.5,-252 563.5,-252"/>
<text text-anchor="middle" x="529.5" y="-231.5" font-family="sans" font-size="10.00">prokka_custom</text>
</g>
<!-- 4&#45;&gt;9 -->
<g id="edge23" class="edge">
<title>4&#45;&gt;9</title>
<path fill="none" stroke="grey" stroke-width="2" d="M627.43,-359.86C638.56,-350.67 650.5,-338.29 656.5,-324 662.69,-309.25 665.37,-301.32 656.5,-288 652.04,-281.3 617.11,-266.98 585.01,-254.91"/>
<polygon fill="grey" stroke="grey" stroke-width="2" points="586.21,-251.62 575.62,-251.41 583.77,-258.18 586.21,-251.62"/>
</g>
<!-- 12 -->
<g id="node13" class="node">
<title>12</title>
<path fill="none" stroke="#b6d856" stroke-width="2" d="M489,-324C489,-324 392,-324 392,-324 386,-324 380,-318 380,-312 380,-312 380,-300 380,-300 380,-294 386,-288 392,-288 392,-288 489,-288 489,-288 495,-288 501,-294 501,-300 501,-300 501,-312 501,-312 501,-318 495,-324 489,-324"/>
<text text-anchor="middle" x="440.5" y="-303.5" font-family="sans" font-size="10.00">extract_meta_prokka</text>
</g>
<!-- 4&#45;&gt;12 -->
<g id="edge26" class="edge">
<title>4&#45;&gt;12</title>
<path fill="none" stroke="grey" stroke-width="2" d="M562.87,-359.88C540.72,-350.31 512.94,-338.3 489.44,-328.15"/>
<polygon fill="grey" stroke="grey" stroke-width="2" points="490.57,-324.82 480,-324.07 487.79,-331.25 490.57,-324.82"/>
</g>
<!-- 17 -->
<g id="node18" class="node">
<title>17</title>
<path fill="none" stroke="#d85656" stroke-width="2" d="M635,-324C635,-324 570,-324 570,-324 564,-324 558,-318 558,-312 558,-312 558,-300 558,-300 558,-294 564,-288 570,-288 570,-288 635,-288 635,-288 641,-288 647,-294 647,-300 647,-300 647,-312 647,-312 647,-318 641,-324 635,-324"/>
<text text-anchor="middle" x="602.5" y="-303.5" font-family="sans" font-size="10.00">refseq_masher</text>
</g>
<!-- 4&#45;&gt;17 -->
<g id="edge32" class="edge">
<title>4&#45;&gt;17</title>
<path fill="none" stroke="grey" stroke-width="2" d="M602.5,-359.7C602.5,-351.98 602.5,-342.71 602.5,-334.11"/>
<polygon fill="grey" stroke="grey" stroke-width="2" points="606,-334.1 602.5,-324.1 599,-334.1 606,-334.1"/>
</g>
<!-- 5 -->
<g id="node6" class="node">
<title>5</title>
<path fill="none" stroke="#d8a456" stroke-width="2" d="M356.5,-396C356.5,-396 246.5,-396 246.5,-396 240.5,-396 234.5,-390 234.5,-384 234.5,-384 234.5,-372 234.5,-372 234.5,-366 240.5,-360 246.5,-360 246.5,-360 356.5,-360 356.5,-360 362.5,-360 368.5,-366 368.5,-372 368.5,-372 368.5,-384 368.5,-384 368.5,-390 362.5,-396 356.5,-396"/>
<text text-anchor="middle" x="301.5" y="-375.5" font-family="sans" font-size="10.00">ncbi_genome_download</text>
</g>
<!-- 5&#45;&gt;3 -->
<g id="edge13" class="edge">
<title>5&#45;&gt;3</title>
<path fill="none" stroke="grey" stroke-width="2" d="M308.42,-359.7C311.57,-351.81 315.38,-342.3 318.88,-333.55"/>
<polygon fill="grey" stroke="grey" stroke-width="2" points="322.19,-334.69 322.66,-324.1 315.69,-332.09 322.19,-334.69"/>
</g>
<!-- 7 -->
<g id="node8" class="node">
<title>7</title>
<path fill="none" stroke="#59d856" stroke-width="2" d="M191,-108C191,-108 126,-108 126,-108 120,-108 114,-102 114,-96 114,-96 114,-84 114,-84 114,-78 120,-72 126,-72 126,-72 191,-72 191,-72 197,-72 203,-78 203,-84 203,-84 203,-96 203,-96 203,-102 197,-108 191,-108"/>
<text text-anchor="middle" x="158.5" y="-87.5" font-family="sans" font-size="10.00">ncbi_metadata</text>
</g>
<!-- 5&#45;&gt;7 -->
<g id="edge16" class="edge">
<title>5&#45;&gt;7</title>
<path fill="none" stroke="grey" stroke-width="2" d="M275.8,-359.96C246,-338.62 198.09,-299.09 175.5,-252 154.86,-208.97 154.12,-152.19 155.96,-118.83"/>
<polygon fill="grey" stroke="grey" stroke-width="2" points="159.48,-118.68 156.66,-108.47 152.5,-118.21 159.48,-118.68"/>
</g>
<!-- 5&#45;&gt;9 -->
<g id="edge21" class="edge">
<title>5&#45;&gt;9</title>
<path fill="none" stroke="grey" stroke-width="2" d="M292.03,-359.85C282.62,-340.24 271.81,-308.24 288.5,-288 340.1,-225.46 389.05,-268.95 473.47,-251.9"/>
<polygon fill="grey" stroke="grey" stroke-width="2" points="474.41,-255.28 483.39,-249.65 472.86,-248.45 474.41,-255.28"/>
</g>
<!-- 5&#45;&gt;12 -->
<g id="edge25" class="edge">
<title>5&#45;&gt;12</title>
<path fill="none" stroke="grey" stroke-width="2" d="M335.5,-359.88C354.1,-350.51 377.33,-338.81 397.21,-328.8"/>
<polygon fill="grey" stroke="grey" stroke-width="2" points="399.01,-331.81 406.37,-324.19 395.86,-325.56 399.01,-331.81"/>
</g>
<!-- 5&#45;&gt;17 -->
<g id="edge31" class="edge">
<title>5&#45;&gt;17</title>
<path fill="none" stroke="grey" stroke-width="2" d="M368.68,-361.38C422.65,-348.82 497.51,-331.42 547.86,-319.71"/>
<polygon fill="grey" stroke="grey" stroke-width="2" points="548.95,-323.05 557.9,-317.37 547.37,-316.23 548.95,-323.05"/>
</g>
<!-- 6 -->
<g id="node7" class="node">
<title>6</title>
<path fill="none" stroke="#56d892" stroke-width="2" d="M516.5,-396C516.5,-396 398.5,-396 398.5,-396 392.5,-396 386.5,-390 386.5,-384 386.5,-384 386.5,-372 386.5,-372 386.5,-366 392.5,-360 398.5,-360 398.5,-360 516.5,-360 516.5,-360 522.5,-360 528.5,-366 528.5,-372 528.5,-372 528.5,-384 528.5,-384 528.5,-390 522.5,-396 516.5,-396"/>
<text text-anchor="middle" x="457.5" y="-375.5" font-family="sans" font-size="10.00">patric_genome_download</text>
</g>
<!-- 6&#45;&gt;3 -->
<g id="edge15" class="edge">
<title>6&#45;&gt;3</title>
<path fill="none" stroke="grey" stroke-width="2" d="M426.19,-359.88C409.3,-350.64 388.25,-339.13 370.12,-329.21"/>
<polygon fill="grey" stroke="grey" stroke-width="2" points="371.39,-325.92 360.93,-324.19 368.03,-332.06 371.39,-325.92"/>
</g>
<!-- 6&#45;&gt;9 -->
<g id="edge20" class="edge">
<title>6&#45;&gt;9</title>
<path fill="none" stroke="grey" stroke-width="2" d="M479.9,-359.87C490.73,-350.43 502.98,-337.83 510.5,-324 520.91,-304.85 525.62,-280.5 527.74,-262.11"/>
<polygon fill="grey" stroke="grey" stroke-width="2" points="531.24,-262.35 528.72,-252.06 524.27,-261.67 531.24,-262.35"/>
</g>
<!-- 6&#45;&gt;12 -->
<g id="edge27" class="edge">
<title>6&#45;&gt;12</title>
<path fill="none" stroke="grey" stroke-width="2" d="M453.3,-359.7C451.4,-351.9 449.12,-342.51 447.02,-333.83"/>
<polygon fill="grey" stroke="grey" stroke-width="2" points="450.42,-333 444.65,-324.1 443.61,-334.65 450.42,-333"/>
</g>
<!-- 6&#45;&gt;17 -->
<g id="edge33" class="edge">
<title>6&#45;&gt;17</title>
<path fill="none" stroke="grey" stroke-width="2" d="M492.97,-359.88C512.62,-350.39 537.22,-338.51 558.13,-328.42"/>
<polygon fill="grey" stroke="grey" stroke-width="2" points="559.66,-331.57 567.14,-324.07 556.62,-325.26 559.66,-331.57"/>
</g>
<!-- 7&#45;&gt;0 -->
<g id="edge8" class="edge">
<title>7&#45;&gt;0</title>
<path fill="none" stroke="grey" stroke-width="2" d="M203.14,-76.79C209.94,-75.09 216.89,-73.43 223.5,-72 320.04,-51.08 435.08,-33.04 493.1,-24.41"/>
<polygon fill="grey" stroke="grey" stroke-width="2" points="493.86,-27.83 503.25,-22.91 492.84,-20.91 493.86,-27.83"/>
</g>
<!-- 8 -->
<g id="node9" class="node">
<title>8</title>
<path fill="none" stroke="#8fd856" stroke-width="2" d="M428.5,-180C428.5,-180 342.5,-180 342.5,-180 336.5,-180 330.5,-174 330.5,-168 330.5,-168 330.5,-156 330.5,-156 330.5,-150 336.5,-144 342.5,-144 342.5,-144 428.5,-144 428.5,-144 434.5,-144 440.5,-150 440.5,-156 440.5,-156 440.5,-168 440.5,-168 440.5,-174 434.5,-180 428.5,-180"/>
<text text-anchor="middle" x="385.5" y="-159.5" font-family="sans" font-size="10.00">autoMLST_wrapper</text>
</g>
<!-- 8&#45;&gt;0 -->
<g id="edge3" class="edge">
<title>8&#45;&gt;0</title>
<path fill="none" stroke="grey" stroke-width="2" d="M382.56,-143.68C380.26,-124.2 379.7,-92.6 395.5,-72 418.77,-41.66 461.92,-28.67 493.19,-23.12"/>
<polygon fill="grey" stroke="grey" stroke-width="2" points="493.97,-26.54 503.3,-21.5 492.87,-19.62 493.97,-26.54"/>
</g>
<!-- 9&#45;&gt;0 -->
<g id="edge6" class="edge">
<title>9&#45;&gt;0</title>
<path fill="none" stroke="grey" stroke-width="2" d="M532.25,-215.59C536.54,-186.04 543.9,-124.18 539.5,-72 538.78,-63.5 537.43,-54.31 535.99,-46.01"/>
<polygon fill="grey" stroke="grey" stroke-width="2" points="539.41,-45.29 534.15,-36.09 532.53,-46.56 539.41,-45.29"/>
</g>
<!-- 9&#45;&gt;8 -->
<g id="edge18" class="edge">
<title>9&#45;&gt;8</title>
<path fill="none" stroke="grey" stroke-width="2" d="M494.27,-215.88C474.92,-206.47 450.73,-194.71 430.07,-184.67"/>
<polygon fill="grey" stroke="grey" stroke-width="2" points="431.39,-181.41 420.86,-180.19 428.33,-187.71 431.39,-181.41"/>
</g>
<!-- 14 -->
<g id="node15" class="node">
<title>14</title>
<path fill="none" stroke="#d87d56" stroke-width="2" d="M446.5,-108C446.5,-108 416.5,-108 416.5,-108 410.5,-108 404.5,-102 404.5,-96 404.5,-96 404.5,-84 404.5,-84 404.5,-78 410.5,-72 416.5,-72 416.5,-72 446.5,-72 446.5,-72 452.5,-72 458.5,-78 458.5,-84 458.5,-84 458.5,-96 458.5,-96 458.5,-102 452.5,-108 446.5,-108"/>
<text text-anchor="middle" x="431.5" y="-87.5" font-family="sans" font-size="10.00">mlst</text>
</g>
<!-- 9&#45;&gt;14 -->
<g id="edge28" class="edge">
<title>9&#45;&gt;14</title>
<path fill="none" stroke="grey" stroke-width="2" d="M517.68,-215.87C500.61,-191.14 468.93,-145.24 449.11,-116.51"/>
<polygon fill="grey" stroke="grey" stroke-width="2" points="451.92,-114.43 443.36,-108.19 446.16,-118.41 451.92,-114.43"/>
</g>
<!-- 15 -->
<g id="node16" class="node">
<title>15</title>
<path fill="none" stroke="#d8bc56" stroke-width="2" d="M614.5,-180C614.5,-180 584.5,-180 584.5,-180 578.5,-180 572.5,-174 572.5,-168 572.5,-168 572.5,-156 572.5,-156 572.5,-150 578.5,-144 584.5,-144 584.5,-144 614.5,-144 614.5,-144 620.5,-144 626.5,-150 626.5,-156 626.5,-156 626.5,-168 626.5,-168 626.5,-174 620.5,-180 614.5,-180"/>
<text text-anchor="middle" x="599.5" y="-159.5" font-family="sans" font-size="10.00">eggnog</text>
</g>
<!-- 9&#45;&gt;15 -->
<g id="edge30" class="edge">
<title>9&#45;&gt;15</title>
<path fill="none" stroke="grey" stroke-width="2" d="M546.8,-215.7C555.36,-207.14 565.84,-196.66 575.2,-187.3"/>
<polygon fill="grey" stroke="grey" stroke-width="2" points="577.8,-189.65 582.4,-180.1 572.85,-184.7 577.8,-189.65"/>
</g>
<!-- 18 -->
<g id="node19" class="node">
<title>18</title>
<path fill="none" stroke="#d8cb56" stroke-width="2" d="M700.5,-180C700.5,-180 656.5,-180 656.5,-180 650.5,-180 644.5,-174 644.5,-168 644.5,-168 644.5,-156 644.5,-156 644.5,-150 650.5,-144 656.5,-144 656.5,-144 700.5,-144 700.5,-144 706.5,-144 712.5,-150 712.5,-156 712.5,-156 712.5,-168 712.5,-168 712.5,-174 706.5,-180 700.5,-180"/>
<text text-anchor="middle" x="678.5" y="-159.5" font-family="sans" font-size="10.00">antismash</text>
</g>
<!-- 9&#45;&gt;18 -->
<g id="edge35" class="edge">
<title>9&#45;&gt;18</title>
<path fill="none" stroke="grey" stroke-width="2" d="M565.95,-215.88C586.91,-206.03 613.36,-193.61 635.35,-183.27"/>
<polygon fill="grey" stroke="grey" stroke-width="2" points="636.91,-186.41 644.47,-178.99 633.93,-180.07 636.91,-186.41"/>
</g>
<!-- 20 -->
<g id="node21" class="node">
<title>20</title>
<path fill="none" stroke="#566bd8" stroke-width="2" d="M518.5,-108C518.5,-108 488.5,-108 488.5,-108 482.5,-108 476.5,-102 476.5,-96 476.5,-96 476.5,-84 476.5,-84 476.5,-78 482.5,-72 488.5,-72 488.5,-72 518.5,-72 518.5,-72 524.5,-72 530.5,-78 530.5,-84 530.5,-84 530.5,-96 530.5,-96 530.5,-102 524.5,-108 518.5,-108"/>
<text text-anchor="middle" x="503.5" y="-87.5" font-family="sans" font-size="10.00">roary</text>
</g>
<!-- 9&#45;&gt;20 -->
<g id="edge36" class="edge">
<title>9&#45;&gt;20</title>
<path fill="none" stroke="grey" stroke-width="2" d="M526.36,-215.87C521.93,-191.67 513.79,-147.21 508.52,-118.39"/>
<polygon fill="grey" stroke="grey" stroke-width="2" points="511.89,-117.4 506.65,-108.19 505.01,-118.66 511.89,-117.4"/>
</g>
<!-- 10 -->
<g id="node11" class="node">
<title>10</title>
<path fill="none" stroke="#56d8d0" stroke-width="2" d="M115.5,-324C115.5,-324 39.5,-324 39.5,-324 33.5,-324 27.5,-318 27.5,-312 27.5,-312 27.5,-300 27.5,-300 27.5,-294 33.5,-288 39.5,-288 39.5,-288 115.5,-288 115.5,-288 121.5,-288 127.5,-294 127.5,-300 127.5,-300 127.5,-312 127.5,-312 127.5,-318 121.5,-324 115.5,-324"/>
<text text-anchor="middle" x="77.5" y="-303.5" font-family="sans" font-size="10.00">prokka_db_setup</text>
</g>
<!-- 10&#45;&gt;9 -->
<g id="edge22" class="edge">
<title>10&#45;&gt;9</title>
<path fill="none" stroke="grey" stroke-width="2" d="M127.79,-301C201.68,-294.53 343.94,-279.81 473.35,-252.05"/>
<polygon fill="grey" stroke="grey" stroke-width="2" points="474.41,-255.4 483.44,-249.85 472.92,-248.56 474.41,-255.4"/>
</g>
<!-- 11 -->
<g id="node12" class="node">
<title>11</title>
<path fill="none" stroke="#56d8b9" stroke-width="2" d="M143,-396C143,-396 12,-396 12,-396 6,-396 0,-390 0,-384 0,-384 0,-372 0,-372 0,-366 6,-360 12,-360 12,-360 143,-360 143,-360 149,-360 155,-366 155,-372 155,-372 155,-384 155,-384 155,-390 149,-396 143,-396"/>
<text text-anchor="middle" x="77.5" y="-375.5" font-family="sans" font-size="10.00">prokka_reference_download</text>
</g>
<!-- 11&#45;&gt;10 -->
<g id="edge24" class="edge">
<title>11&#45;&gt;10</title>
<path fill="none" stroke="grey" stroke-width="2" d="M77.5,-359.7C77.5,-351.98 77.5,-342.71 77.5,-334.11"/>
<polygon fill="grey" stroke="grey" stroke-width="2" points="81,-334.1 77.5,-324.1 74,-334.1 81,-334.1"/>
</g>
<!-- 12&#45;&gt;9 -->
<g id="edge19" class="edge">
<title>12&#45;&gt;9</title>
<path fill="none" stroke="grey" stroke-width="2" d="M462.5,-287.7C473.71,-278.88 487.5,-268.03 499.65,-258.47"/>
<polygon fill="grey" stroke="grey" stroke-width="2" points="502.06,-261.04 507.75,-252.1 497.73,-255.54 502.06,-261.04"/>
</g>
<!-- 13 -->
<g id="node14" class="node">
<title>13</title>
<path fill="none" stroke="#56d8a9" stroke-width="2" d="M453.5,-252C453.5,-252 337.5,-252 337.5,-252 331.5,-252 325.5,-246 325.5,-240 325.5,-240 325.5,-228 325.5,-228 325.5,-222 331.5,-216 337.5,-216 337.5,-216 453.5,-216 453.5,-216 459.5,-216 465.5,-222 465.5,-228 465.5,-228 465.5,-240 465.5,-240 465.5,-246 459.5,-252 453.5,-252"/>
<text text-anchor="middle" x="395.5" y="-231.5" font-family="sans" font-size="10.00">install_automlst_wrapper</text>
</g>
<!-- 13&#45;&gt;8 -->
<g id="edge17" class="edge">
<title>13&#45;&gt;8</title>
<path fill="none" stroke="grey" stroke-width="2" d="M393.03,-215.7C391.93,-207.98 390.6,-198.71 389.37,-190.11"/>
<polygon fill="grey" stroke="grey" stroke-width="2" points="392.82,-189.51 387.94,-180.1 385.89,-190.5 392.82,-189.51"/>
</g>
<!-- 14&#45;&gt;0 -->
<g id="edge7" class="edge">
<title>14&#45;&gt;0</title>
<path fill="none" stroke="grey" stroke-width="2" d="M455.72,-71.88C468.42,-62.89 484.16,-51.76 497.92,-42.03"/>
<polygon fill="grey" stroke="grey" stroke-width="2" points="500.04,-44.82 506.19,-36.19 496,-39.11 500.04,-44.82"/>
</g>
<!-- 15&#45;&gt;0 -->
<g id="edge9" class="edge">
<title>15&#45;&gt;0</title>
<path fill="none" stroke="grey" stroke-width="2" d="M596.3,-143.87C592.41,-125.39 584.78,-95.46 572.5,-72 567.44,-62.33 560.51,-52.69 553.74,-44.33"/>
<polygon fill="grey" stroke="grey" stroke-width="2" points="556.22,-41.85 547.1,-36.45 550.87,-46.36 556.22,-41.85"/>
</g>
<!-- 16 -->
<g id="node17" class="node">
<title>16</title>
<path fill="none" stroke="#d86e56" stroke-width="2" d="M669.5,-252C669.5,-252 605.5,-252 605.5,-252 599.5,-252 593.5,-246 593.5,-240 593.5,-240 593.5,-228 593.5,-228 593.5,-222 599.5,-216 605.5,-216 605.5,-216 669.5,-216 669.5,-216 675.5,-216 681.5,-222 681.5,-228 681.5,-228 681.5,-240 681.5,-240 681.5,-246 675.5,-252 669.5,-252"/>
<text text-anchor="middle" x="637.5" y="-231.5" font-family="sans" font-size="10.00">install_eggnog</text>
</g>
<!-- 16&#45;&gt;15 -->
<g id="edge29" class="edge">
<title>16&#45;&gt;15</title>
<path fill="none" stroke="grey" stroke-width="2" d="M628.11,-215.7C623.74,-207.64 618.44,-197.89 613.6,-188.98"/>
<polygon fill="grey" stroke="grey" stroke-width="2" points="616.63,-187.22 608.79,-180.1 610.48,-190.56 616.63,-187.22"/>
</g>
<!-- 17&#45;&gt;0 -->
<g id="edge2" class="edge">
<title>17&#45;&gt;0</title>
<path fill="none" stroke="grey" stroke-width="2" d="M647.08,-300.43C705.39,-293.5 802.94,-278.25 826.5,-252 858.67,-216.15 857.85,-186.66 835.5,-144 784.34,-46.37 637.51,-24.89 567.93,-20.24"/>
<polygon fill="grey" stroke="grey" stroke-width="2" points="568.04,-16.74 557.85,-19.65 567.63,-23.73 568.04,-16.74"/>
</g>
<!-- 18&#45;&gt;0 -->
<g id="edge1" class="edge">
<title>18&#45;&gt;0</title>
<path fill="none" stroke="grey" stroke-width="2" d="M663.05,-143.74C646.41,-125.4 618.89,-95.84 593.5,-72 582.87,-62.02 570.71,-51.58 559.93,-42.63"/>
<polygon fill="grey" stroke="grey" stroke-width="2" points="561.94,-39.76 552,-36.11 557.5,-45.16 561.94,-39.76"/>
</g>
<!-- 21 -->
<g id="node22" class="node">
<title>21</title>
<path fill="none" stroke="#56b9d8" stroke-width="2" d="M710.5,-108C710.5,-108 674.5,-108 674.5,-108 668.5,-108 662.5,-102 662.5,-96 662.5,-96 662.5,-84 662.5,-84 662.5,-78 668.5,-72 674.5,-72 674.5,-72 710.5,-72 710.5,-72 716.5,-72 722.5,-78 722.5,-84 722.5,-84 722.5,-96 722.5,-96 722.5,-102 716.5,-108 710.5,-108"/>
<text text-anchor="middle" x="692.5" y="-87.5" font-family="sans" font-size="10.00">bigscape</text>
</g>
<!-- 18&#45;&gt;21 -->
<g id="edge37" class="edge">
<title>18&#45;&gt;21</title>
<path fill="none" stroke="grey" stroke-width="2" d="M681.96,-143.7C683.5,-135.98 685.36,-126.71 687.08,-118.11"/>
<polygon fill="grey" stroke="grey" stroke-width="2" points="690.55,-118.6 689.08,-108.1 683.69,-117.22 690.55,-118.6"/>
</g>
<!-- 19 -->
<g id="node20" class="node">
<title>19</title>
<path fill="none" stroke="#a7d856" stroke-width="2" d="M805,-252C805,-252 712,-252 712,-252 706,-252 700,-246 700,-240 700,-240 700,-228 700,-228 700,-222 706,-216 712,-216 712,-216 805,-216 805,-216 811,-216 817,-222 817,-228 817,-228 817,-240 817,-240 817,-246 811,-252 805,-252"/>
<text text-anchor="middle" x="758.5" y="-231.5" font-family="sans" font-size="10.00">antismash_db_setup</text>
</g>
<!-- 19&#45;&gt;18 -->
<g id="edge34" class="edge">
<title>19&#45;&gt;18</title>
<path fill="none" stroke="grey" stroke-width="2" d="M738.72,-215.7C728.75,-206.97 716.49,-196.24 705.64,-186.75"/>
<polygon fill="grey" stroke="grey" stroke-width="2" points="707.88,-184.06 698.05,-180.1 703.27,-189.32 707.88,-184.06"/>
</g>
<!-- 20&#45;&gt;0 -->
<g id="edge10" class="edge">
<title>20&#45;&gt;0</title>
<path fill="none" stroke="grey" stroke-width="2" d="M510.17,-71.7C513.21,-63.81 516.88,-54.3 520.26,-45.55"/>
<polygon fill="grey" stroke="grey" stroke-width="2" points="523.57,-46.69 523.9,-36.1 517.04,-44.17 523.57,-46.69"/>
</g>
<!-- 21&#45;&gt;0 -->
<g id="edge5" class="edge">
<title>21&#45;&gt;0</title>
<path fill="none" stroke="grey" stroke-width="2" d="M662.41,-76C635.44,-64.35 595.82,-47.23 567.04,-34.79"/>
<polygon fill="grey" stroke="grey" stroke-width="2" points="568.3,-31.52 557.74,-30.77 565.53,-37.95 568.3,-31.52"/>
</g>
<!-- 22 -->
<g id="node23" class="node">
<title>22</title>
<path fill="none" stroke="#567bd8" stroke-width="2" d="M814,-180C814,-180 743,-180 743,-180 737,-180 731,-174 731,-168 731,-168 731,-156 731,-156 731,-150 737,-144 743,-144 743,-144 814,-144 814,-144 820,-144 826,-150 826,-156 826,-156 826,-168 826,-168 826,-174 820,-180 814,-180"/>
<text text-anchor="middle" x="778.5" y="-159.5" font-family="sans" font-size="10.00">install_bigscape</text>
</g>
<!-- 22&#45;&gt;21 -->
<g id="edge38" class="edge">
<title>22&#45;&gt;21</title>
<path fill="none" stroke="grey" stroke-width="2" d="M757.24,-143.7C746.41,-134.88 733.08,-124.03 721.34,-114.47"/>
<polygon fill="grey" stroke="grey" stroke-width="2" points="723.48,-111.7 713.51,-108.1 719.06,-117.13 723.48,-111.7"/>
</g>
</g>
</svg>
