<?xml version="1.0" encoding="UTF-8" standalone="no"?>
<!DOCTYPE svg PUBLIC "-//W3C//DTD SVG 1.1//EN"
 "http://www.w3.org/Graphics/SVG/1.1/DTD/svg11.dtd">
<!-- Generated by graphviz version 2.48.0 (20210717.2242)
 -->
<!-- Title: snakemake_dag Pages: 1 -->
<svg width="828pt" height="620pt"
 viewBox="0.00 0.00 827.51 620.00" xmlns="http://www.w3.org/2000/svg" xmlns:xlink="http://www.w3.org/1999/xlink">
<g id="graph0" class="graph" transform="scale(1 1) rotate(0) translate(4 616)">
<title>snakemake_dag</title>
<polygon fill="white" stroke="transparent" points="-4,4 -4,-616 823.51,-616 823.51,4 -4,4"/>
<!-- 0 -->
<g id="node1" class="node">
<title>0</title>
<path fill="none" stroke="#d85656" stroke-width="2" d="M443.51,-36C443.51,-36 413.51,-36 413.51,-36 407.51,-36 401.51,-30 401.51,-24 401.51,-24 401.51,-12 401.51,-12 401.51,-6 407.51,0 413.51,0 413.51,0 443.51,0 443.51,0 449.51,0 455.51,-6 455.51,-12 455.51,-12 455.51,-24 455.51,-24 455.51,-30 449.51,-36 443.51,-36"/>
<text text-anchor="middle" x="428.51" y="-15.5" font-family="sans" font-size="10.00">all</text>
</g>
<!-- 1 -->
<g id="node2" class="node">
<title>1</title>
<path fill="none" stroke="#56a9d8" stroke-width="2" d="M421.51,-252C421.51,-252 377.51,-252 377.51,-252 371.51,-252 365.51,-246 365.51,-240 365.51,-240 365.51,-228 365.51,-228 365.51,-222 371.51,-216 377.51,-216 377.51,-216 421.51,-216 421.51,-216 427.51,-216 433.51,-222 433.51,-228 433.51,-228 433.51,-240 433.51,-240 433.51,-246 427.51,-252 421.51,-252"/>
<text text-anchor="middle" x="399.51" y="-231.5" font-family="sans" font-size="10.00">antismash</text>
</g>
<!-- 1&#45;&gt;0 -->
<g id="edge1" class="edge">
<title>1&#45;&gt;0</title>
<path fill="none" stroke="grey" stroke-width="2" d="M433.74,-226.08C458.66,-219.06 490.72,-205.45 506.51,-180 535.17,-133.83 488.22,-75.56 455.62,-43.3"/>
<polygon fill="grey" stroke="grey" stroke-width="2" points="457.74,-40.48 448.11,-36.06 452.88,-45.52 457.74,-40.48"/>
</g>
<!-- 13 -->
<g id="node14" class="node">
<title>13</title>
<path fill="none" stroke="#5692d8" stroke-width="2" d="M358.01,-108C358.01,-108 263.01,-108 263.01,-108 257.01,-108 251.01,-102 251.01,-96 251.01,-96 251.01,-84 251.01,-84 251.01,-78 257.01,-72 263.01,-72 263.01,-72 358.01,-72 358.01,-72 364.01,-72 370.01,-78 370.01,-84 370.01,-84 370.01,-96 370.01,-96 370.01,-102 364.01,-108 358.01,-108"/>
<text text-anchor="middle" x="310.51" y="-87.5" font-family="sans" font-size="10.00">antismash_summary</text>
</g>
<!-- 1&#45;&gt;13 -->
<g id="edge29" class="edge">
<title>1&#45;&gt;13</title>
<path fill="none" stroke="grey" stroke-width="2" d="M365.26,-230.78C331.76,-226.58 282.41,-214.51 258.51,-180 243.85,-158.83 262.1,-133.34 280.9,-115.07"/>
<polygon fill="grey" stroke="grey" stroke-width="2" points="283.36,-117.56 288.34,-108.21 278.61,-112.42 283.36,-117.56"/>
</g>
<!-- 17 -->
<g id="node18" class="node">
<title>17</title>
<path fill="none" stroke="#d8bc56" stroke-width="2" d="M485.51,-180C485.51,-180 393.51,-180 393.51,-180 387.51,-180 381.51,-174 381.51,-168 381.51,-168 381.51,-156 381.51,-156 381.51,-150 387.51,-144 393.51,-144 393.51,-144 485.51,-144 485.51,-144 491.51,-144 497.51,-150 497.51,-156 497.51,-156 497.51,-168 497.51,-168 497.51,-174 491.51,-180 485.51,-180"/>
<text text-anchor="middle" x="439.51" y="-159.5" font-family="sans" font-size="10.00">get_bigscape_inputs</text>
</g>
<!-- 1&#45;&gt;17 -->
<g id="edge32" class="edge">
<title>1&#45;&gt;17</title>
<path fill="none" stroke="grey" stroke-width="2" d="M409.4,-215.7C414,-207.64 419.57,-197.89 424.67,-188.98"/>
<polygon fill="grey" stroke="grey" stroke-width="2" points="427.82,-190.52 429.74,-180.1 421.74,-187.05 427.82,-190.52"/>
</g>
<!-- 2 -->
<g id="node3" class="node">
<title>2</title>
<path fill="none" stroke="#566bd8" stroke-width="2" d="M283.01,-324C283.01,-324 234.01,-324 234.01,-324 228.01,-324 222.01,-318 222.01,-312 222.01,-312 222.01,-300 222.01,-300 222.01,-294 228.01,-288 234.01,-288 234.01,-288 283.01,-288 283.01,-288 289.01,-288 295.01,-294 295.01,-300 295.01,-300 295.01,-312 295.01,-312 295.01,-318 289.01,-324 283.01,-324"/>
<text text-anchor="middle" x="258.51" y="-303.5" font-family="sans" font-size="10.00">format_gbk</text>
</g>
<!-- 2&#45;&gt;0 -->
<g id="edge9" class="edge">
<title>2&#45;&gt;0</title>
<path fill="none" stroke="grey" stroke-width="2" d="M250.38,-287.93C231.84,-246.24 191.74,-137.84 241.51,-72 259.56,-48.13 342.38,-31.89 391.54,-24.17"/>
<polygon fill="grey" stroke="grey" stroke-width="2" points="392.13,-27.62 401.49,-22.65 391.08,-20.7 392.13,-27.62"/>
</g>
<!-- 2&#45;&gt;1 -->
<g id="edge12" class="edge">
<title>2&#45;&gt;1</title>
<path fill="none" stroke="grey" stroke-width="2" d="M293.01,-287.88C312.09,-278.4 336,-266.53 356.32,-256.44"/>
<polygon fill="grey" stroke="grey" stroke-width="2" points="357.98,-259.53 365.38,-251.95 354.86,-253.26 357.98,-259.53"/>
</g>
<!-- 3 -->
<g id="node4" class="node">
<title>3</title>
<path fill="none" stroke="#9fd856" stroke-width="2" d="M221.51,-468C221.51,-468 191.51,-468 191.51,-468 185.51,-468 179.51,-462 179.51,-456 179.51,-456 179.51,-444 179.51,-444 179.51,-438 185.51,-432 191.51,-432 191.51,-432 221.51,-432 221.51,-432 227.51,-432 233.51,-438 233.51,-444 233.51,-444 233.51,-456 233.51,-456 233.51,-462 227.51,-468 221.51,-468"/>
<text text-anchor="middle" x="206.51" y="-447.5" font-family="sans" font-size="10.00">prokka</text>
</g>
<!-- 3&#45;&gt;2 -->
<g id="edge14" class="edge">
<title>3&#45;&gt;2</title>
<path fill="none" stroke="grey" stroke-width="2" d="M212.79,-431.87C221.73,-407.46 238.22,-362.43 248.76,-333.64"/>
<polygon fill="grey" stroke="grey" stroke-width="2" points="252.07,-334.78 252.22,-324.19 245.49,-332.38 252.07,-334.78"/>
</g>
<!-- 21 -->
<g id="node22" class="node">
<title>21</title>
<path fill="none" stroke="#56c1d8" stroke-width="2" d="M140.51,-396C140.51,-396 110.51,-396 110.51,-396 104.51,-396 98.51,-390 98.51,-384 98.51,-384 98.51,-372 98.51,-372 98.51,-366 104.51,-360 110.51,-360 110.51,-360 140.51,-360 140.51,-360 146.51,-360 152.51,-366 152.51,-372 152.51,-372 152.51,-384 152.51,-384 152.51,-390 146.51,-396 140.51,-396"/>
<text text-anchor="middle" x="125.51" y="-375.5" font-family="sans" font-size="10.00">eggnog</text>
</g>
<!-- 3&#45;&gt;21 -->
<g id="edge42" class="edge">
<title>3&#45;&gt;21</title>
<path fill="none" stroke="grey" stroke-width="2" d="M186.49,-431.7C176.39,-422.97 163.98,-412.24 153,-402.75"/>
<polygon fill="grey" stroke="grey" stroke-width="2" points="155.16,-399.99 145.31,-396.1 150.58,-405.29 155.16,-399.99"/>
</g>
<!-- 4 -->
<g id="node5" class="node">
<title>4</title>
<path fill="none" stroke="#56d8b1" stroke-width="2" d="M301.51,-612C301.51,-612 191.51,-612 191.51,-612 185.51,-612 179.51,-606 179.51,-600 179.51,-600 179.51,-588 179.51,-588 179.51,-582 185.51,-576 191.51,-576 191.51,-576 301.51,-576 301.51,-576 307.51,-576 313.51,-582 313.51,-588 313.51,-588 313.51,-600 313.51,-600 313.51,-606 307.51,-612 301.51,-612"/>
<text text-anchor="middle" x="246.51" y="-591.5" font-family="sans" font-size="10.00">ncbi_genome_download</text>
</g>
<!-- 4&#45;&gt;3 -->
<g id="edge19" class="edge">
<title>4&#45;&gt;3</title>
<path fill="none" stroke="grey" stroke-width="2" d="M179.28,-587.35C116.28,-580.5 28.73,-566.43 7.51,-540 -2.5,-527.52 -2.51,-516.47 7.51,-504 52.07,-448.53 96.51,-488.4 169.71,-467.65"/>
<polygon fill="grey" stroke="grey" stroke-width="2" points="170.77,-470.98 179.26,-464.64 168.67,-464.31 170.77,-470.98"/>
</g>
<!-- 5 -->
<g id="node6" class="node">
<title>5</title>
<path fill="none" stroke="#78d856" stroke-width="2" d="M126.01,-540C126.01,-540 29.01,-540 29.01,-540 23.01,-540 17.01,-534 17.01,-528 17.01,-528 17.01,-516 17.01,-516 17.01,-510 23.01,-504 29.01,-504 29.01,-504 126.01,-504 126.01,-504 132.01,-504 138.01,-510 138.01,-516 138.01,-516 138.01,-528 138.01,-528 138.01,-534 132.01,-540 126.01,-540"/>
<text text-anchor="middle" x="77.51" y="-519.5" font-family="sans" font-size="10.00">extract_meta_prokka</text>
</g>
<!-- 4&#45;&gt;5 -->
<g id="edge22" class="edge">
<title>4&#45;&gt;5</title>
<path fill="none" stroke="grey" stroke-width="2" d="M205.17,-575.88C181.97,-566.26 152.82,-554.19 128.24,-544.01"/>
<polygon fill="grey" stroke="grey" stroke-width="2" points="129.3,-540.66 118.72,-540.07 126.62,-547.13 129.3,-540.66"/>
</g>
<!-- 11 -->
<g id="node12" class="node">
<title>11</title>
<path fill="none" stroke="#56d8a2" stroke-width="2" d="M457.01,-540C457.01,-540 416.01,-540 416.01,-540 410.01,-540 404.01,-534 404.01,-528 404.01,-528 404.01,-516 404.01,-516 404.01,-510 410.01,-504 416.01,-504 416.01,-504 457.01,-504 457.01,-504 463.01,-504 469.01,-510 469.01,-516 469.01,-516 469.01,-528 469.01,-528 469.01,-534 463.01,-540 457.01,-540"/>
<text text-anchor="middle" x="436.51" y="-519.5" font-family="sans" font-size="10.00">gtdb_prep</text>
</g>
<!-- 4&#45;&gt;11 -->
<g id="edge27" class="edge">
<title>4&#45;&gt;11</title>
<path fill="none" stroke="grey" stroke-width="2" d="M295.69,-575.95C324.58,-565.8 361.74,-552.49 394.51,-540 394.61,-539.96 394.71,-539.93 394.8,-539.89"/>
<polygon fill="grey" stroke="grey" stroke-width="2" points="395.95,-543.2 404.01,-536.31 393.42,-536.67 395.95,-543.2"/>
</g>
<!-- 18 -->
<g id="node19" class="node">
<title>18</title>
<path fill="none" stroke="#c6d856" stroke-width="2" d="M529.51,-540C529.51,-540 499.51,-540 499.51,-540 493.51,-540 487.51,-534 487.51,-528 487.51,-528 487.51,-516 487.51,-516 487.51,-510 493.51,-504 499.51,-504 499.51,-504 529.51,-504 529.51,-504 535.51,-504 541.51,-510 541.51,-516 541.51,-516 541.51,-528 541.51,-528 541.51,-534 535.51,-540 529.51,-540"/>
<text text-anchor="middle" x="514.51" y="-519.5" font-family="sans" font-size="10.00">mlst</text>
</g>
<!-- 4&#45;&gt;18 -->
<g id="edge34" class="edge">
<title>4&#45;&gt;18</title>
<path fill="none" stroke="grey" stroke-width="2" d="M313.58,-577.96C378.94,-563.26 469.61,-542.69 477.51,-540 477.61,-539.97 477.71,-539.93 477.81,-539.9"/>
<polygon fill="grey" stroke="grey" stroke-width="2" points="479.2,-543.11 487.29,-536.27 476.7,-536.58 479.2,-543.11"/>
</g>
<!-- 19 -->
<g id="node20" class="node">
<title>19</title>
<path fill="none" stroke="#d89556" stroke-width="2" d="M637.01,-540C637.01,-540 572.01,-540 572.01,-540 566.01,-540 560.01,-534 560.01,-528 560.01,-528 560.01,-516 560.01,-516 560.01,-510 566.01,-504 572.01,-504 572.01,-504 637.01,-504 637.01,-504 643.01,-504 649.01,-510 649.01,-516 649.01,-516 649.01,-528 649.01,-528 649.01,-534 643.01,-540 637.01,-540"/>
<text text-anchor="middle" x="604.51" y="-519.5" font-family="sans" font-size="10.00">refseq_masher</text>
</g>
<!-- 4&#45;&gt;19 -->
<g id="edge37" class="edge">
<title>4&#45;&gt;19</title>
<path fill="none" stroke="grey" stroke-width="2" d="M313.6,-577.75C316.61,-577.14 319.59,-576.56 322.51,-576 420.14,-557.39 448.86,-563.08 549.86,-539.95"/>
<polygon fill="grey" stroke="grey" stroke-width="2" points="550.92,-543.29 559.87,-537.62 549.33,-536.48 550.92,-543.29"/>
</g>
<!-- 20 -->
<g id="node21" class="node">
<title>20</title>
<path fill="none" stroke="#d8ac56" stroke-width="2" d="M374.01,-540C374.01,-540 325.01,-540 325.01,-540 319.01,-540 313.01,-534 313.01,-528 313.01,-528 313.01,-516 313.01,-516 313.01,-510 319.01,-504 325.01,-504 325.01,-504 374.01,-504 374.01,-504 380.01,-504 386.01,-510 386.01,-516 386.01,-516 386.01,-528 386.01,-528 386.01,-534 380.01,-540 374.01,-540"/>
<text text-anchor="middle" x="349.51" y="-519.5" font-family="sans" font-size="10.00">seqfu_stats</text>
</g>
<!-- 4&#45;&gt;20 -->
<g id="edge40" class="edge">
<title>4&#45;&gt;20</title>
<path fill="none" stroke="grey" stroke-width="2" d="M271.71,-575.88C284.93,-566.89 301.31,-555.76 315.62,-546.03"/>
<polygon fill="grey" stroke="grey" stroke-width="2" points="317.92,-548.71 324.22,-540.19 313.98,-542.92 317.92,-548.71"/>
</g>
<!-- 5&#45;&gt;0 -->
<g id="edge10" class="edge">
<title>5&#45;&gt;0</title>
<path fill="none" stroke="grey" stroke-width="2" d="M71.04,-503.79C61.69,-477.36 45.51,-424.99 45.51,-379 45.51,-379 45.51,-379 45.51,-161 45.51,-108.4 77.65,-97.75 123.51,-72 168.87,-46.53 320,-29.28 391.03,-22.38"/>
<polygon fill="grey" stroke="grey" stroke-width="2" points="391.69,-25.83 401.31,-21.39 391.02,-18.86 391.69,-25.83"/>
</g>
<!-- 5&#45;&gt;3 -->
<g id="edge20" class="edge">
<title>5&#45;&gt;3</title>
<path fill="none" stroke="grey" stroke-width="2" d="M109.07,-503.88C127.62,-493.81 151.13,-481.05 170.41,-470.59"/>
<polygon fill="grey" stroke="grey" stroke-width="2" points="172.09,-473.66 179.21,-465.81 168.76,-467.51 172.09,-473.66"/>
</g>
<!-- 6 -->
<g id="node7" class="node">
<title>6</title>
<path fill="none" stroke="#5682d8" stroke-width="2" d="M461.51,-612C461.51,-612 343.51,-612 343.51,-612 337.51,-612 331.51,-606 331.51,-600 331.51,-600 331.51,-588 331.51,-588 331.51,-582 337.51,-576 343.51,-576 343.51,-576 461.51,-576 461.51,-576 467.51,-576 473.51,-582 473.51,-588 473.51,-588 473.51,-600 473.51,-600 473.51,-606 467.51,-612 461.51,-612"/>
<text text-anchor="middle" x="402.51" y="-591.5" font-family="sans" font-size="10.00">patric_genome_download</text>
</g>
<!-- 6&#45;&gt;3 -->
<g id="edge18" class="edge">
<title>6&#45;&gt;3</title>
<path fill="none" stroke="grey" stroke-width="2" d="M364.92,-575.84C345.81,-566.4 322.64,-553.8 303.51,-540 284.65,-526.39 282.61,-519.77 265.51,-504 255.13,-494.42 243.6,-484.01 233.5,-474.97"/>
<polygon fill="grey" stroke="grey" stroke-width="2" points="235.55,-472.11 225.76,-468.06 230.89,-477.33 235.55,-472.11"/>
</g>
<!-- 6&#45;&gt;5 -->
<g id="edge23" class="edge">
<title>6&#45;&gt;5</title>
<path fill="none" stroke="grey" stroke-width="2" d="M331.42,-577.87C328.41,-577.23 325.43,-576.61 322.51,-576 247.82,-560.38 226.63,-557.58 148.06,-540.08"/>
<polygon fill="grey" stroke="grey" stroke-width="2" points="148.71,-536.64 138.19,-537.87 147.18,-543.47 148.71,-536.64"/>
</g>
<!-- 6&#45;&gt;11 -->
<g id="edge28" class="edge">
<title>6&#45;&gt;11</title>
<path fill="none" stroke="grey" stroke-width="2" d="M410.92,-575.7C414.79,-567.73 419.46,-558.1 423.76,-549.26"/>
<polygon fill="grey" stroke="grey" stroke-width="2" points="426.98,-550.63 428.21,-540.1 420.69,-547.57 426.98,-550.63"/>
</g>
<!-- 6&#45;&gt;18 -->
<g id="edge35" class="edge">
<title>6&#45;&gt;18</title>
<path fill="none" stroke="grey" stroke-width="2" d="M429.91,-575.88C444.66,-566.66 463.04,-555.17 478.89,-545.26"/>
<polygon fill="grey" stroke="grey" stroke-width="2" points="480.77,-548.22 487.4,-539.95 477.06,-542.28 480.77,-548.22"/>
</g>
<!-- 6&#45;&gt;19 -->
<g id="edge38" class="edge">
<title>6&#45;&gt;19</title>
<path fill="none" stroke="grey" stroke-width="2" d="M451.67,-575.97C481.49,-565.63 519.59,-552.43 550.28,-541.79"/>
<polygon fill="grey" stroke="grey" stroke-width="2" points="551.67,-545.02 559.97,-538.44 549.38,-538.4 551.67,-545.02"/>
</g>
<!-- 6&#45;&gt;20 -->
<g id="edge41" class="edge">
<title>6&#45;&gt;20</title>
<path fill="none" stroke="grey" stroke-width="2" d="M389.41,-575.7C383.12,-567.39 375.47,-557.28 368.55,-548.14"/>
<polygon fill="grey" stroke="grey" stroke-width="2" points="371.29,-545.96 362.46,-540.1 365.71,-550.19 371.29,-545.96"/>
</g>
<!-- 7 -->
<g id="node8" class="node">
<title>7</title>
<path fill="none" stroke="#b6d856" stroke-width="2" d="M591.01,-612C591.01,-612 504.01,-612 504.01,-612 498.01,-612 492.01,-606 492.01,-600 492.01,-600 492.01,-588 492.01,-588 492.01,-582 498.01,-576 504.01,-576 504.01,-576 591.01,-576 591.01,-576 597.01,-576 603.01,-582 603.01,-588 603.01,-588 603.01,-600 603.01,-600 603.01,-606 597.01,-612 591.01,-612"/>
<text text-anchor="middle" x="547.51" y="-591.5" font-family="sans" font-size="10.00">copy_custom_fasta</text>
</g>
<!-- 7&#45;&gt;3 -->
<g id="edge16" class="edge">
<title>7&#45;&gt;3</title>
<path fill="none" stroke="grey" stroke-width="2" d="M603.09,-579.78C623.85,-571.85 645.33,-559.39 657.51,-540 666.02,-526.45 668.15,-515.96 657.51,-504 654.07,-500.13 351.38,-466.79 243.88,-455.06"/>
<polygon fill="grey" stroke="grey" stroke-width="2" points="244.13,-451.57 233.8,-453.96 243.37,-458.53 244.13,-451.57"/>
</g>
<!-- 7&#45;&gt;5 -->
<g id="edge21" class="edge">
<title>7&#45;&gt;5</title>
<path fill="none" stroke="grey" stroke-width="2" d="M491.97,-577.89C488.78,-577.21 485.61,-576.57 482.51,-576 338.39,-549.56 296.81,-565.03 148.07,-539.94"/>
<polygon fill="grey" stroke="grey" stroke-width="2" points="148.57,-536.48 138.12,-538.23 147.38,-543.38 148.57,-536.48"/>
</g>
<!-- 7&#45;&gt;11 -->
<g id="edge26" class="edge">
<title>7&#45;&gt;11</title>
<path fill="none" stroke="grey" stroke-width="2" d="M520.36,-575.88C505.98,-566.81 488.13,-555.55 472.6,-545.76"/>
<polygon fill="grey" stroke="grey" stroke-width="2" points="474.1,-542.56 463.77,-540.19 470.36,-548.48 474.1,-542.56"/>
</g>
<!-- 7&#45;&gt;18 -->
<g id="edge33" class="edge">
<title>7&#45;&gt;18</title>
<path fill="none" stroke="grey" stroke-width="2" d="M539.36,-575.7C535.6,-567.73 531.06,-558.1 526.89,-549.26"/>
<polygon fill="grey" stroke="grey" stroke-width="2" points="530.01,-547.66 522.58,-540.1 523.68,-550.64 530.01,-547.66"/>
</g>
<!-- 7&#45;&gt;19 -->
<g id="edge36" class="edge">
<title>7&#45;&gt;19</title>
<path fill="none" stroke="grey" stroke-width="2" d="M561.6,-575.7C568.44,-567.3 576.77,-557.07 584.27,-547.86"/>
<polygon fill="grey" stroke="grey" stroke-width="2" points="586.99,-550.07 590.59,-540.1 581.56,-545.65 586.99,-550.07"/>
</g>
<!-- 7&#45;&gt;20 -->
<g id="edge39" class="edge">
<title>7&#45;&gt;20</title>
<path fill="none" stroke="grey" stroke-width="2" d="M497.08,-575.92C469.53,-566.5 434.59,-554.41 396.16,-540.56"/>
<polygon fill="grey" stroke="grey" stroke-width="2" points="396.91,-537.11 386.32,-537 394.53,-543.69 396.91,-537.11"/>
</g>
<!-- 8 -->
<g id="node9" class="node">
<title>8</title>
<path fill="none" stroke="#61d856" stroke-width="2" d="M244.51,-540C244.51,-540 168.51,-540 168.51,-540 162.51,-540 156.51,-534 156.51,-528 156.51,-528 156.51,-516 156.51,-516 156.51,-510 162.51,-504 168.51,-504 168.51,-504 244.51,-504 244.51,-504 250.51,-504 256.51,-510 256.51,-516 256.51,-516 256.51,-528 256.51,-528 256.51,-534 250.51,-540 244.51,-540"/>
<text text-anchor="middle" x="206.51" y="-519.5" font-family="sans" font-size="10.00">prokka_db_setup</text>
</g>
<!-- 8&#45;&gt;3 -->
<g id="edge17" class="edge">
<title>8&#45;&gt;3</title>
<path fill="none" stroke="grey" stroke-width="2" d="M206.51,-503.7C206.51,-495.98 206.51,-486.71 206.51,-478.11"/>
<polygon fill="grey" stroke="grey" stroke-width="2" points="210.01,-478.1 206.51,-468.1 203.01,-478.1 210.01,-478.1"/>
</g>
<!-- 9 -->
<g id="node10" class="node">
<title>9</title>
<path fill="none" stroke="#d86e56" stroke-width="2" d="M480.01,-396C480.01,-396 393.01,-396 393.01,-396 387.01,-396 381.01,-390 381.01,-384 381.01,-384 381.01,-372 381.01,-372 381.01,-366 387.01,-360 393.01,-360 393.01,-360 480.01,-360 480.01,-360 486.01,-360 492.01,-366 492.01,-372 492.01,-372 492.01,-384 492.01,-384 492.01,-390 486.01,-396 480.01,-396"/>
<text text-anchor="middle" x="436.51" y="-375.5" font-family="sans" font-size="10.00">fix_gtdb_taxonomy</text>
</g>
<!-- 9&#45;&gt;0 -->
<g id="edge2" class="edge">
<title>9&#45;&gt;0</title>
<path fill="none" stroke="grey" stroke-width="2" d="M467.91,-359.94C505.51,-336.95 563.51,-292.22 563.51,-235 563.51,-235 563.51,-235 563.51,-161 563.51,-103.57 504.79,-60.12 464.8,-37.2"/>
<polygon fill="grey" stroke="grey" stroke-width="2" points="466.27,-34.01 455.83,-32.22 462.87,-40.13 466.27,-34.01"/>
</g>
<!-- 9&#45;&gt;2 -->
<g id="edge15" class="edge">
<title>9&#45;&gt;2</title>
<path fill="none" stroke="grey" stroke-width="2" d="M392.97,-359.88C366.18,-349.34 331.87,-335.85 304.62,-325.13"/>
<polygon fill="grey" stroke="grey" stroke-width="2" points="305.89,-321.87 295.3,-321.47 303.32,-328.38 305.89,-321.87"/>
</g>
<!-- 10 -->
<g id="node11" class="node">
<title>10</title>
<path fill="none" stroke="#88d856" stroke-width="2" d="M486.01,-468C486.01,-468 387.01,-468 387.01,-468 381.01,-468 375.01,-462 375.01,-456 375.01,-456 375.01,-444 375.01,-444 375.01,-438 381.01,-432 387.01,-432 387.01,-432 486.01,-432 486.01,-432 492.01,-432 498.01,-438 498.01,-444 498.01,-444 498.01,-456 498.01,-456 498.01,-462 492.01,-468 486.01,-468"/>
<text text-anchor="middle" x="436.51" y="-447.5" font-family="sans" font-size="10.00">fetch_gtdb_taxonomy</text>
</g>
<!-- 10&#45;&gt;9 -->
<g id="edge24" class="edge">
<title>10&#45;&gt;9</title>
<path fill="none" stroke="grey" stroke-width="2" d="M436.51,-431.7C436.51,-423.98 436.51,-414.71 436.51,-406.11"/>
<polygon fill="grey" stroke="grey" stroke-width="2" points="440.01,-406.1 436.51,-396.1 433.01,-406.1 440.01,-406.1"/>
</g>
<!-- 11&#45;&gt;10 -->
<g id="edge25" class="edge">
<title>11&#45;&gt;10</title>
<path fill="none" stroke="grey" stroke-width="2" d="M436.51,-503.7C436.51,-495.98 436.51,-486.71 436.51,-478.11"/>
<polygon fill="grey" stroke="grey" stroke-width="2" points="440.01,-478.1 436.51,-468.1 433.01,-478.1 440.01,-478.1"/>
</g>
<!-- 12 -->
<g id="node13" class="node">
<title>12</title>
<path fill="none" stroke="#56d88a" stroke-width="2" d="M446.01,-324C446.01,-324 353.01,-324 353.01,-324 347.01,-324 341.01,-318 341.01,-312 341.01,-312 341.01,-300 341.01,-300 341.01,-294 347.01,-288 353.01,-288 353.01,-288 446.01,-288 446.01,-288 452.01,-288 458.01,-294 458.01,-300 458.01,-300 458.01,-312 458.01,-312 458.01,-318 452.01,-324 446.01,-324"/>
<text text-anchor="middle" x="399.51" y="-303.5" font-family="sans" font-size="10.00">antismash_db_setup</text>
</g>
<!-- 12&#45;&gt;1 -->
<g id="edge13" class="edge">
<title>12&#45;&gt;1</title>
<path fill="none" stroke="grey" stroke-width="2" d="M399.51,-287.7C399.51,-279.98 399.51,-270.71 399.51,-262.11"/>
<polygon fill="grey" stroke="grey" stroke-width="2" points="403.01,-262.1 399.51,-252.1 396.01,-262.1 403.01,-262.1"/>
</g>
<!-- 13&#45;&gt;0 -->
<g id="edge6" class="edge">
<title>13&#45;&gt;0</title>
<path fill="none" stroke="grey" stroke-width="2" d="M339.38,-71.88C355.27,-62.45 375.14,-50.66 392.09,-40.61"/>
<polygon fill="grey" stroke="grey" stroke-width="2" points="394.35,-43.34 401.16,-35.23 390.77,-37.32 394.35,-43.34"/>
</g>
<!-- 14 -->
<g id="node15" class="node">
<title>14</title>
<path fill="none" stroke="#56d0d8" stroke-width="2" d="M807.51,-108C807.51,-108 679.51,-108 679.51,-108 673.51,-108 667.51,-102 667.51,-96 667.51,-96 667.51,-84 667.51,-84 667.51,-78 673.51,-72 679.51,-72 679.51,-72 807.51,-72 807.51,-72 813.51,-72 819.51,-78 819.51,-84 819.51,-84 819.51,-96 819.51,-96 819.51,-102 813.51,-108 807.51,-108"/>
<text text-anchor="middle" x="743.51" y="-87.5" font-family="sans" font-size="10.00">write_dependency_versions</text>
</g>
<!-- 14&#45;&gt;0 -->
<g id="edge3" class="edge">
<title>14&#45;&gt;0</title>
<path fill="none" stroke="grey" stroke-width="2" d="M667.26,-72.05C603.34,-57.85 514.85,-38.19 465.52,-27.22"/>
<polygon fill="grey" stroke="grey" stroke-width="2" points="466.13,-23.77 455.61,-25.02 464.61,-30.61 466.13,-23.77"/>
</g>
<!-- 15 -->
<g id="node16" class="node">
<title>15</title>
<path fill="none" stroke="#56d8c9" stroke-width="2" d="M446.51,-108C446.51,-108 410.51,-108 410.51,-108 404.51,-108 398.51,-102 398.51,-96 398.51,-96 398.51,-84 398.51,-84 398.51,-78 404.51,-72 410.51,-72 410.51,-72 446.51,-72 446.51,-72 452.51,-72 458.51,-78 458.51,-84 458.51,-84 458.51,-96 458.51,-96 458.51,-102 452.51,-108 446.51,-108"/>
<text text-anchor="middle" x="428.51" y="-87.5" font-family="sans" font-size="10.00">bigscape</text>
</g>
<!-- 15&#45;&gt;0 -->
<g id="edge7" class="edge">
<title>15&#45;&gt;0</title>
<path fill="none" stroke="grey" stroke-width="2" d="M428.51,-71.7C428.51,-63.98 428.51,-54.71 428.51,-46.11"/>
<polygon fill="grey" stroke="grey" stroke-width="2" points="432.01,-46.1 428.51,-36.1 425.01,-46.1 432.01,-46.1"/>
</g>
<!-- 16 -->
<g id="node17" class="node">
<title>16</title>
<path fill="none" stroke="#d8d356" stroke-width="2" d="M351.01,-180C351.01,-180 280.01,-180 280.01,-180 274.01,-180 268.01,-174 268.01,-168 268.01,-168 268.01,-156 268.01,-156 268.01,-150 274.01,-144 280.01,-144 280.01,-144 351.01,-144 351.01,-144 357.01,-144 363.01,-150 363.01,-156 363.01,-156 363.01,-168 363.01,-168 363.01,-174 357.01,-180 351.01,-180"/>
<text text-anchor="middle" x="315.51" y="-159.5" font-family="sans" font-size="10.00">install_bigscape</text>
</g>
<!-- 16&#45;&gt;15 -->
<g id="edge31" class="edge">
<title>16&#45;&gt;15</title>
<path fill="none" stroke="grey" stroke-width="2" d="M343.16,-143.88C357.93,-134.72 376.3,-123.34 392.22,-113.48"/>
<polygon fill="grey" stroke="grey" stroke-width="2" points="394.11,-116.43 400.76,-108.19 390.42,-110.48 394.11,-116.43"/>
</g>
<!-- 17&#45;&gt;15 -->
<g id="edge30" class="edge">
<title>17&#45;&gt;15</title>
<path fill="none" stroke="grey" stroke-width="2" d="M436.79,-143.7C435.58,-135.98 434.13,-126.71 432.77,-118.11"/>
<polygon fill="grey" stroke="grey" stroke-width="2" points="436.21,-117.44 431.2,-108.1 429.3,-118.53 436.21,-117.44"/>
</g>
<!-- 18&#45;&gt;0 -->
<g id="edge8" class="edge">
<title>18&#45;&gt;0</title>
<path fill="none" stroke="grey" stroke-width="2" d="M533.82,-503.82C559.45,-479.01 601.51,-430.46 601.51,-379 601.51,-379 601.51,-379 601.51,-161 601.51,-91.06 515.98,-49.27 465.2,-30.62"/>
<polygon fill="grey" stroke="grey" stroke-width="2" points="466.14,-27.24 455.54,-27.2 463.8,-33.84 466.14,-27.24"/>
</g>
<!-- 19&#45;&gt;0 -->
<g id="edge4" class="edge">
<title>19&#45;&gt;0</title>
<path fill="none" stroke="grey" stroke-width="2" d="M611.6,-503.85C621.82,-477.49 639.51,-425.21 639.51,-379 639.51,-379 639.51,-379 639.51,-161 639.51,-78.15 526.15,-40.46 465.61,-26.24"/>
<polygon fill="grey" stroke="grey" stroke-width="2" points="466.19,-22.79 455.67,-24.01 464.65,-29.62 466.19,-22.79"/>
</g>
<!-- 20&#45;&gt;0 -->
<g id="edge5" class="edge">
<title>20&#45;&gt;0</title>
<path fill="none" stroke="grey" stroke-width="2" d="M331.86,-503.78C300.53,-471.84 236.26,-399.73 212.51,-324 178.98,-217.06 148,-156.59 221.51,-72 243.53,-46.67 337.83,-30.67 391.24,-23.46"/>
<polygon fill="grey" stroke="grey" stroke-width="2" points="391.88,-26.91 401.34,-22.14 390.97,-19.97 391.88,-26.91"/>
</g>
<!-- 21&#45;&gt;0 -->
<g id="edge11" class="edge">
<title>21&#45;&gt;0</title>
<path fill="none" stroke="grey" stroke-width="2" d="M125.51,-359.95C125.51,-333.29 125.51,-280.11 125.51,-235 125.51,-235 125.51,-235 125.51,-161 125.51,-120.03 119.47,-99.85 149.51,-72 184.18,-39.86 323.43,-26.14 391.15,-21.27"/>
<polygon fill="grey" stroke="grey" stroke-width="2" points="391.65,-24.74 401.38,-20.56 391.17,-17.76 391.65,-24.74"/>
</g>
<!-- 22 -->
<g id="node23" class="node">
<title>22</title>
<path fill="none" stroke="#56d863" stroke-width="2" d="M149.51,-468C149.51,-468 85.51,-468 85.51,-468 79.51,-468 73.51,-462 73.51,-456 73.51,-456 73.51,-444 73.51,-444 73.51,-438 79.51,-432 85.51,-432 85.51,-432 149.51,-432 149.51,-432 155.51,-432 161.51,-438 161.51,-444 161.51,-444 161.51,-456 161.51,-456 161.51,-462 155.51,-468 149.51,-468"/>
<text text-anchor="middle" x="117.51" y="-447.5" font-family="sans" font-size="10.00">install_eggnog</text>
</g>
<!-- 22&#45;&gt;21 -->
<g id="edge43" class="edge">
<title>22&#45;&gt;21</title>
<path fill="none" stroke="grey" stroke-width="2" d="M119.49,-431.7C120.37,-423.98 121.43,-414.71 122.41,-406.11"/>
<polygon fill="grey" stroke="grey" stroke-width="2" points="125.9,-406.44 123.56,-396.1 118.95,-405.64 125.9,-406.44"/>
</g>
</g>
</svg>
