<?xml version="1.0" encoding="UTF-8" standalone="no"?>
<!DOCTYPE svg PUBLIC "-//W3C//DTD SVG 1.1//EN"
 "http://www.w3.org/Graphics/SVG/1.1/DTD/svg11.dtd">
<!-- Generated by graphviz version 2.50.0 (20211209.0339)
 -->
<!-- Title: snakemake_dag Pages: 1 -->
<svg width="1189pt" height="548pt"
 viewBox="0.00 0.00 1189.28 548.00" xmlns="http://www.w3.org/2000/svg" xmlns:xlink="http://www.w3.org/1999/xlink">
<g id="graph0" class="graph" transform="scale(1 1) rotate(0) translate(4 544)">
<title>snakemake_dag</title>
<polygon fill="white" stroke="transparent" points="-4,4 -4,-544 1185.28,-544 1185.28,4 -4,4"/>
<!-- 0 -->
<g id="node1" class="node">
<title>0</title>
<path fill="none" stroke="#88d856" stroke-width="2" d="M769.28,-36C769.28,-36 739.28,-36 739.28,-36 733.28,-36 727.28,-30 727.28,-24 727.28,-24 727.28,-12 727.28,-12 727.28,-6 733.28,0 739.28,0 739.28,0 769.28,0 769.28,0 775.28,0 781.28,-6 781.28,-12 781.28,-12 781.28,-24 781.28,-24 781.28,-30 775.28,-36 769.28,-36"/>
<text text-anchor="middle" x="754.28" y="-15.5" font-family="sans" font-size="10.00">all</text>
</g>
<!-- 1 -->
<g id="node2" class="node">
<title>1</title>
<path fill="none" stroke="#68d856" stroke-width="2" d="M495.28,-108C495.28,-108 403.28,-108 403.28,-108 397.28,-108 391.28,-102 391.28,-96 391.28,-96 391.28,-84 391.28,-84 391.28,-78 397.28,-72 403.28,-72 403.28,-72 495.28,-72 495.28,-72 501.28,-72 507.28,-78 507.28,-84 507.28,-84 507.28,-96 507.28,-96 507.28,-102 501.28,-108 495.28,-108"/>
<text text-anchor="middle" x="449.28" y="-87.5" font-family="sans" font-size="10.00">copy_antismash_zip</text>
</g>
<!-- 1&#45;&gt;0 -->
<g id="edge16" class="edge">
<title>1&#45;&gt;0</title>
<path fill="none" stroke="grey" stroke-width="2" d="M507.36,-74.15C510.38,-73.42 513.37,-72.7 516.28,-72 587.11,-55.13 670.2,-37.01 717.1,-26.93"/>
<polygon fill="grey" stroke="grey" stroke-width="2" points="718.06,-30.3 727.1,-24.78 716.59,-23.46 718.06,-30.3"/>
</g>
<!-- 2 -->
<g id="node3" class="node">
<title>2</title>
<path fill="none" stroke="#d86656" stroke-width="2" d="M397.28,-252C397.28,-252 353.28,-252 353.28,-252 347.28,-252 341.28,-246 341.28,-240 341.28,-240 341.28,-228 341.28,-228 341.28,-222 347.28,-216 353.28,-216 353.28,-216 397.28,-216 397.28,-216 403.28,-216 409.28,-222 409.28,-228 409.28,-228 409.28,-240 409.28,-240 409.28,-246 403.28,-252 397.28,-252"/>
<text text-anchor="middle" x="375.28" y="-231.5" font-family="sans" font-size="10.00">antismash</text>
</g>
<!-- 2&#45;&gt;1 -->
<g id="edge17" class="edge">
<title>2&#45;&gt;1</title>
<path fill="none" stroke="grey" stroke-width="2" d="M409.6,-222.26C448.98,-209.6 508.99,-189.11 515.28,-180 524.38,-166.83 522.2,-158.43 515.28,-144 509.62,-132.18 499.89,-122.17 489.62,-114.14"/>
<polygon fill="grey" stroke="grey" stroke-width="2" points="491.49,-111.16 481.34,-108.12 487.37,-116.83 491.49,-111.16"/>
</g>
<!-- 15 -->
<g id="node16" class="node">
<title>15</title>
<path fill="none" stroke="#5663d8" stroke-width="2" d="M632.78,-108C632.78,-108 537.78,-108 537.78,-108 531.78,-108 525.78,-102 525.78,-96 525.78,-96 525.78,-84 525.78,-84 525.78,-78 531.78,-72 537.78,-72 537.78,-72 632.78,-72 632.78,-72 638.78,-72 644.78,-78 644.78,-84 644.78,-84 644.78,-96 644.78,-96 644.78,-102 638.78,-108 632.78,-108"/>
<text text-anchor="middle" x="585.28" y="-87.5" font-family="sans" font-size="10.00">antismash_summary</text>
</g>
<!-- 2&#45;&gt;15 -->
<g id="edge34" class="edge">
<title>2&#45;&gt;15</title>
<path fill="none" stroke="grey" stroke-width="2" d="M409.41,-222.95C452.84,-209.95 523.44,-188.01 533.28,-180 553.36,-163.67 567.34,-137.4 575.71,-117.63"/>
<polygon fill="grey" stroke="grey" stroke-width="2" points="579.01,-118.82 579.48,-108.24 572.51,-116.22 579.01,-118.82"/>
</g>
<!-- 19 -->
<g id="node20" class="node">
<title>19</title>
<path fill="none" stroke="#56d8d0" stroke-width="2" d="M381.28,-180C381.28,-180 289.28,-180 289.28,-180 283.28,-180 277.28,-174 277.28,-168 277.28,-168 277.28,-156 277.28,-156 277.28,-150 283.28,-144 289.28,-144 289.28,-144 381.28,-144 381.28,-144 387.28,-144 393.28,-150 393.28,-156 393.28,-156 393.28,-168 393.28,-168 393.28,-174 387.28,-180 381.28,-180"/>
<text text-anchor="middle" x="335.28" y="-159.5" font-family="sans" font-size="10.00">get_bigscape_inputs</text>
</g>
<!-- 2&#45;&gt;19 -->
<g id="edge37" class="edge">
<title>2&#45;&gt;19</title>
<path fill="none" stroke="grey" stroke-width="2" d="M365.4,-215.7C360.8,-207.64 355.22,-197.89 350.13,-188.98"/>
<polygon fill="grey" stroke="grey" stroke-width="2" points="353.06,-187.05 345.06,-180.1 346.98,-190.52 353.06,-187.05"/>
</g>
<!-- 21 -->
<g id="node22" class="node">
<title>21</title>
<path fill="none" stroke="#56c1d8" stroke-width="2" d="M127.28,-180C127.28,-180 41.28,-180 41.28,-180 35.28,-180 29.28,-174 29.28,-168 29.28,-168 29.28,-156 29.28,-156 29.28,-150 35.28,-144 41.28,-144 41.28,-144 127.28,-144 127.28,-144 133.28,-144 139.28,-150 139.28,-156 139.28,-156 139.28,-168 139.28,-168 139.28,-174 133.28,-180 127.28,-180"/>
<text text-anchor="middle" x="84.28" y="-159.5" font-family="sans" font-size="10.00">get_bigslice_inputs</text>
</g>
<!-- 2&#45;&gt;21 -->
<g id="edge40" class="edge">
<title>2&#45;&gt;21</title>
<path fill="none" stroke="grey" stroke-width="2" d="M340.98,-225.33C298.37,-215.73 223.22,-198.55 149.35,-180.23"/>
<polygon fill="grey" stroke="grey" stroke-width="2" points="149.96,-176.78 139.42,-177.76 148.27,-183.57 149.96,-176.78"/>
</g>
<!-- 3 -->
<g id="node4" class="node">
<title>3</title>
<path fill="none" stroke="#d88556" stroke-width="2" d="M694.78,-324C694.78,-324 645.78,-324 645.78,-324 639.78,-324 633.78,-318 633.78,-312 633.78,-312 633.78,-300 633.78,-300 633.78,-294 639.78,-288 645.78,-288 645.78,-288 694.78,-288 694.78,-288 700.78,-288 706.78,-294 706.78,-300 706.78,-300 706.78,-312 706.78,-312 706.78,-318 700.78,-324 694.78,-324"/>
<text text-anchor="middle" x="670.28" y="-303.5" font-family="sans" font-size="10.00">format_gbk</text>
</g>
<!-- 3&#45;&gt;0 -->
<g id="edge6" class="edge">
<title>3&#45;&gt;0</title>
<path fill="none" stroke="grey" stroke-width="2" d="M706.89,-291.78C724.57,-283.32 744.13,-270.42 754.28,-252 790.89,-185.62 773.9,-91.56 762.17,-45.92"/>
<polygon fill="grey" stroke="grey" stroke-width="2" points="765.53,-44.93 759.55,-36.18 758.77,-46.74 765.53,-44.93"/>
</g>
<!-- 3&#45;&gt;2 -->
<g id="edge18" class="edge">
<title>3&#45;&gt;2</title>
<path fill="none" stroke="grey" stroke-width="2" d="M633.52,-296.28C579.17,-283.38 477.56,-259.27 419.31,-245.45"/>
<polygon fill="grey" stroke="grey" stroke-width="2" points="419.85,-241.98 409.31,-243.07 418.23,-248.79 419.85,-241.98"/>
</g>
<!-- 32 -->
<g id="node33" class="node">
<title>32</title>
<path fill="none" stroke="#bed856" stroke-width="2" d="M733.28,-252C733.28,-252 647.28,-252 647.28,-252 641.28,-252 635.28,-246 635.28,-240 635.28,-240 635.28,-228 635.28,-228 635.28,-222 641.28,-216 647.28,-216 647.28,-216 733.28,-216 733.28,-216 739.28,-216 745.28,-222 745.28,-228 745.28,-228 745.28,-240 745.28,-240 745.28,-246 739.28,-252 733.28,-252"/>
<text text-anchor="middle" x="690.28" y="-231.5" font-family="sans" font-size="10.00">prep_automlst_gbk</text>
</g>
<!-- 3&#45;&gt;32 -->
<g id="edge59" class="edge">
<title>3&#45;&gt;32</title>
<path fill="none" stroke="grey" stroke-width="2" d="M675.23,-287.7C677.46,-279.9 680.14,-270.51 682.62,-261.83"/>
<polygon fill="grey" stroke="grey" stroke-width="2" points="686.02,-262.68 685.4,-252.1 679.29,-260.76 686.02,-262.68"/>
</g>
<!-- 4 -->
<g id="node5" class="node">
<title>4</title>
<path fill="none" stroke="#d8b456" stroke-width="2" d="M741.28,-396C741.28,-396 711.28,-396 711.28,-396 705.28,-396 699.28,-390 699.28,-384 699.28,-384 699.28,-372 699.28,-372 699.28,-366 705.28,-360 711.28,-360 711.28,-360 741.28,-360 741.28,-360 747.28,-360 753.28,-366 753.28,-372 753.28,-372 753.28,-384 753.28,-384 753.28,-390 747.28,-396 741.28,-396"/>
<text text-anchor="middle" x="726.28" y="-375.5" font-family="sans" font-size="10.00">prokka</text>
</g>
<!-- 4&#45;&gt;3 -->
<g id="edge20" class="edge">
<title>4&#45;&gt;3</title>
<path fill="none" stroke="grey" stroke-width="2" d="M712.44,-359.7C705.8,-351.39 697.71,-341.28 690.4,-332.14"/>
<polygon fill="grey" stroke="grey" stroke-width="2" points="692.95,-329.73 683.97,-324.1 687.48,-334.1 692.95,-329.73"/>
</g>
<!-- 27 -->
<g id="node28" class="node">
<title>27</title>
<path fill="none" stroke="#56d882" stroke-width="2" d="M839.28,-324C839.28,-324 809.28,-324 809.28,-324 803.28,-324 797.28,-318 797.28,-312 797.28,-312 797.28,-300 797.28,-300 797.28,-294 803.28,-288 809.28,-288 809.28,-288 839.28,-288 839.28,-288 845.28,-288 851.28,-294 851.28,-300 851.28,-300 851.28,-312 851.28,-312 851.28,-318 845.28,-324 839.28,-324"/>
<text text-anchor="middle" x="824.28" y="-303.5" font-family="sans" font-size="10.00">eggnog</text>
</g>
<!-- 4&#45;&gt;27 -->
<g id="edge53" class="edge">
<title>4&#45;&gt;27</title>
<path fill="none" stroke="grey" stroke-width="2" d="M750.26,-359.88C762.83,-350.89 778.42,-339.76 792.04,-330.03"/>
<polygon fill="grey" stroke="grey" stroke-width="2" points="794.12,-332.85 800.22,-324.19 790.05,-327.15 794.12,-332.85"/>
</g>
<!-- 29 -->
<g id="node30" class="node">
<title>29</title>
<path fill="none" stroke="#d8d356" stroke-width="2" d="M767.28,-324C767.28,-324 737.28,-324 737.28,-324 731.28,-324 725.28,-318 725.28,-312 725.28,-312 725.28,-300 725.28,-300 725.28,-294 731.28,-288 737.28,-288 737.28,-288 767.28,-288 767.28,-288 773.28,-288 779.28,-294 779.28,-300 779.28,-300 779.28,-312 779.28,-312 779.28,-318 773.28,-324 767.28,-324"/>
<text text-anchor="middle" x="752.28" y="-303.5" font-family="sans" font-size="10.00">roary</text>
</g>
<!-- 4&#45;&gt;29 -->
<g id="edge54" class="edge">
<title>4&#45;&gt;29</title>
<path fill="none" stroke="grey" stroke-width="2" d="M732.71,-359.7C735.64,-351.81 739.17,-342.3 742.42,-333.55"/>
<polygon fill="grey" stroke="grey" stroke-width="2" points="745.73,-334.7 745.93,-324.1 739.17,-332.26 745.73,-334.7"/>
</g>
<!-- 5 -->
<g id="node6" class="node">
<title>5</title>
<path fill="none" stroke="#56d0d8" stroke-width="2" d="M785.28,-540C785.28,-540 675.28,-540 675.28,-540 669.28,-540 663.28,-534 663.28,-528 663.28,-528 663.28,-516 663.28,-516 663.28,-510 669.28,-504 675.28,-504 675.28,-504 785.28,-504 785.28,-504 791.28,-504 797.28,-510 797.28,-516 797.28,-516 797.28,-528 797.28,-528 797.28,-534 791.28,-540 785.28,-540"/>
<text text-anchor="middle" x="730.28" y="-519.5" font-family="sans" font-size="10.00">ncbi_genome_download</text>
</g>
<!-- 5&#45;&gt;4 -->
<g id="edge22" class="edge">
<title>5&#45;&gt;4</title>
<path fill="none" stroke="grey" stroke-width="2" d="M694.26,-503.81C680.37,-495.16 665.99,-483.24 658.28,-468 651.07,-453.72 651.26,-446.38 658.28,-432 665.17,-417.9 677.82,-406.47 690.35,-397.87"/>
<polygon fill="grey" stroke="grey" stroke-width="2" points="692.4,-400.72 698.94,-392.38 688.63,-394.82 692.4,-400.72"/>
</g>
<!-- 6 -->
<g id="node7" class="node">
<title>6</title>
<path fill="none" stroke="#d87556" stroke-width="2" d="M775.28,-468C775.28,-468 679.28,-468 679.28,-468 673.28,-468 667.28,-462 667.28,-456 667.28,-456 667.28,-444 667.28,-444 667.28,-438 673.28,-432 679.28,-432 679.28,-432 775.28,-432 775.28,-432 781.28,-432 787.28,-438 787.28,-444 787.28,-444 787.28,-456 787.28,-456 787.28,-462 781.28,-468 775.28,-468"/>
<text text-anchor="middle" x="727.28" y="-447.5" font-family="sans" font-size="10.00">extract_meta_prokka</text>
</g>
<!-- 5&#45;&gt;6 -->
<g id="edge27" class="edge">
<title>5&#45;&gt;6</title>
<path fill="none" stroke="grey" stroke-width="2" d="M729.54,-503.7C729.21,-495.98 728.82,-486.71 728.45,-478.11"/>
<polygon fill="grey" stroke="grey" stroke-width="2" points="731.94,-477.95 728.02,-468.1 724.95,-478.25 731.94,-477.95"/>
</g>
<!-- 14 -->
<g id="node15" class="node">
<title>14</title>
<path fill="none" stroke="#d85656" stroke-width="2" d="M540.78,-396C540.78,-396 425.78,-396 425.78,-396 419.78,-396 413.78,-390 413.78,-384 413.78,-384 413.78,-372 413.78,-372 413.78,-366 419.78,-360 425.78,-360 425.78,-360 540.78,-360 540.78,-360 546.78,-360 552.78,-366 552.78,-372 552.78,-372 552.78,-384 552.78,-384 552.78,-390 546.78,-396 540.78,-396"/>
<text text-anchor="middle" x="483.28" y="-375.5" font-family="sans" font-size="10.00">extract_ncbi_information</text>
</g>
<!-- 5&#45;&gt;14 -->
<g id="edge33" class="edge">
<title>5&#45;&gt;14</title>
<path fill="none" stroke="grey" stroke-width="2" d="M663.27,-507.25C598.1,-493.6 508.06,-473.88 502.28,-468 486.5,-451.93 482.4,-426.15 481.87,-406.46"/>
<polygon fill="grey" stroke="grey" stroke-width="2" points="485.37,-406.26 481.89,-396.25 478.37,-406.24 485.37,-406.26"/>
</g>
<!-- 24 -->
<g id="node25" class="node">
<title>24</title>
<path fill="none" stroke="#d89556" stroke-width="2" d="M977.28,-468C977.28,-468 947.28,-468 947.28,-468 941.28,-468 935.28,-462 935.28,-456 935.28,-456 935.28,-444 935.28,-444 935.28,-438 941.28,-432 947.28,-432 947.28,-432 977.28,-432 977.28,-432 983.28,-432 989.28,-438 989.28,-444 989.28,-444 989.28,-456 989.28,-456 989.28,-462 983.28,-468 977.28,-468"/>
<text text-anchor="middle" x="962.28" y="-447.5" font-family="sans" font-size="10.00">mlst</text>
</g>
<!-- 5&#45;&gt;24 -->
<g id="edge43" class="edge">
<title>5&#45;&gt;24</title>
<path fill="none" stroke="grey" stroke-width="2" d="M797.43,-505.97C833.31,-497.21 878.24,-485.09 925.5,-467.99"/>
<polygon fill="grey" stroke="grey" stroke-width="2" points="926.8,-471.24 934.98,-464.51 924.39,-464.67 926.8,-471.24"/>
</g>
<!-- 25 -->
<g id="node26" class="node">
<title>25</title>
<path fill="none" stroke="#5682d8" stroke-width="2" d="M1084.78,-468C1084.78,-468 1019.78,-468 1019.78,-468 1013.78,-468 1007.78,-462 1007.78,-456 1007.78,-456 1007.78,-444 1007.78,-444 1007.78,-438 1013.78,-432 1019.78,-432 1019.78,-432 1084.78,-432 1084.78,-432 1090.78,-432 1096.78,-438 1096.78,-444 1096.78,-444 1096.78,-456 1096.78,-456 1096.78,-462 1090.78,-468 1084.78,-468"/>
<text text-anchor="middle" x="1052.28" y="-447.5" font-family="sans" font-size="10.00">refseq_masher</text>
</g>
<!-- 5&#45;&gt;25 -->
<g id="edge46" class="edge">
<title>5&#45;&gt;25</title>
<path fill="none" stroke="grey" stroke-width="2" d="M797.32,-507.21C802.72,-506.12 808.09,-505.04 813.28,-504 892.38,-488.2 915.4,-488.56 997.81,-467.97"/>
<polygon fill="grey" stroke="grey" stroke-width="2" points="998.77,-471.34 1007.61,-465.49 997.05,-464.55 998.77,-471.34"/>
</g>
<!-- 26 -->
<g id="node27" class="node">
<title>26</title>
<path fill="none" stroke="#9fd856" stroke-width="2" d="M904.78,-468C904.78,-468 855.78,-468 855.78,-468 849.78,-468 843.78,-462 843.78,-456 843.78,-456 843.78,-444 843.78,-444 843.78,-438 849.78,-432 855.78,-432 855.78,-432 904.78,-432 904.78,-432 910.78,-432 916.78,-438 916.78,-444 916.78,-444 916.78,-456 916.78,-456 916.78,-462 910.78,-468 904.78,-468"/>
<text text-anchor="middle" x="880.28" y="-447.5" font-family="sans" font-size="10.00">seqfu_stats</text>
</g>
<!-- 5&#45;&gt;26 -->
<g id="edge49" class="edge">
<title>5&#45;&gt;26</title>
<path fill="none" stroke="grey" stroke-width="2" d="M766.98,-503.88C787.3,-494.39 812.76,-482.51 834.39,-472.42"/>
<polygon fill="grey" stroke="grey" stroke-width="2" points="836.13,-475.47 843.71,-468.07 833.17,-469.13 836.13,-475.47"/>
</g>
<!-- 6&#45;&gt;0 -->
<g id="edge5" class="edge">
<title>6&#45;&gt;0</title>
<path fill="none" stroke="grey" stroke-width="2" d="M787.41,-440.06C815.82,-432.8 847.9,-419.68 868.28,-396 894.67,-365.35 887.28,-347.45 887.28,-307 887.28,-307 887.28,-307 887.28,-161 887.28,-104.24 829.99,-60.82 790.61,-37.67"/>
<polygon fill="grey" stroke="grey" stroke-width="2" points="791.94,-34.41 781.52,-32.5 788.48,-40.49 791.94,-34.41"/>
</g>
<!-- 6&#45;&gt;4 -->
<g id="edge23" class="edge">
<title>6&#45;&gt;4</title>
<path fill="none" stroke="grey" stroke-width="2" d="M727.04,-431.7C726.93,-423.98 726.79,-414.71 726.67,-406.11"/>
<polygon fill="grey" stroke="grey" stroke-width="2" points="730.17,-406.05 726.53,-396.1 723.17,-406.15 730.17,-406.05"/>
</g>
<!-- 6&#45;&gt;14 -->
<g id="edge32" class="edge">
<title>6&#45;&gt;14</title>
<path fill="none" stroke="grey" stroke-width="2" d="M667.91,-431.97C633.22,-422.01 589.27,-409.41 552.95,-398.99"/>
<polygon fill="grey" stroke="grey" stroke-width="2" points="553.51,-395.5 542.93,-396.11 551.58,-402.23 553.51,-395.5"/>
</g>
<!-- 7 -->
<g id="node8" class="node">
<title>7</title>
<path fill="none" stroke="#97d856" stroke-width="2" d="M598.78,-468C598.78,-468 523.78,-468 523.78,-468 517.78,-468 511.78,-462 511.78,-456 511.78,-456 511.78,-444 511.78,-444 511.78,-438 517.78,-432 523.78,-432 523.78,-432 598.78,-432 598.78,-432 604.78,-432 610.78,-438 610.78,-444 610.78,-444 610.78,-456 610.78,-456 610.78,-462 604.78,-468 598.78,-468"/>
<text text-anchor="middle" x="561.28" y="-447.5" font-family="sans" font-size="10.00">prokka_db_setup</text>
</g>
<!-- 7&#45;&gt;4 -->
<g id="edge24" class="edge">
<title>7&#45;&gt;4</title>
<path fill="none" stroke="grey" stroke-width="2" d="M601.65,-431.88C628.55,-420.46 663.62,-405.58 689.71,-394.52"/>
<polygon fill="grey" stroke="grey" stroke-width="2" points="691.39,-397.61 699.23,-390.48 688.66,-391.16 691.39,-397.61"/>
</g>
<!-- 8 -->
<g id="node9" class="node">
<title>8</title>
<path fill="none" stroke="#56b1d8" stroke-width="2" d="M626.28,-540C626.28,-540 496.28,-540 496.28,-540 490.28,-540 484.28,-534 484.28,-528 484.28,-528 484.28,-516 484.28,-516 484.28,-510 490.28,-504 496.28,-504 496.28,-504 626.28,-504 626.28,-504 632.28,-504 638.28,-510 638.28,-516 638.28,-516 638.28,-528 638.28,-528 638.28,-534 632.28,-540 626.28,-540"/>
<text text-anchor="middle" x="561.28" y="-519.5" font-family="sans" font-size="10.00">prokka_reference_download</text>
</g>
<!-- 8&#45;&gt;7 -->
<g id="edge30" class="edge">
<title>8&#45;&gt;7</title>
<path fill="none" stroke="grey" stroke-width="2" d="M561.28,-503.7C561.28,-495.98 561.28,-486.71 561.28,-478.11"/>
<polygon fill="grey" stroke="grey" stroke-width="2" points="564.78,-478.1 561.28,-468.1 557.78,-478.1 564.78,-478.1"/>
</g>
<!-- 9 -->
<g id="node10" class="node">
<title>9</title>
<path fill="none" stroke="#56d863" stroke-width="2" d="M339.78,-396C339.78,-396 298.78,-396 298.78,-396 292.78,-396 286.78,-390 286.78,-384 286.78,-384 286.78,-372 286.78,-372 286.78,-366 292.78,-360 298.78,-360 298.78,-360 339.78,-360 339.78,-360 345.78,-360 351.78,-366 351.78,-372 351.78,-372 351.78,-384 351.78,-384 351.78,-390 345.78,-396 339.78,-396"/>
<text text-anchor="middle" x="319.28" y="-375.5" font-family="sans" font-size="10.00">gtdb_prep</text>
</g>
<!-- 9&#45;&gt;3 -->
<g id="edge21" class="edge">
<title>9&#45;&gt;3</title>
<path fill="none" stroke="grey" stroke-width="2" d="M351.98,-370.46C367.78,-367.29 387.02,-363.45 404.28,-360 481.13,-344.66 570.46,-326.87 623.58,-316.29"/>
<polygon fill="grey" stroke="grey" stroke-width="2" points="624.59,-319.66 633.71,-314.28 623.22,-312.8 624.59,-319.66"/>
</g>
<!-- 13 -->
<g id="node14" class="node">
<title>13</title>
<path fill="none" stroke="#56d873" stroke-width="2" d="M127.28,-252C127.28,-252 41.28,-252 41.28,-252 35.28,-252 29.28,-246 29.28,-240 29.28,-240 29.28,-228 29.28,-228 29.28,-222 35.28,-216 41.28,-216 41.28,-216 127.28,-216 127.28,-216 133.28,-216 139.28,-222 139.28,-228 139.28,-228 139.28,-240 139.28,-240 139.28,-246 133.28,-252 127.28,-252"/>
<text text-anchor="middle" x="84.28" y="-231.5" font-family="sans" font-size="10.00">fix_gtdb_taxonomy</text>
</g>
<!-- 9&#45;&gt;13 -->
<g id="edge31" class="edge">
<title>9&#45;&gt;13</title>
<path fill="none" stroke="grey" stroke-width="2" d="M290.94,-359.87C248.5,-334.23 168.44,-285.85 121.4,-257.43"/>
<polygon fill="grey" stroke="grey" stroke-width="2" points="123.1,-254.37 112.73,-252.19 119.48,-260.36 123.1,-254.37"/>
</g>
<!-- 10 -->
<g id="node11" class="node">
<title>10</title>
<path fill="none" stroke="#59d856" stroke-width="2" d="M408.78,-324C408.78,-324 315.78,-324 315.78,-324 309.78,-324 303.78,-318 303.78,-312 303.78,-312 303.78,-300 303.78,-300 303.78,-294 309.78,-288 315.78,-288 315.78,-288 408.78,-288 408.78,-288 414.78,-288 420.78,-294 420.78,-300 420.78,-300 420.78,-312 420.78,-312 420.78,-318 414.78,-324 408.78,-324"/>
<text text-anchor="middle" x="362.28" y="-303.5" font-family="sans" font-size="10.00">antismash_db_setup</text>
</g>
<!-- 10&#45;&gt;2 -->
<g id="edge19" class="edge">
<title>10&#45;&gt;2</title>
<path fill="none" stroke="grey" stroke-width="2" d="M365.5,-287.7C366.93,-279.98 368.65,-270.71 370.25,-262.11"/>
<polygon fill="grey" stroke="grey" stroke-width="2" points="373.72,-262.58 372.11,-252.1 366.84,-261.3 373.72,-262.58"/>
</g>
<!-- 11 -->
<g id="node12" class="node">
<title>11</title>
<path fill="none" stroke="#56d8c1" stroke-width="2" d="M1081.28,-540C1081.28,-540 963.28,-540 963.28,-540 957.28,-540 951.28,-534 951.28,-528 951.28,-528 951.28,-516 951.28,-516 951.28,-510 957.28,-504 963.28,-504 963.28,-504 1081.28,-504 1081.28,-504 1087.28,-504 1093.28,-510 1093.28,-516 1093.28,-516 1093.28,-528 1093.28,-528 1093.28,-534 1087.28,-540 1081.28,-540"/>
<text text-anchor="middle" x="1022.28" y="-519.5" font-family="sans" font-size="10.00">patric_genome_download</text>
</g>
<!-- 11&#45;&gt;4 -->
<g id="edge26" class="edge">
<title>11&#45;&gt;4</title>
<path fill="none" stroke="grey" stroke-width="2" d="M1066.36,-503.98C1081.84,-495.62 1097.54,-483.85 1106.28,-468 1114.01,-453.99 1116.99,-443.89 1106.28,-432 1056.75,-377.01 852.3,-413.74 763.21,-395.36"/>
<polygon fill="grey" stroke="grey" stroke-width="2" points="763.98,-391.95 753.43,-392.98 762.32,-398.75 763.98,-391.95"/>
</g>
<!-- 11&#45;&gt;6 -->
<g id="edge28" class="edge">
<title>11&#45;&gt;6</title>
<path fill="none" stroke="grey" stroke-width="2" d="M951.25,-504.14C904.71,-493.1 844.14,-478.73 797.72,-467.71"/>
<polygon fill="grey" stroke="grey" stroke-width="2" points="798.28,-464.25 787.74,-465.35 796.66,-471.06 798.28,-464.25"/>
</g>
<!-- 11&#45;&gt;24 -->
<g id="edge44" class="edge">
<title>11&#45;&gt;24</title>
<path fill="none" stroke="grey" stroke-width="2" d="M1007.45,-503.7C1000.26,-495.3 991.49,-485.07 983.59,-475.86"/>
<polygon fill="grey" stroke="grey" stroke-width="2" points="986.11,-473.42 976.95,-468.1 980.8,-477.97 986.11,-473.42"/>
</g>
<!-- 11&#45;&gt;25 -->
<g id="edge47" class="edge">
<title>11&#45;&gt;25</title>
<path fill="none" stroke="grey" stroke-width="2" d="M1029.7,-503.7C1033.08,-495.81 1037.15,-486.3 1040.91,-477.55"/>
<polygon fill="grey" stroke="grey" stroke-width="2" points="1044.23,-478.67 1044.95,-468.1 1037.8,-475.92 1044.23,-478.67"/>
</g>
<!-- 11&#45;&gt;26 -->
<g id="edge50" class="edge">
<title>11&#45;&gt;26</title>
<path fill="none" stroke="grey" stroke-width="2" d="M987.55,-503.88C968.47,-494.47 944.61,-482.71 924.24,-472.67"/>
<polygon fill="grey" stroke="grey" stroke-width="2" points="925.67,-469.47 915.16,-468.19 922.58,-475.75 925.67,-469.47"/>
</g>
<!-- 12 -->
<g id="node13" class="node">
<title>12</title>
<path fill="none" stroke="#56d8b1" stroke-width="2" d="M920.78,-540C920.78,-540 833.78,-540 833.78,-540 827.78,-540 821.78,-534 821.78,-528 821.78,-528 821.78,-516 821.78,-516 821.78,-510 827.78,-504 833.78,-504 833.78,-504 920.78,-504 920.78,-504 926.78,-504 932.78,-510 932.78,-516 932.78,-516 932.78,-528 932.78,-528 932.78,-534 926.78,-540 920.78,-540"/>
<text text-anchor="middle" x="877.28" y="-519.5" font-family="sans" font-size="10.00">copy_custom_fasta</text>
</g>
<!-- 12&#45;&gt;4 -->
<g id="edge25" class="edge">
<title>12&#45;&gt;4</title>
<path fill="none" stroke="grey" stroke-width="2" d="M863.22,-503.73C847.71,-485.14 821.58,-455.11 796.28,-432 784.87,-421.58 771.52,-411.1 759.56,-402.24"/>
<polygon fill="grey" stroke="grey" stroke-width="2" points="761.28,-399.16 751.13,-396.1 757.15,-404.82 761.28,-399.16"/>
</g>
<!-- 12&#45;&gt;6 -->
<g id="edge29" class="edge">
<title>12&#45;&gt;6</title>
<path fill="none" stroke="grey" stroke-width="2" d="M840.59,-503.88C820.27,-494.39 794.81,-482.51 773.18,-472.42"/>
<polygon fill="grey" stroke="grey" stroke-width="2" points="774.4,-469.13 763.86,-468.07 771.44,-475.47 774.4,-469.13"/>
</g>
<!-- 12&#45;&gt;24 -->
<g id="edge45" class="edge">
<title>12&#45;&gt;24</title>
<path fill="none" stroke="grey" stroke-width="2" d="M898.3,-503.7C909,-494.88 922.17,-484.03 933.78,-474.47"/>
<polygon fill="grey" stroke="grey" stroke-width="2" points="936.02,-477.16 941.52,-468.1 931.57,-471.76 936.02,-477.16"/>
</g>
<!-- 12&#45;&gt;25 -->
<g id="edge48" class="edge">
<title>12&#45;&gt;25</title>
<path fill="none" stroke="grey" stroke-width="2" d="M920.09,-503.88C944.23,-494.22 974.57,-482.09 1000.09,-471.88"/>
<polygon fill="grey" stroke="grey" stroke-width="2" points="1001.63,-475.03 1009.61,-468.07 999.03,-468.53 1001.63,-475.03"/>
</g>
<!-- 12&#45;&gt;26 -->
<g id="edge51" class="edge">
<title>12&#45;&gt;26</title>
<path fill="none" stroke="grey" stroke-width="2" d="M878.03,-503.7C878.36,-495.98 878.75,-486.71 879.12,-478.11"/>
<polygon fill="grey" stroke="grey" stroke-width="2" points="882.62,-478.25 879.55,-468.1 875.63,-477.95 882.62,-478.25"/>
</g>
<!-- 13&#45;&gt;0 -->
<g id="edge9" class="edge">
<title>13&#45;&gt;0</title>
<path fill="none" stroke="grey" stroke-width="2" d="M46.89,-215.8C32.74,-207.2 18.16,-195.32 10.28,-180 -12.97,-134.74 5.72,-99.89 48.28,-72 104.46,-35.19 579.29,-22.6 717,-19.71"/>
<polygon fill="grey" stroke="grey" stroke-width="2" points="717.13,-23.21 727.06,-19.5 716.99,-16.21 717.13,-23.21"/>
</g>
<!-- 13&#45;&gt;21 -->
<g id="edge41" class="edge">
<title>13&#45;&gt;21</title>
<path fill="none" stroke="grey" stroke-width="2" d="M84.28,-215.7C84.28,-207.98 84.28,-198.71 84.28,-190.11"/>
<polygon fill="grey" stroke="grey" stroke-width="2" points="87.78,-190.1 84.28,-180.1 80.78,-190.1 87.78,-190.1"/>
</g>
<!-- 14&#45;&gt;0 -->
<g id="edge1" class="edge">
<title>14&#45;&gt;0</title>
<path fill="none" stroke="grey" stroke-width="2" d="M475,-359.68C461.2,-328.06 437.9,-260.18 468.28,-216 493.64,-179.14 523.41,-202.13 562.28,-180 607.1,-154.48 613.7,-141.06 653.28,-108 679.1,-86.44 707.8,-61 727.99,-42.85"/>
<polygon fill="grey" stroke="grey" stroke-width="2" points="730.47,-45.33 735.56,-36.03 725.79,-40.13 730.47,-45.33"/>
</g>
<!-- 15&#45;&gt;0 -->
<g id="edge14" class="edge">
<title>15&#45;&gt;0</title>
<path fill="none" stroke="grey" stroke-width="2" d="M626.63,-71.88C654.48,-60.34 690.88,-45.26 717.68,-34.16"/>
<polygon fill="grey" stroke="grey" stroke-width="2" points="719.19,-37.33 727.09,-30.27 716.51,-30.86 719.19,-37.33"/>
</g>
<!-- 16 -->
<g id="node17" class="node">
<title>16</title>
<path fill="none" stroke="#d8a456" stroke-width="2" d="M1169.28,-108C1169.28,-108 1041.28,-108 1041.28,-108 1035.28,-108 1029.28,-102 1029.28,-96 1029.28,-96 1029.28,-84 1029.28,-84 1029.28,-78 1035.28,-72 1041.28,-72 1041.28,-72 1169.28,-72 1169.28,-72 1175.28,-72 1181.28,-78 1181.28,-84 1181.28,-84 1181.28,-96 1181.28,-96 1181.28,-102 1175.28,-108 1169.28,-108"/>
<text text-anchor="middle" x="1105.28" y="-87.5" font-family="sans" font-size="10.00">write_dependency_versions</text>
</g>
<!-- 16&#45;&gt;0 -->
<g id="edge12" class="edge">
<title>16&#45;&gt;0</title>
<path fill="none" stroke="grey" stroke-width="2" d="M1029.12,-73.81C955.67,-59.16 847.59,-37.61 791.35,-26.39"/>
<polygon fill="grey" stroke="grey" stroke-width="2" points="791.97,-22.95 781.48,-24.42 790.6,-29.81 791.97,-22.95"/>
</g>
<!-- 17 -->
<g id="node18" class="node">
<title>17</title>
<path fill="none" stroke="#56d8a2" stroke-width="2" d="M361.28,-108C361.28,-108 325.28,-108 325.28,-108 319.28,-108 313.28,-102 313.28,-96 313.28,-96 313.28,-84 313.28,-84 313.28,-78 319.28,-72 325.28,-72 325.28,-72 361.28,-72 361.28,-72 367.28,-72 373.28,-78 373.28,-84 373.28,-84 373.28,-96 373.28,-96 373.28,-102 367.28,-108 361.28,-108"/>
<text text-anchor="middle" x="343.28" y="-87.5" font-family="sans" font-size="10.00">bigscape</text>
</g>
<!-- 17&#45;&gt;0 -->
<g id="edge15" class="edge">
<title>17&#45;&gt;0</title>
<path fill="none" stroke="grey" stroke-width="2" d="M373.66,-74.84C376.54,-73.78 379.44,-72.81 382.28,-72 501.73,-38.13 649.18,-25.33 716.98,-20.99"/>
<polygon fill="grey" stroke="grey" stroke-width="2" points="717.39,-24.47 727.16,-20.36 716.96,-17.48 717.39,-24.47"/>
</g>
<!-- 18 -->
<g id="node19" class="node">
<title>18</title>
<path fill="none" stroke="#56a2d8" stroke-width="2" d="M494.78,-180C494.78,-180 423.78,-180 423.78,-180 417.78,-180 411.78,-174 411.78,-168 411.78,-168 411.78,-156 411.78,-156 411.78,-150 417.78,-144 423.78,-144 423.78,-144 494.78,-144 494.78,-144 500.78,-144 506.78,-150 506.78,-156 506.78,-156 506.78,-168 506.78,-168 506.78,-174 500.78,-180 494.78,-180"/>
<text text-anchor="middle" x="459.28" y="-159.5" font-family="sans" font-size="10.00">install_bigscape</text>
</g>
<!-- 18&#45;&gt;17 -->
<g id="edge36" class="edge">
<title>18&#45;&gt;17</title>
<path fill="none" stroke="grey" stroke-width="2" d="M430.91,-143.88C415.74,-134.72 396.88,-123.34 380.55,-113.48"/>
<polygon fill="grey" stroke="grey" stroke-width="2" points="382.14,-110.36 371.77,-108.19 378.52,-116.35 382.14,-110.36"/>
</g>
<!-- 19&#45;&gt;17 -->
<g id="edge35" class="edge">
<title>19&#45;&gt;17</title>
<path fill="none" stroke="grey" stroke-width="2" d="M337.26,-143.7C338.14,-135.98 339.2,-126.71 340.19,-118.11"/>
<polygon fill="grey" stroke="grey" stroke-width="2" points="343.67,-118.44 341.33,-108.1 336.72,-117.64 343.67,-118.44"/>
</g>
<!-- 20 -->
<g id="node21" class="node">
<title>20</title>
<path fill="none" stroke="#5673d8" stroke-width="2" d="M239.78,-108C239.78,-108 176.78,-108 176.78,-108 170.78,-108 164.78,-102 164.78,-96 164.78,-96 164.78,-84 164.78,-84 164.78,-78 170.78,-72 176.78,-72 176.78,-72 239.78,-72 239.78,-72 245.78,-72 251.78,-78 251.78,-84 251.78,-84 251.78,-96 251.78,-96 251.78,-102 245.78,-108 239.78,-108"/>
<text text-anchor="middle" x="208.28" y="-87.5" font-family="sans" font-size="10.00">query_bigslice</text>
</g>
<!-- 20&#45;&gt;0 -->
<g id="edge13" class="edge">
<title>20&#45;&gt;0</title>
<path fill="none" stroke="grey" stroke-width="2" d="M252.17,-80.68C268.49,-77.73 287.2,-74.52 304.28,-72 456.85,-49.53 639.62,-30.39 716.89,-22.66"/>
<polygon fill="grey" stroke="grey" stroke-width="2" points="717.47,-26.12 727.07,-21.65 716.78,-19.16 717.47,-26.12"/>
</g>
<!-- 21&#45;&gt;20 -->
<g id="edge39" class="edge">
<title>21&#45;&gt;20</title>
<path fill="none" stroke="grey" stroke-width="2" d="M114.62,-143.88C130.98,-134.64 151.37,-123.13 168.94,-113.21"/>
<polygon fill="grey" stroke="grey" stroke-width="2" points="170.85,-116.15 177.83,-108.19 167.41,-110.06 170.85,-116.15"/>
</g>
<!-- 30 -->
<g id="node31" class="node">
<title>30</title>
<path fill="none" stroke="#5692d8" stroke-width="2" d="M99.28,-108C99.28,-108 69.28,-108 69.28,-108 63.28,-108 57.28,-102 57.28,-96 57.28,-96 57.28,-84 57.28,-84 57.28,-78 63.28,-72 69.28,-72 69.28,-72 99.28,-72 99.28,-72 105.28,-72 111.28,-78 111.28,-84 111.28,-84 111.28,-96 111.28,-96 111.28,-102 105.28,-108 99.28,-108"/>
<text text-anchor="middle" x="84.28" y="-87.5" font-family="sans" font-size="10.00">bigslice</text>
</g>
<!-- 21&#45;&gt;30 -->
<g id="edge56" class="edge">
<title>21&#45;&gt;30</title>
<path fill="none" stroke="grey" stroke-width="2" d="M84.28,-143.7C84.28,-135.98 84.28,-126.71 84.28,-118.11"/>
<polygon fill="grey" stroke="grey" stroke-width="2" points="87.78,-118.1 84.28,-108.1 80.78,-118.1 87.78,-118.1"/>
</g>
<!-- 22 -->
<g id="node23" class="node">
<title>22</title>
<path fill="none" stroke="#afd856" stroke-width="2" d="M246.78,-180C246.78,-180 169.78,-180 169.78,-180 163.78,-180 157.78,-174 157.78,-168 157.78,-168 157.78,-156 157.78,-156 157.78,-150 163.78,-144 169.78,-144 169.78,-144 246.78,-144 246.78,-144 252.78,-144 258.78,-150 258.78,-156 258.78,-156 258.78,-168 258.78,-168 258.78,-174 252.78,-180 246.78,-180"/>
<text text-anchor="middle" x="208.28" y="-159.5" font-family="sans" font-size="10.00">fetch_bigslice_db</text>
</g>
<!-- 22&#45;&gt;20 -->
<g id="edge38" class="edge">
<title>22&#45;&gt;20</title>
<path fill="none" stroke="grey" stroke-width="2" d="M208.28,-143.7C208.28,-135.98 208.28,-126.71 208.28,-118.11"/>
<polygon fill="grey" stroke="grey" stroke-width="2" points="211.78,-118.1 208.28,-108.1 204.78,-118.1 211.78,-118.1"/>
</g>
<!-- 23 -->
<g id="node24" class="node">
<title>23</title>
<path fill="none" stroke="#d8c356" stroke-width="2" d="M237.78,-252C237.78,-252 172.78,-252 172.78,-252 166.78,-252 160.78,-246 160.78,-240 160.78,-240 160.78,-228 160.78,-228 160.78,-222 166.78,-216 172.78,-216 172.78,-216 237.78,-216 237.78,-216 243.78,-216 249.78,-222 249.78,-228 249.78,-228 249.78,-240 249.78,-240 249.78,-246 243.78,-252 237.78,-252"/>
<text text-anchor="middle" x="205.28" y="-231.5" font-family="sans" font-size="10.00">install_bigslice</text>
</g>
<!-- 23&#45;&gt;22 -->
<g id="edge42" class="edge">
<title>23&#45;&gt;22</title>
<path fill="none" stroke="grey" stroke-width="2" d="M206.03,-215.7C206.36,-207.98 206.75,-198.71 207.12,-190.11"/>
<polygon fill="grey" stroke="grey" stroke-width="2" points="210.62,-190.25 207.55,-180.1 203.63,-189.95 210.62,-190.25"/>
</g>
<!-- 23&#45;&gt;30 -->
<g id="edge55" class="edge">
<title>23&#45;&gt;30</title>
<path fill="none" stroke="grey" stroke-width="2" d="M160.5,-219.57C156.37,-218.35 152.25,-217.15 148.28,-216 91.52,-199.55 55.97,-227.11 20.28,-180 10.62,-167.25 13.48,-158.48 20.28,-144 26.46,-130.87 37.66,-119.87 48.99,-111.36"/>
<polygon fill="grey" stroke="grey" stroke-width="2" points="51.01,-114.22 57.19,-105.61 46.99,-108.49 51.01,-114.22"/>
</g>
<!-- 24&#45;&gt;0 -->
<g id="edge7" class="edge">
<title>24&#45;&gt;0</title>
<path fill="none" stroke="grey" stroke-width="2" d="M962.48,-431.95C962.77,-405.29 963.28,-352.12 963.28,-307 963.28,-307 963.28,-307 963.28,-161 963.28,-78.89 851.56,-40.94 791.48,-26.47"/>
<polygon fill="grey" stroke="grey" stroke-width="2" points="792.14,-23.03 781.61,-24.19 790.56,-29.85 792.14,-23.03"/>
</g>
<!-- 25&#45;&gt;0 -->
<g id="edge10" class="edge">
<title>25&#45;&gt;0</title>
<path fill="none" stroke="grey" stroke-width="2" d="M1041.72,-431.79C1026.78,-405.77 1001.28,-354.41 1001.28,-307 1001.28,-307 1001.28,-307 1001.28,-161 1001.28,-65.49 860.77,-33.28 791.7,-23.21"/>
<polygon fill="grey" stroke="grey" stroke-width="2" points="792.05,-19.72 781.66,-21.83 791.09,-26.66 792.05,-19.72"/>
</g>
<!-- 26&#45;&gt;0 -->
<g id="edge4" class="edge">
<title>26&#45;&gt;0</title>
<path fill="none" stroke="grey" stroke-width="2" d="M889.61,-431.63C902.79,-405.41 925.28,-353.81 925.28,-307 925.28,-307 925.28,-307 925.28,-161 925.28,-91.72 841.18,-49.77 790.94,-30.9"/>
<polygon fill="grey" stroke="grey" stroke-width="2" points="791.97,-27.55 781.38,-27.43 789.59,-34.13 791.97,-27.55"/>
</g>
<!-- 27&#45;&gt;0 -->
<g id="edge11" class="edge">
<title>27&#45;&gt;0</title>
<path fill="none" stroke="grey" stroke-width="2" d="M827.22,-287.72C833.22,-247.38 843.35,-144.87 806.28,-72 800.82,-61.25 792.4,-51.27 783.91,-42.95"/>
<polygon fill="grey" stroke="grey" stroke-width="2" points="786.22,-40.32 776.52,-36.07 781.46,-45.44 786.22,-40.32"/>
</g>
<!-- 28 -->
<g id="node29" class="node">
<title>28</title>
<path fill="none" stroke="#56d892" stroke-width="2" d="M847.28,-396C847.28,-396 783.28,-396 783.28,-396 777.28,-396 771.28,-390 771.28,-384 771.28,-384 771.28,-372 771.28,-372 771.28,-366 777.28,-360 783.28,-360 783.28,-360 847.28,-360 847.28,-360 853.28,-360 859.28,-366 859.28,-372 859.28,-372 859.28,-384 859.28,-384 859.28,-390 853.28,-396 847.28,-396"/>
<text text-anchor="middle" x="815.28" y="-375.5" font-family="sans" font-size="10.00">install_eggnog</text>
</g>
<!-- 28&#45;&gt;27 -->
<g id="edge52" class="edge">
<title>28&#45;&gt;27</title>
<path fill="none" stroke="grey" stroke-width="2" d="M817.51,-359.7C818.5,-351.98 819.69,-342.71 820.8,-334.11"/>
<polygon fill="grey" stroke="grey" stroke-width="2" points="824.28,-334.47 822.09,-324.1 817.34,-333.58 824.28,-334.47"/>
</g>
<!-- 29&#45;&gt;0 -->
<g id="edge2" class="edge">
<title>29&#45;&gt;0</title>
<path fill="none" stroke="grey" stroke-width="2" d="M767.47,-287.7C775.02,-277.94 783.35,-265.1 787.28,-252 810.3,-175.38 809.27,-148.92 787.28,-72 784.57,-62.51 779.61,-53.06 774.35,-44.83"/>
<polygon fill="grey" stroke="grey" stroke-width="2" points="777.14,-42.72 768.61,-36.43 771.36,-46.67 777.14,-42.72"/>
</g>
<!-- 30&#45;&gt;0 -->
<g id="edge8" class="edge">
<title>30&#45;&gt;0</title>
<path fill="none" stroke="grey" stroke-width="2" d="M111.4,-81.52C124.56,-78.14 140.65,-74.39 155.28,-72 366.12,-37.62 622.59,-24.34 717.05,-20.39"/>
<polygon fill="grey" stroke="grey" stroke-width="2" points="717.39,-23.88 727.24,-19.98 717.11,-16.89 717.39,-23.88"/>
</g>
<!-- 31 -->
<g id="node32" class="node">
<title>31</title>
<path fill="none" stroke="#ced856" stroke-width="2" d="M732.78,-180C732.78,-180 651.78,-180 651.78,-180 645.78,-180 639.78,-174 639.78,-168 639.78,-168 639.78,-156 639.78,-156 639.78,-150 645.78,-144 651.78,-144 651.78,-144 732.78,-144 732.78,-144 738.78,-144 744.78,-150 744.78,-156 744.78,-156 744.78,-168 744.78,-168 744.78,-174 738.78,-180 732.78,-180"/>
<text text-anchor="middle" x="692.28" y="-159.5" font-family="sans" font-size="10.00">automlst_wrapper</text>
</g>
<!-- 31&#45;&gt;0 -->
<g id="edge3" class="edge">
<title>31&#45;&gt;0</title>
<path fill="none" stroke="grey" stroke-width="2" d="M699.76,-143.87C710.42,-119.46 730.08,-74.43 742.66,-45.64"/>
<polygon fill="grey" stroke="grey" stroke-width="2" points="745.99,-46.75 746.78,-36.19 739.57,-43.95 745.99,-46.75"/>
</g>
<!-- 32&#45;&gt;31 -->
<g id="edge58" class="edge">
<title>32&#45;&gt;31</title>
<path fill="none" stroke="grey" stroke-width="2" d="M690.78,-215.7C691,-207.98 691.26,-198.71 691.51,-190.11"/>
<polygon fill="grey" stroke="grey" stroke-width="2" points="695.01,-190.2 691.8,-180.1 688.01,-190 695.01,-190.2"/>
</g>
<!-- 33 -->
<g id="node34" class="node">
<title>33</title>
<path fill="none" stroke="#78d856" stroke-width="2" d="M605.28,-252C605.28,-252 489.28,-252 489.28,-252 483.28,-252 477.28,-246 477.28,-240 477.28,-240 477.28,-228 477.28,-228 477.28,-222 483.28,-216 489.28,-216 489.28,-216 605.28,-216 605.28,-216 611.28,-216 617.28,-222 617.28,-228 617.28,-228 617.28,-240 617.28,-240 617.28,-246 611.28,-252 605.28,-252"/>
<text text-anchor="middle" x="547.28" y="-231.5" font-family="sans" font-size="10.00">install_automlst_wrapper</text>
</g>
<!-- 33&#45;&gt;31 -->
<g id="edge57" class="edge">
<title>33&#45;&gt;31</title>
<path fill="none" stroke="grey" stroke-width="2" d="M582.76,-215.88C602.4,-206.39 627.01,-194.51 647.92,-184.42"/>
<polygon fill="grey" stroke="grey" stroke-width="2" points="649.45,-187.57 656.93,-180.07 646.4,-181.26 649.45,-187.57"/>
</g>
</g>
</svg>
