<?xml version="1.0" encoding="UTF-8" standalone="no"?>
<!DOCTYPE svg PUBLIC "-//W3C//DTD SVG 1.1//EN"
 "http://www.w3.org/Graphics/SVG/1.1/DTD/svg11.dtd">
<!-- Generated by graphviz version 2.49.3 (20211104.1129)
 -->
<!-- Title: snakemake_dag Pages: 1 -->
<svg width="2105pt" height="692pt"
 viewBox="0.00 0.00 2104.85 692.00" xmlns="http://www.w3.org/2000/svg" xmlns:xlink="http://www.w3.org/1999/xlink">
<g id="graph0" class="graph" transform="scale(1 1) rotate(0) translate(4 688)">
<title>snakemake_dag</title>
<polygon fill="white" stroke="transparent" points="-4,4 -4,-688 2100.85,-688 2100.85,4 -4,4"/>
<!-- 0 -->
<g id="node1" class="node">
<title>0</title>
<path fill="none" stroke="#5673d8" stroke-width="2" d="M1032.12,-36C1032.12,-36 1002.12,-36 1002.12,-36 996.12,-36 990.12,-30 990.12,-24 990.12,-24 990.12,-12 990.12,-12 990.12,-6 996.12,0 1002.12,0 1002.12,0 1032.12,0 1032.12,0 1038.12,0 1044.12,-6 1044.12,-12 1044.12,-12 1044.12,-24 1044.12,-24 1044.12,-30 1038.12,-36 1032.12,-36"/>
<text text-anchor="middle" x="1017.12" y="-15.5" font-family="sans" font-size="10.00">all</text>
</g>
<!-- 1 -->
<g id="node2" class="node">
<title>1</title>
<path fill="none" stroke="#d8ac56" stroke-width="2" d="M1506.62,-396C1506.62,-396 1419.62,-396 1419.62,-396 1413.62,-396 1407.62,-390 1407.62,-384 1407.62,-384 1407.62,-372 1407.62,-372 1407.62,-366 1413.62,-360 1419.62,-360 1419.62,-360 1506.62,-360 1506.62,-360 1512.62,-360 1518.62,-366 1518.62,-372 1518.62,-372 1518.62,-384 1518.62,-384 1518.62,-390 1512.62,-396 1506.62,-396"/>
<text text-anchor="middle" x="1463.12" y="-375.5" font-family="sans" font-size="10.00">fix_gtdb_taxonomy</text>
</g>
<!-- 1&#45;&gt;0 -->
<g id="edge2" class="edge">
<title>1&#45;&gt;0</title>
<path fill="none" stroke="grey" stroke-width="2" d="M1518.69,-362.03C1521.87,-361.31 1525.03,-360.63 1528.12,-360 1637.28,-337.87 1676.99,-374.77 1776.12,-324 1825.07,-298.92 1862.12,-290.01 1862.12,-235 1862.12,-235 1862.12,-235 1862.12,-161 1862.12,-81.18 1782.43,-95.41 1706.12,-72 1582.69,-34.14 1179.8,-22.48 1054.59,-19.72"/>
<polygon fill="grey" stroke="grey" stroke-width="2" points="1054.44,-16.22 1044.36,-19.51 1054.29,-23.22 1054.44,-16.22"/>
</g>
<!-- 27 -->
<g id="node28" class="node">
<title>27</title>
<path fill="none" stroke="#56c1d8" stroke-width="2" d="M1531.62,-324C1531.62,-324 1428.62,-324 1428.62,-324 1422.62,-324 1416.62,-318 1416.62,-312 1416.62,-312 1416.62,-300 1416.62,-300 1416.62,-294 1422.62,-288 1428.62,-288 1428.62,-288 1531.62,-288 1531.62,-288 1537.62,-288 1543.62,-294 1543.62,-300 1543.62,-300 1543.62,-312 1543.62,-312 1543.62,-318 1537.62,-324 1531.62,-324"/>
<text text-anchor="middle" x="1480.12" y="-303.5" font-family="sans" font-size="10.00">downstream_bgc_prep</text>
</g>
<!-- 1&#45;&gt;27 -->
<g id="edge72" class="edge">
<title>1&#45;&gt;27</title>
<path fill="none" stroke="grey" stroke-width="2" d="M1467.32,-359.7C1469.21,-351.9 1471.49,-342.51 1473.6,-333.83"/>
<polygon fill="grey" stroke="grey" stroke-width="2" points="1477,-334.65 1475.96,-324.1 1470.2,-333 1477,-334.65"/>
</g>
<!-- 2 -->
<g id="node3" class="node">
<title>2</title>
<path fill="none" stroke="#56a9d8" stroke-width="2" d="M999.62,-540C999.62,-540 958.62,-540 958.62,-540 952.62,-540 946.62,-534 946.62,-528 946.62,-528 946.62,-516 946.62,-516 946.62,-510 952.62,-504 958.62,-504 958.62,-504 999.62,-504 999.62,-504 1005.62,-504 1011.62,-510 1011.62,-516 1011.62,-516 1011.62,-528 1011.62,-528 1011.62,-534 1005.62,-540 999.62,-540"/>
<text text-anchor="middle" x="979.12" y="-519.5" font-family="sans" font-size="10.00">gtdb_prep</text>
</g>
<!-- 2&#45;&gt;1 -->
<g id="edge29" class="edge">
<title>2&#45;&gt;1</title>
<path fill="none" stroke="grey" stroke-width="2" d="M1011.71,-508.2C1016.49,-506.62 1021.4,-505.16 1026.12,-504 1142.41,-475.47 1179.02,-504.32 1293.12,-468 1342.88,-452.16 1395.44,-422.35 1428.72,-401.61"/>
<polygon fill="grey" stroke="grey" stroke-width="2" points="1430.99,-404.32 1437.57,-396.02 1427.25,-398.4 1430.99,-404.32"/>
</g>
<!-- 20 -->
<g id="node21" class="node">
<title>20</title>
<path fill="none" stroke="#61d856" stroke-width="2" d="M1608.62,-468C1608.62,-468 1511.62,-468 1511.62,-468 1505.62,-468 1499.62,-462 1499.62,-456 1499.62,-456 1499.62,-444 1499.62,-444 1499.62,-438 1505.62,-432 1511.62,-432 1511.62,-432 1608.62,-432 1608.62,-432 1614.62,-432 1620.62,-438 1620.62,-444 1620.62,-444 1620.62,-456 1620.62,-456 1620.62,-462 1614.62,-468 1608.62,-468"/>
<text text-anchor="middle" x="1560.12" y="-447.5" font-family="sans" font-size="10.00">prepare_gtdbtk_input</text>
</g>
<!-- 2&#45;&gt;20 -->
<g id="edge55" class="edge">
<title>2&#45;&gt;20</title>
<path fill="none" stroke="grey" stroke-width="2" d="M1011.66,-507.96C1016.45,-506.41 1021.37,-505.02 1026.12,-504 1225.49,-461.05 1284.56,-499.62 1489.11,-468.17"/>
<polygon fill="grey" stroke="grey" stroke-width="2" points="1489.94,-471.58 1499.28,-466.56 1488.85,-464.66 1489.94,-471.58"/>
</g>
<!-- 22 -->
<g id="node23" class="node">
<title>22</title>
<path fill="none" stroke="#d85656" stroke-width="2" d="M1003.62,-468C1003.62,-468 954.62,-468 954.62,-468 948.62,-468 942.62,-462 942.62,-456 942.62,-456 942.62,-444 942.62,-444 942.62,-438 948.62,-432 954.62,-432 954.62,-432 1003.62,-432 1003.62,-432 1009.62,-432 1015.62,-438 1015.62,-444 1015.62,-444 1015.62,-456 1015.62,-456 1015.62,-462 1009.62,-468 1003.62,-468"/>
<text text-anchor="middle" x="979.12" y="-447.5" font-family="sans" font-size="10.00">format_gbk</text>
</g>
<!-- 2&#45;&gt;22 -->
<g id="edge60" class="edge">
<title>2&#45;&gt;22</title>
<path fill="none" stroke="grey" stroke-width="2" d="M979.12,-503.7C979.12,-495.98 979.12,-486.71 979.12,-478.11"/>
<polygon fill="grey" stroke="grey" stroke-width="2" points="982.62,-478.1 979.12,-468.1 975.62,-478.1 982.62,-478.1"/>
</g>
<!-- 3 -->
<g id="node4" class="node">
<title>3</title>
<path fill="none" stroke="#56d882" stroke-width="2" d="M156.12,-108C156.12,-108 28.12,-108 28.12,-108 22.12,-108 16.12,-102 16.12,-96 16.12,-96 16.12,-84 16.12,-84 16.12,-78 22.12,-72 28.12,-72 28.12,-72 156.12,-72 156.12,-72 162.12,-72 168.12,-78 168.12,-84 168.12,-84 168.12,-96 168.12,-96 168.12,-102 162.12,-108 156.12,-108"/>
<text text-anchor="middle" x="92.12" y="-87.5" font-family="sans" font-size="10.00">write_dependency_versions</text>
</g>
<!-- 3&#45;&gt;0 -->
<g id="edge14" class="edge">
<title>3&#45;&gt;0</title>
<path fill="none" stroke="grey" stroke-width="2" d="M168.49,-73.22C171.4,-72.78 174.28,-72.37 177.12,-72 485.16,-31.66 860.93,-21.77 979.46,-19.58"/>
<polygon fill="grey" stroke="grey" stroke-width="2" points="979.86,-23.07 989.79,-19.39 979.73,-16.07 979.86,-23.07"/>
</g>
<!-- 4 -->
<g id="node5" class="node">
<title>4</title>
<path fill="none" stroke="#8fd856" stroke-width="2" d="M1688.62,-612C1688.62,-612 1639.62,-612 1639.62,-612 1633.62,-612 1627.62,-606 1627.62,-600 1627.62,-600 1627.62,-588 1627.62,-588 1627.62,-582 1633.62,-576 1639.62,-576 1639.62,-576 1688.62,-576 1688.62,-576 1694.62,-576 1700.62,-582 1700.62,-588 1700.62,-588 1700.62,-600 1700.62,-600 1700.62,-606 1694.62,-612 1688.62,-612"/>
<text text-anchor="middle" x="1664.12" y="-591.5" font-family="sans" font-size="10.00">seqfu_stats</text>
</g>
<!-- 4&#45;&gt;0 -->
<g id="edge11" class="edge">
<title>4&#45;&gt;0</title>
<path fill="none" stroke="grey" stroke-width="2" d="M1700.66,-585.56C1770.41,-571.34 1915.86,-541.54 1918.12,-540 1957.1,-513.36 1976.12,-498.21 1976.12,-451 1976.12,-451 1976.12,-451 1976.12,-161 1976.12,-106.91 1942.04,-95.05 1893.12,-72 1816.49,-35.89 1211.91,-22.52 1054.49,-19.63"/>
<polygon fill="grey" stroke="grey" stroke-width="2" points="1054.42,-16.13 1044.36,-19.45 1054.29,-23.13 1054.42,-16.13"/>
</g>
<!-- 5 -->
<g id="node6" class="node">
<title>5</title>
<path fill="none" stroke="#56d873" stroke-width="2" d="M1180.12,-684C1180.12,-684 1070.12,-684 1070.12,-684 1064.12,-684 1058.12,-678 1058.12,-672 1058.12,-672 1058.12,-660 1058.12,-660 1058.12,-654 1064.12,-648 1070.12,-648 1070.12,-648 1180.12,-648 1180.12,-648 1186.12,-648 1192.12,-654 1192.12,-660 1192.12,-660 1192.12,-672 1192.12,-672 1192.12,-678 1186.12,-684 1180.12,-684"/>
<text text-anchor="middle" x="1125.12" y="-663.5" font-family="sans" font-size="10.00">ncbi_genome_download</text>
</g>
<!-- 5&#45;&gt;4 -->
<g id="edge32" class="edge">
<title>5&#45;&gt;4</title>
<path fill="none" stroke="grey" stroke-width="2" d="M1192.23,-654.48C1207.92,-652.19 1224.59,-649.89 1240.12,-648 1404.37,-628.05 1451.75,-648.73 1617.42,-611.78"/>
<polygon fill="grey" stroke="grey" stroke-width="2" points="1618.49,-615.12 1627.47,-609.5 1616.94,-608.3 1618.49,-615.12"/>
</g>
<!-- 9 -->
<g id="node10" class="node">
<title>9</title>
<path fill="none" stroke="#565bd8" stroke-width="2" d="M139.62,-180C139.62,-180 24.62,-180 24.62,-180 18.62,-180 12.62,-174 12.62,-168 12.62,-168 12.62,-156 12.62,-156 12.62,-150 18.62,-144 24.62,-144 24.62,-144 139.62,-144 139.62,-144 145.62,-144 151.62,-150 151.62,-156 151.62,-156 151.62,-168 151.62,-168 151.62,-174 145.62,-180 139.62,-180"/>
<text text-anchor="middle" x="82.12" y="-159.5" font-family="sans" font-size="10.00">extract_ncbi_information</text>
</g>
<!-- 5&#45;&gt;9 -->
<g id="edge35" class="edge">
<title>5&#45;&gt;9</title>
<path fill="none" stroke="grey" stroke-width="2" d="M1058.04,-661.92C843.35,-651.19 187.12,-611.17 187.12,-523 187.12,-523 187.12,-523 187.12,-305 187.12,-255.46 145.3,-211.9 114.44,-186.49"/>
<polygon fill="grey" stroke="grey" stroke-width="2" points="116.47,-183.63 106.47,-180.13 112.1,-189.1 116.47,-183.63"/>
</g>
<!-- 11 -->
<g id="node12" class="node">
<title>11</title>
<path fill="none" stroke="#56d8b1" stroke-width="2" d="M1011.12,-612C1011.12,-612 981.12,-612 981.12,-612 975.12,-612 969.12,-606 969.12,-600 969.12,-600 969.12,-588 969.12,-588 969.12,-582 975.12,-576 981.12,-576 981.12,-576 1011.12,-576 1011.12,-576 1017.12,-576 1023.12,-582 1023.12,-588 1023.12,-588 1023.12,-600 1023.12,-600 1023.12,-606 1017.12,-612 1011.12,-612"/>
<text text-anchor="middle" x="996.12" y="-591.5" font-family="sans" font-size="10.00">mlst</text>
</g>
<!-- 5&#45;&gt;11 -->
<g id="edge38" class="edge">
<title>5&#45;&gt;11</title>
<path fill="none" stroke="grey" stroke-width="2" d="M1093.56,-647.88C1075.02,-637.81 1051.5,-625.05 1032.22,-614.59"/>
<polygon fill="grey" stroke="grey" stroke-width="2" points="1033.87,-611.51 1023.42,-609.81 1030.54,-617.66 1033.87,-611.51"/>
</g>
<!-- 12 -->
<g id="node13" class="node">
<title>12</title>
<path fill="none" stroke="#56d8a9" stroke-width="2" d="M1118.62,-612C1118.62,-612 1053.62,-612 1053.62,-612 1047.62,-612 1041.62,-606 1041.62,-600 1041.62,-600 1041.62,-588 1041.62,-588 1041.62,-582 1047.62,-576 1053.62,-576 1053.62,-576 1118.62,-576 1118.62,-576 1124.62,-576 1130.62,-582 1130.62,-588 1130.62,-588 1130.62,-600 1130.62,-600 1130.62,-606 1124.62,-612 1118.62,-612"/>
<text text-anchor="middle" x="1086.12" y="-591.5" font-family="sans" font-size="10.00">refseq_masher</text>
</g>
<!-- 5&#45;&gt;12 -->
<g id="edge41" class="edge">
<title>5&#45;&gt;12</title>
<path fill="none" stroke="grey" stroke-width="2" d="M1115.48,-647.7C1110.99,-639.64 1105.56,-629.89 1100.59,-620.98"/>
<polygon fill="grey" stroke="grey" stroke-width="2" points="1103.57,-619.14 1095.65,-612.1 1097.46,-622.54 1103.57,-619.14"/>
</g>
<!-- 13 -->
<g id="node14" class="node">
<title>13</title>
<path fill="none" stroke="#bed856" stroke-width="2" d="M1191.12,-612C1191.12,-612 1161.12,-612 1161.12,-612 1155.12,-612 1149.12,-606 1149.12,-600 1149.12,-600 1149.12,-588 1149.12,-588 1149.12,-582 1155.12,-576 1161.12,-576 1161.12,-576 1191.12,-576 1191.12,-576 1197.12,-576 1203.12,-582 1203.12,-588 1203.12,-588 1203.12,-600 1203.12,-600 1203.12,-606 1197.12,-612 1191.12,-612"/>
<text text-anchor="middle" x="1176.12" y="-591.5" font-family="sans" font-size="10.00">mash</text>
</g>
<!-- 5&#45;&gt;13 -->
<g id="edge44" class="edge">
<title>5&#45;&gt;13</title>
<path fill="none" stroke="grey" stroke-width="2" d="M1137.72,-647.7C1143.71,-639.47 1150.99,-629.48 1157.6,-620.42"/>
<polygon fill="grey" stroke="grey" stroke-width="2" points="1160.6,-622.25 1163.66,-612.1 1154.94,-618.13 1160.6,-622.25"/>
</g>
<!-- 14 -->
<g id="node15" class="node">
<title>14</title>
<path fill="none" stroke="#d8d356" stroke-width="2" d="M1597.12,-612C1597.12,-612 1567.12,-612 1567.12,-612 1561.12,-612 1555.12,-606 1555.12,-600 1555.12,-600 1555.12,-588 1555.12,-588 1555.12,-582 1561.12,-576 1567.12,-576 1567.12,-576 1597.12,-576 1597.12,-576 1603.12,-576 1609.12,-582 1609.12,-588 1609.12,-588 1609.12,-600 1609.12,-600 1609.12,-606 1603.12,-612 1597.12,-612"/>
<text text-anchor="middle" x="1582.12" y="-591.5" font-family="sans" font-size="10.00">fastani</text>
</g>
<!-- 5&#45;&gt;14 -->
<g id="edge47" class="edge">
<title>5&#45;&gt;14</title>
<path fill="none" stroke="grey" stroke-width="2" d="M1192.29,-654.92C1207.98,-652.6 1224.63,-650.18 1240.12,-648 1359.12,-631.21 1389.87,-633.48 1508.12,-612 1520.15,-609.81 1533.19,-606.98 1544.92,-604.25"/>
<polygon fill="grey" stroke="grey" stroke-width="2" points="1545.91,-607.61 1554.83,-601.9 1544.29,-600.8 1545.91,-607.61"/>
</g>
<!-- 16 -->
<g id="node17" class="node">
<title>16</title>
<path fill="none" stroke="#d86e56" stroke-width="2" d="M1800.62,-612C1800.62,-612 1769.62,-612 1769.62,-612 1763.62,-612 1757.62,-606 1757.62,-600 1757.62,-600 1757.62,-588 1757.62,-588 1757.62,-582 1763.62,-576 1769.62,-576 1769.62,-576 1800.62,-576 1800.62,-576 1806.62,-576 1812.62,-582 1812.62,-588 1812.62,-588 1812.62,-600 1812.62,-600 1812.62,-606 1806.62,-612 1800.62,-612"/>
<text text-anchor="middle" x="1785.12" y="-591.5" font-family="sans" font-size="10.00">checkm</text>
</g>
<!-- 5&#45;&gt;16 -->
<g id="edge52" class="edge">
<title>5&#45;&gt;16</title>
<path fill="none" stroke="grey" stroke-width="2" d="M1192.21,-654.27C1207.9,-651.99 1224.57,-649.74 1240.12,-648 1448.31,-624.67 1502.96,-643.24 1710.12,-612 1722.37,-610.15 1735.6,-607.41 1747.48,-604.66"/>
<polygon fill="grey" stroke="grey" stroke-width="2" points="1748.6,-607.99 1757.52,-602.27 1746.98,-601.19 1748.6,-607.99"/>
</g>
<!-- 5&#45;&gt;20 -->
<g id="edge58" class="edge">
<title>5&#45;&gt;20</title>
<path fill="none" stroke="grey" stroke-width="2" d="M1057.9,-653.61C998.95,-640.7 927.37,-616.07 960.12,-576 996.65,-531.29 1397.43,-485.15 1489.5,-468.09"/>
<polygon fill="grey" stroke="grey" stroke-width="2" points="1490.46,-471.47 1499.57,-466.07 1489.07,-464.61 1490.46,-471.47"/>
</g>
<!-- 23 -->
<g id="node24" class="node">
<title>23</title>
<path fill="none" stroke="#56d86b" stroke-width="2" d="M916.12,-540C916.12,-540 886.12,-540 886.12,-540 880.12,-540 874.12,-534 874.12,-528 874.12,-528 874.12,-516 874.12,-516 874.12,-510 880.12,-504 886.12,-504 886.12,-504 916.12,-504 916.12,-504 922.12,-504 928.12,-510 928.12,-516 928.12,-516 928.12,-528 928.12,-528 928.12,-534 922.12,-540 916.12,-540"/>
<text text-anchor="middle" x="901.12" y="-519.5" font-family="sans" font-size="10.00">prokka</text>
</g>
<!-- 5&#45;&gt;23 -->
<g id="edge62" class="edge">
<title>5&#45;&gt;23</title>
<path fill="none" stroke="grey" stroke-width="2" d="M1057.73,-663.23C1015.05,-658.58 961.6,-645.71 927.12,-612 910.7,-595.95 904.51,-570.17 902.24,-550.48"/>
<polygon fill="grey" stroke="grey" stroke-width="2" points="905.71,-549.92 901.34,-540.26 898.73,-550.53 905.71,-549.92"/>
</g>
<!-- 24 -->
<g id="node25" class="node">
<title>24</title>
<path fill="none" stroke="#d6d856" stroke-width="2" d="M1368.62,-612C1368.62,-612 1271.62,-612 1271.62,-612 1265.62,-612 1259.62,-606 1259.62,-600 1259.62,-600 1259.62,-588 1259.62,-588 1259.62,-582 1265.62,-576 1271.62,-576 1271.62,-576 1368.62,-576 1368.62,-576 1374.62,-576 1380.62,-582 1380.62,-588 1380.62,-588 1380.62,-600 1380.62,-600 1380.62,-606 1374.62,-612 1368.62,-612"/>
<text text-anchor="middle" x="1320.12" y="-591.5" font-family="sans" font-size="10.00">extract_meta_prokka</text>
</g>
<!-- 5&#45;&gt;24 -->
<g id="edge69" class="edge">
<title>5&#45;&gt;24</title>
<path fill="none" stroke="grey" stroke-width="2" d="M1172.82,-647.88C1200.07,-638.09 1234.41,-625.77 1263.08,-615.47"/>
<polygon fill="grey" stroke="grey" stroke-width="2" points="1264.34,-618.74 1272.57,-612.07 1261.98,-612.15 1264.34,-618.74"/>
</g>
<!-- 6 -->
<g id="node7" class="node">
<title>6</title>
<path fill="none" stroke="#d85e56" stroke-width="2" d="M1379.12,-684C1379.12,-684 1261.12,-684 1261.12,-684 1255.12,-684 1249.12,-678 1249.12,-672 1249.12,-672 1249.12,-660 1249.12,-660 1249.12,-654 1255.12,-648 1261.12,-648 1261.12,-648 1379.12,-648 1379.12,-648 1385.12,-648 1391.12,-654 1391.12,-660 1391.12,-660 1391.12,-672 1391.12,-672 1391.12,-678 1385.12,-684 1379.12,-684"/>
<text text-anchor="middle" x="1320.12" y="-663.5" font-family="sans" font-size="10.00">patric_genome_download</text>
</g>
<!-- 6&#45;&gt;4 -->
<g id="edge31" class="edge">
<title>6&#45;&gt;4</title>
<path fill="none" stroke="grey" stroke-width="2" d="M1391.35,-655.97C1449.9,-647.72 1535.01,-633.82 1617.6,-611.87"/>
<polygon fill="grey" stroke="grey" stroke-width="2" points="1618.66,-615.21 1627.4,-609.23 1616.83,-608.45 1618.66,-615.21"/>
</g>
<!-- 6&#45;&gt;11 -->
<g id="edge37" class="edge">
<title>6&#45;&gt;11</title>
<path fill="none" stroke="grey" stroke-width="2" d="M1248.94,-653.93C1177.43,-642.43 1072.37,-624.43 1033.12,-612 1033.02,-611.97 1032.92,-611.94 1032.81,-611.9"/>
<polygon fill="grey" stroke="grey" stroke-width="2" points="1033.89,-608.57 1023.3,-608.4 1031.47,-615.14 1033.89,-608.57"/>
</g>
<!-- 6&#45;&gt;12 -->
<g id="edge40" class="edge">
<title>6&#45;&gt;12</title>
<path fill="none" stroke="grey" stroke-width="2" d="M1261.26,-647.97C1228.4,-638.39 1186.48,-626.06 1140.71,-612.16"/>
<polygon fill="grey" stroke="grey" stroke-width="2" points="1141.47,-608.73 1130.89,-609.16 1139.43,-615.43 1141.47,-608.73"/>
</g>
<!-- 6&#45;&gt;13 -->
<g id="edge43" class="edge">
<title>6&#45;&gt;13</title>
<path fill="none" stroke="grey" stroke-width="2" d="M1284.89,-647.88C1262.89,-637.18 1234.62,-623.44 1212.42,-612.65"/>
<polygon fill="grey" stroke="grey" stroke-width="2" points="1213.84,-609.44 1203.31,-608.22 1210.78,-615.74 1213.84,-609.44"/>
</g>
<!-- 6&#45;&gt;14 -->
<g id="edge46" class="edge">
<title>6&#45;&gt;14</title>
<path fill="none" stroke="grey" stroke-width="2" d="M1391.57,-650.86C1435.24,-641.48 1491.96,-627.98 1541.12,-612 1542.54,-611.54 1543.98,-611.05 1545.43,-610.54"/>
<polygon fill="grey" stroke="grey" stroke-width="2" points="1546.86,-613.74 1555,-606.95 1544.4,-607.19 1546.86,-613.74"/>
</g>
<!-- 6&#45;&gt;16 -->
<g id="edge50" class="edge">
<title>6&#45;&gt;16</title>
<path fill="none" stroke="grey" stroke-width="2" d="M1391.22,-657.24C1469.62,-648.24 1599.34,-632.04 1710.12,-612 1722.31,-609.79 1735.52,-606.95 1747.41,-604.23"/>
<polygon fill="grey" stroke="grey" stroke-width="2" points="1748.51,-607.56 1757.45,-601.88 1746.92,-600.75 1748.51,-607.56"/>
</g>
<!-- 6&#45;&gt;20 -->
<g id="edge57" class="edge">
<title>6&#45;&gt;20</title>
<path fill="none" stroke="grey" stroke-width="2" d="M1391.13,-661.02C1430.22,-655.26 1476.97,-641.99 1508.12,-612 1545.22,-576.27 1555.89,-513.94 1558.93,-478.23"/>
<polygon fill="grey" stroke="grey" stroke-width="2" points="1562.44,-478.28 1559.65,-468.05 1555.46,-477.78 1562.44,-478.28"/>
</g>
<!-- 6&#45;&gt;23 -->
<g id="edge65" class="edge">
<title>6&#45;&gt;23</title>
<path fill="none" stroke="grey" stroke-width="2" d="M1296.71,-647.84C1283.15,-637.71 1265.9,-624.46 1251.12,-612 1233.08,-596.8 1233.48,-586.01 1212.12,-576 1100.89,-523.9 1056.14,-574.02 938.12,-540 938.02,-539.97 937.91,-539.94 937.81,-539.91"/>
<polygon fill="grey" stroke="grey" stroke-width="2" points="938.84,-536.56 928.25,-536.57 936.53,-543.17 938.84,-536.56"/>
</g>
<!-- 6&#45;&gt;24 -->
<g id="edge68" class="edge">
<title>6&#45;&gt;24</title>
<path fill="none" stroke="grey" stroke-width="2" d="M1320.12,-647.7C1320.12,-639.98 1320.12,-630.71 1320.12,-622.11"/>
<polygon fill="grey" stroke="grey" stroke-width="2" points="1323.62,-622.1 1320.12,-612.1 1316.62,-622.1 1323.62,-622.1"/>
</g>
<!-- 7 -->
<g id="node8" class="node">
<title>7</title>
<path fill="none" stroke="#d89c56" stroke-width="2" d="M1625.62,-684C1625.62,-684 1538.62,-684 1538.62,-684 1532.62,-684 1526.62,-678 1526.62,-672 1526.62,-672 1526.62,-660 1526.62,-660 1526.62,-654 1532.62,-648 1538.62,-648 1538.62,-648 1625.62,-648 1625.62,-648 1631.62,-648 1637.62,-654 1637.62,-660 1637.62,-660 1637.62,-672 1637.62,-672 1637.62,-678 1631.62,-684 1625.62,-684"/>
<text text-anchor="middle" x="1582.12" y="-663.5" font-family="sans" font-size="10.00">copy_custom_fasta</text>
</g>
<!-- 7&#45;&gt;4 -->
<g id="edge30" class="edge">
<title>7&#45;&gt;4</title>
<path fill="none" stroke="grey" stroke-width="2" d="M1602.39,-647.7C1612.62,-638.97 1625.18,-628.24 1636.3,-618.75"/>
<polygon fill="grey" stroke="grey" stroke-width="2" points="1638.75,-621.26 1644.08,-612.1 1634.2,-615.94 1638.75,-621.26"/>
</g>
<!-- 7&#45;&gt;11 -->
<g id="edge36" class="edge">
<title>7&#45;&gt;11</title>
<path fill="none" stroke="grey" stroke-width="2" d="M1526.39,-659.74C1387.95,-646.66 1039.04,-613.6 1033.12,-612 1033.02,-611.97 1032.91,-611.94 1032.81,-611.92"/>
<polygon fill="grey" stroke="grey" stroke-width="2" points="1033.81,-608.56 1023.21,-608.68 1031.57,-615.19 1033.81,-608.56"/>
</g>
<!-- 7&#45;&gt;12 -->
<g id="edge39" class="edge">
<title>7&#45;&gt;12</title>
<path fill="none" stroke="grey" stroke-width="2" d="M1526.26,-659.61C1428.33,-649.95 1228.53,-629.26 1140.64,-611.81"/>
<polygon fill="grey" stroke="grey" stroke-width="2" points="1141.24,-608.36 1130.74,-609.75 1139.81,-615.21 1141.24,-608.36"/>
</g>
<!-- 7&#45;&gt;13 -->
<g id="edge42" class="edge">
<title>7&#45;&gt;13</title>
<path fill="none" stroke="grey" stroke-width="2" d="M1526.58,-657.22C1460.67,-647.73 1347.54,-630.63 1251.12,-612 1238.73,-609.61 1225.26,-606.66 1213.2,-603.9"/>
<polygon fill="grey" stroke="grey" stroke-width="2" points="1213.99,-600.49 1203.46,-601.64 1212.41,-607.31 1213.99,-600.49"/>
</g>
<!-- 7&#45;&gt;14 -->
<g id="edge45" class="edge">
<title>7&#45;&gt;14</title>
<path fill="none" stroke="grey" stroke-width="2" d="M1582.12,-647.7C1582.12,-639.98 1582.12,-630.71 1582.12,-622.11"/>
<polygon fill="grey" stroke="grey" stroke-width="2" points="1585.62,-622.1 1582.12,-612.1 1578.62,-622.1 1585.62,-622.1"/>
</g>
<!-- 7&#45;&gt;16 -->
<g id="edge49" class="edge">
<title>7&#45;&gt;16</title>
<path fill="none" stroke="grey" stroke-width="2" d="M1636.83,-647.99C1668.13,-638.01 1708.03,-624.86 1743.12,-612 1744.55,-611.48 1746,-610.93 1747.47,-610.38"/>
<polygon fill="grey" stroke="grey" stroke-width="2" points="1749.15,-613.48 1757.2,-606.6 1746.62,-606.96 1749.15,-613.48"/>
</g>
<!-- 7&#45;&gt;20 -->
<g id="edge56" class="edge">
<title>7&#45;&gt;20</title>
<path fill="none" stroke="grey" stroke-width="2" d="M1637.96,-655.26C1763.92,-632.74 2061.38,-576.21 2089.12,-540 2098.85,-527.3 2099.85,-515.86 2089.12,-504 2058.95,-470.66 1768.17,-457.37 1631.04,-452.92"/>
<polygon fill="grey" stroke="grey" stroke-width="2" points="1631.14,-449.42 1621.03,-452.6 1630.92,-456.42 1631.14,-449.42"/>
</g>
<!-- 7&#45;&gt;23 -->
<g id="edge64" class="edge">
<title>7&#45;&gt;23</title>
<path fill="none" stroke="grey" stroke-width="2" d="M1637.87,-656.52C1664.47,-649.36 1693.95,-636.2 1710.12,-612 1719.01,-598.7 1721.16,-587.57 1710.12,-576 1650.83,-513.88 1021.55,-560.3 938.12,-540 938.01,-539.97 937.91,-539.95 937.81,-539.92"/>
<polygon fill="grey" stroke="grey" stroke-width="2" points="938.76,-536.56 928.17,-536.84 936.63,-543.22 938.76,-536.56"/>
</g>
<!-- 7&#45;&gt;24 -->
<g id="edge67" class="edge">
<title>7&#45;&gt;24</title>
<path fill="none" stroke="grey" stroke-width="2" d="M1526.55,-650.15C1486.84,-639.54 1433.09,-625.18 1390.39,-613.78"/>
<polygon fill="grey" stroke="grey" stroke-width="2" points="1391.19,-610.37 1380.63,-611.17 1389.38,-617.13 1391.19,-610.37"/>
</g>
<!-- 8 -->
<g id="node9" class="node">
<title>8</title>
<path fill="none" stroke="#56d8a2" stroke-width="2" d="M289.62,-108C289.62,-108 198.62,-108 198.62,-108 192.62,-108 186.62,-102 186.62,-96 186.62,-96 186.62,-84 186.62,-84 186.62,-78 192.62,-72 198.62,-72 198.62,-72 289.62,-72 289.62,-72 295.62,-72 301.62,-78 301.62,-84 301.62,-84 301.62,-96 301.62,-96 301.62,-102 295.62,-108 289.62,-108"/>
<text text-anchor="middle" x="244.12" y="-87.5" font-family="sans" font-size="10.00">extract_patric_meta</text>
</g>
<!-- 8&#45;&gt;0 -->
<g id="edge17" class="edge">
<title>8&#45;&gt;0</title>
<path fill="none" stroke="grey" stroke-width="2" d="M301.73,-74.56C306.58,-73.6 311.42,-72.73 316.12,-72 567.69,-33.03 874.69,-22.38 979.78,-19.77"/>
<polygon fill="grey" stroke="grey" stroke-width="2" points="979.96,-23.27 989.88,-19.53 979.8,-16.27 979.96,-23.27"/>
</g>
<!-- 9&#45;&gt;0 -->
<g id="edge28" class="edge">
<title>9&#45;&gt;0</title>
<path fill="none" stroke="grey" stroke-width="2" d="M44.23,-143.91C29.89,-135.33 15.11,-123.43 7.12,-108 -0.24,-93.79 -3.9,-83.61 7.12,-72 41.24,-36.04 801.5,-22.27 979.89,-19.53"/>
<polygon fill="grey" stroke="grey" stroke-width="2" points="980.14,-23.03 990.09,-19.38 980.03,-16.03 980.14,-23.03"/>
</g>
<!-- 9&#45;&gt;8 -->
<g id="edge34" class="edge">
<title>9&#45;&gt;8</title>
<path fill="none" stroke="grey" stroke-width="2" d="M121.75,-143.88C143.89,-134.31 171.68,-122.3 195.18,-112.15"/>
<polygon fill="grey" stroke="grey" stroke-width="2" points="196.83,-115.25 204.62,-108.07 194.05,-108.82 196.83,-115.25"/>
</g>
<!-- 10 -->
<g id="node11" class="node">
<title>10</title>
<path fill="none" stroke="#d89556" stroke-width="2" d="M290.12,-180C290.12,-180 182.12,-180 182.12,-180 176.12,-180 170.12,-174 170.12,-168 170.12,-168 170.12,-156 170.12,-156 170.12,-150 176.12,-144 182.12,-144 182.12,-144 290.12,-144 290.12,-144 296.12,-144 302.12,-150 302.12,-156 302.12,-156 302.12,-168 302.12,-168 302.12,-174 296.12,-180 290.12,-180"/>
<text text-anchor="middle" x="236.12" y="-159.5" font-family="sans" font-size="10.00">download_patric_tables</text>
</g>
<!-- 10&#45;&gt;8 -->
<g id="edge33" class="edge">
<title>10&#45;&gt;8</title>
<path fill="none" stroke="grey" stroke-width="2" d="M238.09,-143.7C238.98,-135.98 240.04,-126.71 241.02,-118.11"/>
<polygon fill="grey" stroke="grey" stroke-width="2" points="244.5,-118.44 242.16,-108.1 237.55,-117.64 244.5,-118.44"/>
</g>
<!-- 11&#45;&gt;0 -->
<g id="edge18" class="edge">
<title>11&#45;&gt;0</title>
<path fill="none" stroke="grey" stroke-width="2" d="M968.86,-592.57C852.61,-590.49 401.96,-579.88 354.12,-540 322.65,-513.77 330.12,-491.97 330.12,-451 330.12,-451 330.12,-451 330.12,-161 330.12,-120.03 322.61,-98.19 354.12,-72 402.37,-31.89 846.66,-21.68 979.67,-19.52"/>
<polygon fill="grey" stroke="grey" stroke-width="2" points="979.83,-23.01 989.77,-19.36 979.72,-16.01 979.83,-23.01"/>
</g>
<!-- 12&#45;&gt;0 -->
<g id="edge19" class="edge">
<title>12&#45;&gt;0</title>
<path fill="none" stroke="grey" stroke-width="2" d="M1041.54,-578.03C1038.38,-577.25 1035.21,-576.56 1032.12,-576 962.05,-563.21 447.42,-584.88 392.12,-540 360.31,-514.18 368.12,-491.97 368.12,-451 368.12,-451 368.12,-451 368.12,-161 368.12,-120.03 360.68,-98.27 392.12,-72 437.28,-34.27 851.83,-22.47 979.72,-19.71"/>
<polygon fill="grey" stroke="grey" stroke-width="2" points="979.89,-23.21 989.81,-19.5 979.74,-16.21 979.89,-23.21"/>
</g>
<!-- 13&#45;&gt;0 -->
<g id="edge6" class="edge">
<title>13&#45;&gt;0</title>
<path fill="none" stroke="grey" stroke-width="2" d="M1148.95,-579.1C1146.01,-577.92 1143.04,-576.86 1140.12,-576 1021.85,-541.26 987.07,-557.96 865.12,-540 659.53,-509.73 406.12,-658.8 406.12,-451 406.12,-451 406.12,-451 406.12,-161 406.12,-117.63 410.83,-97.21 446.12,-72 489.46,-41.03 859.49,-24.8 979.62,-20.31"/>
<polygon fill="grey" stroke="grey" stroke-width="2" points="979.93,-23.8 989.8,-19.93 979.68,-16.8 979.93,-23.8"/>
</g>
<!-- 14&#45;&gt;0 -->
<g id="edge5" class="edge">
<title>14&#45;&gt;0</title>
<path fill="none" stroke="grey" stroke-width="2" d="M1609.52,-580.2C1612.74,-578.76 1615.99,-577.33 1619.12,-576 1759.25,-516.41 1938.12,-603.27 1938.12,-451 1938.12,-451 1938.12,-451 1938.12,-161 1938.12,-103.14 1896.21,-94.98 1843.12,-72 1770.19,-40.44 1206.64,-23.85 1054.73,-19.92"/>
<polygon fill="grey" stroke="grey" stroke-width="2" points="1054.61,-16.42 1044.52,-19.66 1054.43,-23.42 1054.61,-16.42"/>
</g>
<!-- 15 -->
<g id="node16" class="node">
<title>15</title>
<path fill="none" stroke="#56b9d8" stroke-width="2" d="M2068.12,-540C2068.12,-540 2016.12,-540 2016.12,-540 2010.12,-540 2004.12,-534 2004.12,-528 2004.12,-528 2004.12,-516 2004.12,-516 2004.12,-510 2010.12,-504 2016.12,-504 2016.12,-504 2068.12,-504 2068.12,-504 2074.12,-504 2080.12,-510 2080.12,-516 2080.12,-516 2080.12,-528 2080.12,-528 2080.12,-534 2074.12,-540 2068.12,-540"/>
<text text-anchor="middle" x="2042.12" y="-519.5" font-family="sans" font-size="10.00">checkm_out</text>
</g>
<!-- 15&#45;&gt;0 -->
<g id="edge23" class="edge">
<title>15&#45;&gt;0</title>
<path fill="none" stroke="grey" stroke-width="2" d="M2039.28,-503.57C2035.19,-476.84 2028.12,-424.09 2028.12,-379 2028.12,-379 2028.12,-379 2028.12,-161 2028.12,-117.99 2025.35,-96.67 1990.12,-72 1912.36,-17.56 1223.08,-17.84 1054.3,-18.74"/>
<polygon fill="grey" stroke="grey" stroke-width="2" points="1054.15,-15.24 1044.17,-18.79 1054.19,-22.24 1054.15,-15.24"/>
</g>
<!-- 16&#45;&gt;15 -->
<g id="edge48" class="edge">
<title>16&#45;&gt;15</title>
<path fill="none" stroke="grey" stroke-width="2" d="M1812.79,-586.43C1852.32,-576.92 1927.14,-558.42 1990.12,-540 1991.37,-539.63 1992.65,-539.26 1993.93,-538.87"/>
<polygon fill="grey" stroke="grey" stroke-width="2" points="1995.34,-542.1 2003.87,-535.81 1993.28,-535.41 1995.34,-542.1"/>
</g>
<!-- 17 -->
<g id="node18" class="node">
<title>17</title>
<path fill="none" stroke="#5692d8" stroke-width="2" d="M1818.12,-684C1818.12,-684 1752.12,-684 1752.12,-684 1746.12,-684 1740.12,-678 1740.12,-672 1740.12,-672 1740.12,-660 1740.12,-660 1740.12,-654 1746.12,-648 1752.12,-648 1752.12,-648 1818.12,-648 1818.12,-648 1824.12,-648 1830.12,-654 1830.12,-660 1830.12,-660 1830.12,-672 1830.12,-672 1830.12,-678 1824.12,-684 1818.12,-684"/>
<text text-anchor="middle" x="1785.12" y="-663.5" font-family="sans" font-size="10.00">install_checkm</text>
</g>
<!-- 17&#45;&gt;16 -->
<g id="edge51" class="edge">
<title>17&#45;&gt;16</title>
<path fill="none" stroke="grey" stroke-width="2" d="M1785.12,-647.7C1785.12,-639.98 1785.12,-630.71 1785.12,-622.11"/>
<polygon fill="grey" stroke="grey" stroke-width="2" points="1788.62,-622.1 1785.12,-612.1 1781.62,-622.1 1788.62,-622.1"/>
</g>
<!-- 18 -->
<g id="node19" class="node">
<title>18</title>
<path fill="none" stroke="#a7d856" stroke-width="2" d="M1579.12,-396C1579.12,-396 1549.12,-396 1549.12,-396 1543.12,-396 1537.12,-390 1537.12,-384 1537.12,-384 1537.12,-372 1537.12,-372 1537.12,-366 1543.12,-360 1549.12,-360 1549.12,-360 1579.12,-360 1579.12,-360 1585.12,-360 1591.12,-366 1591.12,-372 1591.12,-372 1591.12,-384 1591.12,-384 1591.12,-390 1585.12,-396 1579.12,-396"/>
<text text-anchor="middle" x="1564.12" y="-375.5" font-family="sans" font-size="10.00">gtdbtk</text>
</g>
<!-- 18&#45;&gt;0 -->
<g id="edge9" class="edge">
<title>18&#45;&gt;0</title>
<path fill="none" stroke="grey" stroke-width="2" d="M1591.33,-377.76C1671.32,-378.47 1900.12,-368.78 1900.12,-235 1900.12,-235 1900.12,-235 1900.12,-161 1900.12,-96.37 1845.52,-94.99 1785.12,-72 1649.22,-20.26 1189.44,-18.19 1054.59,-18.73"/>
<polygon fill="grey" stroke="grey" stroke-width="2" points="1054.34,-15.23 1044.36,-18.78 1054.38,-22.23 1054.34,-15.23"/>
</g>
<!-- 19 -->
<g id="node20" class="node">
<title>19</title>
<path fill="none" stroke="#ced856" stroke-width="2" d="M1469.62,-468C1469.62,-468 1410.62,-468 1410.62,-468 1404.62,-468 1398.62,-462 1398.62,-456 1398.62,-456 1398.62,-444 1398.62,-444 1398.62,-438 1404.62,-432 1410.62,-432 1410.62,-432 1469.62,-432 1469.62,-432 1475.62,-432 1481.62,-438 1481.62,-444 1481.62,-444 1481.62,-456 1481.62,-456 1481.62,-462 1475.62,-468 1469.62,-468"/>
<text text-anchor="middle" x="1440.12" y="-447.5" font-family="sans" font-size="10.00">install_gtdbtk</text>
</g>
<!-- 19&#45;&gt;18 -->
<g id="edge54" class="edge">
<title>19&#45;&gt;18</title>
<path fill="none" stroke="grey" stroke-width="2" d="M1470.45,-431.88C1487.87,-422.04 1509.85,-409.64 1528.14,-399.31"/>
<polygon fill="grey" stroke="grey" stroke-width="2" points="1530.06,-402.24 1537.05,-394.28 1526.62,-396.15 1530.06,-402.24"/>
</g>
<!-- 20&#45;&gt;18 -->
<g id="edge53" class="edge">
<title>20&#45;&gt;18</title>
<path fill="none" stroke="grey" stroke-width="2" d="M1561.11,-431.7C1561.55,-423.98 1562.08,-414.71 1562.57,-406.11"/>
<polygon fill="grey" stroke="grey" stroke-width="2" points="1566.06,-406.29 1563.14,-396.1 1559.08,-405.89 1566.06,-406.29"/>
</g>
<!-- 21 -->
<g id="node22" class="node">
<title>21</title>
<path fill="none" stroke="#56c9d8" stroke-width="2" d="M1141.12,-396C1141.12,-396 1063.12,-396 1063.12,-396 1057.12,-396 1051.12,-390 1051.12,-384 1051.12,-384 1051.12,-372 1051.12,-372 1051.12,-366 1057.12,-360 1063.12,-360 1063.12,-360 1141.12,-360 1141.12,-360 1147.12,-360 1153.12,-366 1153.12,-372 1153.12,-372 1153.12,-384 1153.12,-384 1153.12,-390 1147.12,-396 1141.12,-396"/>
<text text-anchor="middle" x="1102.12" y="-375.5" font-family="sans" font-size="10.00">copy_prokka_gbk</text>
</g>
<!-- 21&#45;&gt;0 -->
<g id="edge22" class="edge">
<title>21&#45;&gt;0</title>
<path fill="none" stroke="grey" stroke-width="2" d="M1091.69,-360C1078.05,-336.66 1054.87,-292.93 1046.12,-252 1042.77,-236.35 1041.53,-231.33 1046.12,-216 1066.58,-147.64 1153.91,-133.14 1117.12,-72 1103.44,-49.27 1076.37,-35.77 1053.84,-28.09"/>
<polygon fill="grey" stroke="grey" stroke-width="2" points="1054.79,-24.72 1044.2,-25.05 1052.69,-31.4 1054.79,-24.72"/>
</g>
<!-- 22&#45;&gt;21 -->
<g id="edge59" class="edge">
<title>22&#45;&gt;21</title>
<path fill="none" stroke="grey" stroke-width="2" d="M1009.21,-431.88C1025.44,-422.64 1045.66,-411.13 1063.09,-401.21"/>
<polygon fill="grey" stroke="grey" stroke-width="2" points="1064.95,-404.18 1071.91,-396.19 1061.49,-398.09 1064.95,-404.18"/>
</g>
<!-- 28 -->
<g id="node29" class="node">
<title>28</title>
<path fill="none" stroke="#56d87b" stroke-width="2" d="M1247.12,-396C1247.12,-396 1203.12,-396 1203.12,-396 1197.12,-396 1191.12,-390 1191.12,-384 1191.12,-384 1191.12,-372 1191.12,-372 1191.12,-366 1197.12,-360 1203.12,-360 1203.12,-360 1247.12,-360 1247.12,-360 1253.12,-360 1259.12,-366 1259.12,-372 1259.12,-372 1259.12,-384 1259.12,-384 1259.12,-390 1253.12,-396 1247.12,-396"/>
<text text-anchor="middle" x="1225.12" y="-375.5" font-family="sans" font-size="10.00">antismash</text>
</g>
<!-- 22&#45;&gt;28 -->
<g id="edge74" class="edge">
<title>22&#45;&gt;28</title>
<path fill="none" stroke="grey" stroke-width="2" d="M1015.68,-438.6C1059.79,-426.04 1133.89,-404.96 1181.09,-391.53"/>
<polygon fill="grey" stroke="grey" stroke-width="2" points="1182.08,-394.89 1190.74,-388.78 1180.16,-388.15 1182.08,-394.89"/>
</g>
<!-- 43 -->
<g id="node44" class="node">
<title>43</title>
<path fill="none" stroke="#59d856" stroke-width="2" d="M1021.12,-396C1021.12,-396 935.12,-396 935.12,-396 929.12,-396 923.12,-390 923.12,-384 923.12,-384 923.12,-372 923.12,-372 923.12,-366 929.12,-360 935.12,-360 935.12,-360 1021.12,-360 1021.12,-360 1027.12,-360 1033.12,-366 1033.12,-372 1033.12,-372 1033.12,-384 1033.12,-384 1033.12,-390 1027.12,-396 1021.12,-396"/>
<text text-anchor="middle" x="978.12" y="-375.5" font-family="sans" font-size="10.00">prep_automlst_gbk</text>
</g>
<!-- 22&#45;&gt;43 -->
<g id="edge93" class="edge">
<title>22&#45;&gt;43</title>
<path fill="none" stroke="grey" stroke-width="2" d="M978.87,-431.7C978.76,-423.98 978.63,-414.71 978.5,-406.11"/>
<polygon fill="grey" stroke="grey" stroke-width="2" points="982,-406.05 978.36,-396.1 975.01,-406.15 982,-406.05"/>
</g>
<!-- 23&#45;&gt;22 -->
<g id="edge61" class="edge">
<title>23&#45;&gt;22</title>
<path fill="none" stroke="grey" stroke-width="2" d="M920.4,-503.7C930.03,-495.05 941.85,-484.45 952.34,-475.03"/>
<polygon fill="grey" stroke="grey" stroke-width="2" points="954.95,-477.39 960.06,-468.1 950.28,-472.18 954.95,-477.39"/>
</g>
<!-- 47 -->
<g id="node48" class="node">
<title>47</title>
<path fill="none" stroke="#56b1d8" stroke-width="2" d="M864.12,-180C864.12,-180 834.12,-180 834.12,-180 828.12,-180 822.12,-174 822.12,-168 822.12,-168 822.12,-156 822.12,-156 822.12,-150 828.12,-144 834.12,-144 834.12,-144 864.12,-144 864.12,-144 870.12,-144 876.12,-150 876.12,-156 876.12,-156 876.12,-168 876.12,-168 876.12,-174 870.12,-180 864.12,-180"/>
<text text-anchor="middle" x="849.12" y="-159.5" font-family="sans" font-size="10.00">roary</text>
</g>
<!-- 23&#45;&gt;47 -->
<g id="edge97" class="edge">
<title>23&#45;&gt;47</title>
<path fill="none" stroke="grey" stroke-width="2" d="M878.17,-503.85C867.01,-494.41 854.28,-481.81 846.12,-468 825.28,-432.73 822.12,-419.97 822.12,-379 822.12,-379 822.12,-379 822.12,-305 822.12,-264.5 832.85,-218.63 840.78,-190.26"/>
<polygon fill="grey" stroke="grey" stroke-width="2" points="844.25,-190.87 843.65,-180.29 837.52,-188.93 844.25,-190.87"/>
</g>
<!-- 48 -->
<g id="node49" class="node">
<title>48</title>
<path fill="none" stroke="#afd856" stroke-width="2" d="M552.12,-108C552.12,-108 522.12,-108 522.12,-108 516.12,-108 510.12,-102 510.12,-96 510.12,-96 510.12,-84 510.12,-84 510.12,-78 516.12,-72 522.12,-72 522.12,-72 552.12,-72 552.12,-72 558.12,-72 564.12,-78 564.12,-84 564.12,-84 564.12,-96 564.12,-96 564.12,-102 558.12,-108 552.12,-108"/>
<text text-anchor="middle" x="537.12" y="-87.5" font-family="sans" font-size="10.00">eggnog</text>
</g>
<!-- 23&#45;&gt;48 -->
<g id="edge99" class="edge">
<title>23&#45;&gt;48</title>
<path fill="none" stroke="grey" stroke-width="2" d="M873.98,-504.53C858.7,-494.72 839.63,-481.57 824.12,-468 694.1,-354.27 647.48,-330.74 563.12,-180 552.34,-160.74 545.65,-136.59 541.76,-118.3"/>
<polygon fill="grey" stroke="grey" stroke-width="2" points="545.15,-117.43 539.78,-108.3 538.29,-118.78 545.15,-117.43"/>
</g>
<!-- 51 -->
<g id="node52" class="node">
<title>51</title>
<path fill="none" stroke="#5682d8" stroke-width="2" d="M574.62,-396C574.62,-396 485.62,-396 485.62,-396 479.62,-396 473.62,-390 473.62,-384 473.62,-384 473.62,-372 473.62,-372 473.62,-366 479.62,-360 485.62,-360 485.62,-360 574.62,-360 574.62,-360 580.62,-360 586.62,-366 586.62,-372 586.62,-372 586.62,-384 586.62,-384 586.62,-390 580.62,-396 574.62,-396"/>
<text text-anchor="middle" x="530.12" y="-375.5" font-family="sans" font-size="10.00">create_diamond_db</text>
</g>
<!-- 23&#45;&gt;51 -->
<g id="edge102" class="edge">
<title>23&#45;&gt;51</title>
<path fill="none" stroke="grey" stroke-width="2" d="M874.11,-518.56C809.9,-512.4 650.07,-494.73 604.12,-468 578.24,-452.95 557.43,-425.28 544.54,-404.77"/>
<polygon fill="grey" stroke="grey" stroke-width="2" points="547.53,-402.95 539.35,-396.21 541.54,-406.57 547.53,-402.95"/>
</g>
<!-- 54 -->
<g id="node55" class="node">
<title>54</title>
<path fill="none" stroke="#567bd8" stroke-width="2" d="M1095.62,-108C1095.62,-108 1046.62,-108 1046.62,-108 1040.62,-108 1034.62,-102 1034.62,-96 1034.62,-96 1034.62,-84 1034.62,-84 1034.62,-78 1040.62,-72 1046.62,-72 1046.62,-72 1095.62,-72 1095.62,-72 1101.62,-72 1107.62,-78 1107.62,-84 1107.62,-84 1107.62,-96 1107.62,-96 1107.62,-102 1101.62,-108 1095.62,-108"/>
<text text-anchor="middle" x="1071.12" y="-87.5" font-family="sans" font-size="10.00">deeptfactor</text>
</g>
<!-- 23&#45;&gt;54 -->
<g id="edge106" class="edge">
<title>23&#45;&gt;54</title>
<path fill="none" stroke="grey" stroke-width="2" d="M893.08,-503.71C870.81,-452.93 814.44,-302.39 885.12,-216 921.46,-171.58 962.49,-213.46 1009.12,-180 1031.47,-163.96 1048.5,-137.24 1059.01,-117.26"/>
<polygon fill="grey" stroke="grey" stroke-width="2" points="1062.26,-118.57 1063.63,-108.06 1056.01,-115.42 1062.26,-118.57"/>
</g>
<!-- 56 -->
<g id="node57" class="node">
<title>56</title>
<path fill="none" stroke="#b6d856" stroke-width="2" d="M540.12,-468C540.12,-468 446.12,-468 446.12,-468 440.12,-468 434.12,-462 434.12,-456 434.12,-456 434.12,-444 434.12,-444 434.12,-438 440.12,-432 446.12,-432 446.12,-432 540.12,-432 540.12,-432 546.12,-432 552.12,-438 552.12,-444 552.12,-444 552.12,-456 552.12,-456 552.12,-462 546.12,-468 540.12,-468"/>
<text text-anchor="middle" x="493.12" y="-447.5" font-family="sans" font-size="10.00">cblaster_genome_db</text>
</g>
<!-- 23&#45;&gt;56 -->
<g id="edge109" class="edge">
<title>23&#45;&gt;56</title>
<path fill="none" stroke="grey" stroke-width="2" d="M874.08,-517.39C816.97,-509.63 679.97,-490.23 566.12,-468 564.86,-467.75 563.59,-467.5 562.31,-467.25"/>
<polygon fill="grey" stroke="grey" stroke-width="2" points="562.91,-463.79 552.4,-465.18 561.48,-470.65 562.91,-463.79"/>
</g>
<!-- 24&#45;&gt;23 -->
<g id="edge66" class="edge">
<title>24&#45;&gt;23</title>
<path fill="none" stroke="grey" stroke-width="2" d="M1259.24,-578.63C1254.47,-577.68 1249.72,-576.79 1245.12,-576 1109.71,-552.78 1070.38,-577.13 938.12,-540 938.02,-539.97 937.91,-539.94 937.81,-539.91"/>
<polygon fill="grey" stroke="grey" stroke-width="2" points="938.83,-536.56 928.23,-536.61 936.55,-543.18 938.83,-536.56"/>
</g>
<!-- 25 -->
<g id="node26" class="node">
<title>25</title>
<path fill="none" stroke="#97d856" stroke-width="2" d="M1487.12,-612C1487.12,-612 1411.12,-612 1411.12,-612 1405.12,-612 1399.12,-606 1399.12,-600 1399.12,-600 1399.12,-588 1399.12,-588 1399.12,-582 1405.12,-576 1411.12,-576 1411.12,-576 1487.12,-576 1487.12,-576 1493.12,-576 1499.12,-582 1499.12,-588 1499.12,-588 1499.12,-600 1499.12,-600 1499.12,-606 1493.12,-612 1487.12,-612"/>
<text text-anchor="middle" x="1449.12" y="-591.5" font-family="sans" font-size="10.00">prokka_db_setup</text>
</g>
<!-- 25&#45;&gt;23 -->
<g id="edge63" class="edge">
<title>25&#45;&gt;23</title>
<path fill="none" stroke="grey" stroke-width="2" d="M1399.07,-577.84C1396.05,-577.16 1393.05,-576.53 1390.12,-576 1191.85,-539.92 1133.12,-590.85 938.12,-540 938.01,-539.97 937.91,-539.95 937.81,-539.92"/>
<polygon fill="grey" stroke="grey" stroke-width="2" points="938.79,-536.56 928.2,-536.74 936.59,-543.2 938.79,-536.56"/>
</g>
<!-- 26 -->
<g id="node27" class="node">
<title>26</title>
<path fill="none" stroke="#d8c356" stroke-width="2" d="M1781.62,-180C1781.62,-180 1686.62,-180 1686.62,-180 1680.62,-180 1674.62,-174 1674.62,-168 1674.62,-168 1674.62,-156 1674.62,-156 1674.62,-150 1680.62,-144 1686.62,-144 1686.62,-144 1781.62,-144 1781.62,-144 1787.62,-144 1793.62,-150 1793.62,-156 1793.62,-156 1793.62,-168 1793.62,-168 1793.62,-174 1787.62,-180 1781.62,-180"/>
<text text-anchor="middle" x="1734.12" y="-159.5" font-family="sans" font-size="10.00">antismash_summary</text>
</g>
<!-- 26&#45;&gt;0 -->
<g id="edge3" class="edge">
<title>26&#45;&gt;0</title>
<path fill="none" stroke="grey" stroke-width="2" d="M1728.29,-143.78C1720.19,-122.82 1703.38,-88.22 1676.12,-72 1622.63,-40.17 1186.7,-24.23 1054.79,-20.1"/>
<polygon fill="grey" stroke="grey" stroke-width="2" points="1054.51,-16.59 1044.4,-19.78 1054.29,-23.59 1054.51,-16.59"/>
</g>
<!-- 34 -->
<g id="node35" class="node">
<title>34</title>
<path fill="none" stroke="#80d856" stroke-width="2" d="M1655.12,-108C1655.12,-108 1549.12,-108 1549.12,-108 1543.12,-108 1537.12,-102 1537.12,-96 1537.12,-96 1537.12,-84 1537.12,-84 1537.12,-78 1543.12,-72 1549.12,-72 1549.12,-72 1655.12,-72 1655.12,-72 1661.12,-72 1667.12,-78 1667.12,-84 1667.12,-84 1667.12,-96 1667.12,-96 1667.12,-102 1661.12,-108 1655.12,-108"/>
<text text-anchor="middle" x="1602.12" y="-87.5" font-family="sans" font-size="10.00">bigscape_to_cytoscape</text>
</g>
<!-- 26&#45;&gt;34 -->
<g id="edge82" class="edge">
<title>26&#45;&gt;34</title>
<path fill="none" stroke="grey" stroke-width="2" d="M1701.83,-143.88C1684.25,-134.55 1662.31,-122.92 1643.49,-112.94"/>
<polygon fill="grey" stroke="grey" stroke-width="2" points="1645.01,-109.78 1634.53,-108.19 1641.73,-115.97 1645.01,-109.78"/>
</g>
<!-- 27&#45;&gt;26 -->
<g id="edge70" class="edge">
<title>27&#45;&gt;26</title>
<path fill="none" stroke="grey" stroke-width="2" d="M1543.64,-302.98C1589.16,-298.47 1649.53,-285.87 1691.12,-252 1710.38,-236.31 1721.61,-209.91 1727.73,-189.92"/>
<polygon fill="grey" stroke="grey" stroke-width="2" points="1731.14,-190.72 1730.48,-180.15 1724.4,-188.83 1731.14,-190.72"/>
</g>
<!-- 32 -->
<g id="node33" class="node">
<title>32</title>
<path fill="none" stroke="#d87d56" stroke-width="2" d="M1264.62,-252C1264.62,-252 1201.62,-252 1201.62,-252 1195.62,-252 1189.62,-246 1189.62,-240 1189.62,-240 1189.62,-228 1189.62,-228 1189.62,-222 1195.62,-216 1201.62,-216 1201.62,-216 1264.62,-216 1264.62,-216 1270.62,-216 1276.62,-222 1276.62,-228 1276.62,-228 1276.62,-240 1276.62,-240 1276.62,-246 1270.62,-252 1264.62,-252"/>
<text text-anchor="middle" x="1233.12" y="-231.5" font-family="sans" font-size="10.00">query_bigslice</text>
</g>
<!-- 27&#45;&gt;32 -->
<g id="edge78" class="edge">
<title>27&#45;&gt;32</title>
<path fill="none" stroke="grey" stroke-width="2" d="M1420.01,-287.97C1379.2,-276.4 1325.72,-261.24 1286.43,-250.11"/>
<polygon fill="grey" stroke="grey" stroke-width="2" points="1287.34,-246.73 1276.76,-247.37 1285.43,-253.46 1287.34,-246.73"/>
</g>
<!-- 27&#45;&gt;34 -->
<g id="edge81" class="edge">
<title>27&#45;&gt;34</title>
<path fill="none" stroke="grey" stroke-width="2" d="M1506.58,-287.86C1518.21,-278.75 1530.67,-266.43 1537.12,-252 1556.7,-208.17 1518.45,-187.33 1539.12,-144 1544.7,-132.29 1554.24,-122.23 1564.23,-114.11"/>
<polygon fill="grey" stroke="grey" stroke-width="2" points="1566.41,-116.85 1572.27,-108.02 1562.19,-111.27 1566.41,-116.85"/>
</g>
<!-- 37 -->
<g id="node38" class="node">
<title>37</title>
<path fill="none" stroke="#70d856" stroke-width="2" d="M1644.12,-180C1644.12,-180 1560.12,-180 1560.12,-180 1554.12,-180 1548.12,-174 1548.12,-168 1548.12,-168 1548.12,-156 1548.12,-156 1548.12,-150 1554.12,-144 1560.12,-144 1560.12,-144 1644.12,-144 1644.12,-144 1650.12,-144 1656.12,-150 1656.12,-156 1656.12,-156 1656.12,-168 1656.12,-168 1656.12,-174 1650.12,-180 1644.12,-180"/>
<text text-anchor="middle" x="1602.12" y="-159.5" font-family="sans" font-size="10.00">copy_bigscape_zip</text>
</g>
<!-- 27&#45;&gt;37 -->
<g id="edge84" class="edge">
<title>27&#45;&gt;37</title>
<path fill="none" stroke="grey" stroke-width="2" d="M1522.13,-287.93C1538.99,-279.31 1557.39,-267.36 1570.12,-252 1584.88,-234.18 1593.08,-209.02 1597.48,-189.99"/>
<polygon fill="grey" stroke="grey" stroke-width="2" points="1600.92,-190.64 1599.55,-180.14 1594.07,-189.2 1600.92,-190.64"/>
</g>
<!-- 38 -->
<g id="node39" class="node">
<title>38</title>
<path fill="none" stroke="#d86656" stroke-width="2" d="M1670.12,-252C1670.12,-252 1634.12,-252 1634.12,-252 1628.12,-252 1622.12,-246 1622.12,-240 1622.12,-240 1622.12,-228 1622.12,-228 1622.12,-222 1628.12,-216 1634.12,-216 1634.12,-216 1670.12,-216 1670.12,-216 1676.12,-216 1682.12,-222 1682.12,-228 1682.12,-228 1682.12,-240 1682.12,-240 1682.12,-246 1676.12,-252 1670.12,-252"/>
<text text-anchor="middle" x="1652.12" y="-231.5" font-family="sans" font-size="10.00">bigscape</text>
</g>
<!-- 27&#45;&gt;38 -->
<g id="edge86" class="edge">
<title>27&#45;&gt;38</title>
<path fill="none" stroke="grey" stroke-width="2" d="M1522.19,-287.88C1549.74,-276.67 1585.51,-262.11 1612.54,-251.11"/>
<polygon fill="grey" stroke="grey" stroke-width="2" points="1614.13,-254.24 1622.07,-247.23 1611.49,-247.76 1614.13,-254.24"/>
</g>
<!-- 40 -->
<g id="node41" class="node">
<title>40</title>
<path fill="none" stroke="#56d8d0" stroke-width="2" d="M1402.62,-252C1402.62,-252 1345.62,-252 1345.62,-252 1339.62,-252 1333.62,-246 1333.62,-240 1333.62,-240 1333.62,-228 1333.62,-228 1333.62,-222 1339.62,-216 1345.62,-216 1345.62,-216 1402.62,-216 1402.62,-216 1408.62,-216 1414.62,-222 1414.62,-228 1414.62,-228 1414.62,-240 1414.62,-240 1414.62,-246 1408.62,-252 1402.62,-252"/>
<text text-anchor="middle" x="1374.12" y="-231.5" font-family="sans" font-size="10.00">bigslice_prep</text>
</g>
<!-- 27&#45;&gt;40 -->
<g id="edge89" class="edge">
<title>27&#45;&gt;40</title>
<path fill="none" stroke="grey" stroke-width="2" d="M1454.19,-287.88C1440.46,-278.81 1423.41,-267.55 1408.58,-257.76"/>
<polygon fill="grey" stroke="grey" stroke-width="2" points="1410.42,-254.78 1400.15,-252.19 1406.56,-260.62 1410.42,-254.78"/>
</g>
<!-- 57 -->
<g id="node58" class="node">
<title>57</title>
<path fill="none" stroke="#d8cb56" stroke-width="2" d="M1515.62,-252C1515.62,-252 1444.62,-252 1444.62,-252 1438.62,-252 1432.62,-246 1432.62,-240 1432.62,-240 1432.62,-228 1432.62,-228 1432.62,-222 1438.62,-216 1444.62,-216 1444.62,-216 1515.62,-216 1515.62,-216 1521.62,-216 1527.62,-222 1527.62,-228 1527.62,-228 1527.62,-240 1527.62,-240 1527.62,-246 1521.62,-252 1515.62,-252"/>
<text text-anchor="middle" x="1480.12" y="-231.5" font-family="sans" font-size="10.00">cblaster_bgc_db</text>
</g>
<!-- 27&#45;&gt;57 -->
<g id="edge110" class="edge">
<title>27&#45;&gt;57</title>
<path fill="none" stroke="grey" stroke-width="2" d="M1480.12,-287.7C1480.12,-279.98 1480.12,-270.71 1480.12,-262.11"/>
<polygon fill="grey" stroke="grey" stroke-width="2" points="1483.62,-262.1 1480.12,-252.1 1476.62,-262.1 1483.62,-262.1"/>
</g>
<!-- 28&#45;&gt;27 -->
<g id="edge71" class="edge">
<title>28&#45;&gt;27</title>
<path fill="none" stroke="grey" stroke-width="2" d="M1259.24,-367.63C1297.14,-357.23 1359.41,-340.14 1408.18,-326.75"/>
<polygon fill="grey" stroke="grey" stroke-width="2" points="1409.34,-330.06 1418.06,-324.04 1407.49,-323.31 1409.34,-330.06"/>
</g>
<!-- 30 -->
<g id="node31" class="node">
<title>30</title>
<path fill="none" stroke="#56d8b9" stroke-width="2" d="M1159.12,-252C1159.12,-252 1067.12,-252 1067.12,-252 1061.12,-252 1055.12,-246 1055.12,-240 1055.12,-240 1055.12,-228 1055.12,-228 1055.12,-222 1061.12,-216 1067.12,-216 1067.12,-216 1159.12,-216 1159.12,-216 1165.12,-216 1171.12,-222 1171.12,-228 1171.12,-228 1171.12,-240 1171.12,-240 1171.12,-246 1165.12,-252 1159.12,-252"/>
<text text-anchor="middle" x="1113.12" y="-231.5" font-family="sans" font-size="10.00">copy_antismash_zip</text>
</g>
<!-- 28&#45;&gt;30 -->
<g id="edge75" class="edge">
<title>28&#45;&gt;30</title>
<path fill="none" stroke="grey" stroke-width="2" d="M1194.45,-359.95C1180.12,-350.78 1163.71,-338.39 1152.12,-324 1137.3,-305.6 1127.02,-280.69 1120.75,-261.9"/>
<polygon fill="grey" stroke="grey" stroke-width="2" points="1124.03,-260.66 1117.68,-252.18 1117.35,-262.77 1124.03,-260.66"/>
</g>
<!-- 45 -->
<g id="node46" class="node">
<title>45</title>
<path fill="none" stroke="#56a2d8" stroke-width="2" d="M1322.12,-324C1322.12,-324 1292.12,-324 1292.12,-324 1286.12,-324 1280.12,-318 1280.12,-312 1280.12,-312 1280.12,-300 1280.12,-300 1280.12,-294 1286.12,-288 1292.12,-288 1292.12,-288 1322.12,-288 1322.12,-288 1328.12,-288 1334.12,-294 1334.12,-300 1334.12,-300 1334.12,-312 1334.12,-312 1334.12,-318 1328.12,-324 1322.12,-324"/>
<text text-anchor="middle" x="1307.12" y="-303.5" font-family="sans" font-size="10.00">arts</text>
</g>
<!-- 28&#45;&gt;45 -->
<g id="edge94" class="edge">
<title>28&#45;&gt;45</title>
<path fill="none" stroke="grey" stroke-width="2" d="M1245.39,-359.7C1255.62,-350.97 1268.18,-340.24 1279.3,-330.75"/>
<polygon fill="grey" stroke="grey" stroke-width="2" points="1281.75,-333.26 1287.08,-324.1 1277.2,-327.94 1281.75,-333.26"/>
</g>
<!-- 29 -->
<g id="node30" class="node">
<title>29</title>
<path fill="none" stroke="#d8bc56" stroke-width="2" d="M1271.62,-468C1271.62,-468 1178.62,-468 1178.62,-468 1172.62,-468 1166.62,-462 1166.62,-456 1166.62,-456 1166.62,-444 1166.62,-444 1166.62,-438 1172.62,-432 1178.62,-432 1178.62,-432 1271.62,-432 1271.62,-432 1277.62,-432 1283.62,-438 1283.62,-444 1283.62,-444 1283.62,-456 1283.62,-456 1283.62,-462 1277.62,-468 1271.62,-468"/>
<text text-anchor="middle" x="1225.12" y="-447.5" font-family="sans" font-size="10.00">antismash_db_setup</text>
</g>
<!-- 29&#45;&gt;28 -->
<g id="edge73" class="edge">
<title>29&#45;&gt;28</title>
<path fill="none" stroke="grey" stroke-width="2" d="M1225.12,-431.7C1225.12,-423.98 1225.12,-414.71 1225.12,-406.11"/>
<polygon fill="grey" stroke="grey" stroke-width="2" points="1228.62,-406.1 1225.12,-396.1 1221.62,-406.1 1228.62,-406.1"/>
</g>
<!-- 30&#45;&gt;0 -->
<g id="edge20" class="edge">
<title>30&#45;&gt;0</title>
<path fill="none" stroke="grey" stroke-width="2" d="M1125.01,-215.9C1145.13,-184.65 1180.86,-117.34 1150.12,-72 1128.88,-40.67 1085.84,-27.86 1054.46,-22.62"/>
<polygon fill="grey" stroke="grey" stroke-width="2" points="1054.72,-19.12 1044.31,-21.12 1053.69,-26.05 1054.72,-19.12"/>
</g>
<!-- 31 -->
<g id="node32" class="node">
<title>31</title>
<path fill="none" stroke="#d8a456" stroke-width="2" d="M1337.62,-108C1337.62,-108 1214.62,-108 1214.62,-108 1208.62,-108 1202.62,-102 1202.62,-96 1202.62,-96 1202.62,-84 1202.62,-84 1202.62,-78 1208.62,-72 1214.62,-72 1214.62,-72 1337.62,-72 1337.62,-72 1343.62,-72 1349.62,-78 1349.62,-84 1349.62,-84 1349.62,-96 1349.62,-96 1349.62,-102 1343.62,-108 1337.62,-108"/>
<text text-anchor="middle" x="1276.12" y="-87.5" font-family="sans" font-size="10.00">summarize_bigslice_query</text>
</g>
<!-- 31&#45;&gt;0 -->
<g id="edge1" class="edge">
<title>31&#45;&gt;0</title>
<path fill="none" stroke="grey" stroke-width="2" d="M1213.09,-71.97C1163.29,-58.51 1095.5,-40.18 1054.1,-29"/>
<polygon fill="grey" stroke="grey" stroke-width="2" points="1054.99,-25.61 1044.43,-26.38 1053.17,-32.37 1054.99,-25.61"/>
</g>
<!-- 32&#45;&gt;31 -->
<g id="edge76" class="edge">
<title>32&#45;&gt;31</title>
<path fill="none" stroke="grey" stroke-width="2" d="M1238.3,-215.87C1245.67,-191.56 1259.21,-146.82 1267.94,-118.01"/>
<polygon fill="grey" stroke="grey" stroke-width="2" points="1271.36,-118.77 1270.91,-108.19 1264.66,-116.75 1271.36,-118.77"/>
</g>
<!-- 33 -->
<g id="node34" class="node">
<title>33</title>
<path fill="none" stroke="#68d856" stroke-width="2" d="M1249.62,-324C1249.62,-324 1172.62,-324 1172.62,-324 1166.62,-324 1160.62,-318 1160.62,-312 1160.62,-312 1160.62,-300 1160.62,-300 1160.62,-294 1166.62,-288 1172.62,-288 1172.62,-288 1249.62,-288 1249.62,-288 1255.62,-288 1261.62,-294 1261.62,-300 1261.62,-300 1261.62,-312 1261.62,-312 1261.62,-318 1255.62,-324 1249.62,-324"/>
<text text-anchor="middle" x="1211.12" y="-303.5" font-family="sans" font-size="10.00">fetch_bigslice_db</text>
</g>
<!-- 33&#45;&gt;32 -->
<g id="edge77" class="edge">
<title>33&#45;&gt;32</title>
<path fill="none" stroke="grey" stroke-width="2" d="M1216.56,-287.7C1219.01,-279.9 1221.96,-270.51 1224.69,-261.83"/>
<polygon fill="grey" stroke="grey" stroke-width="2" points="1228.08,-262.69 1227.74,-252.1 1221.4,-260.59 1228.08,-262.69"/>
</g>
<!-- 34&#45;&gt;0 -->
<g id="edge12" class="edge">
<title>34&#45;&gt;0</title>
<path fill="none" stroke="grey" stroke-width="2" d="M1536.94,-79.62C1518.58,-77.06 1498.57,-74.34 1480.12,-72 1322.2,-51.96 1133.54,-31.42 1054.67,-22.98"/>
<polygon fill="grey" stroke="grey" stroke-width="2" points="1054.6,-19.46 1044.28,-21.87 1053.85,-26.42 1054.6,-19.46"/>
</g>
<!-- 35 -->
<g id="node36" class="node">
<title>35</title>
<path fill="none" stroke="#56d8c9" stroke-width="2" d="M1821.62,-252C1821.62,-252 1750.62,-252 1750.62,-252 1744.62,-252 1738.62,-246 1738.62,-240 1738.62,-240 1738.62,-228 1738.62,-228 1738.62,-222 1744.62,-216 1750.62,-216 1750.62,-216 1821.62,-216 1821.62,-216 1827.62,-216 1833.62,-222 1833.62,-228 1833.62,-228 1833.62,-240 1833.62,-240 1833.62,-246 1827.62,-252 1821.62,-252"/>
<text text-anchor="middle" x="1786.12" y="-231.5" font-family="sans" font-size="10.00">get_mibig_table</text>
</g>
<!-- 35&#45;&gt;34 -->
<g id="edge80" class="edge">
<title>35&#45;&gt;34</title>
<path fill="none" stroke="grey" stroke-width="2" d="M1796.67,-215.75C1807.03,-196.34 1819.15,-164.81 1803.12,-144 1787.5,-123.73 1727.52,-109.66 1677.11,-101.13"/>
<polygon fill="grey" stroke="grey" stroke-width="2" points="1677.6,-97.67 1667.17,-99.5 1676.47,-104.57 1677.6,-97.67"/>
</g>
<!-- 36 -->
<g id="node37" class="node">
<title>36</title>
<path fill="none" stroke="#78d856" stroke-width="2" d="M1754.62,-324C1754.62,-324 1683.62,-324 1683.62,-324 1677.62,-324 1671.62,-318 1671.62,-312 1671.62,-312 1671.62,-300 1671.62,-300 1671.62,-294 1677.62,-288 1683.62,-288 1683.62,-288 1754.62,-288 1754.62,-288 1760.62,-288 1766.62,-294 1766.62,-300 1766.62,-300 1766.62,-312 1766.62,-312 1766.62,-318 1760.62,-324 1754.62,-324"/>
<text text-anchor="middle" x="1719.12" y="-303.5" font-family="sans" font-size="10.00">install_bigscape</text>
</g>
<!-- 36&#45;&gt;35 -->
<g id="edge83" class="edge">
<title>36&#45;&gt;35</title>
<path fill="none" stroke="grey" stroke-width="2" d="M1735.68,-287.7C1743.79,-279.22 1753.71,-268.86 1762.59,-259.58"/>
<polygon fill="grey" stroke="grey" stroke-width="2" points="1765.36,-261.75 1769.75,-252.1 1760.3,-256.91 1765.36,-261.75"/>
</g>
<!-- 36&#45;&gt;38 -->
<g id="edge87" class="edge">
<title>36&#45;&gt;38</title>
<path fill="none" stroke="grey" stroke-width="2" d="M1702.56,-287.7C1694.44,-279.22 1684.53,-268.86 1675.65,-259.58"/>
<polygon fill="grey" stroke="grey" stroke-width="2" points="1677.93,-256.91 1668.49,-252.1 1672.87,-261.75 1677.93,-256.91"/>
</g>
<!-- 37&#45;&gt;34 -->
<g id="edge79" class="edge">
<title>37&#45;&gt;34</title>
<path fill="none" stroke="grey" stroke-width="2" d="M1602.12,-143.7C1602.12,-135.98 1602.12,-126.71 1602.12,-118.11"/>
<polygon fill="grey" stroke="grey" stroke-width="2" points="1605.62,-118.1 1602.12,-108.1 1598.62,-118.1 1605.62,-118.1"/>
</g>
<!-- 38&#45;&gt;37 -->
<g id="edge85" class="edge">
<title>38&#45;&gt;37</title>
<path fill="none" stroke="grey" stroke-width="2" d="M1639.76,-215.7C1633.88,-207.47 1626.75,-197.48 1620.28,-188.42"/>
<polygon fill="grey" stroke="grey" stroke-width="2" points="1623,-186.21 1614.33,-180.1 1617.3,-190.28 1623,-186.21"/>
</g>
<!-- 39 -->
<g id="node40" class="node">
<title>39</title>
<path fill="none" stroke="#568ad8" stroke-width="2" d="M1419.12,-180C1419.12,-180 1389.12,-180 1389.12,-180 1383.12,-180 1377.12,-174 1377.12,-168 1377.12,-168 1377.12,-156 1377.12,-156 1377.12,-150 1383.12,-144 1389.12,-144 1389.12,-144 1419.12,-144 1419.12,-144 1425.12,-144 1431.12,-150 1431.12,-156 1431.12,-156 1431.12,-168 1431.12,-168 1431.12,-174 1425.12,-180 1419.12,-180"/>
<text text-anchor="middle" x="1404.12" y="-159.5" font-family="sans" font-size="10.00">bigslice</text>
</g>
<!-- 39&#45;&gt;0 -->
<g id="edge24" class="edge">
<title>39&#45;&gt;0</title>
<path fill="none" stroke="grey" stroke-width="2" d="M1407.29,-143.98C1409.96,-123.88 1410.8,-90.8 1392.12,-72 1345.4,-24.99 1139.72,-19.15 1054.4,-18.79"/>
<polygon fill="grey" stroke="grey" stroke-width="2" points="1054.38,-15.29 1044.38,-18.78 1054.37,-22.29 1054.38,-15.29"/>
</g>
<!-- 40&#45;&gt;39 -->
<g id="edge88" class="edge">
<title>40&#45;&gt;39</title>
<path fill="none" stroke="grey" stroke-width="2" d="M1381.53,-215.7C1384.91,-207.81 1388.99,-198.3 1392.74,-189.55"/>
<polygon fill="grey" stroke="grey" stroke-width="2" points="1396.06,-190.67 1396.79,-180.1 1389.63,-187.92 1396.06,-190.67"/>
</g>
<!-- 41 -->
<g id="node42" class="node">
<title>41</title>
<path fill="none" stroke="#56d88a" stroke-width="2" d="M792.12,-180C792.12,-180 690.12,-180 690.12,-180 684.12,-180 678.12,-174 678.12,-168 678.12,-168 678.12,-156 678.12,-156 678.12,-150 684.12,-144 690.12,-144 690.12,-144 792.12,-144 792.12,-144 798.12,-144 804.12,-150 804.12,-156 804.12,-156 804.12,-168 804.12,-168 804.12,-174 798.12,-180 792.12,-180"/>
<text text-anchor="middle" x="741.12" y="-159.5" font-family="sans" font-size="10.00">automlst_wrapper_out</text>
</g>
<!-- 41&#45;&gt;0 -->
<g id="edge15" class="edge">
<title>41&#45;&gt;0</title>
<path fill="none" stroke="grey" stroke-width="2" d="M727.31,-143.69C713.55,-124.23 696.77,-92.64 714.12,-72 747.68,-32.06 906.52,-22.21 979.85,-19.79"/>
<polygon fill="grey" stroke="grey" stroke-width="2" points="980.13,-23.28 990.03,-19.48 979.92,-16.29 980.13,-23.28"/>
</g>
<!-- 46 -->
<g id="node47" class="node">
<title>46</title>
<path fill="none" stroke="#56d892" stroke-width="2" d="M773.62,-108C773.62,-108 734.62,-108 734.62,-108 728.62,-108 722.62,-102 722.62,-96 722.62,-96 722.62,-84 722.62,-84 722.62,-78 728.62,-72 734.62,-72 734.62,-72 773.62,-72 773.62,-72 779.62,-72 785.62,-78 785.62,-84 785.62,-84 785.62,-96 785.62,-96 785.62,-102 779.62,-108 773.62,-108"/>
<text text-anchor="middle" x="754.12" y="-87.5" font-family="sans" font-size="10.00">roary_out</text>
</g>
<!-- 41&#45;&gt;46 -->
<g id="edge95" class="edge">
<title>41&#45;&gt;46</title>
<path fill="none" stroke="grey" stroke-width="2" d="M744.33,-143.7C745.76,-135.98 747.49,-126.71 749.08,-118.11"/>
<polygon fill="grey" stroke="grey" stroke-width="2" points="752.56,-118.58 750.94,-108.1 745.67,-117.3 752.56,-118.58"/>
</g>
<!-- 42 -->
<g id="node43" class="node">
<title>42</title>
<path fill="none" stroke="#d88556" stroke-width="2" d="M986.62,-252C986.62,-252 905.62,-252 905.62,-252 899.62,-252 893.62,-246 893.62,-240 893.62,-240 893.62,-228 893.62,-228 893.62,-222 899.62,-216 905.62,-216 905.62,-216 986.62,-216 986.62,-216 992.62,-216 998.62,-222 998.62,-228 998.62,-228 998.62,-240 998.62,-240 998.62,-246 992.62,-252 986.62,-252"/>
<text text-anchor="middle" x="946.12" y="-231.5" font-family="sans" font-size="10.00">automlst_wrapper</text>
</g>
<!-- 42&#45;&gt;41 -->
<g id="edge90" class="edge">
<title>42&#45;&gt;41</title>
<path fill="none" stroke="grey" stroke-width="2" d="M896.23,-215.97C867.46,-206.14 831.11,-193.73 800.83,-183.39"/>
<polygon fill="grey" stroke="grey" stroke-width="2" points="801.82,-180.03 791.23,-180.11 799.56,-186.65 801.82,-180.03"/>
</g>
<!-- 43&#45;&gt;42 -->
<g id="edge92" class="edge">
<title>43&#45;&gt;42</title>
<path fill="none" stroke="grey" stroke-width="2" d="M1005.92,-359.87C1017.89,-350.84 1030.61,-338.59 1037.12,-324 1043.63,-309.39 1045.09,-301.87 1037.12,-288 1029.64,-274.99 1017.61,-264.88 1004.7,-257.14"/>
<polygon fill="grey" stroke="grey" stroke-width="2" points="1006.13,-253.93 995.68,-252.15 1002.74,-260.05 1006.13,-253.93"/>
</g>
<!-- 44 -->
<g id="node45" class="node">
<title>44</title>
<path fill="none" stroke="#566bd8" stroke-width="2" d="M1016.12,-324C1016.12,-324 900.12,-324 900.12,-324 894.12,-324 888.12,-318 888.12,-312 888.12,-312 888.12,-300 888.12,-300 888.12,-294 894.12,-288 900.12,-288 900.12,-288 1016.12,-288 1016.12,-288 1022.12,-288 1028.12,-294 1028.12,-300 1028.12,-300 1028.12,-312 1028.12,-312 1028.12,-318 1022.12,-324 1016.12,-324"/>
<text text-anchor="middle" x="958.12" y="-303.5" font-family="sans" font-size="10.00">install_automlst_wrapper</text>
</g>
<!-- 44&#45;&gt;42 -->
<g id="edge91" class="edge">
<title>44&#45;&gt;42</title>
<path fill="none" stroke="grey" stroke-width="2" d="M955.15,-287.7C953.83,-279.98 952.24,-270.71 950.77,-262.11"/>
<polygon fill="grey" stroke="grey" stroke-width="2" points="954.19,-261.37 949.05,-252.1 947.29,-262.55 954.19,-261.37"/>
</g>
<!-- 45&#45;&gt;0 -->
<g id="edge27" class="edge">
<title>45&#45;&gt;0</title>
<path fill="none" stroke="grey" stroke-width="2" d="M1310.04,-287.82C1313.23,-269.8 1318.74,-240.73 1325.12,-216 1341.53,-152.32 1401.91,-121.93 1359.12,-72 1320.16,-26.54 1134.57,-19.74 1054.28,-18.96"/>
<polygon fill="grey" stroke="grey" stroke-width="2" points="1054.15,-15.46 1044.13,-18.89 1054.1,-22.46 1054.15,-15.46"/>
</g>
<!-- 46&#45;&gt;0 -->
<g id="edge16" class="edge">
<title>46&#45;&gt;0</title>
<path fill="none" stroke="grey" stroke-width="2" d="M785.72,-75.32C788.87,-74.13 792.04,-73 795.12,-72 858.97,-51.28 935.54,-34.78 980.03,-25.98"/>
<polygon fill="grey" stroke="grey" stroke-width="2" points="980.94,-29.37 990.08,-24.01 979.6,-22.5 980.94,-29.37"/>
</g>
<!-- 47&#45;&gt;46 -->
<g id="edge96" class="edge">
<title>47&#45;&gt;46</title>
<path fill="none" stroke="grey" stroke-width="2" d="M825.63,-143.7C813.55,-134.8 798.66,-123.82 785.6,-114.2"/>
<polygon fill="grey" stroke="grey" stroke-width="2" points="787.46,-111.22 777.33,-108.1 783.3,-116.85 787.46,-111.22"/>
</g>
<!-- 50 -->
<g id="node51" class="node">
<title>50</title>
<path fill="none" stroke="#9fd856" stroke-width="2" d="M653.62,-108C653.62,-108 594.62,-108 594.62,-108 588.62,-108 582.62,-102 582.62,-96 582.62,-96 582.62,-84 582.62,-84 582.62,-78 588.62,-72 594.62,-72 594.62,-72 653.62,-72 653.62,-72 659.62,-72 665.62,-78 665.62,-84 665.62,-84 665.62,-96 665.62,-96 665.62,-102 659.62,-108 653.62,-108"/>
<text text-anchor="middle" x="624.12" y="-87.5" font-family="sans" font-size="10.00">eggnog_roary</text>
</g>
<!-- 47&#45;&gt;50 -->
<g id="edge101" class="edge">
<title>47&#45;&gt;50</title>
<path fill="none" stroke="grey" stroke-width="2" d="M821.8,-147.52C818.9,-146.26 815.97,-145.06 813.12,-144 767.54,-126.99 714.03,-112.47 675.6,-102.95"/>
<polygon fill="grey" stroke="grey" stroke-width="2" points="676.22,-99.5 665.68,-100.52 674.56,-106.3 676.22,-99.5"/>
</g>
<!-- 52 -->
<g id="node53" class="node">
<title>52</title>
<path fill="none" stroke="#56d8c1" stroke-width="2" d="M882.12,-108C882.12,-108 816.12,-108 816.12,-108 810.12,-108 804.12,-102 804.12,-96 804.12,-96 804.12,-84 804.12,-84 804.12,-78 810.12,-72 816.12,-72 816.12,-72 882.12,-72 882.12,-72 888.12,-72 894.12,-78 894.12,-84 894.12,-84 894.12,-96 894.12,-96 894.12,-102 888.12,-108 882.12,-108"/>
<text text-anchor="middle" x="849.12" y="-87.5" font-family="sans" font-size="10.00">diamond_roary</text>
</g>
<!-- 47&#45;&gt;52 -->
<g id="edge104" class="edge">
<title>47&#45;&gt;52</title>
<path fill="none" stroke="grey" stroke-width="2" d="M849.12,-143.7C849.12,-135.98 849.12,-126.71 849.12,-118.11"/>
<polygon fill="grey" stroke="grey" stroke-width="2" points="852.62,-118.1 849.12,-108.1 845.62,-118.1 852.62,-118.1"/>
</g>
<!-- 55 -->
<g id="node56" class="node">
<title>55</title>
<path fill="none" stroke="#56d85b" stroke-width="2" d="M1004.12,-108C1004.12,-108 924.12,-108 924.12,-108 918.12,-108 912.12,-102 912.12,-96 912.12,-96 912.12,-84 912.12,-84 912.12,-78 918.12,-72 924.12,-72 924.12,-72 1004.12,-72 1004.12,-72 1010.12,-72 1016.12,-78 1016.12,-84 1016.12,-84 1016.12,-96 1016.12,-96 1016.12,-102 1010.12,-108 1004.12,-108"/>
<text text-anchor="middle" x="964.12" y="-87.5" font-family="sans" font-size="10.00">deeptfactor_roary</text>
</g>
<!-- 47&#45;&gt;55 -->
<g id="edge108" class="edge">
<title>47&#45;&gt;55</title>
<path fill="none" stroke="grey" stroke-width="2" d="M876.37,-144.41C891.5,-135.2 910.54,-123.61 927.01,-113.59"/>
<polygon fill="grey" stroke="grey" stroke-width="2" points="929.14,-116.39 935.86,-108.2 925.5,-110.41 929.14,-116.39"/>
</g>
<!-- 48&#45;&gt;0 -->
<g id="edge8" class="edge">
<title>48&#45;&gt;0</title>
<path fill="none" stroke="grey" stroke-width="2" d="M564.28,-75.06C567.21,-73.89 570.19,-72.84 573.12,-72 719.55,-29.89 902.43,-21.2 979.8,-19.43"/>
<polygon fill="grey" stroke="grey" stroke-width="2" points="980.07,-22.93 990,-19.23 979.93,-15.93 980.07,-22.93"/>
</g>
<!-- 49 -->
<g id="node50" class="node">
<title>49</title>
<path fill="none" stroke="#56d0d8" stroke-width="2" d="M648.12,-180C648.12,-180 584.12,-180 584.12,-180 578.12,-180 572.12,-174 572.12,-168 572.12,-168 572.12,-156 572.12,-156 572.12,-150 578.12,-144 584.12,-144 584.12,-144 648.12,-144 648.12,-144 654.12,-144 660.12,-150 660.12,-156 660.12,-156 660.12,-168 660.12,-168 660.12,-174 654.12,-180 648.12,-180"/>
<text text-anchor="middle" x="616.12" y="-159.5" font-family="sans" font-size="10.00">install_eggnog</text>
</g>
<!-- 49&#45;&gt;48 -->
<g id="edge98" class="edge">
<title>49&#45;&gt;48</title>
<path fill="none" stroke="grey" stroke-width="2" d="M596.59,-143.7C586.74,-134.97 574.63,-124.24 563.92,-114.75"/>
<polygon fill="grey" stroke="grey" stroke-width="2" points="566.23,-112.12 556.42,-108.1 561.58,-117.36 566.23,-112.12"/>
</g>
<!-- 49&#45;&gt;50 -->
<g id="edge100" class="edge">
<title>49&#45;&gt;50</title>
<path fill="none" stroke="grey" stroke-width="2" d="M618.09,-143.7C618.98,-135.98 620.04,-126.71 621.02,-118.11"/>
<polygon fill="grey" stroke="grey" stroke-width="2" points="624.5,-118.44 622.16,-108.1 617.55,-117.64 624.5,-118.44"/>
</g>
<!-- 50&#45;&gt;0 -->
<g id="edge10" class="edge">
<title>50&#45;&gt;0</title>
<path fill="none" stroke="grey" stroke-width="2" d="M665.84,-75.64C670.63,-74.32 675.46,-73.07 680.12,-72 787.62,-47.35 917.05,-30.52 979.62,-23.17"/>
<polygon fill="grey" stroke="grey" stroke-width="2" points="980.26,-26.62 989.79,-21.99 979.45,-19.67 980.26,-26.62"/>
</g>
<!-- 51&#45;&gt;0 -->
<g id="edge25" class="edge">
<title>51&#45;&gt;0</title>
<path fill="none" stroke="grey" stroke-width="2" d="M520.17,-359.71C506.11,-333.58 482.12,-282.1 482.12,-235 482.12,-235 482.12,-235 482.12,-161 482.12,-120.55 471.02,-99.02 501.12,-72 536.62,-40.13 866.93,-24.71 979.64,-20.34"/>
<polygon fill="grey" stroke="grey" stroke-width="2" points="979.99,-23.83 989.85,-19.95 979.72,-16.83 979.99,-23.83"/>
</g>
<!-- 52&#45;&gt;0 -->
<g id="edge21" class="edge">
<title>52&#45;&gt;0</title>
<path fill="none" stroke="grey" stroke-width="2" d="M890.21,-71.88C917.9,-60.34 954.08,-45.26 980.73,-34.16"/>
<polygon fill="grey" stroke="grey" stroke-width="2" points="982.19,-37.34 990.08,-30.27 979.5,-30.88 982.19,-37.34"/>
</g>
<!-- 53 -->
<g id="node54" class="node">
<title>53</title>
<path fill="none" stroke="#d88d56" stroke-width="2" d="M987.62,-180C987.62,-180 906.62,-180 906.62,-180 900.62,-180 894.62,-174 894.62,-168 894.62,-168 894.62,-156 894.62,-156 894.62,-150 900.62,-144 906.62,-144 906.62,-144 987.62,-144 987.62,-144 993.62,-144 999.62,-150 999.62,-156 999.62,-156 999.62,-168 999.62,-168 999.62,-174 993.62,-180 987.62,-180"/>
<text text-anchor="middle" x="947.12" y="-159.5" font-family="sans" font-size="10.00">deeptfactor_setup</text>
</g>
<!-- 53&#45;&gt;52 -->
<g id="edge103" class="edge">
<title>53&#45;&gt;52</title>
<path fill="none" stroke="grey" stroke-width="2" d="M923.14,-143.88C910.57,-134.89 894.99,-123.76 881.37,-114.03"/>
<polygon fill="grey" stroke="grey" stroke-width="2" points="883.35,-111.15 873.18,-108.19 879.29,-116.85 883.35,-111.15"/>
</g>
<!-- 53&#45;&gt;54 -->
<g id="edge105" class="edge">
<title>53&#45;&gt;54</title>
<path fill="none" stroke="grey" stroke-width="2" d="M977.45,-143.88C993.81,-134.64 1014.2,-123.13 1031.77,-113.21"/>
<polygon fill="grey" stroke="grey" stroke-width="2" points="1033.68,-116.15 1040.67,-108.19 1030.24,-110.06 1033.68,-116.15"/>
</g>
<!-- 53&#45;&gt;55 -->
<g id="edge107" class="edge">
<title>53&#45;&gt;55</title>
<path fill="none" stroke="grey" stroke-width="2" d="M951.32,-143.7C953.21,-135.9 955.49,-126.51 957.6,-117.83"/>
<polygon fill="grey" stroke="grey" stroke-width="2" points="961,-118.65 959.96,-108.1 954.2,-117 961,-118.65"/>
</g>
<!-- 54&#45;&gt;0 -->
<g id="edge26" class="edge">
<title>54&#45;&gt;0</title>
<path fill="none" stroke="grey" stroke-width="2" d="M1057.77,-71.7C1051.36,-63.39 1043.56,-53.28 1036.51,-44.14"/>
<polygon fill="grey" stroke="grey" stroke-width="2" points="1039.19,-41.88 1030.31,-36.1 1033.65,-46.16 1039.19,-41.88"/>
</g>
<!-- 55&#45;&gt;0 -->
<g id="edge13" class="edge">
<title>55&#45;&gt;0</title>
<path fill="none" stroke="grey" stroke-width="2" d="M977.22,-71.7C983.51,-63.39 991.16,-53.28 998.08,-44.14"/>
<polygon fill="grey" stroke="grey" stroke-width="2" points="1000.92,-46.19 1004.17,-36.1 995.34,-41.96 1000.92,-46.19"/>
</g>
<!-- 56&#45;&gt;0 -->
<g id="edge7" class="edge">
<title>56&#45;&gt;0</title>
<path fill="none" stroke="grey" stroke-width="2" d="M482.17,-431.92C476.11,-421.81 468.86,-408.56 464.12,-396 449.8,-358.07 444.12,-347.54 444.12,-307 444.12,-307 444.12,-307 444.12,-161 444.12,-118.81 443.71,-97.76 477.12,-72 516.82,-41.39 863.82,-25.04 979.66,-20.4"/>
<polygon fill="grey" stroke="grey" stroke-width="2" points="979.96,-23.89 989.81,-20 979.68,-16.9 979.96,-23.89"/>
</g>
<!-- 57&#45;&gt;0 -->
<g id="edge4" class="edge">
<title>57&#45;&gt;0</title>
<path fill="none" stroke="grey" stroke-width="2" d="M1478.46,-215.8C1474.23,-182.17 1459.83,-107.86 1413.12,-72 1357.4,-29.22 1141.94,-20.96 1054.41,-19.37"/>
<polygon fill="grey" stroke="grey" stroke-width="2" points="1054.2,-15.87 1044.14,-19.21 1054.09,-22.87 1054.2,-15.87"/>
</g>
</g>
</svg>
