<?xml version="1.0" encoding="UTF-8" standalone="no"?>
<!DOCTYPE svg PUBLIC "-//W3C//DTD SVG 1.1//EN"
 "http://www.w3.org/Graphics/SVG/1.1/DTD/svg11.dtd">
<!-- Generated by graphviz version 2.49.1 (20211004.0028)
 -->
<!-- Title: snakemake_dag Pages: 1 -->
<svg width="684pt" height="404pt"
 viewBox="0.00 0.00 684.00 404.00" xmlns="http://www.w3.org/2000/svg" xmlns:xlink="http://www.w3.org/1999/xlink">
<g id="graph0" class="graph" transform="scale(1 1) rotate(0) translate(4 400)">
<title>snakemake_dag</title>
<polygon fill="white" stroke="transparent" points="-4,4 -4,-400 680,-400 680,4 -4,4"/>
<!-- 0 -->
<g id="node1" class="node">
<title>0</title>
<path fill="none" stroke="#56d8a9" stroke-width="2" d="M360.5,-36C360.5,-36 330.5,-36 330.5,-36 324.5,-36 318.5,-30 318.5,-24 318.5,-24 318.5,-12 318.5,-12 318.5,-6 324.5,0 330.5,0 330.5,0 360.5,0 360.5,0 366.5,0 372.5,-6 372.5,-12 372.5,-12 372.5,-24 372.5,-24 372.5,-30 366.5,-36 360.5,-36"/>
<text text-anchor="middle" x="345.5" y="-15.5" font-family="sans" font-size="10.00">all</text>
</g>
<!-- 1 -->
<g id="node2" class="node">
<title>1</title>
<path fill="none" stroke="#59d856" stroke-width="2" d="M206,-108C206,-108 119,-108 119,-108 113,-108 107,-102 107,-96 107,-96 107,-84 107,-84 107,-78 113,-72 119,-72 119,-72 206,-72 206,-72 212,-72 218,-78 218,-84 218,-84 218,-96 218,-96 218,-102 212,-108 206,-108"/>
<text text-anchor="middle" x="162.5" y="-87.5" font-family="sans" font-size="10.00">fix_gtdb_taxonomy</text>
</g>
<!-- 1&#45;&gt;0 -->
<g id="edge8" class="edge">
<title>1&#45;&gt;0</title>
<path fill="none" stroke="grey" stroke-width="2" d="M207.27,-71.88C238.54,-59.91 279.78,-44.14 309.05,-32.94"/>
<polygon fill="grey" stroke="grey" stroke-width="2" points="310.4,-36.17 318.49,-29.33 307.9,-29.64 310.4,-36.17"/>
</g>
<!-- 2 -->
<g id="node3" class="node">
<title>2</title>
<path fill="none" stroke="#5682d8" stroke-width="2" d="M212,-252C212,-252 113,-252 113,-252 107,-252 101,-246 101,-240 101,-240 101,-228 101,-228 101,-222 107,-216 113,-216 113,-216 212,-216 212,-216 218,-216 224,-222 224,-228 224,-228 224,-240 224,-240 224,-246 218,-252 212,-252"/>
<text text-anchor="middle" x="162.5" y="-231.5" font-family="sans" font-size="10.00">fetch_gtdb_taxonomy</text>
</g>
<!-- 2&#45;&gt;1 -->
<g id="edge10" class="edge">
<title>2&#45;&gt;1</title>
<path fill="none" stroke="grey" stroke-width="2" d="M162.5,-215.87C162.5,-191.67 162.5,-147.21 162.5,-118.39"/>
<polygon fill="grey" stroke="grey" stroke-width="2" points="166,-118.19 162.5,-108.19 159,-118.19 166,-118.19"/>
</g>
<!-- 3 -->
<g id="node4" class="node">
<title>3</title>
<path fill="none" stroke="#56d882" stroke-width="2" d="M183,-324C183,-324 142,-324 142,-324 136,-324 130,-318 130,-312 130,-312 130,-300 130,-300 130,-294 136,-288 142,-288 142,-288 183,-288 183,-288 189,-288 195,-294 195,-300 195,-300 195,-312 195,-312 195,-318 189,-324 183,-324"/>
<text text-anchor="middle" x="162.5" y="-303.5" font-family="sans" font-size="10.00">gtdb_prep</text>
</g>
<!-- 3&#45;&gt;2 -->
<g id="edge11" class="edge">
<title>3&#45;&gt;2</title>
<path fill="none" stroke="grey" stroke-width="2" d="M162.5,-287.7C162.5,-279.98 162.5,-270.71 162.5,-262.11"/>
<polygon fill="grey" stroke="grey" stroke-width="2" points="166,-262.1 162.5,-252.1 159,-262.1 166,-262.1"/>
</g>
<!-- 4 -->
<g id="node5" class="node">
<title>4</title>
<path fill="none" stroke="#56d86b" stroke-width="2" d="M330,-396C330,-396 243,-396 243,-396 237,-396 231,-390 231,-384 231,-384 231,-372 231,-372 231,-366 237,-360 243,-360 243,-360 330,-360 330,-360 336,-360 342,-366 342,-372 342,-372 342,-384 342,-384 342,-390 336,-396 330,-396"/>
<text text-anchor="middle" x="286.5" y="-375.5" font-family="sans" font-size="10.00">copy_custom_fasta</text>
</g>
<!-- 4&#45;&gt;3 -->
<g id="edge12" class="edge">
<title>4&#45;&gt;3</title>
<path fill="none" stroke="grey" stroke-width="2" d="M256.17,-359.88C239.8,-350.64 219.42,-339.13 201.85,-329.21"/>
<polygon fill="grey" stroke="grey" stroke-width="2" points="203.38,-326.06 192.95,-324.19 199.94,-332.15 203.38,-326.06"/>
</g>
<!-- 9 -->
<g id="node10" class="node">
<title>9</title>
<path fill="none" stroke="#d8ac56" stroke-width="2" d="M346.5,-252C346.5,-252 278.5,-252 278.5,-252 272.5,-252 266.5,-246 266.5,-240 266.5,-240 266.5,-228 266.5,-228 266.5,-222 272.5,-216 278.5,-216 278.5,-216 346.5,-216 346.5,-216 352.5,-216 358.5,-222 358.5,-228 358.5,-228 358.5,-240 358.5,-240 358.5,-246 352.5,-252 346.5,-252"/>
<text text-anchor="middle" x="312.5" y="-231.5" font-family="sans" font-size="10.00">prokka_custom</text>
</g>
<!-- 4&#45;&gt;9 -->
<g id="edge17" class="edge">
<title>4&#45;&gt;9</title>
<path fill="none" stroke="grey" stroke-width="2" d="M267.46,-359.84C258.32,-350.3 248.33,-337.62 243.5,-324 238.15,-308.92 236.43,-302.35 243.5,-288 249.46,-275.91 259.65,-265.8 270.4,-257.77"/>
<polygon fill="grey" stroke="grey" stroke-width="2" points="272.44,-260.61 278.66,-252.04 268.45,-254.86 272.44,-260.61"/>
</g>
<!-- 12 -->
<g id="node13" class="node">
<title>12</title>
<path fill="none" stroke="#d85656" stroke-width="2" d="M361,-324C361,-324 264,-324 264,-324 258,-324 252,-318 252,-312 252,-312 252,-300 252,-300 252,-294 258,-288 264,-288 264,-288 361,-288 361,-288 367,-288 373,-294 373,-300 373,-300 373,-312 373,-312 373,-318 367,-324 361,-324"/>
<text text-anchor="middle" x="312.5" y="-303.5" font-family="sans" font-size="10.00">extract_meta_prokka</text>
</g>
<!-- 4&#45;&gt;12 -->
<g id="edge23" class="edge">
<title>4&#45;&gt;12</title>
<path fill="none" stroke="grey" stroke-width="2" d="M292.93,-359.7C295.86,-351.81 299.39,-342.3 302.64,-333.55"/>
<polygon fill="grey" stroke="grey" stroke-width="2" points="305.95,-334.7 306.15,-324.1 299.38,-332.26 305.95,-334.7"/>
</g>
<!-- 15 -->
<g id="node16" class="node">
<title>15</title>
<path fill="none" stroke="#569ad8" stroke-width="2" d="M468,-324C468,-324 403,-324 403,-324 397,-324 391,-318 391,-312 391,-312 391,-300 391,-300 391,-294 397,-288 403,-288 403,-288 468,-288 468,-288 474,-288 480,-294 480,-300 480,-300 480,-312 480,-312 480,-318 474,-324 468,-324"/>
<text text-anchor="middle" x="435.5" y="-303.5" font-family="sans" font-size="10.00">refseq_masher</text>
</g>
<!-- 4&#45;&gt;15 -->
<g id="edge27" class="edge">
<title>4&#45;&gt;15</title>
<path fill="none" stroke="grey" stroke-width="2" d="M322.95,-359.88C343.14,-350.39 368.42,-338.51 389.91,-328.42"/>
<polygon fill="grey" stroke="grey" stroke-width="2" points="391.61,-331.49 399.17,-324.07 388.63,-325.15 391.61,-331.49"/>
</g>
<!-- 5 -->
<g id="node6" class="node">
<title>5</title>
<path fill="none" stroke="#d88556" stroke-width="2" d="M200.5,-396C200.5,-396 90.5,-396 90.5,-396 84.5,-396 78.5,-390 78.5,-384 78.5,-384 78.5,-372 78.5,-372 78.5,-366 84.5,-360 90.5,-360 90.5,-360 200.5,-360 200.5,-360 206.5,-360 212.5,-366 212.5,-372 212.5,-372 212.5,-384 212.5,-384 212.5,-390 206.5,-396 200.5,-396"/>
<text text-anchor="middle" x="145.5" y="-375.5" font-family="sans" font-size="10.00">ncbi_genome_download</text>
</g>
<!-- 5&#45;&gt;3 -->
<g id="edge13" class="edge">
<title>5&#45;&gt;3</title>
<path fill="none" stroke="grey" stroke-width="2" d="M149.7,-359.7C151.6,-351.9 153.88,-342.51 155.98,-333.83"/>
<polygon fill="grey" stroke="grey" stroke-width="2" points="159.39,-334.65 158.35,-324.1 152.58,-333 159.39,-334.65"/>
</g>
<!-- 7 -->
<g id="node8" class="node">
<title>7</title>
<path fill="none" stroke="#56d8c1" stroke-width="2" d="M77,-108C77,-108 12,-108 12,-108 6,-108 0,-102 0,-96 0,-96 0,-84 0,-84 0,-78 6,-72 12,-72 12,-72 77,-72 77,-72 83,-72 89,-78 89,-84 89,-84 89,-96 89,-96 89,-102 83,-108 77,-108"/>
<text text-anchor="middle" x="44.5" y="-87.5" font-family="sans" font-size="10.00">ncbi_metadata</text>
</g>
<!-- 5&#45;&gt;7 -->
<g id="edge15" class="edge">
<title>5&#45;&gt;7</title>
<path fill="none" stroke="grey" stroke-width="2" d="M132.07,-359.65C124.86,-349.67 116.29,-336.63 110.5,-324 77.97,-253.03 57.9,-162.43 49.34,-118.01"/>
<polygon fill="grey" stroke="grey" stroke-width="2" points="52.74,-117.19 47.45,-108.01 45.87,-118.48 52.74,-117.19"/>
</g>
<!-- 5&#45;&gt;9 -->
<g id="edge20" class="edge">
<title>5&#45;&gt;9</title>
<path fill="none" stroke="grey" stroke-width="2" d="M132.65,-359.94C119.85,-340.7 104.26,-309.33 120.5,-288 128.94,-276.92 202.8,-258.79 256.4,-246.88"/>
<polygon fill="grey" stroke="grey" stroke-width="2" points="257.48,-250.23 266.49,-244.66 255.97,-243.39 257.48,-250.23"/>
</g>
<!-- 5&#45;&gt;12 -->
<g id="edge24" class="edge">
<title>5&#45;&gt;12</title>
<path fill="none" stroke="grey" stroke-width="2" d="M186.35,-359.88C209.28,-350.26 238.08,-338.19 262.37,-328.01"/>
<polygon fill="grey" stroke="grey" stroke-width="2" points="263.91,-331.16 271.78,-324.07 261.2,-324.71 263.91,-331.16"/>
</g>
<!-- 5&#45;&gt;15 -->
<g id="edge28" class="edge">
<title>5&#45;&gt;15</title>
<path fill="none" stroke="grey" stroke-width="2" d="M212.71,-362.13C271.17,-349.17 350.31,-331.57 380.7,-324.21"/>
<polygon fill="grey" stroke="grey" stroke-width="2" points="381.93,-327.51 390.77,-321.66 380.21,-320.72 381.93,-327.51"/>
</g>
<!-- 6 -->
<g id="node7" class="node">
<title>6</title>
<path fill="none" stroke="#d86e56" stroke-width="2" d="M490.5,-396C490.5,-396 372.5,-396 372.5,-396 366.5,-396 360.5,-390 360.5,-384 360.5,-384 360.5,-372 360.5,-372 360.5,-366 366.5,-360 372.5,-360 372.5,-360 490.5,-360 490.5,-360 496.5,-360 502.5,-366 502.5,-372 502.5,-372 502.5,-384 502.5,-384 502.5,-390 496.5,-396 490.5,-396"/>
<text text-anchor="middle" x="431.5" y="-375.5" font-family="sans" font-size="10.00">patric_genome_download</text>
</g>
<!-- 6&#45;&gt;3 -->
<g id="edge14" class="edge">
<title>6&#45;&gt;3</title>
<path fill="none" stroke="grey" stroke-width="2" d="M366.04,-359.97C315.94,-346.93 248.3,-329.33 205.03,-318.07"/>
<polygon fill="grey" stroke="grey" stroke-width="2" points="205.67,-314.62 195.11,-315.49 203.91,-321.39 205.67,-314.62"/>
</g>
<!-- 6&#45;&gt;9 -->
<g id="edge19" class="edge">
<title>6&#45;&gt;9</title>
<path fill="none" stroke="grey" stroke-width="2" d="M458.84,-359.77C470.61,-350.72 483.12,-338.48 489.5,-324 495.95,-309.36 499.05,-300.83 489.5,-288 474.87,-268.34 414.65,-253.27 368.48,-244.31"/>
<polygon fill="grey" stroke="grey" stroke-width="2" points="369.04,-240.86 358.56,-242.44 367.74,-247.74 369.04,-240.86"/>
</g>
<!-- 6&#45;&gt;12 -->
<g id="edge25" class="edge">
<title>6&#45;&gt;12</title>
<path fill="none" stroke="grey" stroke-width="2" d="M402.39,-359.88C386.83,-350.72 367.48,-339.34 350.72,-329.48"/>
<polygon fill="grey" stroke="grey" stroke-width="2" points="352.12,-326.24 341.72,-324.19 348.57,-332.28 352.12,-326.24"/>
</g>
<!-- 6&#45;&gt;15 -->
<g id="edge29" class="edge">
<title>6&#45;&gt;15</title>
<path fill="none" stroke="grey" stroke-width="2" d="M432.49,-359.7C432.93,-351.98 433.46,-342.71 433.95,-334.11"/>
<polygon fill="grey" stroke="grey" stroke-width="2" points="437.45,-334.29 434.52,-324.1 430.46,-333.89 437.45,-334.29"/>
</g>
<!-- 7&#45;&gt;0 -->
<g id="edge4" class="edge">
<title>7&#45;&gt;0</title>
<path fill="none" stroke="grey" stroke-width="2" d="M89.2,-74.57C92.33,-73.67 95.46,-72.8 98.5,-72 172.18,-52.54 259.62,-35.08 308.21,-25.87"/>
<polygon fill="grey" stroke="grey" stroke-width="2" points="309.08,-29.27 318.26,-23.98 307.78,-22.39 309.08,-29.27"/>
</g>
<!-- 8 -->
<g id="node9" class="node">
<title>8</title>
<path fill="none" stroke="#afd856" stroke-width="2" d="M432.5,-108C432.5,-108 402.5,-108 402.5,-108 396.5,-108 390.5,-102 390.5,-96 390.5,-96 390.5,-84 390.5,-84 390.5,-78 396.5,-72 402.5,-72 402.5,-72 432.5,-72 432.5,-72 438.5,-72 444.5,-78 444.5,-84 444.5,-84 444.5,-96 444.5,-96 444.5,-102 438.5,-108 432.5,-108"/>
<text text-anchor="middle" x="417.5" y="-87.5" font-family="sans" font-size="10.00">mslt</text>
</g>
<!-- 8&#45;&gt;0 -->
<g id="edge5" class="edge">
<title>8&#45;&gt;0</title>
<path fill="none" stroke="grey" stroke-width="2" d="M399.7,-71.7C390.9,-63.14 380.12,-52.66 370.5,-43.3"/>
<polygon fill="grey" stroke="grey" stroke-width="2" points="372.7,-40.57 363.09,-36.1 367.82,-45.58 372.7,-40.57"/>
</g>
<!-- 9&#45;&gt;0 -->
<g id="edge1" class="edge">
<title>9&#45;&gt;0</title>
<path fill="none" stroke="grey" stroke-width="2" d="M306.26,-215.59C302.93,-205.37 299.18,-192.12 297.5,-180 290.86,-132.16 291.55,-116.83 309.5,-72 313.37,-62.34 319.21,-52.67 325.08,-44.28"/>
<polygon fill="grey" stroke="grey" stroke-width="2" points="328.02,-46.19 331.11,-36.06 322.37,-42.05 328.02,-46.19"/>
</g>
<!-- 9&#45;&gt;8 -->
<g id="edge16" class="edge">
<title>9&#45;&gt;8</title>
<path fill="none" stroke="grey" stroke-width="2" d="M358.82,-215.97C375.41,-207.61 392.67,-195.85 403.5,-180 415.81,-162 418.86,-137.21 419.09,-118.36"/>
<polygon fill="grey" stroke="grey" stroke-width="2" points="422.59,-118.27 418.96,-108.32 415.59,-118.36 422.59,-118.27"/>
</g>
<!-- 16 -->
<g id="node17" class="node">
<title>16</title>
<path fill="none" stroke="#d89556" stroke-width="2" d="M506.5,-180C506.5,-180 462.5,-180 462.5,-180 456.5,-180 450.5,-174 450.5,-168 450.5,-168 450.5,-156 450.5,-156 450.5,-150 456.5,-144 462.5,-144 462.5,-144 506.5,-144 506.5,-144 512.5,-144 518.5,-150 518.5,-156 518.5,-156 518.5,-168 518.5,-168 518.5,-174 512.5,-180 506.5,-180"/>
<text text-anchor="middle" x="484.5" y="-159.5" font-family="sans" font-size="10.00">antismash</text>
</g>
<!-- 9&#45;&gt;16 -->
<g id="edge30" class="edge">
<title>9&#45;&gt;16</title>
<path fill="none" stroke="grey" stroke-width="2" d="M354.58,-215.88C380.79,-205.21 414.46,-191.51 440.95,-180.72"/>
<polygon fill="grey" stroke="grey" stroke-width="2" points="442.41,-183.91 450.36,-176.9 439.78,-177.42 442.41,-183.91"/>
</g>
<!-- 18 -->
<g id="node19" class="node">
<title>18</title>
<path fill="none" stroke="#56d89a" stroke-width="2" d="M238.5,-180C238.5,-180 208.5,-180 208.5,-180 202.5,-180 196.5,-174 196.5,-168 196.5,-168 196.5,-156 196.5,-156 196.5,-150 202.5,-144 208.5,-144 208.5,-144 238.5,-144 238.5,-144 244.5,-144 250.5,-150 250.5,-156 250.5,-156 250.5,-168 250.5,-168 250.5,-174 244.5,-180 238.5,-180"/>
<text text-anchor="middle" x="223.5" y="-159.5" font-family="sans" font-size="10.00">roary</text>
</g>
<!-- 9&#45;&gt;18 -->
<g id="edge32" class="edge">
<title>9&#45;&gt;18</title>
<path fill="none" stroke="grey" stroke-width="2" d="M290.5,-215.7C279.29,-206.88 265.5,-196.03 253.35,-186.47"/>
<polygon fill="grey" stroke="grey" stroke-width="2" points="255.27,-183.54 245.25,-180.1 250.94,-189.04 255.27,-183.54"/>
</g>
<!-- 10 -->
<g id="node11" class="node">
<title>10</title>
<path fill="none" stroke="#56d8d8" stroke-width="2" d="M632.5,-324C632.5,-324 556.5,-324 556.5,-324 550.5,-324 544.5,-318 544.5,-312 544.5,-312 544.5,-300 544.5,-300 544.5,-294 550.5,-288 556.5,-288 556.5,-288 632.5,-288 632.5,-288 638.5,-288 644.5,-294 644.5,-300 644.5,-300 644.5,-312 644.5,-312 644.5,-318 638.5,-324 632.5,-324"/>
<text text-anchor="middle" x="594.5" y="-303.5" font-family="sans" font-size="10.00">prokka_db_setup</text>
</g>
<!-- 10&#45;&gt;9 -->
<g id="edge21" class="edge">
<title>10&#45;&gt;9</title>
<path fill="none" stroke="grey" stroke-width="2" d="M544.41,-292.57C495.15,-280.34 420.08,-261.7 368.78,-248.97"/>
<polygon fill="grey" stroke="grey" stroke-width="2" points="369.4,-245.52 358.85,-246.51 367.71,-252.31 369.4,-245.52"/>
</g>
<!-- 11 -->
<g id="node12" class="node">
<title>11</title>
<path fill="none" stroke="#56c1d8" stroke-width="2" d="M664,-396C664,-396 533,-396 533,-396 527,-396 521,-390 521,-384 521,-384 521,-372 521,-372 521,-366 527,-360 533,-360 533,-360 664,-360 664,-360 670,-360 676,-366 676,-372 676,-372 676,-384 676,-384 676,-390 670,-396 664,-396"/>
<text text-anchor="middle" x="598.5" y="-375.5" font-family="sans" font-size="10.00">prokka_reference_download</text>
</g>
<!-- 11&#45;&gt;10 -->
<g id="edge22" class="edge">
<title>11&#45;&gt;10</title>
<path fill="none" stroke="grey" stroke-width="2" d="M597.51,-359.7C597.07,-351.98 596.54,-342.71 596.05,-334.11"/>
<polygon fill="grey" stroke="grey" stroke-width="2" points="599.54,-333.89 595.48,-324.1 592.55,-334.29 599.54,-333.89"/>
</g>
<!-- 12&#45;&gt;9 -->
<g id="edge18" class="edge">
<title>12&#45;&gt;9</title>
<path fill="none" stroke="grey" stroke-width="2" d="M312.5,-287.7C312.5,-279.98 312.5,-270.71 312.5,-262.11"/>
<polygon fill="grey" stroke="grey" stroke-width="2" points="316,-262.1 312.5,-252.1 309,-262.1 316,-262.1"/>
</g>
<!-- 13 -->
<g id="node14" class="node">
<title>13</title>
<path fill="none" stroke="#80d856" stroke-width="2" d="M360.5,-108C360.5,-108 330.5,-108 330.5,-108 324.5,-108 318.5,-102 318.5,-96 318.5,-96 318.5,-84 318.5,-84 318.5,-78 324.5,-72 330.5,-72 330.5,-72 360.5,-72 360.5,-72 366.5,-72 372.5,-78 372.5,-84 372.5,-84 372.5,-96 372.5,-96 372.5,-102 366.5,-108 360.5,-108"/>
<text text-anchor="middle" x="345.5" y="-87.5" font-family="sans" font-size="10.00">eggnog</text>
</g>
<!-- 13&#45;&gt;0 -->
<g id="edge6" class="edge">
<title>13&#45;&gt;0</title>
<path fill="none" stroke="grey" stroke-width="2" d="M345.5,-71.7C345.5,-63.98 345.5,-54.71 345.5,-46.11"/>
<polygon fill="grey" stroke="grey" stroke-width="2" points="349,-46.1 345.5,-36.1 342,-46.1 349,-46.1"/>
</g>
<!-- 14 -->
<g id="node15" class="node">
<title>14</title>
<path fill="none" stroke="#97d856" stroke-width="2" d="M382.5,-180C382.5,-180 318.5,-180 318.5,-180 312.5,-180 306.5,-174 306.5,-168 306.5,-168 306.5,-156 306.5,-156 306.5,-150 312.5,-144 318.5,-144 318.5,-144 382.5,-144 382.5,-144 388.5,-144 394.5,-150 394.5,-156 394.5,-156 394.5,-168 394.5,-168 394.5,-174 388.5,-180 382.5,-180"/>
<text text-anchor="middle" x="350.5" y="-159.5" font-family="sans" font-size="10.00">install_eggnog</text>
</g>
<!-- 14&#45;&gt;13 -->
<g id="edge26" class="edge">
<title>14&#45;&gt;13</title>
<path fill="none" stroke="grey" stroke-width="2" d="M349.26,-143.7C348.71,-135.98 348.05,-126.71 347.44,-118.11"/>
<polygon fill="grey" stroke="grey" stroke-width="2" points="350.93,-117.83 346.72,-108.1 343.94,-118.33 350.93,-117.83"/>
</g>
<!-- 15&#45;&gt;0 -->
<g id="edge2" class="edge">
<title>15&#45;&gt;0</title>
<path fill="none" stroke="grey" stroke-width="2" d="M480.25,-293.05C550.09,-271.78 673.85,-222.11 641.5,-144 600.28,-44.49 452.85,-23.98 382.87,-19.91"/>
<polygon fill="grey" stroke="grey" stroke-width="2" points="382.9,-16.4 372.74,-19.4 382.55,-23.4 382.9,-16.4"/>
</g>
<!-- 16&#45;&gt;0 -->
<g id="edge9" class="edge">
<title>16&#45;&gt;0</title>
<path fill="none" stroke="grey" stroke-width="2" d="M482.49,-143.97C479.38,-124.48 471.73,-92.58 453.5,-72 434.72,-50.8 405.52,-37.18 382.22,-29.07"/>
<polygon fill="grey" stroke="grey" stroke-width="2" points="383.24,-25.72 372.64,-25.92 381.05,-32.37 383.24,-25.72"/>
</g>
<!-- 19 -->
<g id="node20" class="node">
<title>19</title>
<path fill="none" stroke="#68d856" stroke-width="2" d="M548.5,-108C548.5,-108 512.5,-108 512.5,-108 506.5,-108 500.5,-102 500.5,-96 500.5,-96 500.5,-84 500.5,-84 500.5,-78 506.5,-72 512.5,-72 512.5,-72 548.5,-72 548.5,-72 554.5,-72 560.5,-78 560.5,-84 560.5,-84 560.5,-96 560.5,-96 560.5,-102 554.5,-108 548.5,-108"/>
<text text-anchor="middle" x="530.5" y="-87.5" font-family="sans" font-size="10.00">bigscape</text>
</g>
<!-- 16&#45;&gt;19 -->
<g id="edge34" class="edge">
<title>16&#45;&gt;19</title>
<path fill="none" stroke="grey" stroke-width="2" d="M495.87,-143.7C501.22,-135.56 507.7,-125.69 513.61,-116.7"/>
<polygon fill="grey" stroke="grey" stroke-width="2" points="516.69,-118.38 519.26,-108.1 510.84,-114.54 516.69,-118.38"/>
</g>
<!-- 17 -->
<g id="node18" class="node">
<title>17</title>
<path fill="none" stroke="#c6d856" stroke-width="2" d="M531,-252C531,-252 438,-252 438,-252 432,-252 426,-246 426,-240 426,-240 426,-228 426,-228 426,-222 432,-216 438,-216 438,-216 531,-216 531,-216 537,-216 543,-222 543,-228 543,-228 543,-240 543,-240 543,-246 537,-252 531,-252"/>
<text text-anchor="middle" x="484.5" y="-231.5" font-family="sans" font-size="10.00">antismash_db_setup</text>
</g>
<!-- 17&#45;&gt;16 -->
<g id="edge31" class="edge">
<title>17&#45;&gt;16</title>
<path fill="none" stroke="grey" stroke-width="2" d="M484.5,-215.7C484.5,-207.98 484.5,-198.71 484.5,-190.11"/>
<polygon fill="grey" stroke="grey" stroke-width="2" points="488,-190.1 484.5,-180.1 481,-190.1 488,-190.1"/>
</g>
<!-- 18&#45;&gt;0 -->
<g id="edge3" class="edge">
<title>18&#45;&gt;0</title>
<path fill="none" stroke="grey" stroke-width="2" d="M229.74,-143.81C237.28,-124.75 251.36,-93.79 270.5,-72 281.63,-59.32 296.38,-48.07 309.85,-39.23"/>
<polygon fill="grey" stroke="grey" stroke-width="2" points="311.88,-42.09 318.46,-33.78 308.14,-36.17 311.88,-42.09"/>
</g>
<!-- 19&#45;&gt;0 -->
<g id="edge7" class="edge">
<title>19&#45;&gt;0</title>
<path fill="none" stroke="grey" stroke-width="2" d="M500.22,-77.26C495.62,-75.49 490.94,-73.69 486.5,-72 451.09,-58.5 410.59,-43.3 382.1,-32.65"/>
<polygon fill="grey" stroke="grey" stroke-width="2" points="383.15,-29.31 372.56,-29.09 380.7,-35.87 383.15,-29.31"/>
</g>
<!-- 20 -->
<g id="node21" class="node">
<title>20</title>
<path fill="none" stroke="#566bd8" stroke-width="2" d="M620,-180C620,-180 549,-180 549,-180 543,-180 537,-174 537,-168 537,-168 537,-156 537,-156 537,-150 543,-144 549,-144 549,-144 620,-144 620,-144 626,-144 632,-150 632,-156 632,-156 632,-168 632,-168 632,-174 626,-180 620,-180"/>
<text text-anchor="middle" x="584.5" y="-159.5" font-family="sans" font-size="10.00">install_bigscape</text>
</g>
<!-- 20&#45;&gt;19 -->
<g id="edge33" class="edge">
<title>20&#45;&gt;19</title>
<path fill="none" stroke="grey" stroke-width="2" d="M571.15,-143.7C564.74,-135.39 556.94,-125.28 549.89,-116.14"/>
<polygon fill="grey" stroke="grey" stroke-width="2" points="552.57,-113.88 543.69,-108.1 547.03,-118.16 552.57,-113.88"/>
</g>
</g>
</svg>
