<?xml version="1.0" encoding="UTF-8" standalone="no"?>
<!DOCTYPE svg PUBLIC "-//W3C//DTD SVG 1.1//EN"
 "http://www.w3.org/Graphics/SVG/1.1/DTD/svg11.dtd">
<!-- Generated by graphviz version 2.49.3 (20211104.1129)
 -->
<!-- Title: snakemake_dag Pages: 1 -->
<svg width="617pt" height="188pt"
 viewBox="0.00 0.00 616.50 188.00" xmlns="http://www.w3.org/2000/svg" xmlns:xlink="http://www.w3.org/1999/xlink">
<g id="graph0" class="graph" transform="scale(1 1) rotate(0) translate(4 184)">
<title>snakemake_dag</title>
<polygon fill="white" stroke="transparent" points="-4,4 -4,-184 612.5,-184 612.5,4 -4,4"/>
<!-- 0 -->
<g id="node1" class="node">
<title>0</title>
<path fill="none" stroke="#56b1d8" stroke-width="2" d="M340.5,-36C340.5,-36 310.5,-36 310.5,-36 304.5,-36 298.5,-30 298.5,-24 298.5,-24 298.5,-12 298.5,-12 298.5,-6 304.5,0 310.5,0 310.5,0 340.5,0 340.5,0 346.5,0 352.5,-6 352.5,-12 352.5,-12 352.5,-24 352.5,-24 352.5,-30 346.5,-36 340.5,-36"/>
<text text-anchor="middle" x="325.5" y="-15.5" font-family="sans" font-size="10.00">all</text>
</g>
<!-- 1 -->
<g id="node2" class="node">
<title>1</title>
<path fill="none" stroke="#5673d8" stroke-width="2" d="M131,-108C131,-108 44,-108 44,-108 38,-108 32,-102 32,-96 32,-96 32,-84 32,-84 32,-78 38,-72 44,-72 44,-72 131,-72 131,-72 137,-72 143,-78 143,-84 143,-84 143,-96 143,-96 143,-102 137,-108 131,-108"/>
<text text-anchor="middle" x="87.5" y="-87.5" font-family="sans" font-size="10.00">fix_gtdb_taxonomy</text>
</g>
<!-- 1&#45;&gt;0 -->
<g id="edge1" class="edge">
<title>1&#45;&gt;0</title>
<path fill="none" stroke="grey" stroke-width="2" d="M143,-72.68C187.76,-59.51 249.48,-41.36 288.43,-29.9"/>
<polygon fill="grey" stroke="grey" stroke-width="2" points="289.69,-33.18 298.3,-27 287.72,-26.46 289.69,-33.18"/>
</g>
<!-- 2 -->
<g id="node3" class="node">
<title>2</title>
<path fill="none" stroke="#5682d8" stroke-width="2" d="M53,-180C53,-180 12,-180 12,-180 6,-180 0,-174 0,-168 0,-168 0,-156 0,-156 0,-150 6,-144 12,-144 12,-144 53,-144 53,-144 59,-144 65,-150 65,-156 65,-156 65,-168 65,-168 65,-174 59,-180 53,-180"/>
<text text-anchor="middle" x="32.5" y="-159.5" font-family="sans" font-size="10.00">gtdb_prep</text>
</g>
<!-- 2&#45;&gt;1 -->
<g id="edge5" class="edge">
<title>2&#45;&gt;1</title>
<path fill="none" stroke="grey" stroke-width="2" d="M46.1,-143.7C52.62,-135.39 60.57,-125.28 67.75,-116.14"/>
<polygon fill="grey" stroke="grey" stroke-width="2" points="70.63,-118.13 74.06,-108.1 65.13,-113.81 70.63,-118.13"/>
</g>
<!-- 3 -->
<g id="node4" class="node">
<title>3</title>
<path fill="none" stroke="#d6d856" stroke-width="2" d="M329.5,-108C329.5,-108 201.5,-108 201.5,-108 195.5,-108 189.5,-102 189.5,-96 189.5,-96 189.5,-84 189.5,-84 189.5,-78 195.5,-72 201.5,-72 201.5,-72 329.5,-72 329.5,-72 335.5,-72 341.5,-78 341.5,-84 341.5,-84 341.5,-96 341.5,-96 341.5,-102 335.5,-108 329.5,-108"/>
<text text-anchor="middle" x="265.5" y="-87.5" font-family="sans" font-size="10.00">write_dependency_versions</text>
</g>
<!-- 3&#45;&gt;0 -->
<g id="edge2" class="edge">
<title>3&#45;&gt;0</title>
<path fill="none" stroke="grey" stroke-width="2" d="M280.33,-71.7C287.52,-63.3 296.3,-53.07 304.19,-43.86"/>
<polygon fill="grey" stroke="grey" stroke-width="2" points="306.99,-45.97 310.84,-36.1 301.67,-41.42 306.99,-45.97"/>
</g>
<!-- 4 -->
<g id="node5" class="node">
<title>4</title>
<path fill="none" stroke="#d8b456" stroke-width="2" d="M401.5,-108C401.5,-108 371.5,-108 371.5,-108 365.5,-108 359.5,-102 359.5,-96 359.5,-96 359.5,-84 359.5,-84 359.5,-78 365.5,-72 371.5,-72 371.5,-72 401.5,-72 401.5,-72 407.5,-72 413.5,-78 413.5,-84 413.5,-84 413.5,-96 413.5,-96 413.5,-102 407.5,-108 401.5,-108"/>
<text text-anchor="middle" x="386.5" y="-87.5" font-family="sans" font-size="10.00">gtdbtk</text>
</g>
<!-- 4&#45;&gt;0 -->
<g id="edge4" class="edge">
<title>4&#45;&gt;0</title>
<path fill="none" stroke="grey" stroke-width="2" d="M371.42,-71.7C364.11,-63.3 355.19,-53.07 347.16,-43.86"/>
<polygon fill="grey" stroke="grey" stroke-width="2" points="349.61,-41.34 340.41,-36.1 344.34,-45.94 349.61,-41.34"/>
</g>
<!-- 5 -->
<g id="node6" class="node">
<title>5</title>
<path fill="none" stroke="#d87d56" stroke-width="2" d="M596.5,-180C596.5,-180 486.5,-180 486.5,-180 480.5,-180 474.5,-174 474.5,-168 474.5,-168 474.5,-156 474.5,-156 474.5,-150 480.5,-144 486.5,-144 486.5,-144 596.5,-144 596.5,-144 602.5,-144 608.5,-150 608.5,-156 608.5,-156 608.5,-168 608.5,-168 608.5,-174 602.5,-180 596.5,-180"/>
<text text-anchor="middle" x="541.5" y="-159.5" font-family="sans" font-size="10.00">ncbi_genome_download</text>
</g>
<!-- 5&#45;&gt;4 -->
<g id="edge6" class="edge">
<title>5&#45;&gt;4</title>
<path fill="none" stroke="grey" stroke-width="2" d="M503.58,-143.88C479.06,-132.8 447.3,-118.46 423.05,-107.5"/>
<polygon fill="grey" stroke="grey" stroke-width="2" points="424.37,-104.26 413.82,-103.34 421.49,-110.64 424.37,-104.26"/>
</g>
<!-- 9 -->
<g id="node10" class="node">
<title>9</title>
<path fill="none" stroke="#d85e56" stroke-width="2" d="M579,-108C579,-108 464,-108 464,-108 458,-108 452,-102 452,-96 452,-96 452,-84 452,-84 452,-78 458,-72 464,-72 464,-72 579,-72 579,-72 585,-72 591,-78 591,-84 591,-84 591,-96 591,-96 591,-102 585,-108 579,-108"/>
<text text-anchor="middle" x="521.5" y="-87.5" font-family="sans" font-size="10.00">extract_ncbi_information</text>
</g>
<!-- 5&#45;&gt;9 -->
<g id="edge10" class="edge">
<title>5&#45;&gt;9</title>
<path fill="none" stroke="grey" stroke-width="2" d="M536.56,-143.7C534.33,-135.9 531.65,-126.51 529.17,-117.83"/>
<polygon fill="grey" stroke="grey" stroke-width="2" points="532.5,-116.76 526.39,-108.1 525.77,-118.68 532.5,-116.76"/>
</g>
<!-- 6 -->
<g id="node7" class="node">
<title>6</title>
<path fill="none" stroke="#56a9d8" stroke-width="2" d="M213.5,-180C213.5,-180 95.5,-180 95.5,-180 89.5,-180 83.5,-174 83.5,-168 83.5,-168 83.5,-156 83.5,-156 83.5,-150 89.5,-144 95.5,-144 95.5,-144 213.5,-144 213.5,-144 219.5,-144 225.5,-150 225.5,-156 225.5,-156 225.5,-168 225.5,-168 225.5,-174 219.5,-180 213.5,-180"/>
<text text-anchor="middle" x="154.5" y="-159.5" font-family="sans" font-size="10.00">patric_genome_download</text>
</g>
<!-- 6&#45;&gt;4 -->
<g id="edge7" class="edge">
<title>6&#45;&gt;4</title>
<path fill="none" stroke="grey" stroke-width="2" d="M225.75,-144.96C260.93,-136.29 304,-124.55 349.71,-107.99"/>
<polygon fill="grey" stroke="grey" stroke-width="2" points="351.02,-111.24 359.2,-104.51 348.6,-104.67 351.02,-111.24"/>
</g>
<!-- 7 -->
<g id="node8" class="node">
<title>7</title>
<path fill="none" stroke="#56d8d8" stroke-width="2" d="M343,-180C343,-180 256,-180 256,-180 250,-180 244,-174 244,-168 244,-168 244,-156 244,-156 244,-150 250,-144 256,-144 256,-144 343,-144 343,-144 349,-144 355,-150 355,-156 355,-156 355,-168 355,-168 355,-174 349,-180 343,-180"/>
<text text-anchor="middle" x="299.5" y="-159.5" font-family="sans" font-size="10.00">copy_custom_fasta</text>
</g>
<!-- 7&#45;&gt;4 -->
<g id="edge9" class="edge">
<title>7&#45;&gt;4</title>
<path fill="none" stroke="grey" stroke-width="2" d="M321.01,-143.7C331.96,-134.88 345.45,-124.03 357.32,-114.47"/>
<polygon fill="grey" stroke="grey" stroke-width="2" points="359.64,-117.1 365.24,-108.1 355.26,-111.65 359.64,-117.1"/>
</g>
<!-- 8 -->
<g id="node9" class="node">
<title>8</title>
<path fill="none" stroke="#56d89a" stroke-width="2" d="M444,-180C444,-180 385,-180 385,-180 379,-180 373,-174 373,-168 373,-168 373,-156 373,-156 373,-150 379,-144 385,-144 385,-144 444,-144 444,-144 450,-144 456,-150 456,-156 456,-156 456,-168 456,-168 456,-174 450,-180 444,-180"/>
<text text-anchor="middle" x="414.5" y="-159.5" font-family="sans" font-size="10.00">install_gtdbtk</text>
</g>
<!-- 8&#45;&gt;4 -->
<g id="edge8" class="edge">
<title>8&#45;&gt;4</title>
<path fill="none" stroke="grey" stroke-width="2" d="M407.58,-143.7C404.43,-135.81 400.62,-126.3 397.12,-117.55"/>
<polygon fill="grey" stroke="grey" stroke-width="2" points="400.31,-116.09 393.34,-108.1 393.81,-118.69 400.31,-116.09"/>
</g>
<!-- 9&#45;&gt;0 -->
<g id="edge3" class="edge">
<title>9&#45;&gt;0</title>
<path fill="none" stroke="grey" stroke-width="2" d="M473.8,-71.97C439.45,-59.7 393.78,-43.38 362.24,-32.12"/>
<polygon fill="grey" stroke="grey" stroke-width="2" points="363.12,-28.72 352.53,-28.65 360.77,-35.31 363.12,-28.72"/>
</g>
</g>
</svg>
