<?xml version="1.0" encoding="UTF-8" standalone="no"?>
<!DOCTYPE svg PUBLIC "-//W3C//DTD SVG 1.1//EN"
 "http://www.w3.org/Graphics/SVG/1.1/DTD/svg11.dtd">
<!-- Generated by graphviz version 2.48.0 (20210717.2242)
 -->
<!-- Title: snakemake_dag Pages: 1 -->
<svg width="482pt" height="332pt"
 viewBox="0.00 0.00 481.50 332.00" xmlns="http://www.w3.org/2000/svg" xmlns:xlink="http://www.w3.org/1999/xlink">
<g id="graph0" class="graph" transform="scale(1 1) rotate(0) translate(4 328)">
<title>snakemake_dag</title>
<polygon fill="white" stroke="transparent" points="-4,4 -4,-328 477.5,-328 477.5,4 -4,4"/>
<!-- 0 -->
<g id="node1" class="node">
<title>0</title>
<path fill="none" stroke="#70d856" stroke-width="2" d="M249.5,-36C249.5,-36 219.5,-36 219.5,-36 213.5,-36 207.5,-30 207.5,-24 207.5,-24 207.5,-12 207.5,-12 207.5,-6 213.5,0 219.5,0 219.5,0 249.5,0 249.5,0 255.5,0 261.5,-6 261.5,-12 261.5,-12 261.5,-24 261.5,-24 261.5,-30 255.5,-36 249.5,-36"/>
<text text-anchor="middle" x="234.5" y="-15.5" font-family="sans" font-size="10.00">all</text>
</g>
<!-- 1 -->
<g id="node2" class="node">
<title>1</title>
<path fill="none" stroke="#9fd856" stroke-width="2" d="M235.5,-252C235.5,-252 205.5,-252 205.5,-252 199.5,-252 193.5,-246 193.5,-240 193.5,-240 193.5,-228 193.5,-228 193.5,-222 199.5,-216 205.5,-216 205.5,-216 235.5,-216 235.5,-216 241.5,-216 247.5,-222 247.5,-228 247.5,-228 247.5,-240 247.5,-240 247.5,-246 241.5,-252 235.5,-252"/>
<text text-anchor="middle" x="220.5" y="-231.5" font-family="sans" font-size="10.00">prokka</text>
</g>
<!-- 1&#45;&gt;0 -->
<g id="edge3" class="edge">
<title>1&#45;&gt;0</title>
<path fill="none" stroke="grey" stroke-width="2" d="M221.62,-215.85C224.04,-178.83 229.78,-91.18 232.71,-46.39"/>
<polygon fill="grey" stroke="grey" stroke-width="2" points="236.21,-46.44 233.37,-36.23 229.23,-45.98 236.21,-46.44"/>
</g>
<!-- 6 -->
<g id="node7" class="node">
<title>6</title>
<path fill="none" stroke="#56d89a" stroke-width="2" d="M80.5,-180C80.5,-180 36.5,-180 36.5,-180 30.5,-180 24.5,-174 24.5,-168 24.5,-168 24.5,-156 24.5,-156 24.5,-150 30.5,-144 36.5,-144 36.5,-144 80.5,-144 80.5,-144 86.5,-144 92.5,-150 92.5,-156 92.5,-156 92.5,-168 92.5,-168 92.5,-174 86.5,-180 80.5,-180"/>
<text text-anchor="middle" x="58.5" y="-159.5" font-family="sans" font-size="10.00">antismash</text>
</g>
<!-- 1&#45;&gt;6 -->
<g id="edge10" class="edge">
<title>1&#45;&gt;6</title>
<path fill="none" stroke="grey" stroke-width="2" d="M193.38,-221.28C168.54,-210.55 131.32,-194.47 102.27,-181.91"/>
<polygon fill="grey" stroke="grey" stroke-width="2" points="103.32,-178.56 92.76,-177.8 100.55,-184.98 103.32,-178.56"/>
</g>
<!-- 8 -->
<g id="node9" class="node">
<title>8</title>
<path fill="none" stroke="#d85656" stroke-width="2" d="M304.5,-180C304.5,-180 274.5,-180 274.5,-180 268.5,-180 262.5,-174 262.5,-168 262.5,-168 262.5,-156 262.5,-156 262.5,-150 268.5,-144 274.5,-144 274.5,-144 304.5,-144 304.5,-144 310.5,-144 316.5,-150 316.5,-156 316.5,-156 316.5,-168 316.5,-168 316.5,-174 310.5,-180 304.5,-180"/>
<text text-anchor="middle" x="289.5" y="-159.5" font-family="sans" font-size="10.00">roary</text>
</g>
<!-- 1&#45;&gt;8 -->
<g id="edge13" class="edge">
<title>1&#45;&gt;8</title>
<path fill="none" stroke="grey" stroke-width="2" d="M237.56,-215.7C246,-207.14 256.32,-196.66 265.54,-187.3"/>
<polygon fill="grey" stroke="grey" stroke-width="2" points="268.11,-189.68 272.64,-180.1 263.13,-184.77 268.11,-189.68"/>
</g>
<!-- 2 -->
<g id="node3" class="node">
<title>2</title>
<path fill="none" stroke="#5682d8" stroke-width="2" d="M172,-324C172,-324 65,-324 65,-324 59,-324 53,-318 53,-312 53,-312 53,-300 53,-300 53,-294 59,-288 65,-288 65,-288 172,-288 172,-288 178,-288 184,-294 184,-300 184,-300 184,-312 184,-312 184,-318 178,-324 172,-324"/>
<text text-anchor="middle" x="118.5" y="-303.5" font-family="sans" font-size="10.00">prepare_for_annotation</text>
</g>
<!-- 2&#45;&gt;1 -->
<g id="edge6" class="edge">
<title>2&#45;&gt;1</title>
<path fill="none" stroke="grey" stroke-width="2" d="M143.45,-287.88C156.54,-278.89 172.76,-267.76 186.94,-258.03"/>
<polygon fill="grey" stroke="grey" stroke-width="2" points="189.19,-260.73 195.45,-252.19 185.23,-254.96 189.19,-260.73"/>
</g>
<!-- 3 -->
<g id="node4" class="node">
<title>3</title>
<path fill="none" stroke="#d8b456" stroke-width="2" d="M309,-324C309,-324 214,-324 214,-324 208,-324 202,-318 202,-312 202,-312 202,-300 202,-300 202,-294 208,-288 214,-288 214,-288 309,-288 309,-288 315,-288 321,-294 321,-300 321,-300 321,-312 321,-312 321,-318 315,-324 309,-324"/>
<text text-anchor="middle" x="261.5" y="-303.5" font-family="sans" font-size="10.00">prokka_refseq_setup</text>
</g>
<!-- 3&#45;&gt;1 -->
<g id="edge7" class="edge">
<title>3&#45;&gt;1</title>
<path fill="none" stroke="grey" stroke-width="2" d="M251.37,-287.7C246.65,-279.64 240.94,-269.89 235.72,-260.98"/>
<polygon fill="grey" stroke="grey" stroke-width="2" points="238.59,-258.96 230.52,-252.1 232.55,-262.5 238.59,-258.96"/>
</g>
<!-- 4 -->
<g id="node5" class="node">
<title>4</title>
<path fill="none" stroke="#d88556" stroke-width="2" d="M329.5,-252C329.5,-252 277.5,-252 277.5,-252 271.5,-252 265.5,-246 265.5,-240 265.5,-240 265.5,-228 265.5,-228 265.5,-222 271.5,-216 277.5,-216 277.5,-216 329.5,-216 329.5,-216 335.5,-216 341.5,-222 341.5,-228 341.5,-228 341.5,-240 341.5,-240 341.5,-246 335.5,-252 329.5,-252"/>
<text text-anchor="middle" x="303.5" y="-231.5" font-family="sans" font-size="10.00">prokka_ncbi</text>
</g>
<!-- 3&#45;&gt;4 -->
<g id="edge8" class="edge">
<title>3&#45;&gt;4</title>
<path fill="none" stroke="grey" stroke-width="2" d="M271.88,-287.7C276.76,-279.56 282.69,-269.69 288.08,-260.7"/>
<polygon fill="grey" stroke="grey" stroke-width="2" points="291.09,-262.48 293.24,-252.1 285.09,-258.88 291.09,-262.48"/>
</g>
<!-- 4&#45;&gt;0 -->
<g id="edge2" class="edge">
<title>4&#45;&gt;0</title>
<path fill="none" stroke="grey" stroke-width="2" d="M313.34,-215.77C322.35,-197.71 333.21,-168.61 325.5,-144 313.1,-104.41 282.51,-67.07 260.21,-43.69"/>
<polygon fill="grey" stroke="grey" stroke-width="2" points="262.5,-41.02 253.01,-36.31 257.49,-45.91 262.5,-41.02"/>
</g>
<!-- 4&#45;&gt;6 -->
<g id="edge12" class="edge">
<title>4&#45;&gt;6</title>
<path fill="none" stroke="grey" stroke-width="2" d="M265.41,-218.79C262.41,-217.81 259.41,-216.86 256.5,-216 191.73,-196.84 170.88,-200.65 102.57,-180.08"/>
<polygon fill="grey" stroke="grey" stroke-width="2" points="103.19,-176.61 92.6,-177.01 101.13,-183.3 103.19,-176.61"/>
</g>
<!-- 4&#45;&gt;8 -->
<g id="edge14" class="edge">
<title>4&#45;&gt;8</title>
<path fill="none" stroke="grey" stroke-width="2" d="M300.04,-215.7C298.5,-207.98 296.64,-198.71 294.92,-190.11"/>
<polygon fill="grey" stroke="grey" stroke-width="2" points="298.31,-189.22 292.92,-180.1 291.45,-190.6 298.31,-189.22"/>
</g>
<!-- 5 -->
<g id="node6" class="node">
<title>5</title>
<path fill="none" stroke="#56d86b" stroke-width="2" d="M461.5,-324C461.5,-324 351.5,-324 351.5,-324 345.5,-324 339.5,-318 339.5,-312 339.5,-312 339.5,-300 339.5,-300 339.5,-294 345.5,-288 351.5,-288 351.5,-288 461.5,-288 461.5,-288 467.5,-288 473.5,-294 473.5,-300 473.5,-300 473.5,-312 473.5,-312 473.5,-318 467.5,-324 461.5,-324"/>
<text text-anchor="middle" x="406.5" y="-303.5" font-family="sans" font-size="10.00">ncbi_genome_download</text>
</g>
<!-- 5&#45;&gt;4 -->
<g id="edge9" class="edge">
<title>5&#45;&gt;4</title>
<path fill="none" stroke="grey" stroke-width="2" d="M381.3,-287.88C368.09,-278.89 351.71,-267.76 337.39,-258.03"/>
<polygon fill="grey" stroke="grey" stroke-width="2" points="339.03,-254.92 328.79,-252.19 335.1,-260.71 339.03,-254.92"/>
</g>
<!-- 6&#45;&gt;0 -->
<g id="edge4" class="edge">
<title>6&#45;&gt;0</title>
<path fill="none" stroke="grey" stroke-width="2" d="M66.64,-143.87C76.69,-124.28 95.45,-92.3 119.5,-72 142.39,-52.69 173.48,-38.92 197.57,-30.27"/>
<polygon fill="grey" stroke="grey" stroke-width="2" points="198.77,-33.55 207.08,-26.98 196.49,-26.93 198.77,-33.55"/>
</g>
<!-- 9 -->
<g id="node10" class="node">
<title>9</title>
<path fill="none" stroke="#56b1d8" stroke-width="2" d="M176.5,-108C176.5,-108 140.5,-108 140.5,-108 134.5,-108 128.5,-102 128.5,-96 128.5,-96 128.5,-84 128.5,-84 128.5,-78 134.5,-72 140.5,-72 140.5,-72 176.5,-72 176.5,-72 182.5,-72 188.5,-78 188.5,-84 188.5,-84 188.5,-96 188.5,-96 188.5,-102 182.5,-108 176.5,-108"/>
<text text-anchor="middle" x="158.5" y="-87.5" font-family="sans" font-size="10.00">bigscape</text>
</g>
<!-- 6&#45;&gt;9 -->
<g id="edge15" class="edge">
<title>6&#45;&gt;9</title>
<path fill="none" stroke="grey" stroke-width="2" d="M82.96,-143.88C95.8,-134.89 111.7,-123.76 125.59,-114.03"/>
<polygon fill="grey" stroke="grey" stroke-width="2" points="127.76,-116.79 133.94,-108.19 123.74,-111.06 127.76,-116.79"/>
</g>
<!-- 7 -->
<g id="node8" class="node">
<title>7</title>
<path fill="none" stroke="#ced856" stroke-width="2" d="M105,-252C105,-252 12,-252 12,-252 6,-252 0,-246 0,-240 0,-240 0,-228 0,-228 0,-222 6,-216 12,-216 12,-216 105,-216 105,-216 111,-216 117,-222 117,-228 117,-228 117,-240 117,-240 117,-246 111,-252 105,-252"/>
<text text-anchor="middle" x="58.5" y="-231.5" font-family="sans" font-size="10.00">antismash_db_setup</text>
</g>
<!-- 7&#45;&gt;6 -->
<g id="edge11" class="edge">
<title>7&#45;&gt;6</title>
<path fill="none" stroke="grey" stroke-width="2" d="M58.5,-215.7C58.5,-207.98 58.5,-198.71 58.5,-190.11"/>
<polygon fill="grey" stroke="grey" stroke-width="2" points="62,-190.1 58.5,-180.1 55,-190.1 62,-190.1"/>
</g>
<!-- 8&#45;&gt;0 -->
<g id="edge1" class="edge">
<title>8&#45;&gt;0</title>
<path fill="none" stroke="grey" stroke-width="2" d="M282.87,-143.87C273.41,-119.46 255.97,-74.43 244.82,-45.64"/>
<polygon fill="grey" stroke="grey" stroke-width="2" points="248.03,-44.25 241.16,-36.19 241.51,-46.78 248.03,-44.25"/>
</g>
<!-- 9&#45;&gt;0 -->
<g id="edge5" class="edge">
<title>9&#45;&gt;0</title>
<path fill="none" stroke="grey" stroke-width="2" d="M177.29,-71.7C186.67,-63.05 198.18,-52.45 208.41,-43.03"/>
<polygon fill="grey" stroke="grey" stroke-width="2" points="210.95,-45.45 215.93,-36.1 206.2,-40.3 210.95,-45.45"/>
</g>
<!-- 10 -->
<g id="node11" class="node">
<title>10</title>
<path fill="none" stroke="#56d8c9" stroke-width="2" d="M194,-180C194,-180 123,-180 123,-180 117,-180 111,-174 111,-168 111,-168 111,-156 111,-156 111,-150 117,-144 123,-144 123,-144 194,-144 194,-144 200,-144 206,-150 206,-156 206,-156 206,-168 206,-168 206,-174 200,-180 194,-180"/>
<text text-anchor="middle" x="158.5" y="-159.5" font-family="sans" font-size="10.00">install_bigscape</text>
</g>
<!-- 10&#45;&gt;9 -->
<g id="edge16" class="edge">
<title>10&#45;&gt;9</title>
<path fill="none" stroke="grey" stroke-width="2" d="M158.5,-143.7C158.5,-135.98 158.5,-126.71 158.5,-118.11"/>
<polygon fill="grey" stroke="grey" stroke-width="2" points="162,-118.1 158.5,-108.1 155,-118.1 162,-118.1"/>
</g>
</g>
</svg>
