<?xml version="1.0" encoding="UTF-8" standalone="no"?>
<!DOCTYPE svg PUBLIC "-//W3C//DTD SVG 1.1//EN"
 "http://www.w3.org/Graphics/SVG/1.1/DTD/svg11.dtd">
<!-- Generated by graphviz version 2.49.1 (20211004.0028)
 -->
<!-- Title: snakemake_dag Pages: 1 -->
<svg width="680pt" height="404pt"
 viewBox="0.00 0.00 680.00 404.00" xmlns="http://www.w3.org/2000/svg" xmlns:xlink="http://www.w3.org/1999/xlink">
<g id="graph0" class="graph" transform="scale(1 1) rotate(0) translate(4 400)">
<title>snakemake_dag</title>
<polygon fill="white" stroke="transparent" points="-4,4 -4,-400 676,-400 676,4 -4,4"/>
<!-- 0 -->
<g id="node1" class="node">
<title>0</title>
<path fill="none" stroke="#56d86b" stroke-width="2" d="M371.5,-36C371.5,-36 341.5,-36 341.5,-36 335.5,-36 329.5,-30 329.5,-24 329.5,-24 329.5,-12 329.5,-12 329.5,-6 335.5,0 341.5,0 341.5,0 371.5,0 371.5,0 377.5,0 383.5,-6 383.5,-12 383.5,-12 383.5,-24 383.5,-24 383.5,-30 377.5,-36 371.5,-36"/>
<text text-anchor="middle" x="356.5" y="-15.5" font-family="sans" font-size="10.00">all</text>
</g>
<!-- 1 -->
<g id="node2" class="node">
<title>1</title>
<path fill="none" stroke="#d8ac56" stroke-width="2" d="M206,-108C206,-108 119,-108 119,-108 113,-108 107,-102 107,-96 107,-96 107,-84 107,-84 107,-78 113,-72 119,-72 119,-72 206,-72 206,-72 212,-72 218,-78 218,-84 218,-84 218,-96 218,-96 218,-102 212,-108 206,-108"/>
<text text-anchor="middle" x="162.5" y="-87.5" font-family="sans" font-size="10.00">fix_gtdb_taxonomy</text>
</g>
<!-- 1&#45;&gt;0 -->
<g id="edge1" class="edge">
<title>1&#45;&gt;0</title>
<path fill="none" stroke="grey" stroke-width="2" d="M209.96,-71.88C243.77,-59.68 288.55,-43.52 319.67,-32.29"/>
<polygon fill="grey" stroke="grey" stroke-width="2" points="321.05,-35.51 329.26,-28.83 318.67,-28.93 321.05,-35.51"/>
</g>
<!-- 2 -->
<g id="node3" class="node">
<title>2</title>
<path fill="none" stroke="#d86e56" stroke-width="2" d="M209,-252C209,-252 110,-252 110,-252 104,-252 98,-246 98,-240 98,-240 98,-228 98,-228 98,-222 104,-216 110,-216 110,-216 209,-216 209,-216 215,-216 221,-222 221,-228 221,-228 221,-240 221,-240 221,-246 215,-252 209,-252"/>
<text text-anchor="middle" x="159.5" y="-231.5" font-family="sans" font-size="10.00">fetch_gtdb_taxonomy</text>
</g>
<!-- 2&#45;&gt;1 -->
<g id="edge10" class="edge">
<title>2&#45;&gt;1</title>
<path fill="none" stroke="grey" stroke-width="2" d="M159.86,-215.87C160.37,-191.67 161.31,-147.21 161.92,-118.39"/>
<polygon fill="grey" stroke="grey" stroke-width="2" points="165.42,-118.26 162.14,-108.19 158.43,-118.11 165.42,-118.26"/>
</g>
<!-- 3 -->
<g id="node4" class="node">
<title>3</title>
<path fill="none" stroke="#5682d8" stroke-width="2" d="M179,-324C179,-324 138,-324 138,-324 132,-324 126,-318 126,-312 126,-312 126,-300 126,-300 126,-294 132,-288 138,-288 138,-288 179,-288 179,-288 185,-288 191,-294 191,-300 191,-300 191,-312 191,-312 191,-318 185,-324 179,-324"/>
<text text-anchor="middle" x="158.5" y="-303.5" font-family="sans" font-size="10.00">gtdb_prep</text>
</g>
<!-- 3&#45;&gt;2 -->
<g id="edge11" class="edge">
<title>3&#45;&gt;2</title>
<path fill="none" stroke="grey" stroke-width="2" d="M158.75,-287.7C158.86,-279.98 158.99,-270.71 159.11,-262.11"/>
<polygon fill="grey" stroke="grey" stroke-width="2" points="162.61,-262.15 159.26,-252.1 155.61,-262.05 162.61,-262.15"/>
</g>
<!-- 4 -->
<g id="node5" class="node">
<title>4</title>
<path fill="none" stroke="#d8c356" stroke-width="2" d="M326,-396C326,-396 239,-396 239,-396 233,-396 227,-390 227,-384 227,-384 227,-372 227,-372 227,-366 233,-360 239,-360 239,-360 326,-360 326,-360 332,-360 338,-366 338,-372 338,-372 338,-384 338,-384 338,-390 332,-396 326,-396"/>
<text text-anchor="middle" x="282.5" y="-375.5" font-family="sans" font-size="10.00">copy_custom_fasta</text>
</g>
<!-- 4&#45;&gt;3 -->
<g id="edge12" class="edge">
<title>4&#45;&gt;3</title>
<path fill="none" stroke="grey" stroke-width="2" d="M252.17,-359.88C235.8,-350.64 215.42,-339.13 197.85,-329.21"/>
<polygon fill="grey" stroke="grey" stroke-width="2" points="199.38,-326.06 188.95,-324.19 195.94,-332.15 199.38,-326.06"/>
</g>
<!-- 9 -->
<g id="node10" class="node">
<title>9</title>
<path fill="none" stroke="#d89556" stroke-width="2" d="M338.5,-252C338.5,-252 270.5,-252 270.5,-252 264.5,-252 258.5,-246 258.5,-240 258.5,-240 258.5,-228 258.5,-228 258.5,-222 264.5,-216 270.5,-216 270.5,-216 338.5,-216 338.5,-216 344.5,-216 350.5,-222 350.5,-228 350.5,-228 350.5,-240 350.5,-240 350.5,-246 344.5,-252 338.5,-252"/>
<text text-anchor="middle" x="304.5" y="-231.5" font-family="sans" font-size="10.00">prokka_custom</text>
</g>
<!-- 4&#45;&gt;9 -->
<g id="edge19" class="edge">
<title>4&#45;&gt;9</title>
<path fill="none" stroke="grey" stroke-width="2" d="M263.03,-359.92C253.68,-350.4 243.45,-337.72 238.5,-324 233.07,-308.95 231.58,-302.43 238.5,-288 244.17,-276.18 253.89,-266.17 264.16,-258.14"/>
<polygon fill="grey" stroke="grey" stroke-width="2" points="266.41,-260.83 272.45,-252.12 262.3,-255.16 266.41,-260.83"/>
</g>
<!-- 12 -->
<g id="node13" class="node">
<title>12</title>
<path fill="none" stroke="#56d8d8" stroke-width="2" d="M357,-324C357,-324 260,-324 260,-324 254,-324 248,-318 248,-312 248,-312 248,-300 248,-300 248,-294 254,-288 260,-288 260,-288 357,-288 357,-288 363,-288 369,-294 369,-300 369,-300 369,-312 369,-312 369,-318 363,-324 357,-324"/>
<text text-anchor="middle" x="308.5" y="-303.5" font-family="sans" font-size="10.00">extract_meta_prokka</text>
</g>
<!-- 4&#45;&gt;12 -->
<g id="edge23" class="edge">
<title>4&#45;&gt;12</title>
<path fill="none" stroke="grey" stroke-width="2" d="M288.93,-359.7C291.86,-351.81 295.39,-342.3 298.64,-333.55"/>
<polygon fill="grey" stroke="grey" stroke-width="2" points="301.95,-334.7 302.15,-324.1 295.38,-332.26 301.95,-334.7"/>
</g>
<!-- 15 -->
<g id="node16" class="node">
<title>15</title>
<path fill="none" stroke="#80d856" stroke-width="2" d="M464,-324C464,-324 399,-324 399,-324 393,-324 387,-318 387,-312 387,-312 387,-300 387,-300 387,-294 393,-288 399,-288 399,-288 464,-288 464,-288 470,-288 476,-294 476,-300 476,-300 476,-312 476,-312 476,-318 470,-324 464,-324"/>
<text text-anchor="middle" x="431.5" y="-303.5" font-family="sans" font-size="10.00">refseq_masher</text>
</g>
<!-- 4&#45;&gt;15 -->
<g id="edge28" class="edge">
<title>4&#45;&gt;15</title>
<path fill="none" stroke="grey" stroke-width="2" d="M318.95,-359.88C339.14,-350.39 364.42,-338.51 385.91,-328.42"/>
<polygon fill="grey" stroke="grey" stroke-width="2" points="387.61,-331.49 395.17,-324.07 384.63,-325.15 387.61,-331.49"/>
</g>
<!-- 5 -->
<g id="node6" class="node">
<title>5</title>
<path fill="none" stroke="#56d89a" stroke-width="2" d="M196.5,-396C196.5,-396 86.5,-396 86.5,-396 80.5,-396 74.5,-390 74.5,-384 74.5,-384 74.5,-372 74.5,-372 74.5,-366 80.5,-360 86.5,-360 86.5,-360 196.5,-360 196.5,-360 202.5,-360 208.5,-366 208.5,-372 208.5,-372 208.5,-384 208.5,-384 208.5,-390 202.5,-396 196.5,-396"/>
<text text-anchor="middle" x="141.5" y="-375.5" font-family="sans" font-size="10.00">ncbi_genome_download</text>
</g>
<!-- 5&#45;&gt;3 -->
<g id="edge14" class="edge">
<title>5&#45;&gt;3</title>
<path fill="none" stroke="grey" stroke-width="2" d="M145.7,-359.7C147.6,-351.9 149.88,-342.51 151.98,-333.83"/>
<polygon fill="grey" stroke="grey" stroke-width="2" points="155.39,-334.65 154.35,-324.1 148.58,-333 155.39,-334.65"/>
</g>
<!-- 7 -->
<g id="node8" class="node">
<title>7</title>
<path fill="none" stroke="#d88556" stroke-width="2" d="M77,-108C77,-108 12,-108 12,-108 6,-108 0,-102 0,-96 0,-96 0,-84 0,-84 0,-78 6,-72 12,-72 12,-72 77,-72 77,-72 83,-72 89,-78 89,-84 89,-84 89,-96 89,-96 89,-102 83,-108 77,-108"/>
<text text-anchor="middle" x="44.5" y="-87.5" font-family="sans" font-size="10.00">ncbi_metadata</text>
</g>
<!-- 5&#45;&gt;7 -->
<g id="edge15" class="edge">
<title>5&#45;&gt;7</title>
<path fill="none" stroke="grey" stroke-width="2" d="M127.99,-359.69C120.76,-349.71 112.19,-336.68 106.5,-324 74.67,-253.09 56.4,-162.46 48.76,-118.03"/>
<polygon fill="grey" stroke="grey" stroke-width="2" points="52.19,-117.3 47.09,-108.01 45.28,-118.45 52.19,-117.3"/>
</g>
<!-- 5&#45;&gt;9 -->
<g id="edge18" class="edge">
<title>5&#45;&gt;9</title>
<path fill="none" stroke="grey" stroke-width="2" d="M128.67,-359.96C115.89,-340.73 100.32,-309.37 116.5,-288 120.64,-282.53 194.76,-262.77 248.67,-249"/>
<polygon fill="grey" stroke="grey" stroke-width="2" points="249.65,-252.36 258.48,-246.5 247.93,-245.57 249.65,-252.36"/>
</g>
<!-- 5&#45;&gt;12 -->
<g id="edge25" class="edge">
<title>5&#45;&gt;12</title>
<path fill="none" stroke="grey" stroke-width="2" d="M182.35,-359.88C205.28,-350.26 234.08,-338.19 258.37,-328.01"/>
<polygon fill="grey" stroke="grey" stroke-width="2" points="259.91,-331.16 267.78,-324.07 257.2,-324.71 259.91,-331.16"/>
</g>
<!-- 5&#45;&gt;15 -->
<g id="edge30" class="edge">
<title>5&#45;&gt;15</title>
<path fill="none" stroke="grey" stroke-width="2" d="M208.65,-361.95C267.7,-348.72 347.76,-330.77 376.79,-323.87"/>
<polygon fill="grey" stroke="grey" stroke-width="2" points="377.93,-327.19 386.8,-321.39 376.25,-320.4 377.93,-327.19"/>
</g>
<!-- 6 -->
<g id="node7" class="node">
<title>6</title>
<path fill="none" stroke="#566bd8" stroke-width="2" d="M486.5,-396C486.5,-396 368.5,-396 368.5,-396 362.5,-396 356.5,-390 356.5,-384 356.5,-384 356.5,-372 356.5,-372 356.5,-366 362.5,-360 368.5,-360 368.5,-360 486.5,-360 486.5,-360 492.5,-360 498.5,-366 498.5,-372 498.5,-372 498.5,-384 498.5,-384 498.5,-390 492.5,-396 486.5,-396"/>
<text text-anchor="middle" x="427.5" y="-375.5" font-family="sans" font-size="10.00">patric_genome_download</text>
</g>
<!-- 6&#45;&gt;3 -->
<g id="edge13" class="edge">
<title>6&#45;&gt;3</title>
<path fill="none" stroke="grey" stroke-width="2" d="M362.04,-359.97C311.94,-346.93 244.3,-329.33 201.03,-318.07"/>
<polygon fill="grey" stroke="grey" stroke-width="2" points="201.67,-314.62 191.11,-315.49 199.91,-321.39 201.67,-314.62"/>
</g>
<!-- 6&#45;&gt;9 -->
<g id="edge21" class="edge">
<title>6&#45;&gt;9</title>
<path fill="none" stroke="grey" stroke-width="2" d="M454.84,-359.77C466.61,-350.72 479.12,-338.48 485.5,-324 491.95,-309.36 495.14,-300.77 485.5,-288 452.28,-243.96 419.03,-265.95 360.67,-252.03"/>
<polygon fill="grey" stroke="grey" stroke-width="2" points="361.26,-248.56 350.69,-249.36 359.44,-255.33 361.26,-248.56"/>
</g>
<!-- 6&#45;&gt;12 -->
<g id="edge24" class="edge">
<title>6&#45;&gt;12</title>
<path fill="none" stroke="grey" stroke-width="2" d="M398.39,-359.88C382.83,-350.72 363.48,-339.34 346.72,-329.48"/>
<polygon fill="grey" stroke="grey" stroke-width="2" points="348.12,-326.24 337.72,-324.19 344.57,-332.28 348.12,-326.24"/>
</g>
<!-- 6&#45;&gt;15 -->
<g id="edge29" class="edge">
<title>6&#45;&gt;15</title>
<path fill="none" stroke="grey" stroke-width="2" d="M428.49,-359.7C428.93,-351.98 429.46,-342.71 429.95,-334.11"/>
<polygon fill="grey" stroke="grey" stroke-width="2" points="433.45,-334.29 430.52,-324.1 426.46,-333.89 433.45,-334.29"/>
</g>
<!-- 7&#45;&gt;0 -->
<g id="edge4" class="edge">
<title>7&#45;&gt;0</title>
<path fill="none" stroke="grey" stroke-width="2" d="M89.22,-74.28C92.01,-73.48 94.79,-72.71 97.5,-72 175.64,-51.54 268.74,-34.16 319.31,-25.3"/>
<polygon fill="grey" stroke="grey" stroke-width="2" points="320.18,-28.7 329.43,-23.54 318.98,-21.8 320.18,-28.7"/>
</g>
<!-- 8 -->
<g id="node9" class="node">
<title>8</title>
<path fill="none" stroke="#59d856" stroke-width="2" d="M371.5,-108C371.5,-108 341.5,-108 341.5,-108 335.5,-108 329.5,-102 329.5,-96 329.5,-96 329.5,-84 329.5,-84 329.5,-78 335.5,-72 341.5,-72 341.5,-72 371.5,-72 371.5,-72 377.5,-72 383.5,-78 383.5,-84 383.5,-84 383.5,-96 383.5,-96 383.5,-102 377.5,-108 371.5,-108"/>
<text text-anchor="middle" x="356.5" y="-87.5" font-family="sans" font-size="10.00">mlst</text>
</g>
<!-- 8&#45;&gt;0 -->
<g id="edge9" class="edge">
<title>8&#45;&gt;0</title>
<path fill="none" stroke="grey" stroke-width="2" d="M356.5,-71.7C356.5,-63.98 356.5,-54.71 356.5,-46.11"/>
<polygon fill="grey" stroke="grey" stroke-width="2" points="360,-46.1 356.5,-36.1 353,-46.1 360,-46.1"/>
</g>
<!-- 9&#45;&gt;0 -->
<g id="edge6" class="edge">
<title>9&#45;&gt;0</title>
<path fill="none" stroke="grey" stroke-width="2" d="M287.61,-215.99C279.21,-206.31 269.92,-193.46 265.5,-180 260.51,-164.8 261.49,-159.49 265.5,-144 275.95,-103.67 307.18,-66.3 330.15,-43.12"/>
<polygon fill="grey" stroke="grey" stroke-width="2" points="332.6,-45.61 337.28,-36.11 327.69,-40.62 332.6,-45.61"/>
</g>
<!-- 9&#45;&gt;8 -->
<g id="edge16" class="edge">
<title>9&#45;&gt;8</title>
<path fill="none" stroke="grey" stroke-width="2" d="M317.43,-215.68C324.31,-205.7 332.39,-192.66 337.5,-180 345.52,-160.13 350.37,-136.33 353.17,-118.35"/>
<polygon fill="grey" stroke="grey" stroke-width="2" points="356.66,-118.64 354.62,-108.25 349.73,-117.65 356.66,-118.64"/>
</g>
<!-- 13 -->
<g id="node14" class="node">
<title>13</title>
<path fill="none" stroke="#56d8a9" stroke-width="2" d="M426.5,-180C426.5,-180 396.5,-180 396.5,-180 390.5,-180 384.5,-174 384.5,-168 384.5,-168 384.5,-156 384.5,-156 384.5,-150 390.5,-144 396.5,-144 396.5,-144 426.5,-144 426.5,-144 432.5,-144 438.5,-150 438.5,-156 438.5,-156 438.5,-168 438.5,-168 438.5,-174 432.5,-180 426.5,-180"/>
<text text-anchor="middle" x="411.5" y="-159.5" font-family="sans" font-size="10.00">eggnog</text>
</g>
<!-- 9&#45;&gt;13 -->
<g id="edge27" class="edge">
<title>9&#45;&gt;13</title>
<path fill="none" stroke="grey" stroke-width="2" d="M330.68,-215.88C344.54,-206.81 361.74,-195.55 376.71,-185.76"/>
<polygon fill="grey" stroke="grey" stroke-width="2" points="378.77,-188.59 385.22,-180.19 374.94,-182.74 378.77,-188.59"/>
</g>
<!-- 16 -->
<g id="node17" class="node">
<title>16</title>
<path fill="none" stroke="#c6d856" stroke-width="2" d="M512.5,-180C512.5,-180 468.5,-180 468.5,-180 462.5,-180 456.5,-174 456.5,-168 456.5,-168 456.5,-156 456.5,-156 456.5,-150 462.5,-144 468.5,-144 468.5,-144 512.5,-144 512.5,-144 518.5,-144 524.5,-150 524.5,-156 524.5,-156 524.5,-168 524.5,-168 524.5,-174 518.5,-180 512.5,-180"/>
<text text-anchor="middle" x="490.5" y="-159.5" font-family="sans" font-size="10.00">antismash</text>
</g>
<!-- 9&#45;&gt;16 -->
<g id="edge32" class="edge">
<title>9&#45;&gt;16</title>
<path fill="none" stroke="grey" stroke-width="2" d="M350.64,-216.19C376.51,-206.69 409.58,-194.45 446.73,-180.26"/>
<polygon fill="grey" stroke="grey" stroke-width="2" points="448.17,-183.46 456.26,-176.61 445.67,-176.92 448.17,-183.46"/>
</g>
<!-- 18 -->
<g id="node19" class="node">
<title>18</title>
<path fill="none" stroke="#97d856" stroke-width="2" d="M316.5,-180C316.5,-180 286.5,-180 286.5,-180 280.5,-180 274.5,-174 274.5,-168 274.5,-168 274.5,-156 274.5,-156 274.5,-150 280.5,-144 286.5,-144 286.5,-144 316.5,-144 316.5,-144 322.5,-144 328.5,-150 328.5,-156 328.5,-156 328.5,-168 328.5,-168 328.5,-174 322.5,-180 316.5,-180"/>
<text text-anchor="middle" x="301.5" y="-159.5" font-family="sans" font-size="10.00">roary</text>
</g>
<!-- 9&#45;&gt;18 -->
<g id="edge33" class="edge">
<title>9&#45;&gt;18</title>
<path fill="none" stroke="grey" stroke-width="2" d="M303.76,-215.7C303.43,-207.98 303.03,-198.71 302.66,-190.11"/>
<polygon fill="grey" stroke="grey" stroke-width="2" points="306.16,-189.95 302.23,-180.1 299.16,-190.25 306.16,-189.95"/>
</g>
<!-- 10 -->
<g id="node11" class="node">
<title>10</title>
<path fill="none" stroke="#d85656" stroke-width="2" d="M628.5,-324C628.5,-324 552.5,-324 552.5,-324 546.5,-324 540.5,-318 540.5,-312 540.5,-312 540.5,-300 540.5,-300 540.5,-294 546.5,-288 552.5,-288 552.5,-288 628.5,-288 628.5,-288 634.5,-288 640.5,-294 640.5,-300 640.5,-300 640.5,-312 640.5,-312 640.5,-318 634.5,-324 628.5,-324"/>
<text text-anchor="middle" x="590.5" y="-303.5" font-family="sans" font-size="10.00">prokka_db_setup</text>
</g>
<!-- 10&#45;&gt;9 -->
<g id="edge17" class="edge">
<title>10&#45;&gt;9</title>
<path fill="none" stroke="grey" stroke-width="2" d="M540.16,-293.05C532.89,-291.35 525.51,-289.62 518.5,-288 450.94,-272.38 431.18,-270.82 360.48,-252.16"/>
<polygon fill="grey" stroke="grey" stroke-width="2" points="361.2,-248.73 350.64,-249.54 359.4,-255.5 361.2,-248.73"/>
</g>
<!-- 11 -->
<g id="node12" class="node">
<title>11</title>
<path fill="none" stroke="#68d856" stroke-width="2" d="M660,-396C660,-396 529,-396 529,-396 523,-396 517,-390 517,-384 517,-384 517,-372 517,-372 517,-366 523,-360 529,-360 529,-360 660,-360 660,-360 666,-360 672,-366 672,-372 672,-372 672,-384 672,-384 672,-390 666,-396 660,-396"/>
<text text-anchor="middle" x="594.5" y="-375.5" font-family="sans" font-size="10.00">prokka_reference_download</text>
</g>
<!-- 11&#45;&gt;10 -->
<g id="edge22" class="edge">
<title>11&#45;&gt;10</title>
<path fill="none" stroke="grey" stroke-width="2" d="M593.51,-359.7C593.07,-351.98 592.54,-342.71 592.05,-334.11"/>
<polygon fill="grey" stroke="grey" stroke-width="2" points="595.54,-333.89 591.48,-324.1 588.55,-334.29 595.54,-333.89"/>
</g>
<!-- 12&#45;&gt;9 -->
<g id="edge20" class="edge">
<title>12&#45;&gt;9</title>
<path fill="none" stroke="grey" stroke-width="2" d="M307.51,-287.7C307.07,-279.98 306.54,-270.71 306.05,-262.11"/>
<polygon fill="grey" stroke="grey" stroke-width="2" points="309.54,-261.89 305.48,-252.1 302.55,-262.29 309.54,-261.89"/>
</g>
<!-- 13&#45;&gt;0 -->
<g id="edge3" class="edge">
<title>13&#45;&gt;0</title>
<path fill="none" stroke="grey" stroke-width="2" d="M409.8,-143.67C407.55,-125.29 402.61,-95.69 392.5,-72 388.42,-62.43 382.51,-52.78 376.66,-44.39"/>
<polygon fill="grey" stroke="grey" stroke-width="2" points="379.38,-42.17 370.66,-36.15 373.72,-46.29 379.38,-42.17"/>
</g>
<!-- 14 -->
<g id="node15" class="node">
<title>14</title>
<path fill="none" stroke="#56d882" stroke-width="2" d="M444.5,-252C444.5,-252 380.5,-252 380.5,-252 374.5,-252 368.5,-246 368.5,-240 368.5,-240 368.5,-228 368.5,-228 368.5,-222 374.5,-216 380.5,-216 380.5,-216 444.5,-216 444.5,-216 450.5,-216 456.5,-222 456.5,-228 456.5,-228 456.5,-240 456.5,-240 456.5,-246 450.5,-252 444.5,-252"/>
<text text-anchor="middle" x="412.5" y="-231.5" font-family="sans" font-size="10.00">install_eggnog</text>
</g>
<!-- 14&#45;&gt;13 -->
<g id="edge26" class="edge">
<title>14&#45;&gt;13</title>
<path fill="none" stroke="grey" stroke-width="2" d="M412.25,-215.7C412.14,-207.98 412.01,-198.71 411.89,-190.11"/>
<polygon fill="grey" stroke="grey" stroke-width="2" points="415.39,-190.05 411.74,-180.1 408.39,-190.15 415.39,-190.05"/>
</g>
<!-- 15&#45;&gt;0 -->
<g id="edge7" class="edge">
<title>15&#45;&gt;0</title>
<path fill="none" stroke="grey" stroke-width="2" d="M476.21,-299.68C512.96,-293.42 564.77,-280.05 601.5,-252 642.96,-220.33 671.39,-190.38 647.5,-144 599.33,-50.51 460.7,-26.94 393.67,-21"/>
<polygon fill="grey" stroke="grey" stroke-width="2" points="393.8,-17.5 383.55,-20.19 393.24,-24.48 393.8,-17.5"/>
</g>
<!-- 16&#45;&gt;0 -->
<g id="edge5" class="edge">
<title>16&#45;&gt;0</title>
<path fill="none" stroke="grey" stroke-width="2" d="M476.03,-143.92C460.47,-125.73 434.82,-96.3 411.5,-72 402.25,-62.36 391.75,-52.09 382.43,-43.19"/>
<polygon fill="grey" stroke="grey" stroke-width="2" points="384.6,-40.42 374.93,-36.08 379.78,-45.5 384.6,-40.42"/>
</g>
<!-- 19 -->
<g id="node20" class="node">
<title>19</title>
<path fill="none" stroke="#56a9d8" stroke-width="2" d="M525.5,-108C525.5,-108 489.5,-108 489.5,-108 483.5,-108 477.5,-102 477.5,-96 477.5,-96 477.5,-84 477.5,-84 477.5,-78 483.5,-72 489.5,-72 489.5,-72 525.5,-72 525.5,-72 531.5,-72 537.5,-78 537.5,-84 537.5,-84 537.5,-96 537.5,-96 537.5,-102 531.5,-108 525.5,-108"/>
<text text-anchor="middle" x="507.5" y="-87.5" font-family="sans" font-size="10.00">bigscape</text>
</g>
<!-- 16&#45;&gt;19 -->
<g id="edge35" class="edge">
<title>16&#45;&gt;19</title>
<path fill="none" stroke="grey" stroke-width="2" d="M494.7,-143.7C496.6,-135.9 498.88,-126.51 500.98,-117.83"/>
<polygon fill="grey" stroke="grey" stroke-width="2" points="504.39,-118.65 503.35,-108.1 497.58,-117 504.39,-118.65"/>
</g>
<!-- 17 -->
<g id="node18" class="node">
<title>17</title>
<path fill="none" stroke="#56d8c1" stroke-width="2" d="M580,-252C580,-252 487,-252 487,-252 481,-252 475,-246 475,-240 475,-240 475,-228 475,-228 475,-222 481,-216 487,-216 487,-216 580,-216 580,-216 586,-216 592,-222 592,-228 592,-228 592,-240 592,-240 592,-246 586,-252 580,-252"/>
<text text-anchor="middle" x="533.5" y="-231.5" font-family="sans" font-size="10.00">antismash_db_setup</text>
</g>
<!-- 17&#45;&gt;16 -->
<g id="edge31" class="edge">
<title>17&#45;&gt;16</title>
<path fill="none" stroke="grey" stroke-width="2" d="M522.87,-215.7C517.87,-207.56 511.81,-197.69 506.29,-188.7"/>
<polygon fill="grey" stroke="grey" stroke-width="2" points="509.22,-186.79 501.01,-180.1 503.26,-190.46 509.22,-186.79"/>
</g>
<!-- 18&#45;&gt;0 -->
<g id="edge8" class="edge">
<title>18&#45;&gt;0</title>
<path fill="none" stroke="grey" stroke-width="2" d="M303.2,-143.67C305.45,-125.29 310.39,-95.69 320.5,-72 324.58,-62.43 330.49,-52.78 336.34,-44.39"/>
<polygon fill="grey" stroke="grey" stroke-width="2" points="339.28,-46.29 342.34,-36.15 333.62,-42.17 339.28,-46.29"/>
</g>
<!-- 19&#45;&gt;0 -->
<g id="edge2" class="edge">
<title>19&#45;&gt;0</title>
<path fill="none" stroke="grey" stroke-width="2" d="M477.31,-75C452.93,-63.7 418.56,-47.77 392.71,-35.78"/>
<polygon fill="grey" stroke="grey" stroke-width="2" points="394.15,-32.59 383.6,-31.56 391.2,-38.94 394.15,-32.59"/>
</g>
<!-- 20 -->
<g id="node21" class="node">
<title>20</title>
<path fill="none" stroke="#569ad8" stroke-width="2" d="M626,-180C626,-180 555,-180 555,-180 549,-180 543,-174 543,-168 543,-168 543,-156 543,-156 543,-150 549,-144 555,-144 555,-144 626,-144 626,-144 632,-144 638,-150 638,-156 638,-156 638,-168 638,-168 638,-174 632,-180 626,-180"/>
<text text-anchor="middle" x="590.5" y="-159.5" font-family="sans" font-size="10.00">install_bigscape</text>
</g>
<!-- 20&#45;&gt;19 -->
<g id="edge34" class="edge">
<title>20&#45;&gt;19</title>
<path fill="none" stroke="grey" stroke-width="2" d="M569.98,-143.7C559.63,-134.97 546.91,-124.24 535.66,-114.75"/>
<polygon fill="grey" stroke="grey" stroke-width="2" points="537.68,-111.88 527.78,-108.1 533.17,-117.23 537.68,-111.88"/>
</g>
</g>
</svg>
