<?xml version="1.0" encoding="UTF-8" standalone="no"?>
<!DOCTYPE svg PUBLIC "-//W3C//DTD SVG 1.1//EN"
 "http://www.w3.org/Graphics/SVG/1.1/DTD/svg11.dtd">
<!-- Generated by graphviz version 2.43.0 (0)
 -->
<!-- Title: snakemake_dag Pages: 1 -->
<svg width="2028pt" height="692pt"
 viewBox="0.00 0.00 2027.50 692.00" xmlns="http://www.w3.org/2000/svg" xmlns:xlink="http://www.w3.org/1999/xlink">
<g id="graph0" class="graph" transform="scale(1 1) rotate(0) translate(4 688)">
<title>snakemake_dag</title>
<polygon fill="white" stroke="transparent" points="-4,4 -4,-688 2023.5,-688 2023.5,4 -4,4"/>
<!-- 0 -->
<g id="node1" class="node">
<title>0</title>
<path fill="none" stroke="#d8ac56" stroke-width="2" d="M911.5,-36C911.5,-36 881.5,-36 881.5,-36 875.5,-36 869.5,-30 869.5,-24 869.5,-24 869.5,-12 869.5,-12 869.5,-6 875.5,0 881.5,0 881.5,0 911.5,0 911.5,0 917.5,0 923.5,-6 923.5,-12 923.5,-12 923.5,-24 923.5,-24 923.5,-30 917.5,-36 911.5,-36"/>
<text text-anchor="middle" x="896.5" y="-15.5" font-family="sans" font-size="10.00">all</text>
</g>
<!-- 1 -->
<g id="node2" class="node">
<title>1</title>
<path fill="none" stroke="#d8bc56" stroke-width="2" d="M1382.5,-396C1382.5,-396 1296.5,-396 1296.5,-396 1290.5,-396 1284.5,-390 1284.5,-384 1284.5,-384 1284.5,-372 1284.5,-372 1284.5,-366 1290.5,-360 1296.5,-360 1296.5,-360 1382.5,-360 1382.5,-360 1388.5,-360 1394.5,-366 1394.5,-372 1394.5,-372 1394.5,-384 1394.5,-384 1394.5,-390 1388.5,-396 1382.5,-396"/>
<text text-anchor="middle" x="1339.5" y="-375.5" font-family="sans" font-size="10.00">fix_gtdb_taxonomy</text>
</g>
<!-- 1&#45;&gt;0 -->
<g id="edge9" class="edge">
<title>1&#45;&gt;0</title>
<path fill="none" stroke="grey" stroke-width="2" d="M1394.56,-375.76C1483.65,-370.51 1649.5,-345.85 1649.5,-235 1649.5,-235 1649.5,-235 1649.5,-161 1649.5,-68.15 1550.06,-96.49 1460.5,-72 1360.54,-44.67 1042.97,-26.42 933.79,-20.82"/>
<polygon fill="grey" stroke="grey" stroke-width="2" points="933.76,-17.32 923.59,-20.3 933.4,-24.31 933.76,-17.32"/>
</g>
<!-- 22 -->
<g id="node23" class="node">
<title>22</title>
<path fill="none" stroke="#56d0d8" stroke-width="2" d="M1391,-324C1391,-324 1288,-324 1288,-324 1282,-324 1276,-318 1276,-312 1276,-312 1276,-300 1276,-300 1276,-294 1282,-288 1288,-288 1288,-288 1391,-288 1391,-288 1397,-288 1403,-294 1403,-300 1403,-300 1403,-312 1403,-312 1403,-318 1397,-324 1391,-324"/>
<text text-anchor="middle" x="1339.5" y="-303.5" font-family="sans" font-size="10.00">downstream_bgc_prep</text>
</g>
<!-- 1&#45;&gt;22 -->
<g id="edge50" class="edge">
<title>1&#45;&gt;22</title>
<path fill="none" stroke="grey" stroke-width="2" d="M1339.5,-359.7C1339.5,-351.98 1339.5,-342.71 1339.5,-334.11"/>
<polygon fill="grey" stroke="grey" stroke-width="2" points="1343,-334.1 1339.5,-324.1 1336,-334.1 1343,-334.1"/>
</g>
<!-- 2 -->
<g id="node3" class="node">
<title>2</title>
<path fill="none" stroke="#567bd8" stroke-width="2" d="M1332,-540C1332,-540 1291,-540 1291,-540 1285,-540 1279,-534 1279,-528 1279,-528 1279,-516 1279,-516 1279,-510 1285,-504 1291,-504 1291,-504 1332,-504 1332,-504 1338,-504 1344,-510 1344,-516 1344,-516 1344,-528 1344,-528 1344,-534 1338,-540 1332,-540"/>
<text text-anchor="middle" x="1311.5" y="-519.5" font-family="sans" font-size="10.00">gtdb_prep</text>
</g>
<!-- 2&#45;&gt;1 -->
<g id="edge28" class="edge">
<title>2&#45;&gt;1</title>
<path fill="none" stroke="grey" stroke-width="2" d="M1314.88,-503.87C1319.67,-479.56 1328.49,-434.82 1334.17,-406.01"/>
<polygon fill="grey" stroke="grey" stroke-width="2" points="1337.61,-406.68 1336.11,-396.19 1330.74,-405.32 1337.61,-406.68"/>
</g>
<!-- 15 -->
<g id="node16" class="node">
<title>15</title>
<path fill="none" stroke="#d8cb56" stroke-width="2" d="M1449,-468C1449,-468 1352,-468 1352,-468 1346,-468 1340,-462 1340,-456 1340,-456 1340,-444 1340,-444 1340,-438 1346,-432 1352,-432 1352,-432 1449,-432 1449,-432 1455,-432 1461,-438 1461,-444 1461,-444 1461,-456 1461,-456 1461,-462 1455,-468 1449,-468"/>
<text text-anchor="middle" x="1400.5" y="-447.5" font-family="sans" font-size="10.00">prepare_gtdbtk_input</text>
</g>
<!-- 2&#45;&gt;15 -->
<g id="edge40" class="edge">
<title>2&#45;&gt;15</title>
<path fill="none" stroke="grey" stroke-width="2" d="M1333.5,-503.7C1344.71,-494.88 1358.5,-484.03 1370.65,-474.47"/>
<polygon fill="grey" stroke="grey" stroke-width="2" points="1373.06,-477.04 1378.75,-468.1 1368.73,-471.54 1373.06,-477.04"/>
</g>
<!-- 17 -->
<g id="node18" class="node">
<title>17</title>
<path fill="none" stroke="#56d87b" stroke-width="2" d="M967,-468C967,-468 918,-468 918,-468 912,-468 906,-462 906,-456 906,-456 906,-444 906,-444 906,-438 912,-432 918,-432 918,-432 967,-432 967,-432 973,-432 979,-438 979,-444 979,-444 979,-456 979,-456 979,-462 973,-468 967,-468"/>
<text text-anchor="middle" x="942.5" y="-447.5" font-family="sans" font-size="10.00">format_gbk</text>
</g>
<!-- 2&#45;&gt;17 -->
<g id="edge43" class="edge">
<title>2&#45;&gt;17</title>
<path fill="none" stroke="grey" stroke-width="2" d="M1278.75,-514.79C1213.14,-502.34 1065.36,-474.31 989.45,-459.91"/>
<polygon fill="grey" stroke="grey" stroke-width="2" points="989.71,-456.39 979.24,-457.97 988.41,-463.27 989.71,-456.39"/>
</g>
<!-- 3 -->
<g id="node4" class="node">
<title>3</title>
<path fill="none" stroke="#56d88a" stroke-width="2" d="M2007.5,-108C2007.5,-108 1879.5,-108 1879.5,-108 1873.5,-108 1867.5,-102 1867.5,-96 1867.5,-96 1867.5,-84 1867.5,-84 1867.5,-78 1873.5,-72 1879.5,-72 1879.5,-72 2007.5,-72 2007.5,-72 2013.5,-72 2019.5,-78 2019.5,-84 2019.5,-84 2019.5,-96 2019.5,-96 2019.5,-102 2013.5,-108 2007.5,-108"/>
<text text-anchor="middle" x="1943.5" y="-87.5" font-family="sans" font-size="10.00">write_dependency_versions</text>
</g>
<!-- 3&#45;&gt;0 -->
<g id="edge16" class="edge">
<title>3&#45;&gt;0</title>
<path fill="none" stroke="grey" stroke-width="2" d="M1867.01,-73.84C1862.45,-73.16 1857.92,-72.54 1853.5,-72 1497.22,-28.68 1061.96,-20.73 933.72,-19.31"/>
<polygon fill="grey" stroke="grey" stroke-width="2" points="933.67,-15.81 923.64,-19.2 933.6,-22.8 933.67,-15.81"/>
</g>
<!-- 4 -->
<g id="node5" class="node">
<title>4</title>
<path fill="none" stroke="#56d8c9" stroke-width="2" d="M1827,-540C1827,-540 1778,-540 1778,-540 1772,-540 1766,-534 1766,-528 1766,-528 1766,-516 1766,-516 1766,-510 1772,-504 1778,-504 1778,-504 1827,-504 1827,-504 1833,-504 1839,-510 1839,-516 1839,-516 1839,-528 1839,-528 1839,-534 1833,-540 1827,-540"/>
<text text-anchor="middle" x="1802.5" y="-519.5" font-family="sans" font-size="10.00">seqfu_stats</text>
</g>
<!-- 4&#45;&gt;0 -->
<g id="edge21" class="edge">
<title>4&#45;&gt;0</title>
<path fill="none" stroke="grey" stroke-width="2" d="M1802.3,-503.95C1802.01,-477.29 1801.5,-424.12 1801.5,-379 1801.5,-379 1801.5,-379 1801.5,-161 1801.5,-120.03 1809.26,-97.88 1777.5,-72 1711.39,-18.13 1093.95,-17.87 934.13,-18.72"/>
<polygon fill="grey" stroke="grey" stroke-width="2" points="933.83,-15.22 923.85,-18.78 933.87,-22.22 933.83,-15.22"/>
</g>
<!-- 5 -->
<g id="node6" class="node">
<title>5</title>
<path fill="none" stroke="#56a9d8" stroke-width="2" d="M1523.5,-684C1523.5,-684 1413.5,-684 1413.5,-684 1407.5,-684 1401.5,-678 1401.5,-672 1401.5,-672 1401.5,-660 1401.5,-660 1401.5,-654 1407.5,-648 1413.5,-648 1413.5,-648 1523.5,-648 1523.5,-648 1529.5,-648 1535.5,-654 1535.5,-660 1535.5,-660 1535.5,-672 1535.5,-672 1535.5,-678 1529.5,-684 1523.5,-684"/>
<text text-anchor="middle" x="1468.5" y="-663.5" font-family="sans" font-size="10.00">ncbi_genome_download</text>
</g>
<!-- 5&#45;&gt;4 -->
<g id="edge29" class="edge">
<title>5&#45;&gt;4</title>
<path fill="none" stroke="grey" stroke-width="2" d="M1535.7,-661.47C1588.09,-656.26 1661.15,-643.45 1717.5,-612 1745.42,-596.42 1769.74,-568.65 1785.13,-548.26"/>
<polygon fill="grey" stroke="grey" stroke-width="2" points="1788.07,-550.16 1791.16,-540.03 1782.43,-546.03 1788.07,-550.16"/>
</g>
<!-- 6 -->
<g id="node7" class="node">
<title>6</title>
<path fill="none" stroke="#56c9d8" stroke-width="2" d="M1142.5,-540C1142.5,-540 1112.5,-540 1112.5,-540 1106.5,-540 1100.5,-534 1100.5,-528 1100.5,-528 1100.5,-516 1100.5,-516 1100.5,-510 1106.5,-504 1112.5,-504 1112.5,-504 1142.5,-504 1142.5,-504 1148.5,-504 1154.5,-510 1154.5,-516 1154.5,-516 1154.5,-528 1154.5,-528 1154.5,-534 1148.5,-540 1142.5,-540"/>
<text text-anchor="middle" x="1127.5" y="-519.5" font-family="sans" font-size="10.00">mlst</text>
</g>
<!-- 5&#45;&gt;6 -->
<g id="edge30" class="edge">
<title>5&#45;&gt;6</title>
<path fill="none" stroke="grey" stroke-width="2" d="M1445.03,-647.65C1417.27,-627.84 1369.06,-595.66 1323.5,-576 1270.35,-553.07 1204.75,-537.75 1164.53,-529.71"/>
<polygon fill="grey" stroke="grey" stroke-width="2" points="1165.11,-526.26 1154.63,-527.78 1163.77,-533.13 1165.11,-526.26"/>
</g>
<!-- 7 -->
<g id="node8" class="node">
<title>7</title>
<path fill="none" stroke="#566bd8" stroke-width="2" d="M1605,-396C1605,-396 1540,-396 1540,-396 1534,-396 1528,-390 1528,-384 1528,-384 1528,-372 1528,-372 1528,-366 1534,-360 1540,-360 1540,-360 1605,-360 1605,-360 1611,-360 1617,-366 1617,-372 1617,-372 1617,-384 1617,-384 1617,-390 1611,-396 1605,-396"/>
<text text-anchor="middle" x="1572.5" y="-375.5" font-family="sans" font-size="10.00">refseq_masher</text>
</g>
<!-- 5&#45;&gt;7 -->
<g id="edge31" class="edge">
<title>5&#45;&gt;7</title>
<path fill="none" stroke="grey" stroke-width="2" d="M1474.69,-647.97C1492.1,-600.09 1541.57,-464.06 1562.72,-405.9"/>
<polygon fill="grey" stroke="grey" stroke-width="2" points="1566.08,-406.9 1566.21,-396.31 1559.5,-404.51 1566.08,-406.9"/>
</g>
<!-- 8 -->
<g id="node9" class="node">
<title>8</title>
<path fill="none" stroke="#56d8a9" stroke-width="2" d="M1584.5,-540C1584.5,-540 1554.5,-540 1554.5,-540 1548.5,-540 1542.5,-534 1542.5,-528 1542.5,-528 1542.5,-516 1542.5,-516 1542.5,-510 1548.5,-504 1554.5,-504 1554.5,-504 1584.5,-504 1584.5,-504 1590.5,-504 1596.5,-510 1596.5,-516 1596.5,-516 1596.5,-528 1596.5,-528 1596.5,-534 1590.5,-540 1584.5,-540"/>
<text text-anchor="middle" x="1569.5" y="-519.5" font-family="sans" font-size="10.00">mash</text>
</g>
<!-- 5&#45;&gt;8 -->
<g id="edge32" class="edge">
<title>5&#45;&gt;8</title>
<path fill="none" stroke="grey" stroke-width="2" d="M1480.85,-647.83C1488.29,-637.47 1497.96,-623.99 1506.5,-612 1521.79,-590.53 1539.08,-566.1 1551.68,-548.26"/>
<polygon fill="grey" stroke="grey" stroke-width="2" points="1554.54,-550.27 1557.45,-540.08 1548.83,-546.23 1554.54,-550.27"/>
</g>
<!-- 9 -->
<g id="node10" class="node">
<title>9</title>
<path fill="none" stroke="#88d856" stroke-width="2" d="M1696.5,-612C1696.5,-612 1666.5,-612 1666.5,-612 1660.5,-612 1654.5,-606 1654.5,-600 1654.5,-600 1654.5,-588 1654.5,-588 1654.5,-582 1660.5,-576 1666.5,-576 1666.5,-576 1696.5,-576 1696.5,-576 1702.5,-576 1708.5,-582 1708.5,-588 1708.5,-588 1708.5,-600 1708.5,-600 1708.5,-606 1702.5,-612 1696.5,-612"/>
<text text-anchor="middle" x="1681.5" y="-591.5" font-family="sans" font-size="10.00">fastani</text>
</g>
<!-- 5&#45;&gt;9 -->
<g id="edge33" class="edge">
<title>5&#45;&gt;9</title>
<path fill="none" stroke="grey" stroke-width="2" d="M1520.33,-647.97C1558.78,-635.33 1610.26,-618.41 1644.58,-607.13"/>
<polygon fill="grey" stroke="grey" stroke-width="2" points="1645.81,-610.41 1654.22,-603.97 1643.63,-603.76 1645.81,-610.41"/>
</g>
<!-- 11 -->
<g id="node12" class="node">
<title>11</title>
<path fill="none" stroke="#d6d856" stroke-width="2" d="M1867,-612C1867,-612 1836,-612 1836,-612 1830,-612 1824,-606 1824,-600 1824,-600 1824,-588 1824,-588 1824,-582 1830,-576 1836,-576 1836,-576 1867,-576 1867,-576 1873,-576 1879,-582 1879,-588 1879,-588 1879,-600 1879,-600 1879,-606 1873,-612 1867,-612"/>
<text text-anchor="middle" x="1851.5" y="-591.5" font-family="sans" font-size="10.00">checkm</text>
</g>
<!-- 5&#45;&gt;11 -->
<g id="edge35" class="edge">
<title>5&#45;&gt;11</title>
<path fill="none" stroke="grey" stroke-width="2" d="M1535.57,-656.53C1601.61,-647.61 1705.14,-632.07 1793.5,-612 1800.24,-610.47 1807.35,-608.6 1814.19,-606.67"/>
<polygon fill="grey" stroke="grey" stroke-width="2" points="1815.33,-609.99 1823.95,-603.83 1813.37,-603.26 1815.33,-609.99"/>
</g>
<!-- 5&#45;&gt;15 -->
<g id="edge39" class="edge">
<title>5&#45;&gt;15</title>
<path fill="none" stroke="grey" stroke-width="2" d="M1463.05,-647.85C1451.24,-610.68 1423.2,-522.44 1409.02,-477.82"/>
<polygon fill="grey" stroke="grey" stroke-width="2" points="1412.34,-476.7 1405.98,-468.23 1405.67,-478.82 1412.34,-476.7"/>
</g>
<!-- 18 -->
<g id="node19" class="node">
<title>18</title>
<path fill="none" stroke="#5673d8" stroke-width="2" d="M598.5,-540C598.5,-540 568.5,-540 568.5,-540 562.5,-540 556.5,-534 556.5,-528 556.5,-528 556.5,-516 556.5,-516 556.5,-510 562.5,-504 568.5,-504 568.5,-504 598.5,-504 598.5,-504 604.5,-504 610.5,-510 610.5,-516 610.5,-516 610.5,-528 610.5,-528 610.5,-534 604.5,-540 598.5,-540"/>
<text text-anchor="middle" x="583.5" y="-519.5" font-family="sans" font-size="10.00">prokka</text>
</g>
<!-- 5&#45;&gt;18 -->
<g id="edge44" class="edge">
<title>5&#45;&gt;18</title>
<path fill="none" stroke="grey" stroke-width="2" d="M1401.09,-661.23C1300.92,-654.94 1107.13,-640.13 944.5,-612 824.65,-591.27 685.66,-552.84 620.63,-534"/>
<polygon fill="grey" stroke="grey" stroke-width="2" points="621.43,-530.58 610.85,-531.15 619.47,-537.3 621.43,-530.58"/>
</g>
<!-- 19 -->
<g id="node20" class="node">
<title>19</title>
<path fill="none" stroke="#56a2d8" stroke-width="2" d="M1061.5,-612C1061.5,-612 965.5,-612 965.5,-612 959.5,-612 953.5,-606 953.5,-600 953.5,-600 953.5,-588 953.5,-588 953.5,-582 959.5,-576 965.5,-576 965.5,-576 1061.5,-576 1061.5,-576 1067.5,-576 1073.5,-582 1073.5,-588 1073.5,-588 1073.5,-600 1073.5,-600 1073.5,-606 1067.5,-612 1061.5,-612"/>
<text text-anchor="middle" x="1013.5" y="-591.5" font-family="sans" font-size="10.00">extract_meta_prokka</text>
</g>
<!-- 5&#45;&gt;19 -->
<g id="edge47" class="edge">
<title>5&#45;&gt;19</title>
<path fill="none" stroke="grey" stroke-width="2" d="M1401.36,-654.67C1316.24,-641.57 1170.16,-619.1 1083.63,-605.79"/>
<polygon fill="grey" stroke="grey" stroke-width="2" points="1084.06,-602.31 1073.64,-604.25 1082.99,-609.23 1084.06,-602.31"/>
</g>
<!-- 53 -->
<g id="node54" class="node">
<title>53</title>
<path fill="none" stroke="#56d8d8" stroke-width="2" d="M1303,-612C1303,-612 1188,-612 1188,-612 1182,-612 1176,-606 1176,-600 1176,-600 1176,-588 1176,-588 1176,-582 1182,-576 1188,-576 1188,-576 1303,-576 1303,-576 1309,-576 1315,-582 1315,-588 1315,-588 1315,-600 1315,-600 1315,-606 1309,-612 1303,-612"/>
<text text-anchor="middle" x="1245.5" y="-591.5" font-family="sans" font-size="10.00">extract_ncbi_information</text>
</g>
<!-- 5&#45;&gt;53 -->
<g id="edge89" class="edge">
<title>5&#45;&gt;53</title>
<path fill="none" stroke="grey" stroke-width="2" d="M1414.23,-647.97C1382.67,-638.06 1342.71,-625.51 1309.6,-615.12"/>
<polygon fill="grey" stroke="grey" stroke-width="2" points="1310.6,-611.77 1300.01,-612.11 1308.5,-618.45 1310.6,-611.77"/>
</g>
<!-- 6&#45;&gt;0 -->
<g id="edge23" class="edge">
<title>6&#45;&gt;0</title>
<path fill="none" stroke="grey" stroke-width="2" d="M1100.16,-510.21C1081.07,-501.43 1056.28,-487.31 1040.5,-468 1008.21,-428.48 1039.58,-393.97 1001.5,-360 949.69,-313.79 900.14,-371.5 849.5,-324 767.76,-247.33 810.11,-173.08 858.5,-72 863.12,-62.35 869.51,-52.6 875.73,-44.14"/>
<polygon fill="grey" stroke="grey" stroke-width="2" points="878.53,-46.24 881.82,-36.17 872.97,-41.99 878.53,-46.24"/>
</g>
<!-- 7&#45;&gt;0 -->
<g id="edge26" class="edge">
<title>7&#45;&gt;0</title>
<path fill="none" stroke="grey" stroke-width="2" d="M1600.05,-359.82C1634.07,-336.23 1687.5,-290.36 1687.5,-235 1687.5,-235 1687.5,-235 1687.5,-161 1687.5,-144.87 1746.12,-138.47 1558.5,-72 1441.93,-30.7 1055.85,-21.4 933.82,-19.47"/>
<polygon fill="grey" stroke="grey" stroke-width="2" points="933.56,-15.97 923.5,-19.32 933.45,-22.97 933.56,-15.97"/>
</g>
<!-- 8&#45;&gt;0 -->
<g id="edge18" class="edge">
<title>8&#45;&gt;0</title>
<path fill="none" stroke="grey" stroke-width="2" d="M1596.67,-510.84C1641.37,-492.16 1725.5,-447.85 1725.5,-379 1725.5,-379 1725.5,-379 1725.5,-161 1725.5,-98.8 1675.23,-95.15 1617.5,-72 1491.44,-21.46 1063.25,-18.49 933.84,-18.78"/>
<polygon fill="grey" stroke="grey" stroke-width="2" points="933.64,-15.28 923.65,-18.82 933.66,-22.28 933.64,-15.28"/>
</g>
<!-- 9&#45;&gt;0 -->
<g id="edge12" class="edge">
<title>9&#45;&gt;0</title>
<path fill="none" stroke="grey" stroke-width="2" d="M1693.07,-575.83C1715.68,-540.57 1763.5,-456.78 1763.5,-379 1763.5,-379 1763.5,-379 1763.5,-161 1763.5,-104.74 1724.77,-95.14 1673.5,-72 1605.65,-41.38 1079.46,-24.22 933.78,-20.02"/>
<polygon fill="grey" stroke="grey" stroke-width="2" points="933.67,-16.52 923.57,-19.73 933.47,-23.51 933.67,-16.52"/>
</g>
<!-- 10 -->
<g id="node11" class="node">
<title>10</title>
<path fill="none" stroke="#569ad8" stroke-width="2" d="M1893.5,-396C1893.5,-396 1841.5,-396 1841.5,-396 1835.5,-396 1829.5,-390 1829.5,-384 1829.5,-384 1829.5,-372 1829.5,-372 1829.5,-366 1835.5,-360 1841.5,-360 1841.5,-360 1893.5,-360 1893.5,-360 1899.5,-360 1905.5,-366 1905.5,-372 1905.5,-372 1905.5,-384 1905.5,-384 1905.5,-390 1899.5,-396 1893.5,-396"/>
<text text-anchor="middle" x="1867.5" y="-375.5" font-family="sans" font-size="10.00">checkm_out</text>
</g>
<!-- 10&#45;&gt;0 -->
<g id="edge25" class="edge">
<title>10&#45;&gt;0</title>
<path fill="none" stroke="grey" stroke-width="2" d="M1861.83,-359.73C1853.65,-333.21 1839.5,-280.73 1839.5,-235 1839.5,-235 1839.5,-235 1839.5,-161 1839.5,-120.03 1847.29,-97.84 1815.5,-72 1746.18,-15.65 1096.91,-17.3 933.62,-18.62"/>
<polygon fill="grey" stroke="grey" stroke-width="2" points="933.55,-15.12 923.58,-18.71 933.61,-22.12 933.55,-15.12"/>
</g>
<!-- 11&#45;&gt;10 -->
<g id="edge34" class="edge">
<title>11&#45;&gt;10</title>
<path fill="none" stroke="grey" stroke-width="2" d="M1852.78,-575.85C1855.55,-538.83 1862.1,-451.18 1865.45,-406.39"/>
<polygon fill="grey" stroke="grey" stroke-width="2" points="1868.96,-406.47 1866.21,-396.23 1861.98,-405.94 1868.96,-406.47"/>
</g>
<!-- 12 -->
<g id="node13" class="node">
<title>12</title>
<path fill="none" stroke="#a7d856" stroke-width="2" d="M1884.5,-684C1884.5,-684 1818.5,-684 1818.5,-684 1812.5,-684 1806.5,-678 1806.5,-672 1806.5,-672 1806.5,-660 1806.5,-660 1806.5,-654 1812.5,-648 1818.5,-648 1818.5,-648 1884.5,-648 1884.5,-648 1890.5,-648 1896.5,-654 1896.5,-660 1896.5,-660 1896.5,-672 1896.5,-672 1896.5,-678 1890.5,-684 1884.5,-684"/>
<text text-anchor="middle" x="1851.5" y="-663.5" font-family="sans" font-size="10.00">install_checkm</text>
</g>
<!-- 12&#45;&gt;11 -->
<g id="edge36" class="edge">
<title>12&#45;&gt;11</title>
<path fill="none" stroke="grey" stroke-width="2" d="M1851.5,-647.7C1851.5,-639.98 1851.5,-630.71 1851.5,-622.11"/>
<polygon fill="grey" stroke="grey" stroke-width="2" points="1855,-622.1 1851.5,-612.1 1848,-622.1 1855,-622.1"/>
</g>
<!-- 13 -->
<g id="node14" class="node">
<title>13</title>
<path fill="none" stroke="#d87d56" stroke-width="2" d="M1249.5,-396C1249.5,-396 1219.5,-396 1219.5,-396 1213.5,-396 1207.5,-390 1207.5,-384 1207.5,-384 1207.5,-372 1207.5,-372 1207.5,-366 1213.5,-360 1219.5,-360 1219.5,-360 1249.5,-360 1249.5,-360 1255.5,-360 1261.5,-366 1261.5,-372 1261.5,-372 1261.5,-384 1261.5,-384 1261.5,-390 1255.5,-396 1249.5,-396"/>
<text text-anchor="middle" x="1234.5" y="-375.5" font-family="sans" font-size="10.00">gtdbtk</text>
</g>
<!-- 13&#45;&gt;0 -->
<g id="edge3" class="edge">
<title>13&#45;&gt;0</title>
<path fill="none" stroke="grey" stroke-width="2" d="M1207.43,-372.22C1150.33,-361.91 1021.52,-337.46 1006.5,-324 968.6,-290.05 986.74,-263.5 968.5,-216 962.29,-199.82 959.73,-196.18 953.5,-180 935.43,-133.06 916.28,-77.63 905.41,-45.58"/>
<polygon fill="grey" stroke="grey" stroke-width="2" points="908.7,-44.39 902.19,-36.03 902.07,-46.63 908.7,-44.39"/>
</g>
<!-- 14 -->
<g id="node15" class="node">
<title>14</title>
<path fill="none" stroke="#d85e56" stroke-width="2" d="M1264,-468C1264,-468 1205,-468 1205,-468 1199,-468 1193,-462 1193,-456 1193,-456 1193,-444 1193,-444 1193,-438 1199,-432 1205,-432 1205,-432 1264,-432 1264,-432 1270,-432 1276,-438 1276,-444 1276,-444 1276,-456 1276,-456 1276,-462 1270,-468 1264,-468"/>
<text text-anchor="middle" x="1234.5" y="-447.5" font-family="sans" font-size="10.00">install_gtdbtk</text>
</g>
<!-- 14&#45;&gt;13 -->
<g id="edge38" class="edge">
<title>14&#45;&gt;13</title>
<path fill="none" stroke="grey" stroke-width="2" d="M1234.5,-431.7C1234.5,-423.98 1234.5,-414.71 1234.5,-406.11"/>
<polygon fill="grey" stroke="grey" stroke-width="2" points="1238,-406.1 1234.5,-396.1 1231,-406.1 1238,-406.1"/>
</g>
<!-- 15&#45;&gt;13 -->
<g id="edge37" class="edge">
<title>15&#45;&gt;13</title>
<path fill="none" stroke="grey" stroke-width="2" d="M1359.89,-431.88C1332.71,-420.41 1297.23,-405.45 1270.95,-394.37"/>
<polygon fill="grey" stroke="grey" stroke-width="2" points="1272.29,-391.14 1261.72,-390.48 1269.57,-397.59 1272.29,-391.14"/>
</g>
<!-- 16 -->
<g id="node17" class="node">
<title>16</title>
<path fill="none" stroke="#56d882" stroke-width="2" d="M981,-396C981,-396 904,-396 904,-396 898,-396 892,-390 892,-384 892,-384 892,-372 892,-372 892,-366 898,-360 904,-360 904,-360 981,-360 981,-360 987,-360 993,-366 993,-372 993,-372 993,-384 993,-384 993,-390 987,-396 981,-396"/>
<text text-anchor="middle" x="942.5" y="-375.5" font-family="sans" font-size="10.00">copy_prokka_gbk</text>
</g>
<!-- 16&#45;&gt;0 -->
<g id="edge17" class="edge">
<title>16&#45;&gt;0</title>
<path fill="none" stroke="grey" stroke-width="2" d="M891.93,-361.55C858.41,-350.57 818.17,-335.75 804.5,-324 776.57,-300 772.93,-287.6 763.5,-252 743.02,-174.66 718.61,-138.22 763.5,-72 784.74,-40.67 827.78,-27.86 859.16,-22.62"/>
<polygon fill="grey" stroke="grey" stroke-width="2" points="859.93,-26.05 869.31,-21.12 858.9,-19.12 859.93,-26.05"/>
</g>
<!-- 17&#45;&gt;16 -->
<g id="edge41" class="edge">
<title>17&#45;&gt;16</title>
<path fill="none" stroke="grey" stroke-width="2" d="M942.5,-431.7C942.5,-423.98 942.5,-414.71 942.5,-406.11"/>
<polygon fill="grey" stroke="grey" stroke-width="2" points="946,-406.1 942.5,-396.1 939,-406.1 946,-406.1"/>
</g>
<!-- 23 -->
<g id="node24" class="node">
<title>23</title>
<path fill="none" stroke="#61d856" stroke-width="2" d="M1105.5,-396C1105.5,-396 1061.5,-396 1061.5,-396 1055.5,-396 1049.5,-390 1049.5,-384 1049.5,-384 1049.5,-372 1049.5,-372 1049.5,-366 1055.5,-360 1061.5,-360 1061.5,-360 1105.5,-360 1105.5,-360 1111.5,-360 1117.5,-366 1117.5,-372 1117.5,-372 1117.5,-384 1117.5,-384 1117.5,-390 1111.5,-396 1105.5,-396"/>
<text text-anchor="middle" x="1083.5" y="-375.5" font-family="sans" font-size="10.00">antismash</text>
</g>
<!-- 17&#45;&gt;23 -->
<g id="edge52" class="edge">
<title>17&#45;&gt;23</title>
<path fill="none" stroke="grey" stroke-width="2" d="M976.99,-431.88C996.08,-422.4 1019.99,-410.53 1040.31,-400.44"/>
<polygon fill="grey" stroke="grey" stroke-width="2" points="1041.96,-403.53 1049.36,-395.95 1038.85,-397.26 1041.96,-403.53"/>
</g>
<!-- 38 -->
<g id="node39" class="node">
<title>38</title>
<path fill="none" stroke="#d87556" stroke-width="2" d="M861.5,-396C861.5,-396 775.5,-396 775.5,-396 769.5,-396 763.5,-390 763.5,-384 763.5,-384 763.5,-372 763.5,-372 763.5,-366 769.5,-360 775.5,-360 775.5,-360 861.5,-360 861.5,-360 867.5,-360 873.5,-366 873.5,-372 873.5,-372 873.5,-384 873.5,-384 873.5,-390 867.5,-396 861.5,-396"/>
<text text-anchor="middle" x="818.5" y="-375.5" font-family="sans" font-size="10.00">prep_automlst_gbk</text>
</g>
<!-- 17&#45;&gt;38 -->
<g id="edge71" class="edge">
<title>17&#45;&gt;38</title>
<path fill="none" stroke="grey" stroke-width="2" d="M912.17,-431.88C895.8,-422.64 875.42,-411.13 857.85,-401.21"/>
<polygon fill="grey" stroke="grey" stroke-width="2" points="859.38,-398.06 848.95,-396.19 855.94,-404.15 859.38,-398.06"/>
</g>
<!-- 18&#45;&gt;17 -->
<g id="edge42" class="edge">
<title>18&#45;&gt;17</title>
<path fill="none" stroke="grey" stroke-width="2" d="M610.78,-515.68C671.73,-503.8 819.56,-474.97 895.61,-460.14"/>
<polygon fill="grey" stroke="grey" stroke-width="2" points="896.7,-463.5 905.84,-458.15 895.36,-456.63 896.7,-463.5"/>
</g>
<!-- 42 -->
<g id="node43" class="node">
<title>42</title>
<path fill="none" stroke="#80d856" stroke-width="2" d="M288.5,-180C288.5,-180 258.5,-180 258.5,-180 252.5,-180 246.5,-174 246.5,-168 246.5,-168 246.5,-156 246.5,-156 246.5,-150 252.5,-144 258.5,-144 258.5,-144 288.5,-144 288.5,-144 294.5,-144 300.5,-150 300.5,-156 300.5,-156 300.5,-168 300.5,-168 300.5,-174 294.5,-180 288.5,-180"/>
<text text-anchor="middle" x="273.5" y="-159.5" font-family="sans" font-size="10.00">roary</text>
</g>
<!-- 18&#45;&gt;42 -->
<g id="edge75" class="edge">
<title>18&#45;&gt;42</title>
<path fill="none" stroke="grey" stroke-width="2" d="M556.05,-518.43C490.74,-510.65 331.5,-481.19 331.5,-379 331.5,-379 331.5,-379 331.5,-305 331.5,-261.7 308.1,-216.11 291.02,-188.61"/>
<polygon fill="grey" stroke="grey" stroke-width="2" points="293.86,-186.55 285.52,-180.01 287.96,-190.32 293.86,-186.55"/>
</g>
<!-- 43 -->
<g id="node44" class="node">
<title>43</title>
<path fill="none" stroke="#56d8b9" stroke-width="2" d="M465.5,-108C465.5,-108 435.5,-108 435.5,-108 429.5,-108 423.5,-102 423.5,-96 423.5,-96 423.5,-84 423.5,-84 423.5,-78 429.5,-72 435.5,-72 435.5,-72 465.5,-72 465.5,-72 471.5,-72 477.5,-78 477.5,-84 477.5,-84 477.5,-96 477.5,-96 477.5,-102 471.5,-108 465.5,-108"/>
<text text-anchor="middle" x="450.5" y="-87.5" font-family="sans" font-size="10.00">eggnog</text>
</g>
<!-- 18&#45;&gt;43 -->
<g id="edge76" class="edge">
<title>18&#45;&gt;43</title>
<path fill="none" stroke="grey" stroke-width="2" d="M556.47,-519.08C524.54,-515.2 472.68,-503.47 448.5,-468 373.43,-357.89 419.04,-184.45 440.85,-118.07"/>
<polygon fill="grey" stroke="grey" stroke-width="2" points="444.25,-118.96 444.12,-108.36 437.61,-116.72 444.25,-118.96"/>
</g>
<!-- 46 -->
<g id="node47" class="node">
<title>46</title>
<path fill="none" stroke="#d86656" stroke-width="2" d="M695,-468C695,-468 606,-468 606,-468 600,-468 594,-462 594,-456 594,-456 594,-444 594,-444 594,-438 600,-432 606,-432 606,-432 695,-432 695,-432 701,-432 707,-438 707,-444 707,-444 707,-456 707,-456 707,-462 701,-468 695,-468"/>
<text text-anchor="middle" x="650.5" y="-447.5" font-family="sans" font-size="10.00">create_diamond_db</text>
</g>
<!-- 18&#45;&gt;46 -->
<g id="edge80" class="edge">
<title>18&#45;&gt;46</title>
<path fill="none" stroke="grey" stroke-width="2" d="M600.06,-503.7C608.18,-495.22 618.09,-484.86 626.97,-475.58"/>
<polygon fill="grey" stroke="grey" stroke-width="2" points="629.74,-477.75 634.13,-468.1 624.69,-472.91 629.74,-477.75"/>
</g>
<!-- 49 -->
<g id="node50" class="node">
<title>49</title>
<path fill="none" stroke="#d85656" stroke-width="2" d="M61,-108C61,-108 12,-108 12,-108 6,-108 0,-102 0,-96 0,-96 0,-84 0,-84 0,-78 6,-72 12,-72 12,-72 61,-72 61,-72 67,-72 73,-78 73,-84 73,-84 73,-96 73,-96 73,-102 67,-108 61,-108"/>
<text text-anchor="middle" x="36.5" y="-87.5" font-family="sans" font-size="10.00">deeptfactor</text>
</g>
<!-- 18&#45;&gt;49 -->
<g id="edge83" class="edge">
<title>18&#45;&gt;49</title>
<path fill="none" stroke="grey" stroke-width="2" d="M556.13,-519.74C446.7,-513.96 46.5,-485.56 46.5,-379 46.5,-379 46.5,-379 46.5,-233 46.5,-192.9 42.48,-146.58 39.54,-118.04"/>
<polygon fill="grey" stroke="grey" stroke-width="2" points="43.01,-117.6 38.48,-108.02 36.05,-118.34 43.01,-117.6"/>
</g>
<!-- 51 -->
<g id="node52" class="node">
<title>51</title>
<path fill="none" stroke="#56d8c1" stroke-width="2" d="M563.5,-468C563.5,-468 469.5,-468 469.5,-468 463.5,-468 457.5,-462 457.5,-456 457.5,-456 457.5,-444 457.5,-444 457.5,-438 463.5,-432 469.5,-432 469.5,-432 563.5,-432 563.5,-432 569.5,-432 575.5,-438 575.5,-444 575.5,-444 575.5,-456 575.5,-456 575.5,-462 569.5,-468 563.5,-468"/>
<text text-anchor="middle" x="516.5" y="-447.5" font-family="sans" font-size="10.00">cblaster_genome_db</text>
</g>
<!-- 18&#45;&gt;51 -->
<g id="edge87" class="edge">
<title>18&#45;&gt;51</title>
<path fill="none" stroke="grey" stroke-width="2" d="M566.94,-503.7C558.82,-495.22 548.91,-484.86 540.03,-475.58"/>
<polygon fill="grey" stroke="grey" stroke-width="2" points="542.31,-472.91 532.87,-468.1 537.26,-477.75 542.31,-472.91"/>
</g>
<!-- 19&#45;&gt;18 -->
<g id="edge46" class="edge">
<title>19&#45;&gt;18</title>
<path fill="none" stroke="grey" stroke-width="2" d="M953.26,-583.19C863.15,-568.53 695.91,-541.3 621.22,-529.14"/>
<polygon fill="grey" stroke="grey" stroke-width="2" points="621.33,-525.61 610.89,-527.46 620.2,-532.52 621.33,-525.61"/>
</g>
<!-- 20 -->
<g id="node21" class="node">
<title>20</title>
<path fill="none" stroke="#59d856" stroke-width="2" d="M621,-612C621,-612 546,-612 546,-612 540,-612 534,-606 534,-600 534,-600 534,-588 534,-588 534,-582 540,-576 546,-576 546,-576 621,-576 621,-576 627,-576 633,-582 633,-588 633,-588 633,-600 633,-600 633,-606 627,-612 621,-612"/>
<text text-anchor="middle" x="583.5" y="-591.5" font-family="sans" font-size="10.00">prokka_db_setup</text>
</g>
<!-- 20&#45;&gt;18 -->
<g id="edge45" class="edge">
<title>20&#45;&gt;18</title>
<path fill="none" stroke="grey" stroke-width="2" d="M583.5,-575.7C583.5,-567.98 583.5,-558.71 583.5,-550.11"/>
<polygon fill="grey" stroke="grey" stroke-width="2" points="587,-550.1 583.5,-540.1 580,-550.1 587,-550.1"/>
</g>
<!-- 21 -->
<g id="node22" class="node">
<title>21</title>
<path fill="none" stroke="#70d856" stroke-width="2" d="M1346,-180C1346,-180 1251,-180 1251,-180 1245,-180 1239,-174 1239,-168 1239,-168 1239,-156 1239,-156 1239,-150 1245,-144 1251,-144 1251,-144 1346,-144 1346,-144 1352,-144 1358,-150 1358,-156 1358,-156 1358,-168 1358,-168 1358,-174 1352,-180 1346,-180"/>
<text text-anchor="middle" x="1298.5" y="-159.5" font-family="sans" font-size="10.00">antismash_summary</text>
</g>
<!-- 21&#45;&gt;0 -->
<g id="edge13" class="edge">
<title>21&#45;&gt;0</title>
<path fill="none" stroke="grey" stroke-width="2" d="M1289.31,-143.71C1277.33,-123.02 1254.34,-89.03 1224.5,-72 1175.44,-44 1009.44,-27.82 934.17,-21.76"/>
<polygon fill="grey" stroke="grey" stroke-width="2" points="933.99,-18.24 923.75,-20.94 933.44,-25.22 933.99,-18.24"/>
</g>
<!-- 29 -->
<g id="node30" class="node">
<title>29</title>
<path fill="none" stroke="#56b1d8" stroke-width="2" d="M1439.5,-108C1439.5,-108 1333.5,-108 1333.5,-108 1327.5,-108 1321.5,-102 1321.5,-96 1321.5,-96 1321.5,-84 1321.5,-84 1321.5,-78 1327.5,-72 1333.5,-72 1333.5,-72 1439.5,-72 1439.5,-72 1445.5,-72 1451.5,-78 1451.5,-84 1451.5,-84 1451.5,-96 1451.5,-96 1451.5,-102 1445.5,-108 1439.5,-108"/>
<text text-anchor="middle" x="1386.5" y="-87.5" font-family="sans" font-size="10.00">bigscape_to_cytoscape</text>
</g>
<!-- 21&#45;&gt;29 -->
<g id="edge57" class="edge">
<title>21&#45;&gt;29</title>
<path fill="none" stroke="grey" stroke-width="2" d="M1320.25,-143.7C1331.34,-134.88 1344.97,-124.03 1356.99,-114.47"/>
<polygon fill="grey" stroke="grey" stroke-width="2" points="1359.35,-117.07 1365,-108.1 1354.99,-111.59 1359.35,-117.07"/>
</g>
<!-- 22&#45;&gt;21 -->
<g id="edge48" class="edge">
<title>22&#45;&gt;21</title>
<path fill="none" stroke="grey" stroke-width="2" d="M1337.78,-287.95C1335.65,-269.79 1331.29,-240.38 1323.5,-216 1320.65,-207.08 1316.62,-197.73 1312.63,-189.41"/>
<polygon fill="grey" stroke="grey" stroke-width="2" points="1315.63,-187.58 1308.03,-180.2 1309.36,-190.71 1315.63,-187.58"/>
</g>
<!-- 27 -->
<g id="node28" class="node">
<title>27</title>
<path fill="none" stroke="#56d863" stroke-width="2" d="M1091,-252C1091,-252 1028,-252 1028,-252 1022,-252 1016,-246 1016,-240 1016,-240 1016,-228 1016,-228 1016,-222 1022,-216 1028,-216 1028,-216 1091,-216 1091,-216 1097,-216 1103,-222 1103,-228 1103,-228 1103,-240 1103,-240 1103,-246 1097,-252 1091,-252"/>
<text text-anchor="middle" x="1059.5" y="-231.5" font-family="sans" font-size="10.00">query_bigslice</text>
</g>
<!-- 22&#45;&gt;27 -->
<g id="edge56" class="edge">
<title>22&#45;&gt;27</title>
<path fill="none" stroke="grey" stroke-width="2" d="M1275.73,-291.74C1232.13,-282.32 1172.88,-268.81 1112.76,-252.25"/>
<polygon fill="grey" stroke="grey" stroke-width="2" points="1113.68,-248.87 1103.11,-249.56 1111.81,-255.61 1113.68,-248.87"/>
</g>
<!-- 22&#45;&gt;29 -->
<g id="edge60" class="edge">
<title>22&#45;&gt;29</title>
<path fill="none" stroke="grey" stroke-width="2" d="M1343.27,-287.85C1351.41,-250.75 1370.73,-162.81 1380.55,-118.1"/>
<polygon fill="grey" stroke="grey" stroke-width="2" points="1383.99,-118.75 1382.72,-108.23 1377.15,-117.25 1383.99,-118.75"/>
</g>
<!-- 32 -->
<g id="node33" class="node">
<title>32</title>
<path fill="none" stroke="#afd856" stroke-width="2" d="M1510.5,-180C1510.5,-180 1426.5,-180 1426.5,-180 1420.5,-180 1414.5,-174 1414.5,-168 1414.5,-168 1414.5,-156 1414.5,-156 1414.5,-150 1420.5,-144 1426.5,-144 1426.5,-144 1510.5,-144 1510.5,-144 1516.5,-144 1522.5,-150 1522.5,-156 1522.5,-156 1522.5,-168 1522.5,-168 1522.5,-174 1516.5,-180 1510.5,-180"/>
<text text-anchor="middle" x="1468.5" y="-159.5" font-family="sans" font-size="10.00">copy_bigscape_zip</text>
</g>
<!-- 22&#45;&gt;32 -->
<g id="edge63" class="edge">
<title>22&#45;&gt;32</title>
<path fill="none" stroke="grey" stroke-width="2" d="M1358.74,-287.9C1369.82,-277.79 1383.82,-264.54 1395.5,-252 1414.58,-231.52 1434.64,-206.8 1448.89,-188.62"/>
<polygon fill="grey" stroke="grey" stroke-width="2" points="1452.01,-190.31 1455.39,-180.27 1446.48,-186.01 1452.01,-190.31"/>
</g>
<!-- 33 -->
<g id="node34" class="node">
<title>33</title>
<path fill="none" stroke="#56c1d8" stroke-width="2" d="M1495.5,-252C1495.5,-252 1459.5,-252 1459.5,-252 1453.5,-252 1447.5,-246 1447.5,-240 1447.5,-240 1447.5,-228 1447.5,-228 1447.5,-222 1453.5,-216 1459.5,-216 1459.5,-216 1495.5,-216 1495.5,-216 1501.5,-216 1507.5,-222 1507.5,-228 1507.5,-228 1507.5,-240 1507.5,-240 1507.5,-246 1501.5,-252 1495.5,-252"/>
<text text-anchor="middle" x="1477.5" y="-231.5" font-family="sans" font-size="10.00">bigscape</text>
</g>
<!-- 22&#45;&gt;33 -->
<g id="edge65" class="edge">
<title>22&#45;&gt;33</title>
<path fill="none" stroke="grey" stroke-width="2" d="M1373.26,-287.88C1392.91,-277.91 1417.78,-265.29 1438.29,-254.89"/>
<polygon fill="grey" stroke="grey" stroke-width="2" points="1440.04,-257.92 1447.38,-250.28 1436.88,-251.68 1440.04,-257.92"/>
</g>
<!-- 35 -->
<g id="node36" class="node">
<title>35</title>
<path fill="none" stroke="#78d856" stroke-width="2" d="M1190,-252C1190,-252 1133,-252 1133,-252 1127,-252 1121,-246 1121,-240 1121,-240 1121,-228 1121,-228 1121,-222 1127,-216 1133,-216 1133,-216 1190,-216 1190,-216 1196,-216 1202,-222 1202,-228 1202,-228 1202,-240 1202,-240 1202,-246 1196,-252 1190,-252"/>
<text text-anchor="middle" x="1161.5" y="-231.5" font-family="sans" font-size="10.00">bigslice_prep</text>
</g>
<!-- 22&#45;&gt;35 -->
<g id="edge67" class="edge">
<title>22&#45;&gt;35</title>
<path fill="none" stroke="grey" stroke-width="2" d="M1295.96,-287.88C1270.47,-277.85 1238.19,-265.16 1211.65,-254.72"/>
<polygon fill="grey" stroke="grey" stroke-width="2" points="1212.74,-251.39 1202.15,-250.99 1210.18,-257.9 1212.74,-251.39"/>
</g>
<!-- 52 -->
<g id="node53" class="node">
<title>52</title>
<path fill="none" stroke="#56d86b" stroke-width="2" d="M1303,-252C1303,-252 1232,-252 1232,-252 1226,-252 1220,-246 1220,-240 1220,-240 1220,-228 1220,-228 1220,-222 1226,-216 1232,-216 1232,-216 1303,-216 1303,-216 1309,-216 1315,-222 1315,-228 1315,-228 1315,-240 1315,-240 1315,-246 1309,-252 1303,-252"/>
<text text-anchor="middle" x="1267.5" y="-231.5" font-family="sans" font-size="10.00">cblaster_bgc_db</text>
</g>
<!-- 22&#45;&gt;52 -->
<g id="edge88" class="edge">
<title>22&#45;&gt;52</title>
<path fill="none" stroke="grey" stroke-width="2" d="M1321.7,-287.7C1312.9,-279.14 1302.12,-268.66 1292.5,-259.3"/>
<polygon fill="grey" stroke="grey" stroke-width="2" points="1294.7,-256.57 1285.09,-252.1 1289.82,-261.58 1294.7,-256.57"/>
</g>
<!-- 23&#45;&gt;22 -->
<g id="edge49" class="edge">
<title>23&#45;&gt;22</title>
<path fill="none" stroke="grey" stroke-width="2" d="M1117.76,-367.63C1155.81,-357.23 1218.32,-340.14 1267.29,-326.75"/>
<polygon fill="grey" stroke="grey" stroke-width="2" points="1268.48,-330.05 1277.2,-324.04 1266.63,-323.3 1268.48,-330.05"/>
</g>
<!-- 25 -->
<g id="node26" class="node">
<title>25</title>
<path fill="none" stroke="#d88556" stroke-width="2" d="M947.5,-252C947.5,-252 855.5,-252 855.5,-252 849.5,-252 843.5,-246 843.5,-240 843.5,-240 843.5,-228 843.5,-228 843.5,-222 849.5,-216 855.5,-216 855.5,-216 947.5,-216 947.5,-216 953.5,-216 959.5,-222 959.5,-228 959.5,-228 959.5,-240 959.5,-240 959.5,-246 953.5,-252 947.5,-252"/>
<text text-anchor="middle" x="901.5" y="-231.5" font-family="sans" font-size="10.00">copy_antismash_zip</text>
</g>
<!-- 23&#45;&gt;25 -->
<g id="edge53" class="edge">
<title>23&#45;&gt;25</title>
<path fill="none" stroke="grey" stroke-width="2" d="M1049.05,-364.98C1026.17,-355.94 996.27,-342.03 973.5,-324 950.94,-306.13 930.86,-280 917.68,-260.67"/>
<polygon fill="grey" stroke="grey" stroke-width="2" points="920.58,-258.71 912.12,-252.32 914.75,-262.58 920.58,-258.71"/>
</g>
<!-- 40 -->
<g id="node41" class="node">
<title>40</title>
<path fill="none" stroke="#d8b456" stroke-width="2" d="M900.5,-324C900.5,-324 870.5,-324 870.5,-324 864.5,-324 858.5,-318 858.5,-312 858.5,-312 858.5,-300 858.5,-300 858.5,-294 864.5,-288 870.5,-288 870.5,-288 900.5,-288 900.5,-288 906.5,-288 912.5,-294 912.5,-300 912.5,-300 912.5,-312 912.5,-312 912.5,-318 906.5,-324 900.5,-324"/>
<text text-anchor="middle" x="885.5" y="-303.5" font-family="sans" font-size="10.00">arts</text>
</g>
<!-- 23&#45;&gt;40 -->
<g id="edge72" class="edge">
<title>23&#45;&gt;40</title>
<path fill="none" stroke="grey" stroke-width="2" d="M1049.42,-364.91C1044.74,-363.26 1040,-361.58 1035.5,-360 989.76,-343.91 978.19,-340.25 932.5,-324 929.21,-322.83 925.8,-321.61 922.38,-320.38"/>
<polygon fill="grey" stroke="grey" stroke-width="2" points="923.41,-317.03 912.82,-316.94 921.04,-323.62 923.41,-317.03"/>
</g>
<!-- 24 -->
<g id="node25" class="node">
<title>24</title>
<path fill="none" stroke="#5663d8" stroke-width="2" d="M1155,-468C1155,-468 1062,-468 1062,-468 1056,-468 1050,-462 1050,-456 1050,-456 1050,-444 1050,-444 1050,-438 1056,-432 1062,-432 1062,-432 1155,-432 1155,-432 1161,-432 1167,-438 1167,-444 1167,-444 1167,-456 1167,-456 1167,-462 1161,-468 1155,-468"/>
<text text-anchor="middle" x="1108.5" y="-447.5" font-family="sans" font-size="10.00">antismash_db_setup</text>
</g>
<!-- 24&#45;&gt;23 -->
<g id="edge51" class="edge">
<title>24&#45;&gt;23</title>
<path fill="none" stroke="grey" stroke-width="2" d="M1102.32,-431.7C1099.5,-423.81 1096.11,-414.3 1092.98,-405.55"/>
<polygon fill="grey" stroke="grey" stroke-width="2" points="1096.27,-404.34 1089.61,-396.1 1089.68,-406.7 1096.27,-404.34"/>
</g>
<!-- 25&#45;&gt;0 -->
<g id="edge4" class="edge">
<title>25&#45;&gt;0</title>
<path fill="none" stroke="grey" stroke-width="2" d="M901.1,-215.85C900.23,-178.83 898.19,-91.18 897.14,-46.39"/>
<polygon fill="grey" stroke="grey" stroke-width="2" points="900.64,-46.15 896.9,-36.23 893.64,-46.31 900.64,-46.15"/>
</g>
<!-- 26 -->
<g id="node27" class="node">
<title>26</title>
<path fill="none" stroke="#56d8b1" stroke-width="2" d="M1098,-180C1098,-180 975,-180 975,-180 969,-180 963,-174 963,-168 963,-168 963,-156 963,-156 963,-150 969,-144 975,-144 975,-144 1098,-144 1098,-144 1104,-144 1110,-150 1110,-156 1110,-156 1110,-168 1110,-168 1110,-174 1104,-180 1098,-180"/>
<text text-anchor="middle" x="1036.5" y="-159.5" font-family="sans" font-size="10.00">summarize_bigslice_query</text>
</g>
<!-- 26&#45;&gt;0 -->
<g id="edge19" class="edge">
<title>26&#45;&gt;0</title>
<path fill="none" stroke="grey" stroke-width="2" d="M1019.61,-143.87C994.91,-118.82 948.8,-72.05 920.56,-43.41"/>
<polygon fill="grey" stroke="grey" stroke-width="2" points="922.96,-40.85 913.45,-36.19 917.98,-45.77 922.96,-40.85"/>
</g>
<!-- 27&#45;&gt;26 -->
<g id="edge54" class="edge">
<title>27&#45;&gt;26</title>
<path fill="none" stroke="grey" stroke-width="2" d="M1053.81,-215.7C1051.25,-207.9 1048.17,-198.51 1045.32,-189.83"/>
<polygon fill="grey" stroke="grey" stroke-width="2" points="1048.57,-188.51 1042.12,-180.1 1041.92,-190.7 1048.57,-188.51"/>
</g>
<!-- 28 -->
<g id="node29" class="node">
<title>28</title>
<path fill="none" stroke="#b6d856" stroke-width="2" d="M1105,-324C1105,-324 1028,-324 1028,-324 1022,-324 1016,-318 1016,-312 1016,-312 1016,-300 1016,-300 1016,-294 1022,-288 1028,-288 1028,-288 1105,-288 1105,-288 1111,-288 1117,-294 1117,-300 1117,-300 1117,-312 1117,-312 1117,-318 1111,-324 1105,-324"/>
<text text-anchor="middle" x="1066.5" y="-303.5" font-family="sans" font-size="10.00">fetch_bigslice_db</text>
</g>
<!-- 28&#45;&gt;27 -->
<g id="edge55" class="edge">
<title>28&#45;&gt;27</title>
<path fill="none" stroke="grey" stroke-width="2" d="M1064.77,-287.7C1064,-279.98 1063.07,-270.71 1062.21,-262.11"/>
<polygon fill="grey" stroke="grey" stroke-width="2" points="1065.69,-261.71 1061.21,-252.1 1058.72,-262.4 1065.69,-261.71"/>
</g>
<!-- 29&#45;&gt;0 -->
<g id="edge24" class="edge">
<title>29&#45;&gt;0</title>
<path fill="none" stroke="grey" stroke-width="2" d="M1321.35,-77.73C1309.43,-75.75 1297.1,-73.77 1285.5,-72 1156.67,-52.39 1003.31,-32.51 933.91,-23.7"/>
<polygon fill="grey" stroke="grey" stroke-width="2" points="934.26,-20.22 923.9,-22.43 933.38,-27.16 934.26,-20.22"/>
</g>
<!-- 30 -->
<g id="node31" class="node">
<title>30</title>
<path fill="none" stroke="#ced856" stroke-width="2" d="M1609,-252C1609,-252 1538,-252 1538,-252 1532,-252 1526,-246 1526,-240 1526,-240 1526,-228 1526,-228 1526,-222 1532,-216 1538,-216 1538,-216 1609,-216 1609,-216 1615,-216 1621,-222 1621,-228 1621,-228 1621,-240 1621,-240 1621,-246 1615,-252 1609,-252"/>
<text text-anchor="middle" x="1573.5" y="-231.5" font-family="sans" font-size="10.00">get_mibig_table</text>
</g>
<!-- 30&#45;&gt;29 -->
<g id="edge59" class="edge">
<title>30&#45;&gt;29</title>
<path fill="none" stroke="grey" stroke-width="2" d="M1569.63,-215.9C1564.29,-196.02 1552.82,-163.47 1531.5,-144 1512.02,-126.21 1486.08,-114.26 1461.53,-106.3"/>
<polygon fill="grey" stroke="grey" stroke-width="2" points="1462.44,-102.91 1451.85,-103.33 1460.39,-109.61 1462.44,-102.91"/>
</g>
<!-- 31 -->
<g id="node32" class="node">
<title>31</title>
<path fill="none" stroke="#56d892" stroke-width="2" d="M1561,-324C1561,-324 1490,-324 1490,-324 1484,-324 1478,-318 1478,-312 1478,-312 1478,-300 1478,-300 1478,-294 1484,-288 1490,-288 1490,-288 1561,-288 1561,-288 1567,-288 1573,-294 1573,-300 1573,-300 1573,-312 1573,-312 1573,-318 1567,-324 1561,-324"/>
<text text-anchor="middle" x="1525.5" y="-303.5" font-family="sans" font-size="10.00">install_bigscape</text>
</g>
<!-- 31&#45;&gt;30 -->
<g id="edge61" class="edge">
<title>31&#45;&gt;30</title>
<path fill="none" stroke="grey" stroke-width="2" d="M1537.37,-287.7C1543,-279.47 1549.85,-269.48 1556.07,-260.42"/>
<polygon fill="grey" stroke="grey" stroke-width="2" points="1559,-262.33 1561.77,-252.1 1553.23,-258.37 1559,-262.33"/>
</g>
<!-- 31&#45;&gt;33 -->
<g id="edge64" class="edge">
<title>31&#45;&gt;33</title>
<path fill="none" stroke="grey" stroke-width="2" d="M1513.63,-287.7C1508,-279.47 1501.15,-269.48 1494.93,-260.42"/>
<polygon fill="grey" stroke="grey" stroke-width="2" points="1497.77,-258.37 1489.23,-252.1 1492,-262.33 1497.77,-258.37"/>
</g>
<!-- 32&#45;&gt;29 -->
<g id="edge58" class="edge">
<title>32&#45;&gt;29</title>
<path fill="none" stroke="grey" stroke-width="2" d="M1448.23,-143.7C1438,-134.97 1425.44,-124.24 1414.32,-114.75"/>
<polygon fill="grey" stroke="grey" stroke-width="2" points="1416.41,-111.94 1406.54,-108.1 1411.87,-117.26 1416.41,-111.94"/>
</g>
<!-- 33&#45;&gt;32 -->
<g id="edge62" class="edge">
<title>33&#45;&gt;32</title>
<path fill="none" stroke="grey" stroke-width="2" d="M1475.28,-215.7C1474.28,-207.98 1473.09,-198.71 1471.99,-190.11"/>
<polygon fill="grey" stroke="grey" stroke-width="2" points="1475.45,-189.58 1470.7,-180.1 1468.5,-190.47 1475.45,-189.58"/>
</g>
<!-- 34 -->
<g id="node35" class="node">
<title>34</title>
<path fill="none" stroke="#97d856" stroke-width="2" d="M1170.5,-180C1170.5,-180 1140.5,-180 1140.5,-180 1134.5,-180 1128.5,-174 1128.5,-168 1128.5,-168 1128.5,-156 1128.5,-156 1128.5,-150 1134.5,-144 1140.5,-144 1140.5,-144 1170.5,-144 1170.5,-144 1176.5,-144 1182.5,-150 1182.5,-156 1182.5,-156 1182.5,-168 1182.5,-168 1182.5,-174 1176.5,-180 1170.5,-180"/>
<text text-anchor="middle" x="1155.5" y="-159.5" font-family="sans" font-size="10.00">bigslice</text>
</g>
<!-- 34&#45;&gt;0 -->
<g id="edge11" class="edge">
<title>34&#45;&gt;0</title>
<path fill="none" stroke="grey" stroke-width="2" d="M1128.27,-146.07C1081.35,-120.34 985.23,-67.65 932.72,-38.86"/>
<polygon fill="grey" stroke="grey" stroke-width="2" points="934.2,-35.68 923.75,-33.94 930.84,-41.82 934.2,-35.68"/>
</g>
<!-- 35&#45;&gt;34 -->
<g id="edge66" class="edge">
<title>35&#45;&gt;34</title>
<path fill="none" stroke="grey" stroke-width="2" d="M1160.02,-215.7C1159.36,-207.98 1158.56,-198.71 1157.82,-190.11"/>
<polygon fill="grey" stroke="grey" stroke-width="2" points="1161.31,-189.77 1156.97,-180.1 1154.33,-190.37 1161.31,-189.77"/>
</g>
<!-- 36 -->
<g id="node37" class="node">
<title>36</title>
<path fill="none" stroke="#d89556" stroke-width="2" d="M619.5,-180C619.5,-180 517.5,-180 517.5,-180 511.5,-180 505.5,-174 505.5,-168 505.5,-168 505.5,-156 505.5,-156 505.5,-150 511.5,-144 517.5,-144 517.5,-144 619.5,-144 619.5,-144 625.5,-144 631.5,-150 631.5,-156 631.5,-156 631.5,-168 631.5,-168 631.5,-174 625.5,-180 619.5,-180"/>
<text text-anchor="middle" x="568.5" y="-159.5" font-family="sans" font-size="10.00">automlst_wrapper_out</text>
</g>
<!-- 36&#45;&gt;0 -->
<g id="edge5" class="edge">
<title>36&#45;&gt;0</title>
<path fill="none" stroke="grey" stroke-width="2" d="M579.12,-143.97C592.79,-123.54 618.53,-89.81 649.5,-72 716.59,-33.42 808.54,-22.84 859.2,-20"/>
<polygon fill="grey" stroke="grey" stroke-width="2" points="859.55,-23.48 869.37,-19.5 859.21,-16.49 859.55,-23.48"/>
</g>
<!-- 41 -->
<g id="node42" class="node">
<title>41</title>
<path fill="none" stroke="#d88d56" stroke-width="2" d="M547,-108C547,-108 508,-108 508,-108 502,-108 496,-102 496,-96 496,-96 496,-84 496,-84 496,-78 502,-72 508,-72 508,-72 547,-72 547,-72 553,-72 559,-78 559,-84 559,-84 559,-96 559,-96 559,-102 553,-108 547,-108"/>
<text text-anchor="middle" x="527.5" y="-87.5" font-family="sans" font-size="10.00">roary_out</text>
</g>
<!-- 36&#45;&gt;41 -->
<g id="edge73" class="edge">
<title>36&#45;&gt;41</title>
<path fill="none" stroke="grey" stroke-width="2" d="M558.37,-143.7C553.65,-135.64 547.94,-125.89 542.72,-116.98"/>
<polygon fill="grey" stroke="grey" stroke-width="2" points="545.59,-114.96 537.52,-108.1 539.55,-118.5 545.59,-114.96"/>
</g>
<!-- 37 -->
<g id="node38" class="node">
<title>37</title>
<path fill="none" stroke="#d8d356" stroke-width="2" d="M609,-252C609,-252 528,-252 528,-252 522,-252 516,-246 516,-240 516,-240 516,-228 516,-228 516,-222 522,-216 528,-216 528,-216 609,-216 609,-216 615,-216 621,-222 621,-228 621,-228 621,-240 621,-240 621,-246 615,-252 609,-252"/>
<text text-anchor="middle" x="568.5" y="-231.5" font-family="sans" font-size="10.00">automlst_wrapper</text>
</g>
<!-- 37&#45;&gt;36 -->
<g id="edge68" class="edge">
<title>37&#45;&gt;36</title>
<path fill="none" stroke="grey" stroke-width="2" d="M568.5,-215.7C568.5,-207.98 568.5,-198.71 568.5,-190.11"/>
<polygon fill="grey" stroke="grey" stroke-width="2" points="572,-190.1 568.5,-180.1 565,-190.1 572,-190.1"/>
</g>
<!-- 38&#45;&gt;37 -->
<g id="edge70" class="edge">
<title>38&#45;&gt;37</title>
<path fill="none" stroke="grey" stroke-width="2" d="M788.34,-359.87C743.11,-334.18 657.67,-285.65 607.67,-257.25"/>
<polygon fill="grey" stroke="grey" stroke-width="2" points="609.19,-254.08 598.76,-252.19 605.73,-260.17 609.19,-254.08"/>
</g>
<!-- 39 -->
<g id="node40" class="node">
<title>39</title>
<path fill="none" stroke="#9fd856" stroke-width="2" d="M623.5,-324C623.5,-324 507.5,-324 507.5,-324 501.5,-324 495.5,-318 495.5,-312 495.5,-312 495.5,-300 495.5,-300 495.5,-294 501.5,-288 507.5,-288 507.5,-288 623.5,-288 623.5,-288 629.5,-288 635.5,-294 635.5,-300 635.5,-300 635.5,-312 635.5,-312 635.5,-318 629.5,-324 623.5,-324"/>
<text text-anchor="middle" x="565.5" y="-303.5" font-family="sans" font-size="10.00">install_automlst_wrapper</text>
</g>
<!-- 39&#45;&gt;37 -->
<g id="edge69" class="edge">
<title>39&#45;&gt;37</title>
<path fill="none" stroke="grey" stroke-width="2" d="M566.24,-287.7C566.57,-279.98 566.97,-270.71 567.34,-262.11"/>
<polygon fill="grey" stroke="grey" stroke-width="2" points="570.84,-262.25 567.77,-252.1 563.84,-261.95 570.84,-262.25"/>
</g>
<!-- 40&#45;&gt;0 -->
<g id="edge8" class="edge">
<title>40&#45;&gt;0</title>
<path fill="none" stroke="grey" stroke-width="2" d="M862.2,-287.82C851.6,-278.54 840.18,-266.09 834.5,-252 828.52,-237.16 832.07,-231.81 834.5,-216 844.13,-153.32 870.05,-83.21 885.15,-45.86"/>
<polygon fill="grey" stroke="grey" stroke-width="2" points="888.55,-46.81 889.1,-36.23 882.07,-44.15 888.55,-46.81"/>
</g>
<!-- 41&#45;&gt;0 -->
<g id="edge6" class="edge">
<title>41&#45;&gt;0</title>
<path fill="none" stroke="grey" stroke-width="2" d="M559.42,-76.31C564.1,-74.72 568.89,-73.22 573.5,-72 675.08,-45.16 798.42,-29.44 859.1,-22.78"/>
<polygon fill="grey" stroke="grey" stroke-width="2" points="859.77,-26.23 869.33,-21.68 859.02,-19.27 859.77,-26.23"/>
</g>
<!-- 42&#45;&gt;41 -->
<g id="edge74" class="edge">
<title>42&#45;&gt;41</title>
<path fill="none" stroke="grey" stroke-width="2" d="M300.74,-147.31C303.66,-146.09 306.61,-144.96 309.5,-144 382.7,-119.67 407.78,-130.54 486.11,-107.74"/>
<polygon fill="grey" stroke="grey" stroke-width="2" points="487.37,-111.02 495.94,-104.79 485.35,-104.32 487.37,-111.02"/>
</g>
<!-- 45 -->
<g id="node46" class="node">
<title>45</title>
<path fill="none" stroke="#c6d856" stroke-width="2" d="M393,-108C393,-108 334,-108 334,-108 328,-108 322,-102 322,-96 322,-96 322,-84 322,-84 322,-78 328,-72 334,-72 334,-72 393,-72 393,-72 399,-72 405,-78 405,-84 405,-84 405,-96 405,-96 405,-102 399,-108 393,-108"/>
<text text-anchor="middle" x="363.5" y="-87.5" font-family="sans" font-size="10.00">eggnog_roary</text>
</g>
<!-- 42&#45;&gt;45 -->
<g id="edge78" class="edge">
<title>42&#45;&gt;45</title>
<path fill="none" stroke="grey" stroke-width="2" d="M295.75,-143.7C307.08,-134.88 321.03,-124.03 333.32,-114.47"/>
<polygon fill="grey" stroke="grey" stroke-width="2" points="335.76,-117.01 341.51,-108.1 331.47,-111.48 335.76,-117.01"/>
</g>
<!-- 47 -->
<g id="node48" class="node">
<title>47</title>
<path fill="none" stroke="#d8a456" stroke-width="2" d="M169.5,-108C169.5,-108 103.5,-108 103.5,-108 97.5,-108 91.5,-102 91.5,-96 91.5,-96 91.5,-84 91.5,-84 91.5,-78 97.5,-72 103.5,-72 103.5,-72 169.5,-72 169.5,-72 175.5,-72 181.5,-78 181.5,-84 181.5,-84 181.5,-96 181.5,-96 181.5,-102 175.5,-108 169.5,-108"/>
<text text-anchor="middle" x="136.5" y="-87.5" font-family="sans" font-size="10.00">diamond_roary</text>
</g>
<!-- 42&#45;&gt;47 -->
<g id="edge81" class="edge">
<title>42&#45;&gt;47</title>
<path fill="none" stroke="grey" stroke-width="2" d="M246.43,-147.17C227.19,-137.34 200.96,-123.94 178.95,-112.69"/>
<polygon fill="grey" stroke="grey" stroke-width="2" points="180.31,-109.45 169.81,-108.02 177.12,-115.69 180.31,-109.45"/>
</g>
<!-- 50 -->
<g id="node51" class="node">
<title>50</title>
<path fill="none" stroke="#56d85b" stroke-width="2" d="M291.5,-108C291.5,-108 211.5,-108 211.5,-108 205.5,-108 199.5,-102 199.5,-96 199.5,-96 199.5,-84 199.5,-84 199.5,-78 205.5,-72 211.5,-72 211.5,-72 291.5,-72 291.5,-72 297.5,-72 303.5,-78 303.5,-84 303.5,-84 303.5,-96 303.5,-96 303.5,-102 297.5,-108 291.5,-108"/>
<text text-anchor="middle" x="251.5" y="-87.5" font-family="sans" font-size="10.00">deeptfactor_roary</text>
</g>
<!-- 42&#45;&gt;50 -->
<g id="edge85" class="edge">
<title>42&#45;&gt;50</title>
<path fill="none" stroke="grey" stroke-width="2" d="M268.06,-143.7C265.61,-135.9 262.66,-126.51 259.93,-117.83"/>
<polygon fill="grey" stroke="grey" stroke-width="2" points="263.21,-116.59 256.88,-108.1 256.54,-118.69 263.21,-116.59"/>
</g>
<!-- 43&#45;&gt;0 -->
<g id="edge20" class="edge">
<title>43&#45;&gt;0</title>
<path fill="none" stroke="grey" stroke-width="2" d="M477.67,-75.09C480.6,-73.92 483.58,-72.85 486.5,-72 619.77,-32.97 785.8,-22.66 858.93,-19.96"/>
<polygon fill="grey" stroke="grey" stroke-width="2" points="859.16,-23.45 869.04,-19.61 858.92,-16.45 859.16,-23.45"/>
</g>
<!-- 44 -->
<g id="node45" class="node">
<title>44</title>
<path fill="none" stroke="#5682d8" stroke-width="2" d="M394.5,-180C394.5,-180 330.5,-180 330.5,-180 324.5,-180 318.5,-174 318.5,-168 318.5,-168 318.5,-156 318.5,-156 318.5,-150 324.5,-144 330.5,-144 330.5,-144 394.5,-144 394.5,-144 400.5,-144 406.5,-150 406.5,-156 406.5,-156 406.5,-168 406.5,-168 406.5,-174 400.5,-180 394.5,-180"/>
<text text-anchor="middle" x="362.5" y="-159.5" font-family="sans" font-size="10.00">install_eggnog</text>
</g>
<!-- 44&#45;&gt;43 -->
<g id="edge77" class="edge">
<title>44&#45;&gt;43</title>
<path fill="none" stroke="grey" stroke-width="2" d="M384.25,-143.7C395.34,-134.88 408.97,-124.03 420.99,-114.47"/>
<polygon fill="grey" stroke="grey" stroke-width="2" points="423.35,-117.07 429,-108.1 418.99,-111.59 423.35,-117.07"/>
</g>
<!-- 44&#45;&gt;45 -->
<g id="edge79" class="edge">
<title>44&#45;&gt;45</title>
<path fill="none" stroke="grey" stroke-width="2" d="M362.75,-143.7C362.86,-135.98 362.99,-126.71 363.11,-118.11"/>
<polygon fill="grey" stroke="grey" stroke-width="2" points="366.61,-118.15 363.26,-108.1 359.61,-118.05 366.61,-118.15"/>
</g>
<!-- 45&#45;&gt;0 -->
<g id="edge10" class="edge">
<title>45&#45;&gt;0</title>
<path fill="none" stroke="grey" stroke-width="2" d="M405.05,-74.35C408.22,-73.48 411.4,-72.68 414.5,-72 577.61,-36.27 777.31,-24.09 858.99,-20.42"/>
<polygon fill="grey" stroke="grey" stroke-width="2" points="859.42,-23.9 869.26,-19.97 859.12,-16.91 859.42,-23.9"/>
</g>
<!-- 46&#45;&gt;0 -->
<g id="edge2" class="edge">
<title>46&#45;&gt;0</title>
<path fill="none" stroke="grey" stroke-width="2" d="M653.07,-432C656.86,-405.4 663.5,-352.3 663.5,-307 663.5,-307 663.5,-307 663.5,-161 663.5,-120.03 658.31,-100.75 687.5,-72 711.63,-48.23 806.05,-31.59 859.35,-23.87"/>
<polygon fill="grey" stroke="grey" stroke-width="2" points="860.02,-27.31 869.43,-22.44 859.04,-20.38 860.02,-27.31"/>
</g>
<!-- 47&#45;&gt;0 -->
<g id="edge7" class="edge">
<title>47&#45;&gt;0</title>
<path fill="none" stroke="grey" stroke-width="2" d="M181.68,-73.95C184.65,-73.22 187.6,-72.56 190.5,-72 442.56,-23.53 753.18,-18.87 859.1,-18.8"/>
<polygon fill="grey" stroke="grey" stroke-width="2" points="859.27,-22.3 869.27,-18.81 859.28,-15.3 859.27,-22.3"/>
</g>
<!-- 48 -->
<g id="node49" class="node">
<title>48</title>
<path fill="none" stroke="#5692d8" stroke-width="2" d="M177,-180C177,-180 96,-180 96,-180 90,-180 84,-174 84,-168 84,-168 84,-156 84,-156 84,-150 90,-144 96,-144 96,-144 177,-144 177,-144 183,-144 189,-150 189,-156 189,-156 189,-168 189,-168 189,-174 183,-180 177,-180"/>
<text text-anchor="middle" x="136.5" y="-159.5" font-family="sans" font-size="10.00">deeptfactor_setup</text>
</g>
<!-- 48&#45;&gt;47 -->
<g id="edge82" class="edge">
<title>48&#45;&gt;47</title>
<path fill="none" stroke="grey" stroke-width="2" d="M136.5,-143.7C136.5,-135.98 136.5,-126.71 136.5,-118.11"/>
<polygon fill="grey" stroke="grey" stroke-width="2" points="140,-118.1 136.5,-108.1 133,-118.1 140,-118.1"/>
</g>
<!-- 48&#45;&gt;49 -->
<g id="edge84" class="edge">
<title>48&#45;&gt;49</title>
<path fill="none" stroke="grey" stroke-width="2" d="M112.04,-143.88C99.2,-134.89 83.3,-123.76 69.41,-114.03"/>
<polygon fill="grey" stroke="grey" stroke-width="2" points="71.26,-111.06 61.06,-108.19 67.24,-116.79 71.26,-111.06"/>
</g>
<!-- 48&#45;&gt;50 -->
<g id="edge86" class="edge">
<title>48&#45;&gt;50</title>
<path fill="none" stroke="grey" stroke-width="2" d="M164.63,-143.88C179.67,-134.72 198.37,-123.34 214.56,-113.48"/>
<polygon fill="grey" stroke="grey" stroke-width="2" points="216.54,-116.38 223.26,-108.19 212.9,-110.4 216.54,-116.38"/>
</g>
<!-- 49&#45;&gt;0 -->
<g id="edge1" class="edge">
<title>49&#45;&gt;0</title>
<path fill="none" stroke="grey" stroke-width="2" d="M73.13,-74.4C76.27,-73.48 79.42,-72.66 82.5,-72 233.87,-39.81 720.08,-23.95 859.07,-20"/>
<polygon fill="grey" stroke="grey" stroke-width="2" points="859.31,-23.5 869.21,-19.72 859.12,-16.5 859.31,-23.5"/>
</g>
<!-- 50&#45;&gt;0 -->
<g id="edge14" class="edge">
<title>50&#45;&gt;0</title>
<path fill="none" stroke="grey" stroke-width="2" d="M303.6,-73.81C306.6,-73.15 309.58,-72.53 312.5,-72 516.92,-34.56 766.66,-23.13 859.47,-20.03"/>
<polygon fill="grey" stroke="grey" stroke-width="2" points="859.61,-23.53 869.49,-19.71 859.38,-16.54 859.61,-23.53"/>
</g>
<!-- 51&#45;&gt;0 -->
<g id="edge27" class="edge">
<title>51&#45;&gt;0</title>
<path fill="none" stroke="grey" stroke-width="2" d="M508.83,-431.99C487.83,-382.62 434.92,-236.88 496.5,-144 516.05,-114.51 538.86,-128.77 567.5,-108 585.82,-94.72 583.45,-82.49 603.5,-72 687.36,-28.11 801.15,-19.89 859.16,-18.77"/>
<polygon fill="grey" stroke="grey" stroke-width="2" points="859.37,-22.27 869.32,-18.63 859.27,-15.27 859.37,-22.27"/>
</g>
<!-- 52&#45;&gt;0 -->
<g id="edge15" class="edge">
<title>52&#45;&gt;0</title>
<path fill="none" stroke="grey" stroke-width="2" d="M1256.09,-215.7C1242.56,-196.24 1218.42,-164.66 1191.5,-144 1110.11,-81.55 992.89,-44.21 933.7,-28.2"/>
<polygon fill="grey" stroke="grey" stroke-width="2" points="934.25,-24.73 923.69,-25.55 932.46,-31.5 934.25,-24.73"/>
</g>
<!-- 53&#45;&gt;0 -->
<g id="edge22" class="edge">
<title>53&#45;&gt;0</title>
<path fill="none" stroke="grey" stroke-width="2" d="M1175.64,-588.42C1064.47,-576.94 850.14,-536.72 754.5,-396 673.49,-276.81 652.11,-185.04 741.5,-72 769.68,-36.37 823.04,-24.57 859.18,-20.73"/>
<polygon fill="grey" stroke="grey" stroke-width="2" points="859.7,-24.2 869.34,-19.81 859.07,-17.23 859.7,-24.2"/>
</g>
</g>
</svg>
