<?xml version="1.0" encoding="UTF-8" standalone="no"?>
<!DOCTYPE svg PUBLIC "-//W3C//DTD SVG 1.1//EN"
 "http://www.w3.org/Graphics/SVG/1.1/DTD/svg11.dtd">
<!-- Generated by graphviz version 2.49.3 (20211104.1129)
 -->
<!-- Title: snakemake_dag Pages: 1 -->
<svg width="1592pt" height="692pt"
 viewBox="0.00 0.00 1592.40 692.00" xmlns="http://www.w3.org/2000/svg" xmlns:xlink="http://www.w3.org/1999/xlink">
<g id="graph0" class="graph" transform="scale(1 1) rotate(0) translate(4 688)">
<title>snakemake_dag</title>
<polygon fill="white" stroke="transparent" points="-4,4 -4,-688 1588.4,-688 1588.4,4 -4,4"/>
<!-- 0 -->
<g id="node1" class="node">
<title>0</title>
<path fill="none" stroke="#567bd8" stroke-width="2" d="M862.9,-36C862.9,-36 832.9,-36 832.9,-36 826.9,-36 820.9,-30 820.9,-24 820.9,-24 820.9,-12 820.9,-12 820.9,-6 826.9,0 832.9,0 832.9,0 862.9,0 862.9,0 868.9,0 874.9,-6 874.9,-12 874.9,-12 874.9,-24 874.9,-24 874.9,-30 868.9,-36 862.9,-36"/>
<text text-anchor="middle" x="847.9" y="-15.5" font-family="sans" font-size="10.00">all</text>
</g>
<!-- 1 -->
<g id="node2" class="node">
<title>1</title>
<path fill="none" stroke="#569ad8" stroke-width="2" d="M253.4,-396C253.4,-396 166.4,-396 166.4,-396 160.4,-396 154.4,-390 154.4,-384 154.4,-384 154.4,-372 154.4,-372 154.4,-366 160.4,-360 166.4,-360 166.4,-360 253.4,-360 253.4,-360 259.4,-360 265.4,-366 265.4,-372 265.4,-372 265.4,-384 265.4,-384 265.4,-390 259.4,-396 253.4,-396"/>
<text text-anchor="middle" x="209.9" y="-375.5" font-family="sans" font-size="10.00">fix_gtdb_taxonomy</text>
</g>
<!-- 1&#45;&gt;0 -->
<g id="edge19" class="edge">
<title>1&#45;&gt;0</title>
<path fill="none" stroke="grey" stroke-width="2" d="M154.36,-376.06C112.15,-372.28 55.77,-360.12 21.9,-324 -5.76,-294.49 2.9,-275.45 2.9,-235 2.9,-235 2.9,-235 2.9,-161 2.9,-120.55 -8.71,-98.43 21.9,-72 82.18,-19.95 657.44,-18.3 810.6,-18.8"/>
<polygon fill="grey" stroke="grey" stroke-width="2" points="810.87,-22.3 820.88,-18.83 810.89,-15.3 810.87,-22.3"/>
</g>
<!-- 20 -->
<g id="node21" class="node">
<title>20</title>
<path fill="none" stroke="#56d863" stroke-width="2" d="M261.4,-324C261.4,-324 158.4,-324 158.4,-324 152.4,-324 146.4,-318 146.4,-312 146.4,-312 146.4,-300 146.4,-300 146.4,-294 152.4,-288 158.4,-288 158.4,-288 261.4,-288 261.4,-288 267.4,-288 273.4,-294 273.4,-300 273.4,-300 273.4,-312 273.4,-312 273.4,-318 267.4,-324 261.4,-324"/>
<text text-anchor="middle" x="209.9" y="-303.5" font-family="sans" font-size="10.00">downstream_bgc_prep</text>
</g>
<!-- 1&#45;&gt;20 -->
<g id="edge53" class="edge">
<title>1&#45;&gt;20</title>
<path fill="none" stroke="grey" stroke-width="2" d="M209.9,-359.7C209.9,-351.98 209.9,-342.71 209.9,-334.11"/>
<polygon fill="grey" stroke="grey" stroke-width="2" points="213.4,-334.1 209.9,-324.1 206.4,-334.1 213.4,-334.1"/>
</g>
<!-- 2 -->
<g id="node3" class="node">
<title>2</title>
<path fill="none" stroke="#d8bc56" stroke-width="2" d="M483.4,-540C483.4,-540 442.4,-540 442.4,-540 436.4,-540 430.4,-534 430.4,-528 430.4,-528 430.4,-516 430.4,-516 430.4,-510 436.4,-504 442.4,-504 442.4,-504 483.4,-504 483.4,-504 489.4,-504 495.4,-510 495.4,-516 495.4,-516 495.4,-528 495.4,-528 495.4,-534 489.4,-540 483.4,-540"/>
<text text-anchor="middle" x="462.9" y="-519.5" font-family="sans" font-size="10.00">gtdb_prep</text>
</g>
<!-- 2&#45;&gt;1 -->
<g id="edge22" class="edge">
<title>2&#45;&gt;1</title>
<path fill="none" stroke="grey" stroke-width="2" d="M432.39,-503.87C386.61,-478.18 300.15,-429.65 249.54,-401.25"/>
<polygon fill="grey" stroke="grey" stroke-width="2" points="250.96,-398.03 240.53,-396.19 247.54,-404.14 250.96,-398.03"/>
</g>
<!-- 15 -->
<g id="node16" class="node">
<title>15</title>
<path fill="none" stroke="#bed856" stroke-width="2" d="M638.4,-468C638.4,-468 589.4,-468 589.4,-468 583.4,-468 577.4,-462 577.4,-456 577.4,-456 577.4,-444 577.4,-444 577.4,-438 583.4,-432 589.4,-432 589.4,-432 638.4,-432 638.4,-432 644.4,-432 650.4,-438 650.4,-444 650.4,-444 650.4,-456 650.4,-456 650.4,-462 644.4,-468 638.4,-468"/>
<text text-anchor="middle" x="613.9" y="-447.5" font-family="sans" font-size="10.00">format_gbk</text>
</g>
<!-- 2&#45;&gt;15 -->
<g id="edge42" class="edge">
<title>2&#45;&gt;15</title>
<path fill="none" stroke="grey" stroke-width="2" d="M495.67,-505.81C516.79,-496.02 544.55,-483.15 567.87,-472.34"/>
<polygon fill="grey" stroke="grey" stroke-width="2" points="569.63,-475.38 577.23,-468 566.68,-469.03 569.63,-475.38"/>
</g>
<!-- 3 -->
<g id="node4" class="node">
<title>3</title>
<path fill="none" stroke="#56d0d8" stroke-width="2" d="M170.9,-108C170.9,-108 42.9,-108 42.9,-108 36.9,-108 30.9,-102 30.9,-96 30.9,-96 30.9,-84 30.9,-84 30.9,-78 36.9,-72 42.9,-72 42.9,-72 170.9,-72 170.9,-72 176.9,-72 182.9,-78 182.9,-84 182.9,-84 182.9,-96 182.9,-96 182.9,-102 176.9,-108 170.9,-108"/>
<text text-anchor="middle" x="106.9" y="-87.5" font-family="sans" font-size="10.00">write_dependency_versions</text>
</g>
<!-- 3&#45;&gt;0 -->
<g id="edge16" class="edge">
<title>3&#45;&gt;0</title>
<path fill="none" stroke="grey" stroke-width="2" d="M183.29,-73.29C186.19,-72.83 189.07,-72.4 191.9,-72 425.82,-39.27 709.71,-24.84 810.34,-20.5"/>
<polygon fill="grey" stroke="grey" stroke-width="2" points="810.75,-23.98 820.6,-20.06 810.46,-16.99 810.75,-23.98"/>
</g>
<!-- 4 -->
<g id="node5" class="node">
<title>4</title>
<path fill="none" stroke="#56d8d8" stroke-width="2" d="M819.4,-612C819.4,-612 770.4,-612 770.4,-612 764.4,-612 758.4,-606 758.4,-600 758.4,-600 758.4,-588 758.4,-588 758.4,-582 764.4,-576 770.4,-576 770.4,-576 819.4,-576 819.4,-576 825.4,-576 831.4,-582 831.4,-588 831.4,-588 831.4,-600 831.4,-600 831.4,-606 825.4,-612 819.4,-612"/>
<text text-anchor="middle" x="794.9" y="-591.5" font-family="sans" font-size="10.00">seqfu_stats</text>
</g>
<!-- 4&#45;&gt;0 -->
<g id="edge15" class="edge">
<title>4&#45;&gt;0</title>
<path fill="none" stroke="grey" stroke-width="2" d="M817.37,-575.97C846.58,-551.71 893.9,-504.19 893.9,-451 893.9,-451 893.9,-451 893.9,-233 893.9,-161.41 913.1,-139.38 888.9,-72 885.31,-61.98 879.04,-52.35 872.48,-44.12"/>
<polygon fill="grey" stroke="grey" stroke-width="2" points="875.05,-41.73 865.9,-36.38 869.71,-46.27 875.05,-41.73"/>
</g>
<!-- 5 -->
<g id="node6" class="node">
<title>5</title>
<path fill="none" stroke="#d6d856" stroke-width="2" d="M1385.9,-684C1385.9,-684 1275.9,-684 1275.9,-684 1269.9,-684 1263.9,-678 1263.9,-672 1263.9,-672 1263.9,-660 1263.9,-660 1263.9,-654 1269.9,-648 1275.9,-648 1275.9,-648 1385.9,-648 1385.9,-648 1391.9,-648 1397.9,-654 1397.9,-660 1397.9,-660 1397.9,-672 1397.9,-672 1397.9,-678 1391.9,-684 1385.9,-684"/>
<text text-anchor="middle" x="1330.9" y="-663.5" font-family="sans" font-size="10.00">ncbi_genome_download</text>
</g>
<!-- 5&#45;&gt;4 -->
<g id="edge25" class="edge">
<title>5&#45;&gt;4</title>
<path fill="none" stroke="grey" stroke-width="2" d="M1263.78,-649.8C1260.11,-649.15 1256.47,-648.54 1252.9,-648 1074.38,-620.86 1022.09,-651.11 841.37,-611.71"/>
<polygon fill="grey" stroke="grey" stroke-width="2" points="842.07,-608.28 831.55,-609.52 840.55,-615.11 842.07,-608.28"/>
</g>
<!-- 8 -->
<g id="node9" class="node">
<title>8</title>
<path fill="none" stroke="#70d856" stroke-width="2" d="M1186.9,-612C1186.9,-612 1156.9,-612 1156.9,-612 1150.9,-612 1144.9,-606 1144.9,-600 1144.9,-600 1144.9,-588 1144.9,-588 1144.9,-582 1150.9,-576 1156.9,-576 1156.9,-576 1186.9,-576 1186.9,-576 1192.9,-576 1198.9,-582 1198.9,-588 1198.9,-588 1198.9,-600 1198.9,-600 1198.9,-606 1192.9,-612 1186.9,-612"/>
<text text-anchor="middle" x="1171.9" y="-591.5" font-family="sans" font-size="10.00">mlst</text>
</g>
<!-- 5&#45;&gt;8 -->
<g id="edge28" class="edge">
<title>5&#45;&gt;8</title>
<path fill="none" stroke="grey" stroke-width="2" d="M1290.98,-647.9C1267.11,-637.62 1236.21,-624.2 1208.9,-612 1208.7,-611.91 1208.5,-611.82 1208.3,-611.73"/>
<polygon fill="grey" stroke="grey" stroke-width="2" points="1209.51,-608.43 1198.95,-607.51 1206.62,-614.81 1209.51,-608.43"/>
</g>
<!-- 9 -->
<g id="node10" class="node">
<title>9</title>
<path fill="none" stroke="#8fd856" stroke-width="2" d="M1294.4,-612C1294.4,-612 1229.4,-612 1229.4,-612 1223.4,-612 1217.4,-606 1217.4,-600 1217.4,-600 1217.4,-588 1217.4,-588 1217.4,-582 1223.4,-576 1229.4,-576 1229.4,-576 1294.4,-576 1294.4,-576 1300.4,-576 1306.4,-582 1306.4,-588 1306.4,-588 1306.4,-600 1306.4,-600 1306.4,-606 1300.4,-612 1294.4,-612"/>
<text text-anchor="middle" x="1261.9" y="-591.5" font-family="sans" font-size="10.00">refseq_masher</text>
</g>
<!-- 5&#45;&gt;9 -->
<g id="edge31" class="edge">
<title>5&#45;&gt;9</title>
<path fill="none" stroke="grey" stroke-width="2" d="M1313.85,-647.7C1305.41,-639.14 1295.08,-628.66 1285.86,-619.3"/>
<polygon fill="grey" stroke="grey" stroke-width="2" points="1288.28,-616.77 1278.76,-612.1 1283.29,-621.68 1288.28,-616.77"/>
</g>
<!-- 10 -->
<g id="node11" class="node">
<title>10</title>
<path fill="none" stroke="#d8a456" stroke-width="2" d="M1366.9,-612C1366.9,-612 1336.9,-612 1336.9,-612 1330.9,-612 1324.9,-606 1324.9,-600 1324.9,-600 1324.9,-588 1324.9,-588 1324.9,-582 1330.9,-576 1336.9,-576 1336.9,-576 1366.9,-576 1366.9,-576 1372.9,-576 1378.9,-582 1378.9,-588 1378.9,-588 1378.9,-600 1378.9,-600 1378.9,-606 1372.9,-612 1366.9,-612"/>
<text text-anchor="middle" x="1351.9" y="-591.5" font-family="sans" font-size="10.00">mash</text>
</g>
<!-- 5&#45;&gt;10 -->
<g id="edge34" class="edge">
<title>5&#45;&gt;10</title>
<path fill="none" stroke="grey" stroke-width="2" d="M1336.09,-647.7C1338.43,-639.9 1341.25,-630.51 1343.85,-621.83"/>
<polygon fill="grey" stroke="grey" stroke-width="2" points="1347.25,-622.69 1346.77,-612.1 1340.55,-620.68 1347.25,-622.69"/>
</g>
<!-- 12 -->
<g id="node13" class="node">
<title>12</title>
<path fill="none" stroke="#5682d8" stroke-width="2" d="M1478.4,-612C1478.4,-612 1447.4,-612 1447.4,-612 1441.4,-612 1435.4,-606 1435.4,-600 1435.4,-600 1435.4,-588 1435.4,-588 1435.4,-582 1441.4,-576 1447.4,-576 1447.4,-576 1478.4,-576 1478.4,-576 1484.4,-576 1490.4,-582 1490.4,-588 1490.4,-588 1490.4,-600 1490.4,-600 1490.4,-606 1484.4,-612 1478.4,-612"/>
<text text-anchor="middle" x="1462.9" y="-591.5" font-family="sans" font-size="10.00">checkm</text>
</g>
<!-- 5&#45;&gt;12 -->
<g id="edge39" class="edge">
<title>5&#45;&gt;12</title>
<path fill="none" stroke="grey" stroke-width="2" d="M1363.19,-647.88C1382.17,-637.81 1406.23,-625.05 1425.96,-614.59"/>
<polygon fill="grey" stroke="grey" stroke-width="2" points="1427.78,-617.59 1434.97,-609.81 1424.5,-611.41 1427.78,-617.59"/>
</g>
<!-- 16 -->
<g id="node17" class="node">
<title>16</title>
<path fill="none" stroke="#56a2d8" stroke-width="2" d="M1021.9,-540C1021.9,-540 991.9,-540 991.9,-540 985.9,-540 979.9,-534 979.9,-528 979.9,-528 979.9,-516 979.9,-516 979.9,-510 985.9,-504 991.9,-504 991.9,-504 1021.9,-504 1021.9,-504 1027.9,-504 1033.9,-510 1033.9,-516 1033.9,-516 1033.9,-528 1033.9,-528 1033.9,-534 1027.9,-540 1021.9,-540"/>
<text text-anchor="middle" x="1006.9" y="-519.5" font-family="sans" font-size="10.00">prokka</text>
</g>
<!-- 5&#45;&gt;16 -->
<g id="edge46" class="edge">
<title>5&#45;&gt;16</title>
<path fill="none" stroke="grey" stroke-width="2" d="M1355.04,-647.82C1378.56,-629.03 1408.07,-598.58 1387.9,-576 1340.53,-522.96 1139.77,-553.3 1069.9,-540 1061.34,-538.37 1052.24,-536.19 1043.7,-533.93"/>
<polygon fill="grey" stroke="grey" stroke-width="2" points="1044.55,-530.53 1033.98,-531.27 1042.71,-537.28 1044.55,-530.53"/>
</g>
<!-- 17 -->
<g id="node18" class="node">
<title>17</title>
<path fill="none" stroke="#59d856" stroke-width="2" d="M958.4,-612C958.4,-612 861.4,-612 861.4,-612 855.4,-612 849.4,-606 849.4,-600 849.4,-600 849.4,-588 849.4,-588 849.4,-582 855.4,-576 861.4,-576 861.4,-576 958.4,-576 958.4,-576 964.4,-576 970.4,-582 970.4,-588 970.4,-588 970.4,-600 970.4,-600 970.4,-606 964.4,-612 958.4,-612"/>
<text text-anchor="middle" x="909.9" y="-591.5" font-family="sans" font-size="10.00">extract_meta_prokka</text>
</g>
<!-- 5&#45;&gt;17 -->
<g id="edge50" class="edge">
<title>5&#45;&gt;17</title>
<path fill="none" stroke="grey" stroke-width="2" d="M1263.73,-650.08C1260.07,-649.36 1256.45,-648.66 1252.9,-648 1149.01,-628.74 1122.31,-628.21 1017.9,-612 1005.77,-610.12 992.87,-608.1 980.36,-606.13"/>
<polygon fill="grey" stroke="grey" stroke-width="2" points="980.87,-602.67 970.44,-604.57 979.78,-609.59 980.87,-602.67"/>
</g>
<!-- 46 -->
<g id="node47" class="node">
<title>46</title>
<path fill="none" stroke="#56d85b" stroke-width="2" d="M1572.4,-540C1572.4,-540 1457.4,-540 1457.4,-540 1451.4,-540 1445.4,-534 1445.4,-528 1445.4,-528 1445.4,-516 1445.4,-516 1445.4,-510 1451.4,-504 1457.4,-504 1457.4,-504 1572.4,-504 1572.4,-504 1578.4,-504 1584.4,-510 1584.4,-516 1584.4,-516 1584.4,-528 1584.4,-528 1584.4,-534 1578.4,-540 1572.4,-540"/>
<text text-anchor="middle" x="1514.9" y="-519.5" font-family="sans" font-size="10.00">extract_ncbi_information</text>
</g>
<!-- 5&#45;&gt;46 -->
<g id="edge85" class="edge">
<title>5&#45;&gt;46</title>
<path fill="none" stroke="grey" stroke-width="2" d="M1396.4,-647.98C1440.79,-635.85 1492.68,-620.29 1499.9,-612 1514.5,-595.26 1517.53,-569.77 1517.33,-550.35"/>
<polygon fill="grey" stroke="grey" stroke-width="2" points="1520.82,-550.14 1516.94,-540.29 1513.83,-550.41 1520.82,-550.14"/>
</g>
<!-- 6 -->
<g id="node7" class="node">
<title>6</title>
<path fill="none" stroke="#568ad8" stroke-width="2" d="M1231.9,-684C1231.9,-684 1113.9,-684 1113.9,-684 1107.9,-684 1101.9,-678 1101.9,-672 1101.9,-672 1101.9,-660 1101.9,-660 1101.9,-654 1107.9,-648 1113.9,-648 1113.9,-648 1231.9,-648 1231.9,-648 1237.9,-648 1243.9,-654 1243.9,-660 1243.9,-660 1243.9,-672 1243.9,-672 1243.9,-678 1237.9,-684 1231.9,-684"/>
<text text-anchor="middle" x="1172.9" y="-663.5" font-family="sans" font-size="10.00">patric_genome_download</text>
</g>
<!-- 6&#45;&gt;4 -->
<g id="edge24" class="edge">
<title>6&#45;&gt;4</title>
<path fill="none" stroke="grey" stroke-width="2" d="M1101.85,-649.64C1098.83,-649.07 1095.84,-648.52 1092.9,-648 984.66,-628.79 952.4,-639.14 841.49,-611.83"/>
<polygon fill="grey" stroke="grey" stroke-width="2" points="842.14,-608.38 831.59,-609.34 840.44,-615.17 842.14,-608.38"/>
</g>
<!-- 6&#45;&gt;8 -->
<g id="edge27" class="edge">
<title>6&#45;&gt;8</title>
<path fill="none" stroke="grey" stroke-width="2" d="M1172.66,-647.7C1172.55,-639.98 1172.41,-630.71 1172.29,-622.11"/>
<polygon fill="grey" stroke="grey" stroke-width="2" points="1175.79,-622.05 1172.15,-612.1 1168.79,-622.15 1175.79,-622.05"/>
</g>
<!-- 6&#45;&gt;9 -->
<g id="edge30" class="edge">
<title>6&#45;&gt;9</title>
<path fill="none" stroke="grey" stroke-width="2" d="M1194.9,-647.7C1206.11,-638.88 1219.91,-628.03 1232.06,-618.47"/>
<polygon fill="grey" stroke="grey" stroke-width="2" points="1234.46,-621.04 1240.16,-612.1 1230.13,-615.54 1234.46,-621.04"/>
</g>
<!-- 6&#45;&gt;10 -->
<g id="edge33" class="edge">
<title>6&#45;&gt;10</title>
<path fill="none" stroke="grey" stroke-width="2" d="M1222.29,-647.88C1247.86,-638.75 1279.71,-626.95 1315.66,-611.95"/>
<polygon fill="grey" stroke="grey" stroke-width="2" points="1317.03,-615.17 1324.89,-608.06 1314.31,-608.72 1317.03,-615.17"/>
</g>
<!-- 6&#45;&gt;12 -->
<g id="edge38" class="edge">
<title>6&#45;&gt;12</title>
<path fill="none" stroke="grey" stroke-width="2" d="M1243.47,-647.97C1300.83,-634.12 1379.51,-615.13 1425.41,-604.05"/>
<polygon fill="grey" stroke="grey" stroke-width="2" points="1426.34,-607.43 1435.24,-601.68 1424.69,-600.62 1426.34,-607.43"/>
</g>
<!-- 6&#45;&gt;16 -->
<g id="edge45" class="edge">
<title>6&#45;&gt;16</title>
<path fill="none" stroke="grey" stroke-width="2" d="M1101.48,-648.41C1066.33,-638.76 1029.11,-625.8 1017.9,-612 1003.99,-594.87 1002.11,-569.42 1003.21,-550.12"/>
<polygon fill="grey" stroke="grey" stroke-width="2" points="1006.7,-550.38 1004.06,-540.12 999.72,-549.79 1006.7,-550.38"/>
</g>
<!-- 6&#45;&gt;17 -->
<g id="edge49" class="edge">
<title>6&#45;&gt;17</title>
<path fill="none" stroke="grey" stroke-width="2" d="M1108.9,-647.97C1069.99,-637.61 1020.27,-624.37 980.26,-613.73"/>
<polygon fill="grey" stroke="grey" stroke-width="2" points="981.13,-610.34 970.57,-611.15 979.33,-617.1 981.13,-610.34"/>
</g>
<!-- 7 -->
<g id="node8" class="node">
<title>7</title>
<path fill="none" stroke="#d85656" stroke-width="2" d="M1071.4,-684C1071.4,-684 984.4,-684 984.4,-684 978.4,-684 972.4,-678 972.4,-672 972.4,-672 972.4,-660 972.4,-660 972.4,-654 978.4,-648 984.4,-648 984.4,-648 1071.4,-648 1071.4,-648 1077.4,-648 1083.4,-654 1083.4,-660 1083.4,-660 1083.4,-672 1083.4,-672 1083.4,-678 1077.4,-684 1071.4,-684"/>
<text text-anchor="middle" x="1027.9" y="-663.5" font-family="sans" font-size="10.00">copy_custom_fasta</text>
</g>
<!-- 7&#45;&gt;4 -->
<g id="edge23" class="edge">
<title>7&#45;&gt;4</title>
<path fill="none" stroke="grey" stroke-width="2" d="M972.33,-650.47C937.22,-641 890.73,-627.97 841.1,-611.94"/>
<polygon fill="grey" stroke="grey" stroke-width="2" points="842.06,-608.57 831.47,-608.81 839.9,-615.23 842.06,-608.57"/>
</g>
<!-- 7&#45;&gt;8 -->
<g id="edge26" class="edge">
<title>7&#45;&gt;8</title>
<path fill="none" stroke="grey" stroke-width="2" d="M1063.13,-647.88C1085.13,-637.18 1113.4,-623.44 1135.6,-612.65"/>
<polygon fill="grey" stroke="grey" stroke-width="2" points="1137.24,-615.74 1144.71,-608.22 1134.18,-609.44 1137.24,-615.74"/>
</g>
<!-- 7&#45;&gt;9 -->
<g id="edge29" class="edge">
<title>7&#45;&gt;9</title>
<path fill="none" stroke="grey" stroke-width="2" d="M1083.53,-648.91C1116.84,-639.21 1160.27,-626.45 1207.35,-612.14"/>
<polygon fill="grey" stroke="grey" stroke-width="2" points="1208.59,-615.43 1217.13,-609.16 1206.55,-608.73 1208.59,-615.43"/>
</g>
<!-- 7&#45;&gt;10 -->
<g id="edge32" class="edge">
<title>7&#45;&gt;10</title>
<path fill="none" stroke="grey" stroke-width="2" d="M1083.49,-650.09C1086.67,-649.35 1089.82,-648.65 1092.9,-648 1188.07,-627.92 1218.14,-640.86 1315.11,-611.76"/>
<polygon fill="grey" stroke="grey" stroke-width="2" points="1316.17,-615.1 1324.7,-608.81 1314.12,-608.41 1316.17,-615.1"/>
</g>
<!-- 7&#45;&gt;12 -->
<g id="edge37" class="edge">
<title>7&#45;&gt;12</title>
<path fill="none" stroke="grey" stroke-width="2" d="M1083.46,-649.94C1086.65,-649.25 1089.81,-648.59 1092.9,-648 1222.64,-623.23 1257.77,-634.63 1387.9,-612 1400.11,-609.88 1413.33,-607.06 1425.21,-604.33"/>
<polygon fill="grey" stroke="grey" stroke-width="2" points="1426.32,-607.66 1435.26,-601.97 1424.72,-600.85 1426.32,-607.66"/>
</g>
<!-- 7&#45;&gt;16 -->
<g id="edge43" class="edge">
<title>7&#45;&gt;16</title>
<path fill="none" stroke="grey" stroke-width="2" d="M972.12,-662.51C899.22,-657.94 777.54,-645.41 749.9,-612 689.01,-538.4 884.87,-525.54 969.7,-523.39"/>
<polygon fill="grey" stroke="grey" stroke-width="2" points="969.79,-526.89 979.71,-523.17 969.63,-519.89 969.79,-526.89"/>
</g>
<!-- 7&#45;&gt;17 -->
<g id="edge48" class="edge">
<title>7&#45;&gt;17</title>
<path fill="none" stroke="grey" stroke-width="2" d="M999.04,-647.88C983.61,-638.72 964.42,-627.34 947.81,-617.48"/>
<polygon fill="grey" stroke="grey" stroke-width="2" points="949.27,-614.28 938.88,-612.19 945.7,-620.3 949.27,-614.28"/>
</g>
<!-- 8&#45;&gt;0 -->
<g id="edge9" class="edge">
<title>8&#45;&gt;0</title>
<path fill="none" stroke="grey" stroke-width="2" d="M1182.68,-575.81C1197.91,-549.83 1223.9,-498.52 1223.9,-451 1223.9,-451 1223.9,-451 1223.9,-161 1223.9,-113.79 1205.42,-97.84 1165.9,-72 1120.14,-42.07 958.99,-26.95 885.24,-21.47"/>
<polygon fill="grey" stroke="grey" stroke-width="2" points="885.25,-17.96 875.02,-20.73 884.74,-24.95 885.25,-17.96"/>
</g>
<!-- 9&#45;&gt;0 -->
<g id="edge7" class="edge">
<title>9&#45;&gt;0</title>
<path fill="none" stroke="grey" stroke-width="2" d="M1261.9,-575.95C1261.9,-549.29 1261.9,-496.11 1261.9,-451 1261.9,-451 1261.9,-451 1261.9,-161 1261.9,-113.05 1241.55,-97.45 1200.9,-72 1148.69,-39.3 964.65,-25.42 885.05,-20.86"/>
<polygon fill="grey" stroke="grey" stroke-width="2" points="885.16,-17.36 874.98,-20.3 884.77,-24.35 885.16,-17.36"/>
</g>
<!-- 10&#45;&gt;0 -->
<g id="edge4" class="edge">
<title>10&#45;&gt;0</title>
<path fill="none" stroke="grey" stroke-width="2" d="M1346.64,-575.7C1339.04,-549.14 1325.9,-496.61 1325.9,-451 1325.9,-451 1325.9,-451 1325.9,-161 1325.9,-105.06 1287.02,-96.85 1236.9,-72 1175.49,-41.54 970.43,-26.23 885.37,-21.06"/>
<polygon fill="grey" stroke="grey" stroke-width="2" points="885.33,-17.55 875.14,-20.45 884.91,-24.54 885.33,-17.55"/>
</g>
<!-- 11 -->
<g id="node12" class="node">
<title>11</title>
<path fill="none" stroke="#5663d8" stroke-width="2" d="M1424.9,-468C1424.9,-468 1372.9,-468 1372.9,-468 1366.9,-468 1360.9,-462 1360.9,-456 1360.9,-456 1360.9,-444 1360.9,-444 1360.9,-438 1366.9,-432 1372.9,-432 1372.9,-432 1424.9,-432 1424.9,-432 1430.9,-432 1436.9,-438 1436.9,-444 1436.9,-444 1436.9,-456 1436.9,-456 1436.9,-462 1430.9,-468 1424.9,-468"/>
<text text-anchor="middle" x="1398.9" y="-447.5" font-family="sans" font-size="10.00">checkm_out</text>
</g>
<!-- 11&#45;&gt;0 -->
<g id="edge21" class="edge">
<title>11&#45;&gt;0</title>
<path fill="none" stroke="grey" stroke-width="2" d="M1395.46,-431.59C1390.5,-404.9 1381.9,-352.19 1381.9,-307 1381.9,-307 1381.9,-307 1381.9,-161 1381.9,-117.26 1375.54,-97.36 1339.9,-72 1266.98,-20.1 986.8,-17.57 885.08,-18.43"/>
<polygon fill="grey" stroke="grey" stroke-width="2" points="884.93,-14.93 874.97,-18.53 885,-21.93 884.93,-14.93"/>
</g>
<!-- 12&#45;&gt;11 -->
<g id="edge35" class="edge">
<title>12&#45;&gt;11</title>
<path fill="none" stroke="grey" stroke-width="2" d="M1454.24,-575.92C1449.07,-565.59 1442.46,-552.11 1436.9,-540 1427.42,-519.32 1417.34,-495.61 1409.94,-477.87"/>
<polygon fill="grey" stroke="grey" stroke-width="2" points="1412.99,-476.07 1405.92,-468.18 1406.52,-478.76 1412.99,-476.07"/>
</g>
<!-- 13 -->
<g id="node14" class="node">
<title>13</title>
<path fill="none" stroke="#ced856" stroke-width="2" d="M1495.9,-684C1495.9,-684 1429.9,-684 1429.9,-684 1423.9,-684 1417.9,-678 1417.9,-672 1417.9,-672 1417.9,-660 1417.9,-660 1417.9,-654 1423.9,-648 1429.9,-648 1429.9,-648 1495.9,-648 1495.9,-648 1501.9,-648 1507.9,-654 1507.9,-660 1507.9,-660 1507.9,-672 1507.9,-672 1507.9,-678 1501.9,-684 1495.9,-684"/>
<text text-anchor="middle" x="1462.9" y="-663.5" font-family="sans" font-size="10.00">install_checkm</text>
</g>
<!-- 13&#45;&gt;12 -->
<g id="edge36" class="edge">
<title>13&#45;&gt;12</title>
<path fill="none" stroke="grey" stroke-width="2" d="M1462.9,-647.7C1462.9,-639.98 1462.9,-630.71 1462.9,-622.11"/>
<polygon fill="grey" stroke="grey" stroke-width="2" points="1466.4,-622.1 1462.9,-612.1 1459.4,-622.1 1466.4,-622.1"/>
</g>
<!-- 14 -->
<g id="node15" class="node">
<title>14</title>
<path fill="none" stroke="#56b9d8" stroke-width="2" d="M691.9,-252C691.9,-252 613.9,-252 613.9,-252 607.9,-252 601.9,-246 601.9,-240 601.9,-240 601.9,-228 601.9,-228 601.9,-222 607.9,-216 613.9,-216 613.9,-216 691.9,-216 691.9,-216 697.9,-216 703.9,-222 703.9,-228 703.9,-228 703.9,-240 703.9,-240 703.9,-246 697.9,-252 691.9,-252"/>
<text text-anchor="middle" x="652.9" y="-231.5" font-family="sans" font-size="10.00">copy_prokka_gbk</text>
</g>
<!-- 14&#45;&gt;0 -->
<g id="edge18" class="edge">
<title>14&#45;&gt;0</title>
<path fill="none" stroke="grey" stroke-width="2" d="M658.77,-215.77C665.51,-197.2 677.63,-167.21 692.9,-144 716.77,-107.74 725.23,-99.4 758.9,-72 775.15,-58.78 795.03,-46.63 811.87,-37.3"/>
<polygon fill="grey" stroke="grey" stroke-width="2" points="813.75,-40.26 820.88,-32.42 810.42,-34.11 813.75,-40.26"/>
</g>
<!-- 15&#45;&gt;14 -->
<g id="edge40" class="edge">
<title>15&#45;&gt;14</title>
<path fill="none" stroke="grey" stroke-width="2" d="M608.91,-431.87C601.04,-401.68 588.4,-337.54 606.9,-288 610.78,-277.62 617.71,-267.93 625.03,-259.74"/>
<polygon fill="grey" stroke="grey" stroke-width="2" points="627.69,-262.03 632.08,-252.38 622.63,-257.18 627.69,-262.03"/>
</g>
<!-- 21 -->
<g id="node22" class="node">
<title>21</title>
<path fill="none" stroke="#b6d856" stroke-width="2" d="M547.9,-396C547.9,-396 503.9,-396 503.9,-396 497.9,-396 491.9,-390 491.9,-384 491.9,-384 491.9,-372 491.9,-372 491.9,-366 497.9,-360 503.9,-360 503.9,-360 547.9,-360 547.9,-360 553.9,-360 559.9,-366 559.9,-372 559.9,-372 559.9,-384 559.9,-384 559.9,-390 553.9,-396 547.9,-396"/>
<text text-anchor="middle" x="525.9" y="-375.5" font-family="sans" font-size="10.00">antismash</text>
</g>
<!-- 15&#45;&gt;21 -->
<g id="edge55" class="edge">
<title>15&#45;&gt;21</title>
<path fill="none" stroke="grey" stroke-width="2" d="M592.15,-431.7C581.07,-422.88 567.43,-412.03 555.41,-402.47"/>
<polygon fill="grey" stroke="grey" stroke-width="2" points="557.41,-399.59 547.41,-396.1 553.05,-405.07 557.41,-399.59"/>
</g>
<!-- 34 -->
<g id="node35" class="node">
<title>34</title>
<path fill="none" stroke="#d88d56" stroke-width="2" d="M740.9,-396C740.9,-396 654.9,-396 654.9,-396 648.9,-396 642.9,-390 642.9,-384 642.9,-384 642.9,-372 642.9,-372 642.9,-366 648.9,-360 654.9,-360 654.9,-360 740.9,-360 740.9,-360 746.9,-360 752.9,-366 752.9,-372 752.9,-372 752.9,-384 752.9,-384 752.9,-390 746.9,-396 740.9,-396"/>
<text text-anchor="middle" x="697.9" y="-375.5" font-family="sans" font-size="10.00">prep_automlst_gbk</text>
</g>
<!-- 15&#45;&gt;34 -->
<g id="edge72" class="edge">
<title>15&#45;&gt;34</title>
<path fill="none" stroke="grey" stroke-width="2" d="M634.67,-431.7C645.14,-422.97 658.01,-412.24 669.4,-402.75"/>
<polygon fill="grey" stroke="grey" stroke-width="2" points="671.94,-405.19 677.38,-396.1 667.46,-399.82 671.94,-405.19"/>
</g>
<!-- 16&#45;&gt;15 -->
<g id="edge41" class="edge">
<title>16&#45;&gt;15</title>
<path fill="none" stroke="grey" stroke-width="2" d="M979.89,-516.19C913.8,-504.42 743.32,-474.05 660.48,-459.3"/>
<polygon fill="grey" stroke="grey" stroke-width="2" points="661.04,-455.84 650.58,-457.53 659.81,-462.73 661.04,-455.84"/>
</g>
<!-- 39 -->
<g id="node40" class="node">
<title>39</title>
<path fill="none" stroke="#88d856" stroke-width="2" d="M963.9,-180C963.9,-180 933.9,-180 933.9,-180 927.9,-180 921.9,-174 921.9,-168 921.9,-168 921.9,-156 921.9,-156 921.9,-150 927.9,-144 933.9,-144 933.9,-144 963.9,-144 963.9,-144 969.9,-144 975.9,-150 975.9,-156 975.9,-156 975.9,-168 975.9,-168 975.9,-174 969.9,-180 963.9,-180"/>
<text text-anchor="middle" x="948.9" y="-159.5" font-family="sans" font-size="10.00">roary</text>
</g>
<!-- 16&#45;&gt;39 -->
<g id="edge77" class="edge">
<title>16&#45;&gt;39</title>
<path fill="none" stroke="grey" stroke-width="2" d="M997.99,-503.58C985.4,-477.3 963.9,-425.62 963.9,-379 963.9,-379 963.9,-379 963.9,-305 963.9,-264.99 957.94,-219 953.54,-190.46"/>
<polygon fill="grey" stroke="grey" stroke-width="2" points="956.97,-189.75 951.94,-180.43 950.05,-190.85 956.97,-189.75"/>
</g>
<!-- 40 -->
<g id="node41" class="node">
<title>40</title>
<path fill="none" stroke="#d86e56" stroke-width="2" d="M1079.9,-108C1079.9,-108 1049.9,-108 1049.9,-108 1043.9,-108 1037.9,-102 1037.9,-96 1037.9,-96 1037.9,-84 1037.9,-84 1037.9,-78 1043.9,-72 1049.9,-72 1049.9,-72 1079.9,-72 1079.9,-72 1085.9,-72 1091.9,-78 1091.9,-84 1091.9,-84 1091.9,-96 1091.9,-96 1091.9,-102 1085.9,-108 1079.9,-108"/>
<text text-anchor="middle" x="1064.9" y="-87.5" font-family="sans" font-size="10.00">eggnog</text>
</g>
<!-- 16&#45;&gt;40 -->
<g id="edge78" class="edge">
<title>16&#45;&gt;40</title>
<path fill="none" stroke="grey" stroke-width="2" d="M1009.3,-503.94C1013.59,-474.4 1023.35,-411.9 1035.9,-360 1055.57,-278.69 1078.55,-262.73 1090.9,-180 1093.27,-164.18 1094.52,-159.59 1090.9,-144 1088.81,-134.96 1084.94,-125.68 1080.82,-117.47"/>
<polygon fill="grey" stroke="grey" stroke-width="2" points="1083.76,-115.55 1075.95,-108.39 1077.59,-118.86 1083.76,-115.55"/>
</g>
<!-- 43 -->
<g id="node44" class="node">
<title>43</title>
<path fill="none" stroke="#56d873" stroke-width="2" d="M1145.4,-396C1145.4,-396 1056.4,-396 1056.4,-396 1050.4,-396 1044.4,-390 1044.4,-384 1044.4,-384 1044.4,-372 1044.4,-372 1044.4,-366 1050.4,-360 1056.4,-360 1056.4,-360 1145.4,-360 1145.4,-360 1151.4,-360 1157.4,-366 1157.4,-372 1157.4,-372 1157.4,-384 1157.4,-384 1157.4,-390 1151.4,-396 1145.4,-396"/>
<text text-anchor="middle" x="1100.9" y="-375.5" font-family="sans" font-size="10.00">create_diamond_db</text>
</g>
<!-- 16&#45;&gt;43 -->
<g id="edge82" class="edge">
<title>16&#45;&gt;43</title>
<path fill="none" stroke="grey" stroke-width="2" d="M1018.24,-503.87C1034.54,-479.24 1064.73,-433.64 1083.77,-404.88"/>
<polygon fill="grey" stroke="grey" stroke-width="2" points="1086.92,-406.46 1089.52,-396.19 1081.09,-402.6 1086.92,-406.46"/>
</g>
<!-- 44 -->
<g id="node45" class="node">
<title>44</title>
<path fill="none" stroke="#d89c56" stroke-width="2" d="M1155.4,-468C1155.4,-468 1106.4,-468 1106.4,-468 1100.4,-468 1094.4,-462 1094.4,-456 1094.4,-456 1094.4,-444 1094.4,-444 1094.4,-438 1100.4,-432 1106.4,-432 1106.4,-432 1155.4,-432 1155.4,-432 1161.4,-432 1167.4,-438 1167.4,-444 1167.4,-444 1167.4,-456 1167.4,-456 1167.4,-462 1161.4,-468 1155.4,-468"/>
<text text-anchor="middle" x="1130.9" y="-447.5" font-family="sans" font-size="10.00">deeptfactor</text>
</g>
<!-- 16&#45;&gt;44 -->
<g id="edge83" class="edge">
<title>16&#45;&gt;44</title>
<path fill="none" stroke="grey" stroke-width="2" d="M1034.12,-505.64C1051.03,-496.09 1073.04,-483.67 1091.8,-473.07"/>
<polygon fill="grey" stroke="grey" stroke-width="2" points="1093.72,-476.01 1100.71,-468.04 1090.28,-469.91 1093.72,-476.01"/>
</g>
<!-- 17&#45;&gt;16 -->
<g id="edge47" class="edge">
<title>17&#45;&gt;16</title>
<path fill="none" stroke="grey" stroke-width="2" d="M933.88,-575.7C946.21,-566.8 961.42,-555.82 974.76,-546.2"/>
<polygon fill="grey" stroke="grey" stroke-width="2" points="977.14,-548.79 983.2,-540.1 973.04,-543.12 977.14,-548.79"/>
</g>
<!-- 18 -->
<g id="node19" class="node">
<title>18</title>
<path fill="none" stroke="#56b1d8" stroke-width="2" d="M1114.9,-612C1114.9,-612 1038.9,-612 1038.9,-612 1032.9,-612 1026.9,-606 1026.9,-600 1026.9,-600 1026.9,-588 1026.9,-588 1026.9,-582 1032.9,-576 1038.9,-576 1038.9,-576 1114.9,-576 1114.9,-576 1120.9,-576 1126.9,-582 1126.9,-588 1126.9,-588 1126.9,-600 1126.9,-600 1126.9,-606 1120.9,-612 1114.9,-612"/>
<text text-anchor="middle" x="1076.9" y="-591.5" font-family="sans" font-size="10.00">prokka_db_setup</text>
</g>
<!-- 18&#45;&gt;16 -->
<g id="edge44" class="edge">
<title>18&#45;&gt;16</title>
<path fill="none" stroke="grey" stroke-width="2" d="M1059.6,-575.7C1051.04,-567.14 1040.56,-556.66 1031.21,-547.3"/>
<polygon fill="grey" stroke="grey" stroke-width="2" points="1033.55,-544.7 1024.01,-540.1 1028.6,-549.65 1033.55,-544.7"/>
</g>
<!-- 19 -->
<g id="node20" class="node">
<title>19</title>
<path fill="none" stroke="#566bd8" stroke-width="2" d="M313.4,-180C313.4,-180 218.4,-180 218.4,-180 212.4,-180 206.4,-174 206.4,-168 206.4,-168 206.4,-156 206.4,-156 206.4,-150 212.4,-144 218.4,-144 218.4,-144 313.4,-144 313.4,-144 319.4,-144 325.4,-150 325.4,-156 325.4,-156 325.4,-168 325.4,-168 325.4,-174 319.4,-180 313.4,-180"/>
<text text-anchor="middle" x="265.9" y="-159.5" font-family="sans" font-size="10.00">antismash_summary</text>
</g>
<!-- 19&#45;&gt;0 -->
<g id="edge20" class="edge">
<title>19&#45;&gt;0</title>
<path fill="none" stroke="grey" stroke-width="2" d="M290.91,-143.79C305.42,-133.64 323.92,-120.39 339.9,-108 359.6,-92.73 360,-81.83 382.9,-72 459.82,-39 714.11,-24.79 810.46,-20.5"/>
<polygon fill="grey" stroke="grey" stroke-width="2" points="810.77,-23.99 820.61,-20.06 810.47,-16.99 810.77,-23.99"/>
</g>
<!-- 27 -->
<g id="node28" class="node">
<title>27</title>
<path fill="none" stroke="#56d8a9" stroke-width="2" d="M318.9,-108C318.9,-108 212.9,-108 212.9,-108 206.9,-108 200.9,-102 200.9,-96 200.9,-96 200.9,-84 200.9,-84 200.9,-78 206.9,-72 212.9,-72 212.9,-72 318.9,-72 318.9,-72 324.9,-72 330.9,-78 330.9,-84 330.9,-84 330.9,-96 330.9,-96 330.9,-102 324.9,-108 318.9,-108"/>
<text text-anchor="middle" x="265.9" y="-87.5" font-family="sans" font-size="10.00">bigscape_to_cytoscape</text>
</g>
<!-- 19&#45;&gt;27 -->
<g id="edge60" class="edge">
<title>19&#45;&gt;27</title>
<path fill="none" stroke="grey" stroke-width="2" d="M265.9,-143.7C265.9,-135.98 265.9,-126.71 265.9,-118.11"/>
<polygon fill="grey" stroke="grey" stroke-width="2" points="269.4,-118.1 265.9,-108.1 262.4,-118.1 269.4,-118.1"/>
</g>
<!-- 20&#45;&gt;19 -->
<g id="edge51" class="edge">
<title>20&#45;&gt;19</title>
<path fill="none" stroke="grey" stroke-width="2" d="M211.5,-287.99C213.68,-269.61 218.58,-239.76 228.9,-216 233.09,-206.38 239.15,-196.71 245.16,-188.32"/>
<polygon fill="grey" stroke="grey" stroke-width="2" points="248.13,-190.19 251.33,-180.09 242.53,-185.99 248.13,-190.19"/>
</g>
<!-- 24 -->
<g id="node25" class="node">
<title>24</title>
<path fill="none" stroke="#80d856" stroke-width="2" d="M500.4,-180C500.4,-180 437.4,-180 437.4,-180 431.4,-180 425.4,-174 425.4,-168 425.4,-168 425.4,-156 425.4,-156 425.4,-150 431.4,-144 437.4,-144 437.4,-144 500.4,-144 500.4,-144 506.4,-144 512.4,-150 512.4,-156 512.4,-156 512.4,-168 512.4,-168 512.4,-174 506.4,-180 500.4,-180"/>
<text text-anchor="middle" x="468.9" y="-159.5" font-family="sans" font-size="10.00">query_bigslice</text>
</g>
<!-- 20&#45;&gt;24 -->
<g id="edge57" class="edge">
<title>20&#45;&gt;24</title>
<path fill="none" stroke="grey" stroke-width="2" d="M243.42,-287.77C261.1,-278.12 282.82,-265.36 300.9,-252 319.87,-237.98 320.01,-228.68 339.9,-216 363.23,-201.13 391.43,-188.97 415.51,-180.07"/>
<polygon fill="grey" stroke="grey" stroke-width="2" points="416.98,-183.26 425.2,-176.58 414.61,-176.68 416.98,-183.26"/>
</g>
<!-- 20&#45;&gt;27 -->
<g id="edge61" class="edge">
<title>20&#45;&gt;27</title>
<path fill="none" stroke="grey" stroke-width="2" d="M203.26,-287.96C192.46,-257.36 174.53,-191.85 197.9,-144 203.71,-132.11 213.61,-122.12 224.09,-114.12"/>
<polygon fill="grey" stroke="grey" stroke-width="2" points="226.4,-116.78 232.55,-108.14 222.36,-111.06 226.4,-116.78"/>
</g>
<!-- 28 -->
<g id="node29" class="node">
<title>28</title>
<path fill="none" stroke="#d8c356" stroke-width="2" d="M131.9,-180C131.9,-180 47.9,-180 47.9,-180 41.9,-180 35.9,-174 35.9,-168 35.9,-168 35.9,-156 35.9,-156 35.9,-150 41.9,-144 47.9,-144 47.9,-144 131.9,-144 131.9,-144 137.9,-144 143.9,-150 143.9,-156 143.9,-156 143.9,-168 143.9,-168 143.9,-174 137.9,-180 131.9,-180"/>
<text text-anchor="middle" x="89.9" y="-159.5" font-family="sans" font-size="10.00">copy_bigscape_zip</text>
</g>
<!-- 20&#45;&gt;28 -->
<g id="edge64" class="edge">
<title>20&#45;&gt;28</title>
<path fill="none" stroke="grey" stroke-width="2" d="M192.01,-287.85C181.71,-277.72 168.71,-264.47 157.9,-252 140.06,-231.42 121.39,-206.71 108.13,-188.56"/>
<polygon fill="grey" stroke="grey" stroke-width="2" points="110.79,-186.26 102.09,-180.22 105.12,-190.37 110.79,-186.26"/>
</g>
<!-- 29 -->
<g id="node30" class="node">
<title>29</title>
<path fill="none" stroke="#56d88a" stroke-width="2" d="M93.9,-252C93.9,-252 57.9,-252 57.9,-252 51.9,-252 45.9,-246 45.9,-240 45.9,-240 45.9,-228 45.9,-228 45.9,-222 51.9,-216 57.9,-216 57.9,-216 93.9,-216 93.9,-216 99.9,-216 105.9,-222 105.9,-228 105.9,-228 105.9,-240 105.9,-240 105.9,-246 99.9,-252 93.9,-252"/>
<text text-anchor="middle" x="75.9" y="-231.5" font-family="sans" font-size="10.00">bigscape</text>
</g>
<!-- 20&#45;&gt;29 -->
<g id="edge66" class="edge">
<title>20&#45;&gt;29</title>
<path fill="none" stroke="grey" stroke-width="2" d="M177.12,-287.88C158.39,-278.09 134.79,-265.76 115.09,-255.47"/>
<polygon fill="grey" stroke="grey" stroke-width="2" points="116.54,-252.28 106.05,-250.75 113.3,-258.48 116.54,-252.28"/>
</g>
<!-- 31 -->
<g id="node32" class="node">
<title>31</title>
<path fill="none" stroke="#56d8b1" stroke-width="2" d="M279.9,-252C279.9,-252 249.9,-252 249.9,-252 243.9,-252 237.9,-246 237.9,-240 237.9,-240 237.9,-228 237.9,-228 237.9,-222 243.9,-216 249.9,-216 249.9,-216 279.9,-216 279.9,-216 285.9,-216 291.9,-222 291.9,-228 291.9,-228 291.9,-240 291.9,-240 291.9,-246 285.9,-252 279.9,-252"/>
<text text-anchor="middle" x="264.9" y="-231.5" font-family="sans" font-size="10.00">bigslice</text>
</g>
<!-- 20&#45;&gt;31 -->
<g id="edge67" class="edge">
<title>20&#45;&gt;31</title>
<path fill="none" stroke="grey" stroke-width="2" d="M223.5,-287.7C230.03,-279.39 237.97,-269.28 245.15,-260.14"/>
<polygon fill="grey" stroke="grey" stroke-width="2" points="248.04,-262.13 251.46,-252.1 242.53,-257.81 248.04,-262.13"/>
</g>
<!-- 21&#45;&gt;20 -->
<g id="edge52" class="edge">
<title>21&#45;&gt;20</title>
<path fill="none" stroke="grey" stroke-width="2" d="M491.79,-369.44C442.22,-358.46 349.08,-337.83 283.46,-323.29"/>
<polygon fill="grey" stroke="grey" stroke-width="2" points="284.1,-319.85 273.58,-321.1 282.58,-326.68 284.1,-319.85"/>
</g>
<!-- 23 -->
<g id="node24" class="node">
<title>23</title>
<path fill="none" stroke="#56c9d8" stroke-width="2" d="M571.9,-252C571.9,-252 479.9,-252 479.9,-252 473.9,-252 467.9,-246 467.9,-240 467.9,-240 467.9,-228 467.9,-228 467.9,-222 473.9,-216 479.9,-216 479.9,-216 571.9,-216 571.9,-216 577.9,-216 583.9,-222 583.9,-228 583.9,-228 583.9,-240 583.9,-240 583.9,-246 577.9,-252 571.9,-252"/>
<text text-anchor="middle" x="525.9" y="-231.5" font-family="sans" font-size="10.00">copy_antismash_zip</text>
</g>
<!-- 21&#45;&gt;23 -->
<g id="edge56" class="edge">
<title>21&#45;&gt;23</title>
<path fill="none" stroke="grey" stroke-width="2" d="M525.9,-359.87C525.9,-335.67 525.9,-291.21 525.9,-262.39"/>
<polygon fill="grey" stroke="grey" stroke-width="2" points="529.4,-262.19 525.9,-252.19 522.4,-262.19 529.4,-262.19"/>
</g>
<!-- 36 -->
<g id="node37" class="node">
<title>36</title>
<path fill="none" stroke="#9fd856" stroke-width="2" d="M853.9,-324C853.9,-324 823.9,-324 823.9,-324 817.9,-324 811.9,-318 811.9,-312 811.9,-312 811.9,-300 811.9,-300 811.9,-294 817.9,-288 823.9,-288 823.9,-288 853.9,-288 853.9,-288 859.9,-288 865.9,-294 865.9,-300 865.9,-300 865.9,-312 865.9,-312 865.9,-318 859.9,-324 853.9,-324"/>
<text text-anchor="middle" x="838.9" y="-303.5" font-family="sans" font-size="10.00">arts</text>
</g>
<!-- 21&#45;&gt;36 -->
<g id="edge74" class="edge">
<title>21&#45;&gt;36</title>
<path fill="none" stroke="grey" stroke-width="2" d="M559.96,-369.53C606.33,-359.35 691.94,-340.47 764.9,-324 776.94,-321.28 790.06,-318.28 801.87,-315.57"/>
<polygon fill="grey" stroke="grey" stroke-width="2" points="802.89,-318.92 811.85,-313.27 801.32,-312.1 802.89,-318.92"/>
</g>
<!-- 22 -->
<g id="node23" class="node">
<title>22</title>
<path fill="none" stroke="#56d8c1" stroke-width="2" d="M547.4,-468C547.4,-468 454.4,-468 454.4,-468 448.4,-468 442.4,-462 442.4,-456 442.4,-456 442.4,-444 442.4,-444 442.4,-438 448.4,-432 454.4,-432 454.4,-432 547.4,-432 547.4,-432 553.4,-432 559.4,-438 559.4,-444 559.4,-444 559.4,-456 559.4,-456 559.4,-462 553.4,-468 547.4,-468"/>
<text text-anchor="middle" x="500.9" y="-447.5" font-family="sans" font-size="10.00">antismash_db_setup</text>
</g>
<!-- 22&#45;&gt;21 -->
<g id="edge54" class="edge">
<title>22&#45;&gt;21</title>
<path fill="none" stroke="grey" stroke-width="2" d="M507.08,-431.7C509.9,-423.81 513.29,-414.3 516.42,-405.55"/>
<polygon fill="grey" stroke="grey" stroke-width="2" points="519.73,-406.7 519.79,-396.1 513.14,-404.34 519.73,-406.7"/>
</g>
<!-- 23&#45;&gt;0 -->
<g id="edge17" class="edge">
<title>23&#45;&gt;0</title>
<path fill="none" stroke="grey" stroke-width="2" d="M542.14,-215.85C573.15,-183.92 644.02,-114.72 714.9,-72 745.43,-53.6 783.49,-39.19 811.06,-30.06"/>
<polygon fill="grey" stroke="grey" stroke-width="2" points="812.27,-33.35 820.71,-26.95 810.12,-26.69 812.27,-33.35"/>
</g>
<!-- 24&#45;&gt;0 -->
<g id="edge8" class="edge">
<title>24&#45;&gt;0</title>
<path fill="none" stroke="grey" stroke-width="2" d="M485.9,-143.65C506.96,-123.23 544.86,-89.83 583.9,-72 659.69,-37.39 757.91,-25.28 810.59,-21.12"/>
<polygon fill="grey" stroke="grey" stroke-width="2" points="811.09,-24.59 820.81,-20.37 810.58,-17.61 811.09,-24.59"/>
</g>
<!-- 25 -->
<g id="node26" class="node">
<title>25</title>
<path fill="none" stroke="#d8d356" stroke-width="2" d="M437.4,-252C437.4,-252 360.4,-252 360.4,-252 354.4,-252 348.4,-246 348.4,-240 348.4,-240 348.4,-228 348.4,-228 348.4,-222 354.4,-216 360.4,-216 360.4,-216 437.4,-216 437.4,-216 443.4,-216 449.4,-222 449.4,-228 449.4,-228 449.4,-240 449.4,-240 449.4,-246 443.4,-252 437.4,-252"/>
<text text-anchor="middle" x="398.9" y="-231.5" font-family="sans" font-size="10.00">fetch_bigslice_db</text>
</g>
<!-- 25&#45;&gt;24 -->
<g id="edge58" class="edge">
<title>25&#45;&gt;24</title>
<path fill="none" stroke="grey" stroke-width="2" d="M416.21,-215.7C424.77,-207.14 435.25,-196.66 444.6,-187.3"/>
<polygon fill="grey" stroke="grey" stroke-width="2" points="447.2,-189.65 451.8,-180.1 442.25,-184.7 447.2,-189.65"/>
</g>
<!-- 26 -->
<g id="node27" class="node">
<title>26</title>
<path fill="none" stroke="#56d892" stroke-width="2" d="M400.4,-324C400.4,-324 335.4,-324 335.4,-324 329.4,-324 323.4,-318 323.4,-312 323.4,-312 323.4,-300 323.4,-300 323.4,-294 329.4,-288 335.4,-288 335.4,-288 400.4,-288 400.4,-288 406.4,-288 412.4,-294 412.4,-300 412.4,-300 412.4,-312 412.4,-312 412.4,-318 406.4,-324 400.4,-324"/>
<text text-anchor="middle" x="367.9" y="-303.5" font-family="sans" font-size="10.00">install_bigslice</text>
</g>
<!-- 26&#45;&gt;25 -->
<g id="edge59" class="edge">
<title>26&#45;&gt;25</title>
<path fill="none" stroke="grey" stroke-width="2" d="M375.57,-287.7C379.1,-279.73 383.36,-270.1 387.27,-261.26"/>
<polygon fill="grey" stroke="grey" stroke-width="2" points="390.48,-262.67 391.33,-252.1 384.08,-259.83 390.48,-262.67"/>
</g>
<!-- 26&#45;&gt;31 -->
<g id="edge68" class="edge">
<title>26&#45;&gt;31</title>
<path fill="none" stroke="grey" stroke-width="2" d="M342.71,-287.88C329.49,-278.89 313.11,-267.76 298.8,-258.03"/>
<polygon fill="grey" stroke="grey" stroke-width="2" points="300.43,-254.92 290.2,-252.19 296.5,-260.71 300.43,-254.92"/>
</g>
<!-- 27&#45;&gt;0 -->
<g id="edge13" class="edge">
<title>27&#45;&gt;0</title>
<path fill="none" stroke="grey" stroke-width="2" d="M331.33,-74.36C335.91,-73.51 340.47,-72.71 344.9,-72 518.07,-44.33 727.17,-27.58 810.76,-21.55"/>
<polygon fill="grey" stroke="grey" stroke-width="2" points="811.05,-25.03 820.78,-20.83 810.56,-18.05 811.05,-25.03"/>
</g>
<!-- 28&#45;&gt;27 -->
<g id="edge62" class="edge">
<title>28&#45;&gt;27</title>
<path fill="none" stroke="grey" stroke-width="2" d="M132.96,-143.88C157.23,-134.22 187.74,-122.09 213.41,-111.88"/>
<polygon fill="grey" stroke="grey" stroke-width="2" points="214.99,-115.02 222.99,-108.07 212.4,-108.51 214.99,-115.02"/>
</g>
<!-- 29&#45;&gt;28 -->
<g id="edge63" class="edge">
<title>29&#45;&gt;28</title>
<path fill="none" stroke="grey" stroke-width="2" d="M79.36,-215.7C80.91,-207.98 82.76,-198.71 84.48,-190.11"/>
<polygon fill="grey" stroke="grey" stroke-width="2" points="87.95,-190.6 86.48,-180.1 81.09,-189.22 87.95,-190.6"/>
</g>
<!-- 30 -->
<g id="node31" class="node">
<title>30</title>
<path fill="none" stroke="#56d87b" stroke-width="2" d="M114.4,-324C114.4,-324 43.4,-324 43.4,-324 37.4,-324 31.4,-318 31.4,-312 31.4,-312 31.4,-300 31.4,-300 31.4,-294 37.4,-288 43.4,-288 43.4,-288 114.4,-288 114.4,-288 120.4,-288 126.4,-294 126.4,-300 126.4,-300 126.4,-312 126.4,-312 126.4,-318 120.4,-324 114.4,-324"/>
<text text-anchor="middle" x="78.9" y="-303.5" font-family="sans" font-size="10.00">install_bigscape</text>
</g>
<!-- 30&#45;&gt;29 -->
<g id="edge65" class="edge">
<title>30&#45;&gt;29</title>
<path fill="none" stroke="grey" stroke-width="2" d="M78.16,-287.7C77.83,-279.98 77.43,-270.71 77.07,-262.11"/>
<polygon fill="grey" stroke="grey" stroke-width="2" points="80.56,-261.95 76.64,-252.1 73.57,-262.25 80.56,-261.95"/>
</g>
<!-- 31&#45;&gt;0 -->
<g id="edge14" class="edge">
<title>31&#45;&gt;0</title>
<path fill="none" stroke="grey" stroke-width="2" d="M289.45,-215.93C343.81,-178.4 473.49,-90.59 522.9,-72 622.55,-34.52 749.21,-23.52 810.84,-20.31"/>
<polygon fill="grey" stroke="grey" stroke-width="2" points="811.05,-23.81 820.87,-19.83 810.71,-16.81 811.05,-23.81"/>
</g>
<!-- 32 -->
<g id="node33" class="node">
<title>32</title>
<path fill="none" stroke="#d85e56" stroke-width="2" d="M815.9,-180C815.9,-180 713.9,-180 713.9,-180 707.9,-180 701.9,-174 701.9,-168 701.9,-168 701.9,-156 701.9,-156 701.9,-150 707.9,-144 713.9,-144 713.9,-144 815.9,-144 815.9,-144 821.9,-144 827.9,-150 827.9,-156 827.9,-156 827.9,-168 827.9,-168 827.9,-174 821.9,-180 815.9,-180"/>
<text text-anchor="middle" x="764.9" y="-159.5" font-family="sans" font-size="10.00">automlst_wrapper_out</text>
</g>
<!-- 32&#45;&gt;0 -->
<g id="edge1" class="edge">
<title>32&#45;&gt;0</title>
<path fill="none" stroke="grey" stroke-width="2" d="M762.64,-143.66C761.03,-124.74 761.06,-94.17 773.9,-72 782.69,-56.83 797.77,-44.85 812.03,-36.15"/>
<polygon fill="grey" stroke="grey" stroke-width="2" points="813.8,-39.16 820.73,-31.15 810.32,-33.09 813.8,-39.16"/>
</g>
<!-- 38 -->
<g id="node39" class="node">
<title>38</title>
<path fill="none" stroke="#d8ac56" stroke-width="2" d="M867.4,-108C867.4,-108 828.4,-108 828.4,-108 822.4,-108 816.4,-102 816.4,-96 816.4,-96 816.4,-84 816.4,-84 816.4,-78 822.4,-72 828.4,-72 828.4,-72 867.4,-72 867.4,-72 873.4,-72 879.4,-78 879.4,-84 879.4,-84 879.4,-96 879.4,-96 879.4,-102 873.4,-108 867.4,-108"/>
<text text-anchor="middle" x="847.9" y="-87.5" font-family="sans" font-size="10.00">roary_out</text>
</g>
<!-- 32&#45;&gt;38 -->
<g id="edge76" class="edge">
<title>32&#45;&gt;38</title>
<path fill="none" stroke="grey" stroke-width="2" d="M785.42,-143.7C795.77,-134.97 808.49,-124.24 819.74,-114.75"/>
<polygon fill="grey" stroke="grey" stroke-width="2" points="822.23,-117.23 827.62,-108.1 817.72,-111.88 822.23,-117.23"/>
</g>
<!-- 33 -->
<g id="node34" class="node">
<title>33</title>
<path fill="none" stroke="#56d8c9" stroke-width="2" d="M815.4,-252C815.4,-252 734.4,-252 734.4,-252 728.4,-252 722.4,-246 722.4,-240 722.4,-240 722.4,-228 722.4,-228 722.4,-222 728.4,-216 734.4,-216 734.4,-216 815.4,-216 815.4,-216 821.4,-216 827.4,-222 827.4,-228 827.4,-228 827.4,-240 827.4,-240 827.4,-246 821.4,-252 815.4,-252"/>
<text text-anchor="middle" x="774.9" y="-231.5" font-family="sans" font-size="10.00">automlst_wrapper</text>
</g>
<!-- 33&#45;&gt;32 -->
<g id="edge69" class="edge">
<title>33&#45;&gt;32</title>
<path fill="none" stroke="grey" stroke-width="2" d="M772.43,-215.7C771.33,-207.98 770.01,-198.71 768.78,-190.11"/>
<polygon fill="grey" stroke="grey" stroke-width="2" points="772.23,-189.51 767.35,-180.1 765.3,-190.5 772.23,-189.51"/>
</g>
<!-- 34&#45;&gt;33 -->
<g id="edge71" class="edge">
<title>34&#45;&gt;33</title>
<path fill="none" stroke="grey" stroke-width="2" d="M729.3,-359.82C742.51,-350.91 756.7,-338.78 764.9,-324 775.31,-305.25 777.41,-280.87 777.13,-262.37"/>
<polygon fill="grey" stroke="grey" stroke-width="2" points="780.62,-262.1 776.73,-252.24 773.62,-262.37 780.62,-262.1"/>
</g>
<!-- 35 -->
<g id="node36" class="node">
<title>35</title>
<path fill="none" stroke="#d87556" stroke-width="2" d="M743.9,-324C743.9,-324 627.9,-324 627.9,-324 621.9,-324 615.9,-318 615.9,-312 615.9,-312 615.9,-300 615.9,-300 615.9,-294 621.9,-288 627.9,-288 627.9,-288 743.9,-288 743.9,-288 749.9,-288 755.9,-294 755.9,-300 755.9,-300 755.9,-312 755.9,-312 755.9,-318 749.9,-324 743.9,-324"/>
<text text-anchor="middle" x="685.9" y="-303.5" font-family="sans" font-size="10.00">install_automlst_wrapper</text>
</g>
<!-- 35&#45;&gt;33 -->
<g id="edge70" class="edge">
<title>35&#45;&gt;33</title>
<path fill="none" stroke="grey" stroke-width="2" d="M707.9,-287.7C719.11,-278.88 732.91,-268.03 745.06,-258.47"/>
<polygon fill="grey" stroke="grey" stroke-width="2" points="747.46,-261.04 753.16,-252.1 743.13,-255.54 747.46,-261.04"/>
</g>
<!-- 36&#45;&gt;0 -->
<g id="edge6" class="edge">
<title>36&#45;&gt;0</title>
<path fill="none" stroke="grey" stroke-width="2" d="M842.24,-287.9C847.35,-257.78 854.78,-193.71 836.9,-144 829.95,-124.67 814.74,-127.38 807.9,-108 802.58,-92.91 802.82,-87.17 807.9,-72 811.25,-62 817.32,-52.38 823.73,-44.14"/>
<polygon fill="grey" stroke="grey" stroke-width="2" points="826.46,-46.33 830.17,-36.4 821.08,-41.85 826.46,-46.33"/>
</g>
<!-- 37 -->
<g id="node38" class="node">
<title>37</title>
<path fill="none" stroke="#d88556" stroke-width="2" d="M853.9,-396C853.9,-396 809.9,-396 809.9,-396 803.9,-396 797.9,-390 797.9,-384 797.9,-384 797.9,-372 797.9,-372 797.9,-366 803.9,-360 809.9,-360 809.9,-360 853.9,-360 853.9,-360 859.9,-360 865.9,-366 865.9,-372 865.9,-372 865.9,-384 865.9,-384 865.9,-390 859.9,-396 853.9,-396"/>
<text text-anchor="middle" x="831.9" y="-375.5" font-family="sans" font-size="10.00">arts_setup</text>
</g>
<!-- 37&#45;&gt;36 -->
<g id="edge73" class="edge">
<title>37&#45;&gt;36</title>
<path fill="none" stroke="grey" stroke-width="2" d="M833.63,-359.7C834.41,-351.98 835.33,-342.71 836.19,-334.11"/>
<polygon fill="grey" stroke="grey" stroke-width="2" points="839.68,-334.4 837.19,-324.1 832.72,-333.71 839.68,-334.4"/>
</g>
<!-- 38&#45;&gt;0 -->
<g id="edge5" class="edge">
<title>38&#45;&gt;0</title>
<path fill="none" stroke="grey" stroke-width="2" d="M847.9,-71.7C847.9,-63.98 847.9,-54.71 847.9,-46.11"/>
<polygon fill="grey" stroke="grey" stroke-width="2" points="851.4,-46.1 847.9,-36.1 844.4,-46.1 851.4,-46.1"/>
</g>
<!-- 39&#45;&gt;38 -->
<g id="edge75" class="edge">
<title>39&#45;&gt;38</title>
<path fill="none" stroke="grey" stroke-width="2" d="M924.2,-143.88C911.23,-134.89 895.17,-123.76 881.14,-114.03"/>
<polygon fill="grey" stroke="grey" stroke-width="2" points="882.92,-111.01 872.71,-108.19 878.93,-116.76 882.92,-111.01"/>
</g>
<!-- 42 -->
<g id="node43" class="node">
<title>42</title>
<path fill="none" stroke="#68d856" stroke-width="2" d="M1007.4,-108C1007.4,-108 948.4,-108 948.4,-108 942.4,-108 936.4,-102 936.4,-96 936.4,-96 936.4,-84 936.4,-84 936.4,-78 942.4,-72 948.4,-72 948.4,-72 1007.4,-72 1007.4,-72 1013.4,-72 1019.4,-78 1019.4,-84 1019.4,-84 1019.4,-96 1019.4,-96 1019.4,-102 1013.4,-108 1007.4,-108"/>
<text text-anchor="middle" x="977.9" y="-87.5" font-family="sans" font-size="10.00">eggnog_roary</text>
</g>
<!-- 39&#45;&gt;42 -->
<g id="edge80" class="edge">
<title>39&#45;&gt;42</title>
<path fill="none" stroke="grey" stroke-width="2" d="M956.07,-143.7C959.34,-135.81 963.28,-126.3 966.91,-117.55"/>
<polygon fill="grey" stroke="grey" stroke-width="2" points="970.22,-118.68 970.82,-108.1 963.76,-116 970.22,-118.68"/>
</g>
<!-- 40&#45;&gt;0 -->
<g id="edge2" class="edge">
<title>40&#45;&gt;0</title>
<path fill="none" stroke="grey" stroke-width="2" d="M1037.58,-75.56C1034.68,-74.29 1031.75,-73.08 1028.9,-72 980.08,-53.45 921.83,-37.44 884.86,-28.01"/>
<polygon fill="grey" stroke="grey" stroke-width="2" points="885.57,-24.58 875.02,-25.53 883.86,-31.37 885.57,-24.58"/>
</g>
<!-- 41 -->
<g id="node42" class="node">
<title>41</title>
<path fill="none" stroke="#a7d856" stroke-width="2" d="M1069.9,-180C1069.9,-180 1005.9,-180 1005.9,-180 999.9,-180 993.9,-174 993.9,-168 993.9,-168 993.9,-156 993.9,-156 993.9,-150 999.9,-144 1005.9,-144 1005.9,-144 1069.9,-144 1069.9,-144 1075.9,-144 1081.9,-150 1081.9,-156 1081.9,-156 1081.9,-168 1081.9,-168 1081.9,-174 1075.9,-180 1069.9,-180"/>
<text text-anchor="middle" x="1037.9" y="-159.5" font-family="sans" font-size="10.00">install_eggnog</text>
</g>
<!-- 41&#45;&gt;40 -->
<g id="edge79" class="edge">
<title>41&#45;&gt;40</title>
<path fill="none" stroke="grey" stroke-width="2" d="M1044.58,-143.7C1047.62,-135.81 1051.29,-126.3 1054.66,-117.55"/>
<polygon fill="grey" stroke="grey" stroke-width="2" points="1057.97,-118.69 1058.31,-108.1 1051.44,-116.17 1057.97,-118.69"/>
</g>
<!-- 41&#45;&gt;42 -->
<g id="edge81" class="edge">
<title>41&#45;&gt;42</title>
<path fill="none" stroke="grey" stroke-width="2" d="M1023.07,-143.7C1015.88,-135.3 1007.11,-125.07 999.21,-115.86"/>
<polygon fill="grey" stroke="grey" stroke-width="2" points="1001.73,-113.42 992.56,-108.1 996.41,-117.97 1001.73,-113.42"/>
</g>
<!-- 42&#45;&gt;0 -->
<g id="edge10" class="edge">
<title>42&#45;&gt;0</title>
<path fill="none" stroke="grey" stroke-width="2" d="M946.1,-71.88C927.28,-61.74 903.39,-48.88 883.88,-38.37"/>
<polygon fill="grey" stroke="grey" stroke-width="2" points="885.45,-35.24 874.98,-33.58 882.13,-41.4 885.45,-35.24"/>
</g>
<!-- 43&#45;&gt;0 -->
<g id="edge12" class="edge">
<title>43&#45;&gt;0</title>
<path fill="none" stroke="grey" stroke-width="2" d="M1110.64,-359.68C1124.41,-333.53 1147.9,-282 1147.9,-235 1147.9,-235 1147.9,-235 1147.9,-161 1147.9,-116.27 1136.63,-98.92 1100.9,-72 1067.28,-46.66 947.02,-29.99 885.19,-22.9"/>
<polygon fill="grey" stroke="grey" stroke-width="2" points="885.4,-19.4 875.08,-21.76 884.62,-26.36 885.4,-19.4"/>
</g>
<!-- 44&#45;&gt;0 -->
<g id="edge3" class="edge">
<title>44&#45;&gt;0</title>
<path fill="none" stroke="grey" stroke-width="2" d="M1145.07,-431.85C1152.59,-421.93 1161.4,-408.89 1166.9,-396 1182.78,-358.8 1185.9,-347.45 1185.9,-307 1185.9,-307 1185.9,-307 1185.9,-161 1185.9,-31.64 972.87,-18.18 885.06,-18.12"/>
<polygon fill="grey" stroke="grey" stroke-width="2" points="884.97,-14.62 874.99,-18.18 885.01,-21.62 884.97,-14.62"/>
</g>
<!-- 45 -->
<g id="node46" class="node">
<title>45</title>
<path fill="none" stroke="#56d8a2" stroke-width="2" d="M1171.4,-540C1171.4,-540 1090.4,-540 1090.4,-540 1084.4,-540 1078.4,-534 1078.4,-528 1078.4,-528 1078.4,-516 1078.4,-516 1078.4,-510 1084.4,-504 1090.4,-504 1090.4,-504 1171.4,-504 1171.4,-504 1177.4,-504 1183.4,-510 1183.4,-516 1183.4,-516 1183.4,-528 1183.4,-528 1183.4,-534 1177.4,-540 1171.4,-540"/>
<text text-anchor="middle" x="1130.9" y="-519.5" font-family="sans" font-size="10.00">deeptfactor_setup</text>
</g>
<!-- 45&#45;&gt;44 -->
<g id="edge84" class="edge">
<title>45&#45;&gt;44</title>
<path fill="none" stroke="grey" stroke-width="2" d="M1130.9,-503.7C1130.9,-495.98 1130.9,-486.71 1130.9,-478.11"/>
<polygon fill="grey" stroke="grey" stroke-width="2" points="1134.4,-478.1 1130.9,-468.1 1127.4,-478.1 1134.4,-478.1"/>
</g>
<!-- 46&#45;&gt;0 -->
<g id="edge11" class="edge">
<title>46&#45;&gt;0</title>
<path fill="none" stroke="grey" stroke-width="2" d="M1509.44,-503.71C1501.55,-477.18 1487.9,-424.67 1487.9,-379 1487.9,-379 1487.9,-379 1487.9,-161 1487.9,-36.75 1022.37,-21.15 885.38,-19.25"/>
<polygon fill="grey" stroke="grey" stroke-width="2" points="885.04,-15.74 874.99,-19.12 884.95,-22.74 885.04,-15.74"/>
</g>
</g>
</svg>
