<?xml version="1.0" encoding="UTF-8" standalone="no"?>
<!DOCTYPE svg PUBLIC "-//W3C//DTD SVG 1.1//EN"
 "http://www.w3.org/Graphics/SVG/1.1/DTD/svg11.dtd">
<!-- Generated by graphviz version 2.49.1 (20211004.0028)
 -->
<!-- Title: snakemake_dag Pages: 1 -->
<svg width="1341pt" height="548pt"
 viewBox="0.00 0.00 1341.31 548.00" xmlns="http://www.w3.org/2000/svg" xmlns:xlink="http://www.w3.org/1999/xlink">
<g id="graph0" class="graph" transform="scale(1 1) rotate(0) translate(4 544)">
<title>snakemake_dag</title>
<polygon fill="white" stroke="transparent" points="-4,4 -4,-544 1337.31,-544 1337.31,4 -4,4"/>
<!-- 0 -->
<g id="node1" class="node">
<title>0</title>
<path fill="none" stroke="#d86656" stroke-width="2" d="M868.31,-36C868.31,-36 838.31,-36 838.31,-36 832.31,-36 826.31,-30 826.31,-24 826.31,-24 826.31,-12 826.31,-12 826.31,-6 832.31,0 838.31,0 838.31,0 868.31,0 868.31,0 874.31,0 880.31,-6 880.31,-12 880.31,-12 880.31,-24 880.31,-24 880.31,-30 874.31,-36 868.31,-36"/>
<text text-anchor="middle" x="853.31" y="-15.5" font-family="sans" font-size="10.00">all</text>
</g>
<!-- 1 -->
<g id="node2" class="node">
<title>1</title>
<path fill="none" stroke="#c6d856" stroke-width="2" d="M401.31,-108C401.31,-108 309.31,-108 309.31,-108 303.31,-108 297.31,-102 297.31,-96 297.31,-96 297.31,-84 297.31,-84 297.31,-78 303.31,-72 309.31,-72 309.31,-72 401.31,-72 401.31,-72 407.31,-72 413.31,-78 413.31,-84 413.31,-84 413.31,-96 413.31,-96 413.31,-102 407.31,-108 401.31,-108"/>
<text text-anchor="middle" x="355.31" y="-87.5" font-family="sans" font-size="10.00">copy_antismash_zip</text>
</g>
<!-- 1&#45;&gt;0 -->
<g id="edge6" class="edge">
<title>1&#45;&gt;0</title>
<path fill="none" stroke="grey" stroke-width="2" d="M413.77,-77.85C425.21,-75.8 437.12,-73.75 448.31,-72 583.25,-50.85 744.4,-31.52 815.93,-23.25"/>
<polygon fill="grey" stroke="grey" stroke-width="2" points="816.69,-26.69 826.22,-22.06 815.89,-19.73 816.69,-26.69"/>
</g>
<!-- 2 -->
<g id="node3" class="node">
<title>2</title>
<path fill="none" stroke="#80d856" stroke-width="2" d="M508.31,-252C508.31,-252 464.31,-252 464.31,-252 458.31,-252 452.31,-246 452.31,-240 452.31,-240 452.31,-228 452.31,-228 452.31,-222 458.31,-216 464.31,-216 464.31,-216 508.31,-216 508.31,-216 514.31,-216 520.31,-222 520.31,-228 520.31,-228 520.31,-240 520.31,-240 520.31,-246 514.31,-252 508.31,-252"/>
<text text-anchor="middle" x="486.31" y="-231.5" font-family="sans" font-size="10.00">antismash</text>
</g>
<!-- 2&#45;&gt;1 -->
<g id="edge17" class="edge">
<title>2&#45;&gt;1</title>
<path fill="none" stroke="grey" stroke-width="2" d="M451.99,-227.84C404.82,-219.96 323.77,-203.35 306.31,-180 291.01,-159.55 308.69,-133.77 326.94,-115.22"/>
<polygon fill="grey" stroke="grey" stroke-width="2" points="329.4,-117.71 334.16,-108.25 324.53,-112.68 329.4,-117.71"/>
</g>
<!-- 14 -->
<g id="node15" class="node">
<title>14</title>
<path fill="none" stroke="#56d8b9" stroke-width="2" d="M670.81,-180C670.81,-180 575.81,-180 575.81,-180 569.81,-180 563.81,-174 563.81,-168 563.81,-168 563.81,-156 563.81,-156 563.81,-150 569.81,-144 575.81,-144 575.81,-144 670.81,-144 670.81,-144 676.81,-144 682.81,-150 682.81,-156 682.81,-156 682.81,-168 682.81,-168 682.81,-174 676.81,-180 670.81,-180"/>
<text text-anchor="middle" x="623.31" y="-159.5" font-family="sans" font-size="10.00">antismash_summary</text>
</g>
<!-- 2&#45;&gt;14 -->
<g id="edge33" class="edge">
<title>2&#45;&gt;14</title>
<path fill="none" stroke="grey" stroke-width="2" d="M519.82,-215.88C538.15,-206.51 561.04,-194.81 580.64,-184.8"/>
<polygon fill="grey" stroke="grey" stroke-width="2" points="582.35,-187.86 589.66,-180.19 579.17,-181.62 582.35,-187.86"/>
</g>
<!-- 23 -->
<g id="node24" class="node">
<title>23</title>
<path fill="none" stroke="#56d8c9" stroke-width="2" d="M127.31,-180C127.31,-180 41.31,-180 41.31,-180 35.31,-180 29.31,-174 29.31,-168 29.31,-168 29.31,-156 29.31,-156 29.31,-150 35.31,-144 41.31,-144 41.31,-144 127.31,-144 127.31,-144 133.31,-144 139.31,-150 139.31,-156 139.31,-156 139.31,-168 139.31,-168 139.31,-174 133.31,-180 127.31,-180"/>
<text text-anchor="middle" x="84.31" y="-159.5" font-family="sans" font-size="10.00">get_bigslice_inputs</text>
</g>
<!-- 2&#45;&gt;23 -->
<g id="edge50" class="edge">
<title>2&#45;&gt;23</title>
<path fill="none" stroke="grey" stroke-width="2" d="M452.03,-228.83C392.41,-221.3 265.63,-204.17 149.17,-180.07"/>
<polygon fill="grey" stroke="grey" stroke-width="2" points="149.88,-176.64 139.38,-178.02 148.45,-183.49 149.88,-176.64"/>
</g>
<!-- 28 -->
<g id="node29" class="node">
<title>28</title>
<path fill="none" stroke="#5673d8" stroke-width="2" d="M533.31,-180C533.31,-180 441.31,-180 441.31,-180 435.31,-180 429.31,-174 429.31,-168 429.31,-168 429.31,-156 429.31,-156 429.31,-150 435.31,-144 441.31,-144 441.31,-144 533.31,-144 533.31,-144 539.31,-144 545.31,-150 545.31,-156 545.31,-156 545.31,-168 545.31,-168 545.31,-174 539.31,-180 533.31,-180"/>
<text text-anchor="middle" x="487.31" y="-159.5" font-family="sans" font-size="10.00">get_bigscape_inputs</text>
</g>
<!-- 2&#45;&gt;28 -->
<g id="edge55" class="edge">
<title>2&#45;&gt;28</title>
<path fill="none" stroke="grey" stroke-width="2" d="M486.55,-215.7C486.67,-207.98 486.8,-198.71 486.92,-190.11"/>
<polygon fill="grey" stroke="grey" stroke-width="2" points="490.42,-190.15 487.06,-180.1 483.42,-190.05 490.42,-190.15"/>
</g>
<!-- 3 -->
<g id="node4" class="node">
<title>3</title>
<path fill="none" stroke="#56d8a2" stroke-width="2" d="M775.81,-324C775.81,-324 726.81,-324 726.81,-324 720.81,-324 714.81,-318 714.81,-312 714.81,-312 714.81,-300 714.81,-300 714.81,-294 720.81,-288 726.81,-288 726.81,-288 775.81,-288 775.81,-288 781.81,-288 787.81,-294 787.81,-300 787.81,-300 787.81,-312 787.81,-312 787.81,-318 781.81,-324 775.81,-324"/>
<text text-anchor="middle" x="751.31" y="-303.5" font-family="sans" font-size="10.00">format_gbk</text>
</g>
<!-- 3&#45;&gt;0 -->
<g id="edge12" class="edge">
<title>3&#45;&gt;0</title>
<path fill="none" stroke="grey" stroke-width="2" d="M780.33,-287.81C793.07,-278.76 806.99,-266.52 815.31,-252 853.42,-185.5 856.13,-91.82 854.82,-46.16"/>
<polygon fill="grey" stroke="grey" stroke-width="2" points="858.32,-46 854.44,-36.14 851.32,-46.26 858.32,-46"/>
</g>
<!-- 3&#45;&gt;2 -->
<g id="edge19" class="edge">
<title>3&#45;&gt;2</title>
<path fill="none" stroke="grey" stroke-width="2" d="M714.73,-297.93C672.36,-289.38 600.39,-273.74 530.29,-252.09"/>
<polygon fill="grey" stroke="grey" stroke-width="2" points="531.01,-248.64 520.42,-248.99 528.91,-255.32 531.01,-248.64"/>
</g>
<!-- 31 -->
<g id="node32" class="node">
<title>31</title>
<path fill="none" stroke="#d88d56" stroke-width="2" d="M794.31,-252C794.31,-252 708.31,-252 708.31,-252 702.31,-252 696.31,-246 696.31,-240 696.31,-240 696.31,-228 696.31,-228 696.31,-222 702.31,-216 708.31,-216 708.31,-216 794.31,-216 794.31,-216 800.31,-216 806.31,-222 806.31,-228 806.31,-228 806.31,-240 806.31,-240 806.31,-246 800.31,-252 794.31,-252"/>
<text text-anchor="middle" x="751.31" y="-231.5" font-family="sans" font-size="10.00">prep_automlst_gbk</text>
</g>
<!-- 3&#45;&gt;31 -->
<g id="edge60" class="edge">
<title>3&#45;&gt;31</title>
<path fill="none" stroke="grey" stroke-width="2" d="M751.31,-287.7C751.31,-279.98 751.31,-270.71 751.31,-262.11"/>
<polygon fill="grey" stroke="grey" stroke-width="2" points="754.81,-262.1 751.31,-252.1 747.81,-262.1 754.81,-262.1"/>
</g>
<!-- 4 -->
<g id="node5" class="node">
<title>4</title>
<path fill="none" stroke="#afd856" stroke-width="2" d="M864.31,-396C864.31,-396 834.31,-396 834.31,-396 828.31,-396 822.31,-390 822.31,-384 822.31,-384 822.31,-372 822.31,-372 822.31,-366 828.31,-360 834.31,-360 834.31,-360 864.31,-360 864.31,-360 870.31,-360 876.31,-366 876.31,-372 876.31,-372 876.31,-384 876.31,-384 876.31,-390 870.31,-396 864.31,-396"/>
<text text-anchor="middle" x="849.31" y="-375.5" font-family="sans" font-size="10.00">prokka</text>
</g>
<!-- 4&#45;&gt;3 -->
<g id="edge21" class="edge">
<title>4&#45;&gt;3</title>
<path fill="none" stroke="grey" stroke-width="2" d="M825.33,-359.88C812.76,-350.89 797.18,-339.76 783.56,-330.03"/>
<polygon fill="grey" stroke="grey" stroke-width="2" points="785.55,-327.15 775.37,-324.19 781.48,-332.85 785.55,-327.15"/>
</g>
<!-- 33 -->
<g id="node34" class="node">
<title>33</title>
<path fill="none" stroke="#d88556" stroke-width="2" d="M942.31,-108C942.31,-108 912.31,-108 912.31,-108 906.31,-108 900.31,-102 900.31,-96 900.31,-96 900.31,-84 900.31,-84 900.31,-78 906.31,-72 912.31,-72 912.31,-72 942.31,-72 942.31,-72 948.31,-72 954.31,-78 954.31,-84 954.31,-84 954.31,-96 954.31,-96 954.31,-102 948.31,-108 942.31,-108"/>
<text text-anchor="middle" x="927.31" y="-87.5" font-family="sans" font-size="10.00">roary</text>
</g>
<!-- 4&#45;&gt;33 -->
<g id="edge61" class="edge">
<title>4&#45;&gt;33</title>
<path fill="none" stroke="grey" stroke-width="2" d="M864.06,-359.99C871.86,-350.11 880.91,-337.07 886.31,-324 915.43,-253.51 923.88,-162.69 926.32,-118.12"/>
<polygon fill="grey" stroke="grey" stroke-width="2" points="929.82,-118.24 926.81,-108.08 922.83,-117.9 929.82,-118.24"/>
</g>
<!-- 34 -->
<g id="node35" class="node">
<title>34</title>
<path fill="none" stroke="#8fd856" stroke-width="2" d="M980.31,-324C980.31,-324 950.31,-324 950.31,-324 944.31,-324 938.31,-318 938.31,-312 938.31,-312 938.31,-300 938.31,-300 938.31,-294 944.31,-288 950.31,-288 950.31,-288 980.31,-288 980.31,-288 986.31,-288 992.31,-294 992.31,-300 992.31,-300 992.31,-312 992.31,-312 992.31,-318 986.31,-324 980.31,-324"/>
<text text-anchor="middle" x="965.31" y="-303.5" font-family="sans" font-size="10.00">eggnog</text>
</g>
<!-- 4&#45;&gt;34 -->
<g id="edge63" class="edge">
<title>4&#45;&gt;34</title>
<path fill="none" stroke="grey" stroke-width="2" d="M876.5,-360.59C892.36,-351.02 912.54,-338.85 929.65,-328.52"/>
<polygon fill="grey" stroke="grey" stroke-width="2" points="931.53,-331.47 938.28,-323.31 927.91,-325.48 931.53,-331.47"/>
</g>
<!-- 5 -->
<g id="node6" class="node">
<title>5</title>
<path fill="none" stroke="#d89c56" stroke-width="2" d="M923.31,-540C923.31,-540 813.31,-540 813.31,-540 807.31,-540 801.31,-534 801.31,-528 801.31,-528 801.31,-516 801.31,-516 801.31,-510 807.31,-504 813.31,-504 813.31,-504 923.31,-504 923.31,-504 929.31,-504 935.31,-510 935.31,-516 935.31,-516 935.31,-528 935.31,-528 935.31,-534 929.31,-540 923.31,-540"/>
<text text-anchor="middle" x="868.31" y="-519.5" font-family="sans" font-size="10.00">ncbi_genome_download</text>
</g>
<!-- 5&#45;&gt;4 -->
<g id="edge25" class="edge">
<title>5&#45;&gt;4</title>
<path fill="none" stroke="grey" stroke-width="2" d="M801.07,-514.05C742.95,-506.5 665.37,-492.14 646.31,-468 570.55,-372.03 686.37,-425.3 793.31,-396 799.48,-394.31 806.01,-392.42 812.34,-390.53"/>
<polygon fill="grey" stroke="grey" stroke-width="2" points="813.49,-393.84 822.05,-387.6 811.47,-387.14 813.49,-393.84"/>
</g>
<!-- 6 -->
<g id="node7" class="node">
<title>6</title>
<path fill="none" stroke="#70d856" stroke-width="2" d="M763.31,-468C763.31,-468 667.31,-468 667.31,-468 661.31,-468 655.31,-462 655.31,-456 655.31,-456 655.31,-444 655.31,-444 655.31,-438 661.31,-432 667.31,-432 667.31,-432 763.31,-432 763.31,-432 769.31,-432 775.31,-438 775.31,-444 775.31,-444 775.31,-456 775.31,-456 775.31,-462 769.31,-468 763.31,-468"/>
<text text-anchor="middle" x="715.31" y="-447.5" font-family="sans" font-size="10.00">extract_meta_prokka</text>
</g>
<!-- 5&#45;&gt;6 -->
<g id="edge27" class="edge">
<title>5&#45;&gt;6</title>
<path fill="none" stroke="grey" stroke-width="2" d="M830.88,-503.88C810.06,-494.35 783.95,-482.41 761.83,-472.28"/>
<polygon fill="grey" stroke="grey" stroke-width="2" points="763.16,-469.05 752.61,-468.07 760.25,-475.41 763.16,-469.05"/>
</g>
<!-- 13 -->
<g id="node14" class="node">
<title>13</title>
<path fill="none" stroke="#d87556" stroke-width="2" d="M772.81,-396C772.81,-396 657.81,-396 657.81,-396 651.81,-396 645.81,-390 645.81,-384 645.81,-384 645.81,-372 645.81,-372 645.81,-366 651.81,-360 657.81,-360 657.81,-360 772.81,-360 772.81,-360 778.81,-360 784.81,-366 784.81,-372 784.81,-372 784.81,-384 784.81,-384 784.81,-390 778.81,-396 772.81,-396"/>
<text text-anchor="middle" x="715.31" y="-375.5" font-family="sans" font-size="10.00">extract_ncbi_information</text>
</g>
<!-- 5&#45;&gt;13 -->
<g id="edge31" class="edge">
<title>5&#45;&gt;13</title>
<path fill="none" stroke="grey" stroke-width="2" d="M801.02,-515.97C735.51,-509.5 642.67,-495.64 620.31,-468 610.25,-455.56 612.21,-445.8 620.31,-432 628.07,-418.77 640.47,-408.61 653.78,-400.89"/>
<polygon fill="grey" stroke="grey" stroke-width="2" points="655.46,-403.96 662.62,-396.16 652.16,-397.79 655.46,-403.96"/>
</g>
<!-- 16 -->
<g id="node17" class="node">
<title>16</title>
<path fill="none" stroke="#56b9d8" stroke-width="2" d="M1009.81,-468C1009.81,-468 960.81,-468 960.81,-468 954.81,-468 948.81,-462 948.81,-456 948.81,-456 948.81,-444 948.81,-444 948.81,-438 954.81,-432 960.81,-432 960.81,-432 1009.81,-432 1009.81,-432 1015.81,-432 1021.81,-438 1021.81,-444 1021.81,-444 1021.81,-456 1021.81,-456 1021.81,-462 1015.81,-468 1009.81,-468"/>
<text text-anchor="middle" x="985.31" y="-447.5" font-family="sans" font-size="10.00">seqfu_stats</text>
</g>
<!-- 5&#45;&gt;16 -->
<g id="edge34" class="edge">
<title>5&#45;&gt;16</title>
<path fill="none" stroke="grey" stroke-width="2" d="M896.93,-503.88C912.23,-494.72 931.25,-483.34 947.73,-473.48"/>
<polygon fill="grey" stroke="grey" stroke-width="2" points="949.79,-476.33 956.58,-468.19 946.2,-470.32 949.79,-476.33"/>
</g>
<!-- 17 -->
<g id="node18" class="node">
<title>17</title>
<path fill="none" stroke="#5663d8" stroke-width="2" d="M1082.31,-468C1082.31,-468 1052.31,-468 1052.31,-468 1046.31,-468 1040.31,-462 1040.31,-456 1040.31,-456 1040.31,-444 1040.31,-444 1040.31,-438 1046.31,-432 1052.31,-432 1052.31,-432 1082.31,-432 1082.31,-432 1088.31,-432 1094.31,-438 1094.31,-444 1094.31,-444 1094.31,-456 1094.31,-456 1094.31,-462 1088.31,-468 1082.31,-468"/>
<text text-anchor="middle" x="1067.31" y="-447.5" font-family="sans" font-size="10.00">mlst</text>
</g>
<!-- 5&#45;&gt;17 -->
<g id="edge37" class="edge">
<title>5&#45;&gt;17</title>
<path fill="none" stroke="grey" stroke-width="2" d="M926.65,-504C955.69,-495.08 991.38,-483.44 1030.48,-468.12"/>
<polygon fill="grey" stroke="grey" stroke-width="2" points="1031.94,-471.3 1039.95,-464.36 1029.36,-464.79 1031.94,-471.3"/>
</g>
<!-- 18 -->
<g id="node19" class="node">
<title>18</title>
<path fill="none" stroke="#d8bc56" stroke-width="2" d="M1189.81,-468C1189.81,-468 1124.81,-468 1124.81,-468 1118.81,-468 1112.81,-462 1112.81,-456 1112.81,-456 1112.81,-444 1112.81,-444 1112.81,-438 1118.81,-432 1124.81,-432 1124.81,-432 1189.81,-432 1189.81,-432 1195.81,-432 1201.81,-438 1201.81,-444 1201.81,-444 1201.81,-456 1201.81,-456 1201.81,-462 1195.81,-468 1189.81,-468"/>
<text text-anchor="middle" x="1157.31" y="-447.5" font-family="sans" font-size="10.00">refseq_masher</text>
</g>
<!-- 5&#45;&gt;18 -->
<g id="edge40" class="edge">
<title>5&#45;&gt;18</title>
<path fill="none" stroke="grey" stroke-width="2" d="M935.55,-506.13C992.42,-493.52 1068.84,-476.45 1102.56,-468"/>
<polygon fill="grey" stroke="grey" stroke-width="2" points="1103.8,-471.29 1112.6,-465.39 1102.04,-464.51 1103.8,-471.29"/>
</g>
<!-- 20 -->
<g id="node21" class="node">
<title>20</title>
<path fill="none" stroke="#56d892" stroke-width="2" d="M1301.81,-468C1301.81,-468 1270.81,-468 1270.81,-468 1264.81,-468 1258.81,-462 1258.81,-456 1258.81,-456 1258.81,-444 1258.81,-444 1258.81,-438 1264.81,-432 1270.81,-432 1270.81,-432 1301.81,-432 1301.81,-432 1307.81,-432 1313.81,-438 1313.81,-444 1313.81,-444 1313.81,-456 1313.81,-456 1313.81,-462 1307.81,-468 1301.81,-468"/>
<text text-anchor="middle" x="1286.31" y="-447.5" font-family="sans" font-size="10.00">checkm</text>
</g>
<!-- 5&#45;&gt;20 -->
<g id="edge44" class="edge">
<title>5&#45;&gt;20</title>
<path fill="none" stroke="grey" stroke-width="2" d="M935.43,-505.84C938.77,-505.19 942.07,-504.57 945.31,-504 1062.77,-483.12 1093.91,-489.21 1211.31,-468 1223.5,-465.8 1236.71,-462.96 1248.6,-460.23"/>
<polygon fill="grey" stroke="grey" stroke-width="2" points="1249.7,-463.57 1258.65,-457.88 1248.11,-456.75 1249.7,-463.57"/>
</g>
<!-- 6&#45;&gt;4 -->
<g id="edge26" class="edge">
<title>6&#45;&gt;4</title>
<path fill="none" stroke="grey" stroke-width="2" d="M748.09,-431.88C767.84,-421.56 793.02,-408.4 813.32,-397.8"/>
<polygon fill="grey" stroke="grey" stroke-width="2" points="815.03,-400.86 822.27,-393.12 811.79,-394.65 815.03,-400.86"/>
</g>
<!-- 6&#45;&gt;13 -->
<g id="edge32" class="edge">
<title>6&#45;&gt;13</title>
<path fill="none" stroke="grey" stroke-width="2" d="M715.31,-431.7C715.31,-423.98 715.31,-414.71 715.31,-406.11"/>
<polygon fill="grey" stroke="grey" stroke-width="2" points="718.81,-406.1 715.31,-396.1 711.81,-406.1 718.81,-406.1"/>
</g>
<!-- 7 -->
<g id="node8" class="node">
<title>7</title>
<path fill="none" stroke="#56c9d8" stroke-width="2" d="M918.81,-468C918.81,-468 843.81,-468 843.81,-468 837.81,-468 831.81,-462 831.81,-456 831.81,-456 831.81,-444 831.81,-444 831.81,-438 837.81,-432 843.81,-432 843.81,-432 918.81,-432 918.81,-432 924.81,-432 930.81,-438 930.81,-444 930.81,-444 930.81,-456 930.81,-456 930.81,-462 924.81,-468 918.81,-468"/>
<text text-anchor="middle" x="881.31" y="-447.5" font-family="sans" font-size="10.00">prokka_db_setup</text>
</g>
<!-- 7&#45;&gt;4 -->
<g id="edge22" class="edge">
<title>7&#45;&gt;4</title>
<path fill="none" stroke="grey" stroke-width="2" d="M873.4,-431.7C869.75,-423.73 865.35,-414.1 861.31,-405.26"/>
<polygon fill="grey" stroke="grey" stroke-width="2" points="864.47,-403.74 857.13,-396.1 858.1,-406.65 864.47,-403.74"/>
</g>
<!-- 8 -->
<g id="node9" class="node">
<title>8</title>
<path fill="none" stroke="#d8ac56" stroke-width="2" d="M522.81,-396C522.81,-396 481.81,-396 481.81,-396 475.81,-396 469.81,-390 469.81,-384 469.81,-384 469.81,-372 469.81,-372 469.81,-366 475.81,-360 481.81,-360 481.81,-360 522.81,-360 522.81,-360 528.81,-360 534.81,-366 534.81,-372 534.81,-372 534.81,-384 534.81,-384 534.81,-390 528.81,-396 522.81,-396"/>
<text text-anchor="middle" x="502.31" y="-375.5" font-family="sans" font-size="10.00">gtdb_prep</text>
</g>
<!-- 8&#45;&gt;3 -->
<g id="edge20" class="edge">
<title>8&#45;&gt;3</title>
<path fill="none" stroke="grey" stroke-width="2" d="M534.86,-367.85C578.27,-355.64 655.38,-333.97 704.88,-320.05"/>
<polygon fill="grey" stroke="grey" stroke-width="2" points="706.02,-323.37 714.7,-317.29 704.13,-316.63 706.02,-323.37"/>
</g>
<!-- 12 -->
<g id="node13" class="node">
<title>12</title>
<path fill="none" stroke="#5692d8" stroke-width="2" d="M127.31,-252C127.31,-252 41.31,-252 41.31,-252 35.31,-252 29.31,-246 29.31,-240 29.31,-240 29.31,-228 29.31,-228 29.31,-222 35.31,-216 41.31,-216 41.31,-216 127.31,-216 127.31,-216 133.31,-216 139.31,-222 139.31,-228 139.31,-228 139.31,-240 139.31,-240 139.31,-246 133.31,-252 127.31,-252"/>
<text text-anchor="middle" x="84.31" y="-231.5" font-family="sans" font-size="10.00">fix_gtdb_taxonomy</text>
</g>
<!-- 8&#45;&gt;12 -->
<g id="edge30" class="edge">
<title>8&#45;&gt;12</title>
<path fill="none" stroke="grey" stroke-width="2" d="M469.51,-365.86C399.29,-342 233.57,-285.71 144.09,-255.31"/>
<polygon fill="grey" stroke="grey" stroke-width="2" points="144.95,-251.91 134.36,-252 142.7,-258.53 144.95,-251.91"/>
</g>
<!-- 9 -->
<g id="node10" class="node">
<title>9</title>
<path fill="none" stroke="#59d856" stroke-width="2" d="M532.81,-324C532.81,-324 439.81,-324 439.81,-324 433.81,-324 427.81,-318 427.81,-312 427.81,-312 427.81,-300 427.81,-300 427.81,-294 433.81,-288 439.81,-288 439.81,-288 532.81,-288 532.81,-288 538.81,-288 544.81,-294 544.81,-300 544.81,-300 544.81,-312 544.81,-312 544.81,-318 538.81,-324 532.81,-324"/>
<text text-anchor="middle" x="486.31" y="-303.5" font-family="sans" font-size="10.00">antismash_db_setup</text>
</g>
<!-- 9&#45;&gt;2 -->
<g id="edge18" class="edge">
<title>9&#45;&gt;2</title>
<path fill="none" stroke="grey" stroke-width="2" d="M486.31,-287.7C486.31,-279.98 486.31,-270.71 486.31,-262.11"/>
<polygon fill="grey" stroke="grey" stroke-width="2" points="489.81,-262.1 486.31,-252.1 482.81,-262.1 489.81,-262.1"/>
</g>
<!-- 10 -->
<g id="node11" class="node">
<title>10</title>
<path fill="none" stroke="#9fd856" stroke-width="2" d="M1213.31,-540C1213.31,-540 1095.31,-540 1095.31,-540 1089.31,-540 1083.31,-534 1083.31,-528 1083.31,-528 1083.31,-516 1083.31,-516 1083.31,-510 1089.31,-504 1095.31,-504 1095.31,-504 1213.31,-504 1213.31,-504 1219.31,-504 1225.31,-510 1225.31,-516 1225.31,-516 1225.31,-528 1225.31,-528 1225.31,-534 1219.31,-540 1213.31,-540"/>
<text text-anchor="middle" x="1154.31" y="-519.5" font-family="sans" font-size="10.00">patric_genome_download</text>
</g>
<!-- 10&#45;&gt;4 -->
<g id="edge24" class="edge">
<title>10&#45;&gt;4</title>
<path fill="none" stroke="grey" stroke-width="2" d="M1178.44,-503.82C1201.96,-485.03 1231.47,-454.59 1211.31,-432 1164.25,-379.27 964.06,-412.37 895.31,-396 892.34,-395.29 889.3,-394.45 886.27,-393.53"/>
<polygon fill="grey" stroke="grey" stroke-width="2" points="887.3,-390.18 876.71,-390.35 885.09,-396.82 887.3,-390.18"/>
</g>
<!-- 10&#45;&gt;6 -->
<g id="edge29" class="edge">
<title>10&#45;&gt;6</title>
<path fill="none" stroke="grey" stroke-width="2" d="M1083.26,-505.64C1080.24,-505.07 1077.24,-504.52 1074.31,-504 962.91,-484.23 934.18,-484.88 822.31,-468 810.47,-466.21 797.89,-464.26 785.69,-462.34"/>
<polygon fill="grey" stroke="grey" stroke-width="2" points="785.97,-458.84 775.55,-460.74 784.88,-465.76 785.97,-458.84"/>
</g>
<!-- 10&#45;&gt;16 -->
<g id="edge36" class="edge">
<title>10&#45;&gt;16</title>
<path fill="none" stroke="grey" stroke-width="2" d="M1112.97,-503.88C1088.27,-493.65 1056.85,-480.63 1031.37,-470.08"/>
<polygon fill="grey" stroke="grey" stroke-width="2" points="1032.49,-466.76 1021.91,-466.16 1029.81,-473.22 1032.49,-466.76"/>
</g>
<!-- 10&#45;&gt;17 -->
<g id="edge39" class="edge">
<title>10&#45;&gt;17</title>
<path fill="none" stroke="grey" stroke-width="2" d="M1132.8,-503.7C1121.85,-494.88 1108.36,-484.03 1096.48,-474.47"/>
<polygon fill="grey" stroke="grey" stroke-width="2" points="1098.55,-471.65 1088.57,-468.1 1094.16,-477.1 1098.55,-471.65"/>
</g>
<!-- 10&#45;&gt;18 -->
<g id="edge42" class="edge">
<title>10&#45;&gt;18</title>
<path fill="none" stroke="grey" stroke-width="2" d="M1155.05,-503.7C1155.38,-495.98 1155.78,-486.71 1156.15,-478.11"/>
<polygon fill="grey" stroke="grey" stroke-width="2" points="1159.64,-478.25 1156.57,-468.1 1152.65,-477.95 1159.64,-478.25"/>
</g>
<!-- 10&#45;&gt;20 -->
<g id="edge46" class="edge">
<title>10&#45;&gt;20</title>
<path fill="none" stroke="grey" stroke-width="2" d="M1186.6,-503.88C1205.57,-493.81 1229.63,-481.05 1249.36,-470.59"/>
<polygon fill="grey" stroke="grey" stroke-width="2" points="1251.18,-473.59 1258.37,-465.81 1247.9,-467.41 1251.18,-473.59"/>
</g>
<!-- 11 -->
<g id="node12" class="node">
<title>11</title>
<path fill="none" stroke="#bed856" stroke-width="2" d="M1052.81,-540C1052.81,-540 965.81,-540 965.81,-540 959.81,-540 953.81,-534 953.81,-528 953.81,-528 953.81,-516 953.81,-516 953.81,-510 959.81,-504 965.81,-504 965.81,-504 1052.81,-504 1052.81,-504 1058.81,-504 1064.81,-510 1064.81,-516 1064.81,-516 1064.81,-528 1064.81,-528 1064.81,-534 1058.81,-540 1052.81,-540"/>
<text text-anchor="middle" x="1009.31" y="-519.5" font-family="sans" font-size="10.00">copy_custom_fasta</text>
</g>
<!-- 11&#45;&gt;4 -->
<g id="edge23" class="edge">
<title>11&#45;&gt;4</title>
<path fill="none" stroke="grey" stroke-width="2" d="M953.77,-506.12C899.4,-491.42 824.38,-470.74 822.31,-468 808.35,-449.54 818.48,-423.86 830.11,-404.83"/>
<polygon fill="grey" stroke="grey" stroke-width="2" points="833.11,-406.62 835.65,-396.34 827.25,-402.8 833.11,-406.62"/>
</g>
<!-- 11&#45;&gt;6 -->
<g id="edge28" class="edge">
<title>11&#45;&gt;6</title>
<path fill="none" stroke="grey" stroke-width="2" d="M953.66,-506.34C950.5,-505.54 947.37,-504.75 944.31,-504 928.83,-500.18 846.89,-481.27 785.41,-467.12"/>
<polygon fill="grey" stroke="grey" stroke-width="2" points="785.88,-463.64 775.35,-464.8 784.31,-470.46 785.88,-463.64"/>
</g>
<!-- 11&#45;&gt;16 -->
<g id="edge35" class="edge">
<title>11&#45;&gt;16</title>
<path fill="none" stroke="grey" stroke-width="2" d="M1003.38,-503.7C1000.7,-495.9 997.48,-486.51 994.51,-477.83"/>
<polygon fill="grey" stroke="grey" stroke-width="2" points="997.73,-476.43 991.17,-468.1 991.1,-478.7 997.73,-476.43"/>
</g>
<!-- 11&#45;&gt;17 -->
<g id="edge38" class="edge">
<title>11&#45;&gt;17</title>
<path fill="none" stroke="grey" stroke-width="2" d="M1023.64,-503.7C1030.6,-495.3 1039.08,-485.07 1046.71,-475.86"/>
<polygon fill="grey" stroke="grey" stroke-width="2" points="1049.45,-478.04 1053.14,-468.1 1044.06,-473.57 1049.45,-478.04"/>
</g>
<!-- 11&#45;&gt;18 -->
<g id="edge41" class="edge">
<title>11&#45;&gt;18</title>
<path fill="none" stroke="grey" stroke-width="2" d="M1045.51,-503.88C1065.57,-494.39 1090.68,-482.51 1112.02,-472.42"/>
<polygon fill="grey" stroke="grey" stroke-width="2" points="1113.68,-475.51 1121.22,-468.07 1110.68,-469.18 1113.68,-475.51"/>
</g>
<!-- 11&#45;&gt;20 -->
<g id="edge45" class="edge">
<title>11&#45;&gt;20</title>
<path fill="none" stroke="grey" stroke-width="2" d="M1064.97,-506.4C1068.13,-505.59 1071.26,-504.78 1074.31,-504 1135.26,-488.41 1206.2,-470.78 1248.61,-460.29"/>
<polygon fill="grey" stroke="grey" stroke-width="2" points="1249.63,-463.65 1258.5,-457.85 1247.96,-456.85 1249.63,-463.65"/>
</g>
<!-- 12&#45;&gt;0 -->
<g id="edge11" class="edge">
<title>12&#45;&gt;0</title>
<path fill="none" stroke="grey" stroke-width="2" d="M46.92,-215.8C32.76,-207.2 18.18,-195.32 10.31,-180 -12.95,-134.74 5.62,-99.69 48.31,-72 113.21,-29.9 665.73,-20.99 815.81,-19.34"/>
<polygon fill="grey" stroke="grey" stroke-width="2" points="815.95,-22.84 825.91,-19.23 815.88,-15.84 815.95,-22.84"/>
</g>
<!-- 12&#45;&gt;23 -->
<g id="edge51" class="edge">
<title>12&#45;&gt;23</title>
<path fill="none" stroke="grey" stroke-width="2" d="M84.31,-215.7C84.31,-207.98 84.31,-198.71 84.31,-190.11"/>
<polygon fill="grey" stroke="grey" stroke-width="2" points="87.81,-190.1 84.31,-180.1 80.81,-190.1 87.81,-190.1"/>
</g>
<!-- 13&#45;&gt;0 -->
<g id="edge7" class="edge">
<title>13&#45;&gt;0</title>
<path fill="none" stroke="grey" stroke-width="2" d="M758.62,-359.89C805.1,-338.35 872.31,-296.56 872.31,-235 872.31,-235 872.31,-235 872.31,-161 872.31,-120.86 864.76,-74.9 859.18,-46.4"/>
<polygon fill="grey" stroke="grey" stroke-width="2" points="862.56,-45.5 857.15,-36.39 855.7,-46.88 862.56,-45.5"/>
</g>
<!-- 14&#45;&gt;0 -->
<g id="edge15" class="edge">
<title>14&#45;&gt;0</title>
<path fill="none" stroke="grey" stroke-width="2" d="M651.05,-143.87C692.72,-118.15 771.46,-69.53 817.44,-41.14"/>
<polygon fill="grey" stroke="grey" stroke-width="2" points="819.51,-43.98 826.18,-35.75 815.83,-38.02 819.51,-43.98"/>
</g>
<!-- 15 -->
<g id="node16" class="node">
<title>15</title>
<path fill="none" stroke="#68d856" stroke-width="2" d="M1302.31,-108C1302.31,-108 1174.31,-108 1174.31,-108 1168.31,-108 1162.31,-102 1162.31,-96 1162.31,-96 1162.31,-84 1162.31,-84 1162.31,-78 1168.31,-72 1174.31,-72 1174.31,-72 1302.31,-72 1302.31,-72 1308.31,-72 1314.31,-78 1314.31,-84 1314.31,-84 1314.31,-96 1314.31,-96 1314.31,-102 1308.31,-108 1302.31,-108"/>
<text text-anchor="middle" x="1238.31" y="-87.5" font-family="sans" font-size="10.00">write_dependency_versions</text>
</g>
<!-- 15&#45;&gt;0 -->
<g id="edge14" class="edge">
<title>15&#45;&gt;0</title>
<path fill="none" stroke="grey" stroke-width="2" d="M1162.21,-74.58C1157.51,-73.7 1152.84,-72.84 1148.31,-72 1055.76,-54.95 946.75,-35.54 890.73,-25.61"/>
<polygon fill="grey" stroke="grey" stroke-width="2" points="891.03,-22.11 880.57,-23.81 889.81,-29 891.03,-22.11"/>
</g>
<!-- 16&#45;&gt;0 -->
<g id="edge2" class="edge">
<title>16&#45;&gt;0</title>
<path fill="none" stroke="grey" stroke-width="2" d="M992.39,-431.85C1002.62,-405.49 1020.31,-353.21 1020.31,-307 1020.31,-307 1020.31,-307 1020.31,-161 1020.31,-118.33 1014.48,-102.17 984.31,-72 958.7,-46.39 919.08,-32.7 890.11,-25.69"/>
<polygon fill="grey" stroke="grey" stroke-width="2" points="890.87,-22.27 880.35,-23.48 889.33,-29.1 890.87,-22.27"/>
</g>
<!-- 17&#45;&gt;0 -->
<g id="edge16" class="edge">
<title>17&#45;&gt;0</title>
<path fill="none" stroke="grey" stroke-width="2" d="M1065.53,-431.97C1062.91,-405.34 1058.31,-352.21 1058.31,-307 1058.31,-307 1058.31,-307 1058.31,-161 1058.31,-116.27 1045.4,-100.96 1011.31,-72 976.74,-42.63 925.25,-29.35 890.53,-23.48"/>
<polygon fill="grey" stroke="grey" stroke-width="2" points="890.76,-19.97 880.33,-21.88 889.67,-26.89 890.76,-19.97"/>
</g>
<!-- 18&#45;&gt;0 -->
<g id="edge3" class="edge">
<title>18&#45;&gt;0</title>
<path fill="none" stroke="grey" stroke-width="2" d="M1144.37,-431.66C1126.47,-405.88 1096.31,-355.3 1096.31,-307 1096.31,-307 1096.31,-307 1096.31,-161 1096.31,-114.73 1079.16,-99.98 1042.31,-72 997.37,-37.88 931.49,-25.72 890.56,-21.39"/>
<polygon fill="grey" stroke="grey" stroke-width="2" points="890.76,-17.9 880.47,-20.43 890.1,-24.87 890.76,-17.9"/>
</g>
<!-- 19 -->
<g id="node20" class="node">
<title>19</title>
<path fill="none" stroke="#d6d856" stroke-width="2" d="M1245.31,-324C1245.31,-324 1193.31,-324 1193.31,-324 1187.31,-324 1181.31,-318 1181.31,-312 1181.31,-312 1181.31,-300 1181.31,-300 1181.31,-294 1187.31,-288 1193.31,-288 1193.31,-288 1245.31,-288 1245.31,-288 1251.31,-288 1257.31,-294 1257.31,-300 1257.31,-300 1257.31,-312 1257.31,-312 1257.31,-318 1251.31,-324 1245.31,-324"/>
<text text-anchor="middle" x="1219.31" y="-303.5" font-family="sans" font-size="10.00">checkm_out</text>
</g>
<!-- 19&#45;&gt;0 -->
<g id="edge5" class="edge">
<title>19&#45;&gt;0</title>
<path fill="none" stroke="grey" stroke-width="2" d="M1216.61,-287.7C1208.83,-244.01 1182.16,-128.73 1110.31,-72 1076.68,-45.45 953.7,-29.3 890.84,-22.6"/>
<polygon fill="grey" stroke="grey" stroke-width="2" points="890.87,-19.09 880.57,-21.53 890.15,-26.05 890.87,-19.09"/>
</g>
<!-- 20&#45;&gt;19 -->
<g id="edge43" class="edge">
<title>20&#45;&gt;19</title>
<path fill="none" stroke="grey" stroke-width="2" d="M1278.23,-431.87C1266.66,-407.35 1245.27,-362.03 1231.7,-333.26"/>
<polygon fill="grey" stroke="grey" stroke-width="2" points="1234.85,-331.74 1227.42,-324.19 1228.52,-334.73 1234.85,-331.74"/>
</g>
<!-- 21 -->
<g id="node22" class="node">
<title>21</title>
<path fill="none" stroke="#56d863" stroke-width="2" d="M1321.31,-540C1321.31,-540 1255.31,-540 1255.31,-540 1249.31,-540 1243.31,-534 1243.31,-528 1243.31,-528 1243.31,-516 1243.31,-516 1243.31,-510 1249.31,-504 1255.31,-504 1255.31,-504 1321.31,-504 1321.31,-504 1327.31,-504 1333.31,-510 1333.31,-516 1333.31,-516 1333.31,-528 1333.31,-528 1333.31,-534 1327.31,-540 1321.31,-540"/>
<text text-anchor="middle" x="1288.31" y="-519.5" font-family="sans" font-size="10.00">install_checkm</text>
</g>
<!-- 21&#45;&gt;20 -->
<g id="edge47" class="edge">
<title>21&#45;&gt;20</title>
<path fill="none" stroke="grey" stroke-width="2" d="M1287.81,-503.7C1287.59,-495.98 1287.33,-486.71 1287.08,-478.11"/>
<polygon fill="grey" stroke="grey" stroke-width="2" points="1290.58,-478 1286.8,-468.1 1283.58,-478.2 1290.58,-478"/>
</g>
<!-- 22 -->
<g id="node23" class="node">
<title>22</title>
<path fill="none" stroke="#d85656" stroke-width="2" d="M239.81,-108C239.81,-108 176.81,-108 176.81,-108 170.81,-108 164.81,-102 164.81,-96 164.81,-96 164.81,-84 164.81,-84 164.81,-78 170.81,-72 176.81,-72 176.81,-72 239.81,-72 239.81,-72 245.81,-72 251.81,-78 251.81,-84 251.81,-84 251.81,-96 251.81,-96 251.81,-102 245.81,-108 239.81,-108"/>
<text text-anchor="middle" x="208.31" y="-87.5" font-family="sans" font-size="10.00">query_bigslice</text>
</g>
<!-- 22&#45;&gt;0 -->
<g id="edge4" class="edge">
<title>22&#45;&gt;0</title>
<path fill="none" stroke="grey" stroke-width="2" d="M252.15,-78.73C263.85,-76.25 276.52,-73.8 288.31,-72 485.98,-41.83 725.36,-26.18 816.06,-21"/>
<polygon fill="grey" stroke="grey" stroke-width="2" points="816.33,-24.49 826.12,-20.43 815.94,-17.5 816.33,-24.49"/>
</g>
<!-- 23&#45;&gt;22 -->
<g id="edge48" class="edge">
<title>23&#45;&gt;22</title>
<path fill="none" stroke="grey" stroke-width="2" d="M114.64,-143.88C131,-134.64 151.39,-123.13 168.96,-113.21"/>
<polygon fill="grey" stroke="grey" stroke-width="2" points="170.87,-116.15 177.86,-108.19 167.43,-110.06 170.87,-116.15"/>
</g>
<!-- 29 -->
<g id="node30" class="node">
<title>29</title>
<path fill="none" stroke="#56a2d8" stroke-width="2" d="M99.31,-108C99.31,-108 69.31,-108 69.31,-108 63.31,-108 57.31,-102 57.31,-96 57.31,-96 57.31,-84 57.31,-84 57.31,-78 63.31,-72 69.31,-72 69.31,-72 99.31,-72 99.31,-72 105.31,-72 111.31,-78 111.31,-84 111.31,-84 111.31,-96 111.31,-96 111.31,-102 105.31,-108 99.31,-108"/>
<text text-anchor="middle" x="84.31" y="-87.5" font-family="sans" font-size="10.00">bigslice</text>
</g>
<!-- 23&#45;&gt;29 -->
<g id="edge56" class="edge">
<title>23&#45;&gt;29</title>
<path fill="none" stroke="grey" stroke-width="2" d="M84.31,-143.7C84.31,-135.98 84.31,-126.71 84.31,-118.11"/>
<polygon fill="grey" stroke="grey" stroke-width="2" points="87.81,-118.1 84.31,-108.1 80.81,-118.1 87.81,-118.1"/>
</g>
<!-- 24 -->
<g id="node25" class="node">
<title>24</title>
<path fill="none" stroke="#56d882" stroke-width="2" d="M246.81,-180C246.81,-180 169.81,-180 169.81,-180 163.81,-180 157.81,-174 157.81,-168 157.81,-168 157.81,-156 157.81,-156 157.81,-150 163.81,-144 169.81,-144 169.81,-144 246.81,-144 246.81,-144 252.81,-144 258.81,-150 258.81,-156 258.81,-156 258.81,-168 258.81,-168 258.81,-174 252.81,-180 246.81,-180"/>
<text text-anchor="middle" x="208.31" y="-159.5" font-family="sans" font-size="10.00">fetch_bigslice_db</text>
</g>
<!-- 24&#45;&gt;22 -->
<g id="edge49" class="edge">
<title>24&#45;&gt;22</title>
<path fill="none" stroke="grey" stroke-width="2" d="M208.31,-143.7C208.31,-135.98 208.31,-126.71 208.31,-118.11"/>
<polygon fill="grey" stroke="grey" stroke-width="2" points="211.81,-118.1 208.31,-108.1 204.81,-118.1 211.81,-118.1"/>
</g>
<!-- 25 -->
<g id="node26" class="node">
<title>25</title>
<path fill="none" stroke="#5682d8" stroke-width="2" d="M237.81,-252C237.81,-252 172.81,-252 172.81,-252 166.81,-252 160.81,-246 160.81,-240 160.81,-240 160.81,-228 160.81,-228 160.81,-222 166.81,-216 172.81,-216 172.81,-216 237.81,-216 237.81,-216 243.81,-216 249.81,-222 249.81,-228 249.81,-228 249.81,-240 249.81,-240 249.81,-246 243.81,-252 237.81,-252"/>
<text text-anchor="middle" x="205.31" y="-231.5" font-family="sans" font-size="10.00">install_bigslice</text>
</g>
<!-- 25&#45;&gt;24 -->
<g id="edge52" class="edge">
<title>25&#45;&gt;24</title>
<path fill="none" stroke="grey" stroke-width="2" d="M206.05,-215.7C206.38,-207.98 206.78,-198.71 207.15,-190.11"/>
<polygon fill="grey" stroke="grey" stroke-width="2" points="210.64,-190.25 207.57,-180.1 203.65,-189.95 210.64,-190.25"/>
</g>
<!-- 25&#45;&gt;29 -->
<g id="edge57" class="edge">
<title>25&#45;&gt;29</title>
<path fill="none" stroke="grey" stroke-width="2" d="M160.52,-219.57C156.39,-218.35 152.28,-217.15 148.31,-216 91.55,-199.55 55.99,-227.11 20.31,-180 10.65,-167.25 13.5,-158.48 20.31,-144 26.48,-130.87 37.69,-119.87 49.01,-111.36"/>
<polygon fill="grey" stroke="grey" stroke-width="2" points="51.04,-114.22 57.21,-105.61 47.01,-108.49 51.04,-114.22"/>
</g>
<!-- 26 -->
<g id="node27" class="node">
<title>26</title>
<path fill="none" stroke="#56d8d8" stroke-width="2" d="M505.31,-108C505.31,-108 469.31,-108 469.31,-108 463.31,-108 457.31,-102 457.31,-96 457.31,-96 457.31,-84 457.31,-84 457.31,-78 463.31,-72 469.31,-72 469.31,-72 505.31,-72 505.31,-72 511.31,-72 517.31,-78 517.31,-84 517.31,-84 517.31,-96 517.31,-96 517.31,-102 511.31,-108 505.31,-108"/>
<text text-anchor="middle" x="487.31" y="-87.5" font-family="sans" font-size="10.00">bigscape</text>
</g>
<!-- 26&#45;&gt;0 -->
<g id="edge1" class="edge">
<title>26&#45;&gt;0</title>
<path fill="none" stroke="grey" stroke-width="2" d="M517.57,-83.21C584.17,-70.47 743.28,-40.04 815.95,-26.14"/>
<polygon fill="grey" stroke="grey" stroke-width="2" points="816.86,-29.53 826.03,-24.22 815.55,-22.66 816.86,-29.53"/>
</g>
<!-- 27 -->
<g id="node28" class="node">
<title>27</title>
<path fill="none" stroke="#d8cb56" stroke-width="2" d="M398.81,-180C398.81,-180 327.81,-180 327.81,-180 321.81,-180 315.81,-174 315.81,-168 315.81,-168 315.81,-156 315.81,-156 315.81,-150 321.81,-144 327.81,-144 327.81,-144 398.81,-144 398.81,-144 404.81,-144 410.81,-150 410.81,-156 410.81,-156 410.81,-168 410.81,-168 410.81,-174 404.81,-180 398.81,-180"/>
<text text-anchor="middle" x="363.31" y="-159.5" font-family="sans" font-size="10.00">install_bigscape</text>
</g>
<!-- 27&#45;&gt;26 -->
<g id="edge53" class="edge">
<title>27&#45;&gt;26</title>
<path fill="none" stroke="grey" stroke-width="2" d="M393.64,-143.88C410.13,-134.57 430.69,-122.96 448.35,-112.99"/>
<polygon fill="grey" stroke="grey" stroke-width="2" points="450.3,-115.91 457.29,-107.95 446.86,-109.82 450.3,-115.91"/>
</g>
<!-- 28&#45;&gt;26 -->
<g id="edge54" class="edge">
<title>28&#45;&gt;26</title>
<path fill="none" stroke="grey" stroke-width="2" d="M487.31,-143.7C487.31,-135.98 487.31,-126.71 487.31,-118.11"/>
<polygon fill="grey" stroke="grey" stroke-width="2" points="490.81,-118.1 487.31,-108.1 483.81,-118.1 490.81,-118.1"/>
</g>
<!-- 29&#45;&gt;0 -->
<g id="edge10" class="edge">
<title>29&#45;&gt;0</title>
<path fill="none" stroke="grey" stroke-width="2" d="M111.41,-81.44C124.57,-78.04 140.66,-74.3 155.31,-72 405.75,-32.77 711.47,-22.28 816.12,-19.74"/>
<polygon fill="grey" stroke="grey" stroke-width="2" points="816.26,-23.24 826.18,-19.51 816.1,-16.24 816.26,-23.24"/>
</g>
<!-- 30 -->
<g id="node31" class="node">
<title>30</title>
<path fill="none" stroke="#56d8a9" stroke-width="2" d="M793.81,-180C793.81,-180 712.81,-180 712.81,-180 706.81,-180 700.81,-174 700.81,-168 700.81,-168 700.81,-156 700.81,-156 700.81,-150 706.81,-144 712.81,-144 712.81,-144 793.81,-144 793.81,-144 799.81,-144 805.81,-150 805.81,-156 805.81,-156 805.81,-168 805.81,-168 805.81,-174 799.81,-180 793.81,-180"/>
<text text-anchor="middle" x="753.31" y="-159.5" font-family="sans" font-size="10.00">automlst_wrapper</text>
</g>
<!-- 30&#45;&gt;0 -->
<g id="edge13" class="edge">
<title>30&#45;&gt;0</title>
<path fill="none" stroke="grey" stroke-width="2" d="M765.37,-143.87C782.79,-119.14 815.11,-73.24 835.34,-44.51"/>
<polygon fill="grey" stroke="grey" stroke-width="2" points="838.31,-46.38 841.2,-36.19 832.58,-42.35 838.31,-46.38"/>
</g>
<!-- 31&#45;&gt;30 -->
<g id="edge59" class="edge">
<title>31&#45;&gt;30</title>
<path fill="none" stroke="grey" stroke-width="2" d="M751.8,-215.7C752.02,-207.98 752.29,-198.71 752.53,-190.11"/>
<polygon fill="grey" stroke="grey" stroke-width="2" points="756.03,-190.2 752.82,-180.1 749.03,-190 756.03,-190.2"/>
</g>
<!-- 32 -->
<g id="node33" class="node">
<title>32</title>
<path fill="none" stroke="#56d873" stroke-width="2" d="M666.31,-252C666.31,-252 550.31,-252 550.31,-252 544.31,-252 538.31,-246 538.31,-240 538.31,-240 538.31,-228 538.31,-228 538.31,-222 544.31,-216 550.31,-216 550.31,-216 666.31,-216 666.31,-216 672.31,-216 678.31,-222 678.31,-228 678.31,-228 678.31,-240 678.31,-240 678.31,-246 672.31,-252 666.31,-252"/>
<text text-anchor="middle" x="608.31" y="-231.5" font-family="sans" font-size="10.00">install_automlst_wrapper</text>
</g>
<!-- 32&#45;&gt;30 -->
<g id="edge58" class="edge">
<title>32&#45;&gt;30</title>
<path fill="none" stroke="grey" stroke-width="2" d="M643.78,-215.88C663.42,-206.39 688.03,-194.51 708.94,-184.42"/>
<polygon fill="grey" stroke="grey" stroke-width="2" points="710.47,-187.57 717.95,-180.07 707.42,-181.26 710.47,-187.57"/>
</g>
<!-- 33&#45;&gt;0 -->
<g id="edge8" class="edge">
<title>33&#45;&gt;0</title>
<path fill="none" stroke="grey" stroke-width="2" d="M909.02,-71.7C899.88,-63.05 888.67,-52.45 878.71,-43.03"/>
<polygon fill="grey" stroke="grey" stroke-width="2" points="881.06,-40.43 871.39,-36.1 876.25,-45.52 881.06,-40.43"/>
</g>
<!-- 34&#45;&gt;0 -->
<g id="edge9" class="edge">
<title>34&#45;&gt;0</title>
<path fill="none" stroke="grey" stroke-width="2" d="M970.83,-287.79C982.9,-246.7 1007.18,-141.18 963.31,-72 947.34,-46.83 915.72,-33.32 890.47,-26.25"/>
<polygon fill="grey" stroke="grey" stroke-width="2" points="891,-22.78 880.45,-23.69 889.27,-29.56 891,-22.78"/>
</g>
<!-- 35 -->
<g id="node36" class="node">
<title>35</title>
<path fill="none" stroke="#56a9d8" stroke-width="2" d="M980.31,-396C980.31,-396 916.31,-396 916.31,-396 910.31,-396 904.31,-390 904.31,-384 904.31,-384 904.31,-372 904.31,-372 904.31,-366 910.31,-360 916.31,-360 916.31,-360 980.31,-360 980.31,-360 986.31,-360 992.31,-366 992.31,-372 992.31,-372 992.31,-384 992.31,-384 992.31,-390 986.31,-396 980.31,-396"/>
<text text-anchor="middle" x="948.31" y="-375.5" font-family="sans" font-size="10.00">install_eggnog</text>
</g>
<!-- 35&#45;&gt;34 -->
<g id="edge62" class="edge">
<title>35&#45;&gt;34</title>
<path fill="none" stroke="grey" stroke-width="2" d="M952.51,-359.7C954.4,-351.9 956.68,-342.51 958.79,-333.83"/>
<polygon fill="grey" stroke="grey" stroke-width="2" points="962.19,-334.65 961.15,-324.1 955.39,-333 962.19,-334.65"/>
</g>
</g>
</svg>
