<?xml version="1.0" encoding="UTF-8" standalone="no"?>
<!DOCTYPE svg PUBLIC "-//W3C//DTD SVG 1.1//EN"
 "http://www.w3.org/Graphics/SVG/1.1/DTD/svg11.dtd">
<!-- Generated by graphviz version 2.49.3 (20211104.1129)
 -->
<!-- Title: snakemake_dag Pages: 1 -->
<svg width="1983pt" height="692pt"
 viewBox="0.00 0.00 1983.00 692.00" xmlns="http://www.w3.org/2000/svg" xmlns:xlink="http://www.w3.org/1999/xlink">
<g id="graph0" class="graph" transform="scale(1 1) rotate(0) translate(4 688)">
<title>snakemake_dag</title>
<polygon fill="white" stroke="transparent" points="-4,4 -4,-688 1979,-688 1979,4 -4,4"/>
<!-- 0 -->
<g id="node1" class="node">
<title>0</title>
<path fill="none" stroke="#b6d856" stroke-width="2" d="M839,-36C839,-36 809,-36 809,-36 803,-36 797,-30 797,-24 797,-24 797,-12 797,-12 797,-6 803,0 809,0 809,0 839,0 839,0 845,0 851,-6 851,-12 851,-12 851,-24 851,-24 851,-30 845,-36 839,-36"/>
<text text-anchor="middle" x="824" y="-15.5" font-family="sans" font-size="10.00">all</text>
</g>
<!-- 1 -->
<g id="node2" class="node">
<title>1</title>
<path fill="none" stroke="#d88556" stroke-width="2" d="M1297.5,-396C1297.5,-396 1210.5,-396 1210.5,-396 1204.5,-396 1198.5,-390 1198.5,-384 1198.5,-384 1198.5,-372 1198.5,-372 1198.5,-366 1204.5,-360 1210.5,-360 1210.5,-360 1297.5,-360 1297.5,-360 1303.5,-360 1309.5,-366 1309.5,-372 1309.5,-372 1309.5,-384 1309.5,-384 1309.5,-390 1303.5,-396 1297.5,-396"/>
<text text-anchor="middle" x="1254" y="-375.5" font-family="sans" font-size="10.00">fix_gtdb_taxonomy</text>
</g>
<!-- 1&#45;&gt;0 -->
<g id="edge1" class="edge">
<title>1&#45;&gt;0</title>
<path fill="none" stroke="grey" stroke-width="2" d="M1309.74,-377.34C1404.53,-374.68 1587,-354.1 1587,-235 1587,-235 1587,-235 1587,-161 1587,-80.4 1505.99,-95.83 1429,-72 1322.05,-38.89 976.19,-24.24 861.41,-20.21"/>
<polygon fill="grey" stroke="grey" stroke-width="2" points="861.46,-16.71 851.35,-19.86 861.22,-23.7 861.46,-16.71"/>
</g>
<!-- 21 -->
<g id="node22" class="node">
<title>21</title>
<path fill="none" stroke="#d89556" stroke-width="2" d="M1305.5,-324C1305.5,-324 1202.5,-324 1202.5,-324 1196.5,-324 1190.5,-318 1190.5,-312 1190.5,-312 1190.5,-300 1190.5,-300 1190.5,-294 1196.5,-288 1202.5,-288 1202.5,-288 1305.5,-288 1305.5,-288 1311.5,-288 1317.5,-294 1317.5,-300 1317.5,-300 1317.5,-312 1317.5,-312 1317.5,-318 1311.5,-324 1305.5,-324"/>
<text text-anchor="middle" x="1254" y="-303.5" font-family="sans" font-size="10.00">downstream_bgc_prep</text>
</g>
<!-- 1&#45;&gt;21 -->
<g id="edge61" class="edge">
<title>1&#45;&gt;21</title>
<path fill="none" stroke="grey" stroke-width="2" d="M1254,-359.7C1254,-351.98 1254,-342.71 1254,-334.11"/>
<polygon fill="grey" stroke="grey" stroke-width="2" points="1257.5,-334.1 1254,-324.1 1250.5,-334.1 1257.5,-334.1"/>
</g>
<!-- 2 -->
<g id="node3" class="node">
<title>2</title>
<path fill="none" stroke="#d8d356" stroke-width="2" d="M1104.5,-540C1104.5,-540 1063.5,-540 1063.5,-540 1057.5,-540 1051.5,-534 1051.5,-528 1051.5,-528 1051.5,-516 1051.5,-516 1051.5,-510 1057.5,-504 1063.5,-504 1063.5,-504 1104.5,-504 1104.5,-504 1110.5,-504 1116.5,-510 1116.5,-516 1116.5,-516 1116.5,-528 1116.5,-528 1116.5,-534 1110.5,-540 1104.5,-540"/>
<text text-anchor="middle" x="1084" y="-519.5" font-family="sans" font-size="10.00">gtdb_prep</text>
</g>
<!-- 2&#45;&gt;1 -->
<g id="edge27" class="edge">
<title>2&#45;&gt;1</title>
<path fill="none" stroke="grey" stroke-width="2" d="M1104.51,-503.87C1134.76,-478.6 1191.44,-431.25 1225.65,-402.68"/>
<polygon fill="grey" stroke="grey" stroke-width="2" points="1227.99,-405.29 1233.42,-396.19 1223.5,-399.91 1227.99,-405.29"/>
</g>
<!-- 16 -->
<g id="node17" class="node">
<title>16</title>
<path fill="none" stroke="#56d87b" stroke-width="2" d="M939.5,-468C939.5,-468 890.5,-468 890.5,-468 884.5,-468 878.5,-462 878.5,-456 878.5,-456 878.5,-444 878.5,-444 878.5,-438 884.5,-432 890.5,-432 890.5,-432 939.5,-432 939.5,-432 945.5,-432 951.5,-438 951.5,-444 951.5,-444 951.5,-456 951.5,-456 951.5,-462 945.5,-468 939.5,-468"/>
<text text-anchor="middle" x="915" y="-447.5" font-family="sans" font-size="10.00">format_gbk</text>
</g>
<!-- 2&#45;&gt;16 -->
<g id="edge50" class="edge">
<title>2&#45;&gt;16</title>
<path fill="none" stroke="grey" stroke-width="2" d="M1051.42,-507.5C1025.73,-496.87 989.61,-481.9 960.99,-470.05"/>
<polygon fill="grey" stroke="grey" stroke-width="2" points="962.17,-466.75 951.59,-466.16 959.49,-473.22 962.17,-466.75"/>
</g>
<!-- 3 -->
<g id="node4" class="node">
<title>3</title>
<path fill="none" stroke="#56d8d8" stroke-width="2" d="M1963,-108C1963,-108 1835,-108 1835,-108 1829,-108 1823,-102 1823,-96 1823,-96 1823,-84 1823,-84 1823,-78 1829,-72 1835,-72 1835,-72 1963,-72 1963,-72 1969,-72 1975,-78 1975,-84 1975,-84 1975,-96 1975,-96 1975,-102 1969,-108 1963,-108"/>
<text text-anchor="middle" x="1899" y="-87.5" font-family="sans" font-size="10.00">write_dependency_versions</text>
</g>
<!-- 3&#45;&gt;0 -->
<g id="edge19" class="edge">
<title>3&#45;&gt;0</title>
<path fill="none" stroke="grey" stroke-width="2" d="M1822.51,-73.84C1817.95,-73.15 1813.42,-72.53 1809,-72 1441.47,-27.6 992.28,-20.39 861.42,-19.23"/>
<polygon fill="grey" stroke="grey" stroke-width="2" points="861.17,-15.72 851.14,-19.14 861.11,-22.72 861.17,-15.72"/>
</g>
<!-- 4 -->
<g id="node5" class="node">
<title>4</title>
<path fill="none" stroke="#56c1d8" stroke-width="2" d="M383.5,-612C383.5,-612 334.5,-612 334.5,-612 328.5,-612 322.5,-606 322.5,-600 322.5,-600 322.5,-588 322.5,-588 322.5,-582 328.5,-576 334.5,-576 334.5,-576 383.5,-576 383.5,-576 389.5,-576 395.5,-582 395.5,-588 395.5,-588 395.5,-600 395.5,-600 395.5,-606 389.5,-612 383.5,-612"/>
<text text-anchor="middle" x="359" y="-591.5" font-family="sans" font-size="10.00">seqfu_stats</text>
</g>
<!-- 4&#45;&gt;0 -->
<g id="edge21" class="edge">
<title>4&#45;&gt;0</title>
<path fill="none" stroke="grey" stroke-width="2" d="M322.29,-578.74C245.72,-548.45 76,-478.24 76,-451 76,-451 76,-451 76,-161 76,-118.81 75.28,-97.36 109,-72 163.41,-31.07 647.11,-21.39 786.54,-19.44"/>
<polygon fill="grey" stroke="grey" stroke-width="2" points="786.77,-22.94 796.72,-19.3 786.68,-15.94 786.77,-22.94"/>
</g>
<!-- 5 -->
<g id="node6" class="node">
<title>5</title>
<path fill="none" stroke="#56b1d8" stroke-width="2" d="M791,-684C791,-684 681,-684 681,-684 675,-684 669,-678 669,-672 669,-672 669,-660 669,-660 669,-654 675,-648 681,-648 681,-648 791,-648 791,-648 797,-648 803,-654 803,-660 803,-660 803,-672 803,-672 803,-678 797,-684 791,-684"/>
<text text-anchor="middle" x="736" y="-663.5" font-family="sans" font-size="10.00">ncbi_genome_download</text>
</g>
<!-- 5&#45;&gt;4 -->
<g id="edge30" class="edge">
<title>5&#45;&gt;4</title>
<path fill="none" stroke="grey" stroke-width="2" d="M668.96,-655.94C591.36,-645.18 467.24,-627.07 405.67,-612.1"/>
<polygon fill="grey" stroke="grey" stroke-width="2" points="406.19,-608.62 395.64,-609.53 404.46,-615.4 406.19,-608.62"/>
</g>
<!-- 8 -->
<g id="node9" class="node">
<title>8</title>
<path fill="none" stroke="#d8ac56" stroke-width="2" d="M751,-612C751,-612 721,-612 721,-612 715,-612 709,-606 709,-600 709,-600 709,-588 709,-588 709,-582 715,-576 721,-576 721,-576 751,-576 751,-576 757,-576 763,-582 763,-588 763,-588 763,-600 763,-600 763,-606 757,-612 751,-612"/>
<text text-anchor="middle" x="736" y="-591.5" font-family="sans" font-size="10.00">mlst</text>
</g>
<!-- 5&#45;&gt;8 -->
<g id="edge33" class="edge">
<title>5&#45;&gt;8</title>
<path fill="none" stroke="grey" stroke-width="2" d="M736,-647.7C736,-639.98 736,-630.71 736,-622.11"/>
<polygon fill="grey" stroke="grey" stroke-width="2" points="739.5,-622.1 736,-612.1 732.5,-622.1 739.5,-622.1"/>
</g>
<!-- 9 -->
<g id="node10" class="node">
<title>9</title>
<path fill="none" stroke="#56d85b" stroke-width="2" d="M858.5,-612C858.5,-612 793.5,-612 793.5,-612 787.5,-612 781.5,-606 781.5,-600 781.5,-600 781.5,-588 781.5,-588 781.5,-582 787.5,-576 793.5,-576 793.5,-576 858.5,-576 858.5,-576 864.5,-576 870.5,-582 870.5,-588 870.5,-588 870.5,-600 870.5,-600 870.5,-606 864.5,-612 858.5,-612"/>
<text text-anchor="middle" x="826" y="-591.5" font-family="sans" font-size="10.00">refseq_masher</text>
</g>
<!-- 5&#45;&gt;9 -->
<g id="edge36" class="edge">
<title>5&#45;&gt;9</title>
<path fill="none" stroke="grey" stroke-width="2" d="M758.25,-647.7C769.58,-638.88 783.53,-628.03 795.82,-618.47"/>
<polygon fill="grey" stroke="grey" stroke-width="2" points="798.26,-621.01 804.01,-612.1 793.97,-615.48 798.26,-621.01"/>
</g>
<!-- 10 -->
<g id="node11" class="node">
<title>10</title>
<path fill="none" stroke="#56d88a" stroke-width="2" d="M220,-612C220,-612 190,-612 190,-612 184,-612 178,-606 178,-600 178,-600 178,-588 178,-588 178,-582 184,-576 190,-576 190,-576 220,-576 220,-576 226,-576 232,-582 232,-588 232,-588 232,-600 232,-600 232,-606 226,-612 220,-612"/>
<text text-anchor="middle" x="205" y="-591.5" font-family="sans" font-size="10.00">mash</text>
</g>
<!-- 5&#45;&gt;10 -->
<g id="edge39" class="edge">
<title>5&#45;&gt;10</title>
<path fill="none" stroke="grey" stroke-width="2" d="M668.65,-656.4C646.19,-653.61 621.03,-650.58 598,-648 442.77,-630.61 396.55,-653.68 242,-611.71"/>
<polygon fill="grey" stroke="grey" stroke-width="2" points="242.72,-608.28 232.15,-608.99 240.85,-615.03 242.72,-608.28"/>
</g>
<!-- 11 -->
<g id="node12" class="node">
<title>11</title>
<path fill="none" stroke="#d8a456" stroke-width="2" d="M292,-612C292,-612 262,-612 262,-612 256,-612 250,-606 250,-600 250,-600 250,-588 250,-588 250,-582 256,-576 262,-576 262,-576 292,-576 292,-576 298,-576 304,-582 304,-588 304,-588 304,-600 304,-600 304,-606 298,-612 292,-612"/>
<text text-anchor="middle" x="277" y="-591.5" font-family="sans" font-size="10.00">fastani</text>
</g>
<!-- 5&#45;&gt;11 -->
<g id="edge42" class="edge">
<title>5&#45;&gt;11</title>
<path fill="none" stroke="grey" stroke-width="2" d="M668.86,-656.72C562.17,-643.55 361.73,-618.74 313.99,-610.85"/>
<polygon fill="grey" stroke="grey" stroke-width="2" points="314.65,-607.41 304.17,-608.92 313.3,-614.28 314.65,-607.41"/>
</g>
<!-- 13 -->
<g id="node14" class="node">
<title>13</title>
<path fill="none" stroke="#56d86b" stroke-width="2" d="M970.5,-612C970.5,-612 939.5,-612 939.5,-612 933.5,-612 927.5,-606 927.5,-600 927.5,-600 927.5,-588 927.5,-588 927.5,-582 933.5,-576 939.5,-576 939.5,-576 970.5,-576 970.5,-576 976.5,-576 982.5,-582 982.5,-588 982.5,-588 982.5,-600 982.5,-600 982.5,-606 976.5,-612 970.5,-612"/>
<text text-anchor="middle" x="955" y="-591.5" font-family="sans" font-size="10.00">checkm</text>
</g>
<!-- 5&#45;&gt;13 -->
<g id="edge47" class="edge">
<title>5&#45;&gt;13</title>
<path fill="none" stroke="grey" stroke-width="2" d="M798.3,-647.89C832.43,-638.13 875.32,-625.23 913,-612 914.44,-611.49 915.9,-610.97 917.37,-610.43"/>
<polygon fill="grey" stroke="grey" stroke-width="2" points="919.03,-613.54 927.12,-606.71 916.53,-607 919.03,-613.54"/>
</g>
<!-- 17 -->
<g id="node18" class="node">
<title>17</title>
<path fill="none" stroke="#bed856" stroke-width="2" d="M533,-540C533,-540 503,-540 503,-540 497,-540 491,-534 491,-528 491,-528 491,-516 491,-516 491,-510 497,-504 503,-504 503,-504 533,-504 533,-504 539,-504 545,-510 545,-516 545,-516 545,-528 545,-528 545,-534 539,-540 533,-540"/>
<text text-anchor="middle" x="518" y="-519.5" font-family="sans" font-size="10.00">prokka</text>
</g>
<!-- 5&#45;&gt;17 -->
<g id="edge53" class="edge">
<title>5&#45;&gt;17</title>
<path fill="none" stroke="grey" stroke-width="2" d="M803,-649.23C852.93,-634.37 907.87,-609.41 879,-576 837.4,-527.85 638.75,-522.63 555.18,-522.62"/>
<polygon fill="grey" stroke="grey" stroke-width="2" points="555.1,-519.12 545.11,-522.64 555.12,-526.12 555.1,-519.12"/>
</g>
<!-- 18 -->
<g id="node19" class="node">
<title>18</title>
<path fill="none" stroke="#56d882" stroke-width="2" d="M522.5,-612C522.5,-612 425.5,-612 425.5,-612 419.5,-612 413.5,-606 413.5,-600 413.5,-600 413.5,-588 413.5,-588 413.5,-582 419.5,-576 425.5,-576 425.5,-576 522.5,-576 522.5,-576 528.5,-576 534.5,-582 534.5,-588 534.5,-588 534.5,-600 534.5,-600 534.5,-606 528.5,-612 522.5,-612"/>
<text text-anchor="middle" x="474" y="-591.5" font-family="sans" font-size="10.00">extract_meta_prokka</text>
</g>
<!-- 5&#45;&gt;18 -->
<g id="edge58" class="edge">
<title>5&#45;&gt;18</title>
<path fill="none" stroke="grey" stroke-width="2" d="M672.24,-647.97C633.7,-637.67 584.51,-624.53 544.77,-613.91"/>
<polygon fill="grey" stroke="grey" stroke-width="2" points="545.45,-610.47 534.88,-611.27 543.64,-617.23 545.45,-610.47"/>
</g>
<!-- 52 -->
<g id="node53" class="node">
<title>52</title>
<path fill="none" stroke="#c6d856" stroke-width="2" d="M1856.5,-540C1856.5,-540 1741.5,-540 1741.5,-540 1735.5,-540 1729.5,-534 1729.5,-528 1729.5,-528 1729.5,-516 1729.5,-516 1729.5,-510 1735.5,-504 1741.5,-504 1741.5,-504 1856.5,-504 1856.5,-504 1862.5,-504 1868.5,-510 1868.5,-516 1868.5,-516 1868.5,-528 1868.5,-528 1868.5,-534 1862.5,-540 1856.5,-540"/>
<text text-anchor="middle" x="1799" y="-519.5" font-family="sans" font-size="10.00">extract_ncbi_information</text>
</g>
<!-- 5&#45;&gt;52 -->
<g id="edge100" class="edge">
<title>5&#45;&gt;52</title>
<path fill="none" stroke="grey" stroke-width="2" d="M803.01,-658.14C961.89,-641.52 1373.7,-596.25 1715,-540 1716.47,-539.76 1717.95,-539.51 1719.44,-539.25"/>
<polygon fill="grey" stroke="grey" stroke-width="2" points="1720.16,-542.68 1729.4,-537.49 1718.94,-535.79 1720.16,-542.68"/>
</g>
<!-- 6 -->
<g id="node7" class="node">
<title>6</title>
<path fill="none" stroke="#d87556" stroke-width="2" d="M433,-684C433,-684 315,-684 315,-684 309,-684 303,-678 303,-672 303,-672 303,-660 303,-660 303,-654 309,-648 315,-648 315,-648 433,-648 433,-648 439,-648 445,-654 445,-660 445,-660 445,-672 445,-672 445,-678 439,-684 433,-684"/>
<text text-anchor="middle" x="374" y="-663.5" font-family="sans" font-size="10.00">patric_genome_download</text>
</g>
<!-- 6&#45;&gt;4 -->
<g id="edge28" class="edge">
<title>6&#45;&gt;4</title>
<path fill="none" stroke="grey" stroke-width="2" d="M370.29,-647.7C368.64,-639.98 366.65,-630.71 364.81,-622.11"/>
<polygon fill="grey" stroke="grey" stroke-width="2" points="368.18,-621.15 362.67,-612.1 361.34,-622.62 368.18,-621.15"/>
</g>
<!-- 6&#45;&gt;8 -->
<g id="edge31" class="edge">
<title>6&#45;&gt;8</title>
<path fill="none" stroke="grey" stroke-width="2" d="M445.04,-652.11C453.12,-650.7 461.23,-649.3 469,-648 568.38,-631.37 598.84,-641.82 699.2,-611.76"/>
<polygon fill="grey" stroke="grey" stroke-width="2" points="700.27,-615.1 708.81,-608.83 698.22,-608.4 700.27,-615.1"/>
</g>
<!-- 6&#45;&gt;9 -->
<g id="edge34" class="edge">
<title>6&#45;&gt;9</title>
<path fill="none" stroke="grey" stroke-width="2" d="M445.25,-651.78C453.25,-650.44 461.29,-649.15 469,-648 599.99,-628.51 637.66,-639.92 771.57,-611.84"/>
<polygon fill="grey" stroke="grey" stroke-width="2" points="772.33,-615.26 781.38,-609.75 770.87,-608.41 772.33,-615.26"/>
</g>
<!-- 6&#45;&gt;10 -->
<g id="edge37" class="edge">
<title>6&#45;&gt;10</title>
<path fill="none" stroke="grey" stroke-width="2" d="M329.08,-647.9C305.29,-638.66 275.45,-626.78 241.3,-612.02"/>
<polygon fill="grey" stroke="grey" stroke-width="2" points="242.61,-608.77 232.04,-607.99 239.82,-615.19 242.61,-608.77"/>
</g>
<!-- 6&#45;&gt;11 -->
<g id="edge40" class="edge">
<title>6&#45;&gt;11</title>
<path fill="none" stroke="grey" stroke-width="2" d="M350.02,-647.7C337.69,-638.8 322.48,-627.82 309.15,-618.2"/>
<polygon fill="grey" stroke="grey" stroke-width="2" points="310.86,-615.12 300.7,-612.1 306.76,-620.79 310.86,-615.12"/>
</g>
<!-- 6&#45;&gt;13 -->
<g id="edge45" class="edge">
<title>6&#45;&gt;13</title>
<path fill="none" stroke="grey" stroke-width="2" d="M445.22,-651.54C453.23,-650.24 461.28,-649.03 469,-648 650.32,-623.86 698.24,-640.03 879,-612 891.63,-610.04 905.3,-607.21 917.51,-604.42"/>
<polygon fill="grey" stroke="grey" stroke-width="2" points="918.44,-607.8 927.37,-602.11 916.84,-600.98 918.44,-607.8"/>
</g>
<!-- 6&#45;&gt;17 -->
<g id="edge54" class="edge">
<title>6&#45;&gt;17</title>
<path fill="none" stroke="grey" stroke-width="2" d="M302.92,-658.2C228.07,-648.31 126.51,-625.43 169,-576 208.91,-529.58 399.07,-523.33 480.67,-522.83"/>
<polygon fill="grey" stroke="grey" stroke-width="2" points="481,-526.33 490.98,-522.79 480.97,-519.33 481,-526.33"/>
</g>
<!-- 6&#45;&gt;18 -->
<g id="edge56" class="edge">
<title>6&#45;&gt;18</title>
<path fill="none" stroke="grey" stroke-width="2" d="M398.46,-647.88C411.3,-638.89 427.2,-627.76 441.09,-618.03"/>
<polygon fill="grey" stroke="grey" stroke-width="2" points="443.26,-620.79 449.44,-612.19 439.24,-615.06 443.26,-620.79"/>
</g>
<!-- 7 -->
<g id="node8" class="node">
<title>7</title>
<path fill="none" stroke="#59d856" stroke-width="2" d="M577.5,-684C577.5,-684 490.5,-684 490.5,-684 484.5,-684 478.5,-678 478.5,-672 478.5,-672 478.5,-660 478.5,-660 478.5,-654 484.5,-648 490.5,-648 490.5,-648 577.5,-648 577.5,-648 583.5,-648 589.5,-654 589.5,-660 589.5,-660 589.5,-672 589.5,-672 589.5,-678 583.5,-684 577.5,-684"/>
<text text-anchor="middle" x="534" y="-663.5" font-family="sans" font-size="10.00">copy_custom_fasta</text>
</g>
<!-- 7&#45;&gt;4 -->
<g id="edge29" class="edge">
<title>7&#45;&gt;4</title>
<path fill="none" stroke="grey" stroke-width="2" d="M491.19,-647.88C465.15,-637.46 431.88,-624.15 405.23,-613.49"/>
<polygon fill="grey" stroke="grey" stroke-width="2" points="406.33,-610.16 395.74,-609.7 403.73,-616.66 406.33,-610.16"/>
</g>
<!-- 7&#45;&gt;8 -->
<g id="edge32" class="edge">
<title>7&#45;&gt;8</title>
<path fill="none" stroke="grey" stroke-width="2" d="M589.6,-649.25C619.86,-640.22 658.01,-628.1 699.24,-612.08"/>
<polygon fill="grey" stroke="grey" stroke-width="2" points="700.62,-615.29 708.65,-608.37 698.06,-608.78 700.62,-615.29"/>
</g>
<!-- 7&#45;&gt;9 -->
<g id="edge35" class="edge">
<title>7&#45;&gt;9</title>
<path fill="none" stroke="grey" stroke-width="2" d="M589.63,-654.02C635.81,-644.59 703.36,-630.06 771.28,-612.08"/>
<polygon fill="grey" stroke="grey" stroke-width="2" points="772.54,-615.36 781.3,-609.4 770.73,-608.6 772.54,-615.36"/>
</g>
<!-- 7&#45;&gt;10 -->
<g id="edge38" class="edge">
<title>7&#45;&gt;10</title>
<path fill="none" stroke="grey" stroke-width="2" d="M478.11,-652.81C470.03,-651.14 461.81,-649.49 454,-648 362.82,-630.61 334.47,-640.09 241.97,-611.84"/>
<polygon fill="grey" stroke="grey" stroke-width="2" points="242.79,-608.43 232.21,-608.79 240.71,-615.11 242.79,-608.43"/>
</g>
<!-- 7&#45;&gt;11 -->
<g id="edge41" class="edge">
<title>7&#45;&gt;11</title>
<path fill="none" stroke="grey" stroke-width="2" d="M478.43,-653.04C427.58,-641.88 355.19,-625.35 313.84,-611.86"/>
<polygon fill="grey" stroke="grey" stroke-width="2" points="314.87,-608.51 304.27,-608.59 312.6,-615.14 314.87,-608.51"/>
</g>
<!-- 7&#45;&gt;13 -->
<g id="edge46" class="edge">
<title>7&#45;&gt;13</title>
<path fill="none" stroke="grey" stroke-width="2" d="M589.77,-657.62C658.14,-648.29 777.47,-631.13 879,-612 891.56,-609.63 905.21,-606.7 917.43,-603.93"/>
<polygon fill="grey" stroke="grey" stroke-width="2" points="918.33,-607.32 927.3,-601.67 916.77,-600.49 918.33,-607.32"/>
</g>
<!-- 7&#45;&gt;17 -->
<g id="edge52" class="edge">
<title>7&#45;&gt;17</title>
<path fill="none" stroke="grey" stroke-width="2" d="M538.97,-647.74C543.43,-629.67 548.5,-600.55 543,-576 540.99,-567.01 537.27,-557.75 533.3,-549.53"/>
<polygon fill="grey" stroke="grey" stroke-width="2" points="536.32,-547.73 528.63,-540.44 530.09,-550.94 536.32,-547.73"/>
</g>
<!-- 7&#45;&gt;18 -->
<g id="edge57" class="edge">
<title>7&#45;&gt;18</title>
<path fill="none" stroke="grey" stroke-width="2" d="M519.17,-647.7C511.98,-639.3 503.2,-629.07 495.31,-619.86"/>
<polygon fill="grey" stroke="grey" stroke-width="2" points="497.83,-617.42 488.66,-612.1 492.51,-621.97 497.83,-617.42"/>
</g>
<!-- 8&#45;&gt;0 -->
<g id="edge4" class="edge">
<title>8&#45;&gt;0</title>
<path fill="none" stroke="grey" stroke-width="2" d="M763.15,-579.01C766.08,-577.85 769.07,-576.82 772,-576 923.93,-533.72 968.82,-561.83 1125,-540 1348.54,-508.75 1625,-676.72 1625,-451 1625,-451 1625,-451 1625,-161 1625,-96.02 1569.68,-95.25 1509,-72 1389.13,-26.08 986.64,-19.91 861.47,-19.11"/>
<polygon fill="grey" stroke="grey" stroke-width="2" points="861.27,-15.61 851.25,-19.05 861.23,-22.61 861.27,-15.61"/>
</g>
<!-- 9&#45;&gt;0 -->
<g id="edge10" class="edge">
<title>9&#45;&gt;0</title>
<path fill="none" stroke="grey" stroke-width="2" d="M870.74,-583.5C885.7,-580.65 902.51,-577.81 918,-576 997.67,-566.69 1576.56,-590.35 1639,-540 1670.89,-514.28 1663,-491.97 1663,-451 1663,-451 1663,-451 1663,-161 1663,-120.03 1670.7,-97.96 1639,-72 1578.27,-22.27 1012.82,-18.92 861.24,-18.92"/>
<polygon fill="grey" stroke="grey" stroke-width="2" points="861.05,-15.42 851.05,-18.92 861.05,-22.42 861.05,-15.42"/>
</g>
<!-- 10&#45;&gt;0 -->
<g id="edge12" class="edge">
<title>10&#45;&gt;0</title>
<path fill="none" stroke="grey" stroke-width="2" d="M177.81,-589.83C144.17,-584.66 86.71,-571.6 49,-540 14.39,-511 0,-496.15 0,-451 0,-451 0,-451 0,-161 0,-117.26 5.87,-96.65 42,-72 103.96,-29.72 639.25,-20.96 786.6,-19.34"/>
<polygon fill="grey" stroke="grey" stroke-width="2" points="786.95,-22.83 796.92,-19.23 786.88,-15.83 786.95,-22.83"/>
</g>
<!-- 11&#45;&gt;0 -->
<g id="edge3" class="edge">
<title>11&#45;&gt;0</title>
<path fill="none" stroke="grey" stroke-width="2" d="M249.97,-579.98C246.96,-578.61 243.92,-577.25 241,-576 143.63,-534.23 38,-556.96 38,-451 38,-451 38,-451 38,-161 38,-117.81 41.71,-96.89 77,-72 135.37,-30.83 643.96,-21.29 786.82,-19.41"/>
<polygon fill="grey" stroke="grey" stroke-width="2" points="786.89,-22.91 796.85,-19.28 786.8,-15.91 786.89,-22.91"/>
</g>
<!-- 12 -->
<g id="node13" class="node">
<title>12</title>
<path fill="none" stroke="#56d8c1" stroke-width="2" d="M1755,-396C1755,-396 1703,-396 1703,-396 1697,-396 1691,-390 1691,-384 1691,-384 1691,-372 1691,-372 1691,-366 1697,-360 1703,-360 1703,-360 1755,-360 1755,-360 1761,-360 1767,-366 1767,-372 1767,-372 1767,-384 1767,-384 1767,-390 1761,-396 1755,-396"/>
<text text-anchor="middle" x="1729" y="-375.5" font-family="sans" font-size="10.00">checkm_out</text>
</g>
<!-- 12&#45;&gt;0 -->
<g id="edge16" class="edge">
<title>12&#45;&gt;0</title>
<path fill="none" stroke="grey" stroke-width="2" d="M1726.17,-359.57C1722.08,-332.84 1715,-280.09 1715,-235 1715,-235 1715,-235 1715,-161 1715,-117.99 1712.14,-96.8 1677,-72 1609.68,-24.48 1016.88,-19.52 861.28,-19.04"/>
<polygon fill="grey" stroke="grey" stroke-width="2" points="861.26,-15.54 851.25,-19.02 861.24,-22.54 861.26,-15.54"/>
</g>
<!-- 13&#45;&gt;12 -->
<g id="edge43" class="edge">
<title>13&#45;&gt;12</title>
<path fill="none" stroke="grey" stroke-width="2" d="M982.71,-591.07C1114.72,-581.86 1673.51,-542.74 1677,-540 1718,-507.8 1727.14,-442.86 1728.9,-406.06"/>
<polygon fill="grey" stroke="grey" stroke-width="2" points="1732.39,-406.15 1729.22,-396.04 1725.4,-405.92 1732.39,-406.15"/>
</g>
<!-- 14 -->
<g id="node15" class="node">
<title>14</title>
<path fill="none" stroke="#56d863" stroke-width="2" d="M988,-684C988,-684 922,-684 922,-684 916,-684 910,-678 910,-672 910,-672 910,-660 910,-660 910,-654 916,-648 922,-648 922,-648 988,-648 988,-648 994,-648 1000,-654 1000,-660 1000,-660 1000,-672 1000,-672 1000,-678 994,-684 988,-684"/>
<text text-anchor="middle" x="955" y="-663.5" font-family="sans" font-size="10.00">install_checkm</text>
</g>
<!-- 14&#45;&gt;13 -->
<g id="edge44" class="edge">
<title>14&#45;&gt;13</title>
<path fill="none" stroke="grey" stroke-width="2" d="M955,-647.7C955,-639.98 955,-630.71 955,-622.11"/>
<polygon fill="grey" stroke="grey" stroke-width="2" points="958.5,-622.1 955,-612.1 951.5,-622.1 958.5,-622.1"/>
</g>
<!-- 15 -->
<g id="node16" class="node">
<title>15</title>
<path fill="none" stroke="#56b9d8" stroke-width="2" d="M959,-396C959,-396 881,-396 881,-396 875,-396 869,-390 869,-384 869,-384 869,-372 869,-372 869,-366 875,-360 881,-360 881,-360 959,-360 959,-360 965,-360 971,-366 971,-372 971,-372 971,-384 971,-384 971,-390 965,-396 959,-396"/>
<text text-anchor="middle" x="920" y="-375.5" font-family="sans" font-size="10.00">copy_prokka_gbk</text>
</g>
<!-- 15&#45;&gt;0 -->
<g id="edge22" class="edge">
<title>15&#45;&gt;0</title>
<path fill="none" stroke="grey" stroke-width="2" d="M873.61,-359.95C847.09,-349.26 817.46,-335.4 809,-324 746.41,-239.66 789.67,-103.21 812.44,-45.8"/>
<polygon fill="grey" stroke="grey" stroke-width="2" points="815.76,-46.93 816.29,-36.34 809.28,-44.29 815.76,-46.93"/>
</g>
<!-- 16&#45;&gt;15 -->
<g id="edge48" class="edge">
<title>16&#45;&gt;15</title>
<path fill="none" stroke="grey" stroke-width="2" d="M916.24,-431.7C916.79,-423.98 917.45,-414.71 918.06,-406.11"/>
<polygon fill="grey" stroke="grey" stroke-width="2" points="921.56,-406.33 918.78,-396.1 914.57,-405.83 921.56,-406.33"/>
</g>
<!-- 22 -->
<g id="node23" class="node">
<title>22</title>
<path fill="none" stroke="#566bd8" stroke-width="2" d="M1045,-396C1045,-396 1001,-396 1001,-396 995,-396 989,-390 989,-384 989,-384 989,-372 989,-372 989,-366 995,-360 1001,-360 1001,-360 1045,-360 1045,-360 1051,-360 1057,-366 1057,-372 1057,-372 1057,-384 1057,-384 1057,-390 1051,-396 1045,-396"/>
<text text-anchor="middle" x="1023" y="-375.5" font-family="sans" font-size="10.00">antismash</text>
</g>
<!-- 16&#45;&gt;22 -->
<g id="edge63" class="edge">
<title>16&#45;&gt;22</title>
<path fill="none" stroke="grey" stroke-width="2" d="M941.42,-431.88C955.41,-422.81 972.78,-411.55 987.89,-401.76"/>
<polygon fill="grey" stroke="grey" stroke-width="2" points="989.99,-404.57 996.48,-396.19 986.18,-398.69 989.99,-404.57"/>
</g>
<!-- 37 -->
<g id="node38" class="node">
<title>37</title>
<path fill="none" stroke="#56d8a9" stroke-width="2" d="M839,-396C839,-396 753,-396 753,-396 747,-396 741,-390 741,-384 741,-384 741,-372 741,-372 741,-366 747,-360 753,-360 753,-360 839,-360 839,-360 845,-360 851,-366 851,-372 851,-372 851,-384 851,-384 851,-390 845,-396 839,-396"/>
<text text-anchor="middle" x="796" y="-375.5" font-family="sans" font-size="10.00">prep_automlst_gbk</text>
</g>
<!-- 16&#45;&gt;37 -->
<g id="edge82" class="edge">
<title>16&#45;&gt;37</title>
<path fill="none" stroke="grey" stroke-width="2" d="M885.89,-431.88C870.33,-422.72 850.98,-411.34 834.22,-401.48"/>
<polygon fill="grey" stroke="grey" stroke-width="2" points="835.62,-398.24 825.22,-396.19 832.07,-404.28 835.62,-398.24"/>
</g>
<!-- 17&#45;&gt;16 -->
<g id="edge49" class="edge">
<title>17&#45;&gt;16</title>
<path fill="none" stroke="grey" stroke-width="2" d="M545.29,-516.19C612.13,-504.4 784.7,-473.98 868.27,-459.24"/>
<polygon fill="grey" stroke="grey" stroke-width="2" points="869.01,-462.66 878.25,-457.48 867.79,-455.77 869.01,-462.66"/>
</g>
<!-- 41 -->
<g id="node42" class="node">
<title>41</title>
<path fill="none" stroke="#8fd856" stroke-width="2" d="M368,-180C368,-180 338,-180 338,-180 332,-180 326,-174 326,-168 326,-168 326,-156 326,-156 326,-150 332,-144 338,-144 338,-144 368,-144 368,-144 374,-144 380,-150 380,-156 380,-156 380,-168 380,-168 380,-174 374,-180 368,-180"/>
<text text-anchor="middle" x="353" y="-159.5" font-family="sans" font-size="10.00">roary</text>
</g>
<!-- 17&#45;&gt;41 -->
<g id="edge86" class="edge">
<title>17&#45;&gt;41</title>
<path fill="none" stroke="grey" stroke-width="2" d="M494.6,-503.92C464.49,-479.77 416,-432.57 416,-379 416,-379 416,-379 416,-305 416,-261.19 390.64,-215.81 372.1,-188.49"/>
<polygon fill="grey" stroke="grey" stroke-width="2" points="374.96,-186.47 366.36,-180.28 369.22,-190.48 374.96,-186.47"/>
</g>
<!-- 42 -->
<g id="node43" class="node">
<title>42</title>
<path fill="none" stroke="#9fd856" stroke-width="2" d="M184,-108C184,-108 154,-108 154,-108 148,-108 142,-102 142,-96 142,-96 142,-84 142,-84 142,-78 148,-72 154,-72 154,-72 184,-72 184,-72 190,-72 196,-78 196,-84 196,-84 196,-96 196,-96 196,-102 190,-108 184,-108"/>
<text text-anchor="middle" x="169" y="-87.5" font-family="sans" font-size="10.00">eggnog</text>
</g>
<!-- 17&#45;&gt;42 -->
<g id="edge87" class="edge">
<title>17&#45;&gt;42</title>
<path fill="none" stroke="grey" stroke-width="2" d="M490.82,-508.08C472.46,-498.56 448.32,-484.44 430,-468 310.32,-360.6 294.44,-317.46 211,-180 198.81,-159.91 187.59,-135.72 179.83,-117.63"/>
<polygon fill="grey" stroke="grey" stroke-width="2" points="182.99,-116.13 175.88,-108.28 176.54,-118.85 182.99,-116.13"/>
</g>
<!-- 45 -->
<g id="node46" class="node">
<title>45</title>
<path fill="none" stroke="#56d8a2" stroke-width="2" d="M702.5,-468C702.5,-468 613.5,-468 613.5,-468 607.5,-468 601.5,-462 601.5,-456 601.5,-456 601.5,-444 601.5,-444 601.5,-438 607.5,-432 613.5,-432 613.5,-432 702.5,-432 702.5,-432 708.5,-432 714.5,-438 714.5,-444 714.5,-444 714.5,-456 714.5,-456 714.5,-462 708.5,-468 702.5,-468"/>
<text text-anchor="middle" x="658" y="-447.5" font-family="sans" font-size="10.00">create_diamond_db</text>
</g>
<!-- 17&#45;&gt;45 -->
<g id="edge91" class="edge">
<title>17&#45;&gt;45</title>
<path fill="none" stroke="grey" stroke-width="2" d="M545.33,-507.34C565.05,-497.48 592.08,-483.96 614.72,-472.64"/>
<polygon fill="grey" stroke="grey" stroke-width="2" points="616.42,-475.7 623.8,-468.1 613.29,-469.44 616.42,-475.7"/>
</g>
<!-- 48 -->
<g id="node49" class="node">
<title>48</title>
<path fill="none" stroke="#56d8b1" stroke-width="2" d="M688.5,-108C688.5,-108 639.5,-108 639.5,-108 633.5,-108 627.5,-102 627.5,-96 627.5,-96 627.5,-84 627.5,-84 627.5,-78 633.5,-72 639.5,-72 639.5,-72 688.5,-72 688.5,-72 694.5,-72 700.5,-78 700.5,-84 700.5,-84 700.5,-96 700.5,-96 700.5,-102 694.5,-108 688.5,-108"/>
<text text-anchor="middle" x="664" y="-87.5" font-family="sans" font-size="10.00">deeptfactor</text>
</g>
<!-- 17&#45;&gt;48 -->
<g id="edge94" class="edge">
<title>17&#45;&gt;48</title>
<path fill="none" stroke="grey" stroke-width="2" d="M514,-503.97C501.63,-446.88 469.55,-259.41 551,-144 555.37,-137.81 588.69,-122.56 618.03,-110"/>
<polygon fill="grey" stroke="grey" stroke-width="2" points="619.54,-113.17 627.37,-106.04 616.8,-106.72 619.54,-113.17"/>
</g>
<!-- 50 -->
<g id="node51" class="node">
<title>50</title>
<path fill="none" stroke="#5673d8" stroke-width="2" d="M210,-468C210,-468 116,-468 116,-468 110,-468 104,-462 104,-456 104,-456 104,-444 104,-444 104,-438 110,-432 116,-432 116,-432 210,-432 210,-432 216,-432 222,-438 222,-444 222,-444 222,-456 222,-456 222,-462 216,-468 210,-468"/>
<text text-anchor="middle" x="163" y="-447.5" font-family="sans" font-size="10.00">cblaster_genome_db</text>
</g>
<!-- 17&#45;&gt;50 -->
<g id="edge98" class="edge">
<title>17&#45;&gt;50</title>
<path fill="none" stroke="grey" stroke-width="2" d="M490.7,-516.27C440.26,-507.45 329.11,-487.58 236,-468 234.75,-467.74 233.48,-467.47 232.21,-467.2"/>
<polygon fill="grey" stroke="grey" stroke-width="2" points="232.83,-463.75 222.31,-465.04 231.34,-470.59 232.83,-463.75"/>
</g>
<!-- 18&#45;&gt;17 -->
<g id="edge55" class="edge">
<title>18&#45;&gt;17</title>
<path fill="none" stroke="grey" stroke-width="2" d="M484.88,-575.7C489.99,-567.56 496.2,-557.69 501.84,-548.7"/>
<polygon fill="grey" stroke="grey" stroke-width="2" points="504.89,-550.43 507.25,-540.1 498.96,-546.71 504.89,-550.43"/>
</g>
<!-- 19 -->
<g id="node20" class="node">
<title>19</title>
<path fill="none" stroke="#d85656" stroke-width="2" d="M679,-612C679,-612 603,-612 603,-612 597,-612 591,-606 591,-600 591,-600 591,-588 591,-588 591,-582 597,-576 603,-576 603,-576 679,-576 679,-576 685,-576 691,-582 691,-588 691,-588 691,-600 691,-600 691,-606 685,-612 679,-612"/>
<text text-anchor="middle" x="641" y="-591.5" font-family="sans" font-size="10.00">prokka_db_setup</text>
</g>
<!-- 19&#45;&gt;17 -->
<g id="edge51" class="edge">
<title>19&#45;&gt;17</title>
<path fill="none" stroke="grey" stroke-width="2" d="M610.91,-575.88C593.83,-566.16 572.33,-553.92 554.32,-543.67"/>
<polygon fill="grey" stroke="grey" stroke-width="2" points="555.68,-540.42 545.26,-538.51 552.22,-546.5 555.68,-540.42"/>
</g>
<!-- 20 -->
<g id="node21" class="node">
<title>20</title>
<path fill="none" stroke="#56c9d8" stroke-width="2" d="M1504.5,-180C1504.5,-180 1409.5,-180 1409.5,-180 1403.5,-180 1397.5,-174 1397.5,-168 1397.5,-168 1397.5,-156 1397.5,-156 1397.5,-150 1403.5,-144 1409.5,-144 1409.5,-144 1504.5,-144 1504.5,-144 1510.5,-144 1516.5,-150 1516.5,-156 1516.5,-156 1516.5,-168 1516.5,-168 1516.5,-174 1510.5,-180 1504.5,-180"/>
<text text-anchor="middle" x="1457" y="-159.5" font-family="sans" font-size="10.00">antismash_summary</text>
</g>
<!-- 20&#45;&gt;0 -->
<g id="edge20" class="edge">
<title>20&#45;&gt;0</title>
<path fill="none" stroke="grey" stroke-width="2" d="M1451.14,-143.83C1443.01,-122.92 1426.17,-88.38 1399,-72 1353.01,-44.27 981.14,-25.83 861.17,-20.55"/>
<polygon fill="grey" stroke="grey" stroke-width="2" points="861.15,-17.05 851.01,-20.11 860.85,-24.04 861.15,-17.05"/>
</g>
<!-- 28 -->
<g id="node29" class="node">
<title>28</title>
<path fill="none" stroke="#569ad8" stroke-width="2" d="M1378,-108C1378,-108 1272,-108 1272,-108 1266,-108 1260,-102 1260,-96 1260,-96 1260,-84 1260,-84 1260,-78 1266,-72 1272,-72 1272,-72 1378,-72 1378,-72 1384,-72 1390,-78 1390,-84 1390,-84 1390,-96 1390,-96 1390,-102 1384,-108 1378,-108"/>
<text text-anchor="middle" x="1325" y="-87.5" font-family="sans" font-size="10.00">bigscape_to_cytoscape</text>
</g>
<!-- 20&#45;&gt;28 -->
<g id="edge71" class="edge">
<title>20&#45;&gt;28</title>
<path fill="none" stroke="grey" stroke-width="2" d="M1424.71,-143.88C1407.13,-134.55 1385.19,-122.92 1366.37,-112.94"/>
<polygon fill="grey" stroke="grey" stroke-width="2" points="1367.89,-109.78 1357.41,-108.19 1364.61,-115.97 1367.89,-109.78"/>
</g>
<!-- 21&#45;&gt;20 -->
<g id="edge59" class="edge">
<title>21&#45;&gt;20</title>
<path fill="none" stroke="grey" stroke-width="2" d="M1317.51,-289.8C1356.19,-279.51 1400.97,-265.38 1416,-252 1434.28,-235.72 1444.97,-209.61 1450.82,-189.88"/>
<polygon fill="grey" stroke="grey" stroke-width="2" points="1454.2,-190.79 1453.45,-180.22 1447.44,-188.95 1454.2,-190.79"/>
</g>
<!-- 26 -->
<g id="node27" class="node">
<title>26</title>
<path fill="none" stroke="#d8cb56" stroke-width="2" d="M893.5,-252C893.5,-252 830.5,-252 830.5,-252 824.5,-252 818.5,-246 818.5,-240 818.5,-240 818.5,-228 818.5,-228 818.5,-222 824.5,-216 830.5,-216 830.5,-216 893.5,-216 893.5,-216 899.5,-216 905.5,-222 905.5,-228 905.5,-228 905.5,-240 905.5,-240 905.5,-246 899.5,-252 893.5,-252"/>
<text text-anchor="middle" x="862" y="-231.5" font-family="sans" font-size="10.00">query_bigslice</text>
</g>
<!-- 21&#45;&gt;26 -->
<g id="edge67" class="edge">
<title>21&#45;&gt;26</title>
<path fill="none" stroke="grey" stroke-width="2" d="M1190.33,-298.04C1123.91,-290.11 1016.73,-275.42 915.32,-251.86"/>
<polygon fill="grey" stroke="grey" stroke-width="2" points="916.06,-248.44 905.52,-249.55 914.45,-255.25 916.06,-248.44"/>
</g>
<!-- 21&#45;&gt;28 -->
<g id="edge69" class="edge">
<title>21&#45;&gt;28</title>
<path fill="none" stroke="grey" stroke-width="2" d="M1256.8,-287.87C1258.36,-277.52 1260.15,-264.04 1261,-252 1261.21,-249.01 1260.72,-146.71 1262,-144 1267.48,-132.37 1276.89,-122.37 1286.79,-114.29"/>
<polygon fill="grey" stroke="grey" stroke-width="2" points="1288.92,-117.06 1294.76,-108.22 1284.68,-111.49 1288.92,-117.06"/>
</g>
<!-- 31 -->
<g id="node32" class="node">
<title>31</title>
<path fill="none" stroke="#a7d856" stroke-width="2" d="M1367,-180C1367,-180 1283,-180 1283,-180 1277,-180 1271,-174 1271,-168 1271,-168 1271,-156 1271,-156 1271,-150 1277,-144 1283,-144 1283,-144 1367,-144 1367,-144 1373,-144 1379,-150 1379,-156 1379,-156 1379,-168 1379,-168 1379,-174 1373,-180 1367,-180"/>
<text text-anchor="middle" x="1325" y="-159.5" font-family="sans" font-size="10.00">copy_bigscape_zip</text>
</g>
<!-- 21&#45;&gt;31 -->
<g id="edge74" class="edge">
<title>21&#45;&gt;31</title>
<path fill="none" stroke="grey" stroke-width="2" d="M1269.63,-287.87C1278.04,-277.96 1288.08,-264.92 1295,-252 1305.6,-232.2 1313.48,-207.95 1318.5,-189.76"/>
<polygon fill="grey" stroke="grey" stroke-width="2" points="1321.88,-190.65 1321.05,-180.09 1315.11,-188.86 1321.88,-190.65"/>
</g>
<!-- 32 -->
<g id="node33" class="node">
<title>32</title>
<path fill="none" stroke="#d86e56" stroke-width="2" d="M1395,-252C1395,-252 1359,-252 1359,-252 1353,-252 1347,-246 1347,-240 1347,-240 1347,-228 1347,-228 1347,-222 1353,-216 1359,-216 1359,-216 1395,-216 1395,-216 1401,-216 1407,-222 1407,-228 1407,-228 1407,-240 1407,-240 1407,-246 1401,-252 1395,-252"/>
<text text-anchor="middle" x="1377" y="-231.5" font-family="sans" font-size="10.00">bigscape</text>
</g>
<!-- 21&#45;&gt;32 -->
<g id="edge75" class="edge">
<title>21&#45;&gt;32</title>
<path fill="none" stroke="grey" stroke-width="2" d="M1284.09,-287.88C1300.32,-278.64 1320.54,-267.13 1337.97,-257.21"/>
<polygon fill="grey" stroke="grey" stroke-width="2" points="1339.84,-260.18 1346.8,-252.19 1336.37,-254.09 1339.84,-260.18"/>
</g>
<!-- 34 -->
<g id="node35" class="node">
<title>34</title>
<path fill="none" stroke="#5692d8" stroke-width="2" d="M1127.5,-252C1127.5,-252 1070.5,-252 1070.5,-252 1064.5,-252 1058.5,-246 1058.5,-240 1058.5,-240 1058.5,-228 1058.5,-228 1058.5,-222 1064.5,-216 1070.5,-216 1070.5,-216 1127.5,-216 1127.5,-216 1133.5,-216 1139.5,-222 1139.5,-228 1139.5,-228 1139.5,-240 1139.5,-240 1139.5,-246 1133.5,-252 1127.5,-252"/>
<text text-anchor="middle" x="1099" y="-231.5" font-family="sans" font-size="10.00">bigslice_prep</text>
</g>
<!-- 21&#45;&gt;34 -->
<g id="edge78" class="edge">
<title>21&#45;&gt;34</title>
<path fill="none" stroke="grey" stroke-width="2" d="M1216.08,-287.88C1194.99,-278.35 1168.54,-266.41 1146.13,-256.28"/>
<polygon fill="grey" stroke="grey" stroke-width="2" points="1147.35,-252.99 1136.79,-252.07 1144.47,-259.37 1147.35,-252.99"/>
</g>
<!-- 51 -->
<g id="node52" class="node">
<title>51</title>
<path fill="none" stroke="#78d856" stroke-width="2" d="M1240.5,-252C1240.5,-252 1169.5,-252 1169.5,-252 1163.5,-252 1157.5,-246 1157.5,-240 1157.5,-240 1157.5,-228 1157.5,-228 1157.5,-222 1163.5,-216 1169.5,-216 1169.5,-216 1240.5,-216 1240.5,-216 1246.5,-216 1252.5,-222 1252.5,-228 1252.5,-228 1252.5,-240 1252.5,-240 1252.5,-246 1246.5,-252 1240.5,-252"/>
<text text-anchor="middle" x="1205" y="-231.5" font-family="sans" font-size="10.00">cblaster_bgc_db</text>
</g>
<!-- 21&#45;&gt;51 -->
<g id="edge99" class="edge">
<title>21&#45;&gt;51</title>
<path fill="none" stroke="grey" stroke-width="2" d="M1241.89,-287.7C1236.13,-279.47 1229.14,-269.48 1222.79,-260.42"/>
<polygon fill="grey" stroke="grey" stroke-width="2" points="1225.58,-258.29 1216.97,-252.1 1219.84,-262.3 1225.58,-258.29"/>
</g>
<!-- 22&#45;&gt;21 -->
<g id="edge60" class="edge">
<title>22&#45;&gt;21</title>
<path fill="none" stroke="grey" stroke-width="2" d="M1057.08,-366.67C1091.43,-356.26 1145.32,-339.93 1188.05,-326.98"/>
<polygon fill="grey" stroke="grey" stroke-width="2" points="1189.26,-330.27 1197.82,-324.02 1187.23,-323.58 1189.26,-330.27"/>
</g>
<!-- 24 -->
<g id="node25" class="node">
<title>24</title>
<path fill="none" stroke="#567bd8" stroke-width="2" d="M1028,-252C1028,-252 936,-252 936,-252 930,-252 924,-246 924,-240 924,-240 924,-228 924,-228 924,-222 930,-216 936,-216 936,-216 1028,-216 1028,-216 1034,-216 1040,-222 1040,-228 1040,-228 1040,-240 1040,-240 1040,-246 1034,-252 1028,-252"/>
<text text-anchor="middle" x="982" y="-231.5" font-family="sans" font-size="10.00">copy_antismash_zip</text>
</g>
<!-- 22&#45;&gt;24 -->
<g id="edge64" class="edge">
<title>22&#45;&gt;24</title>
<path fill="none" stroke="grey" stroke-width="2" d="M1018.97,-359.83C1014.64,-341.83 1007.4,-312.77 1000,-288 997.43,-279.39 994.37,-270.09 991.51,-261.72"/>
<polygon fill="grey" stroke="grey" stroke-width="2" points="994.75,-260.38 988.16,-252.08 988.13,-262.68 994.75,-260.38"/>
</g>
<!-- 39 -->
<g id="node40" class="node">
<title>39</title>
<path fill="none" stroke="#d8bc56" stroke-width="2" d="M860,-324C860,-324 830,-324 830,-324 824,-324 818,-318 818,-312 818,-312 818,-300 818,-300 818,-294 824,-288 830,-288 830,-288 860,-288 860,-288 866,-288 872,-294 872,-300 872,-300 872,-312 872,-312 872,-318 866,-324 860,-324"/>
<text text-anchor="middle" x="845" y="-303.5" font-family="sans" font-size="10.00">arts</text>
</g>
<!-- 22&#45;&gt;39 -->
<g id="edge83" class="edge">
<title>22&#45;&gt;39</title>
<path fill="none" stroke="grey" stroke-width="2" d="M988.77,-363.37C985.8,-362.22 982.85,-361.08 980,-360 938.96,-344.43 925.84,-342.25 881.34,-323.96"/>
<polygon fill="grey" stroke="grey" stroke-width="2" points="882.58,-320.69 872.01,-320.08 879.9,-327.15 882.58,-320.69"/>
</g>
<!-- 23 -->
<g id="node24" class="node">
<title>23</title>
<path fill="none" stroke="#d8c356" stroke-width="2" d="M1074.5,-468C1074.5,-468 981.5,-468 981.5,-468 975.5,-468 969.5,-462 969.5,-456 969.5,-456 969.5,-444 969.5,-444 969.5,-438 975.5,-432 981.5,-432 981.5,-432 1074.5,-432 1074.5,-432 1080.5,-432 1086.5,-438 1086.5,-444 1086.5,-444 1086.5,-456 1086.5,-456 1086.5,-462 1080.5,-468 1074.5,-468"/>
<text text-anchor="middle" x="1028" y="-447.5" font-family="sans" font-size="10.00">antismash_db_setup</text>
</g>
<!-- 23&#45;&gt;22 -->
<g id="edge62" class="edge">
<title>23&#45;&gt;22</title>
<path fill="none" stroke="grey" stroke-width="2" d="M1026.76,-431.7C1026.21,-423.98 1025.55,-414.71 1024.94,-406.11"/>
<polygon fill="grey" stroke="grey" stroke-width="2" points="1028.43,-405.83 1024.22,-396.1 1021.44,-406.33 1028.43,-405.83"/>
</g>
<!-- 24&#45;&gt;0 -->
<g id="edge24" class="edge">
<title>24&#45;&gt;0</title>
<path fill="none" stroke="grey" stroke-width="2" d="M984.19,-215.85C985.77,-197.09 985.89,-166.67 974,-144 948.72,-95.77 896.1,-58.85 860.41,-38.03"/>
<polygon fill="grey" stroke="grey" stroke-width="2" points="861.7,-34.74 851.28,-32.84 858.24,-40.83 861.7,-34.74"/>
</g>
<!-- 25 -->
<g id="node26" class="node">
<title>25</title>
<path fill="none" stroke="#5663d8" stroke-width="2" d="M953.5,-180C953.5,-180 830.5,-180 830.5,-180 824.5,-180 818.5,-174 818.5,-168 818.5,-168 818.5,-156 818.5,-156 818.5,-150 824.5,-144 830.5,-144 830.5,-144 953.5,-144 953.5,-144 959.5,-144 965.5,-150 965.5,-156 965.5,-156 965.5,-168 965.5,-168 965.5,-174 959.5,-180 953.5,-180"/>
<text text-anchor="middle" x="892" y="-159.5" font-family="sans" font-size="10.00">summarize_bigslice_query</text>
</g>
<!-- 25&#45;&gt;0 -->
<g id="edge26" class="edge">
<title>25&#45;&gt;0</title>
<path fill="none" stroke="grey" stroke-width="2" d="M886.31,-143.87C880.02,-125.65 869.15,-96.18 857,-72 852.38,-62.8 846.64,-53.13 841.25,-44.6"/>
<polygon fill="grey" stroke="grey" stroke-width="2" points="844.19,-42.7 835.83,-36.2 838.31,-46.5 844.19,-42.7"/>
</g>
<!-- 26&#45;&gt;25 -->
<g id="edge65" class="edge">
<title>26&#45;&gt;25</title>
<path fill="none" stroke="grey" stroke-width="2" d="M869.42,-215.7C872.79,-207.81 876.87,-198.3 880.62,-189.55"/>
<polygon fill="grey" stroke="grey" stroke-width="2" points="883.95,-190.67 884.67,-180.1 877.51,-187.92 883.95,-190.67"/>
</g>
<!-- 27 -->
<g id="node28" class="node">
<title>27</title>
<path fill="none" stroke="#68d856" stroke-width="2" d="M979.5,-324C979.5,-324 902.5,-324 902.5,-324 896.5,-324 890.5,-318 890.5,-312 890.5,-312 890.5,-300 890.5,-300 890.5,-294 896.5,-288 902.5,-288 902.5,-288 979.5,-288 979.5,-288 985.5,-288 991.5,-294 991.5,-300 991.5,-300 991.5,-312 991.5,-312 991.5,-318 985.5,-324 979.5,-324"/>
<text text-anchor="middle" x="941" y="-303.5" font-family="sans" font-size="10.00">fetch_bigslice_db</text>
</g>
<!-- 27&#45;&gt;26 -->
<g id="edge66" class="edge">
<title>27&#45;&gt;26</title>
<path fill="none" stroke="grey" stroke-width="2" d="M921.47,-287.7C911.62,-278.97 899.51,-268.24 888.8,-258.75"/>
<polygon fill="grey" stroke="grey" stroke-width="2" points="891.11,-256.12 881.3,-252.1 886.47,-261.36 891.11,-256.12"/>
</g>
<!-- 28&#45;&gt;0 -->
<g id="edge23" class="edge">
<title>28&#45;&gt;0</title>
<path fill="none" stroke="grey" stroke-width="2" d="M1259.9,-78.63C1245.46,-76.39 1230.21,-74.07 1216,-72 1085.75,-53.04 930.81,-32.76 861.15,-23.77"/>
<polygon fill="grey" stroke="grey" stroke-width="2" points="861.48,-20.28 851.12,-22.47 860.59,-27.22 861.48,-20.28"/>
</g>
<!-- 29 -->
<g id="node30" class="node">
<title>29</title>
<path fill="none" stroke="#568ad8" stroke-width="2" d="M1546.5,-252C1546.5,-252 1475.5,-252 1475.5,-252 1469.5,-252 1463.5,-246 1463.5,-240 1463.5,-240 1463.5,-228 1463.5,-228 1463.5,-222 1469.5,-216 1475.5,-216 1475.5,-216 1546.5,-216 1546.5,-216 1552.5,-216 1558.5,-222 1558.5,-228 1558.5,-228 1558.5,-240 1558.5,-240 1558.5,-246 1552.5,-252 1546.5,-252"/>
<text text-anchor="middle" x="1511" y="-231.5" font-family="sans" font-size="10.00">get_mibig_table</text>
</g>
<!-- 29&#45;&gt;28 -->
<g id="edge68" class="edge">
<title>29&#45;&gt;28</title>
<path fill="none" stroke="grey" stroke-width="2" d="M1520.97,-215.72C1530.72,-196.29 1541.97,-164.73 1526,-144 1510.38,-123.73 1450.4,-109.66 1399.99,-101.13"/>
<polygon fill="grey" stroke="grey" stroke-width="2" points="1400.49,-97.67 1390.05,-99.5 1399.35,-104.57 1400.49,-97.67"/>
</g>
<!-- 30 -->
<g id="node31" class="node">
<title>30</title>
<path fill="none" stroke="#56a2d8" stroke-width="2" d="M1439.5,-324C1439.5,-324 1368.5,-324 1368.5,-324 1362.5,-324 1356.5,-318 1356.5,-312 1356.5,-312 1356.5,-300 1356.5,-300 1356.5,-294 1362.5,-288 1368.5,-288 1368.5,-288 1439.5,-288 1439.5,-288 1445.5,-288 1451.5,-294 1451.5,-300 1451.5,-300 1451.5,-312 1451.5,-312 1451.5,-318 1445.5,-324 1439.5,-324"/>
<text text-anchor="middle" x="1404" y="-303.5" font-family="sans" font-size="10.00">install_bigscape</text>
</g>
<!-- 30&#45;&gt;29 -->
<g id="edge72" class="edge">
<title>30&#45;&gt;29</title>
<path fill="none" stroke="grey" stroke-width="2" d="M1430.18,-287.88C1444.04,-278.81 1461.24,-267.55 1476.21,-257.76"/>
<polygon fill="grey" stroke="grey" stroke-width="2" points="1478.27,-260.59 1484.72,-252.19 1474.44,-254.74 1478.27,-260.59"/>
</g>
<!-- 30&#45;&gt;32 -->
<g id="edge76" class="edge">
<title>30&#45;&gt;32</title>
<path fill="none" stroke="grey" stroke-width="2" d="M1397.33,-287.7C1394.29,-279.81 1390.62,-270.3 1387.24,-261.55"/>
<polygon fill="grey" stroke="grey" stroke-width="2" points="1390.46,-260.17 1383.6,-252.1 1383.93,-262.69 1390.46,-260.17"/>
</g>
<!-- 31&#45;&gt;28 -->
<g id="edge70" class="edge">
<title>31&#45;&gt;28</title>
<path fill="none" stroke="grey" stroke-width="2" d="M1325,-143.7C1325,-135.98 1325,-126.71 1325,-118.11"/>
<polygon fill="grey" stroke="grey" stroke-width="2" points="1328.5,-118.1 1325,-108.1 1321.5,-118.1 1328.5,-118.1"/>
</g>
<!-- 32&#45;&gt;31 -->
<g id="edge73" class="edge">
<title>32&#45;&gt;31</title>
<path fill="none" stroke="grey" stroke-width="2" d="M1364.15,-215.7C1357.97,-207.39 1350.46,-197.28 1343.68,-188.14"/>
<polygon fill="grey" stroke="grey" stroke-width="2" points="1346.48,-186.04 1337.71,-180.1 1340.86,-190.22 1346.48,-186.04"/>
</g>
<!-- 33 -->
<g id="node34" class="node">
<title>33</title>
<path fill="none" stroke="#56d8c9" stroke-width="2" d="M1097,-180C1097,-180 1067,-180 1067,-180 1061,-180 1055,-174 1055,-168 1055,-168 1055,-156 1055,-156 1055,-150 1061,-144 1067,-144 1067,-144 1097,-144 1097,-144 1103,-144 1109,-150 1109,-156 1109,-156 1109,-168 1109,-168 1109,-174 1103,-180 1097,-180"/>
<text text-anchor="middle" x="1082" y="-159.5" font-family="sans" font-size="10.00">bigslice</text>
</g>
<!-- 33&#45;&gt;0 -->
<g id="edge17" class="edge">
<title>33&#45;&gt;0</title>
<path fill="none" stroke="grey" stroke-width="2" d="M1072.24,-143.94C1059.85,-123.8 1036.6,-90.69 1008,-72 962.53,-42.29 900.14,-28.91 860.96,-23.12"/>
<polygon fill="grey" stroke="grey" stroke-width="2" points="861.43,-19.65 851.04,-21.75 860.46,-26.59 861.43,-19.65"/>
</g>
<!-- 34&#45;&gt;33 -->
<g id="edge77" class="edge">
<title>34&#45;&gt;33</title>
<path fill="none" stroke="grey" stroke-width="2" d="M1094.8,-215.7C1092.9,-207.9 1090.62,-198.51 1088.52,-189.83"/>
<polygon fill="grey" stroke="grey" stroke-width="2" points="1091.92,-189 1086.15,-180.1 1085.11,-190.65 1091.92,-189"/>
</g>
<!-- 35 -->
<g id="node36" class="node">
<title>35</title>
<path fill="none" stroke="#56d89a" stroke-width="2" d="M674,-180C674,-180 572,-180 572,-180 566,-180 560,-174 560,-168 560,-168 560,-156 560,-156 560,-150 566,-144 572,-144 572,-144 674,-144 674,-144 680,-144 686,-150 686,-156 686,-156 686,-168 686,-168 686,-174 680,-180 674,-180"/>
<text text-anchor="middle" x="623" y="-159.5" font-family="sans" font-size="10.00">automlst_wrapper_out</text>
</g>
<!-- 35&#45;&gt;0 -->
<g id="edge13" class="edge">
<title>35&#45;&gt;0</title>
<path fill="none" stroke="grey" stroke-width="2" d="M653.08,-143.8C669.89,-133.86 691,-120.82 709,-108 729.58,-93.34 733.09,-87.56 753,-72 765.7,-62.07 779.9,-51.39 792.25,-42.23"/>
<polygon fill="grey" stroke="grey" stroke-width="2" points="794.5,-44.92 800.46,-36.17 790.34,-39.3 794.5,-44.92"/>
</g>
<!-- 40 -->
<g id="node41" class="node">
<title>40</title>
<path fill="none" stroke="#d89c56" stroke-width="2" d="M597.5,-108C597.5,-108 558.5,-108 558.5,-108 552.5,-108 546.5,-102 546.5,-96 546.5,-96 546.5,-84 546.5,-84 546.5,-78 552.5,-72 558.5,-72 558.5,-72 597.5,-72 597.5,-72 603.5,-72 609.5,-78 609.5,-84 609.5,-84 609.5,-96 609.5,-96 609.5,-102 603.5,-108 597.5,-108"/>
<text text-anchor="middle" x="578" y="-87.5" font-family="sans" font-size="10.00">roary_out</text>
</g>
<!-- 35&#45;&gt;40 -->
<g id="edge84" class="edge">
<title>35&#45;&gt;40</title>
<path fill="none" stroke="grey" stroke-width="2" d="M611.88,-143.7C606.64,-135.56 600.3,-125.69 594.52,-116.7"/>
<polygon fill="grey" stroke="grey" stroke-width="2" points="597.35,-114.62 589,-108.1 591.46,-118.41 597.35,-114.62"/>
</g>
<!-- 36 -->
<g id="node37" class="node">
<title>36</title>
<path fill="none" stroke="#ced856" stroke-width="2" d="M663.5,-252C663.5,-252 582.5,-252 582.5,-252 576.5,-252 570.5,-246 570.5,-240 570.5,-240 570.5,-228 570.5,-228 570.5,-222 576.5,-216 582.5,-216 582.5,-216 663.5,-216 663.5,-216 669.5,-216 675.5,-222 675.5,-228 675.5,-228 675.5,-240 675.5,-240 675.5,-246 669.5,-252 663.5,-252"/>
<text text-anchor="middle" x="623" y="-231.5" font-family="sans" font-size="10.00">automlst_wrapper</text>
</g>
<!-- 36&#45;&gt;35 -->
<g id="edge79" class="edge">
<title>36&#45;&gt;35</title>
<path fill="none" stroke="grey" stroke-width="2" d="M623,-215.7C623,-207.98 623,-198.71 623,-190.11"/>
<polygon fill="grey" stroke="grey" stroke-width="2" points="626.5,-190.1 623,-180.1 619.5,-190.1 626.5,-190.1"/>
</g>
<!-- 37&#45;&gt;36 -->
<g id="edge80" class="edge">
<title>37&#45;&gt;36</title>
<path fill="none" stroke="grey" stroke-width="2" d="M777.44,-359.76C757.5,-341.45 724.66,-311.91 695,-288 682.43,-277.87 668.19,-267.22 655.71,-258.15"/>
<polygon fill="grey" stroke="grey" stroke-width="2" points="657.56,-255.16 647.4,-252.15 653.46,-260.84 657.56,-255.16"/>
</g>
<!-- 38 -->
<g id="node39" class="node">
<title>38</title>
<path fill="none" stroke="#d85e56" stroke-width="2" d="M674,-324C674,-324 558,-324 558,-324 552,-324 546,-318 546,-312 546,-312 546,-300 546,-300 546,-294 552,-288 558,-288 558,-288 674,-288 674,-288 680,-288 686,-294 686,-300 686,-300 686,-312 686,-312 686,-318 680,-324 674,-324"/>
<text text-anchor="middle" x="616" y="-303.5" font-family="sans" font-size="10.00">install_automlst_wrapper</text>
</g>
<!-- 38&#45;&gt;36 -->
<g id="edge81" class="edge">
<title>38&#45;&gt;36</title>
<path fill="none" stroke="grey" stroke-width="2" d="M617.73,-287.7C618.5,-279.98 619.43,-270.71 620.29,-262.11"/>
<polygon fill="grey" stroke="grey" stroke-width="2" points="623.78,-262.4 621.29,-252.1 616.81,-261.71 623.78,-262.4"/>
</g>
<!-- 39&#45;&gt;0 -->
<g id="edge5" class="edge">
<title>39&#45;&gt;0</title>
<path fill="none" stroke="grey" stroke-width="2" d="M829.39,-287.77C821.63,-278.03 813.05,-265.18 809,-252 794.89,-206.12 802.52,-191.56 809,-144 811.24,-127.55 816.3,-124.38 819,-108 822.38,-87.52 823.59,-64.06 823.98,-46.37"/>
<polygon fill="grey" stroke="grey" stroke-width="2" points="827.48,-46.23 824.12,-36.18 820.48,-46.13 827.48,-46.23"/>
</g>
<!-- 40&#45;&gt;0 -->
<g id="edge2" class="edge">
<title>40&#45;&gt;0</title>
<path fill="none" stroke="grey" stroke-width="2" d="M609.71,-75.02C612.49,-73.94 615.28,-72.92 618,-72 676.03,-52.33 745.39,-35.89 787,-26.76"/>
<polygon fill="grey" stroke="grey" stroke-width="2" points="787.93,-30.14 796.96,-24.6 786.44,-23.3 787.93,-30.14"/>
</g>
<!-- 41&#45;&gt;40 -->
<g id="edge85" class="edge">
<title>41&#45;&gt;40</title>
<path fill="none" stroke="grey" stroke-width="2" d="M380.28,-147.42C383.19,-146.18 386.13,-145.01 389,-144 449.96,-122.44 470.78,-128.41 536.78,-107.76"/>
<polygon fill="grey" stroke="grey" stroke-width="2" points="537.95,-111.06 546.4,-104.67 535.81,-104.4 537.95,-111.06"/>
</g>
<!-- 44 -->
<g id="node45" class="node">
<title>44</title>
<path fill="none" stroke="#70d856" stroke-width="2" d="M285.5,-108C285.5,-108 226.5,-108 226.5,-108 220.5,-108 214.5,-102 214.5,-96 214.5,-96 214.5,-84 214.5,-84 214.5,-78 220.5,-72 226.5,-72 226.5,-72 285.5,-72 285.5,-72 291.5,-72 297.5,-78 297.5,-84 297.5,-84 297.5,-96 297.5,-96 297.5,-102 291.5,-108 285.5,-108"/>
<text text-anchor="middle" x="256" y="-87.5" font-family="sans" font-size="10.00">eggnog_roary</text>
</g>
<!-- 41&#45;&gt;44 -->
<g id="edge90" class="edge">
<title>41&#45;&gt;44</title>
<path fill="none" stroke="grey" stroke-width="2" d="M329.02,-143.7C316.69,-134.8 301.48,-123.82 288.15,-114.2"/>
<polygon fill="grey" stroke="grey" stroke-width="2" points="289.86,-111.12 279.7,-108.1 285.76,-116.79 289.86,-111.12"/>
</g>
<!-- 46 -->
<g id="node47" class="node">
<title>46</title>
<path fill="none" stroke="#56d8d0" stroke-width="2" d="M394,-108C394,-108 328,-108 328,-108 322,-108 316,-102 316,-96 316,-96 316,-84 316,-84 316,-78 322,-72 328,-72 328,-72 394,-72 394,-72 400,-72 406,-78 406,-84 406,-84 406,-96 406,-96 406,-102 400,-108 394,-108"/>
<text text-anchor="middle" x="361" y="-87.5" font-family="sans" font-size="10.00">diamond_roary</text>
</g>
<!-- 41&#45;&gt;46 -->
<g id="edge93" class="edge">
<title>41&#45;&gt;46</title>
<path fill="none" stroke="grey" stroke-width="2" d="M354.98,-143.7C355.86,-135.98 356.92,-126.71 357.9,-118.11"/>
<polygon fill="grey" stroke="grey" stroke-width="2" points="361.39,-118.44 359.05,-108.1 354.43,-117.64 361.39,-118.44"/>
</g>
<!-- 49 -->
<g id="node50" class="node">
<title>49</title>
<path fill="none" stroke="#80d856" stroke-width="2" d="M516,-108C516,-108 436,-108 436,-108 430,-108 424,-102 424,-96 424,-96 424,-84 424,-84 424,-78 430,-72 436,-72 436,-72 516,-72 516,-72 522,-72 528,-78 528,-84 528,-84 528,-96 528,-96 528,-102 522,-108 516,-108"/>
<text text-anchor="middle" x="476" y="-87.5" font-family="sans" font-size="10.00">deeptfactor_roary</text>
</g>
<!-- 41&#45;&gt;49 -->
<g id="edge97" class="edge">
<title>41&#45;&gt;49</title>
<path fill="none" stroke="grey" stroke-width="2" d="M380.3,-145.46C396.96,-135.98 418.54,-123.7 436.99,-113.2"/>
<polygon fill="grey" stroke="grey" stroke-width="2" points="438.8,-116.2 445.76,-108.21 435.34,-110.12 438.8,-116.2"/>
</g>
<!-- 42&#45;&gt;0 -->
<g id="edge7" class="edge">
<title>42&#45;&gt;0</title>
<path fill="none" stroke="grey" stroke-width="2" d="M196.13,-74.96C199.07,-73.81 202.06,-72.79 205,-72 315.84,-42.12 670.29,-25.29 786.62,-20.46"/>
<polygon fill="grey" stroke="grey" stroke-width="2" points="786.96,-23.95 796.81,-20.05 786.67,-16.96 786.96,-23.95"/>
</g>
<!-- 43 -->
<g id="node44" class="node">
<title>43</title>
<path fill="none" stroke="#97d856" stroke-width="2" d="M296,-180C296,-180 232,-180 232,-180 226,-180 220,-174 220,-168 220,-168 220,-156 220,-156 220,-150 226,-144 232,-144 232,-144 296,-144 296,-144 302,-144 308,-150 308,-156 308,-156 308,-168 308,-168 308,-174 302,-180 296,-180"/>
<text text-anchor="middle" x="264" y="-159.5" font-family="sans" font-size="10.00">install_eggnog</text>
</g>
<!-- 43&#45;&gt;42 -->
<g id="edge88" class="edge">
<title>43&#45;&gt;42</title>
<path fill="none" stroke="grey" stroke-width="2" d="M240.52,-143.7C228.44,-134.8 213.55,-123.82 200.48,-114.2"/>
<polygon fill="grey" stroke="grey" stroke-width="2" points="202.34,-111.22 192.21,-108.1 198.19,-116.85 202.34,-111.22"/>
</g>
<!-- 43&#45;&gt;44 -->
<g id="edge89" class="edge">
<title>43&#45;&gt;44</title>
<path fill="none" stroke="grey" stroke-width="2" d="M262.02,-143.7C261.14,-135.98 260.08,-126.71 259.1,-118.11"/>
<polygon fill="grey" stroke="grey" stroke-width="2" points="262.57,-117.64 257.95,-108.1 255.61,-118.44 262.57,-117.64"/>
</g>
<!-- 44&#45;&gt;0 -->
<g id="edge11" class="edge">
<title>44&#45;&gt;0</title>
<path fill="none" stroke="grey" stroke-width="2" d="M297.54,-74.33C300.72,-73.46 303.9,-72.67 307,-72 483.97,-33.92 701.1,-22.97 786.74,-20.02"/>
<polygon fill="grey" stroke="grey" stroke-width="2" points="786.88,-23.52 796.76,-19.69 786.65,-16.52 786.88,-23.52"/>
</g>
<!-- 45&#45;&gt;0 -->
<g id="edge14" class="edge">
<title>45&#45;&gt;0</title>
<path fill="none" stroke="grey" stroke-width="2" d="M663.23,-431.9C683.05,-367.49 754.05,-139.78 788,-72 792.66,-62.7 798.72,-53.12 804.53,-44.71"/>
<polygon fill="grey" stroke="grey" stroke-width="2" points="807.48,-46.6 810.43,-36.43 801.78,-42.54 807.48,-46.6"/>
</g>
<!-- 46&#45;&gt;0 -->
<g id="edge18" class="edge">
<title>46&#45;&gt;0</title>
<path fill="none" stroke="grey" stroke-width="2" d="M406.22,-74.13C409.17,-73.35 412.12,-72.63 415,-72 550.29,-42.18 714.71,-27.16 786.94,-21.6"/>
<polygon fill="grey" stroke="grey" stroke-width="2" points="787.21,-25.09 796.92,-20.85 786.68,-18.11 787.21,-25.09"/>
</g>
<!-- 47 -->
<g id="node48" class="node">
<title>47</title>
<path fill="none" stroke="#d87d56" stroke-width="2" d="M491.5,-180C491.5,-180 410.5,-180 410.5,-180 404.5,-180 398.5,-174 398.5,-168 398.5,-168 398.5,-156 398.5,-156 398.5,-150 404.5,-144 410.5,-144 410.5,-144 491.5,-144 491.5,-144 497.5,-144 503.5,-150 503.5,-156 503.5,-156 503.5,-168 503.5,-168 503.5,-174 497.5,-180 491.5,-180"/>
<text text-anchor="middle" x="451" y="-159.5" font-family="sans" font-size="10.00">deeptfactor_setup</text>
</g>
<!-- 47&#45;&gt;46 -->
<g id="edge92" class="edge">
<title>47&#45;&gt;46</title>
<path fill="none" stroke="grey" stroke-width="2" d="M428.75,-143.7C417.42,-134.88 403.47,-124.03 391.18,-114.47"/>
<polygon fill="grey" stroke="grey" stroke-width="2" points="393.03,-111.48 382.99,-108.1 388.74,-117.01 393.03,-111.48"/>
</g>
<!-- 47&#45;&gt;48 -->
<g id="edge95" class="edge">
<title>47&#45;&gt;48</title>
<path fill="none" stroke="grey" stroke-width="2" d="M503.86,-144.92C534.56,-135.42 574.16,-122.89 617.74,-108.01"/>
<polygon fill="grey" stroke="grey" stroke-width="2" points="619.07,-111.26 627.4,-104.7 616.8,-104.64 619.07,-111.26"/>
</g>
<!-- 47&#45;&gt;49 -->
<g id="edge96" class="edge">
<title>47&#45;&gt;49</title>
<path fill="none" stroke="grey" stroke-width="2" d="M457.18,-143.7C460,-135.81 463.39,-126.3 466.52,-117.55"/>
<polygon fill="grey" stroke="grey" stroke-width="2" points="469.82,-118.7 469.89,-108.1 463.23,-116.34 469.82,-118.7"/>
</g>
<!-- 48&#45;&gt;0 -->
<g id="edge15" class="edge">
<title>48&#45;&gt;0</title>
<path fill="none" stroke="grey" stroke-width="2" d="M700.71,-72.94C726.72,-61.56 761.48,-46.35 787.46,-34.99"/>
<polygon fill="grey" stroke="grey" stroke-width="2" points="789.19,-38.05 796.95,-30.84 786.38,-31.64 789.19,-38.05"/>
</g>
<!-- 49&#45;&gt;0 -->
<g id="edge9" class="edge">
<title>49&#45;&gt;0</title>
<path fill="none" stroke="grey" stroke-width="2" d="M528.16,-74.13C531.15,-73.39 534.11,-72.67 537,-72 626.05,-51.41 732.09,-33.53 786.97,-24.75"/>
<polygon fill="grey" stroke="grey" stroke-width="2" points="787.6,-28.2 796.93,-23.17 786.5,-21.28 787.6,-28.2"/>
</g>
<!-- 50&#45;&gt;0 -->
<g id="edge25" class="edge">
<title>50&#45;&gt;0</title>
<path fill="none" stroke="grey" stroke-width="2" d="M152.85,-431.73C138.49,-405.64 114,-354.2 114,-307 114,-307 114,-307 114,-161 114,-120.55 102.55,-98.62 133,-72 182.38,-28.82 649.14,-20.75 786.28,-19.3"/>
<polygon fill="grey" stroke="grey" stroke-width="2" points="786.72,-22.8 796.69,-19.2 786.65,-15.8 786.72,-22.8"/>
</g>
<!-- 51&#45;&gt;0 -->
<g id="edge8" class="edge">
<title>51&#45;&gt;0</title>
<path fill="none" stroke="grey" stroke-width="2" d="M1192.97,-215.98C1168.47,-182.67 1109.26,-108.91 1041,-72 983.05,-40.66 906.45,-27.58 861.47,-22.32"/>
<polygon fill="grey" stroke="grey" stroke-width="2" points="861.62,-18.81 851.29,-21.2 860.85,-25.77 861.62,-18.81"/>
</g>
<!-- 52&#45;&gt;0 -->
<g id="edge6" class="edge">
<title>52&#45;&gt;0</title>
<path fill="none" stroke="grey" stroke-width="2" d="M1798.21,-503.96C1797.04,-477.3 1795,-424.13 1795,-379 1795,-379 1795,-379 1795,-161 1795,-105.06 1757.02,-94.95 1706,-72 1628.22,-37.01 1019.97,-22.82 861.59,-19.69"/>
<polygon fill="grey" stroke="grey" stroke-width="2" points="861.47,-16.19 851.4,-19.49 861.33,-23.19 861.47,-16.19"/>
</g>
</g>
</svg>
