<?xml version="1.0" encoding="UTF-8" standalone="no"?>
<!DOCTYPE svg PUBLIC "-//W3C//DTD SVG 1.1//EN"
 "http://www.w3.org/Graphics/SVG/1.1/DTD/svg11.dtd">
<!-- Generated by graphviz version 2.48.0 (20210717.2242)
 -->
<!-- Title: snakemake_dag Pages: 1 -->
<svg width="599pt" height="548pt"
 viewBox="0.00 0.00 599.00 548.00" xmlns="http://www.w3.org/2000/svg" xmlns:xlink="http://www.w3.org/1999/xlink">
<g id="graph0" class="graph" transform="scale(1 1) rotate(0) translate(4 544)">
<title>snakemake_dag</title>
<polygon fill="white" stroke="transparent" points="-4,4 -4,-544 595,-544 595,4 -4,4"/>
<!-- 0 -->
<g id="node1" class="node">
<title>0</title>
<path fill="none" stroke="#68d856" stroke-width="2" d="M326.5,-36C326.5,-36 296.5,-36 296.5,-36 290.5,-36 284.5,-30 284.5,-24 284.5,-24 284.5,-12 284.5,-12 284.5,-6 290.5,0 296.5,0 296.5,0 326.5,0 326.5,0 332.5,0 338.5,-6 338.5,-12 338.5,-12 338.5,-24 338.5,-24 338.5,-30 332.5,-36 326.5,-36"/>
<text text-anchor="middle" x="311.5" y="-15.5" font-family="sans" font-size="10.00">all</text>
</g>
<!-- 1 -->
<g id="node2" class="node">
<title>1</title>
<path fill="none" stroke="#d8bc56" stroke-width="2" d="M475.5,-468C475.5,-468 445.5,-468 445.5,-468 439.5,-468 433.5,-462 433.5,-456 433.5,-456 433.5,-444 433.5,-444 433.5,-438 439.5,-432 445.5,-432 445.5,-432 475.5,-432 475.5,-432 481.5,-432 487.5,-438 487.5,-444 487.5,-444 487.5,-456 487.5,-456 487.5,-462 481.5,-468 475.5,-468"/>
<text text-anchor="middle" x="460.5" y="-447.5" font-family="sans" font-size="10.00">prokka</text>
</g>
<!-- 1&#45;&gt;0 -->
<g id="edge3" class="edge">
<title>1&#45;&gt;0</title>
<path fill="none" stroke="grey" stroke-width="2" d="M460.5,-431.95C460.5,-405.29 460.5,-352.11 460.5,-307 460.5,-307 460.5,-307 460.5,-161 460.5,-119.66 461,-102.86 433.5,-72 411.43,-47.23 375.72,-33.57 348.62,-26.35"/>
<polygon fill="grey" stroke="grey" stroke-width="2" points="349.25,-22.9 338.7,-23.89 347.56,-29.7 349.25,-22.9"/>
</g>
<!-- 4 -->
<g id="node5" class="node">
<title>4</title>
<path fill="none" stroke="#56d8d0" stroke-width="2" d="M300.5,-396C300.5,-396 256.5,-396 256.5,-396 250.5,-396 244.5,-390 244.5,-384 244.5,-384 244.5,-372 244.5,-372 244.5,-366 250.5,-360 256.5,-360 256.5,-360 300.5,-360 300.5,-360 306.5,-360 312.5,-366 312.5,-372 312.5,-372 312.5,-384 312.5,-384 312.5,-390 306.5,-396 300.5,-396"/>
<text text-anchor="middle" x="278.5" y="-375.5" font-family="sans" font-size="10.00">antismash</text>
</g>
<!-- 1&#45;&gt;4 -->
<g id="edge9" class="edge">
<title>1&#45;&gt;4</title>
<path fill="none" stroke="grey" stroke-width="2" d="M433.25,-438.52C403.88,-427.22 356.71,-409.08 322.16,-395.79"/>
<polygon fill="grey" stroke="grey" stroke-width="2" points="323.37,-392.51 312.78,-392.18 320.85,-399.04 323.37,-392.51"/>
</g>
<!-- 6 -->
<g id="node7" class="node">
<title>6</title>
<path fill="none" stroke="#ced856" stroke-width="2" d="M530.5,-252C530.5,-252 500.5,-252 500.5,-252 494.5,-252 488.5,-246 488.5,-240 488.5,-240 488.5,-228 488.5,-228 488.5,-222 494.5,-216 500.5,-216 500.5,-216 530.5,-216 530.5,-216 536.5,-216 542.5,-222 542.5,-228 542.5,-228 542.5,-240 542.5,-240 542.5,-246 536.5,-252 530.5,-252"/>
<text text-anchor="middle" x="515.5" y="-231.5" font-family="sans" font-size="10.00">roary</text>
</g>
<!-- 1&#45;&gt;6 -->
<g id="edge11" class="edge">
<title>1&#45;&gt;6</title>
<path fill="none" stroke="grey" stroke-width="2" d="M465.08,-431.82C467.83,-421.46 471.39,-407.98 474.5,-396 486.67,-349.09 500.52,-294.41 508.61,-262.36"/>
<polygon fill="grey" stroke="grey" stroke-width="2" points="512.07,-262.96 511.12,-252.4 505.28,-261.25 512.07,-262.96"/>
</g>
<!-- 2 -->
<g id="node3" class="node">
<title>2</title>
<path fill="none" stroke="#56c1d8" stroke-width="2" d="M442,-540C442,-540 335,-540 335,-540 329,-540 323,-534 323,-528 323,-528 323,-516 323,-516 323,-510 329,-504 335,-504 335,-504 442,-504 442,-504 448,-504 454,-510 454,-516 454,-516 454,-528 454,-528 454,-534 448,-540 442,-540"/>
<text text-anchor="middle" x="388.5" y="-519.5" font-family="sans" font-size="10.00">prepare_for_annotation</text>
</g>
<!-- 2&#45;&gt;1 -->
<g id="edge8" class="edge">
<title>2&#45;&gt;1</title>
<path fill="none" stroke="grey" stroke-width="2" d="M406.3,-503.7C415.1,-495.14 425.88,-484.66 435.5,-475.3"/>
<polygon fill="grey" stroke="grey" stroke-width="2" points="438.18,-477.58 442.91,-468.1 433.3,-472.57 438.18,-477.58"/>
</g>
<!-- 3 -->
<g id="node4" class="node">
<title>3</title>
<path fill="none" stroke="#56d86b" stroke-width="2" d="M579,-540C579,-540 484,-540 484,-540 478,-540 472,-534 472,-528 472,-528 472,-516 472,-516 472,-510 478,-504 484,-504 484,-504 579,-504 579,-504 585,-504 591,-510 591,-516 591,-516 591,-528 591,-528 591,-534 585,-540 579,-540"/>
<text text-anchor="middle" x="531.5" y="-519.5" font-family="sans" font-size="10.00">prokka_refseq_setup</text>
</g>
<!-- 3&#45;&gt;1 -->
<g id="edge7" class="edge">
<title>3&#45;&gt;1</title>
<path fill="none" stroke="grey" stroke-width="2" d="M513.95,-503.7C505.27,-495.14 494.64,-484.66 485.15,-475.3"/>
<polygon fill="grey" stroke="grey" stroke-width="2" points="487.43,-472.63 477.85,-468.1 482.51,-477.62 487.43,-472.63"/>
</g>
<!-- 4&#45;&gt;0 -->
<g id="edge6" class="edge">
<title>4&#45;&gt;0</title>
<path fill="none" stroke="grey" stroke-width="2" d="M244.32,-366.29C193.9,-348.12 105.5,-306.11 105.5,-235 105.5,-235 105.5,-235 105.5,-161 105.5,-79.9 215.07,-41.57 274.39,-26.76"/>
<polygon fill="grey" stroke="grey" stroke-width="2" points="275.24,-30.15 284.14,-24.42 273.6,-23.34 275.24,-30.15"/>
</g>
<!-- 7 -->
<g id="node8" class="node">
<title>7</title>
<path fill="none" stroke="#afd856" stroke-width="2" d="M65.5,-324C65.5,-324 29.5,-324 29.5,-324 23.5,-324 17.5,-318 17.5,-312 17.5,-312 17.5,-300 17.5,-300 17.5,-294 23.5,-288 29.5,-288 29.5,-288 65.5,-288 65.5,-288 71.5,-288 77.5,-294 77.5,-300 77.5,-300 77.5,-312 77.5,-312 77.5,-318 71.5,-324 65.5,-324"/>
<text text-anchor="middle" x="47.5" y="-303.5" font-family="sans" font-size="10.00">bigscape</text>
</g>
<!-- 4&#45;&gt;7 -->
<g id="edge13" class="edge">
<title>4&#45;&gt;7</title>
<path fill="none" stroke="grey" stroke-width="2" d="M244.43,-368.36C206.73,-358.56 144.31,-341.64 91.5,-324 90.09,-323.53 88.66,-323.04 87.22,-322.54"/>
<polygon fill="grey" stroke="grey" stroke-width="2" points="88.26,-319.19 77.66,-319.08 85.87,-325.77 88.26,-319.19"/>
</g>
<!-- 9 -->
<g id="node10" class="node">
<title>9</title>
<path fill="none" stroke="#d89c56" stroke-width="2" d="M270.5,-108C270.5,-108 240.5,-108 240.5,-108 234.5,-108 228.5,-102 228.5,-96 228.5,-96 228.5,-84 228.5,-84 228.5,-78 234.5,-72 240.5,-72 240.5,-72 270.5,-72 270.5,-72 276.5,-72 282.5,-78 282.5,-84 282.5,-84 282.5,-96 282.5,-96 282.5,-102 276.5,-108 270.5,-108"/>
<text text-anchor="middle" x="255.5" y="-87.5" font-family="sans" font-size="10.00">bigslice</text>
</g>
<!-- 4&#45;&gt;9 -->
<g id="edge15" class="edge">
<title>4&#45;&gt;9</title>
<path fill="none" stroke="grey" stroke-width="2" d="M275.6,-359.67C271.69,-335.59 264.84,-290.62 261.5,-252 257.47,-205.38 256.15,-150.95 255.71,-118.81"/>
<polygon fill="grey" stroke="grey" stroke-width="2" points="259.21,-118.39 255.59,-108.43 252.21,-118.47 259.21,-118.39"/>
</g>
<!-- 13 -->
<g id="node14" class="node">
<title>13</title>
<path fill="none" stroke="#569ad8" stroke-width="2" d="M354.5,-324C354.5,-324 292.5,-324 292.5,-324 286.5,-324 280.5,-318 280.5,-312 280.5,-312 280.5,-300 280.5,-300 280.5,-294 286.5,-288 292.5,-288 292.5,-288 354.5,-288 354.5,-288 360.5,-288 366.5,-294 366.5,-300 366.5,-300 366.5,-312 366.5,-312 366.5,-318 360.5,-324 354.5,-324"/>
<text text-anchor="middle" x="323.5" y="-303.5" font-family="sans" font-size="10.00">big_slice_prep</text>
</g>
<!-- 4&#45;&gt;13 -->
<g id="edge19" class="edge">
<title>4&#45;&gt;13</title>
<path fill="none" stroke="grey" stroke-width="2" d="M289.62,-359.7C294.86,-351.56 301.2,-341.69 306.98,-332.7"/>
<polygon fill="grey" stroke="grey" stroke-width="2" points="310.04,-334.41 312.5,-324.1 304.15,-330.62 310.04,-334.41"/>
</g>
<!-- 14 -->
<g id="node15" class="node">
<title>14</title>
<path fill="none" stroke="#d85656" stroke-width="2" d="M412,-108C412,-108 317,-108 317,-108 311,-108 305,-102 305,-96 305,-96 305,-84 305,-84 305,-78 311,-72 317,-72 317,-72 412,-72 412,-72 418,-72 424,-78 424,-84 424,-84 424,-96 424,-96 424,-102 418,-108 412,-108"/>
<text text-anchor="middle" x="364.5" y="-87.5" font-family="sans" font-size="10.00">antismash_summary</text>
</g>
<!-- 4&#45;&gt;14 -->
<g id="edge20" class="edge">
<title>4&#45;&gt;14</title>
<path fill="none" stroke="grey" stroke-width="2" d="M312.96,-365.14C333.51,-356.53 358.78,-343.03 375.5,-324 398.16,-298.21 397.17,-285.75 403.5,-252 407.23,-232.14 403.29,-152.45 400.5,-144 397.29,-134.28 391.73,-124.7 385.93,-116.41"/>
<polygon fill="grey" stroke="grey" stroke-width="2" points="388.67,-114.23 379.89,-108.3 383.06,-118.41 388.67,-114.23"/>
</g>
<!-- 5 -->
<g id="node6" class="node">
<title>5</title>
<path fill="none" stroke="#56d8a9" stroke-width="2" d="M325,-468C325,-468 232,-468 232,-468 226,-468 220,-462 220,-456 220,-456 220,-444 220,-444 220,-438 226,-432 232,-432 232,-432 325,-432 325,-432 331,-432 337,-438 337,-444 337,-444 337,-456 337,-456 337,-462 331,-468 325,-468"/>
<text text-anchor="middle" x="278.5" y="-447.5" font-family="sans" font-size="10.00">antismash_db_setup</text>
</g>
<!-- 5&#45;&gt;4 -->
<g id="edge10" class="edge">
<title>5&#45;&gt;4</title>
<path fill="none" stroke="grey" stroke-width="2" d="M278.5,-431.7C278.5,-423.98 278.5,-414.71 278.5,-406.11"/>
<polygon fill="grey" stroke="grey" stroke-width="2" points="282,-406.1 278.5,-396.1 275,-406.1 282,-406.1"/>
</g>
<!-- 6&#45;&gt;0 -->
<g id="edge4" class="edge">
<title>6&#45;&gt;0</title>
<path fill="none" stroke="grey" stroke-width="2" d="M516.19,-215.93C516.54,-183.5 512.56,-112.62 474.5,-72 441.82,-37.12 385.97,-25.14 348.89,-21.06"/>
<polygon fill="grey" stroke="grey" stroke-width="2" points="348.79,-17.54 338.51,-20.07 348.13,-24.51 348.79,-17.54"/>
</g>
<!-- 7&#45;&gt;0 -->
<g id="edge5" class="edge">
<title>7&#45;&gt;0</title>
<path fill="none" stroke="grey" stroke-width="2" d="M45.08,-287.91C40.08,-245.22 33.47,-132.99 91.5,-72 116.3,-45.93 218.27,-30.03 274.26,-23.1"/>
<polygon fill="grey" stroke="grey" stroke-width="2" points="274.97,-26.54 284.48,-21.87 274.13,-19.59 274.97,-26.54"/>
</g>
<!-- 8 -->
<g id="node9" class="node">
<title>8</title>
<path fill="none" stroke="#56d88a" stroke-width="2" d="M83,-396C83,-396 12,-396 12,-396 6,-396 0,-390 0,-384 0,-384 0,-372 0,-372 0,-366 6,-360 12,-360 12,-360 83,-360 83,-360 89,-360 95,-366 95,-372 95,-372 95,-384 95,-384 95,-390 89,-396 83,-396"/>
<text text-anchor="middle" x="47.5" y="-375.5" font-family="sans" font-size="10.00">install_bigscape</text>
</g>
<!-- 8&#45;&gt;7 -->
<g id="edge12" class="edge">
<title>8&#45;&gt;7</title>
<path fill="none" stroke="grey" stroke-width="2" d="M47.5,-359.7C47.5,-351.98 47.5,-342.71 47.5,-334.11"/>
<polygon fill="grey" stroke="grey" stroke-width="2" points="51,-334.1 47.5,-324.1 44,-334.1 51,-334.1"/>
</g>
<!-- 9&#45;&gt;0 -->
<g id="edge2" class="edge">
<title>9&#45;&gt;0</title>
<path fill="none" stroke="grey" stroke-width="2" d="M269.34,-71.7C275.99,-63.39 284.08,-53.28 291.39,-44.14"/>
<polygon fill="grey" stroke="grey" stroke-width="2" points="294.3,-46.1 297.82,-36.1 288.84,-41.73 294.3,-46.1"/>
</g>
<!-- 10 -->
<g id="node11" class="node">
<title>10</title>
<path fill="none" stroke="#567bd8" stroke-width="2" d="M211,-180C211,-180 146,-180 146,-180 140,-180 134,-174 134,-168 134,-168 134,-156 134,-156 134,-150 140,-144 146,-144 146,-144 211,-144 211,-144 217,-144 223,-150 223,-156 223,-156 223,-168 223,-168 223,-174 217,-180 211,-180"/>
<text text-anchor="middle" x="178.5" y="-159.5" font-family="sans" font-size="10.00">install_bigslice</text>
</g>
<!-- 10&#45;&gt;9 -->
<g id="edge16" class="edge">
<title>10&#45;&gt;9</title>
<path fill="none" stroke="grey" stroke-width="2" d="M197.53,-143.7C207.04,-135.05 218.71,-124.45 229.07,-115.03"/>
<polygon fill="grey" stroke="grey" stroke-width="2" points="231.64,-117.42 236.69,-108.1 226.93,-112.24 231.64,-117.42"/>
</g>
<!-- 11 -->
<g id="node12" class="node">
<title>11</title>
<path fill="none" stroke="#d87556" stroke-width="2" d="M379,-180C379,-180 292,-180 292,-180 286,-180 280,-174 280,-168 280,-168 280,-156 280,-156 280,-150 286,-144 292,-144 292,-144 379,-144 379,-144 385,-144 391,-150 391,-156 391,-156 391,-168 391,-168 391,-174 385,-180 379,-180"/>
<text text-anchor="middle" x="335.5" y="-159.5" font-family="sans" font-size="10.00">fix_gtdb_taxonomy</text>
</g>
<!-- 11&#45;&gt;9 -->
<g id="edge14" class="edge">
<title>11&#45;&gt;9</title>
<path fill="none" stroke="grey" stroke-width="2" d="M315.72,-143.7C305.75,-134.97 293.49,-124.24 282.64,-114.75"/>
<polygon fill="grey" stroke="grey" stroke-width="2" points="284.88,-112.06 275.05,-108.1 280.27,-117.32 284.88,-112.06"/>
</g>
<!-- 12 -->
<g id="node13" class="node">
<title>12</title>
<path fill="none" stroke="#88d856" stroke-width="2" d="M382,-252C382,-252 283,-252 283,-252 277,-252 271,-246 271,-240 271,-240 271,-228 271,-228 271,-222 277,-216 283,-216 283,-216 382,-216 382,-216 388,-216 394,-222 394,-228 394,-228 394,-240 394,-240 394,-246 388,-252 382,-252"/>
<text text-anchor="middle" x="332.5" y="-231.5" font-family="sans" font-size="10.00">fetch_gtdb_taxonomy</text>
</g>
<!-- 12&#45;&gt;11 -->
<g id="edge17" class="edge">
<title>12&#45;&gt;11</title>
<path fill="none" stroke="grey" stroke-width="2" d="M333.24,-215.7C333.57,-207.98 333.97,-198.71 334.34,-190.11"/>
<polygon fill="grey" stroke="grey" stroke-width="2" points="337.84,-190.25 334.77,-180.1 330.84,-189.95 337.84,-190.25"/>
</g>
<!-- 13&#45;&gt;12 -->
<g id="edge18" class="edge">
<title>13&#45;&gt;12</title>
<path fill="none" stroke="grey" stroke-width="2" d="M325.72,-287.7C326.72,-279.98 327.91,-270.71 329.01,-262.11"/>
<polygon fill="grey" stroke="grey" stroke-width="2" points="332.5,-262.47 330.3,-252.1 325.55,-261.58 332.5,-262.47"/>
</g>
<!-- 14&#45;&gt;0 -->
<g id="edge1" class="edge">
<title>14&#45;&gt;0</title>
<path fill="none" stroke="grey" stroke-width="2" d="M351.4,-71.7C345.11,-63.39 337.45,-53.28 330.54,-44.14"/>
<polygon fill="grey" stroke="grey" stroke-width="2" points="333.28,-41.96 324.45,-36.1 327.7,-46.19 333.28,-41.96"/>
</g>
</g>
</svg>
