<?xml version="1.0" encoding="UTF-8" standalone="no"?>
<!DOCTYPE svg PUBLIC "-//W3C//DTD SVG 1.1//EN"
 "http://www.w3.org/Graphics/SVG/1.1/DTD/svg11.dtd">
<!-- Generated by graphviz version 2.43.0 (0)
 -->
<!-- Title: snakemake_dag Pages: 1 -->
<svg width="1879pt" height="692pt"
 viewBox="0.00 0.00 1878.93 692.00" xmlns="http://www.w3.org/2000/svg" xmlns:xlink="http://www.w3.org/1999/xlink">
<g id="graph0" class="graph" transform="scale(1 1) rotate(0) translate(4 688)">
<title>snakemake_dag</title>
<polygon fill="white" stroke="transparent" points="-4,4 -4,-688 1874.93,-688 1874.93,4 -4,4"/>
<!-- 0 -->
<g id="node1" class="node">
<title>0</title>
<path fill="none" stroke="#d87556" stroke-width="2" d="M991.93,-36C991.93,-36 961.93,-36 961.93,-36 955.93,-36 949.93,-30 949.93,-24 949.93,-24 949.93,-12 949.93,-12 949.93,-6 955.93,0 961.93,0 961.93,0 991.93,0 991.93,0 997.93,0 1003.93,-6 1003.93,-12 1003.93,-12 1003.93,-24 1003.93,-24 1003.93,-30 997.93,-36 991.93,-36"/>
<text text-anchor="middle" x="976.93" y="-15.5" font-family="sans" font-size="10.00">all</text>
</g>
<!-- 1 -->
<g id="node2" class="node">
<title>1</title>
<path fill="none" stroke="#568ad8" stroke-width="2" d="M635.93,-396C635.93,-396 549.93,-396 549.93,-396 543.93,-396 537.93,-390 537.93,-384 537.93,-384 537.93,-372 537.93,-372 537.93,-366 543.93,-360 549.93,-360 549.93,-360 635.93,-360 635.93,-360 641.93,-360 647.93,-366 647.93,-372 647.93,-372 647.93,-384 647.93,-384 647.93,-390 641.93,-396 635.93,-396"/>
<text text-anchor="middle" x="592.93" y="-375.5" font-family="sans" font-size="10.00">fix_gtdb_taxonomy</text>
</g>
<!-- 1&#45;&gt;0 -->
<g id="edge24" class="edge">
<title>1&#45;&gt;0</title>
<path fill="none" stroke="grey" stroke-width="2" d="M537.87,-375.46C449.77,-369.74 286.93,-344.37 286.93,-235 286.93,-235 286.93,-235 286.93,-161 286.93,-101.83 331.69,-95.63 385.93,-72 486,-28.41 825.37,-20.67 939.29,-19.3"/>
<polygon fill="grey" stroke="grey" stroke-width="2" points="939.63,-22.79 949.6,-19.18 939.56,-15.79 939.63,-22.79"/>
</g>
<!-- 19 -->
<g id="node20" class="node">
<title>19</title>
<path fill="none" stroke="#56d88a" stroke-width="2" d="M644.43,-324C644.43,-324 541.43,-324 541.43,-324 535.43,-324 529.43,-318 529.43,-312 529.43,-312 529.43,-300 529.43,-300 529.43,-294 535.43,-288 541.43,-288 541.43,-288 644.43,-288 644.43,-288 650.43,-288 656.43,-294 656.43,-300 656.43,-300 656.43,-312 656.43,-312 656.43,-318 650.43,-324 644.43,-324"/>
<text text-anchor="middle" x="592.93" y="-303.5" font-family="sans" font-size="10.00">downstream_bgc_prep</text>
</g>
<!-- 1&#45;&gt;19 -->
<g id="edge45" class="edge">
<title>1&#45;&gt;19</title>
<path fill="none" stroke="grey" stroke-width="2" d="M592.93,-359.7C592.93,-351.98 592.93,-342.71 592.93,-334.11"/>
<polygon fill="grey" stroke="grey" stroke-width="2" points="596.43,-334.1 592.93,-324.1 589.43,-334.1 596.43,-334.1"/>
</g>
<!-- 2 -->
<g id="node3" class="node">
<title>2</title>
<path fill="none" stroke="#56b1d8" stroke-width="2" d="M772.43,-540C772.43,-540 731.43,-540 731.43,-540 725.43,-540 719.43,-534 719.43,-528 719.43,-528 719.43,-516 719.43,-516 719.43,-510 725.43,-504 731.43,-504 731.43,-504 772.43,-504 772.43,-504 778.43,-504 784.43,-510 784.43,-516 784.43,-516 784.43,-528 784.43,-528 784.43,-534 778.43,-540 772.43,-540"/>
<text text-anchor="middle" x="751.93" y="-519.5" font-family="sans" font-size="10.00">gtdb_prep</text>
</g>
<!-- 2&#45;&gt;1 -->
<g id="edge27" class="edge">
<title>2&#45;&gt;1</title>
<path fill="none" stroke="grey" stroke-width="2" d="M743.59,-503.77C733.52,-484.38 715.03,-452.86 691.93,-432 678.14,-419.55 660.9,-409.02 644.69,-400.71"/>
<polygon fill="grey" stroke="grey" stroke-width="2" points="645.81,-397.36 635.3,-396.08 642.72,-403.64 645.81,-397.36"/>
</g>
<!-- 14 -->
<g id="node15" class="node">
<title>14</title>
<path fill="none" stroke="#d86e56" stroke-width="2" d="M1033.43,-468C1033.43,-468 984.43,-468 984.43,-468 978.43,-468 972.43,-462 972.43,-456 972.43,-456 972.43,-444 972.43,-444 972.43,-438 978.43,-432 984.43,-432 984.43,-432 1033.43,-432 1033.43,-432 1039.43,-432 1045.43,-438 1045.43,-444 1045.43,-444 1045.43,-456 1045.43,-456 1045.43,-462 1039.43,-468 1033.43,-468"/>
<text text-anchor="middle" x="1008.93" y="-447.5" font-family="sans" font-size="10.00">format_gbk</text>
</g>
<!-- 2&#45;&gt;14 -->
<g id="edge37" class="edge">
<title>2&#45;&gt;14</title>
<path fill="none" stroke="grey" stroke-width="2" d="M784.45,-509.13C789.92,-507.3 795.56,-505.52 800.93,-504 869.25,-484.67 890.97,-488.75 962.32,-468.26"/>
<polygon fill="grey" stroke="grey" stroke-width="2" points="963.63,-471.53 972.24,-465.35 961.66,-464.81 963.63,-471.53"/>
</g>
<!-- 3 -->
<g id="node4" class="node">
<title>3</title>
<path fill="none" stroke="#56d863" stroke-width="2" d="M170.93,-108C170.93,-108 42.93,-108 42.93,-108 36.93,-108 30.93,-102 30.93,-96 30.93,-96 30.93,-84 30.93,-84 30.93,-78 36.93,-72 42.93,-72 42.93,-72 170.93,-72 170.93,-72 176.93,-72 182.93,-78 182.93,-84 182.93,-84 182.93,-96 182.93,-96 182.93,-102 176.93,-108 170.93,-108"/>
<text text-anchor="middle" x="106.93" y="-87.5" font-family="sans" font-size="10.00">write_dependency_versions</text>
</g>
<!-- 3&#45;&gt;0 -->
<g id="edge11" class="edge">
<title>3&#45;&gt;0</title>
<path fill="none" stroke="grey" stroke-width="2" d="M182.94,-73.99C187.67,-73.26 192.36,-72.59 196.93,-72 481.26,-35.62 827.3,-23.19 939.73,-19.96"/>
<polygon fill="grey" stroke="grey" stroke-width="2" points="939.98,-23.45 949.88,-19.67 939.78,-16.46 939.98,-23.45"/>
</g>
<!-- 4 -->
<g id="node5" class="node">
<title>4</title>
<path fill="none" stroke="#56a2d8" stroke-width="2" d="M870.43,-540C870.43,-540 821.43,-540 821.43,-540 815.43,-540 809.43,-534 809.43,-528 809.43,-528 809.43,-516 809.43,-516 809.43,-510 815.43,-504 821.43,-504 821.43,-504 870.43,-504 870.43,-504 876.43,-504 882.43,-510 882.43,-516 882.43,-516 882.43,-528 882.43,-528 882.43,-534 876.43,-540 870.43,-540"/>
<text text-anchor="middle" x="845.93" y="-519.5" font-family="sans" font-size="10.00">seqfu_stats</text>
</g>
<!-- 4&#45;&gt;0 -->
<g id="edge23" class="edge">
<title>4&#45;&gt;0</title>
<path fill="none" stroke="grey" stroke-width="2" d="M838.44,-503.89C827.63,-477.58 808.93,-425.37 808.93,-379 808.93,-379 808.93,-379 808.93,-305 808.93,-292.79 899.36,-118.12 930.93,-72 937.57,-62.3 945.74,-52.39 953.34,-43.79"/>
<polygon fill="grey" stroke="grey" stroke-width="2" points="955.99,-46.08 960.1,-36.32 950.8,-41.39 955.99,-46.08"/>
</g>
<!-- 5 -->
<g id="node6" class="node">
<title>5</title>
<path fill="none" stroke="#78d856" stroke-width="2" d="M1116.93,-684C1116.93,-684 1006.93,-684 1006.93,-684 1000.93,-684 994.93,-678 994.93,-672 994.93,-672 994.93,-660 994.93,-660 994.93,-654 1000.93,-648 1006.93,-648 1006.93,-648 1116.93,-648 1116.93,-648 1122.93,-648 1128.93,-654 1128.93,-660 1128.93,-660 1128.93,-672 1128.93,-672 1128.93,-678 1122.93,-684 1116.93,-684"/>
<text text-anchor="middle" x="1061.93" y="-663.5" font-family="sans" font-size="10.00">ncbi_genome_download</text>
</g>
<!-- 5&#45;&gt;4 -->
<g id="edge28" class="edge">
<title>5&#45;&gt;4</title>
<path fill="none" stroke="grey" stroke-width="2" d="M1035.88,-647.87C997.04,-622.34 923.89,-574.25 880.58,-545.78"/>
<polygon fill="grey" stroke="grey" stroke-width="2" points="882.36,-542.76 872.08,-540.19 878.51,-548.61 882.36,-542.76"/>
</g>
<!-- 6 -->
<g id="node7" class="node">
<title>6</title>
<path fill="none" stroke="#56d0d8" stroke-width="2" d="M1794.93,-396C1794.93,-396 1764.93,-396 1764.93,-396 1758.93,-396 1752.93,-390 1752.93,-384 1752.93,-384 1752.93,-372 1752.93,-372 1752.93,-366 1758.93,-360 1764.93,-360 1764.93,-360 1794.93,-360 1794.93,-360 1800.93,-360 1806.93,-366 1806.93,-372 1806.93,-372 1806.93,-384 1806.93,-384 1806.93,-390 1800.93,-396 1794.93,-396"/>
<text text-anchor="middle" x="1779.93" y="-375.5" font-family="sans" font-size="10.00">mlst</text>
</g>
<!-- 5&#45;&gt;6 -->
<g id="edge29" class="edge">
<title>5&#45;&gt;6</title>
<path fill="none" stroke="grey" stroke-width="2" d="M1129.26,-664.72C1228.62,-662.82 1419.64,-653.47 1575.93,-612 1652.48,-591.69 1687.78,-600.47 1738.93,-540 1771.2,-501.85 1778.57,-441.6 1779.97,-406.63"/>
<polygon fill="grey" stroke="grey" stroke-width="2" points="1783.47,-406.31 1780.23,-396.23 1776.48,-406.14 1783.47,-406.31"/>
</g>
<!-- 7 -->
<g id="node8" class="node">
<title>7</title>
<path fill="none" stroke="#56d8d0" stroke-width="2" d="M344.43,-540C344.43,-540 279.43,-540 279.43,-540 273.43,-540 267.43,-534 267.43,-528 267.43,-528 267.43,-516 267.43,-516 267.43,-510 273.43,-504 279.43,-504 279.43,-504 344.43,-504 344.43,-504 350.43,-504 356.43,-510 356.43,-516 356.43,-516 356.43,-528 356.43,-528 356.43,-534 350.43,-540 344.43,-540"/>
<text text-anchor="middle" x="311.93" y="-519.5" font-family="sans" font-size="10.00">refseq_masher</text>
</g>
<!-- 5&#45;&gt;7 -->
<g id="edge30" class="edge">
<title>5&#45;&gt;7</title>
<path fill="none" stroke="grey" stroke-width="2" d="M994.82,-660.44C907.39,-653.71 750.1,-638.92 617.93,-612 528.32,-593.75 426.85,-561.96 366.2,-541.73"/>
<polygon fill="grey" stroke="grey" stroke-width="2" points="367.06,-538.32 356.46,-538.46 364.83,-544.96 367.06,-538.32"/>
</g>
<!-- 8 -->
<g id="node9" class="node">
<title>8</title>
<path fill="none" stroke="#88d856" stroke-width="2" d="M431.93,-468C431.93,-468 401.93,-468 401.93,-468 395.93,-468 389.93,-462 389.93,-456 389.93,-456 389.93,-444 389.93,-444 389.93,-438 395.93,-432 401.93,-432 401.93,-432 431.93,-432 431.93,-432 437.93,-432 443.93,-438 443.93,-444 443.93,-444 443.93,-456 443.93,-456 443.93,-462 437.93,-468 431.93,-468"/>
<text text-anchor="middle" x="416.93" y="-447.5" font-family="sans" font-size="10.00">mash</text>
</g>
<!-- 5&#45;&gt;8 -->
<g id="edge31" class="edge">
<title>5&#45;&gt;8</title>
<path fill="none" stroke="grey" stroke-width="2" d="M994.62,-665.01C913.69,-663.02 774.88,-653.13 663.93,-612 576.01,-579.4 487.44,-511.01 444.17,-474.75"/>
<polygon fill="grey" stroke="grey" stroke-width="2" points="446.27,-471.95 436.38,-468.16 441.75,-477.29 446.27,-471.95"/>
</g>
<!-- 9 -->
<g id="node10" class="node">
<title>9</title>
<path fill="none" stroke="#56d8c1" stroke-width="2" d="M396.93,-396C396.93,-396 366.93,-396 366.93,-396 360.93,-396 354.93,-390 354.93,-384 354.93,-384 354.93,-372 354.93,-372 354.93,-366 360.93,-360 366.93,-360 366.93,-360 396.93,-360 396.93,-360 402.93,-360 408.93,-366 408.93,-372 408.93,-372 408.93,-384 408.93,-384 408.93,-390 402.93,-396 396.93,-396"/>
<text text-anchor="middle" x="381.93" y="-375.5" font-family="sans" font-size="10.00">fastani</text>
</g>
<!-- 5&#45;&gt;9 -->
<g id="edge32" class="edge">
<title>5&#45;&gt;9</title>
<path fill="none" stroke="grey" stroke-width="2" d="M1008.29,-647.99C938.82,-625.49 814.36,-583.56 710.93,-540 602.18,-494.2 478.21,-430.2 418.24,-398.45"/>
<polygon fill="grey" stroke="grey" stroke-width="2" points="419.65,-395.24 409.17,-393.64 416.37,-401.42 419.65,-395.24"/>
</g>
<!-- 11 -->
<g id="node12" class="node">
<title>11</title>
<path fill="none" stroke="#d8ac56" stroke-width="2" d="M1841.43,-612C1841.43,-612 1810.43,-612 1810.43,-612 1804.43,-612 1798.43,-606 1798.43,-600 1798.43,-600 1798.43,-588 1798.43,-588 1798.43,-582 1804.43,-576 1810.43,-576 1810.43,-576 1841.43,-576 1841.43,-576 1847.43,-576 1853.43,-582 1853.43,-588 1853.43,-588 1853.43,-600 1853.43,-600 1853.43,-606 1847.43,-612 1841.43,-612"/>
<text text-anchor="middle" x="1825.93" y="-591.5" font-family="sans" font-size="10.00">checkm</text>
</g>
<!-- 5&#45;&gt;11 -->
<g id="edge34" class="edge">
<title>5&#45;&gt;11</title>
<path fill="none" stroke="grey" stroke-width="2" d="M1129.15,-662.38C1282.82,-656 1656.03,-638.25 1778.93,-612 1781.97,-611.35 1785.08,-610.55 1788.19,-609.65"/>
<polygon fill="grey" stroke="grey" stroke-width="2" points="1789.51,-612.91 1797.96,-606.53 1787.37,-606.24 1789.51,-612.91"/>
</g>
<!-- 15 -->
<g id="node16" class="node">
<title>15</title>
<path fill="none" stroke="#d8b456" stroke-width="2" d="M1243.93,-540C1243.93,-540 1213.93,-540 1213.93,-540 1207.93,-540 1201.93,-534 1201.93,-528 1201.93,-528 1201.93,-516 1201.93,-516 1201.93,-510 1207.93,-504 1213.93,-504 1213.93,-504 1243.93,-504 1243.93,-504 1249.93,-504 1255.93,-510 1255.93,-516 1255.93,-516 1255.93,-528 1255.93,-528 1255.93,-534 1249.93,-540 1243.93,-540"/>
<text text-anchor="middle" x="1228.93" y="-519.5" font-family="sans" font-size="10.00">prokka</text>
</g>
<!-- 5&#45;&gt;15 -->
<g id="edge39" class="edge">
<title>5&#45;&gt;15</title>
<path fill="none" stroke="grey" stroke-width="2" d="M1129.09,-654.66C1176.55,-645.83 1234.23,-631.45 1248.93,-612 1262.64,-593.87 1254.69,-568.1 1245.06,-548.95"/>
<polygon fill="grey" stroke="grey" stroke-width="2" points="1248.13,-547.26 1240.29,-540.14 1241.98,-550.6 1248.13,-547.26"/>
</g>
<!-- 16 -->
<g id="node17" class="node">
<title>16</title>
<path fill="none" stroke="#d85656" stroke-width="2" d="M1109.93,-612C1109.93,-612 1013.93,-612 1013.93,-612 1007.93,-612 1001.93,-606 1001.93,-600 1001.93,-600 1001.93,-588 1001.93,-588 1001.93,-582 1007.93,-576 1013.93,-576 1013.93,-576 1109.93,-576 1109.93,-576 1115.93,-576 1121.93,-582 1121.93,-588 1121.93,-588 1121.93,-600 1121.93,-600 1121.93,-606 1115.93,-612 1109.93,-612"/>
<text text-anchor="middle" x="1061.93" y="-591.5" font-family="sans" font-size="10.00">extract_meta_prokka</text>
</g>
<!-- 5&#45;&gt;16 -->
<g id="edge42" class="edge">
<title>5&#45;&gt;16</title>
<path fill="none" stroke="grey" stroke-width="2" d="M1061.93,-647.7C1061.93,-639.98 1061.93,-630.71 1061.93,-622.11"/>
<polygon fill="grey" stroke="grey" stroke-width="2" points="1065.43,-622.1 1061.93,-612.1 1058.43,-622.1 1065.43,-622.1"/>
</g>
<!-- 48 -->
<g id="node49" class="node">
<title>48</title>
<path fill="none" stroke="#d85e56" stroke-width="2" d="M1554.43,-612C1554.43,-612 1439.43,-612 1439.43,-612 1433.43,-612 1427.43,-606 1427.43,-600 1427.43,-600 1427.43,-588 1427.43,-588 1427.43,-582 1433.43,-576 1439.43,-576 1439.43,-576 1554.43,-576 1554.43,-576 1560.43,-576 1566.43,-582 1566.43,-588 1566.43,-588 1566.43,-600 1566.43,-600 1566.43,-606 1560.43,-612 1554.43,-612"/>
<text text-anchor="middle" x="1496.93" y="-591.5" font-family="sans" font-size="10.00">extract_ncbi_information</text>
</g>
<!-- 5&#45;&gt;48 -->
<g id="edge81" class="edge">
<title>5&#45;&gt;48</title>
<path fill="none" stroke="grey" stroke-width="2" d="M1128.95,-654.22C1206.62,-641.72 1334.51,-621.14 1417.21,-607.83"/>
<polygon fill="grey" stroke="grey" stroke-width="2" points="1418,-611.25 1427.32,-606.2 1416.89,-604.34 1418,-611.25"/>
</g>
<!-- 6&#45;&gt;0 -->
<g id="edge20" class="edge">
<title>6&#45;&gt;0</title>
<path fill="none" stroke="grey" stroke-width="2" d="M1778.35,-359.97C1776.02,-333.33 1771.93,-280.19 1771.93,-235 1771.93,-235 1771.93,-235 1771.93,-161 1771.93,-118.81 1772.7,-97.28 1738.93,-72 1680.54,-28.29 1159.78,-20.57 1014.45,-19.26"/>
<polygon fill="grey" stroke="grey" stroke-width="2" points="1014.28,-15.76 1004.25,-19.17 1014.22,-22.75 1014.28,-15.76"/>
</g>
<!-- 7&#45;&gt;0 -->
<g id="edge19" class="edge">
<title>7&#45;&gt;0</title>
<path fill="none" stroke="grey" stroke-width="2" d="M267.33,-520.25C181.76,-516.2 2.93,-493.98 2.93,-379 2.93,-379 2.93,-379 2.93,-161 2.93,-120.55 -8.8,-98.3 21.93,-72 57.38,-41.66 766.93,-23.74 939.4,-19.82"/>
<polygon fill="grey" stroke="grey" stroke-width="2" points="939.6,-23.31 949.51,-19.59 939.44,-16.32 939.6,-23.31"/>
</g>
<!-- 8&#45;&gt;0 -->
<g id="edge8" class="edge">
<title>8&#45;&gt;0</title>
<path fill="none" stroke="grey" stroke-width="2" d="M389.58,-443.58C333.54,-430.72 210.93,-392.79 210.93,-307 210.93,-307 210.93,-307 210.93,-161 210.93,-116.06 221.22,-96.44 258.93,-72 316.31,-34.82 800.1,-22.48 939.49,-19.68"/>
<polygon fill="grey" stroke="grey" stroke-width="2" points="939.74,-23.17 949.67,-19.48 939.6,-16.17 939.74,-23.17"/>
</g>
<!-- 9&#45;&gt;0 -->
<g id="edge17" class="edge">
<title>9&#45;&gt;0</title>
<path fill="none" stroke="grey" stroke-width="2" d="M354.7,-363.5C315.79,-342.06 248.93,-296.31 248.93,-235 248.93,-235 248.93,-235 248.93,-161 248.93,-114.03 265.64,-96.15 305.93,-72 360.4,-39.35 806.12,-23.94 939.42,-20.03"/>
<polygon fill="grey" stroke="grey" stroke-width="2" points="939.65,-23.52 949.54,-19.73 939.45,-16.52 939.65,-23.52"/>
</g>
<!-- 10 -->
<g id="node11" class="node">
<title>10</title>
<path fill="none" stroke="#d89556" stroke-width="2" d="M1857.93,-540C1857.93,-540 1805.93,-540 1805.93,-540 1799.93,-540 1793.93,-534 1793.93,-528 1793.93,-528 1793.93,-516 1793.93,-516 1793.93,-510 1799.93,-504 1805.93,-504 1805.93,-504 1857.93,-504 1857.93,-504 1863.93,-504 1869.93,-510 1869.93,-516 1869.93,-516 1869.93,-528 1869.93,-528 1869.93,-534 1863.93,-540 1857.93,-540"/>
<text text-anchor="middle" x="1831.93" y="-519.5" font-family="sans" font-size="10.00">checkm_out</text>
</g>
<!-- 10&#45;&gt;0 -->
<g id="edge2" class="edge">
<title>10&#45;&gt;0</title>
<path fill="none" stroke="grey" stroke-width="2" d="M1832.52,-503.95C1833.4,-477.3 1834.93,-424.12 1834.93,-379 1834.93,-379 1834.93,-379 1834.93,-161 1834.93,-111.22 1810.79,-95.55 1766.93,-72 1700.17,-36.16 1162.41,-22.74 1014.48,-19.71"/>
<polygon fill="grey" stroke="grey" stroke-width="2" points="1014.19,-16.2 1004.12,-19.5 1014.04,-23.2 1014.19,-16.2"/>
</g>
<!-- 11&#45;&gt;10 -->
<g id="edge33" class="edge">
<title>11&#45;&gt;10</title>
<path fill="none" stroke="grey" stroke-width="2" d="M1827.41,-575.7C1828.08,-567.98 1828.87,-558.71 1829.61,-550.11"/>
<polygon fill="grey" stroke="grey" stroke-width="2" points="1833.1,-550.37 1830.47,-540.1 1826.12,-549.77 1833.1,-550.37"/>
</g>
<!-- 12 -->
<g id="node13" class="node">
<title>12</title>
<path fill="none" stroke="#d8bc56" stroke-width="2" d="M1858.93,-684C1858.93,-684 1792.93,-684 1792.93,-684 1786.93,-684 1780.93,-678 1780.93,-672 1780.93,-672 1780.93,-660 1780.93,-660 1780.93,-654 1786.93,-648 1792.93,-648 1792.93,-648 1858.93,-648 1858.93,-648 1864.93,-648 1870.93,-654 1870.93,-660 1870.93,-660 1870.93,-672 1870.93,-672 1870.93,-678 1864.93,-684 1858.93,-684"/>
<text text-anchor="middle" x="1825.93" y="-663.5" font-family="sans" font-size="10.00">install_checkm</text>
</g>
<!-- 12&#45;&gt;11 -->
<g id="edge35" class="edge">
<title>12&#45;&gt;11</title>
<path fill="none" stroke="grey" stroke-width="2" d="M1825.93,-647.7C1825.93,-639.98 1825.93,-630.71 1825.93,-622.11"/>
<polygon fill="grey" stroke="grey" stroke-width="2" points="1829.43,-622.1 1825.93,-612.1 1822.43,-622.1 1829.43,-622.1"/>
</g>
<!-- 13 -->
<g id="node14" class="node">
<title>13</title>
<path fill="none" stroke="#d6d856" stroke-width="2" d="M1022.43,-396C1022.43,-396 945.43,-396 945.43,-396 939.43,-396 933.43,-390 933.43,-384 933.43,-384 933.43,-372 933.43,-372 933.43,-366 939.43,-360 945.43,-360 945.43,-360 1022.43,-360 1022.43,-360 1028.43,-360 1034.43,-366 1034.43,-372 1034.43,-372 1034.43,-384 1034.43,-384 1034.43,-390 1028.43,-396 1022.43,-396"/>
<text text-anchor="middle" x="983.93" y="-375.5" font-family="sans" font-size="10.00">copy_prokka_gbk</text>
</g>
<!-- 13&#45;&gt;0 -->
<g id="edge4" class="edge">
<title>13&#45;&gt;0</title>
<path fill="none" stroke="grey" stroke-width="2" d="M978.63,-359.88C973.85,-341.67 968.6,-312.2 975.93,-288 981.5,-269.6 994.36,-270.4 999.93,-252 1021.8,-179.79 999.86,-89.8 986.15,-45.78"/>
<polygon fill="grey" stroke="grey" stroke-width="2" points="989.43,-44.55 983.04,-36.11 982.77,-46.7 989.43,-44.55"/>
</g>
<!-- 14&#45;&gt;13 -->
<g id="edge36" class="edge">
<title>14&#45;&gt;13</title>
<path fill="none" stroke="grey" stroke-width="2" d="M1002.75,-431.7C999.94,-423.81 996.54,-414.3 993.41,-405.55"/>
<polygon fill="grey" stroke="grey" stroke-width="2" points="996.7,-404.34 990.04,-396.1 990.11,-406.7 996.7,-404.34"/>
</g>
<!-- 20 -->
<g id="node21" class="node">
<title>20</title>
<path fill="none" stroke="#b6d856" stroke-width="2" d="M902.93,-396C902.93,-396 858.93,-396 858.93,-396 852.93,-396 846.93,-390 846.93,-384 846.93,-384 846.93,-372 846.93,-372 846.93,-366 852.93,-360 858.93,-360 858.93,-360 902.93,-360 902.93,-360 908.93,-360 914.93,-366 914.93,-372 914.93,-372 914.93,-384 914.93,-384 914.93,-390 908.93,-396 902.93,-396"/>
<text text-anchor="middle" x="880.93" y="-375.5" font-family="sans" font-size="10.00">antismash</text>
</g>
<!-- 14&#45;&gt;20 -->
<g id="edge47" class="edge">
<title>14&#45;&gt;20</title>
<path fill="none" stroke="grey" stroke-width="2" d="M977.62,-431.88C960.73,-422.64 939.69,-411.13 921.55,-401.21"/>
<polygon fill="grey" stroke="grey" stroke-width="2" points="922.82,-397.92 912.36,-396.19 919.46,-404.06 922.82,-397.92"/>
</g>
<!-- 33 -->
<g id="node34" class="node">
<title>33</title>
<path fill="none" stroke="#56d8a9" stroke-width="2" d="M1150.93,-396C1150.93,-396 1064.93,-396 1064.93,-396 1058.93,-396 1052.93,-390 1052.93,-384 1052.93,-384 1052.93,-372 1052.93,-372 1052.93,-366 1058.93,-360 1064.93,-360 1064.93,-360 1150.93,-360 1150.93,-360 1156.93,-360 1162.93,-366 1162.93,-372 1162.93,-372 1162.93,-384 1162.93,-384 1162.93,-390 1156.93,-396 1150.93,-396"/>
<text text-anchor="middle" x="1107.93" y="-375.5" font-family="sans" font-size="10.00">prep_automlst_gbk</text>
</g>
<!-- 14&#45;&gt;33 -->
<g id="edge63" class="edge">
<title>14&#45;&gt;33</title>
<path fill="none" stroke="grey" stroke-width="2" d="M1033.15,-431.88C1045.85,-422.89 1061.6,-411.76 1075.35,-402.03"/>
<polygon fill="grey" stroke="grey" stroke-width="2" points="1077.48,-404.82 1083.62,-396.19 1073.43,-399.11 1077.48,-404.82"/>
</g>
<!-- 15&#45;&gt;14 -->
<g id="edge38" class="edge">
<title>15&#45;&gt;14</title>
<path fill="none" stroke="grey" stroke-width="2" d="M1201.51,-512.28C1164.89,-500.62 1099.49,-479.81 1055.17,-465.71"/>
<polygon fill="grey" stroke="grey" stroke-width="2" points="1056.09,-462.33 1045.5,-462.63 1053.97,-469 1056.09,-462.33"/>
</g>
<!-- 37 -->
<g id="node38" class="node">
<title>37</title>
<path fill="none" stroke="#566bd8" stroke-width="2" d="M1437.93,-180C1437.93,-180 1407.93,-180 1407.93,-180 1401.93,-180 1395.93,-174 1395.93,-168 1395.93,-168 1395.93,-156 1395.93,-156 1395.93,-150 1401.93,-144 1407.93,-144 1407.93,-144 1437.93,-144 1437.93,-144 1443.93,-144 1449.93,-150 1449.93,-156 1449.93,-156 1449.93,-168 1449.93,-168 1449.93,-174 1443.93,-180 1437.93,-180"/>
<text text-anchor="middle" x="1422.93" y="-159.5" font-family="sans" font-size="10.00">roary</text>
</g>
<!-- 15&#45;&gt;37 -->
<g id="edge67" class="edge">
<title>15&#45;&gt;37</title>
<path fill="none" stroke="grey" stroke-width="2" d="M1256.08,-518.59C1289.85,-514.19 1347.27,-501.92 1381.93,-468 1412.08,-438.49 1414.93,-421.19 1414.93,-379 1414.93,-379 1414.93,-379 1414.93,-305 1414.93,-264.93 1418.15,-218.61 1420.5,-190.05"/>
<polygon fill="grey" stroke="grey" stroke-width="2" points="1423.99,-190.29 1421.35,-180.03 1417.02,-189.7 1423.99,-190.29"/>
</g>
<!-- 38 -->
<g id="node39" class="node">
<title>38</title>
<path fill="none" stroke="#61d856" stroke-width="2" d="M1223.93,-108C1223.93,-108 1193.93,-108 1193.93,-108 1187.93,-108 1181.93,-102 1181.93,-96 1181.93,-96 1181.93,-84 1181.93,-84 1181.93,-78 1187.93,-72 1193.93,-72 1193.93,-72 1223.93,-72 1223.93,-72 1229.93,-72 1235.93,-78 1235.93,-84 1235.93,-84 1235.93,-96 1235.93,-96 1235.93,-102 1229.93,-108 1223.93,-108"/>
<text text-anchor="middle" x="1208.93" y="-87.5" font-family="sans" font-size="10.00">eggnog</text>
</g>
<!-- 15&#45;&gt;38 -->
<g id="edge69" class="edge">
<title>15&#45;&gt;38</title>
<path fill="none" stroke="grey" stroke-width="2" d="M1228.93,-503.95C1228.93,-477.29 1228.93,-424.11 1228.93,-379 1228.93,-379 1228.93,-379 1228.93,-305 1228.93,-237.52 1218.95,-158.59 1213.09,-118.06"/>
<polygon fill="grey" stroke="grey" stroke-width="2" points="1216.55,-117.53 1211.63,-108.15 1209.63,-118.55 1216.55,-117.53"/>
</g>
<!-- 41 -->
<g id="node42" class="node">
<title>41</title>
<path fill="none" stroke="#56d873" stroke-width="2" d="M1614.43,-468C1614.43,-468 1525.43,-468 1525.43,-468 1519.43,-468 1513.43,-462 1513.43,-456 1513.43,-456 1513.43,-444 1513.43,-444 1513.43,-438 1519.43,-432 1525.43,-432 1525.43,-432 1614.43,-432 1614.43,-432 1620.43,-432 1626.43,-438 1626.43,-444 1626.43,-444 1626.43,-456 1626.43,-456 1626.43,-462 1620.43,-468 1614.43,-468"/>
<text text-anchor="middle" x="1569.93" y="-447.5" font-family="sans" font-size="10.00">create_diamond_db</text>
</g>
<!-- 15&#45;&gt;41 -->
<g id="edge72" class="edge">
<title>15&#45;&gt;41</title>
<path fill="none" stroke="grey" stroke-width="2" d="M1255.97,-515.45C1309.04,-504.56 1428.19,-480.1 1503.49,-464.64"/>
<polygon fill="grey" stroke="grey" stroke-width="2" points="1504.27,-468.05 1513.36,-462.61 1502.86,-461.2 1504.27,-468.05"/>
</g>
<!-- 44 -->
<g id="node45" class="node">
<title>44</title>
<path fill="none" stroke="#bed856" stroke-width="2" d="M1416.43,-108C1416.43,-108 1367.43,-108 1367.43,-108 1361.43,-108 1355.43,-102 1355.43,-96 1355.43,-96 1355.43,-84 1355.43,-84 1355.43,-78 1361.43,-72 1367.43,-72 1367.43,-72 1416.43,-72 1416.43,-72 1422.43,-72 1428.43,-78 1428.43,-84 1428.43,-84 1428.43,-96 1428.43,-96 1428.43,-102 1422.43,-108 1416.43,-108"/>
<text text-anchor="middle" x="1391.93" y="-87.5" font-family="sans" font-size="10.00">deeptfactor</text>
</g>
<!-- 15&#45;&gt;44 -->
<g id="edge76" class="edge">
<title>15&#45;&gt;44</title>
<path fill="none" stroke="grey" stroke-width="2" d="M1256.06,-508.52C1296.51,-487.81 1367.93,-442.3 1367.93,-379 1367.93,-379 1367.93,-379 1367.93,-233 1367.93,-192.65 1377.47,-146.74 1384.52,-118.32"/>
<polygon fill="grey" stroke="grey" stroke-width="2" points="1387.99,-118.88 1387.08,-108.33 1381.21,-117.15 1387.99,-118.88"/>
</g>
<!-- 46 -->
<g id="node47" class="node">
<title>46</title>
<path fill="none" stroke="#a7d856" stroke-width="2" d="M1188.93,-468C1188.93,-468 1094.93,-468 1094.93,-468 1088.93,-468 1082.93,-462 1082.93,-456 1082.93,-456 1082.93,-444 1082.93,-444 1082.93,-438 1088.93,-432 1094.93,-432 1094.93,-432 1188.93,-432 1188.93,-432 1194.93,-432 1200.93,-438 1200.93,-444 1200.93,-444 1200.93,-456 1200.93,-456 1200.93,-462 1194.93,-468 1188.93,-468"/>
<text text-anchor="middle" x="1141.93" y="-447.5" font-family="sans" font-size="10.00">cblaster_genome_db</text>
</g>
<!-- 15&#45;&gt;46 -->
<g id="edge79" class="edge">
<title>15&#45;&gt;46</title>
<path fill="none" stroke="grey" stroke-width="2" d="M1207.43,-503.7C1196.47,-494.88 1182.99,-484.03 1171.11,-474.47"/>
<polygon fill="grey" stroke="grey" stroke-width="2" points="1173.18,-471.65 1163.19,-468.1 1168.79,-477.1 1173.18,-471.65"/>
</g>
<!-- 16&#45;&gt;15 -->
<g id="edge40" class="edge">
<title>16&#45;&gt;15</title>
<path fill="none" stroke="grey" stroke-width="2" d="M1102.78,-575.88C1130.22,-564.38 1166.05,-549.36 1192.51,-538.27"/>
<polygon fill="grey" stroke="grey" stroke-width="2" points="1193.93,-541.47 1201.8,-534.37 1191.23,-535.01 1193.93,-541.47"/>
</g>
<!-- 17 -->
<g id="node18" class="node">
<title>17</title>
<path fill="none" stroke="#80d856" stroke-width="2" d="M1227.43,-612C1227.43,-612 1152.43,-612 1152.43,-612 1146.43,-612 1140.43,-606 1140.43,-600 1140.43,-600 1140.43,-588 1140.43,-588 1140.43,-582 1146.43,-576 1152.43,-576 1152.43,-576 1227.43,-576 1227.43,-576 1233.43,-576 1239.43,-582 1239.43,-588 1239.43,-588 1239.43,-600 1239.43,-600 1239.43,-606 1233.43,-612 1227.43,-612"/>
<text text-anchor="middle" x="1189.93" y="-591.5" font-family="sans" font-size="10.00">prokka_db_setup</text>
</g>
<!-- 17&#45;&gt;15 -->
<g id="edge41" class="edge">
<title>17&#45;&gt;15</title>
<path fill="none" stroke="grey" stroke-width="2" d="M1199.57,-575.7C1204.06,-567.64 1209.49,-557.89 1214.46,-548.98"/>
<polygon fill="grey" stroke="grey" stroke-width="2" points="1217.59,-550.54 1219.4,-540.1 1211.48,-547.14 1217.59,-550.54"/>
</g>
<!-- 18 -->
<g id="node19" class="node">
<title>18</title>
<path fill="none" stroke="#56c9d8" stroke-width="2" d="M676.43,-180C676.43,-180 581.43,-180 581.43,-180 575.43,-180 569.43,-174 569.43,-168 569.43,-168 569.43,-156 569.43,-156 569.43,-150 575.43,-144 581.43,-144 581.43,-144 676.43,-144 676.43,-144 682.43,-144 688.43,-150 688.43,-156 688.43,-156 688.43,-168 688.43,-168 688.43,-174 682.43,-180 676.43,-180"/>
<text text-anchor="middle" x="628.93" y="-159.5" font-family="sans" font-size="10.00">antismash_summary</text>
</g>
<!-- 18&#45;&gt;0 -->
<g id="edge21" class="edge">
<title>18&#45;&gt;0</title>
<path fill="none" stroke="grey" stroke-width="2" d="M663.33,-143.83C701.57,-125.06 765.41,-94.63 821.93,-72 861.72,-56.07 908.37,-40.53 940.02,-30.44"/>
<polygon fill="grey" stroke="grey" stroke-width="2" points="941.27,-33.72 949.74,-27.36 939.15,-27.05 941.27,-33.72"/>
</g>
<!-- 26 -->
<g id="node27" class="node">
<title>26</title>
<path fill="none" stroke="#56d882" stroke-width="2" d="M637.93,-108C637.93,-108 531.93,-108 531.93,-108 525.93,-108 519.93,-102 519.93,-96 519.93,-96 519.93,-84 519.93,-84 519.93,-78 525.93,-72 531.93,-72 531.93,-72 637.93,-72 637.93,-72 643.93,-72 649.93,-78 649.93,-84 649.93,-84 649.93,-96 649.93,-96 649.93,-102 643.93,-108 637.93,-108"/>
<text text-anchor="middle" x="584.93" y="-87.5" font-family="sans" font-size="10.00">bigscape_to_cytoscape</text>
</g>
<!-- 18&#45;&gt;26 -->
<g id="edge54" class="edge">
<title>18&#45;&gt;26</title>
<path fill="none" stroke="grey" stroke-width="2" d="M618.06,-143.7C612.94,-135.56 606.74,-125.69 601.09,-116.7"/>
<polygon fill="grey" stroke="grey" stroke-width="2" points="603.97,-114.71 595.68,-108.1 598.04,-118.43 603.97,-114.71"/>
</g>
<!-- 19&#45;&gt;18 -->
<g id="edge43" class="edge">
<title>19&#45;&gt;18</title>
<path fill="none" stroke="grey" stroke-width="2" d="M614.64,-287.79C624.69,-278.41 635.57,-265.9 640.93,-252 648.61,-232.09 644.64,-208.02 639.29,-189.94"/>
<polygon fill="grey" stroke="grey" stroke-width="2" points="642.58,-188.73 636.15,-180.31 635.93,-190.91 642.58,-188.73"/>
</g>
<!-- 24 -->
<g id="node25" class="node">
<title>24</title>
<path fill="none" stroke="#d88d56" stroke-width="2" d="M768.43,-252C768.43,-252 705.43,-252 705.43,-252 699.43,-252 693.43,-246 693.43,-240 693.43,-240 693.43,-228 693.43,-228 693.43,-222 699.43,-216 705.43,-216 705.43,-216 768.43,-216 768.43,-216 774.43,-216 780.43,-222 780.43,-228 780.43,-228 780.43,-240 780.43,-240 780.43,-246 774.43,-252 768.43,-252"/>
<text text-anchor="middle" x="736.93" y="-231.5" font-family="sans" font-size="10.00">query_bigslice</text>
</g>
<!-- 19&#45;&gt;24 -->
<g id="edge50" class="edge">
<title>19&#45;&gt;24</title>
<path fill="none" stroke="grey" stroke-width="2" d="M628.16,-287.88C647.51,-278.47 671.7,-266.71 692.36,-256.67"/>
<polygon fill="grey" stroke="grey" stroke-width="2" points="694.11,-259.71 701.57,-252.19 691.05,-253.41 694.11,-259.71"/>
</g>
<!-- 19&#45;&gt;26 -->
<g id="edge52" class="edge">
<title>19&#45;&gt;26</title>
<path fill="none" stroke="grey" stroke-width="2" d="M596.11,-287.96C598.78,-269.57 600.88,-239.71 591.93,-216 584.47,-196.25 568.28,-199.79 560.93,-180 555.36,-165 557.56,-159.64 560.93,-144 562.89,-134.92 566.54,-125.52 570.42,-117.2"/>
<polygon fill="grey" stroke="grey" stroke-width="2" points="573.66,-118.53 574.98,-108.02 567.39,-115.42 573.66,-118.53"/>
</g>
<!-- 27 -->
<g id="node28" class="node">
<title>27</title>
<path fill="none" stroke="#56d8a2" stroke-width="2" d="M500.93,-180C500.93,-180 416.93,-180 416.93,-180 410.93,-180 404.93,-174 404.93,-168 404.93,-168 404.93,-156 404.93,-156 404.93,-150 410.93,-144 416.93,-144 416.93,-144 500.93,-144 500.93,-144 506.93,-144 512.93,-150 512.93,-156 512.93,-156 512.93,-168 512.93,-168 512.93,-174 506.93,-180 500.93,-180"/>
<text text-anchor="middle" x="458.93" y="-159.5" font-family="sans" font-size="10.00">copy_bigscape_zip</text>
</g>
<!-- 19&#45;&gt;27 -->
<g id="edge56" class="edge">
<title>19&#45;&gt;27</title>
<path fill="none" stroke="grey" stroke-width="2" d="M592.67,-287.67C591.5,-268.18 586.88,-236.57 569.93,-216 557.67,-201.12 540.26,-190.14 522.84,-182.17"/>
<polygon fill="grey" stroke="grey" stroke-width="2" points="523.77,-178.76 513.2,-178.04 521.02,-185.19 523.77,-178.76"/>
</g>
<!-- 28 -->
<g id="node29" class="node">
<title>28</title>
<path fill="none" stroke="#5673d8" stroke-width="2" d="M476.93,-252C476.93,-252 440.93,-252 440.93,-252 434.93,-252 428.93,-246 428.93,-240 428.93,-240 428.93,-228 428.93,-228 428.93,-222 434.93,-216 440.93,-216 440.93,-216 476.93,-216 476.93,-216 482.93,-216 488.93,-222 488.93,-228 488.93,-228 488.93,-240 488.93,-240 488.93,-246 482.93,-252 476.93,-252"/>
<text text-anchor="middle" x="458.93" y="-231.5" font-family="sans" font-size="10.00">bigscape</text>
</g>
<!-- 19&#45;&gt;28 -->
<g id="edge57" class="edge">
<title>19&#45;&gt;28</title>
<path fill="none" stroke="grey" stroke-width="2" d="M560.15,-287.88C541.42,-278.09 517.82,-265.76 498.11,-255.47"/>
<polygon fill="grey" stroke="grey" stroke-width="2" points="499.57,-252.28 489.08,-250.75 496.33,-258.48 499.57,-252.28"/>
</g>
<!-- 30 -->
<g id="node31" class="node">
<title>30</title>
<path fill="none" stroke="#d8cb56" stroke-width="2" d="M548.93,-252C548.93,-252 518.93,-252 518.93,-252 512.93,-252 506.93,-246 506.93,-240 506.93,-240 506.93,-228 506.93,-228 506.93,-222 512.93,-216 518.93,-216 518.93,-216 548.93,-216 548.93,-216 554.93,-216 560.93,-222 560.93,-228 560.93,-228 560.93,-240 560.93,-240 560.93,-246 554.93,-252 548.93,-252"/>
<text text-anchor="middle" x="533.93" y="-231.5" font-family="sans" font-size="10.00">bigslice</text>
</g>
<!-- 19&#45;&gt;30 -->
<g id="edge59" class="edge">
<title>19&#45;&gt;30</title>
<path fill="none" stroke="grey" stroke-width="2" d="M578.35,-287.7C571.27,-279.3 562.65,-269.07 554.89,-259.86"/>
<polygon fill="grey" stroke="grey" stroke-width="2" points="557.47,-257.49 548.35,-252.1 552.12,-262.01 557.47,-257.49"/>
</g>
<!-- 47 -->
<g id="node48" class="node">
<title>47</title>
<path fill="none" stroke="#56d892" stroke-width="2" d="M398.43,-252C398.43,-252 327.43,-252 327.43,-252 321.43,-252 315.43,-246 315.43,-240 315.43,-240 315.43,-228 315.43,-228 315.43,-222 321.43,-216 327.43,-216 327.43,-216 398.43,-216 398.43,-216 404.43,-216 410.43,-222 410.43,-228 410.43,-228 410.43,-240 410.43,-240 410.43,-246 404.43,-252 398.43,-252"/>
<text text-anchor="middle" x="362.93" y="-231.5" font-family="sans" font-size="10.00">cblaster_bgc_db</text>
</g>
<!-- 19&#45;&gt;47 -->
<g id="edge80" class="edge">
<title>19&#45;&gt;47</title>
<path fill="none" stroke="grey" stroke-width="2" d="M536.96,-287.97C501.59,-277.2 456,-263.33 420.36,-252.48"/>
<polygon fill="grey" stroke="grey" stroke-width="2" points="421.17,-249.07 410.59,-249.5 419.13,-255.76 421.17,-249.07"/>
</g>
<!-- 20&#45;&gt;19 -->
<g id="edge44" class="edge">
<title>20&#45;&gt;19</title>
<path fill="none" stroke="grey" stroke-width="2" d="M846.76,-368.7C802.54,-357.95 724.28,-338.92 666.31,-324.83"/>
<polygon fill="grey" stroke="grey" stroke-width="2" points="667.01,-321.4 656.46,-322.44 665.35,-328.2 667.01,-321.4"/>
</g>
<!-- 22 -->
<g id="node23" class="node">
<title>22</title>
<path fill="none" stroke="#56c1d8" stroke-width="2" d="M978.93,-252C978.93,-252 886.93,-252 886.93,-252 880.93,-252 874.93,-246 874.93,-240 874.93,-240 874.93,-228 874.93,-228 874.93,-222 880.93,-216 886.93,-216 886.93,-216 978.93,-216 978.93,-216 984.93,-216 990.93,-222 990.93,-228 990.93,-228 990.93,-240 990.93,-240 990.93,-246 984.93,-252 978.93,-252"/>
<text text-anchor="middle" x="932.93" y="-231.5" font-family="sans" font-size="10.00">copy_antismash_zip</text>
</g>
<!-- 20&#45;&gt;22 -->
<g id="edge48" class="edge">
<title>20&#45;&gt;22</title>
<path fill="none" stroke="grey" stroke-width="2" d="M887.2,-359.87C896.14,-335.46 912.64,-290.43 923.18,-261.64"/>
<polygon fill="grey" stroke="grey" stroke-width="2" points="926.48,-262.78 926.64,-252.19 919.91,-260.38 926.48,-262.78"/>
</g>
<!-- 35 -->
<g id="node36" class="node">
<title>35</title>
<path fill="none" stroke="#56d86b" stroke-width="2" d="M878.93,-324C878.93,-324 848.93,-324 848.93,-324 842.93,-324 836.93,-318 836.93,-312 836.93,-312 836.93,-300 836.93,-300 836.93,-294 842.93,-288 848.93,-288 848.93,-288 878.93,-288 878.93,-288 884.93,-288 890.93,-294 890.93,-300 890.93,-300 890.93,-312 890.93,-312 890.93,-318 884.93,-324 878.93,-324"/>
<text text-anchor="middle" x="863.93" y="-303.5" font-family="sans" font-size="10.00">arts</text>
</g>
<!-- 20&#45;&gt;35 -->
<g id="edge64" class="edge">
<title>20&#45;&gt;35</title>
<path fill="none" stroke="grey" stroke-width="2" d="M876.73,-359.7C874.84,-351.9 872.56,-342.51 870.45,-333.83"/>
<polygon fill="grey" stroke="grey" stroke-width="2" points="873.85,-333 868.09,-324.1 867.04,-334.65 873.85,-333"/>
</g>
<!-- 21 -->
<g id="node22" class="node">
<title>21</title>
<path fill="none" stroke="#56a9d8" stroke-width="2" d="M942.43,-468C942.43,-468 849.43,-468 849.43,-468 843.43,-468 837.43,-462 837.43,-456 837.43,-456 837.43,-444 837.43,-444 837.43,-438 843.43,-432 849.43,-432 849.43,-432 942.43,-432 942.43,-432 948.43,-432 954.43,-438 954.43,-444 954.43,-444 954.43,-456 954.43,-456 954.43,-462 948.43,-468 942.43,-468"/>
<text text-anchor="middle" x="895.93" y="-447.5" font-family="sans" font-size="10.00">antismash_db_setup</text>
</g>
<!-- 21&#45;&gt;20 -->
<g id="edge46" class="edge">
<title>21&#45;&gt;20</title>
<path fill="none" stroke="grey" stroke-width="2" d="M892.22,-431.7C890.57,-423.98 888.58,-414.71 886.74,-406.11"/>
<polygon fill="grey" stroke="grey" stroke-width="2" points="890.11,-405.15 884.6,-396.1 883.27,-406.62 890.11,-405.15"/>
</g>
<!-- 22&#45;&gt;0 -->
<g id="edge22" class="edge">
<title>22&#45;&gt;0</title>
<path fill="none" stroke="grey" stroke-width="2" d="M936.46,-215.85C944.09,-178.75 962.17,-90.81 971.36,-46.1"/>
<polygon fill="grey" stroke="grey" stroke-width="2" points="974.8,-46.73 973.39,-36.23 967.95,-45.32 974.8,-46.73"/>
</g>
<!-- 23 -->
<g id="node24" class="node">
<title>23</title>
<path fill="none" stroke="#68d856" stroke-width="2" d="M841.43,-180C841.43,-180 718.43,-180 718.43,-180 712.43,-180 706.43,-174 706.43,-168 706.43,-168 706.43,-156 706.43,-156 706.43,-150 712.43,-144 718.43,-144 718.43,-144 841.43,-144 841.43,-144 847.43,-144 853.43,-150 853.43,-156 853.43,-156 853.43,-168 853.43,-168 853.43,-174 847.43,-180 841.43,-180"/>
<text text-anchor="middle" x="779.93" y="-159.5" font-family="sans" font-size="10.00">summarize_bigslice_query</text>
</g>
<!-- 23&#45;&gt;0 -->
<g id="edge9" class="edge">
<title>23&#45;&gt;0</title>
<path fill="none" stroke="grey" stroke-width="2" d="M793.75,-143.87C809.97,-124.57 838.44,-93.14 867.93,-72 890.28,-55.98 918.21,-42.51 940.2,-33.16"/>
<polygon fill="grey" stroke="grey" stroke-width="2" points="941.65,-36.35 949.54,-29.28 938.96,-29.88 941.65,-36.35"/>
</g>
<!-- 24&#45;&gt;23 -->
<g id="edge49" class="edge">
<title>24&#45;&gt;23</title>
<path fill="none" stroke="grey" stroke-width="2" d="M747.56,-215.7C752.56,-207.56 758.62,-197.69 764.14,-188.7"/>
<polygon fill="grey" stroke="grey" stroke-width="2" points="767.17,-190.46 769.42,-180.1 761.21,-186.79 767.17,-190.46"/>
</g>
<!-- 25 -->
<g id="node26" class="node">
<title>25</title>
<path fill="none" stroke="#c6d856" stroke-width="2" d="M768.43,-324C768.43,-324 691.43,-324 691.43,-324 685.43,-324 679.43,-318 679.43,-312 679.43,-312 679.43,-300 679.43,-300 679.43,-294 685.43,-288 691.43,-288 691.43,-288 768.43,-288 768.43,-288 774.43,-288 780.43,-294 780.43,-300 780.43,-300 780.43,-312 780.43,-312 780.43,-318 774.43,-324 768.43,-324"/>
<text text-anchor="middle" x="729.93" y="-303.5" font-family="sans" font-size="10.00">fetch_bigslice_db</text>
</g>
<!-- 25&#45;&gt;24 -->
<g id="edge51" class="edge">
<title>25&#45;&gt;24</title>
<path fill="none" stroke="grey" stroke-width="2" d="M731.66,-287.7C732.43,-279.98 733.36,-270.71 734.22,-262.11"/>
<polygon fill="grey" stroke="grey" stroke-width="2" points="737.71,-262.4 735.22,-252.1 730.74,-261.71 737.71,-262.4"/>
</g>
<!-- 26&#45;&gt;0 -->
<g id="edge14" class="edge">
<title>26&#45;&gt;0</title>
<path fill="none" stroke="grey" stroke-width="2" d="M650.1,-77.36C732.97,-62.56 873.26,-37.51 939.79,-25.63"/>
<polygon fill="grey" stroke="grey" stroke-width="2" points="940.59,-29.05 949.82,-23.84 939.36,-22.15 940.59,-29.05"/>
</g>
<!-- 27&#45;&gt;26 -->
<g id="edge53" class="edge">
<title>27&#45;&gt;26</title>
<path fill="none" stroke="grey" stroke-width="2" d="M489.75,-143.88C506.38,-134.64 527.1,-123.13 544.95,-113.21"/>
<polygon fill="grey" stroke="grey" stroke-width="2" points="546.95,-116.11 553.99,-108.19 543.55,-109.99 546.95,-116.11"/>
</g>
<!-- 28&#45;&gt;27 -->
<g id="edge55" class="edge">
<title>28&#45;&gt;27</title>
<path fill="none" stroke="grey" stroke-width="2" d="M458.93,-215.7C458.93,-207.98 458.93,-198.71 458.93,-190.11"/>
<polygon fill="grey" stroke="grey" stroke-width="2" points="462.43,-190.1 458.93,-180.1 455.43,-190.1 462.43,-190.1"/>
</g>
<!-- 29 -->
<g id="node30" class="node">
<title>29</title>
<path fill="none" stroke="#d8d356" stroke-width="2" d="M494.43,-324C494.43,-324 423.43,-324 423.43,-324 417.43,-324 411.43,-318 411.43,-312 411.43,-312 411.43,-300 411.43,-300 411.43,-294 417.43,-288 423.43,-288 423.43,-288 494.43,-288 494.43,-288 500.43,-288 506.43,-294 506.43,-300 506.43,-300 506.43,-312 506.43,-312 506.43,-318 500.43,-324 494.43,-324"/>
<text text-anchor="middle" x="458.93" y="-303.5" font-family="sans" font-size="10.00">install_bigscape</text>
</g>
<!-- 29&#45;&gt;28 -->
<g id="edge58" class="edge">
<title>29&#45;&gt;28</title>
<path fill="none" stroke="grey" stroke-width="2" d="M458.93,-287.7C458.93,-279.98 458.93,-270.71 458.93,-262.11"/>
<polygon fill="grey" stroke="grey" stroke-width="2" points="462.43,-262.1 458.93,-252.1 455.43,-262.1 462.43,-262.1"/>
</g>
<!-- 30&#45;&gt;0 -->
<g id="edge3" class="edge">
<title>30&#45;&gt;0</title>
<path fill="none" stroke="grey" stroke-width="2" d="M506.54,-219.71C503.65,-218.42 500.74,-217.16 497.93,-216 453.47,-197.71 423.7,-219.24 395.93,-180 386.69,-166.94 388.18,-158 395.93,-144 425.14,-91.25 454.01,-91.9 510.93,-72 590.11,-44.32 843.67,-26.87 939.64,-21.11"/>
<polygon fill="grey" stroke="grey" stroke-width="2" points="939.98,-24.59 949.76,-20.51 939.57,-17.6 939.98,-24.59"/>
</g>
<!-- 31 -->
<g id="node32" class="node">
<title>31</title>
<path fill="none" stroke="#5663d8" stroke-width="2" d="M1144.93,-180C1144.93,-180 1042.93,-180 1042.93,-180 1036.93,-180 1030.93,-174 1030.93,-168 1030.93,-168 1030.93,-156 1030.93,-156 1030.93,-150 1036.93,-144 1042.93,-144 1042.93,-144 1144.93,-144 1144.93,-144 1150.93,-144 1156.93,-150 1156.93,-156 1156.93,-156 1156.93,-168 1156.93,-168 1156.93,-174 1150.93,-180 1144.93,-180"/>
<text text-anchor="middle" x="1093.93" y="-159.5" font-family="sans" font-size="10.00">automlst_wrapper_out</text>
</g>
<!-- 31&#45;&gt;0 -->
<g id="edge26" class="edge">
<title>31&#45;&gt;0</title>
<path fill="none" stroke="grey" stroke-width="2" d="M1079.82,-143.87C1059.35,-119.03 1021.3,-72.85 997.65,-44.14"/>
<polygon fill="grey" stroke="grey" stroke-width="2" points="1000.16,-41.68 991.09,-36.19 994.75,-46.13 1000.16,-41.68"/>
</g>
<!-- 36 -->
<g id="node37" class="node">
<title>36</title>
<path fill="none" stroke="#9fd856" stroke-width="2" d="M1113.43,-108C1113.43,-108 1074.43,-108 1074.43,-108 1068.43,-108 1062.43,-102 1062.43,-96 1062.43,-96 1062.43,-84 1062.43,-84 1062.43,-78 1068.43,-72 1074.43,-72 1074.43,-72 1113.43,-72 1113.43,-72 1119.43,-72 1125.43,-78 1125.43,-84 1125.43,-84 1125.43,-96 1125.43,-96 1125.43,-102 1119.43,-108 1113.43,-108"/>
<text text-anchor="middle" x="1093.93" y="-87.5" font-family="sans" font-size="10.00">roary_out</text>
</g>
<!-- 31&#45;&gt;36 -->
<g id="edge65" class="edge">
<title>31&#45;&gt;36</title>
<path fill="none" stroke="grey" stroke-width="2" d="M1093.93,-143.7C1093.93,-135.98 1093.93,-126.71 1093.93,-118.11"/>
<polygon fill="grey" stroke="grey" stroke-width="2" points="1097.43,-118.1 1093.93,-108.1 1090.43,-118.1 1097.43,-118.1"/>
</g>
<!-- 32 -->
<g id="node33" class="node">
<title>32</title>
<path fill="none" stroke="#59d856" stroke-width="2" d="M1140.43,-252C1140.43,-252 1059.43,-252 1059.43,-252 1053.43,-252 1047.43,-246 1047.43,-240 1047.43,-240 1047.43,-228 1047.43,-228 1047.43,-222 1053.43,-216 1059.43,-216 1059.43,-216 1140.43,-216 1140.43,-216 1146.43,-216 1152.43,-222 1152.43,-228 1152.43,-228 1152.43,-240 1152.43,-240 1152.43,-246 1146.43,-252 1140.43,-252"/>
<text text-anchor="middle" x="1099.93" y="-231.5" font-family="sans" font-size="10.00">automlst_wrapper</text>
</g>
<!-- 32&#45;&gt;31 -->
<g id="edge60" class="edge">
<title>32&#45;&gt;31</title>
<path fill="none" stroke="grey" stroke-width="2" d="M1098.45,-215.7C1097.79,-207.98 1096.99,-198.71 1096.26,-190.11"/>
<polygon fill="grey" stroke="grey" stroke-width="2" points="1099.74,-189.77 1095.4,-180.1 1092.76,-190.37 1099.74,-189.77"/>
</g>
<!-- 33&#45;&gt;32 -->
<g id="edge62" class="edge">
<title>33&#45;&gt;32</title>
<path fill="none" stroke="grey" stroke-width="2" d="M1118.98,-359.61C1124.67,-349.62 1131.01,-336.58 1133.93,-324 1137.55,-308.41 1138.43,-303.35 1133.93,-288 1131.13,-278.45 1126.02,-268.98 1120.6,-260.76"/>
<polygon fill="grey" stroke="grey" stroke-width="2" points="1123.31,-258.52 1114.69,-252.37 1117.59,-262.56 1123.31,-258.52"/>
</g>
<!-- 34 -->
<g id="node35" class="node">
<title>34</title>
<path fill="none" stroke="#5692d8" stroke-width="2" d="M1112.93,-324C1112.93,-324 996.93,-324 996.93,-324 990.93,-324 984.93,-318 984.93,-312 984.93,-312 984.93,-300 984.93,-300 984.93,-294 990.93,-288 996.93,-288 996.93,-288 1112.93,-288 1112.93,-288 1118.93,-288 1124.93,-294 1124.93,-300 1124.93,-300 1124.93,-312 1124.93,-312 1124.93,-318 1118.93,-324 1112.93,-324"/>
<text text-anchor="middle" x="1054.93" y="-303.5" font-family="sans" font-size="10.00">install_automlst_wrapper</text>
</g>
<!-- 34&#45;&gt;32 -->
<g id="edge61" class="edge">
<title>34&#45;&gt;32</title>
<path fill="none" stroke="grey" stroke-width="2" d="M1066.06,-287.7C1071.29,-279.56 1077.63,-269.69 1083.41,-260.7"/>
<polygon fill="grey" stroke="grey" stroke-width="2" points="1086.47,-262.41 1088.94,-252.1 1080.58,-258.62 1086.47,-262.41"/>
</g>
<!-- 35&#45;&gt;0 -->
<g id="edge12" class="edge">
<title>35&#45;&gt;0</title>
<path fill="none" stroke="grey" stroke-width="2" d="M861.07,-287.97C858.72,-269.58 857.04,-239.73 865.93,-216 873.24,-196.5 884.51,-197.42 895.93,-180 911.59,-156.12 946.1,-84.44 964.62,-45.27"/>
<polygon fill="grey" stroke="grey" stroke-width="2" points="967.86,-46.6 968.96,-36.06 961.53,-43.61 967.86,-46.6"/>
</g>
<!-- 36&#45;&gt;0 -->
<g id="edge7" class="edge">
<title>36&#45;&gt;0</title>
<path fill="none" stroke="grey" stroke-width="2" d="M1065.31,-71.88C1049.56,-62.45 1029.85,-50.66 1013.05,-40.61"/>
<polygon fill="grey" stroke="grey" stroke-width="2" points="1014.43,-37.36 1004.05,-35.23 1010.84,-43.36 1014.43,-37.36"/>
</g>
<!-- 37&#45;&gt;36 -->
<g id="edge66" class="edge">
<title>37&#45;&gt;36</title>
<path fill="none" stroke="grey" stroke-width="2" d="M1395.9,-154.63C1381.9,-151.37 1364.52,-147.38 1348.93,-144 1270.91,-127.06 1251.07,-124.4 1172.93,-108 1160.7,-105.43 1147.42,-102.6 1135.3,-99.99"/>
<polygon fill="grey" stroke="grey" stroke-width="2" points="1135.95,-96.55 1125.44,-97.86 1134.48,-103.39 1135.95,-96.55"/>
</g>
<!-- 40 -->
<g id="node41" class="node">
<title>40</title>
<path fill="none" stroke="#5682d8" stroke-width="2" d="M1325.43,-108C1325.43,-108 1266.43,-108 1266.43,-108 1260.43,-108 1254.43,-102 1254.43,-96 1254.43,-96 1254.43,-84 1254.43,-84 1254.43,-78 1260.43,-72 1266.43,-72 1266.43,-72 1325.43,-72 1325.43,-72 1331.43,-72 1337.43,-78 1337.43,-84 1337.43,-84 1337.43,-96 1337.43,-96 1337.43,-102 1331.43,-108 1325.43,-108"/>
<text text-anchor="middle" x="1295.93" y="-87.5" font-family="sans" font-size="10.00">eggnog_roary</text>
</g>
<!-- 37&#45;&gt;40 -->
<g id="edge71" class="edge">
<title>37&#45;&gt;40</title>
<path fill="none" stroke="grey" stroke-width="2" d="M1395.69,-145.98C1378.32,-136.41 1355.52,-123.84 1336.09,-113.14"/>
<polygon fill="grey" stroke="grey" stroke-width="2" points="1337.6,-109.97 1327.15,-108.21 1334.22,-116.1 1337.6,-109.97"/>
</g>
<!-- 42 -->
<g id="node43" class="node">
<title>42</title>
<path fill="none" stroke="#56d8b1" stroke-width="2" d="M1646.93,-108C1646.93,-108 1580.93,-108 1580.93,-108 1574.93,-108 1568.93,-102 1568.93,-96 1568.93,-96 1568.93,-84 1568.93,-84 1568.93,-78 1574.93,-72 1580.93,-72 1580.93,-72 1646.93,-72 1646.93,-72 1652.93,-72 1658.93,-78 1658.93,-84 1658.93,-84 1658.93,-96 1658.93,-96 1658.93,-102 1652.93,-108 1646.93,-108"/>
<text text-anchor="middle" x="1613.93" y="-87.5" font-family="sans" font-size="10.00">diamond_roary</text>
</g>
<!-- 37&#45;&gt;42 -->
<g id="edge74" class="edge">
<title>37&#45;&gt;42</title>
<path fill="none" stroke="grey" stroke-width="2" d="M1450.28,-148.07C1453.51,-146.65 1456.78,-145.26 1459.93,-144 1492.36,-131.01 1529.35,-118.21 1558.95,-108.45"/>
<polygon fill="grey" stroke="grey" stroke-width="2" points="1560.27,-111.7 1568.69,-105.26 1558.09,-105.05 1560.27,-111.7"/>
</g>
<!-- 45 -->
<g id="node46" class="node">
<title>45</title>
<path fill="none" stroke="#56d8c9" stroke-width="2" d="M1538.93,-108C1538.93,-108 1458.93,-108 1458.93,-108 1452.93,-108 1446.93,-102 1446.93,-96 1446.93,-96 1446.93,-84 1446.93,-84 1446.93,-78 1452.93,-72 1458.93,-72 1458.93,-72 1538.93,-72 1538.93,-72 1544.93,-72 1550.93,-78 1550.93,-84 1550.93,-84 1550.93,-96 1550.93,-96 1550.93,-102 1544.93,-108 1538.93,-108"/>
<text text-anchor="middle" x="1498.93" y="-87.5" font-family="sans" font-size="10.00">deeptfactor_roary</text>
</g>
<!-- 37&#45;&gt;45 -->
<g id="edge78" class="edge">
<title>37&#45;&gt;45</title>
<path fill="none" stroke="grey" stroke-width="2" d="M1441.72,-143.7C1451.11,-135.05 1462.62,-124.45 1472.85,-115.03"/>
<polygon fill="grey" stroke="grey" stroke-width="2" points="1475.38,-117.45 1480.36,-108.1 1470.63,-112.3 1475.38,-117.45"/>
</g>
<!-- 38&#45;&gt;0 -->
<g id="edge10" class="edge">
<title>38&#45;&gt;0</title>
<path fill="none" stroke="grey" stroke-width="2" d="M1181.76,-77.19C1177.18,-75.36 1172.45,-73.56 1167.93,-72 1115.22,-53.83 1052.72,-37.43 1013.94,-27.84"/>
<polygon fill="grey" stroke="grey" stroke-width="2" points="1014.68,-24.42 1004.14,-25.43 1013.02,-31.22 1014.68,-24.42"/>
</g>
<!-- 39 -->
<g id="node40" class="node">
<title>39</title>
<path fill="none" stroke="#d87d56" stroke-width="2" d="M1327.93,-180C1327.93,-180 1263.93,-180 1263.93,-180 1257.93,-180 1251.93,-174 1251.93,-168 1251.93,-168 1251.93,-156 1251.93,-156 1251.93,-150 1257.93,-144 1263.93,-144 1263.93,-144 1327.93,-144 1327.93,-144 1333.93,-144 1339.93,-150 1339.93,-156 1339.93,-156 1339.93,-168 1339.93,-168 1339.93,-174 1333.93,-180 1327.93,-180"/>
<text text-anchor="middle" x="1295.93" y="-159.5" font-family="sans" font-size="10.00">install_eggnog</text>
</g>
<!-- 39&#45;&gt;38 -->
<g id="edge68" class="edge">
<title>39&#45;&gt;38</title>
<path fill="none" stroke="grey" stroke-width="2" d="M1274.43,-143.7C1263.47,-134.88 1249.99,-124.03 1238.11,-114.47"/>
<polygon fill="grey" stroke="grey" stroke-width="2" points="1240.18,-111.65 1230.19,-108.1 1235.79,-117.1 1240.18,-111.65"/>
</g>
<!-- 39&#45;&gt;40 -->
<g id="edge70" class="edge">
<title>39&#45;&gt;40</title>
<path fill="none" stroke="grey" stroke-width="2" d="M1295.93,-143.7C1295.93,-135.98 1295.93,-126.71 1295.93,-118.11"/>
<polygon fill="grey" stroke="grey" stroke-width="2" points="1299.43,-118.1 1295.93,-108.1 1292.43,-118.1 1299.43,-118.1"/>
</g>
<!-- 40&#45;&gt;0 -->
<g id="edge25" class="edge">
<title>40&#45;&gt;0</title>
<path fill="none" stroke="grey" stroke-width="2" d="M1254.31,-74.65C1251.15,-73.71 1248,-72.81 1244.93,-72 1163.64,-50.51 1066.41,-33.36 1014.31,-24.85"/>
<polygon fill="grey" stroke="grey" stroke-width="2" points="1014.63,-21.36 1004.2,-23.22 1013.51,-28.27 1014.63,-21.36"/>
</g>
<!-- 41&#45;&gt;0 -->
<g id="edge13" class="edge">
<title>41&#45;&gt;0</title>
<path fill="none" stroke="grey" stroke-width="2" d="M1597.96,-431.94C1632.57,-408.47 1686.93,-362.74 1686.93,-307 1686.93,-307 1686.93,-307 1686.93,-161 1686.93,-120.55 1698.38,-98.62 1667.93,-72 1618.55,-28.82 1151.79,-20.75 1014.65,-19.3"/>
<polygon fill="grey" stroke="grey" stroke-width="2" points="1014.28,-15.8 1004.25,-19.2 1014.21,-22.8 1014.28,-15.8"/>
</g>
<!-- 42&#45;&gt;0 -->
<g id="edge16" class="edge">
<title>42&#45;&gt;0</title>
<path fill="none" stroke="grey" stroke-width="2" d="M1568.74,-74C1565.78,-73.26 1562.82,-72.58 1559.93,-72 1356.51,-31.23 1106.81,-21.78 1013.98,-19.62"/>
<polygon fill="grey" stroke="grey" stroke-width="2" points="1014.03,-16.12 1003.96,-19.41 1013.88,-23.12 1014.03,-16.12"/>
</g>
<!-- 43 -->
<g id="node44" class="node">
<title>43</title>
<path fill="none" stroke="#d89c56" stroke-width="2" d="M1561.43,-180C1561.43,-180 1480.43,-180 1480.43,-180 1474.43,-180 1468.43,-174 1468.43,-168 1468.43,-168 1468.43,-156 1468.43,-156 1468.43,-150 1474.43,-144 1480.43,-144 1480.43,-144 1561.43,-144 1561.43,-144 1567.43,-144 1573.43,-150 1573.43,-156 1573.43,-156 1573.43,-168 1573.43,-168 1573.43,-174 1567.43,-180 1561.43,-180"/>
<text text-anchor="middle" x="1520.93" y="-159.5" font-family="sans" font-size="10.00">deeptfactor_setup</text>
</g>
<!-- 43&#45;&gt;42 -->
<g id="edge73" class="edge">
<title>43&#45;&gt;42</title>
<path fill="none" stroke="grey" stroke-width="2" d="M1543.92,-143.7C1555.75,-134.8 1570.32,-123.82 1583.11,-114.2"/>
<polygon fill="grey" stroke="grey" stroke-width="2" points="1585.32,-116.91 1591.21,-108.1 1581.11,-111.32 1585.32,-116.91"/>
</g>
<!-- 43&#45;&gt;44 -->
<g id="edge75" class="edge">
<title>43&#45;&gt;44</title>
<path fill="none" stroke="grey" stroke-width="2" d="M1489.37,-143.88C1472.27,-134.6 1450.95,-123.03 1432.61,-113.08"/>
<polygon fill="grey" stroke="grey" stroke-width="2" points="1434.07,-109.88 1423.61,-108.19 1430.73,-116.04 1434.07,-109.88"/>
</g>
<!-- 43&#45;&gt;45 -->
<g id="edge77" class="edge">
<title>43&#45;&gt;45</title>
<path fill="none" stroke="grey" stroke-width="2" d="M1515.49,-143.7C1513.04,-135.9 1510.09,-126.51 1507.36,-117.83"/>
<polygon fill="grey" stroke="grey" stroke-width="2" points="1510.64,-116.59 1504.31,-108.1 1503.97,-118.69 1510.64,-116.59"/>
</g>
<!-- 44&#45;&gt;0 -->
<g id="edge5" class="edge">
<title>44&#45;&gt;0</title>
<path fill="none" stroke="grey" stroke-width="2" d="M1355.31,-74.42C1352.5,-73.53 1349.68,-72.71 1346.93,-72 1227.62,-41.31 1081.79,-26.99 1014.39,-21.64"/>
<polygon fill="grey" stroke="grey" stroke-width="2" points="1014.5,-18.14 1004.26,-20.86 1013.96,-25.12 1014.5,-18.14"/>
</g>
<!-- 45&#45;&gt;0 -->
<g id="edge18" class="edge">
<title>45&#45;&gt;0</title>
<path fill="none" stroke="grey" stroke-width="2" d="M1446.82,-73.9C1443.82,-73.21 1440.84,-72.57 1437.93,-72 1282.38,-41.58 1093.63,-26.61 1014.59,-21.31"/>
<polygon fill="grey" stroke="grey" stroke-width="2" points="1014.39,-17.79 1004.18,-20.63 1013.93,-24.78 1014.39,-17.79"/>
</g>
<!-- 46&#45;&gt;0 -->
<g id="edge6" class="edge">
<title>46&#45;&gt;0</title>
<path fill="none" stroke="grey" stroke-width="2" d="M1154.66,-431.85C1161.22,-421.92 1168.54,-408.88 1171.93,-396 1183.91,-350.52 1229.39,-431.58 1165.93,-144 1158.42,-109.98 1160.57,-95.59 1134.93,-72 1101.46,-41.19 1049.5,-28.24 1014.39,-22.82"/>
<polygon fill="grey" stroke="grey" stroke-width="2" points="1014.46,-19.3 1004.07,-21.37 1013.49,-26.23 1014.46,-19.3"/>
</g>
<!-- 47&#45;&gt;0 -->
<g id="edge15" class="edge">
<title>47&#45;&gt;0</title>
<path fill="none" stroke="grey" stroke-width="2" d="M363,-215.81C364.18,-181.51 372.31,-105.05 419.93,-72 462.54,-42.44 821.67,-25.31 939.59,-20.45"/>
<polygon fill="grey" stroke="grey" stroke-width="2" points="939.74,-23.95 949.59,-20.04 939.46,-16.95 939.74,-23.95"/>
</g>
<!-- 48&#45;&gt;0 -->
<g id="edge1" class="edge">
<title>48&#45;&gt;0</title>
<path fill="none" stroke="grey" stroke-width="2" d="M1540.62,-575.91C1606.83,-548.64 1724.93,-493.96 1724.93,-451 1724.93,-451 1724.93,-451 1724.93,-161 1724.93,-118.81 1725.65,-97.36 1691.93,-72 1637.52,-31.07 1153.82,-21.39 1014.39,-19.44"/>
<polygon fill="grey" stroke="grey" stroke-width="2" points="1014.25,-15.94 1004.21,-19.3 1014.16,-22.94 1014.25,-15.94"/>
</g>
</g>
</svg>
