<?xml version="1.0" encoding="UTF-8" standalone="no"?>
<!DOCTYPE svg PUBLIC "-//W3C//DTD SVG 1.1//EN"
 "http://www.w3.org/Graphics/SVG/1.1/DTD/svg11.dtd">
<!-- Generated by graphviz version 2.49.3 (20211104.1129)
 -->
<!-- Title: snakemake_dag Pages: 1 -->
<svg width="1470pt" height="620pt"
 viewBox="0.00 0.00 1470.36 620.00" xmlns="http://www.w3.org/2000/svg" xmlns:xlink="http://www.w3.org/1999/xlink">
<g id="graph0" class="graph" transform="scale(1 1) rotate(0) translate(4 616)">
<title>snakemake_dag</title>
<polygon fill="white" stroke="transparent" points="-4,4 -4,-616 1466.36,-616 1466.36,4 -4,4"/>
<!-- 0 -->
<g id="node1" class="node">
<title>0</title>
<path fill="none" stroke="#56d8a9" stroke-width="2" d="M733.86,-36C733.86,-36 703.86,-36 703.86,-36 697.86,-36 691.86,-30 691.86,-24 691.86,-24 691.86,-12 691.86,-12 691.86,-6 697.86,0 703.86,0 703.86,0 733.86,0 733.86,0 739.86,0 745.86,-6 745.86,-12 745.86,-12 745.86,-24 745.86,-24 745.86,-30 739.86,-36 733.86,-36"/>
<text text-anchor="middle" x="718.86" y="-15.5" font-family="sans" font-size="10.00">all</text>
</g>
<!-- 1 -->
<g id="node2" class="node">
<title>1</title>
<path fill="none" stroke="#d86656" stroke-width="2" d="M376.36,-324C376.36,-324 289.36,-324 289.36,-324 283.36,-324 277.36,-318 277.36,-312 277.36,-312 277.36,-300 277.36,-300 277.36,-294 283.36,-288 289.36,-288 289.36,-288 376.36,-288 376.36,-288 382.36,-288 388.36,-294 388.36,-300 388.36,-300 388.36,-312 388.36,-312 388.36,-318 382.36,-324 376.36,-324"/>
<text text-anchor="middle" x="332.86" y="-303.5" font-family="sans" font-size="10.00">fix_gtdb_taxonomy</text>
</g>
<!-- 1&#45;&gt;0 -->
<g id="edge2" class="edge">
<title>1&#45;&gt;0</title>
<path fill="none" stroke="grey" stroke-width="2" d="M328.09,-287.57C320.7,-257.46 308.91,-194.14 324.86,-144 336.76,-106.63 342.51,-92.63 375.86,-72 426.52,-40.67 603.5,-26.12 681.48,-21.12"/>
<polygon fill="grey" stroke="grey" stroke-width="2" points="682.04,-24.59 691.81,-20.48 681.61,-17.61 682.04,-24.59"/>
</g>
<!-- 23 -->
<g id="node24" class="node">
<title>23</title>
<path fill="none" stroke="#d89c56" stroke-width="2" d="M450.86,-252C450.86,-252 364.86,-252 364.86,-252 358.86,-252 352.86,-246 352.86,-240 352.86,-240 352.86,-228 352.86,-228 352.86,-222 358.86,-216 364.86,-216 364.86,-216 450.86,-216 450.86,-216 456.86,-216 462.86,-222 462.86,-228 462.86,-228 462.86,-240 462.86,-240 462.86,-246 456.86,-252 450.86,-252"/>
<text text-anchor="middle" x="407.86" y="-231.5" font-family="sans" font-size="10.00">get_bigslice_inputs</text>
</g>
<!-- 1&#45;&gt;23 -->
<g id="edge52" class="edge">
<title>1&#45;&gt;23</title>
<path fill="none" stroke="grey" stroke-width="2" d="M351.4,-287.7C360.67,-279.05 372.03,-268.45 382.12,-259.03"/>
<polygon fill="grey" stroke="grey" stroke-width="2" points="384.62,-261.49 389.54,-252.1 379.84,-256.37 384.62,-261.49"/>
</g>
<!-- 2 -->
<g id="node3" class="node">
<title>2</title>
<path fill="none" stroke="#d6d856" stroke-width="2" d="M524.36,-468C524.36,-468 483.36,-468 483.36,-468 477.36,-468 471.36,-462 471.36,-456 471.36,-456 471.36,-444 471.36,-444 471.36,-438 477.36,-432 483.36,-432 483.36,-432 524.36,-432 524.36,-432 530.36,-432 536.36,-438 536.36,-444 536.36,-444 536.36,-456 536.36,-456 536.36,-462 530.36,-468 524.36,-468"/>
<text text-anchor="middle" x="503.86" y="-447.5" font-family="sans" font-size="10.00">gtdb_prep</text>
</g>
<!-- 2&#45;&gt;1 -->
<g id="edge20" class="edge">
<title>2&#45;&gt;1</title>
<path fill="none" stroke="grey" stroke-width="2" d="M483.24,-431.87C452.81,-406.6 395.79,-359.25 361.38,-330.68"/>
<polygon fill="grey" stroke="grey" stroke-width="2" points="363.49,-327.89 353.56,-324.19 359.02,-333.27 363.49,-327.89"/>
</g>
<!-- 14 -->
<g id="node15" class="node">
<title>14</title>
<path fill="none" stroke="#56d8d8" stroke-width="2" d="M606.36,-396C606.36,-396 557.36,-396 557.36,-396 551.36,-396 545.36,-390 545.36,-384 545.36,-384 545.36,-372 545.36,-372 545.36,-366 551.36,-360 557.36,-360 557.36,-360 606.36,-360 606.36,-360 612.36,-360 618.36,-366 618.36,-372 618.36,-372 618.36,-384 618.36,-384 618.36,-390 612.36,-396 606.36,-396"/>
<text text-anchor="middle" x="581.86" y="-375.5" font-family="sans" font-size="10.00">format_gbk</text>
</g>
<!-- 2&#45;&gt;14 -->
<g id="edge36" class="edge">
<title>2&#45;&gt;14</title>
<path fill="none" stroke="grey" stroke-width="2" d="M523.15,-431.7C532.78,-423.05 544.59,-412.45 555.09,-403.03"/>
<polygon fill="grey" stroke="grey" stroke-width="2" points="557.7,-405.39 562.81,-396.1 553.02,-400.18 557.7,-405.39"/>
</g>
<!-- 3 -->
<g id="node4" class="node">
<title>3</title>
<path fill="none" stroke="#d89556" stroke-width="2" d="M170.86,-108C170.86,-108 42.86,-108 42.86,-108 36.86,-108 30.86,-102 30.86,-96 30.86,-96 30.86,-84 30.86,-84 30.86,-78 36.86,-72 42.86,-72 42.86,-72 170.86,-72 170.86,-72 176.86,-72 182.86,-78 182.86,-84 182.86,-84 182.86,-96 182.86,-96 182.86,-102 176.86,-108 170.86,-108"/>
<text text-anchor="middle" x="106.86" y="-87.5" font-family="sans" font-size="10.00">write_dependency_versions</text>
</g>
<!-- 3&#45;&gt;0 -->
<g id="edge6" class="edge">
<title>3&#45;&gt;0</title>
<path fill="none" stroke="grey" stroke-width="2" d="M182.9,-74.17C187.62,-73.39 192.3,-72.66 196.86,-72 377.73,-45.79 595.72,-28.11 681.55,-21.69"/>
<polygon fill="grey" stroke="grey" stroke-width="2" points="681.88,-25.17 691.59,-20.94 681.36,-18.19 681.88,-25.17"/>
</g>
<!-- 4 -->
<g id="node5" class="node">
<title>4</title>
<path fill="none" stroke="#56d86b" stroke-width="2" d="M362.36,-540C362.36,-540 313.36,-540 313.36,-540 307.36,-540 301.36,-534 301.36,-528 301.36,-528 301.36,-516 301.36,-516 301.36,-510 307.36,-504 313.36,-504 313.36,-504 362.36,-504 362.36,-504 368.36,-504 374.36,-510 374.36,-516 374.36,-516 374.36,-528 374.36,-528 374.36,-534 368.36,-540 362.36,-540"/>
<text text-anchor="middle" x="337.86" y="-519.5" font-family="sans" font-size="10.00">seqfu_stats</text>
</g>
<!-- 4&#45;&gt;0 -->
<g id="edge12" class="edge">
<title>4&#45;&gt;0</title>
<path fill="none" stroke="grey" stroke-width="2" d="M318.11,-503.91C291.89,-479.21 248.86,-430.79 248.86,-379 248.86,-379 248.86,-379 248.86,-161 248.86,-105.99 285.82,-96.9 334.86,-72 395.14,-41.39 597.31,-26.18 681.54,-21.05"/>
<polygon fill="grey" stroke="grey" stroke-width="2" points="681.91,-24.54 691.68,-20.45 681.49,-17.55 681.91,-24.54"/>
</g>
<!-- 5 -->
<g id="node6" class="node">
<title>5</title>
<path fill="none" stroke="#56b1d8" stroke-width="2" d="M626.86,-612C626.86,-612 516.86,-612 516.86,-612 510.86,-612 504.86,-606 504.86,-600 504.86,-600 504.86,-588 504.86,-588 504.86,-582 510.86,-576 516.86,-576 516.86,-576 626.86,-576 626.86,-576 632.86,-576 638.86,-582 638.86,-588 638.86,-588 638.86,-600 638.86,-600 638.86,-606 632.86,-612 626.86,-612"/>
<text text-anchor="middle" x="571.86" y="-591.5" font-family="sans" font-size="10.00">ncbi_genome_download</text>
</g>
<!-- 5&#45;&gt;4 -->
<g id="edge23" class="edge">
<title>5&#45;&gt;4</title>
<path fill="none" stroke="grey" stroke-width="2" d="M506.66,-575.98C472.65,-566.79 430.22,-554.82 384.03,-539.93"/>
<polygon fill="grey" stroke="grey" stroke-width="2" points="385.02,-536.57 374.43,-536.81 382.86,-543.23 385.02,-536.57"/>
</g>
<!-- 8 -->
<g id="node9" class="node">
<title>8</title>
<path fill="none" stroke="#70d856" stroke-width="2" d="M163.86,-540C163.86,-540 133.86,-540 133.86,-540 127.86,-540 121.86,-534 121.86,-528 121.86,-528 121.86,-516 121.86,-516 121.86,-510 127.86,-504 133.86,-504 133.86,-504 163.86,-504 163.86,-504 169.86,-504 175.86,-510 175.86,-516 175.86,-516 175.86,-528 175.86,-528 175.86,-534 169.86,-540 163.86,-540"/>
<text text-anchor="middle" x="148.86" y="-519.5" font-family="sans" font-size="10.00">mlst</text>
</g>
<!-- 5&#45;&gt;8 -->
<g id="edge26" class="edge">
<title>5&#45;&gt;8</title>
<path fill="none" stroke="grey" stroke-width="2" d="M504.56,-578.88C498.92,-577.85 493.3,-576.87 487.86,-576 357.1,-555.04 317.08,-576.39 185.65,-539.68"/>
<polygon fill="grey" stroke="grey" stroke-width="2" points="186.6,-536.32 176.03,-536.94 184.68,-543.05 186.6,-536.32"/>
</g>
<!-- 9 -->
<g id="node10" class="node">
<title>9</title>
<path fill="none" stroke="#5692d8" stroke-width="2" d="M271.36,-540C271.36,-540 206.36,-540 206.36,-540 200.36,-540 194.36,-534 194.36,-528 194.36,-528 194.36,-516 194.36,-516 194.36,-510 200.36,-504 206.36,-504 206.36,-504 271.36,-504 271.36,-504 277.36,-504 283.36,-510 283.36,-516 283.36,-516 283.36,-528 283.36,-528 283.36,-534 277.36,-540 271.36,-540"/>
<text text-anchor="middle" x="238.86" y="-519.5" font-family="sans" font-size="10.00">refseq_masher</text>
</g>
<!-- 5&#45;&gt;9 -->
<g id="edge29" class="edge">
<title>5&#45;&gt;9</title>
<path fill="none" stroke="grey" stroke-width="2" d="M504.49,-579.25C498.87,-578.14 493.27,-577.04 487.86,-576 404.04,-559.82 379.52,-561.43 293.51,-540.26"/>
<polygon fill="grey" stroke="grey" stroke-width="2" points="294.12,-536.81 283.57,-537.79 292.42,-543.6 294.12,-536.81"/>
</g>
<!-- 11 -->
<g id="node12" class="node">
<title>11</title>
<path fill="none" stroke="#9fd856" stroke-width="2" d="M732.36,-540C732.36,-540 701.36,-540 701.36,-540 695.36,-540 689.36,-534 689.36,-528 689.36,-528 689.36,-516 689.36,-516 689.36,-510 695.36,-504 701.36,-504 701.36,-504 732.36,-504 732.36,-504 738.36,-504 744.36,-510 744.36,-516 744.36,-516 744.36,-528 744.36,-528 744.36,-534 738.36,-540 732.36,-540"/>
<text text-anchor="middle" x="716.86" y="-519.5" font-family="sans" font-size="10.00">checkm</text>
</g>
<!-- 5&#45;&gt;11 -->
<g id="edge33" class="edge">
<title>5&#45;&gt;11</title>
<path fill="none" stroke="grey" stroke-width="2" d="M607.34,-575.88C629.34,-565.25 657.58,-551.62 679.86,-540.86"/>
<polygon fill="grey" stroke="grey" stroke-width="2" points="681.53,-543.94 689.02,-536.44 678.49,-537.64 681.53,-543.94"/>
</g>
<!-- 15 -->
<g id="node16" class="node">
<title>15</title>
<path fill="none" stroke="#88d856" stroke-width="2" d="M615.86,-468C615.86,-468 585.86,-468 585.86,-468 579.86,-468 573.86,-462 573.86,-456 573.86,-456 573.86,-444 573.86,-444 573.86,-438 579.86,-432 585.86,-432 585.86,-432 615.86,-432 615.86,-432 621.86,-432 627.86,-438 627.86,-444 627.86,-444 627.86,-456 627.86,-456 627.86,-462 621.86,-468 615.86,-468"/>
<text text-anchor="middle" x="600.86" y="-447.5" font-family="sans" font-size="10.00">prokka</text>
</g>
<!-- 5&#45;&gt;15 -->
<g id="edge38" class="edge">
<title>5&#45;&gt;15</title>
<path fill="none" stroke="grey" stroke-width="2" d="M638.93,-577.47C687.44,-565.57 745.67,-549.6 752.86,-540 786.62,-494.94 693.18,-468.65 638.06,-457.45"/>
<polygon fill="grey" stroke="grey" stroke-width="2" points="638.41,-453.95 627.92,-455.47 637.06,-460.82 638.41,-453.95"/>
</g>
<!-- 16 -->
<g id="node17" class="node">
<title>16</title>
<path fill="none" stroke="#b6d856" stroke-width="2" d="M620.36,-540C620.36,-540 523.36,-540 523.36,-540 517.36,-540 511.36,-534 511.36,-528 511.36,-528 511.36,-516 511.36,-516 511.36,-510 517.36,-504 523.36,-504 523.36,-504 620.36,-504 620.36,-504 626.36,-504 632.36,-510 632.36,-516 632.36,-516 632.36,-528 632.36,-528 632.36,-534 626.36,-540 620.36,-540"/>
<text text-anchor="middle" x="571.86" y="-519.5" font-family="sans" font-size="10.00">extract_meta_prokka</text>
</g>
<!-- 5&#45;&gt;16 -->
<g id="edge45" class="edge">
<title>5&#45;&gt;16</title>
<path fill="none" stroke="grey" stroke-width="2" d="M571.86,-575.7C571.86,-567.98 571.86,-558.71 571.86,-550.11"/>
<polygon fill="grey" stroke="grey" stroke-width="2" points="575.36,-550.1 571.86,-540.1 568.36,-550.1 575.36,-550.1"/>
</g>
<!-- 43 -->
<g id="node44" class="node">
<title>43</title>
<path fill="none" stroke="#d88556" stroke-width="2" d="M1450.36,-396C1450.36,-396 1335.36,-396 1335.36,-396 1329.36,-396 1323.36,-390 1323.36,-384 1323.36,-384 1323.36,-372 1323.36,-372 1323.36,-366 1329.36,-360 1335.36,-360 1335.36,-360 1450.36,-360 1450.36,-360 1456.36,-360 1462.36,-366 1462.36,-372 1462.36,-372 1462.36,-384 1462.36,-384 1462.36,-390 1456.36,-396 1450.36,-396"/>
<text text-anchor="middle" x="1392.86" y="-375.5" font-family="sans" font-size="10.00">extract_ncbi_information</text>
</g>
<!-- 5&#45;&gt;43 -->
<g id="edge75" class="edge">
<title>5&#45;&gt;43</title>
<path fill="none" stroke="grey" stroke-width="2" d="M638.87,-576.01C732.81,-552.14 908.97,-507.21 1058.86,-468 1148.78,-444.48 1252.16,-416.84 1319.79,-398.68"/>
<polygon fill="grey" stroke="grey" stroke-width="2" points="1320.75,-402.04 1329.5,-396.07 1318.94,-395.28 1320.75,-402.04"/>
</g>
<!-- 6 -->
<g id="node7" class="node">
<title>6</title>
<path fill="none" stroke="#566bd8" stroke-width="2" d="M466.86,-612C466.86,-612 348.86,-612 348.86,-612 342.86,-612 336.86,-606 336.86,-600 336.86,-600 336.86,-588 336.86,-588 336.86,-582 342.86,-576 348.86,-576 348.86,-576 466.86,-576 466.86,-576 472.86,-576 478.86,-582 478.86,-588 478.86,-588 478.86,-600 478.86,-600 478.86,-606 472.86,-612 466.86,-612"/>
<text text-anchor="middle" x="407.86" y="-591.5" font-family="sans" font-size="10.00">patric_genome_download</text>
</g>
<!-- 6&#45;&gt;4 -->
<g id="edge21" class="edge">
<title>6&#45;&gt;4</title>
<path fill="none" stroke="grey" stroke-width="2" d="M390.56,-575.7C382,-567.14 371.52,-556.66 362.17,-547.3"/>
<polygon fill="grey" stroke="grey" stroke-width="2" points="364.51,-544.7 354.97,-540.1 359.56,-549.65 364.51,-544.7"/>
</g>
<!-- 6&#45;&gt;8 -->
<g id="edge24" class="edge">
<title>6&#45;&gt;8</title>
<path fill="none" stroke="grey" stroke-width="2" d="M336.73,-580.03C294.82,-571.48 240.82,-558.88 185.71,-539.95"/>
<polygon fill="grey" stroke="grey" stroke-width="2" points="186.73,-536.6 176.13,-536.6 184.42,-543.2 186.73,-536.6"/>
</g>
<!-- 6&#45;&gt;9 -->
<g id="edge27" class="edge">
<title>6&#45;&gt;9</title>
<path fill="none" stroke="grey" stroke-width="2" d="M366.52,-575.88C343.32,-566.26 314.17,-554.19 289.59,-544.01"/>
<polygon fill="grey" stroke="grey" stroke-width="2" points="290.65,-540.66 280.07,-540.07 287.97,-547.13 290.65,-540.66"/>
</g>
<!-- 6&#45;&gt;11 -->
<g id="edge31" class="edge">
<title>6&#45;&gt;11</title>
<path fill="none" stroke="grey" stroke-width="2" d="M479.15,-579.19C555,-564.45 665.43,-542.82 674.86,-540 676.32,-539.56 677.8,-539.1 679.29,-538.6"/>
<polygon fill="grey" stroke="grey" stroke-width="2" points="680.88,-541.75 689.11,-535.09 678.52,-535.16 680.88,-541.75"/>
</g>
<!-- 6&#45;&gt;15 -->
<g id="edge41" class="edge">
<title>6&#45;&gt;15</title>
<path fill="none" stroke="grey" stroke-width="2" d="M479.09,-579.03C545.69,-565.63 635.68,-546.5 640.86,-540 656.21,-520.77 641.27,-494.71 625.46,-475.76"/>
<polygon fill="grey" stroke="grey" stroke-width="2" points="627.96,-473.3 618.72,-468.12 622.71,-477.93 627.96,-473.3"/>
</g>
<!-- 6&#45;&gt;16 -->
<g id="edge43" class="edge">
<title>6&#45;&gt;16</title>
<path fill="none" stroke="grey" stroke-width="2" d="M447.98,-575.88C470.5,-566.26 498.78,-554.19 522.63,-544.01"/>
<polygon fill="grey" stroke="grey" stroke-width="2" points="524.05,-547.21 531.88,-540.07 521.3,-540.77 524.05,-547.21"/>
</g>
<!-- 7 -->
<g id="node8" class="node">
<title>7</title>
<path fill="none" stroke="#a7d856" stroke-width="2" d="M290.36,-612C290.36,-612 203.36,-612 203.36,-612 197.36,-612 191.36,-606 191.36,-600 191.36,-600 191.36,-588 191.36,-588 191.36,-582 197.36,-576 203.36,-576 203.36,-576 290.36,-576 290.36,-576 296.36,-576 302.36,-582 302.36,-588 302.36,-588 302.36,-600 302.36,-600 302.36,-606 296.36,-612 290.36,-612"/>
<text text-anchor="middle" x="246.86" y="-591.5" font-family="sans" font-size="10.00">copy_custom_fasta</text>
</g>
<!-- 7&#45;&gt;4 -->
<g id="edge22" class="edge">
<title>7&#45;&gt;4</title>
<path fill="none" stroke="grey" stroke-width="2" d="M269.36,-575.7C280.82,-566.88 294.92,-556.03 307.35,-546.47"/>
<polygon fill="grey" stroke="grey" stroke-width="2" points="309.84,-548.98 315.63,-540.1 305.57,-543.43 309.84,-548.98"/>
</g>
<!-- 7&#45;&gt;8 -->
<g id="edge25" class="edge">
<title>7&#45;&gt;8</title>
<path fill="none" stroke="grey" stroke-width="2" d="M222.89,-575.88C210.31,-566.89 194.73,-555.76 181.11,-546.03"/>
<polygon fill="grey" stroke="grey" stroke-width="2" points="183.1,-543.15 172.93,-540.19 179.03,-548.85 183.1,-543.15"/>
</g>
<!-- 7&#45;&gt;9 -->
<g id="edge28" class="edge">
<title>7&#45;&gt;9</title>
<path fill="none" stroke="grey" stroke-width="2" d="M244.89,-575.7C244.01,-567.98 242.95,-558.71 241.96,-550.11"/>
<polygon fill="grey" stroke="grey" stroke-width="2" points="245.43,-549.64 240.82,-540.1 238.48,-550.44 245.43,-549.64"/>
</g>
<!-- 7&#45;&gt;11 -->
<g id="edge32" class="edge">
<title>7&#45;&gt;11</title>
<path fill="none" stroke="grey" stroke-width="2" d="M302.51,-580.62C310.98,-578.94 319.64,-577.33 327.86,-576 466.09,-553.6 502.79,-563.32 640.86,-540 653.47,-537.87 667.13,-535 679.34,-532.22"/>
<polygon fill="grey" stroke="grey" stroke-width="2" points="680.26,-535.6 689.21,-529.92 678.68,-528.78 680.26,-535.6"/>
</g>
<!-- 7&#45;&gt;15 -->
<g id="edge40" class="edge">
<title>7&#45;&gt;15</title>
<path fill="none" stroke="grey" stroke-width="2" d="M191.32,-585.88C162.81,-579.1 130.45,-565.86 112.86,-540 103.87,-526.77 102.03,-515.77 112.86,-504 145.48,-468.56 497.55,-477.05 544.86,-468 551.15,-466.8 557.74,-465.16 564.09,-463.37"/>
<polygon fill="grey" stroke="grey" stroke-width="2" points="565.22,-466.68 573.81,-460.47 563.23,-459.97 565.22,-466.68"/>
</g>
<!-- 7&#45;&gt;16 -->
<g id="edge44" class="edge">
<title>7&#45;&gt;16</title>
<path fill="none" stroke="grey" stroke-width="2" d="M302.63,-581.27C311.09,-579.5 319.71,-577.7 327.86,-576 402.15,-560.52 423.19,-557.54 501.36,-540.07"/>
<polygon fill="grey" stroke="grey" stroke-width="2" points="502.2,-543.47 511.19,-537.87 500.66,-536.64 502.2,-543.47"/>
</g>
<!-- 8&#45;&gt;0 -->
<g id="edge10" class="edge">
<title>8&#45;&gt;0</title>
<path fill="none" stroke="grey" stroke-width="2" d="M121.74,-509.55C79.52,-489.68 2.86,-444.59 2.86,-379 2.86,-379 2.86,-379 2.86,-161 2.86,-120.55 -8.59,-98.61 21.86,-72 71.79,-28.37 544.49,-20.61 681.7,-19.27"/>
<polygon fill="grey" stroke="grey" stroke-width="2" points="681.76,-22.77 691.72,-19.18 681.69,-15.77 681.76,-22.77"/>
</g>
<!-- 9&#45;&gt;0 -->
<g id="edge18" class="edge">
<title>9&#45;&gt;0</title>
<path fill="none" stroke="grey" stroke-width="2" d="M233.2,-503.73C225.02,-477.21 210.86,-424.73 210.86,-379 210.86,-379 210.86,-379 210.86,-161 210.86,-114.03 228.04,-96.91 267.86,-72 336.63,-28.97 586.27,-20.87 681.55,-19.35"/>
<polygon fill="grey" stroke="grey" stroke-width="2" points="681.65,-22.85 691.6,-19.21 681.55,-15.85 681.65,-22.85"/>
</g>
<!-- 10 -->
<g id="node11" class="node">
<title>10</title>
<path fill="none" stroke="#ced856" stroke-width="2" d="M1037.86,-468C1037.86,-468 985.86,-468 985.86,-468 979.86,-468 973.86,-462 973.86,-456 973.86,-456 973.86,-444 973.86,-444 973.86,-438 979.86,-432 985.86,-432 985.86,-432 1037.86,-432 1037.86,-432 1043.86,-432 1049.86,-438 1049.86,-444 1049.86,-444 1049.86,-456 1049.86,-456 1049.86,-462 1043.86,-468 1037.86,-468"/>
<text text-anchor="middle" x="1011.86" y="-447.5" font-family="sans" font-size="10.00">checkm_out</text>
</g>
<!-- 10&#45;&gt;0 -->
<g id="edge8" class="edge">
<title>10&#45;&gt;0</title>
<path fill="none" stroke="grey" stroke-width="2" d="M1050.23,-433.56C1051.79,-433.02 1053.34,-432.5 1054.86,-432 1167.35,-395.35 1289.86,-425.3 1289.86,-307 1289.86,-307 1289.86,-307 1289.86,-233 1289.86,-156.48 1289.5,-118.68 1228.86,-72 1191.54,-43.26 867.27,-25.81 756.09,-20.63"/>
<polygon fill="grey" stroke="grey" stroke-width="2" points="756.16,-17.13 746.01,-20.17 755.84,-24.12 756.16,-17.13"/>
</g>
<!-- 11&#45;&gt;10 -->
<g id="edge30" class="edge">
<title>11&#45;&gt;10</title>
<path fill="none" stroke="grey" stroke-width="2" d="M744.62,-514.41C794.89,-502.49 901.57,-477.17 963.87,-462.39"/>
<polygon fill="grey" stroke="grey" stroke-width="2" points="964.92,-465.74 973.84,-460.02 963.31,-458.93 964.92,-465.74"/>
</g>
<!-- 12 -->
<g id="node13" class="node">
<title>12</title>
<path fill="none" stroke="#d8c356" stroke-width="2" d="M749.86,-612C749.86,-612 683.86,-612 683.86,-612 677.86,-612 671.86,-606 671.86,-600 671.86,-600 671.86,-588 671.86,-588 671.86,-582 677.86,-576 683.86,-576 683.86,-576 749.86,-576 749.86,-576 755.86,-576 761.86,-582 761.86,-588 761.86,-588 761.86,-600 761.86,-600 761.86,-606 755.86,-612 749.86,-612"/>
<text text-anchor="middle" x="716.86" y="-591.5" font-family="sans" font-size="10.00">install_checkm</text>
</g>
<!-- 12&#45;&gt;11 -->
<g id="edge34" class="edge">
<title>12&#45;&gt;11</title>
<path fill="none" stroke="grey" stroke-width="2" d="M716.86,-575.7C716.86,-567.98 716.86,-558.71 716.86,-550.11"/>
<polygon fill="grey" stroke="grey" stroke-width="2" points="720.36,-550.1 716.86,-540.1 713.36,-550.1 720.36,-550.1"/>
</g>
<!-- 13 -->
<g id="node14" class="node">
<title>13</title>
<path fill="none" stroke="#d87d56" stroke-width="2" d="M496.86,-324C496.86,-324 418.86,-324 418.86,-324 412.86,-324 406.86,-318 406.86,-312 406.86,-312 406.86,-300 406.86,-300 406.86,-294 412.86,-288 418.86,-288 418.86,-288 496.86,-288 496.86,-288 502.86,-288 508.86,-294 508.86,-300 508.86,-300 508.86,-312 508.86,-312 508.86,-318 502.86,-324 496.86,-324"/>
<text text-anchor="middle" x="457.86" y="-303.5" font-family="sans" font-size="10.00">copy_prokka_gbk</text>
</g>
<!-- 13&#45;&gt;0 -->
<g id="edge4" class="edge">
<title>13&#45;&gt;0</title>
<path fill="none" stroke="grey" stroke-width="2" d="M408.06,-287.93C381,-277.54 351.52,-264.01 343.86,-252 296.08,-177.09 354.34,-117.16 430.86,-72 472.84,-47.23 613.5,-29.83 681.47,-22.66"/>
<polygon fill="grey" stroke="grey" stroke-width="2" points="682.14,-26.11 691.73,-21.6 681.42,-19.15 682.14,-26.11"/>
</g>
<!-- 14&#45;&gt;13 -->
<g id="edge35" class="edge">
<title>14&#45;&gt;13</title>
<path fill="none" stroke="grey" stroke-width="2" d="M551.53,-359.88C535.17,-350.64 514.78,-339.13 497.21,-329.21"/>
<polygon fill="grey" stroke="grey" stroke-width="2" points="498.74,-326.06 488.31,-324.19 495.3,-332.15 498.74,-326.06"/>
</g>
<!-- 19 -->
<g id="node20" class="node">
<title>19</title>
<path fill="none" stroke="#d8ac56" stroke-width="2" d="M868.86,-324C868.86,-324 824.86,-324 824.86,-324 818.86,-324 812.86,-318 812.86,-312 812.86,-312 812.86,-300 812.86,-300 812.86,-294 818.86,-288 824.86,-288 824.86,-288 868.86,-288 868.86,-288 874.86,-288 880.86,-294 880.86,-300 880.86,-300 880.86,-312 880.86,-312 880.86,-318 874.86,-324 868.86,-324"/>
<text text-anchor="middle" x="846.86" y="-303.5" font-family="sans" font-size="10.00">antismash</text>
</g>
<!-- 14&#45;&gt;19 -->
<g id="edge48" class="edge">
<title>14&#45;&gt;19</title>
<path fill="none" stroke="grey" stroke-width="2" d="M618.44,-369.93C660.81,-361.38 732.78,-345.74 802.88,-324.09"/>
<polygon fill="grey" stroke="grey" stroke-width="2" points="804.26,-327.32 812.75,-320.99 802.17,-320.64 804.26,-327.32"/>
</g>
<!-- 33 -->
<g id="node34" class="node">
<title>33</title>
<path fill="none" stroke="#d8cb56" stroke-width="2" d="M624.86,-324C624.86,-324 538.86,-324 538.86,-324 532.86,-324 526.86,-318 526.86,-312 526.86,-312 526.86,-300 526.86,-300 526.86,-294 532.86,-288 538.86,-288 538.86,-288 624.86,-288 624.86,-288 630.86,-288 636.86,-294 636.86,-300 636.86,-300 636.86,-312 636.86,-312 636.86,-318 630.86,-324 624.86,-324"/>
<text text-anchor="middle" x="581.86" y="-303.5" font-family="sans" font-size="10.00">prep_automlst_gbk</text>
</g>
<!-- 14&#45;&gt;33 -->
<g id="edge65" class="edge">
<title>14&#45;&gt;33</title>
<path fill="none" stroke="grey" stroke-width="2" d="M581.86,-359.7C581.86,-351.98 581.86,-342.71 581.86,-334.11"/>
<polygon fill="grey" stroke="grey" stroke-width="2" points="585.36,-334.1 581.86,-324.1 578.36,-334.1 585.36,-334.1"/>
</g>
<!-- 15&#45;&gt;14 -->
<g id="edge37" class="edge">
<title>15&#45;&gt;14</title>
<path fill="none" stroke="grey" stroke-width="2" d="M596.17,-431.7C594.05,-423.9 591.5,-414.51 589.15,-405.83"/>
<polygon fill="grey" stroke="grey" stroke-width="2" points="592.5,-404.84 586.51,-396.1 585.75,-406.67 592.5,-404.84"/>
</g>
<!-- 38 -->
<g id="node39" class="node">
<title>38</title>
<path fill="none" stroke="#56d882" stroke-width="2" d="M1105.86,-180C1105.86,-180 1075.86,-180 1075.86,-180 1069.86,-180 1063.86,-174 1063.86,-168 1063.86,-168 1063.86,-156 1063.86,-156 1063.86,-150 1069.86,-144 1075.86,-144 1075.86,-144 1105.86,-144 1105.86,-144 1111.86,-144 1117.86,-150 1117.86,-156 1117.86,-156 1117.86,-168 1117.86,-168 1117.86,-174 1111.86,-180 1105.86,-180"/>
<text text-anchor="middle" x="1090.86" y="-159.5" font-family="sans" font-size="10.00">roary</text>
</g>
<!-- 15&#45;&gt;38 -->
<g id="edge70" class="edge">
<title>15&#45;&gt;38</title>
<path fill="none" stroke="grey" stroke-width="2" d="M628.22,-447.73C735.31,-442.13 1123.71,-415.68 1194.86,-324 1224.29,-286.08 1219.94,-256.93 1194.86,-216 1192.85,-212.71 1156.33,-194.53 1127.13,-180.37"/>
<polygon fill="grey" stroke="grey" stroke-width="2" points="1128.49,-177.14 1117.96,-175.94 1125.44,-183.44 1128.49,-177.14"/>
</g>
<!-- 39 -->
<g id="node40" class="node">
<title>39</title>
<path fill="none" stroke="#d86e56" stroke-width="2" d="M1207.86,-108C1207.86,-108 1177.86,-108 1177.86,-108 1171.86,-108 1165.86,-102 1165.86,-96 1165.86,-96 1165.86,-84 1165.86,-84 1165.86,-78 1171.86,-72 1177.86,-72 1177.86,-72 1207.86,-72 1207.86,-72 1213.86,-72 1219.86,-78 1219.86,-84 1219.86,-84 1219.86,-96 1219.86,-96 1219.86,-102 1213.86,-108 1207.86,-108"/>
<text text-anchor="middle" x="1192.86" y="-87.5" font-family="sans" font-size="10.00">eggnog</text>
</g>
<!-- 15&#45;&gt;39 -->
<g id="edge71" class="edge">
<title>15&#45;&gt;39</title>
<path fill="none" stroke="grey" stroke-width="2" d="M628.01,-448.98C751.21,-448.16 1251.86,-436.85 1251.86,-307 1251.86,-307 1251.86,-307 1251.86,-233 1251.86,-192.55 1249.67,-180.79 1232.86,-144 1228.41,-134.25 1221.91,-124.59 1215.45,-116.24"/>
<polygon fill="grey" stroke="grey" stroke-width="2" points="1218.08,-113.93 1209.06,-108.37 1212.65,-118.34 1218.08,-113.93"/>
</g>
<!-- 16&#45;&gt;15 -->
<g id="edge39" class="edge">
<title>16&#45;&gt;15</title>
<path fill="none" stroke="grey" stroke-width="2" d="M579.03,-503.7C582.3,-495.81 586.24,-486.3 589.87,-477.55"/>
<polygon fill="grey" stroke="grey" stroke-width="2" points="593.18,-478.68 593.78,-468.1 586.72,-476 593.18,-478.68"/>
</g>
<!-- 17 -->
<g id="node18" class="node">
<title>17</title>
<path fill="none" stroke="#5663d8" stroke-width="2" d="M480.86,-540C480.86,-540 404.86,-540 404.86,-540 398.86,-540 392.86,-534 392.86,-528 392.86,-528 392.86,-516 392.86,-516 392.86,-510 398.86,-504 404.86,-504 404.86,-504 480.86,-504 480.86,-504 486.86,-504 492.86,-510 492.86,-516 492.86,-516 492.86,-528 492.86,-528 492.86,-534 486.86,-540 480.86,-540"/>
<text text-anchor="middle" x="442.86" y="-519.5" font-family="sans" font-size="10.00">prokka_db_setup</text>
</g>
<!-- 17&#45;&gt;15 -->
<g id="edge42" class="edge">
<title>17&#45;&gt;15</title>
<path fill="none" stroke="grey" stroke-width="2" d="M481.52,-503.88C506.68,-492.73 539.31,-478.27 564.09,-467.29"/>
<polygon fill="grey" stroke="grey" stroke-width="2" points="565.78,-470.37 573.51,-463.12 562.95,-463.97 565.78,-470.37"/>
</g>
<!-- 18 -->
<g id="node19" class="node">
<title>18</title>
<path fill="none" stroke="#569ad8" stroke-width="2" d="M834.36,-180C834.36,-180 739.36,-180 739.36,-180 733.36,-180 727.36,-174 727.36,-168 727.36,-168 727.36,-156 727.36,-156 727.36,-150 733.36,-144 739.36,-144 739.36,-144 834.36,-144 834.36,-144 840.36,-144 846.36,-150 846.36,-156 846.36,-156 846.36,-168 846.36,-168 846.36,-174 840.36,-180 834.36,-180"/>
<text text-anchor="middle" x="786.86" y="-159.5" font-family="sans" font-size="10.00">antismash_summary</text>
</g>
<!-- 18&#45;&gt;0 -->
<g id="edge16" class="edge">
<title>18&#45;&gt;0</title>
<path fill="none" stroke="grey" stroke-width="2" d="M783.33,-143.93C779.1,-125.5 771.03,-95.62 758.86,-72 753.88,-62.32 747.12,-52.56 740.58,-44.1"/>
<polygon fill="grey" stroke="grey" stroke-width="2" points="743.17,-41.74 734.19,-36.13 737.71,-46.12 743.17,-41.74"/>
</g>
<!-- 19&#45;&gt;18 -->
<g id="edge46" class="edge">
<title>19&#45;&gt;18</title>
<path fill="none" stroke="grey" stroke-width="2" d="M812.63,-290.05C783.28,-276.9 745.07,-258.8 740.86,-252 727.82,-230.9 743.59,-205.68 760.12,-187.49"/>
<polygon fill="grey" stroke="grey" stroke-width="2" points="762.76,-189.79 767.16,-180.15 757.71,-184.94 762.76,-189.79"/>
</g>
<!-- 21 -->
<g id="node22" class="node">
<title>21</title>
<path fill="none" stroke="#d8b456" stroke-width="2" d="M853.86,-252C853.86,-252 761.86,-252 761.86,-252 755.86,-252 749.86,-246 749.86,-240 749.86,-240 749.86,-228 749.86,-228 749.86,-222 755.86,-216 761.86,-216 761.86,-216 853.86,-216 853.86,-216 859.86,-216 865.86,-222 865.86,-228 865.86,-228 865.86,-240 865.86,-240 865.86,-246 859.86,-252 853.86,-252"/>
<text text-anchor="middle" x="807.86" y="-231.5" font-family="sans" font-size="10.00">copy_antismash_zip</text>
</g>
<!-- 19&#45;&gt;21 -->
<g id="edge49" class="edge">
<title>19&#45;&gt;21</title>
<path fill="none" stroke="grey" stroke-width="2" d="M837.22,-287.7C832.74,-279.64 827.31,-269.89 822.34,-260.98"/>
<polygon fill="grey" stroke="grey" stroke-width="2" points="825.32,-259.14 817.39,-252.1 819.2,-262.54 825.32,-259.14"/>
</g>
<!-- 19&#45;&gt;23 -->
<g id="edge53" class="edge">
<title>19&#45;&gt;23</title>
<path fill="none" stroke="grey" stroke-width="2" d="M812.39,-290.45C809.54,-289.53 806.67,-288.69 803.86,-288 663.01,-253.2 619.72,-277.96 473.17,-252.05"/>
<polygon fill="grey" stroke="grey" stroke-width="2" points="473.37,-248.53 462.9,-250.19 472.11,-255.42 473.37,-248.53"/>
</g>
<!-- 27 -->
<g id="node28" class="node">
<title>27</title>
<path fill="none" stroke="#56d89a" stroke-width="2" d="M1101.86,-252C1101.86,-252 1009.86,-252 1009.86,-252 1003.86,-252 997.86,-246 997.86,-240 997.86,-240 997.86,-228 997.86,-228 997.86,-222 1003.86,-216 1009.86,-216 1009.86,-216 1101.86,-216 1101.86,-216 1107.86,-216 1113.86,-222 1113.86,-228 1113.86,-228 1113.86,-240 1113.86,-240 1113.86,-246 1107.86,-252 1101.86,-252"/>
<text text-anchor="middle" x="1055.86" y="-231.5" font-family="sans" font-size="10.00">get_bigscape_inputs</text>
</g>
<!-- 19&#45;&gt;27 -->
<g id="edge57" class="edge">
<title>19&#45;&gt;27</title>
<path fill="none" stroke="grey" stroke-width="2" d="M880.91,-293.6C911.81,-283.25 958.09,-267.75 995.29,-255.29"/>
<polygon fill="grey" stroke="grey" stroke-width="2" points="996.66,-258.52 1005.03,-252.03 994.43,-251.88 996.66,-258.52"/>
</g>
<!-- 35 -->
<g id="node36" class="node">
<title>35</title>
<path fill="none" stroke="#5682d8" stroke-width="2" d="M1173.86,-252C1173.86,-252 1143.86,-252 1143.86,-252 1137.86,-252 1131.86,-246 1131.86,-240 1131.86,-240 1131.86,-228 1131.86,-228 1131.86,-222 1137.86,-216 1143.86,-216 1143.86,-216 1173.86,-216 1173.86,-216 1179.86,-216 1185.86,-222 1185.86,-228 1185.86,-228 1185.86,-240 1185.86,-240 1185.86,-246 1179.86,-252 1173.86,-252"/>
<text text-anchor="middle" x="1158.86" y="-231.5" font-family="sans" font-size="10.00">arts</text>
</g>
<!-- 19&#45;&gt;35 -->
<g id="edge67" class="edge">
<title>19&#45;&gt;35</title>
<path fill="none" stroke="grey" stroke-width="2" d="M881.12,-301.23C932.18,-295.02 1031.15,-280.65 1122.02,-251.84"/>
<polygon fill="grey" stroke="grey" stroke-width="2" points="1123.2,-255.14 1131.64,-248.72 1121.05,-248.48 1123.2,-255.14"/>
</g>
<!-- 20 -->
<g id="node21" class="node">
<title>20</title>
<path fill="none" stroke="#56a9d8" stroke-width="2" d="M893.36,-396C893.36,-396 800.36,-396 800.36,-396 794.36,-396 788.36,-390 788.36,-384 788.36,-384 788.36,-372 788.36,-372 788.36,-366 794.36,-360 800.36,-360 800.36,-360 893.36,-360 893.36,-360 899.36,-360 905.36,-366 905.36,-372 905.36,-372 905.36,-384 905.36,-384 905.36,-390 899.36,-396 893.36,-396"/>
<text text-anchor="middle" x="846.86" y="-375.5" font-family="sans" font-size="10.00">antismash_db_setup</text>
</g>
<!-- 20&#45;&gt;19 -->
<g id="edge47" class="edge">
<title>20&#45;&gt;19</title>
<path fill="none" stroke="grey" stroke-width="2" d="M846.86,-359.7C846.86,-351.98 846.86,-342.71 846.86,-334.11"/>
<polygon fill="grey" stroke="grey" stroke-width="2" points="850.36,-334.1 846.86,-324.1 843.36,-334.1 850.36,-334.1"/>
</g>
<!-- 21&#45;&gt;0 -->
<g id="edge7" class="edge">
<title>21&#45;&gt;0</title>
<path fill="none" stroke="grey" stroke-width="2" d="M829.13,-215.7C838.97,-206.31 849.63,-193.8 854.86,-180 860.54,-165.04 861.09,-158.74 854.86,-144 835.11,-97.22 787.76,-60.48 754.51,-39.27"/>
<polygon fill="grey" stroke="grey" stroke-width="2" points="756.3,-36.26 745.96,-33.95 752.61,-42.21 756.3,-36.26"/>
</g>
<!-- 22 -->
<g id="node23" class="node">
<title>22</title>
<path fill="none" stroke="#bed856" stroke-width="2" d="M545.36,-108C545.36,-108 482.36,-108 482.36,-108 476.36,-108 470.36,-102 470.36,-96 470.36,-96 470.36,-84 470.36,-84 470.36,-78 476.36,-72 482.36,-72 482.36,-72 545.36,-72 545.36,-72 551.36,-72 557.36,-78 557.36,-84 557.36,-84 557.36,-96 557.36,-96 557.36,-102 551.36,-108 545.36,-108"/>
<text text-anchor="middle" x="513.86" y="-87.5" font-family="sans" font-size="10.00">query_bigslice</text>
</g>
<!-- 22&#45;&gt;0 -->
<g id="edge9" class="edge">
<title>22&#45;&gt;0</title>
<path fill="none" stroke="grey" stroke-width="2" d="M557.59,-74.07C594.62,-61.42 647.11,-43.5 682.03,-31.58"/>
<polygon fill="grey" stroke="grey" stroke-width="2" points="683.5,-34.78 691.83,-28.23 681.23,-28.15 683.5,-34.78"/>
</g>
<!-- 23&#45;&gt;22 -->
<g id="edge50" class="edge">
<title>23&#45;&gt;22</title>
<path fill="none" stroke="grey" stroke-width="2" d="M394.93,-215.94C382.27,-196.99 366.9,-166.14 381.86,-144 399.43,-118.01 432.07,-104.77 460.49,-98.01"/>
<polygon fill="grey" stroke="grey" stroke-width="2" points="461.3,-101.42 470.33,-95.89 459.82,-94.58 461.3,-101.42"/>
</g>
<!-- 30 -->
<g id="node31" class="node">
<title>30</title>
<path fill="none" stroke="#d85656" stroke-width="2" d="M432.86,-180C432.86,-180 402.86,-180 402.86,-180 396.86,-180 390.86,-174 390.86,-168 390.86,-168 390.86,-156 390.86,-156 390.86,-150 396.86,-144 402.86,-144 402.86,-144 432.86,-144 432.86,-144 438.86,-144 444.86,-150 444.86,-156 444.86,-156 444.86,-168 444.86,-168 444.86,-174 438.86,-180 432.86,-180"/>
<text text-anchor="middle" x="417.86" y="-159.5" font-family="sans" font-size="10.00">bigslice</text>
</g>
<!-- 23&#45;&gt;30 -->
<g id="edge61" class="edge">
<title>23&#45;&gt;30</title>
<path fill="none" stroke="grey" stroke-width="2" d="M410.34,-215.7C411.44,-207.98 412.76,-198.71 413.99,-190.11"/>
<polygon fill="grey" stroke="grey" stroke-width="2" points="417.47,-190.5 415.42,-180.1 410.54,-189.51 417.47,-190.5"/>
</g>
<!-- 24 -->
<g id="node25" class="node">
<title>24</title>
<path fill="none" stroke="#8fd856" stroke-width="2" d="M552.36,-180C552.36,-180 475.36,-180 475.36,-180 469.36,-180 463.36,-174 463.36,-168 463.36,-168 463.36,-156 463.36,-156 463.36,-150 469.36,-144 475.36,-144 475.36,-144 552.36,-144 552.36,-144 558.36,-144 564.36,-150 564.36,-156 564.36,-156 564.36,-168 564.36,-168 564.36,-174 558.36,-180 552.36,-180"/>
<text text-anchor="middle" x="513.86" y="-159.5" font-family="sans" font-size="10.00">fetch_bigslice_db</text>
</g>
<!-- 24&#45;&gt;22 -->
<g id="edge51" class="edge">
<title>24&#45;&gt;22</title>
<path fill="none" stroke="grey" stroke-width="2" d="M513.86,-143.7C513.86,-135.98 513.86,-126.71 513.86,-118.11"/>
<polygon fill="grey" stroke="grey" stroke-width="2" points="517.36,-118.1 513.86,-108.1 510.36,-118.1 517.36,-118.1"/>
</g>
<!-- 25 -->
<g id="node26" class="node">
<title>25</title>
<path fill="none" stroke="#59d856" stroke-width="2" d="M558.36,-252C558.36,-252 493.36,-252 493.36,-252 487.36,-252 481.36,-246 481.36,-240 481.36,-240 481.36,-228 481.36,-228 481.36,-222 487.36,-216 493.36,-216 493.36,-216 558.36,-216 558.36,-216 564.36,-216 570.36,-222 570.36,-228 570.36,-228 570.36,-240 570.36,-240 570.36,-246 564.36,-252 558.36,-252"/>
<text text-anchor="middle" x="525.86" y="-231.5" font-family="sans" font-size="10.00">install_bigslice</text>
</g>
<!-- 25&#45;&gt;24 -->
<g id="edge54" class="edge">
<title>25&#45;&gt;24</title>
<path fill="none" stroke="grey" stroke-width="2" d="M522.9,-215.7C521.58,-207.98 519.99,-198.71 518.51,-190.11"/>
<polygon fill="grey" stroke="grey" stroke-width="2" points="521.94,-189.37 516.8,-180.1 515.04,-190.55 521.94,-189.37"/>
</g>
<!-- 25&#45;&gt;30 -->
<g id="edge60" class="edge">
<title>25&#45;&gt;30</title>
<path fill="none" stroke="grey" stroke-width="2" d="M499.44,-215.88C485.45,-206.81 468.09,-195.55 452.98,-185.76"/>
<polygon fill="grey" stroke="grey" stroke-width="2" points="454.68,-182.69 444.39,-180.19 450.87,-188.57 454.68,-182.69"/>
</g>
<!-- 26 -->
<g id="node27" class="node">
<title>26</title>
<path fill="none" stroke="#56c1d8" stroke-width="2" d="M995.86,-108C995.86,-108 911.86,-108 911.86,-108 905.86,-108 899.86,-102 899.86,-96 899.86,-96 899.86,-84 899.86,-84 899.86,-78 905.86,-72 911.86,-72 911.86,-72 995.86,-72 995.86,-72 1001.86,-72 1007.86,-78 1007.86,-84 1007.86,-84 1007.86,-96 1007.86,-96 1007.86,-102 1001.86,-108 995.86,-108"/>
<text text-anchor="middle" x="953.86" y="-87.5" font-family="sans" font-size="10.00">copy_bigscape_zip</text>
</g>
<!-- 26&#45;&gt;0 -->
<g id="edge15" class="edge">
<title>26&#45;&gt;0</title>
<path fill="none" stroke="grey" stroke-width="2" d="M899.66,-72.85C855.61,-59.73 794.64,-41.57 755.98,-30.06"/>
<polygon fill="grey" stroke="grey" stroke-width="2" points="756.76,-26.64 746.18,-27.14 754.76,-33.35 756.76,-26.64"/>
</g>
<!-- 27&#45;&gt;26 -->
<g id="edge55" class="edge">
<title>27&#45;&gt;26</title>
<path fill="none" stroke="grey" stroke-width="2" d="M1043.56,-215.87C1025.79,-191.14 992.83,-145.24 972.19,-116.51"/>
<polygon fill="grey" stroke="grey" stroke-width="2" points="974.89,-114.27 966.21,-108.19 969.2,-118.35 974.89,-114.27"/>
</g>
<!-- 28 -->
<g id="node29" class="node">
<title>28</title>
<path fill="none" stroke="#56d8c1" stroke-width="2" d="M957.86,-180C957.86,-180 921.86,-180 921.86,-180 915.86,-180 909.86,-174 909.86,-168 909.86,-168 909.86,-156 909.86,-156 909.86,-150 915.86,-144 921.86,-144 921.86,-144 957.86,-144 957.86,-144 963.86,-144 969.86,-150 969.86,-156 969.86,-156 969.86,-168 969.86,-168 969.86,-174 963.86,-180 957.86,-180"/>
<text text-anchor="middle" x="939.86" y="-159.5" font-family="sans" font-size="10.00">bigscape</text>
</g>
<!-- 27&#45;&gt;28 -->
<g id="edge58" class="edge">
<title>27&#45;&gt;28</title>
<path fill="none" stroke="grey" stroke-width="2" d="M1027.49,-215.88C1012.32,-206.72 993.46,-195.34 977.12,-185.48"/>
<polygon fill="grey" stroke="grey" stroke-width="2" points="978.72,-182.36 968.35,-180.19 975.1,-188.35 978.72,-182.36"/>
</g>
<!-- 28&#45;&gt;26 -->
<g id="edge56" class="edge">
<title>28&#45;&gt;26</title>
<path fill="none" stroke="grey" stroke-width="2" d="M943.32,-143.7C944.87,-135.98 946.72,-126.71 948.44,-118.11"/>
<polygon fill="grey" stroke="grey" stroke-width="2" points="951.91,-118.6 950.44,-108.1 945.05,-117.22 951.91,-118.6"/>
</g>
<!-- 29 -->
<g id="node30" class="node">
<title>29</title>
<path fill="none" stroke="#56c9d8" stroke-width="2" d="M967.36,-252C967.36,-252 896.36,-252 896.36,-252 890.36,-252 884.36,-246 884.36,-240 884.36,-240 884.36,-228 884.36,-228 884.36,-222 890.36,-216 896.36,-216 896.36,-216 967.36,-216 967.36,-216 973.36,-216 979.36,-222 979.36,-228 979.36,-228 979.36,-240 979.36,-240 979.36,-246 973.36,-252 967.36,-252"/>
<text text-anchor="middle" x="931.86" y="-231.5" font-family="sans" font-size="10.00">install_bigscape</text>
</g>
<!-- 29&#45;&gt;28 -->
<g id="edge59" class="edge">
<title>29&#45;&gt;28</title>
<path fill="none" stroke="grey" stroke-width="2" d="M933.84,-215.7C934.72,-207.98 935.78,-198.71 936.77,-190.11"/>
<polygon fill="grey" stroke="grey" stroke-width="2" points="940.25,-190.44 937.91,-180.1 933.3,-189.64 940.25,-190.44"/>
</g>
<!-- 30&#45;&gt;0 -->
<g id="edge1" class="edge">
<title>30&#45;&gt;0</title>
<path fill="none" stroke="grey" stroke-width="2" d="M421.37,-143.68C426.44,-123.29 437.85,-89.92 460.86,-72 494.8,-45.57 618.18,-29.37 681.22,-22.63"/>
<polygon fill="grey" stroke="grey" stroke-width="2" points="681.94,-26.07 691.53,-21.55 681.22,-19.11 681.94,-26.07"/>
</g>
<!-- 31 -->
<g id="node32" class="node">
<title>31</title>
<path fill="none" stroke="#56d8b1" stroke-width="2" d="M696.86,-180C696.86,-180 594.86,-180 594.86,-180 588.86,-180 582.86,-174 582.86,-168 582.86,-168 582.86,-156 582.86,-156 582.86,-150 588.86,-144 594.86,-144 594.86,-144 696.86,-144 696.86,-144 702.86,-144 708.86,-150 708.86,-156 708.86,-156 708.86,-168 708.86,-168 708.86,-174 702.86,-180 696.86,-180"/>
<text text-anchor="middle" x="645.86" y="-159.5" font-family="sans" font-size="10.00">automlst_wrapper_out</text>
</g>
<!-- 31&#45;&gt;0 -->
<g id="edge13" class="edge">
<title>31&#45;&gt;0</title>
<path fill="none" stroke="grey" stroke-width="2" d="M650.27,-143.93C655.42,-125.49 664.91,-95.61 677.86,-72 683.15,-62.36 690.12,-52.62 696.81,-44.16"/>
<polygon fill="grey" stroke="grey" stroke-width="2" points="699.72,-46.14 703.34,-36.18 694.3,-41.71 699.72,-46.14"/>
</g>
<!-- 37 -->
<g id="node38" class="node">
<title>37</title>
<path fill="none" stroke="#56d8c9" stroke-width="2" d="M738.36,-108C738.36,-108 699.36,-108 699.36,-108 693.36,-108 687.36,-102 687.36,-96 687.36,-96 687.36,-84 687.36,-84 687.36,-78 693.36,-72 699.36,-72 699.36,-72 738.36,-72 738.36,-72 744.36,-72 750.36,-78 750.36,-84 750.36,-84 750.36,-96 750.36,-96 750.36,-102 744.36,-108 738.36,-108"/>
<text text-anchor="middle" x="718.86" y="-87.5" font-family="sans" font-size="10.00">roary_out</text>
</g>
<!-- 31&#45;&gt;37 -->
<g id="edge69" class="edge">
<title>31&#45;&gt;37</title>
<path fill="none" stroke="grey" stroke-width="2" d="M663.91,-143.7C672.93,-135.05 683.98,-124.45 693.81,-115.03"/>
<polygon fill="grey" stroke="grey" stroke-width="2" points="696.23,-117.55 701.03,-108.1 691.39,-112.5 696.23,-117.55"/>
</g>
<!-- 32 -->
<g id="node33" class="node">
<title>32</title>
<path fill="none" stroke="#56d892" stroke-width="2" d="M681.36,-252C681.36,-252 600.36,-252 600.36,-252 594.36,-252 588.36,-246 588.36,-240 588.36,-240 588.36,-228 588.36,-228 588.36,-222 594.36,-216 600.36,-216 600.36,-216 681.36,-216 681.36,-216 687.36,-216 693.36,-222 693.36,-228 693.36,-228 693.36,-240 693.36,-240 693.36,-246 687.36,-252 681.36,-252"/>
<text text-anchor="middle" x="640.86" y="-231.5" font-family="sans" font-size="10.00">automlst_wrapper</text>
</g>
<!-- 32&#45;&gt;31 -->
<g id="edge62" class="edge">
<title>32&#45;&gt;31</title>
<path fill="none" stroke="grey" stroke-width="2" d="M642.1,-215.7C642.65,-207.98 643.31,-198.71 643.93,-190.11"/>
<polygon fill="grey" stroke="grey" stroke-width="2" points="647.42,-190.33 644.64,-180.1 640.44,-189.83 647.42,-190.33"/>
</g>
<!-- 33&#45;&gt;32 -->
<g id="edge64" class="edge">
<title>33&#45;&gt;32</title>
<path fill="none" stroke="grey" stroke-width="2" d="M596.45,-287.7C603.52,-279.3 612.15,-269.07 619.91,-259.86"/>
<polygon fill="grey" stroke="grey" stroke-width="2" points="622.68,-262.01 626.45,-252.1 617.33,-257.49 622.68,-262.01"/>
</g>
<!-- 34 -->
<g id="node35" class="node">
<title>34</title>
<path fill="none" stroke="#56d87b" stroke-width="2" d="M782.86,-324C782.86,-324 666.86,-324 666.86,-324 660.86,-324 654.86,-318 654.86,-312 654.86,-312 654.86,-300 654.86,-300 654.86,-294 660.86,-288 666.86,-288 666.86,-288 782.86,-288 782.86,-288 788.86,-288 794.86,-294 794.86,-300 794.86,-300 794.86,-312 794.86,-312 794.86,-318 788.86,-324 782.86,-324"/>
<text text-anchor="middle" x="724.86" y="-303.5" font-family="sans" font-size="10.00">install_automlst_wrapper</text>
</g>
<!-- 34&#45;&gt;32 -->
<g id="edge63" class="edge">
<title>34&#45;&gt;32</title>
<path fill="none" stroke="grey" stroke-width="2" d="M704.1,-287.7C693.62,-278.97 680.75,-268.24 669.36,-258.75"/>
<polygon fill="grey" stroke="grey" stroke-width="2" points="671.31,-255.82 661.39,-252.1 666.83,-261.19 671.31,-255.82"/>
</g>
<!-- 35&#45;&gt;0 -->
<g id="edge17" class="edge">
<title>35&#45;&gt;0</title>
<path fill="none" stroke="grey" stroke-width="2" d="M1131.71,-219.78C1101.84,-205.16 1057.68,-183.21 1054.86,-180 1021.35,-141.71 1055.64,-104.95 1016.86,-72 978.11,-39.07 827.59,-25.64 756.48,-21.04"/>
<polygon fill="grey" stroke="grey" stroke-width="2" points="756.38,-17.53 746.18,-20.41 755.95,-24.52 756.38,-17.53"/>
</g>
<!-- 36 -->
<g id="node37" class="node">
<title>36</title>
<path fill="none" stroke="#61d856" stroke-width="2" d="M1173.86,-324C1173.86,-324 1129.86,-324 1129.86,-324 1123.86,-324 1117.86,-318 1117.86,-312 1117.86,-312 1117.86,-300 1117.86,-300 1117.86,-294 1123.86,-288 1129.86,-288 1129.86,-288 1173.86,-288 1173.86,-288 1179.86,-288 1185.86,-294 1185.86,-300 1185.86,-300 1185.86,-312 1185.86,-312 1185.86,-318 1179.86,-324 1173.86,-324"/>
<text text-anchor="middle" x="1151.86" y="-303.5" font-family="sans" font-size="10.00">arts_setup</text>
</g>
<!-- 36&#45;&gt;35 -->
<g id="edge66" class="edge">
<title>36&#45;&gt;35</title>
<path fill="none" stroke="grey" stroke-width="2" d="M1153.59,-287.7C1154.37,-279.98 1155.29,-270.71 1156.15,-262.11"/>
<polygon fill="grey" stroke="grey" stroke-width="2" points="1159.64,-262.4 1157.15,-252.1 1152.68,-261.71 1159.64,-262.4"/>
</g>
<!-- 37&#45;&gt;0 -->
<g id="edge14" class="edge">
<title>37&#45;&gt;0</title>
<path fill="none" stroke="grey" stroke-width="2" d="M718.86,-71.7C718.86,-63.98 718.86,-54.71 718.86,-46.11"/>
<polygon fill="grey" stroke="grey" stroke-width="2" points="722.36,-46.1 718.86,-36.1 715.36,-46.1 722.36,-46.1"/>
</g>
<!-- 38&#45;&gt;37 -->
<g id="edge68" class="edge">
<title>38&#45;&gt;37</title>
<path fill="none" stroke="grey" stroke-width="2" d="M1063.81,-155.91C999.62,-143.83 837.73,-113.37 760.76,-98.88"/>
<polygon fill="grey" stroke="grey" stroke-width="2" points="760.96,-95.36 750.48,-96.95 759.66,-102.24 760.96,-95.36"/>
</g>
<!-- 41 -->
<g id="node42" class="node">
<title>41</title>
<path fill="none" stroke="#567bd8" stroke-width="2" d="M1135.36,-108C1135.36,-108 1076.36,-108 1076.36,-108 1070.36,-108 1064.36,-102 1064.36,-96 1064.36,-96 1064.36,-84 1064.36,-84 1064.36,-78 1070.36,-72 1076.36,-72 1076.36,-72 1135.36,-72 1135.36,-72 1141.36,-72 1147.36,-78 1147.36,-84 1147.36,-84 1147.36,-96 1147.36,-96 1147.36,-102 1141.36,-108 1135.36,-108"/>
<text text-anchor="middle" x="1105.86" y="-87.5" font-family="sans" font-size="10.00">eggnog_roary</text>
</g>
<!-- 38&#45;&gt;41 -->
<g id="edge73" class="edge">
<title>38&#45;&gt;41</title>
<path fill="none" stroke="grey" stroke-width="2" d="M1094.57,-143.7C1096.23,-135.98 1098.21,-126.71 1100.05,-118.11"/>
<polygon fill="grey" stroke="grey" stroke-width="2" points="1103.53,-118.62 1102.2,-108.1 1096.68,-117.15 1103.53,-118.62"/>
</g>
<!-- 39&#45;&gt;0 -->
<g id="edge3" class="edge">
<title>39&#45;&gt;0</title>
<path fill="none" stroke="grey" stroke-width="2" d="M1165.7,-75.07C1162.77,-73.9 1159.79,-72.84 1156.86,-72 1012.59,-30.39 832.45,-21.43 755.96,-19.51"/>
<polygon fill="grey" stroke="grey" stroke-width="2" points="755.95,-16.01 745.87,-19.29 755.79,-23.01 755.95,-16.01"/>
</g>
<!-- 40 -->
<g id="node41" class="node">
<title>40</title>
<path fill="none" stroke="#78d856" stroke-width="2" d="M1211.86,-180C1211.86,-180 1147.86,-180 1147.86,-180 1141.86,-180 1135.86,-174 1135.86,-168 1135.86,-168 1135.86,-156 1135.86,-156 1135.86,-150 1141.86,-144 1147.86,-144 1147.86,-144 1211.86,-144 1211.86,-144 1217.86,-144 1223.86,-150 1223.86,-156 1223.86,-156 1223.86,-168 1223.86,-168 1223.86,-174 1217.86,-180 1211.86,-180"/>
<text text-anchor="middle" x="1179.86" y="-159.5" font-family="sans" font-size="10.00">install_eggnog</text>
</g>
<!-- 40&#45;&gt;39 -->
<g id="edge72" class="edge">
<title>40&#45;&gt;39</title>
<path fill="none" stroke="grey" stroke-width="2" d="M1183.08,-143.7C1184.51,-135.98 1186.23,-126.71 1187.83,-118.11"/>
<polygon fill="grey" stroke="grey" stroke-width="2" points="1191.3,-118.58 1189.69,-108.1 1184.42,-117.3 1191.3,-118.58"/>
</g>
<!-- 40&#45;&gt;41 -->
<g id="edge74" class="edge">
<title>40&#45;&gt;41</title>
<path fill="none" stroke="grey" stroke-width="2" d="M1161.57,-143.7C1152.43,-135.05 1141.22,-124.45 1131.26,-115.03"/>
<polygon fill="grey" stroke="grey" stroke-width="2" points="1133.62,-112.43 1123.95,-108.1 1128.81,-117.52 1133.62,-112.43"/>
</g>
<!-- 41&#45;&gt;0 -->
<g id="edge19" class="edge">
<title>41&#45;&gt;0</title>
<path fill="none" stroke="grey" stroke-width="2" d="M1064.14,-75.66C1059.35,-74.33 1054.52,-73.07 1049.86,-72 944.53,-47.7 817.79,-30.76 756.16,-23.29"/>
<polygon fill="grey" stroke="grey" stroke-width="2" points="756.48,-19.81 746.14,-22.09 755.65,-26.76 756.48,-19.81"/>
</g>
<!-- 42 -->
<g id="node43" class="node">
<title>42</title>
<path fill="none" stroke="#56d863" stroke-width="2" d="M1378.86,-108C1378.86,-108 1308.86,-108 1308.86,-108 1302.86,-108 1296.86,-102 1296.86,-96 1296.86,-96 1296.86,-84 1296.86,-84 1296.86,-78 1302.86,-72 1308.86,-72 1308.86,-72 1378.86,-72 1378.86,-72 1384.86,-72 1390.86,-78 1390.86,-84 1390.86,-84 1390.86,-96 1390.86,-96 1390.86,-102 1384.86,-108 1378.86,-108"/>
<text text-anchor="middle" x="1343.86" y="-87.5" font-family="sans" font-size="10.00">rnammer_setup</text>
</g>
<!-- 42&#45;&gt;0 -->
<g id="edge11" class="edge">
<title>42&#45;&gt;0</title>
<path fill="none" stroke="grey" stroke-width="2" d="M1296.77,-74.98C1292.1,-73.86 1287.4,-72.84 1282.86,-72 1086.58,-35.72 847.02,-23.66 756.18,-20.21"/>
<polygon fill="grey" stroke="grey" stroke-width="2" points="756.22,-16.71 746.1,-19.84 755.97,-23.71 756.22,-16.71"/>
</g>
<!-- 43&#45;&gt;0 -->
<g id="edge5" class="edge">
<title>43&#45;&gt;0</title>
<path fill="none" stroke="grey" stroke-width="2" d="M1398.13,-359.7C1405.72,-333.14 1418.86,-280.61 1418.86,-235 1418.86,-235 1418.86,-235 1418.86,-161 1418.86,-120.55 1430.3,-98.64 1399.86,-72 1351.27,-29.46 892.23,-20.94 756.49,-19.35"/>
<polygon fill="grey" stroke="grey" stroke-width="2" points="756.23,-15.84 746.19,-19.23 756.15,-22.84 756.23,-15.84"/>
</g>
</g>
</svg>
