<?xml version="1.0" encoding="UTF-8" standalone="no"?>
<!DOCTYPE svg PUBLIC "-//W3C//DTD SVG 1.1//EN"
 "http://www.w3.org/Graphics/SVG/1.1/DTD/svg11.dtd">
<!-- Generated by graphviz version 2.49.1 (20211004.0028)
 -->
<!-- Title: snakemake_dag Pages: 1 -->
<svg width="1008pt" height="476pt"
 viewBox="0.00 0.00 1008.19 476.00" xmlns="http://www.w3.org/2000/svg" xmlns:xlink="http://www.w3.org/1999/xlink">
<g id="graph0" class="graph" transform="scale(1 1) rotate(0) translate(4 472)">
<title>snakemake_dag</title>
<polygon fill="white" stroke="transparent" points="-4,4 -4,-472 1004.19,-472 1004.19,4 -4,4"/>
<!-- 0 -->
<g id="node1" class="node">
<title>0</title>
<path fill="none" stroke="#97d856" stroke-width="2" d="M455.5,-36C455.5,-36 425.5,-36 425.5,-36 419.5,-36 413.5,-30 413.5,-24 413.5,-24 413.5,-12 413.5,-12 413.5,-6 419.5,0 425.5,0 425.5,0 455.5,0 455.5,0 461.5,0 467.5,-6 467.5,-12 467.5,-12 467.5,-24 467.5,-24 467.5,-30 461.5,-36 455.5,-36"/>
<text text-anchor="middle" x="440.5" y="-15.5" font-family="sans" font-size="10.00">all</text>
</g>
<!-- 1 -->
<g id="node2" class="node">
<title>1</title>
<path fill="none" stroke="#56d89a" stroke-width="2" d="M317,-108C317,-108 230,-108 230,-108 224,-108 218,-102 218,-96 218,-96 218,-84 218,-84 218,-78 224,-72 230,-72 230,-72 317,-72 317,-72 323,-72 329,-78 329,-84 329,-84 329,-96 329,-96 329,-102 323,-108 317,-108"/>
<text text-anchor="middle" x="273.5" y="-87.5" font-family="sans" font-size="10.00">fix_gtdb_taxonomy</text>
</g>
<!-- 1&#45;&gt;0 -->
<g id="edge4" class="edge">
<title>1&#45;&gt;0</title>
<path fill="none" stroke="grey" stroke-width="2" d="M314.35,-71.88C341.79,-60.38 377.62,-45.36 404.08,-34.27"/>
<polygon fill="grey" stroke="grey" stroke-width="2" points="405.5,-37.47 413.37,-30.37 402.79,-31.01 405.5,-37.47"/>
</g>
<!-- 2 -->
<g id="node3" class="node">
<title>2</title>
<path fill="none" stroke="#d6d856" stroke-width="2" d="M319,-324C319,-324 220,-324 220,-324 214,-324 208,-318 208,-312 208,-312 208,-300 208,-300 208,-294 214,-288 220,-288 220,-288 319,-288 319,-288 325,-288 331,-294 331,-300 331,-300 331,-312 331,-312 331,-318 325,-324 319,-324"/>
<text text-anchor="middle" x="269.5" y="-303.5" font-family="sans" font-size="10.00">fetch_gtdb_taxonomy</text>
</g>
<!-- 2&#45;&gt;1 -->
<g id="edge13" class="edge">
<title>2&#45;&gt;1</title>
<path fill="none" stroke="grey" stroke-width="2" d="M269.82,-287.85C270.51,-250.83 272.15,-163.18 272.99,-118.39"/>
<polygon fill="grey" stroke="grey" stroke-width="2" points="276.49,-118.3 273.18,-108.23 269.49,-118.17 276.49,-118.3"/>
</g>
<!-- 3 -->
<g id="node4" class="node">
<title>3</title>
<path fill="none" stroke="#56b9d8" stroke-width="2" d="M314,-396C314,-396 273,-396 273,-396 267,-396 261,-390 261,-384 261,-384 261,-372 261,-372 261,-366 267,-360 273,-360 273,-360 314,-360 314,-360 320,-360 326,-366 326,-372 326,-372 326,-384 326,-384 326,-390 320,-396 314,-396"/>
<text text-anchor="middle" x="293.5" y="-375.5" font-family="sans" font-size="10.00">gtdb_prep</text>
</g>
<!-- 3&#45;&gt;2 -->
<g id="edge14" class="edge">
<title>3&#45;&gt;2</title>
<path fill="none" stroke="grey" stroke-width="2" d="M287.57,-359.7C284.89,-351.9 281.67,-342.51 278.7,-333.83"/>
<polygon fill="grey" stroke="grey" stroke-width="2" points="281.92,-332.43 275.36,-324.1 275.3,-334.7 281.92,-332.43"/>
</g>
<!-- 4 -->
<g id="node5" class="node">
<title>4</title>
<path fill="none" stroke="#56a2d8" stroke-width="2" d="M337,-468C337,-468 250,-468 250,-468 244,-468 238,-462 238,-456 238,-456 238,-444 238,-444 238,-438 244,-432 250,-432 250,-432 337,-432 337,-432 343,-432 349,-438 349,-444 349,-444 349,-456 349,-456 349,-462 343,-468 337,-468"/>
<text text-anchor="middle" x="293.5" y="-447.5" font-family="sans" font-size="10.00">copy_custom_fasta</text>
</g>
<!-- 4&#45;&gt;3 -->
<g id="edge16" class="edge">
<title>4&#45;&gt;3</title>
<path fill="none" stroke="grey" stroke-width="2" d="M293.5,-431.7C293.5,-423.98 293.5,-414.71 293.5,-406.11"/>
<polygon fill="grey" stroke="grey" stroke-width="2" points="297,-406.1 293.5,-396.1 290,-406.1 297,-406.1"/>
</g>
<!-- 8 -->
<g id="node9" class="node">
<title>8</title>
<path fill="none" stroke="#d85656" stroke-width="2" d="M405,-396C405,-396 356,-396 356,-396 350,-396 344,-390 344,-384 344,-384 344,-372 344,-372 344,-366 350,-360 356,-360 356,-360 405,-360 405,-360 411,-360 417,-366 417,-372 417,-372 417,-384 417,-384 417,-390 411,-396 405,-396"/>
<text text-anchor="middle" x="380.5" y="-375.5" font-family="sans" font-size="10.00">seqfu_stats</text>
</g>
<!-- 4&#45;&gt;8 -->
<g id="edge20" class="edge">
<title>4&#45;&gt;8</title>
<path fill="none" stroke="grey" stroke-width="2" d="M315.01,-431.7C325.96,-422.88 339.45,-412.03 351.32,-402.47"/>
<polygon fill="grey" stroke="grey" stroke-width="2" points="353.64,-405.1 359.24,-396.1 349.26,-399.65 353.64,-405.1"/>
</g>
<!-- 12 -->
<g id="node13" class="node">
<title>12</title>
<path fill="none" stroke="#d88d56" stroke-width="2" d="M612.5,-324C612.5,-324 544.5,-324 544.5,-324 538.5,-324 532.5,-318 532.5,-312 532.5,-312 532.5,-300 532.5,-300 532.5,-294 538.5,-288 544.5,-288 544.5,-288 612.5,-288 612.5,-288 618.5,-288 624.5,-294 624.5,-300 624.5,-300 624.5,-312 624.5,-312 624.5,-318 618.5,-324 612.5,-324"/>
<text text-anchor="middle" x="578.5" y="-303.5" font-family="sans" font-size="10.00">prokka_custom</text>
</g>
<!-- 4&#45;&gt;12 -->
<g id="edge28" class="edge">
<title>4&#45;&gt;12</title>
<path fill="none" stroke="grey" stroke-width="2" d="M348.64,-431.94C373.18,-423.09 401.81,-410.97 425.5,-396 445.44,-383.4 444.9,-373.13 464.5,-360 482.89,-347.68 504.6,-336.8 524.11,-328.16"/>
<polygon fill="grey" stroke="grey" stroke-width="2" points="525.7,-331.29 533.49,-324.1 522.92,-324.86 525.7,-331.29"/>
</g>
<!-- 15 -->
<g id="node16" class="node">
<title>15</title>
<path fill="none" stroke="#88d856" stroke-width="2" d="M583,-396C583,-396 486,-396 486,-396 480,-396 474,-390 474,-384 474,-384 474,-372 474,-372 474,-366 480,-360 486,-360 486,-360 583,-360 583,-360 589,-360 595,-366 595,-372 595,-372 595,-384 595,-384 595,-390 589,-396 583,-396"/>
<text text-anchor="middle" x="534.5" y="-375.5" font-family="sans" font-size="10.00">extract_meta_prokka</text>
</g>
<!-- 4&#45;&gt;15 -->
<g id="edge33" class="edge">
<title>4&#45;&gt;15</title>
<path fill="none" stroke="grey" stroke-width="2" d="M349.09,-432.85C383.93,-422.73 429.08,-409.62 466.11,-398.87"/>
<polygon fill="grey" stroke="grey" stroke-width="2" points="467.2,-402.19 475.82,-396.04 465.25,-395.47 467.2,-402.19"/>
</g>
<!-- 20 -->
<g id="node21" class="node">
<title>20</title>
<path fill="none" stroke="#56d863" stroke-width="2" d="M123.5,-396C123.5,-396 93.5,-396 93.5,-396 87.5,-396 81.5,-390 81.5,-384 81.5,-384 81.5,-372 81.5,-372 81.5,-366 87.5,-360 93.5,-360 93.5,-360 123.5,-360 123.5,-360 129.5,-360 135.5,-366 135.5,-372 135.5,-372 135.5,-384 135.5,-384 135.5,-390 129.5,-396 123.5,-396"/>
<text text-anchor="middle" x="108.5" y="-375.5" font-family="sans" font-size="10.00">mlst</text>
</g>
<!-- 4&#45;&gt;20 -->
<g id="edge39" class="edge">
<title>4&#45;&gt;20</title>
<path fill="none" stroke="grey" stroke-width="2" d="M241.65,-431.97C215.04,-422.91 182,-411.16 145.3,-396.16"/>
<polygon fill="grey" stroke="grey" stroke-width="2" points="146.47,-392.86 135.89,-392.28 143.8,-399.33 146.47,-392.86"/>
</g>
<!-- 23 -->
<g id="node24" class="node">
<title>23</title>
<path fill="none" stroke="#56d8c1" stroke-width="2" d="M231,-396C231,-396 166,-396 166,-396 160,-396 154,-390 154,-384 154,-384 154,-372 154,-372 154,-366 160,-360 166,-360 166,-360 231,-360 231,-360 237,-360 243,-366 243,-372 243,-372 243,-384 243,-384 243,-390 237,-396 231,-396"/>
<text text-anchor="middle" x="198.5" y="-375.5" font-family="sans" font-size="10.00">refseq_masher</text>
</g>
<!-- 4&#45;&gt;23 -->
<g id="edge44" class="edge">
<title>4&#45;&gt;23</title>
<path fill="none" stroke="grey" stroke-width="2" d="M270.02,-431.7C257.94,-422.8 243.05,-411.82 229.98,-402.2"/>
<polygon fill="grey" stroke="grey" stroke-width="2" points="231.84,-399.22 221.71,-396.1 227.69,-404.85 231.84,-399.22"/>
</g>
<!-- 5 -->
<g id="node6" class="node">
<title>5</title>
<path fill="none" stroke="#56d8d0" stroke-width="2" d="M207.5,-468C207.5,-468 97.5,-468 97.5,-468 91.5,-468 85.5,-462 85.5,-456 85.5,-456 85.5,-444 85.5,-444 85.5,-438 91.5,-432 97.5,-432 97.5,-432 207.5,-432 207.5,-432 213.5,-432 219.5,-438 219.5,-444 219.5,-444 219.5,-456 219.5,-456 219.5,-462 213.5,-468 207.5,-468"/>
<text text-anchor="middle" x="152.5" y="-447.5" font-family="sans" font-size="10.00">ncbi_genome_download</text>
</g>
<!-- 5&#45;&gt;3 -->
<g id="edge15" class="edge">
<title>5&#45;&gt;3</title>
<path fill="none" stroke="grey" stroke-width="2" d="M186.99,-431.88C206.51,-422.19 231.05,-410 251.66,-399.77"/>
<polygon fill="grey" stroke="grey" stroke-width="2" points="253.42,-402.81 260.82,-395.23 250.3,-396.54 253.42,-402.81"/>
</g>
<!-- 7 -->
<g id="node8" class="node">
<title>7</title>
<path fill="none" stroke="#d8b456" stroke-width="2" d="M77,-324C77,-324 12,-324 12,-324 6,-324 0,-318 0,-312 0,-312 0,-300 0,-300 0,-294 6,-288 12,-288 12,-288 77,-288 77,-288 83,-288 89,-294 89,-300 89,-300 89,-312 89,-312 89,-318 83,-324 77,-324"/>
<text text-anchor="middle" x="44.5" y="-303.5" font-family="sans" font-size="10.00">ncbi_metadata</text>
</g>
<!-- 5&#45;&gt;7 -->
<g id="edge18" class="edge">
<title>5&#45;&gt;7</title>
<path fill="none" stroke="grey" stroke-width="2" d="M85.37,-432.07C67.41,-424.15 50.08,-412.64 39.5,-396 27.87,-377.71 30.47,-352.79 35.2,-333.97"/>
<polygon fill="grey" stroke="grey" stroke-width="2" points="38.6,-334.8 37.97,-324.23 31.87,-332.89 38.6,-334.8"/>
</g>
<!-- 5&#45;&gt;8 -->
<g id="edge19" class="edge">
<title>5&#45;&gt;8</title>
<path fill="none" stroke="grey" stroke-width="2" d="M215.17,-431.93C248.08,-422.69 289.23,-410.71 334.26,-395.97"/>
<polygon fill="grey" stroke="grey" stroke-width="2" points="335.52,-399.24 343.92,-392.78 333.33,-392.59 335.52,-399.24"/>
</g>
<!-- 5&#45;&gt;12 -->
<g id="edge27" class="edge">
<title>5&#45;&gt;12</title>
<path fill="none" stroke="grey" stroke-width="2" d="M111.32,-432C96.29,-423.54 80.93,-411.71 72.5,-396 64.93,-381.9 61.69,-371.8 72.5,-360 103.55,-326.12 438.95,-330.1 484.5,-324 496.7,-322.37 509.73,-320.25 522.08,-318.07"/>
<polygon fill="grey" stroke="grey" stroke-width="2" points="523.04,-321.46 532.26,-316.23 521.79,-314.57 523.04,-321.46"/>
</g>
<!-- 5&#45;&gt;15 -->
<g id="edge32" class="edge">
<title>5&#45;&gt;15</title>
<path fill="none" stroke="grey" stroke-width="2" d="M219.6,-433.81C222.6,-433.18 225.58,-432.58 228.5,-432 308.91,-416.05 401.74,-400.35 463.87,-390.23"/>
<polygon fill="grey" stroke="grey" stroke-width="2" points="464.65,-393.65 473.96,-388.6 463.53,-386.74 464.65,-393.65"/>
</g>
<!-- 5&#45;&gt;20 -->
<g id="edge38" class="edge">
<title>5&#45;&gt;20</title>
<path fill="none" stroke="grey" stroke-width="2" d="M141.62,-431.7C136.51,-423.56 130.3,-413.69 124.66,-404.7"/>
<polygon fill="grey" stroke="grey" stroke-width="2" points="127.54,-402.71 119.25,-396.1 121.61,-406.43 127.54,-402.71"/>
</g>
<!-- 5&#45;&gt;23 -->
<g id="edge43" class="edge">
<title>5&#45;&gt;23</title>
<path fill="none" stroke="grey" stroke-width="2" d="M163.87,-431.7C169.22,-423.56 175.7,-413.69 181.61,-404.7"/>
<polygon fill="grey" stroke="grey" stroke-width="2" points="184.69,-406.38 187.26,-396.1 178.84,-402.54 184.69,-406.38"/>
</g>
<!-- 6 -->
<g id="node7" class="node">
<title>6</title>
<path fill="none" stroke="#566bd8" stroke-width="2" d="M497.5,-468C497.5,-468 379.5,-468 379.5,-468 373.5,-468 367.5,-462 367.5,-456 367.5,-456 367.5,-444 367.5,-444 367.5,-438 373.5,-432 379.5,-432 379.5,-432 497.5,-432 497.5,-432 503.5,-432 509.5,-438 509.5,-444 509.5,-444 509.5,-456 509.5,-456 509.5,-462 503.5,-468 497.5,-468"/>
<text text-anchor="middle" x="438.5" y="-447.5" font-family="sans" font-size="10.00">patric_genome_download</text>
</g>
<!-- 6&#45;&gt;3 -->
<g id="edge17" class="edge">
<title>6&#45;&gt;3</title>
<path fill="none" stroke="grey" stroke-width="2" d="M403.03,-431.88C382.58,-422 356.76,-409.54 335.32,-399.19"/>
<polygon fill="grey" stroke="grey" stroke-width="2" points="336.65,-395.95 326.13,-394.75 333.61,-402.25 336.65,-395.95"/>
</g>
<!-- 6&#45;&gt;8 -->
<g id="edge21" class="edge">
<title>6&#45;&gt;8</title>
<path fill="none" stroke="grey" stroke-width="2" d="M424.16,-431.7C417.21,-423.3 408.73,-413.07 401.1,-403.86"/>
<polygon fill="grey" stroke="grey" stroke-width="2" points="403.75,-401.57 394.67,-396.1 398.36,-406.04 403.75,-401.57"/>
</g>
<!-- 6&#45;&gt;12 -->
<g id="edge30" class="edge">
<title>6&#45;&gt;12</title>
<path fill="none" stroke="grey" stroke-width="2" d="M509.87,-444.87C544.02,-438.87 582.05,-425.42 603.5,-396 616.99,-377.5 607.68,-351.98 596.79,-333.01"/>
<polygon fill="grey" stroke="grey" stroke-width="2" points="599.64,-330.96 591.42,-324.28 593.68,-334.63 599.64,-330.96"/>
</g>
<!-- 6&#45;&gt;15 -->
<g id="edge34" class="edge">
<title>6&#45;&gt;15</title>
<path fill="none" stroke="grey" stroke-width="2" d="M462.23,-431.7C474.44,-422.8 489.49,-411.82 502.68,-402.2"/>
<polygon fill="grey" stroke="grey" stroke-width="2" points="505.02,-404.82 511.04,-396.1 500.9,-399.17 505.02,-404.82"/>
</g>
<!-- 6&#45;&gt;20 -->
<g id="edge40" class="edge">
<title>6&#45;&gt;20</title>
<path fill="none" stroke="grey" stroke-width="2" d="M367.41,-433.92C364.06,-433.26 360.75,-432.61 357.5,-432 266.3,-414.73 237.97,-424.09 145.47,-395.84"/>
<polygon fill="grey" stroke="grey" stroke-width="2" points="146.29,-392.43 135.71,-392.79 144.21,-399.11 146.29,-392.43"/>
</g>
<!-- 6&#45;&gt;23 -->
<g id="edge45" class="edge">
<title>6&#45;&gt;23</title>
<path fill="none" stroke="grey" stroke-width="2" d="M376.44,-431.98C342.31,-422.49 299.02,-410.24 252.86,-396.37"/>
<polygon fill="grey" stroke="grey" stroke-width="2" points="253.87,-393.02 243.29,-393.48 251.85,-399.72 253.87,-393.02"/>
</g>
<!-- 7&#45;&gt;0 -->
<g id="edge12" class="edge">
<title>7&#45;&gt;0</title>
<path fill="none" stroke="grey" stroke-width="2" d="M43.89,-287.75C43.39,-244.18 48.58,-129.14 113.5,-72 156.02,-34.57 326.72,-23.36 403.16,-20.18"/>
<polygon fill="grey" stroke="grey" stroke-width="2" points="403.44,-23.68 413.3,-19.79 403.17,-16.68 403.44,-23.68"/>
</g>
<!-- 8&#45;&gt;0 -->
<g id="edge6" class="edge">
<title>8&#45;&gt;0</title>
<path fill="none" stroke="grey" stroke-width="2" d="M378.95,-359.79C375.29,-312.24 369.14,-175.7 407.5,-72 410.98,-62.59 416.25,-53.06 421.57,-44.73"/>
<polygon fill="grey" stroke="grey" stroke-width="2" points="424.62,-46.47 427.28,-36.21 418.8,-42.57 424.62,-46.47"/>
</g>
<!-- 9 -->
<g id="node10" class="node">
<title>9</title>
<path fill="none" stroke="#d87d56" stroke-width="2" d="M532,-108C532,-108 437,-108 437,-108 431,-108 425,-102 425,-96 425,-96 425,-84 425,-84 425,-78 431,-72 437,-72 437,-72 532,-72 532,-72 538,-72 544,-78 544,-84 544,-84 544,-96 544,-96 544,-102 538,-108 532,-108"/>
<text text-anchor="middle" x="484.5" y="-87.5" font-family="sans" font-size="10.00">antismash_summary</text>
</g>
<!-- 9&#45;&gt;0 -->
<g id="edge8" class="edge">
<title>9&#45;&gt;0</title>
<path fill="none" stroke="grey" stroke-width="2" d="M473.62,-71.7C468.51,-63.56 462.3,-53.69 456.66,-44.7"/>
<polygon fill="grey" stroke="grey" stroke-width="2" points="459.54,-42.71 451.25,-36.1 453.61,-46.43 459.54,-42.71"/>
</g>
<!-- 10 -->
<g id="node11" class="node">
<title>10</title>
<path fill="none" stroke="#bed856" stroke-width="2" d="M534.5,-180C534.5,-180 490.5,-180 490.5,-180 484.5,-180 478.5,-174 478.5,-168 478.5,-168 478.5,-156 478.5,-156 478.5,-150 484.5,-144 490.5,-144 490.5,-144 534.5,-144 534.5,-144 540.5,-144 546.5,-150 546.5,-156 546.5,-156 546.5,-168 546.5,-168 546.5,-174 540.5,-180 534.5,-180"/>
<text text-anchor="middle" x="512.5" y="-159.5" font-family="sans" font-size="10.00">antismash</text>
</g>
<!-- 10&#45;&gt;0 -->
<g id="edge5" class="edge">
<title>10&#45;&gt;0</title>
<path fill="none" stroke="grey" stroke-width="2" d="M530.04,-143.87C546.77,-125.4 567.36,-95.47 552.5,-72 536.15,-46.17 503.43,-32.68 477.56,-25.8"/>
<polygon fill="grey" stroke="grey" stroke-width="2" points="478.21,-22.35 467.67,-23.39 476.56,-29.16 478.21,-22.35"/>
</g>
<!-- 10&#45;&gt;9 -->
<g id="edge22" class="edge">
<title>10&#45;&gt;9</title>
<path fill="none" stroke="grey" stroke-width="2" d="M505.58,-143.7C502.43,-135.81 498.62,-126.3 495.12,-117.55"/>
<polygon fill="grey" stroke="grey" stroke-width="2" points="498.31,-116.09 491.34,-108.1 491.81,-118.69 498.31,-116.09"/>
</g>
<!-- 24 -->
<g id="node25" class="node">
<title>24</title>
<path fill="none" stroke="#56c9d8" stroke-width="2" d="M648.5,-108C648.5,-108 612.5,-108 612.5,-108 606.5,-108 600.5,-102 600.5,-96 600.5,-96 600.5,-84 600.5,-84 600.5,-78 606.5,-72 612.5,-72 612.5,-72 648.5,-72 648.5,-72 654.5,-72 660.5,-78 660.5,-84 660.5,-84 660.5,-96 660.5,-96 660.5,-102 654.5,-108 648.5,-108"/>
<text text-anchor="middle" x="630.5" y="-87.5" font-family="sans" font-size="10.00">bigscape</text>
</g>
<!-- 10&#45;&gt;24 -->
<g id="edge47" class="edge">
<title>10&#45;&gt;24</title>
<path fill="none" stroke="grey" stroke-width="2" d="M541.37,-143.88C556.79,-134.72 575.98,-123.34 592.6,-113.48"/>
<polygon fill="grey" stroke="grey" stroke-width="2" points="594.71,-116.3 601.52,-108.19 591.14,-110.28 594.71,-116.3"/>
</g>
<!-- 11 -->
<g id="node12" class="node">
<title>11</title>
<path fill="none" stroke="#61d856" stroke-width="2" d="M866,-252C866,-252 817,-252 817,-252 811,-252 805,-246 805,-240 805,-240 805,-228 805,-228 805,-222 811,-216 817,-216 817,-216 866,-216 866,-216 872,-216 878,-222 878,-228 878,-228 878,-240 878,-240 878,-246 872,-252 866,-252"/>
<text text-anchor="middle" x="841.5" y="-231.5" font-family="sans" font-size="10.00">format_gbk</text>
</g>
<!-- 11&#45;&gt;0 -->
<g id="edge1" class="edge">
<title>11&#45;&gt;0</title>
<path fill="none" stroke="grey" stroke-width="2" d="M878.33,-231.64C914.37,-228.12 967.52,-216.57 993.5,-180 1002.77,-166.96 1001.93,-157.6 993.5,-144 938.3,-54.97 592.59,-27.57 477.62,-20.87"/>
<polygon fill="grey" stroke="grey" stroke-width="2" points="477.73,-17.37 467.55,-20.3 477.33,-24.36 477.73,-17.37"/>
</g>
<!-- 11&#45;&gt;10 -->
<g id="edge23" class="edge">
<title>11&#45;&gt;10</title>
<path fill="none" stroke="grey" stroke-width="2" d="M804.86,-228.52C751.76,-221.53 650.37,-206.3 556.23,-179.91"/>
<polygon fill="grey" stroke="grey" stroke-width="2" points="557.14,-176.53 546.56,-177.15 555.22,-183.26 557.14,-176.53"/>
</g>
<!-- 18 -->
<g id="node19" class="node">
<title>18</title>
<path fill="none" stroke="#56d873" stroke-width="2" d="M972.5,-180C972.5,-180 886.5,-180 886.5,-180 880.5,-180 874.5,-174 874.5,-168 874.5,-168 874.5,-156 874.5,-156 874.5,-150 880.5,-144 886.5,-144 886.5,-144 972.5,-144 972.5,-144 978.5,-144 984.5,-150 984.5,-156 984.5,-156 984.5,-168 984.5,-168 984.5,-174 978.5,-180 972.5,-180"/>
<text text-anchor="middle" x="929.5" y="-159.5" font-family="sans" font-size="10.00">prep_automlst_gbk</text>
</g>
<!-- 11&#45;&gt;18 -->
<g id="edge37" class="edge">
<title>11&#45;&gt;18</title>
<path fill="none" stroke="grey" stroke-width="2" d="M863.25,-215.7C874.34,-206.88 887.97,-196.03 899.99,-186.47"/>
<polygon fill="grey" stroke="grey" stroke-width="2" points="902.35,-189.07 908,-180.1 897.99,-183.59 902.35,-189.07"/>
</g>
<!-- 12&#45;&gt;0 -->
<g id="edge10" class="edge">
<title>12&#45;&gt;0</title>
<path fill="none" stroke="grey" stroke-width="2" d="M595.93,-287.74C635.43,-246.56 724.23,-140.84 669.5,-72 645.96,-42.39 536.44,-27.87 477.8,-22.12"/>
<polygon fill="grey" stroke="grey" stroke-width="2" points="478.1,-18.63 467.82,-21.17 477.44,-25.6 478.1,-18.63"/>
</g>
<!-- 12&#45;&gt;11 -->
<g id="edge25" class="edge">
<title>12&#45;&gt;11</title>
<path fill="none" stroke="grey" stroke-width="2" d="M624.61,-292.73C672.47,-279.99 746.93,-260.17 794.95,-247.39"/>
<polygon fill="grey" stroke="grey" stroke-width="2" points="796.01,-250.73 804.78,-244.77 794.21,-243.96 796.01,-250.73"/>
</g>
<!-- 21 -->
<g id="node22" class="node">
<title>21</title>
<path fill="none" stroke="#5692d8" stroke-width="2" d="M436.5,-252C436.5,-252 406.5,-252 406.5,-252 400.5,-252 394.5,-246 394.5,-240 394.5,-240 394.5,-228 394.5,-228 394.5,-222 400.5,-216 406.5,-216 406.5,-216 436.5,-216 436.5,-216 442.5,-216 448.5,-222 448.5,-228 448.5,-228 448.5,-240 448.5,-240 448.5,-246 442.5,-252 436.5,-252"/>
<text text-anchor="middle" x="421.5" y="-231.5" font-family="sans" font-size="10.00">eggnog</text>
</g>
<!-- 12&#45;&gt;21 -->
<g id="edge42" class="edge">
<title>12&#45;&gt;21</title>
<path fill="none" stroke="grey" stroke-width="2" d="M538.87,-287.98C517.21,-278.6 489.75,-266.58 457.74,-252.06"/>
<polygon fill="grey" stroke="grey" stroke-width="2" points="459.14,-248.85 448.59,-247.89 456.24,-255.22 459.14,-248.85"/>
</g>
<!-- 13 -->
<g id="node14" class="node">
<title>13</title>
<path fill="none" stroke="#56d8a9" stroke-width="2" d="M739.5,-396C739.5,-396 663.5,-396 663.5,-396 657.5,-396 651.5,-390 651.5,-384 651.5,-384 651.5,-372 651.5,-372 651.5,-366 657.5,-360 663.5,-360 663.5,-360 739.5,-360 739.5,-360 745.5,-360 751.5,-366 751.5,-372 751.5,-372 751.5,-384 751.5,-384 751.5,-390 745.5,-396 739.5,-396"/>
<text text-anchor="middle" x="701.5" y="-375.5" font-family="sans" font-size="10.00">prokka_db_setup</text>
</g>
<!-- 13&#45;&gt;12 -->
<g id="edge26" class="edge">
<title>13&#45;&gt;12</title>
<path fill="none" stroke="grey" stroke-width="2" d="M671.41,-359.88C655.18,-350.64 634.96,-339.13 617.53,-329.21"/>
<polygon fill="grey" stroke="grey" stroke-width="2" points="619.13,-326.09 608.7,-324.19 615.66,-332.18 619.13,-326.09"/>
</g>
<!-- 14 -->
<g id="node15" class="node">
<title>14</title>
<path fill="none" stroke="#d8a456" stroke-width="2" d="M767,-468C767,-468 636,-468 636,-468 630,-468 624,-462 624,-456 624,-456 624,-444 624,-444 624,-438 630,-432 636,-432 636,-432 767,-432 767,-432 773,-432 779,-438 779,-444 779,-444 779,-456 779,-456 779,-462 773,-468 767,-468"/>
<text text-anchor="middle" x="701.5" y="-447.5" font-family="sans" font-size="10.00">prokka_reference_download</text>
</g>
<!-- 14&#45;&gt;13 -->
<g id="edge31" class="edge">
<title>14&#45;&gt;13</title>
<path fill="none" stroke="grey" stroke-width="2" d="M701.5,-431.7C701.5,-423.98 701.5,-414.71 701.5,-406.11"/>
<polygon fill="grey" stroke="grey" stroke-width="2" points="705,-406.1 701.5,-396.1 698,-406.1 705,-406.1"/>
</g>
<!-- 15&#45;&gt;12 -->
<g id="edge29" class="edge">
<title>15&#45;&gt;12</title>
<path fill="none" stroke="grey" stroke-width="2" d="M545.38,-359.7C550.49,-351.56 556.7,-341.69 562.34,-332.7"/>
<polygon fill="grey" stroke="grey" stroke-width="2" points="565.39,-334.43 567.75,-324.1 559.46,-330.71 565.39,-334.43"/>
</g>
<!-- 16 -->
<g id="node17" class="node">
<title>16</title>
<path fill="none" stroke="#afd856" stroke-width="2" d="M572,-252C572,-252 479,-252 479,-252 473,-252 467,-246 467,-240 467,-240 467,-228 467,-228 467,-222 473,-216 479,-216 479,-216 572,-216 572,-216 578,-216 584,-222 584,-228 584,-228 584,-240 584,-240 584,-246 578,-252 572,-252"/>
<text text-anchor="middle" x="525.5" y="-231.5" font-family="sans" font-size="10.00">antismash_db_setup</text>
</g>
<!-- 16&#45;&gt;10 -->
<g id="edge24" class="edge">
<title>16&#45;&gt;10</title>
<path fill="none" stroke="grey" stroke-width="2" d="M522.29,-215.7C520.85,-207.98 519.13,-198.71 517.54,-190.11"/>
<polygon fill="grey" stroke="grey" stroke-width="2" points="520.94,-189.3 515.68,-180.1 514.06,-190.58 520.94,-189.3"/>
</g>
<!-- 17 -->
<g id="node18" class="node">
<title>17</title>
<path fill="none" stroke="#d8cb56" stroke-width="2" d="M827,-108C827,-108 746,-108 746,-108 740,-108 734,-102 734,-96 734,-96 734,-84 734,-84 734,-78 740,-72 746,-72 746,-72 827,-72 827,-72 833,-72 839,-78 839,-84 839,-84 839,-96 839,-96 839,-102 833,-108 827,-108"/>
<text text-anchor="middle" x="786.5" y="-87.5" font-family="sans" font-size="10.00">automlst_wrapper</text>
</g>
<!-- 17&#45;&gt;0 -->
<g id="edge2" class="edge">
<title>17&#45;&gt;0</title>
<path fill="none" stroke="grey" stroke-width="2" d="M733.95,-78.37C663.36,-64.09 539.65,-39.06 477.85,-26.56"/>
<polygon fill="grey" stroke="grey" stroke-width="2" points="478.27,-23.07 467.77,-24.52 476.88,-29.93 478.27,-23.07"/>
</g>
<!-- 18&#45;&gt;17 -->
<g id="edge35" class="edge">
<title>18&#45;&gt;17</title>
<path fill="none" stroke="grey" stroke-width="2" d="M894.52,-143.88C875.3,-134.47 851.27,-122.71 830.76,-112.67"/>
<polygon fill="grey" stroke="grey" stroke-width="2" points="832.14,-109.44 821.62,-108.19 829.06,-115.73 832.14,-109.44"/>
</g>
<!-- 19 -->
<g id="node20" class="node">
<title>19</title>
<path fill="none" stroke="#d86656" stroke-width="2" d="M844.5,-180C844.5,-180 728.5,-180 728.5,-180 722.5,-180 716.5,-174 716.5,-168 716.5,-168 716.5,-156 716.5,-156 716.5,-150 722.5,-144 728.5,-144 728.5,-144 844.5,-144 844.5,-144 850.5,-144 856.5,-150 856.5,-156 856.5,-156 856.5,-168 856.5,-168 856.5,-174 850.5,-180 844.5,-180"/>
<text text-anchor="middle" x="786.5" y="-159.5" font-family="sans" font-size="10.00">install_automlst_wrapper</text>
</g>
<!-- 19&#45;&gt;17 -->
<g id="edge36" class="edge">
<title>19&#45;&gt;17</title>
<path fill="none" stroke="grey" stroke-width="2" d="M786.5,-143.7C786.5,-135.98 786.5,-126.71 786.5,-118.11"/>
<polygon fill="grey" stroke="grey" stroke-width="2" points="790,-118.1 786.5,-108.1 783,-118.1 790,-118.1"/>
</g>
<!-- 20&#45;&gt;0 -->
<g id="edge3" class="edge">
<title>20&#45;&gt;0</title>
<path fill="none" stroke="grey" stroke-width="2" d="M112.34,-359.61C117.9,-332.94 127.5,-280.27 127.5,-235 127.5,-235 127.5,-235 127.5,-161 127.5,-41.12 320.28,-21.94 403.25,-19.24"/>
<polygon fill="grey" stroke="grey" stroke-width="2" points="403.37,-22.74 413.27,-18.98 403.18,-15.74 403.37,-22.74"/>
</g>
<!-- 21&#45;&gt;0 -->
<g id="edge9" class="edge">
<title>21&#45;&gt;0</title>
<path fill="none" stroke="grey" stroke-width="2" d="M418.02,-215.82C412.63,-186.09 404.01,-123.31 415.5,-72 417.51,-63.01 421.23,-53.75 425.2,-45.53"/>
<polygon fill="grey" stroke="grey" stroke-width="2" points="428.41,-46.94 429.87,-36.44 422.18,-43.73 428.41,-46.94"/>
</g>
<!-- 22 -->
<g id="node23" class="node">
<title>22</title>
<path fill="none" stroke="#70d856" stroke-width="2" d="M463.5,-324C463.5,-324 399.5,-324 399.5,-324 393.5,-324 387.5,-318 387.5,-312 387.5,-312 387.5,-300 387.5,-300 387.5,-294 393.5,-288 399.5,-288 399.5,-288 463.5,-288 463.5,-288 469.5,-288 475.5,-294 475.5,-300 475.5,-300 475.5,-312 475.5,-312 475.5,-318 469.5,-324 463.5,-324"/>
<text text-anchor="middle" x="431.5" y="-303.5" font-family="sans" font-size="10.00">install_eggnog</text>
</g>
<!-- 22&#45;&gt;21 -->
<g id="edge41" class="edge">
<title>22&#45;&gt;21</title>
<path fill="none" stroke="grey" stroke-width="2" d="M429.03,-287.7C427.93,-279.98 426.6,-270.71 425.37,-262.11"/>
<polygon fill="grey" stroke="grey" stroke-width="2" points="428.82,-261.51 423.94,-252.1 421.89,-262.5 428.82,-261.51"/>
</g>
<!-- 23&#45;&gt;0 -->
<g id="edge7" class="edge">
<title>23&#45;&gt;0</title>
<path fill="none" stroke="grey" stroke-width="2" d="M194.66,-359.61C189.1,-332.94 179.5,-280.27 179.5,-235 179.5,-235 179.5,-235 179.5,-161 179.5,-119.4 177.78,-100.06 208.5,-72 236.64,-46.29 344.74,-30.11 402.92,-23.08"/>
<polygon fill="grey" stroke="grey" stroke-width="2" points="403.65,-26.51 413.17,-21.87 402.83,-19.56 403.65,-26.51"/>
</g>
<!-- 24&#45;&gt;0 -->
<g id="edge11" class="edge">
<title>24&#45;&gt;0</title>
<path fill="none" stroke="grey" stroke-width="2" d="M600.23,-77.21C595.64,-75.45 590.95,-73.67 586.5,-72 549.41,-58.1 506.81,-42.7 477.24,-32.1"/>
<polygon fill="grey" stroke="grey" stroke-width="2" points="478.33,-28.78 467.74,-28.7 475.97,-35.37 478.33,-28.78"/>
</g>
<!-- 25 -->
<g id="node26" class="node">
<title>25</title>
<path fill="none" stroke="#567bd8" stroke-width="2" d="M648,-180C648,-180 577,-180 577,-180 571,-180 565,-174 565,-168 565,-168 565,-156 565,-156 565,-150 571,-144 577,-144 577,-144 648,-144 648,-144 654,-144 660,-150 660,-156 660,-156 660,-168 660,-168 660,-174 654,-180 648,-180"/>
<text text-anchor="middle" x="612.5" y="-159.5" font-family="sans" font-size="10.00">install_bigscape</text>
</g>
<!-- 25&#45;&gt;24 -->
<g id="edge46" class="edge">
<title>25&#45;&gt;24</title>
<path fill="none" stroke="grey" stroke-width="2" d="M616.95,-143.7C618.95,-135.9 621.37,-126.51 623.6,-117.83"/>
<polygon fill="grey" stroke="grey" stroke-width="2" points="627,-118.66 626.1,-108.1 620.22,-116.92 627,-118.66"/>
</g>
</g>
</svg>
