<?xml version="1.0" encoding="UTF-8" standalone="no"?>
<!DOCTYPE svg PUBLIC "-//W3C//DTD SVG 1.1//EN"
 "http://www.w3.org/Graphics/SVG/1.1/DTD/svg11.dtd">
<!-- Generated by graphviz version 2.49.3 (20211104.1129)
 -->
<!-- Title: snakemake_dag Pages: 1 -->
<svg width="1819pt" height="692pt"
 viewBox="0.00 0.00 1819.41 692.00" xmlns="http://www.w3.org/2000/svg" xmlns:xlink="http://www.w3.org/1999/xlink">
<g id="graph0" class="graph" transform="scale(1 1) rotate(0) translate(4 688)">
<title>snakemake_dag</title>
<polygon fill="white" stroke="transparent" points="-4,4 -4,-688 1815.41,-688 1815.41,4 -4,4"/>
<!-- 0 -->
<g id="node1" class="node">
<title>0</title>
<path fill="none" stroke="#d87556" stroke-width="2" d="M888.91,-36C888.91,-36 858.91,-36 858.91,-36 852.91,-36 846.91,-30 846.91,-24 846.91,-24 846.91,-12 846.91,-12 846.91,-6 852.91,0 858.91,0 858.91,0 888.91,0 888.91,0 894.91,0 900.91,-6 900.91,-12 900.91,-12 900.91,-24 900.91,-24 900.91,-30 894.91,-36 888.91,-36"/>
<text text-anchor="middle" x="873.91" y="-15.5" font-family="sans" font-size="10.00">all</text>
</g>
<!-- 1 -->
<g id="node2" class="node">
<title>1</title>
<path fill="none" stroke="#d88d56" stroke-width="2" d="M510.41,-396C510.41,-396 423.41,-396 423.41,-396 417.41,-396 411.41,-390 411.41,-384 411.41,-384 411.41,-372 411.41,-372 411.41,-366 417.41,-360 423.41,-360 423.41,-360 510.41,-360 510.41,-360 516.41,-360 522.41,-366 522.41,-372 522.41,-372 522.41,-384 522.41,-384 522.41,-390 516.41,-396 510.41,-396"/>
<text text-anchor="middle" x="466.91" y="-375.5" font-family="sans" font-size="10.00">fix_gtdb_taxonomy</text>
</g>
<!-- 1&#45;&gt;0 -->
<g id="edge3" class="edge">
<title>1&#45;&gt;0</title>
<path fill="none" stroke="grey" stroke-width="2" d="M411.39,-376.67C363.53,-373.57 295.19,-362.04 249.91,-324 216.84,-296.22 210.91,-278.19 210.91,-235 210.91,-235 210.91,-235 210.91,-161 210.91,-111.49 234.63,-96.04 277.91,-72 374.44,-18.37 721.73,-17.26 836.67,-18.43"/>
<polygon fill="grey" stroke="grey" stroke-width="2" points="836.7,-21.93 846.74,-18.54 836.78,-14.93 836.7,-21.93"/>
</g>
<!-- 21 -->
<g id="node22" class="node">
<title>21</title>
<path fill="none" stroke="#56d8b9" stroke-width="2" d="M518.41,-324C518.41,-324 415.41,-324 415.41,-324 409.41,-324 403.41,-318 403.41,-312 403.41,-312 403.41,-300 403.41,-300 403.41,-294 409.41,-288 415.41,-288 415.41,-288 518.41,-288 518.41,-288 524.41,-288 530.41,-294 530.41,-300 530.41,-300 530.41,-312 530.41,-312 530.41,-318 524.41,-324 518.41,-324"/>
<text text-anchor="middle" x="466.91" y="-303.5" font-family="sans" font-size="10.00">downstream_bgc_prep</text>
</g>
<!-- 1&#45;&gt;21 -->
<g id="edge58" class="edge">
<title>1&#45;&gt;21</title>
<path fill="none" stroke="grey" stroke-width="2" d="M466.91,-359.7C466.91,-351.98 466.91,-342.71 466.91,-334.11"/>
<polygon fill="grey" stroke="grey" stroke-width="2" points="470.41,-334.1 466.91,-324.1 463.41,-334.1 470.41,-334.1"/>
</g>
<!-- 2 -->
<g id="node3" class="node">
<title>2</title>
<path fill="none" stroke="#d87d56" stroke-width="2" d="M699.41,-540C699.41,-540 658.41,-540 658.41,-540 652.41,-540 646.41,-534 646.41,-528 646.41,-528 646.41,-516 646.41,-516 646.41,-510 652.41,-504 658.41,-504 658.41,-504 699.41,-504 699.41,-504 705.41,-504 711.41,-510 711.41,-516 711.41,-516 711.41,-528 711.41,-528 711.41,-534 705.41,-540 699.41,-540"/>
<text text-anchor="middle" x="678.91" y="-519.5" font-family="sans" font-size="10.00">gtdb_prep</text>
</g>
<!-- 2&#45;&gt;1 -->
<g id="edge25" class="edge">
<title>2&#45;&gt;1</title>
<path fill="none" stroke="grey" stroke-width="2" d="M653.34,-503.87C615.22,-478.34 543.43,-430.25 500.92,-401.78"/>
<polygon fill="grey" stroke="grey" stroke-width="2" points="502.83,-398.85 492.57,-396.19 498.93,-404.66 502.83,-398.85"/>
</g>
<!-- 16 -->
<g id="node17" class="node">
<title>16</title>
<path fill="none" stroke="#568ad8" stroke-width="2" d="M822.41,-468C822.41,-468 773.41,-468 773.41,-468 767.41,-468 761.41,-462 761.41,-456 761.41,-456 761.41,-444 761.41,-444 761.41,-438 767.41,-432 773.41,-432 773.41,-432 822.41,-432 822.41,-432 828.41,-432 834.41,-438 834.41,-444 834.41,-444 834.41,-456 834.41,-456 834.41,-462 828.41,-468 822.41,-468"/>
<text text-anchor="middle" x="797.91" y="-447.5" font-family="sans" font-size="10.00">format_gbk</text>
</g>
<!-- 2&#45;&gt;16 -->
<g id="edge48" class="edge">
<title>2&#45;&gt;16</title>
<path fill="none" stroke="grey" stroke-width="2" d="M708.02,-503.88C723.58,-494.72 742.93,-483.34 759.69,-473.48"/>
<polygon fill="grey" stroke="grey" stroke-width="2" points="761.84,-476.28 768.69,-468.19 758.29,-470.24 761.84,-476.28"/>
</g>
<!-- 3 -->
<g id="node4" class="node">
<title>3</title>
<path fill="none" stroke="#56d8d0" stroke-width="2" d="M170.91,-108C170.91,-108 42.91,-108 42.91,-108 36.91,-108 30.91,-102 30.91,-96 30.91,-96 30.91,-84 30.91,-84 30.91,-78 36.91,-72 42.91,-72 42.91,-72 170.91,-72 170.91,-72 176.91,-72 182.91,-78 182.91,-84 182.91,-84 182.91,-96 182.91,-96 182.91,-102 176.91,-108 170.91,-108"/>
<text text-anchor="middle" x="106.91" y="-87.5" font-family="sans" font-size="10.00">write_dependency_versions</text>
</g>
<!-- 3&#45;&gt;0 -->
<g id="edge19" class="edge">
<title>3&#45;&gt;0</title>
<path fill="none" stroke="grey" stroke-width="2" d="M182.92,-74.04C187.65,-73.3 192.34,-72.61 196.91,-72 439.58,-39.68 734,-24.92 836.55,-20.5"/>
<polygon fill="grey" stroke="grey" stroke-width="2" points="836.87,-23.99 846.71,-20.07 836.57,-17 836.87,-23.99"/>
</g>
<!-- 4 -->
<g id="node5" class="node">
<title>4</title>
<path fill="none" stroke="#d8d356" stroke-width="2" d="M971.41,-612C971.41,-612 922.41,-612 922.41,-612 916.41,-612 910.41,-606 910.41,-600 910.41,-600 910.41,-588 910.41,-588 910.41,-582 916.41,-576 922.41,-576 922.41,-576 971.41,-576 971.41,-576 977.41,-576 983.41,-582 983.41,-588 983.41,-588 983.41,-600 983.41,-600 983.41,-606 977.41,-612 971.41,-612"/>
<text text-anchor="middle" x="946.91" y="-591.5" font-family="sans" font-size="10.00">seqfu_stats</text>
</g>
<!-- 4&#45;&gt;0 -->
<g id="edge7" class="edge">
<title>4&#45;&gt;0</title>
<path fill="none" stroke="grey" stroke-width="2" d="M910.19,-591.43C736.18,-583.49 2.91,-544.48 2.91,-451 2.91,-451 2.91,-451 2.91,-161 2.91,-120.55 -8.73,-98.4 21.91,-72 84.26,-18.27 679.96,-17.88 836.42,-18.72"/>
<polygon fill="grey" stroke="grey" stroke-width="2" points="836.48,-22.22 846.5,-18.78 836.52,-15.22 836.48,-22.22"/>
</g>
<!-- 5 -->
<g id="node6" class="node">
<title>5</title>
<path fill="none" stroke="#d8a456" stroke-width="2" d="M1617.91,-684C1617.91,-684 1507.91,-684 1507.91,-684 1501.91,-684 1495.91,-678 1495.91,-672 1495.91,-672 1495.91,-660 1495.91,-660 1495.91,-654 1501.91,-648 1507.91,-648 1507.91,-648 1617.91,-648 1617.91,-648 1623.91,-648 1629.91,-654 1629.91,-660 1629.91,-660 1629.91,-672 1629.91,-672 1629.91,-678 1623.91,-684 1617.91,-684"/>
<text text-anchor="middle" x="1562.91" y="-663.5" font-family="sans" font-size="10.00">ncbi_genome_download</text>
</g>
<!-- 5&#45;&gt;4 -->
<g id="edge28" class="edge">
<title>5&#45;&gt;4</title>
<path fill="none" stroke="grey" stroke-width="2" d="M1495.87,-649.44C1492.85,-648.92 1489.85,-648.43 1486.91,-648 1272.42,-616.37 1209.94,-657.34 993.63,-611.74"/>
<polygon fill="grey" stroke="grey" stroke-width="2" points="994.06,-608.25 983.55,-609.57 992.59,-615.09 994.06,-608.25"/>
</g>
<!-- 8 -->
<g id="node9" class="node">
<title>8</title>
<path fill="none" stroke="#56d8d8" stroke-width="2" d="M1338.91,-612C1338.91,-612 1308.91,-612 1308.91,-612 1302.91,-612 1296.91,-606 1296.91,-600 1296.91,-600 1296.91,-588 1296.91,-588 1296.91,-582 1302.91,-576 1308.91,-576 1308.91,-576 1338.91,-576 1338.91,-576 1344.91,-576 1350.91,-582 1350.91,-588 1350.91,-588 1350.91,-600 1350.91,-600 1350.91,-606 1344.91,-612 1338.91,-612"/>
<text text-anchor="middle" x="1323.91" y="-591.5" font-family="sans" font-size="10.00">mlst</text>
</g>
<!-- 5&#45;&gt;8 -->
<g id="edge31" class="edge">
<title>5&#45;&gt;8</title>
<path fill="none" stroke="grey" stroke-width="2" d="M1495.87,-648.74C1447.18,-636.68 1385.66,-620.86 1360.91,-612 1360.81,-611.96 1360.71,-611.93 1360.61,-611.89"/>
<polygon fill="grey" stroke="grey" stroke-width="2" points="1361.75,-608.58 1351.17,-608.17 1359.19,-615.09 1361.75,-608.58"/>
</g>
<!-- 9 -->
<g id="node10" class="node">
<title>9</title>
<path fill="none" stroke="#56d8a9" stroke-width="2" d="M1446.41,-612C1446.41,-612 1381.41,-612 1381.41,-612 1375.41,-612 1369.41,-606 1369.41,-600 1369.41,-600 1369.41,-588 1369.41,-588 1369.41,-582 1375.41,-576 1381.41,-576 1381.41,-576 1446.41,-576 1446.41,-576 1452.41,-576 1458.41,-582 1458.41,-588 1458.41,-588 1458.41,-600 1458.41,-600 1458.41,-606 1452.41,-612 1446.41,-612"/>
<text text-anchor="middle" x="1413.91" y="-591.5" font-family="sans" font-size="10.00">refseq_masher</text>
</g>
<!-- 5&#45;&gt;9 -->
<g id="edge34" class="edge">
<title>5&#45;&gt;9</title>
<path fill="none" stroke="grey" stroke-width="2" d="M1526.46,-647.88C1506.27,-638.39 1480.99,-626.51 1459.5,-616.42"/>
<polygon fill="grey" stroke="grey" stroke-width="2" points="1460.78,-613.15 1450.24,-612.07 1457.8,-619.49 1460.78,-613.15"/>
</g>
<!-- 10 -->
<g id="node11" class="node">
<title>10</title>
<path fill="none" stroke="#88d856" stroke-width="2" d="M1518.91,-612C1518.91,-612 1488.91,-612 1488.91,-612 1482.91,-612 1476.91,-606 1476.91,-600 1476.91,-600 1476.91,-588 1476.91,-588 1476.91,-582 1482.91,-576 1488.91,-576 1488.91,-576 1518.91,-576 1518.91,-576 1524.91,-576 1530.91,-582 1530.91,-588 1530.91,-588 1530.91,-600 1530.91,-600 1530.91,-606 1524.91,-612 1518.91,-612"/>
<text text-anchor="middle" x="1503.91" y="-591.5" font-family="sans" font-size="10.00">mash</text>
</g>
<!-- 5&#45;&gt;10 -->
<g id="edge37" class="edge">
<title>5&#45;&gt;10</title>
<path fill="none" stroke="grey" stroke-width="2" d="M1548.33,-647.7C1541.25,-639.3 1532.63,-629.07 1524.86,-619.86"/>
<polygon fill="grey" stroke="grey" stroke-width="2" points="1527.45,-617.49 1518.33,-612.1 1522.09,-622.01 1527.45,-617.49"/>
</g>
<!-- 11 -->
<g id="node12" class="node">
<title>11</title>
<path fill="none" stroke="#d85e56" stroke-width="2" d="M1590.91,-612C1590.91,-612 1560.91,-612 1560.91,-612 1554.91,-612 1548.91,-606 1548.91,-600 1548.91,-600 1548.91,-588 1548.91,-588 1548.91,-582 1554.91,-576 1560.91,-576 1560.91,-576 1590.91,-576 1590.91,-576 1596.91,-576 1602.91,-582 1602.91,-588 1602.91,-588 1602.91,-600 1602.91,-600 1602.91,-606 1596.91,-612 1590.91,-612"/>
<text text-anchor="middle" x="1575.91" y="-591.5" font-family="sans" font-size="10.00">fastani</text>
</g>
<!-- 5&#45;&gt;11 -->
<g id="edge40" class="edge">
<title>5&#45;&gt;11</title>
<path fill="none" stroke="grey" stroke-width="2" d="M1566.12,-647.7C1567.56,-639.98 1569.28,-630.71 1570.87,-622.11"/>
<polygon fill="grey" stroke="grey" stroke-width="2" points="1574.35,-622.58 1572.73,-612.1 1567.47,-621.3 1574.35,-622.58"/>
</g>
<!-- 13 -->
<g id="node14" class="node">
<title>13</title>
<path fill="none" stroke="#d8c356" stroke-width="2" d="M1702.41,-612C1702.41,-612 1671.41,-612 1671.41,-612 1665.41,-612 1659.41,-606 1659.41,-600 1659.41,-600 1659.41,-588 1659.41,-588 1659.41,-582 1665.41,-576 1671.41,-576 1671.41,-576 1702.41,-576 1702.41,-576 1708.41,-576 1714.41,-582 1714.41,-588 1714.41,-588 1714.41,-600 1714.41,-600 1714.41,-606 1708.41,-612 1702.41,-612"/>
<text text-anchor="middle" x="1686.91" y="-591.5" font-family="sans" font-size="10.00">checkm</text>
</g>
<!-- 5&#45;&gt;13 -->
<g id="edge45" class="edge">
<title>5&#45;&gt;13</title>
<path fill="none" stroke="grey" stroke-width="2" d="M1593.24,-647.88C1610.34,-638.23 1631.83,-626.1 1649.91,-615.89"/>
<polygon fill="grey" stroke="grey" stroke-width="2" points="1652.02,-618.71 1659.01,-610.75 1648.58,-612.62 1652.02,-618.71"/>
</g>
<!-- 17 -->
<g id="node18" class="node">
<title>17</title>
<path fill="none" stroke="#59d856" stroke-width="2" d="M1136.91,-540C1136.91,-540 1106.91,-540 1106.91,-540 1100.91,-540 1094.91,-534 1094.91,-528 1094.91,-528 1094.91,-516 1094.91,-516 1094.91,-510 1100.91,-504 1106.91,-504 1106.91,-504 1136.91,-504 1136.91,-504 1142.91,-504 1148.91,-510 1148.91,-516 1148.91,-516 1148.91,-528 1148.91,-528 1148.91,-534 1142.91,-540 1136.91,-540"/>
<text text-anchor="middle" x="1121.91" y="-519.5" font-family="sans" font-size="10.00">prokka</text>
</g>
<!-- 5&#45;&gt;17 -->
<g id="edge50" class="edge">
<title>5&#45;&gt;17</title>
<path fill="none" stroke="grey" stroke-width="2" d="M1584.07,-647.81C1605.06,-628.74 1631.47,-597.79 1611.91,-576 1581.76,-542.42 1268.51,-528.19 1159.25,-524.23"/>
<polygon fill="grey" stroke="grey" stroke-width="2" points="1159.15,-520.72 1149.03,-523.86 1158.9,-527.72 1159.15,-520.72"/>
</g>
<!-- 18 -->
<g id="node19" class="node">
<title>18</title>
<path fill="none" stroke="#d89556" stroke-width="2" d="M1110.41,-612C1110.41,-612 1013.41,-612 1013.41,-612 1007.41,-612 1001.41,-606 1001.41,-600 1001.41,-600 1001.41,-588 1001.41,-588 1001.41,-582 1007.41,-576 1013.41,-576 1013.41,-576 1110.41,-576 1110.41,-576 1116.41,-576 1122.41,-582 1122.41,-588 1122.41,-588 1122.41,-600 1122.41,-600 1122.41,-606 1116.41,-612 1110.41,-612"/>
<text text-anchor="middle" x="1061.91" y="-591.5" font-family="sans" font-size="10.00">extract_meta_prokka</text>
</g>
<!-- 5&#45;&gt;18 -->
<g id="edge56" class="edge">
<title>5&#45;&gt;18</title>
<path fill="none" stroke="grey" stroke-width="2" d="M1495.86,-649.55C1492.84,-648.99 1489.85,-648.48 1486.91,-648 1333.57,-623.17 1290,-638.13 1132.55,-611.95"/>
<polygon fill="grey" stroke="grey" stroke-width="2" points="1132.95,-608.47 1122.51,-610.26 1131.79,-615.38 1132.95,-608.47"/>
</g>
<!-- 48 -->
<g id="node49" class="node">
<title>48</title>
<path fill="none" stroke="#56b9d8" stroke-width="2" d="M1799.41,-540C1799.41,-540 1684.41,-540 1684.41,-540 1678.41,-540 1672.41,-534 1672.41,-528 1672.41,-528 1672.41,-516 1672.41,-516 1672.41,-510 1678.41,-504 1684.41,-504 1684.41,-504 1799.41,-504 1799.41,-504 1805.41,-504 1811.41,-510 1811.41,-516 1811.41,-516 1811.41,-528 1811.41,-528 1811.41,-534 1805.41,-540 1799.41,-540"/>
<text text-anchor="middle" x="1741.91" y="-519.5" font-family="sans" font-size="10.00">extract_ncbi_information</text>
</g>
<!-- 5&#45;&gt;48 -->
<g id="edge94" class="edge">
<title>5&#45;&gt;48</title>
<path fill="none" stroke="grey" stroke-width="2" d="M1630.13,-650.07C1668.29,-640.26 1710.96,-626.58 1723.91,-612 1738.75,-595.29 1742.67,-569.8 1743.22,-550.37"/>
<polygon fill="grey" stroke="grey" stroke-width="2" points="1746.72,-550.3 1743.23,-540.3 1739.72,-550.3 1746.72,-550.3"/>
</g>
<!-- 6 -->
<g id="node7" class="node">
<title>6</title>
<path fill="none" stroke="#56a9d8" stroke-width="2" d="M1465.91,-684C1465.91,-684 1347.91,-684 1347.91,-684 1341.91,-684 1335.91,-678 1335.91,-672 1335.91,-672 1335.91,-660 1335.91,-660 1335.91,-654 1341.91,-648 1347.91,-648 1347.91,-648 1465.91,-648 1465.91,-648 1471.91,-648 1477.91,-654 1477.91,-660 1477.91,-660 1477.91,-672 1477.91,-672 1477.91,-678 1471.91,-684 1465.91,-684"/>
<text text-anchor="middle" x="1406.91" y="-663.5" font-family="sans" font-size="10.00">patric_genome_download</text>
</g>
<!-- 6&#45;&gt;4 -->
<g id="edge27" class="edge">
<title>6&#45;&gt;4</title>
<path fill="none" stroke="grey" stroke-width="2" d="M1335.88,-649.51C1332.85,-648.98 1329.85,-648.47 1326.91,-648 1182.64,-624.96 1140.08,-645.23 993.39,-611.74"/>
<polygon fill="grey" stroke="grey" stroke-width="2" points="994.1,-608.31 983.57,-609.46 992.52,-615.13 994.1,-608.31"/>
</g>
<!-- 6&#45;&gt;8 -->
<g id="edge30" class="edge">
<title>6&#45;&gt;8</title>
<path fill="none" stroke="grey" stroke-width="2" d="M1386.39,-647.7C1376.04,-638.97 1363.32,-628.24 1352.07,-618.75"/>
<polygon fill="grey" stroke="grey" stroke-width="2" points="1354.09,-615.88 1344.19,-612.1 1349.58,-621.23 1354.09,-615.88"/>
</g>
<!-- 6&#45;&gt;9 -->
<g id="edge33" class="edge">
<title>6&#45;&gt;9</title>
<path fill="none" stroke="grey" stroke-width="2" d="M1408.64,-647.7C1409.41,-639.98 1410.34,-630.71 1411.2,-622.11"/>
<polygon fill="grey" stroke="grey" stroke-width="2" points="1414.69,-622.4 1412.2,-612.1 1407.72,-621.71 1414.69,-622.4"/>
</g>
<!-- 6&#45;&gt;10 -->
<g id="edge36" class="edge">
<title>6&#45;&gt;10</title>
<path fill="none" stroke="grey" stroke-width="2" d="M1430.89,-647.7C1443.22,-638.8 1458.43,-627.82 1471.76,-618.2"/>
<polygon fill="grey" stroke="grey" stroke-width="2" points="1474.15,-620.79 1480.21,-612.1 1470.05,-615.12 1474.15,-620.79"/>
</g>
<!-- 6&#45;&gt;11 -->
<g id="edge39" class="edge">
<title>6&#45;&gt;11</title>
<path fill="none" stroke="grey" stroke-width="2" d="M1451.83,-647.9C1475.62,-638.66 1505.46,-626.78 1539.61,-612.02"/>
<polygon fill="grey" stroke="grey" stroke-width="2" points="1541.09,-615.19 1548.87,-607.99 1538.3,-608.77 1541.09,-615.19"/>
</g>
<!-- 6&#45;&gt;13 -->
<g id="edge44" class="edge">
<title>6&#45;&gt;13</title>
<path fill="none" stroke="grey" stroke-width="2" d="M1475.05,-647.97C1529.86,-634.26 1604.84,-615.52 1649.34,-604.39"/>
<polygon fill="grey" stroke="grey" stroke-width="2" points="1650.3,-607.76 1659.16,-601.94 1648.61,-600.97 1650.3,-607.76"/>
</g>
<!-- 6&#45;&gt;17 -->
<g id="edge52" class="edge">
<title>6&#45;&gt;17</title>
<path fill="none" stroke="grey" stroke-width="2" d="M1358.93,-647.97C1336.44,-638.92 1309.82,-626.63 1287.91,-612 1268.56,-599.08 1269.43,-588.66 1249.91,-576 1221.37,-557.49 1185.3,-543.25 1158.73,-534.22"/>
<polygon fill="grey" stroke="grey" stroke-width="2" points="1159.64,-530.83 1149.04,-531.02 1157.44,-537.48 1159.64,-530.83"/>
</g>
<!-- 6&#45;&gt;18 -->
<g id="edge55" class="edge">
<title>6&#45;&gt;18</title>
<path fill="none" stroke="grey" stroke-width="2" d="M1335.83,-649.79C1332.82,-649.18 1329.83,-648.58 1326.91,-648 1243.5,-631.44 1219.75,-630.46 1132.38,-612.04"/>
<polygon fill="grey" stroke="grey" stroke-width="2" points="1133.08,-608.61 1122.57,-609.95 1131.62,-615.45 1133.08,-608.61"/>
</g>
<!-- 7 -->
<g id="node8" class="node">
<title>7</title>
<path fill="none" stroke="#68d856" stroke-width="2" d="M1305.41,-684C1305.41,-684 1218.41,-684 1218.41,-684 1212.41,-684 1206.41,-678 1206.41,-672 1206.41,-672 1206.41,-660 1206.41,-660 1206.41,-654 1212.41,-648 1218.41,-648 1218.41,-648 1305.41,-648 1305.41,-648 1311.41,-648 1317.41,-654 1317.41,-660 1317.41,-660 1317.41,-672 1317.41,-672 1317.41,-678 1311.41,-684 1305.41,-684"/>
<text text-anchor="middle" x="1261.91" y="-663.5" font-family="sans" font-size="10.00">copy_custom_fasta</text>
</g>
<!-- 7&#45;&gt;4 -->
<g id="edge26" class="edge">
<title>7&#45;&gt;4</title>
<path fill="none" stroke="grey" stroke-width="2" d="M1206.18,-656.68C1153.6,-648.24 1072.52,-633.69 993.74,-611.99"/>
<polygon fill="grey" stroke="grey" stroke-width="2" points="994.22,-608.49 983.65,-609.16 992.33,-615.23 994.22,-608.49"/>
</g>
<!-- 7&#45;&gt;8 -->
<g id="edge29" class="edge">
<title>7&#45;&gt;8</title>
<path fill="none" stroke="grey" stroke-width="2" d="M1277.24,-647.7C1284.67,-639.3 1293.73,-629.07 1301.89,-619.86"/>
<polygon fill="grey" stroke="grey" stroke-width="2" points="1304.75,-621.91 1308.76,-612.1 1299.51,-617.27 1304.75,-621.91"/>
</g>
<!-- 7&#45;&gt;9 -->
<g id="edge32" class="edge">
<title>7&#45;&gt;9</title>
<path fill="none" stroke="grey" stroke-width="2" d="M1299.09,-647.88C1319.78,-638.35 1345.71,-626.41 1367.69,-616.28"/>
<polygon fill="grey" stroke="grey" stroke-width="2" points="1369.23,-619.43 1376.85,-612.07 1366.3,-613.07 1369.23,-619.43"/>
</g>
<!-- 7&#45;&gt;10 -->
<g id="edge35" class="edge">
<title>7&#45;&gt;10</title>
<path fill="none" stroke="grey" stroke-width="2" d="M1317.57,-650.42C1320.73,-649.6 1323.86,-648.79 1326.91,-648 1386.59,-632.58 1405.31,-633.75 1467.17,-611.94"/>
<polygon fill="grey" stroke="grey" stroke-width="2" points="1468.39,-615.22 1476.62,-608.55 1466.03,-608.63 1468.39,-615.22"/>
</g>
<!-- 7&#45;&gt;11 -->
<g id="edge38" class="edge">
<title>7&#45;&gt;11</title>
<path fill="none" stroke="grey" stroke-width="2" d="M1317.5,-650.12C1320.68,-649.37 1323.83,-648.66 1326.91,-648 1417.66,-628.5 1446.41,-639.94 1538.94,-611.83"/>
<polygon fill="grey" stroke="grey" stroke-width="2" points="1540.2,-615.11 1548.7,-608.79 1538.12,-608.42 1540.2,-615.11"/>
</g>
<!-- 7&#45;&gt;13 -->
<g id="edge43" class="edge">
<title>7&#45;&gt;13</title>
<path fill="none" stroke="grey" stroke-width="2" d="M1317.47,-649.96C1320.65,-649.26 1323.82,-648.6 1326.91,-648 1452.27,-623.8 1486.17,-634.14 1611.91,-612 1624.11,-609.85 1637.33,-607.03 1649.21,-604.3"/>
<polygon fill="grey" stroke="grey" stroke-width="2" points="1650.32,-607.63 1659.26,-601.94 1648.72,-600.82 1650.32,-607.63"/>
</g>
<!-- 7&#45;&gt;17 -->
<g id="edge53" class="edge">
<title>7&#45;&gt;17</title>
<path fill="none" stroke="grey" stroke-width="2" d="M1206.33,-665.27C1115.28,-664.4 940.57,-656.77 901.91,-612 848.67,-550.35 1008.87,-530.84 1084.6,-525.15"/>
<polygon fill="grey" stroke="grey" stroke-width="2" points="1084.96,-528.64 1094.69,-524.44 1084.47,-521.65 1084.96,-528.64"/>
</g>
<!-- 7&#45;&gt;18 -->
<g id="edge54" class="edge">
<title>7&#45;&gt;18</title>
<path fill="none" stroke="grey" stroke-width="2" d="M1213.24,-647.97C1185.3,-638.19 1150.01,-625.84 1120.55,-615.52"/>
<polygon fill="grey" stroke="grey" stroke-width="2" points="1121.39,-612.11 1110.8,-612.11 1119.08,-618.72 1121.39,-612.11"/>
</g>
<!-- 8&#45;&gt;0 -->
<g id="edge20" class="edge">
<title>8&#45;&gt;0</title>
<path fill="none" stroke="grey" stroke-width="2" d="M1351.17,-580.29C1391.39,-559.44 1461.91,-513.91 1461.91,-451 1461.91,-451 1461.91,-451 1461.91,-161 1461.91,-120.55 1473.14,-98.87 1442.91,-72 1403.19,-36.69 1031.3,-23.36 911.15,-19.95"/>
<polygon fill="grey" stroke="grey" stroke-width="2" points="911.07,-16.45 900.98,-19.67 910.88,-23.44 911.07,-16.45"/>
</g>
<!-- 9&#45;&gt;0 -->
<g id="edge17" class="edge">
<title>9&#45;&gt;0</title>
<path fill="none" stroke="grey" stroke-width="2" d="M1433,-575.77C1458.33,-550.91 1499.91,-502.3 1499.91,-451 1499.91,-451 1499.91,-451 1499.91,-161 1499.91,-118.81 1500.43,-97.61 1466.91,-72 1422.77,-38.27 1034.56,-23.82 911.3,-20.05"/>
<polygon fill="grey" stroke="grey" stroke-width="2" points="911.31,-16.55 901.21,-19.75 911.1,-23.54 911.31,-16.55"/>
</g>
<!-- 10&#45;&gt;0 -->
<g id="edge11" class="edge">
<title>10&#45;&gt;0</title>
<path fill="none" stroke="grey" stroke-width="2" d="M1510.79,-575.83C1520.73,-549.44 1537.91,-497.14 1537.91,-451 1537.91,-451 1537.91,-451 1537.91,-161 1537.91,-117.07 1531.09,-96.91 1494.91,-72 1446.8,-38.88 1038.04,-23.92 911.25,-20.05"/>
<polygon fill="grey" stroke="grey" stroke-width="2" points="911.34,-16.56 901.24,-19.75 911.13,-23.55 911.34,-16.56"/>
</g>
<!-- 11&#45;&gt;0 -->
<g id="edge2" class="edge">
<title>11&#45;&gt;0</title>
<path fill="none" stroke="grey" stroke-width="2" d="M1575.91,-575.95C1575.91,-549.29 1575.91,-496.11 1575.91,-451 1575.91,-451 1575.91,-451 1575.91,-161 1575.91,-115.63 1564.11,-96.48 1525.91,-72 1474.06,-38.77 1042.02,-23.8 911.26,-20.01"/>
<polygon fill="grey" stroke="grey" stroke-width="2" points="911.06,-16.5 900.96,-19.71 910.86,-23.5 911.06,-16.5"/>
</g>
<!-- 12 -->
<g id="node13" class="node">
<title>12</title>
<path fill="none" stroke="#56d85b" stroke-width="2" d="M1668.91,-468C1668.91,-468 1616.91,-468 1616.91,-468 1610.91,-468 1604.91,-462 1604.91,-456 1604.91,-456 1604.91,-444 1604.91,-444 1604.91,-438 1610.91,-432 1616.91,-432 1616.91,-432 1668.91,-432 1668.91,-432 1674.91,-432 1680.91,-438 1680.91,-444 1680.91,-444 1680.91,-456 1680.91,-456 1680.91,-462 1674.91,-468 1668.91,-468"/>
<text text-anchor="middle" x="1642.91" y="-447.5" font-family="sans" font-size="10.00">checkm_out</text>
</g>
<!-- 12&#45;&gt;0 -->
<g id="edge13" class="edge">
<title>12&#45;&gt;0</title>
<path fill="none" stroke="grey" stroke-width="2" d="M1640.08,-431.57C1635.99,-404.84 1628.91,-352.09 1628.91,-307 1628.91,-307 1628.91,-307 1628.91,-161 1628.91,-117.81 1625.16,-96.95 1589.91,-72 1534.25,-32.62 1050.7,-21.84 911.35,-19.54"/>
<polygon fill="grey" stroke="grey" stroke-width="2" points="911.22,-16.03 901.17,-19.37 911.11,-23.03 911.22,-16.03"/>
</g>
<!-- 13&#45;&gt;12 -->
<g id="edge41" class="edge">
<title>13&#45;&gt;12</title>
<path fill="none" stroke="grey" stroke-width="2" d="M1678.44,-575.64C1673.71,-565.43 1667.96,-552.18 1663.91,-540 1657.17,-519.69 1651.7,-496.1 1648.04,-478.3"/>
<polygon fill="grey" stroke="grey" stroke-width="2" points="1651.44,-477.44 1646.05,-468.31 1644.57,-478.81 1651.44,-477.44"/>
</g>
<!-- 14 -->
<g id="node15" class="node">
<title>14</title>
<path fill="none" stroke="#56c1d8" stroke-width="2" d="M1725.91,-684C1725.91,-684 1659.91,-684 1659.91,-684 1653.91,-684 1647.91,-678 1647.91,-672 1647.91,-672 1647.91,-660 1647.91,-660 1647.91,-654 1653.91,-648 1659.91,-648 1659.91,-648 1725.91,-648 1725.91,-648 1731.91,-648 1737.91,-654 1737.91,-660 1737.91,-660 1737.91,-672 1737.91,-672 1737.91,-678 1731.91,-684 1725.91,-684"/>
<text text-anchor="middle" x="1692.91" y="-663.5" font-family="sans" font-size="10.00">install_checkm</text>
</g>
<!-- 14&#45;&gt;13 -->
<g id="edge42" class="edge">
<title>14&#45;&gt;13</title>
<path fill="none" stroke="grey" stroke-width="2" d="M1691.43,-647.7C1690.77,-639.98 1689.97,-630.71 1689.23,-622.11"/>
<polygon fill="grey" stroke="grey" stroke-width="2" points="1692.72,-621.77 1688.38,-612.1 1685.74,-622.37 1692.72,-621.77"/>
</g>
<!-- 15 -->
<g id="node16" class="node">
<title>15</title>
<path fill="none" stroke="#56d863" stroke-width="2" d="M652.91,-396C652.91,-396 574.91,-396 574.91,-396 568.91,-396 562.91,-390 562.91,-384 562.91,-384 562.91,-372 562.91,-372 562.91,-366 568.91,-360 574.91,-360 574.91,-360 652.91,-360 652.91,-360 658.91,-360 664.91,-366 664.91,-372 664.91,-372 664.91,-384 664.91,-384 664.91,-390 658.91,-396 652.91,-396"/>
<text text-anchor="middle" x="613.91" y="-375.5" font-family="sans" font-size="10.00">copy_prokka_gbk</text>
</g>
<!-- 15&#45;&gt;0 -->
<g id="edge14" class="edge">
<title>15&#45;&gt;0</title>
<path fill="none" stroke="grey" stroke-width="2" d="M562.82,-365.9C552.61,-363.83 541.93,-361.76 531.91,-360 476.63,-350.3 325.58,-359.27 281.91,-324 249.09,-297.49 248.91,-277.19 248.91,-235 248.91,-235 248.91,-235 248.91,-161 248.91,-140.93 194.56,-138.79 364.91,-72 451.09,-38.21 734.21,-24.31 836.57,-20.31"/>
<polygon fill="grey" stroke="grey" stroke-width="2" points="836.88,-23.8 846.74,-19.92 836.61,-16.81 836.88,-23.8"/>
</g>
<!-- 16&#45;&gt;15 -->
<g id="edge46" class="edge">
<title>16&#45;&gt;15</title>
<path fill="none" stroke="grey" stroke-width="2" d="M761.12,-435C734.52,-424.89 698.17,-411.05 668.24,-399.67"/>
<polygon fill="grey" stroke="grey" stroke-width="2" points="669.36,-396.35 658.77,-396.07 666.87,-402.89 669.36,-396.35"/>
</g>
<!-- 22 -->
<g id="node23" class="node">
<title>22</title>
<path fill="none" stroke="#56d892" stroke-width="2" d="M763.91,-396C763.91,-396 719.91,-396 719.91,-396 713.91,-396 707.91,-390 707.91,-384 707.91,-384 707.91,-372 707.91,-372 707.91,-366 713.91,-360 719.91,-360 719.91,-360 763.91,-360 763.91,-360 769.91,-360 775.91,-366 775.91,-372 775.91,-372 775.91,-384 775.91,-384 775.91,-390 769.91,-396 763.91,-396"/>
<text text-anchor="middle" x="741.91" y="-375.5" font-family="sans" font-size="10.00">antismash</text>
</g>
<!-- 16&#45;&gt;22 -->
<g id="edge61" class="edge">
<title>16&#45;&gt;22</title>
<path fill="none" stroke="grey" stroke-width="2" d="M784.07,-431.7C777.42,-423.39 769.33,-413.28 762.02,-404.14"/>
<polygon fill="grey" stroke="grey" stroke-width="2" points="764.57,-401.73 755.59,-396.1 759.11,-406.1 764.57,-401.73"/>
</g>
<!-- 35 -->
<g id="node36" class="node">
<title>35</title>
<path fill="none" stroke="#bed856" stroke-width="2" d="M896.91,-396C896.91,-396 810.91,-396 810.91,-396 804.91,-396 798.91,-390 798.91,-384 798.91,-384 798.91,-372 798.91,-372 798.91,-366 804.91,-360 810.91,-360 810.91,-360 896.91,-360 896.91,-360 902.91,-360 908.91,-366 908.91,-372 908.91,-372 908.91,-384 908.91,-384 908.91,-390 902.91,-396 896.91,-396"/>
<text text-anchor="middle" x="853.91" y="-375.5" font-family="sans" font-size="10.00">prep_automlst_gbk</text>
</g>
<!-- 16&#45;&gt;35 -->
<g id="edge78" class="edge">
<title>16&#45;&gt;35</title>
<path fill="none" stroke="grey" stroke-width="2" d="M811.75,-431.7C818.4,-423.39 826.49,-413.28 833.8,-404.14"/>
<polygon fill="grey" stroke="grey" stroke-width="2" points="836.71,-406.1 840.23,-396.1 831.25,-401.73 836.71,-406.1"/>
</g>
<!-- 17&#45;&gt;16 -->
<g id="edge47" class="edge">
<title>17&#45;&gt;16</title>
<path fill="none" stroke="grey" stroke-width="2" d="M1094.84,-515.15C1039.65,-503.23 913.54,-475.98 844.76,-461.12"/>
<polygon fill="grey" stroke="grey" stroke-width="2" points="845.15,-457.63 834.64,-458.94 843.67,-464.47 845.15,-457.63"/>
</g>
<!-- 39 -->
<g id="node40" class="node">
<title>39</title>
<path fill="none" stroke="#70d856" stroke-width="2" d="M1196.91,-180C1196.91,-180 1166.91,-180 1166.91,-180 1160.91,-180 1154.91,-174 1154.91,-168 1154.91,-168 1154.91,-156 1154.91,-156 1154.91,-150 1160.91,-144 1166.91,-144 1166.91,-144 1196.91,-144 1196.91,-144 1202.91,-144 1208.91,-150 1208.91,-156 1208.91,-156 1208.91,-168 1208.91,-168 1208.91,-174 1202.91,-180 1196.91,-180"/>
<text text-anchor="middle" x="1181.91" y="-159.5" font-family="sans" font-size="10.00">roary</text>
</g>
<!-- 17&#45;&gt;39 -->
<g id="edge82" class="edge">
<title>17&#45;&gt;39</title>
<path fill="none" stroke="grey" stroke-width="2" d="M1127.98,-503.76C1136.75,-477.28 1151.91,-424.86 1151.91,-379 1151.91,-379 1151.91,-379 1151.91,-305 1151.91,-264.16 1163.94,-218.11 1172.76,-189.82"/>
<polygon fill="grey" stroke="grey" stroke-width="2" points="1176.11,-190.83 1175.84,-180.24 1169.45,-188.69 1176.11,-190.83"/>
</g>
<!-- 40 -->
<g id="node41" class="node">
<title>40</title>
<path fill="none" stroke="#8fd856" stroke-width="2" d="M916.91,-108C916.91,-108 886.91,-108 886.91,-108 880.91,-108 874.91,-102 874.91,-96 874.91,-96 874.91,-84 874.91,-84 874.91,-78 880.91,-72 886.91,-72 886.91,-72 916.91,-72 916.91,-72 922.91,-72 928.91,-78 928.91,-84 928.91,-84 928.91,-96 928.91,-96 928.91,-102 922.91,-108 916.91,-108"/>
<text text-anchor="middle" x="901.91" y="-87.5" font-family="sans" font-size="10.00">eggnog</text>
</g>
<!-- 17&#45;&gt;40 -->
<g id="edge83" class="edge">
<title>17&#45;&gt;40</title>
<path fill="none" stroke="grey" stroke-width="2" d="M1116.04,-503.74C1107.57,-477.25 1092.91,-424.79 1092.91,-379 1092.91,-379 1092.91,-379 1092.91,-305 1092.91,-221.69 1060.59,-197.72 996.91,-144 987.01,-135.65 960.47,-121.04 937.94,-109.27"/>
<polygon fill="grey" stroke="grey" stroke-width="2" points="939.41,-106.09 928.92,-104.6 936.19,-112.3 939.41,-106.09"/>
</g>
<!-- 43 -->
<g id="node44" class="node">
<title>43</title>
<path fill="none" stroke="#56d8b1" stroke-width="2" d="M1052.41,-396C1052.41,-396 963.41,-396 963.41,-396 957.41,-396 951.41,-390 951.41,-384 951.41,-384 951.41,-372 951.41,-372 951.41,-366 957.41,-360 963.41,-360 963.41,-360 1052.41,-360 1052.41,-360 1058.41,-360 1064.41,-366 1064.41,-372 1064.41,-372 1064.41,-384 1064.41,-384 1064.41,-390 1058.41,-396 1052.41,-396"/>
<text text-anchor="middle" x="1007.91" y="-375.5" font-family="sans" font-size="10.00">create_diamond_db</text>
</g>
<!-- 17&#45;&gt;43 -->
<g id="edge87" class="edge">
<title>17&#45;&gt;43</title>
<path fill="none" stroke="grey" stroke-width="2" d="M1107.93,-503.84C1099.5,-493.48 1088.57,-480 1078.91,-468 1061.66,-446.56 1042.17,-422.12 1027.99,-404.28"/>
<polygon fill="grey" stroke="grey" stroke-width="2" points="1030.44,-401.74 1021.48,-396.1 1024.96,-406.1 1030.44,-401.74"/>
</g>
<!-- 46 -->
<g id="node47" class="node">
<title>46</title>
<path fill="none" stroke="#5673d8" stroke-width="2" d="M1421.41,-108C1421.41,-108 1372.41,-108 1372.41,-108 1366.41,-108 1360.41,-102 1360.41,-96 1360.41,-96 1360.41,-84 1360.41,-84 1360.41,-78 1366.41,-72 1372.41,-72 1372.41,-72 1421.41,-72 1421.41,-72 1427.41,-72 1433.41,-78 1433.41,-84 1433.41,-84 1433.41,-96 1433.41,-96 1433.41,-102 1427.41,-108 1421.41,-108"/>
<text text-anchor="middle" x="1396.91" y="-87.5" font-family="sans" font-size="10.00">deeptfactor</text>
</g>
<!-- 17&#45;&gt;46 -->
<g id="edge91" class="edge">
<title>17&#45;&gt;46</title>
<path fill="none" stroke="grey" stroke-width="2" d="M1149.37,-519.12C1217.34,-512.82 1387.91,-486.32 1387.91,-379 1387.91,-379 1387.91,-379 1387.91,-233 1387.91,-192.92 1391.53,-146.59 1394.17,-118.05"/>
<polygon fill="grey" stroke="grey" stroke-width="2" points="1397.66,-118.31 1395.13,-108.03 1390.7,-117.65 1397.66,-118.31"/>
</g>
<!-- 18&#45;&gt;17 -->
<g id="edge49" class="edge">
<title>18&#45;&gt;17</title>
<path fill="none" stroke="grey" stroke-width="2" d="M1076.74,-575.7C1083.93,-567.3 1092.71,-557.07 1100.6,-547.86"/>
<polygon fill="grey" stroke="grey" stroke-width="2" points="1103.4,-549.97 1107.25,-540.1 1098.08,-545.42 1103.4,-549.97"/>
</g>
<!-- 19 -->
<g id="node20" class="node">
<title>19</title>
<path fill="none" stroke="#56a2d8" stroke-width="2" d="M1228.91,-612C1228.91,-612 1152.91,-612 1152.91,-612 1146.91,-612 1140.91,-606 1140.91,-600 1140.91,-600 1140.91,-588 1140.91,-588 1140.91,-582 1146.91,-576 1152.91,-576 1152.91,-576 1228.91,-576 1228.91,-576 1234.91,-576 1240.91,-582 1240.91,-588 1240.91,-588 1240.91,-600 1240.91,-600 1240.91,-606 1234.91,-612 1228.91,-612"/>
<text text-anchor="middle" x="1190.91" y="-591.5" font-family="sans" font-size="10.00">prokka_db_setup</text>
</g>
<!-- 19&#45;&gt;17 -->
<g id="edge51" class="edge">
<title>19&#45;&gt;17</title>
<path fill="none" stroke="grey" stroke-width="2" d="M1173.85,-575.7C1165.41,-567.14 1155.09,-556.66 1145.87,-547.3"/>
<polygon fill="grey" stroke="grey" stroke-width="2" points="1148.28,-544.77 1138.77,-540.1 1143.3,-549.68 1148.28,-544.77"/>
</g>
<!-- 20 -->
<g id="node21" class="node">
<title>20</title>
<path fill="none" stroke="#56d882" stroke-width="2" d="M384.41,-180C384.41,-180 289.41,-180 289.41,-180 283.41,-180 277.41,-174 277.41,-168 277.41,-168 277.41,-156 277.41,-156 277.41,-150 283.41,-144 289.41,-144 289.41,-144 384.41,-144 384.41,-144 390.41,-144 396.41,-150 396.41,-156 396.41,-156 396.41,-168 396.41,-168 396.41,-174 390.41,-180 384.41,-180"/>
<text text-anchor="middle" x="336.91" y="-159.5" font-family="sans" font-size="10.00">antismash_summary</text>
</g>
<!-- 20&#45;&gt;0 -->
<g id="edge16" class="edge">
<title>20&#45;&gt;0</title>
<path fill="none" stroke="grey" stroke-width="2" d="M345.4,-143.85C356.74,-122.97 378.94,-88.45 408.91,-72 482.37,-31.67 739.33,-21.92 836.4,-19.66"/>
<polygon fill="grey" stroke="grey" stroke-width="2" points="836.7,-23.15 846.62,-19.43 836.55,-16.15 836.7,-23.15"/>
</g>
<!-- 28 -->
<g id="node29" class="node">
<title>28</title>
<path fill="none" stroke="#56d87b" stroke-width="2" d="M535.91,-108C535.91,-108 429.91,-108 429.91,-108 423.91,-108 417.91,-102 417.91,-96 417.91,-96 417.91,-84 417.91,-84 417.91,-78 423.91,-72 429.91,-72 429.91,-72 535.91,-72 535.91,-72 541.91,-72 547.91,-78 547.91,-84 547.91,-84 547.91,-96 547.91,-96 547.91,-102 541.91,-108 535.91,-108"/>
<text text-anchor="middle" x="482.91" y="-87.5" font-family="sans" font-size="10.00">bigscape_to_cytoscape</text>
</g>
<!-- 20&#45;&gt;28 -->
<g id="edge67" class="edge">
<title>20&#45;&gt;28</title>
<path fill="none" stroke="grey" stroke-width="2" d="M372.63,-143.88C392.41,-134.39 417.18,-122.51 438.24,-112.42"/>
<polygon fill="grey" stroke="grey" stroke-width="2" points="439.81,-115.55 447.31,-108.07 436.78,-109.24 439.81,-115.55"/>
</g>
<!-- 21&#45;&gt;20 -->
<g id="edge57" class="edge">
<title>21&#45;&gt;20</title>
<path fill="none" stroke="grey" stroke-width="2" d="M403.36,-289.5C369.13,-279.72 331.89,-266.28 321.91,-252 309.14,-233.74 315.19,-208.3 323.09,-189.3"/>
<polygon fill="grey" stroke="grey" stroke-width="2" points="326.35,-190.57 327.29,-180.02 319.98,-187.68 326.35,-190.57"/>
</g>
<!-- 25 -->
<g id="node26" class="node">
<title>25</title>
<path fill="none" stroke="#afd856" stroke-width="2" d="M692.41,-180C692.41,-180 629.41,-180 629.41,-180 623.41,-180 617.41,-174 617.41,-168 617.41,-168 617.41,-156 617.41,-156 617.41,-150 623.41,-144 629.41,-144 629.41,-144 692.41,-144 692.41,-144 698.41,-144 704.41,-150 704.41,-156 704.41,-156 704.41,-168 704.41,-168 704.41,-174 698.41,-180 692.41,-180"/>
<text text-anchor="middle" x="660.91" y="-159.5" font-family="sans" font-size="10.00">query_bigslice</text>
</g>
<!-- 21&#45;&gt;25 -->
<g id="edge64" class="edge">
<title>21&#45;&gt;25</title>
<path fill="none" stroke="grey" stroke-width="2" d="M495.44,-287.95C511.33,-278.07 531.21,-265.02 547.91,-252 566.51,-237.49 568.62,-230.9 586.91,-216 599.55,-205.7 614.03,-195.1 626.8,-186.1"/>
<polygon fill="grey" stroke="grey" stroke-width="2" points="629.13,-188.75 635.33,-180.16 625.13,-183 629.13,-188.75"/>
</g>
<!-- 21&#45;&gt;28 -->
<g id="edge68" class="edge">
<title>21&#45;&gt;28</title>
<path fill="none" stroke="grey" stroke-width="2" d="M464.47,-287.88C462.65,-268.87 462.43,-237.98 475.91,-216 491.38,-190.78 517.73,-205.97 531.91,-180 539.58,-165.96 537.74,-158.9 531.91,-144 527.71,-133.28 520.22,-123.43 512.33,-115.2"/>
<polygon fill="grey" stroke="grey" stroke-width="2" points="514.67,-112.59 505.06,-108.13 509.79,-117.61 514.67,-112.59"/>
</g>
<!-- 29 -->
<g id="node30" class="node">
<title>29</title>
<path fill="none" stroke="#ced856" stroke-width="2" d="M510.91,-180C510.91,-180 426.91,-180 426.91,-180 420.91,-180 414.91,-174 414.91,-168 414.91,-168 414.91,-156 414.91,-156 414.91,-150 420.91,-144 426.91,-144 426.91,-144 510.91,-144 510.91,-144 516.91,-144 522.91,-150 522.91,-156 522.91,-156 522.91,-168 522.91,-168 522.91,-174 516.91,-180 510.91,-180"/>
<text text-anchor="middle" x="468.91" y="-159.5" font-family="sans" font-size="10.00">copy_bigscape_zip</text>
</g>
<!-- 21&#45;&gt;29 -->
<g id="edge70" class="edge">
<title>21&#45;&gt;29</title>
<path fill="none" stroke="grey" stroke-width="2" d="M456.96,-287.98C451.64,-277.89 445.64,-264.64 442.91,-252 439.53,-236.36 439.29,-231.59 442.91,-216 445.01,-206.96 448.88,-197.68 453,-189.47"/>
<polygon fill="grey" stroke="grey" stroke-width="2" points="456.22,-190.86 457.86,-180.39 450.05,-187.55 456.22,-190.86"/>
</g>
<!-- 30 -->
<g id="node31" class="node">
<title>30</title>
<path fill="none" stroke="#9fd856" stroke-width="2" d="M378.91,-252C378.91,-252 342.91,-252 342.91,-252 336.91,-252 330.91,-246 330.91,-240 330.91,-240 330.91,-228 330.91,-228 330.91,-222 336.91,-216 342.91,-216 342.91,-216 378.91,-216 378.91,-216 384.91,-216 390.91,-222 390.91,-228 390.91,-228 390.91,-240 390.91,-240 390.91,-246 384.91,-252 378.91,-252"/>
<text text-anchor="middle" x="360.91" y="-231.5" font-family="sans" font-size="10.00">bigscape</text>
</g>
<!-- 21&#45;&gt;30 -->
<g id="edge72" class="edge">
<title>21&#45;&gt;30</title>
<path fill="none" stroke="grey" stroke-width="2" d="M440.98,-287.88C427.25,-278.81 410.2,-267.55 395.37,-257.76"/>
<polygon fill="grey" stroke="grey" stroke-width="2" points="397.21,-254.78 386.94,-252.19 393.36,-260.62 397.21,-254.78"/>
</g>
<!-- 32 -->
<g id="node33" class="node">
<title>32</title>
<path fill="none" stroke="#78d856" stroke-width="2" d="M526.91,-252C526.91,-252 496.91,-252 496.91,-252 490.91,-252 484.91,-246 484.91,-240 484.91,-240 484.91,-228 484.91,-228 484.91,-222 490.91,-216 496.91,-216 496.91,-216 526.91,-216 526.91,-216 532.91,-216 538.91,-222 538.91,-228 538.91,-228 538.91,-240 538.91,-240 538.91,-246 532.91,-252 526.91,-252"/>
<text text-anchor="middle" x="511.91" y="-231.5" font-family="sans" font-size="10.00">bigslice</text>
</g>
<!-- 21&#45;&gt;32 -->
<g id="edge74" class="edge">
<title>21&#45;&gt;32</title>
<path fill="none" stroke="grey" stroke-width="2" d="M478.03,-287.7C483.26,-279.56 489.61,-269.69 495.39,-260.7"/>
<polygon fill="grey" stroke="grey" stroke-width="2" points="498.45,-262.41 500.91,-252.1 492.56,-258.62 498.45,-262.41"/>
</g>
<!-- 22&#45;&gt;21 -->
<g id="edge59" class="edge">
<title>22&#45;&gt;21</title>
<path fill="none" stroke="grey" stroke-width="2" d="M707.64,-368.28C666.02,-357.68 594.69,-339.53 540.44,-325.72"/>
<polygon fill="grey" stroke="grey" stroke-width="2" points="541.08,-322.27 530.52,-323.19 539.35,-329.05 541.08,-322.27"/>
</g>
<!-- 24 -->
<g id="node25" class="node">
<title>24</title>
<path fill="none" stroke="#a7d856" stroke-width="2" d="M890.91,-252C890.91,-252 798.91,-252 798.91,-252 792.91,-252 786.91,-246 786.91,-240 786.91,-240 786.91,-228 786.91,-228 786.91,-222 792.91,-216 798.91,-216 798.91,-216 890.91,-216 890.91,-216 896.91,-216 902.91,-222 902.91,-228 902.91,-228 902.91,-240 902.91,-240 902.91,-246 896.91,-252 890.91,-252"/>
<text text-anchor="middle" x="844.91" y="-231.5" font-family="sans" font-size="10.00">copy_antismash_zip</text>
</g>
<!-- 22&#45;&gt;24 -->
<g id="edge62" class="edge">
<title>22&#45;&gt;24</title>
<path fill="none" stroke="grey" stroke-width="2" d="M754.33,-359.87C772.28,-335.14 805.56,-289.24 826.4,-260.51"/>
<polygon fill="grey" stroke="grey" stroke-width="2" points="829.4,-262.34 832.44,-252.19 823.74,-258.23 829.4,-262.34"/>
</g>
<!-- 37 -->
<g id="node38" class="node">
<title>37</title>
<path fill="none" stroke="#566bd8" stroke-width="2" d="M756.91,-252C756.91,-252 726.91,-252 726.91,-252 720.91,-252 714.91,-246 714.91,-240 714.91,-240 714.91,-228 714.91,-228 714.91,-222 720.91,-216 726.91,-216 726.91,-216 756.91,-216 756.91,-216 762.91,-216 768.91,-222 768.91,-228 768.91,-228 768.91,-240 768.91,-240 768.91,-246 762.91,-252 756.91,-252"/>
<text text-anchor="middle" x="741.91" y="-231.5" font-family="sans" font-size="10.00">arts</text>
</g>
<!-- 22&#45;&gt;37 -->
<g id="edge79" class="edge">
<title>22&#45;&gt;37</title>
<path fill="none" stroke="grey" stroke-width="2" d="M741.91,-359.87C741.91,-335.67 741.91,-291.21 741.91,-262.39"/>
<polygon fill="grey" stroke="grey" stroke-width="2" points="745.41,-262.19 741.91,-252.19 738.41,-262.19 745.41,-262.19"/>
</g>
<!-- 23 -->
<g id="node24" class="node">
<title>23</title>
<path fill="none" stroke="#5692d8" stroke-width="2" d="M731.41,-468C731.41,-468 638.41,-468 638.41,-468 632.41,-468 626.41,-462 626.41,-456 626.41,-456 626.41,-444 626.41,-444 626.41,-438 632.41,-432 638.41,-432 638.41,-432 731.41,-432 731.41,-432 737.41,-432 743.41,-438 743.41,-444 743.41,-444 743.41,-456 743.41,-456 743.41,-462 737.41,-468 731.41,-468"/>
<text text-anchor="middle" x="684.91" y="-447.5" font-family="sans" font-size="10.00">antismash_db_setup</text>
</g>
<!-- 23&#45;&gt;22 -->
<g id="edge60" class="edge">
<title>23&#45;&gt;22</title>
<path fill="none" stroke="grey" stroke-width="2" d="M699,-431.7C705.83,-423.3 714.17,-413.07 721.67,-403.86"/>
<polygon fill="grey" stroke="grey" stroke-width="2" points="724.38,-406.07 727.98,-396.1 718.95,-401.65 724.38,-406.07"/>
</g>
<!-- 24&#45;&gt;0 -->
<g id="edge9" class="edge">
<title>24&#45;&gt;0</title>
<path fill="none" stroke="grey" stroke-width="2" d="M834.28,-215.56C828.81,-205.54 822.71,-192.51 819.91,-180 815.29,-159.38 820.88,-79.06 823.91,-72 828.5,-61.32 836.23,-51.48 844.27,-43.25"/>
<polygon fill="grey" stroke="grey" stroke-width="2" points="846.85,-45.62 851.64,-36.17 842.01,-40.57 846.85,-45.62"/>
</g>
<!-- 25&#45;&gt;0 -->
<g id="edge8" class="edge">
<title>25&#45;&gt;0</title>
<path fill="none" stroke="grey" stroke-width="2" d="M667.93,-143.78C676.91,-123.8 694.31,-91.14 718.91,-72 753.69,-44.93 803.16,-31.21 836.79,-24.6"/>
<polygon fill="grey" stroke="grey" stroke-width="2" points="837.49,-28.03 846.69,-22.77 836.22,-21.15 837.49,-28.03"/>
</g>
<!-- 26 -->
<g id="node27" class="node">
<title>26</title>
<path fill="none" stroke="#56d89a" stroke-width="2" d="M684.41,-252C684.41,-252 607.41,-252 607.41,-252 601.41,-252 595.41,-246 595.41,-240 595.41,-240 595.41,-228 595.41,-228 595.41,-222 601.41,-216 607.41,-216 607.41,-216 684.41,-216 684.41,-216 690.41,-216 696.41,-222 696.41,-228 696.41,-228 696.41,-240 696.41,-240 696.41,-246 690.41,-252 684.41,-252"/>
<text text-anchor="middle" x="645.91" y="-231.5" font-family="sans" font-size="10.00">fetch_bigslice_db</text>
</g>
<!-- 26&#45;&gt;25 -->
<g id="edge63" class="edge">
<title>26&#45;&gt;25</title>
<path fill="none" stroke="grey" stroke-width="2" d="M649.62,-215.7C651.27,-207.98 653.26,-198.71 655.1,-190.11"/>
<polygon fill="grey" stroke="grey" stroke-width="2" points="658.57,-190.62 657.24,-180.1 651.73,-189.15 658.57,-190.62"/>
</g>
<!-- 27 -->
<g id="node28" class="node">
<title>27</title>
<path fill="none" stroke="#56d8c9" stroke-width="2" d="M656.41,-324C656.41,-324 591.41,-324 591.41,-324 585.41,-324 579.41,-318 579.41,-312 579.41,-312 579.41,-300 579.41,-300 579.41,-294 585.41,-288 591.41,-288 591.41,-288 656.41,-288 656.41,-288 662.41,-288 668.41,-294 668.41,-300 668.41,-300 668.41,-312 668.41,-312 668.41,-318 662.41,-324 656.41,-324"/>
<text text-anchor="middle" x="623.91" y="-303.5" font-family="sans" font-size="10.00">install_bigslice</text>
</g>
<!-- 27&#45;&gt;26 -->
<g id="edge65" class="edge">
<title>27&#45;&gt;26</title>
<path fill="none" stroke="grey" stroke-width="2" d="M629.35,-287.7C631.8,-279.9 634.75,-270.51 637.48,-261.83"/>
<polygon fill="grey" stroke="grey" stroke-width="2" points="640.87,-262.69 640.53,-252.1 634.2,-260.59 640.87,-262.69"/>
</g>
<!-- 27&#45;&gt;32 -->
<g id="edge73" class="edge">
<title>27&#45;&gt;32</title>
<path fill="none" stroke="grey" stroke-width="2" d="M596.51,-287.88C581.76,-278.66 563.38,-267.17 547.53,-257.26"/>
<polygon fill="grey" stroke="grey" stroke-width="2" points="549.36,-254.28 539.03,-251.95 545.65,-260.22 549.36,-254.28"/>
</g>
<!-- 28&#45;&gt;0 -->
<g id="edge15" class="edge">
<title>28&#45;&gt;0</title>
<path fill="none" stroke="grey" stroke-width="2" d="M548.24,-76.87C557.2,-75.22 566.28,-73.56 574.91,-72 669.16,-54.94 780.24,-35.4 836.78,-25.49"/>
<polygon fill="grey" stroke="grey" stroke-width="2" points="837.44,-28.93 846.69,-23.76 836.23,-22.03 837.44,-28.93"/>
</g>
<!-- 29&#45;&gt;28 -->
<g id="edge66" class="edge">
<title>29&#45;&gt;28</title>
<path fill="none" stroke="grey" stroke-width="2" d="M472.37,-143.7C473.91,-135.98 475.77,-126.71 477.49,-118.11"/>
<polygon fill="grey" stroke="grey" stroke-width="2" points="480.96,-118.6 479.49,-108.1 474.1,-117.22 480.96,-118.6"/>
</g>
<!-- 30&#45;&gt;29 -->
<g id="edge69" class="edge">
<title>30&#45;&gt;29</title>
<path fill="none" stroke="grey" stroke-width="2" d="M387.33,-215.88C401.32,-206.81 418.69,-195.55 433.8,-185.76"/>
<polygon fill="grey" stroke="grey" stroke-width="2" points="435.9,-188.57 442.39,-180.19 432.09,-182.69 435.9,-188.57"/>
</g>
<!-- 31 -->
<g id="node32" class="node">
<title>31</title>
<path fill="none" stroke="#d86e56" stroke-width="2" d="M373.41,-324C373.41,-324 302.41,-324 302.41,-324 296.41,-324 290.41,-318 290.41,-312 290.41,-312 290.41,-300 290.41,-300 290.41,-294 296.41,-288 302.41,-288 302.41,-288 373.41,-288 373.41,-288 379.41,-288 385.41,-294 385.41,-300 385.41,-300 385.41,-312 385.41,-312 385.41,-318 379.41,-324 373.41,-324"/>
<text text-anchor="middle" x="337.91" y="-303.5" font-family="sans" font-size="10.00">install_bigscape</text>
</g>
<!-- 31&#45;&gt;30 -->
<g id="edge71" class="edge">
<title>31&#45;&gt;30</title>
<path fill="none" stroke="grey" stroke-width="2" d="M343.6,-287.7C346.16,-279.9 349.24,-270.51 352.09,-261.83"/>
<polygon fill="grey" stroke="grey" stroke-width="2" points="355.49,-262.7 355.29,-252.1 348.84,-260.51 355.49,-262.7"/>
</g>
<!-- 32&#45;&gt;0 -->
<g id="edge12" class="edge">
<title>32&#45;&gt;0</title>
<path fill="none" stroke="grey" stroke-width="2" d="M525.32,-215.83C551.96,-182.92 614.92,-110.79 683.91,-72 732.82,-44.5 796.96,-30.49 836.79,-23.97"/>
<polygon fill="grey" stroke="grey" stroke-width="2" points="837.52,-27.4 846.86,-22.39 836.44,-20.48 837.52,-27.4"/>
</g>
<!-- 33 -->
<g id="node34" class="node">
<title>33</title>
<path fill="none" stroke="#d8ac56" stroke-width="2" d="M942.91,-180C942.91,-180 840.91,-180 840.91,-180 834.91,-180 828.91,-174 828.91,-168 828.91,-168 828.91,-156 828.91,-156 828.91,-150 834.91,-144 840.91,-144 840.91,-144 942.91,-144 942.91,-144 948.91,-144 954.91,-150 954.91,-156 954.91,-156 954.91,-168 954.91,-168 954.91,-174 948.91,-180 942.91,-180"/>
<text text-anchor="middle" x="891.91" y="-159.5" font-family="sans" font-size="10.00">automlst_wrapper_out</text>
</g>
<!-- 33&#45;&gt;0 -->
<g id="edge4" class="edge">
<title>33&#45;&gt;0</title>
<path fill="none" stroke="grey" stroke-width="2" d="M864.11,-143.87C852.14,-134.84 839.41,-122.59 832.91,-108 826.39,-93.39 827.74,-87.14 832.91,-72 836.35,-61.93 842.57,-52.28 849.14,-44.05"/>
<polygon fill="grey" stroke="grey" stroke-width="2" points="851.91,-46.2 855.74,-36.32 846.59,-41.65 851.91,-46.2"/>
</g>
<!-- 38 -->
<g id="node39" class="node">
<title>38</title>
<path fill="none" stroke="#d8b456" stroke-width="2" d="M998.41,-108C998.41,-108 959.41,-108 959.41,-108 953.41,-108 947.41,-102 947.41,-96 947.41,-96 947.41,-84 947.41,-84 947.41,-78 953.41,-72 959.41,-72 959.41,-72 998.41,-72 998.41,-72 1004.41,-72 1010.41,-78 1010.41,-84 1010.41,-84 1010.41,-96 1010.41,-96 1010.41,-102 1004.41,-108 998.41,-108"/>
<text text-anchor="middle" x="978.91" y="-87.5" font-family="sans" font-size="10.00">roary_out</text>
</g>
<!-- 33&#45;&gt;38 -->
<g id="edge81" class="edge">
<title>33&#45;&gt;38</title>
<path fill="none" stroke="grey" stroke-width="2" d="M913.42,-143.7C924.37,-134.88 937.86,-124.03 949.73,-114.47"/>
<polygon fill="grey" stroke="grey" stroke-width="2" points="952.05,-117.1 957.65,-108.1 947.67,-111.65 952.05,-117.1"/>
</g>
<!-- 34 -->
<g id="node35" class="node">
<title>34</title>
<path fill="none" stroke="#56d873" stroke-width="2" d="M1014.41,-252C1014.41,-252 933.41,-252 933.41,-252 927.41,-252 921.41,-246 921.41,-240 921.41,-240 921.41,-228 921.41,-228 921.41,-222 927.41,-216 933.41,-216 933.41,-216 1014.41,-216 1014.41,-216 1020.41,-216 1026.41,-222 1026.41,-228 1026.41,-228 1026.41,-240 1026.41,-240 1026.41,-246 1020.41,-252 1014.41,-252"/>
<text text-anchor="middle" x="973.91" y="-231.5" font-family="sans" font-size="10.00">automlst_wrapper</text>
</g>
<!-- 34&#45;&gt;33 -->
<g id="edge75" class="edge">
<title>34&#45;&gt;33</title>
<path fill="none" stroke="grey" stroke-width="2" d="M953.64,-215.7C943.41,-206.97 930.85,-196.24 919.73,-186.75"/>
<polygon fill="grey" stroke="grey" stroke-width="2" points="921.82,-183.94 911.95,-180.1 917.28,-189.26 921.82,-183.94"/>
</g>
<!-- 35&#45;&gt;34 -->
<g id="edge77" class="edge">
<title>35&#45;&gt;34</title>
<path fill="none" stroke="grey" stroke-width="2" d="M854.62,-359.83C856.23,-340.5 861.42,-309.03 877.91,-288 888.12,-274.97 902.47,-264.68 916.97,-256.77"/>
<polygon fill="grey" stroke="grey" stroke-width="2" points="918.68,-259.82 925.98,-252.15 915.49,-253.6 918.68,-259.82"/>
</g>
<!-- 36 -->
<g id="node37" class="node">
<title>36</title>
<path fill="none" stroke="#c6d856" stroke-width="2" d="M1014.91,-324C1014.91,-324 898.91,-324 898.91,-324 892.91,-324 886.91,-318 886.91,-312 886.91,-312 886.91,-300 886.91,-300 886.91,-294 892.91,-288 898.91,-288 898.91,-288 1014.91,-288 1014.91,-288 1020.91,-288 1026.91,-294 1026.91,-300 1026.91,-300 1026.91,-312 1026.91,-312 1026.91,-318 1020.91,-324 1014.91,-324"/>
<text text-anchor="middle" x="956.91" y="-303.5" font-family="sans" font-size="10.00">install_automlst_wrapper</text>
</g>
<!-- 36&#45;&gt;34 -->
<g id="edge76" class="edge">
<title>36&#45;&gt;34</title>
<path fill="none" stroke="grey" stroke-width="2" d="M961.11,-287.7C963.01,-279.9 965.29,-270.51 967.39,-261.83"/>
<polygon fill="grey" stroke="grey" stroke-width="2" points="970.8,-262.65 969.76,-252.1 963.99,-261 970.8,-262.65"/>
</g>
<!-- 37&#45;&gt;0 -->
<g id="edge24" class="edge">
<title>37&#45;&gt;0</title>
<path fill="none" stroke="grey" stroke-width="2" d="M747.09,-215.79C756.93,-184.94 780.45,-119.04 814.91,-72 822.74,-61.31 833.03,-51.16 842.81,-42.66"/>
<polygon fill="grey" stroke="grey" stroke-width="2" points="845.08,-45.33 850.5,-36.22 840.59,-39.97 845.08,-45.33"/>
</g>
<!-- 38&#45;&gt;0 -->
<g id="edge5" class="edge">
<title>38&#45;&gt;0</title>
<path fill="none" stroke="grey" stroke-width="2" d="M953.22,-71.88C939.62,-62.81 922.74,-51.55 908.05,-41.76"/>
<polygon fill="grey" stroke="grey" stroke-width="2" points="909.96,-38.82 899.69,-36.19 906.07,-44.65 909.96,-38.82"/>
</g>
<!-- 39&#45;&gt;38 -->
<g id="edge80" class="edge">
<title>39&#45;&gt;38</title>
<path fill="none" stroke="grey" stroke-width="2" d="M1154.59,-147.54C1151.69,-146.28 1148.76,-145.07 1145.91,-144 1094.27,-124.58 1076.75,-126.86 1020.35,-107.91"/>
<polygon fill="grey" stroke="grey" stroke-width="2" points="1021.15,-104.49 1010.56,-104.54 1018.87,-111.11 1021.15,-104.49"/>
</g>
<!-- 42 -->
<g id="node43" class="node">
<title>42</title>
<path fill="none" stroke="#56c9d8" stroke-width="2" d="M1099.41,-108C1099.41,-108 1040.41,-108 1040.41,-108 1034.41,-108 1028.41,-102 1028.41,-96 1028.41,-96 1028.41,-84 1028.41,-84 1028.41,-78 1034.41,-72 1040.41,-72 1040.41,-72 1099.41,-72 1099.41,-72 1105.41,-72 1111.41,-78 1111.41,-84 1111.41,-84 1111.41,-96 1111.41,-96 1111.41,-102 1105.41,-108 1099.41,-108"/>
<text text-anchor="middle" x="1069.91" y="-87.5" font-family="sans" font-size="10.00">eggnog_roary</text>
</g>
<!-- 39&#45;&gt;42 -->
<g id="edge85" class="edge">
<title>39&#45;&gt;42</title>
<path fill="none" stroke="grey" stroke-width="2" d="M1154.8,-144.05C1140.05,-134.84 1121.62,-123.32 1105.7,-113.37"/>
<polygon fill="grey" stroke="grey" stroke-width="2" points="1107.5,-110.36 1097.16,-108.03 1103.79,-116.3 1107.5,-110.36"/>
</g>
<!-- 44 -->
<g id="node45" class="node">
<title>44</title>
<path fill="none" stroke="#d8cb56" stroke-width="2" d="M1329.91,-108C1329.91,-108 1263.91,-108 1263.91,-108 1257.91,-108 1251.91,-102 1251.91,-96 1251.91,-96 1251.91,-84 1251.91,-84 1251.91,-78 1257.91,-72 1263.91,-72 1263.91,-72 1329.91,-72 1329.91,-72 1335.91,-72 1341.91,-78 1341.91,-84 1341.91,-84 1341.91,-96 1341.91,-96 1341.91,-102 1335.91,-108 1329.91,-108"/>
<text text-anchor="middle" x="1296.91" y="-87.5" font-family="sans" font-size="10.00">diamond_roary</text>
</g>
<!-- 39&#45;&gt;44 -->
<g id="edge88" class="edge">
<title>39&#45;&gt;44</title>
<path fill="none" stroke="grey" stroke-width="2" d="M1209.16,-144.41C1224.29,-135.2 1243.33,-123.61 1259.8,-113.59"/>
<polygon fill="grey" stroke="grey" stroke-width="2" points="1261.93,-116.39 1268.65,-108.2 1258.29,-110.41 1261.93,-116.39"/>
</g>
<!-- 47 -->
<g id="node48" class="node">
<title>47</title>
<path fill="none" stroke="#d85656" stroke-width="2" d="M1221.91,-108C1221.91,-108 1141.91,-108 1141.91,-108 1135.91,-108 1129.91,-102 1129.91,-96 1129.91,-96 1129.91,-84 1129.91,-84 1129.91,-78 1135.91,-72 1141.91,-72 1141.91,-72 1221.91,-72 1221.91,-72 1227.91,-72 1233.91,-78 1233.91,-84 1233.91,-84 1233.91,-96 1233.91,-96 1233.91,-102 1227.91,-108 1221.91,-108"/>
<text text-anchor="middle" x="1181.91" y="-87.5" font-family="sans" font-size="10.00">deeptfactor_roary</text>
</g>
<!-- 39&#45;&gt;47 -->
<g id="edge92" class="edge">
<title>39&#45;&gt;47</title>
<path fill="none" stroke="grey" stroke-width="2" d="M1181.91,-143.7C1181.91,-135.98 1181.91,-126.71 1181.91,-118.11"/>
<polygon fill="grey" stroke="grey" stroke-width="2" points="1185.41,-118.1 1181.91,-108.1 1178.41,-118.1 1185.41,-118.1"/>
</g>
<!-- 40&#45;&gt;0 -->
<g id="edge10" class="edge">
<title>40&#45;&gt;0</title>
<path fill="none" stroke="grey" stroke-width="2" d="M894.99,-71.7C891.84,-63.81 888.03,-54.3 884.53,-45.55"/>
<polygon fill="grey" stroke="grey" stroke-width="2" points="887.72,-44.09 880.75,-36.1 881.22,-46.69 887.72,-44.09"/>
</g>
<!-- 41 -->
<g id="node42" class="node">
<title>41</title>
<path fill="none" stroke="#5663d8" stroke-width="2" d="M1124.91,-180C1124.91,-180 1060.91,-180 1060.91,-180 1054.91,-180 1048.91,-174 1048.91,-168 1048.91,-168 1048.91,-156 1048.91,-156 1048.91,-150 1054.91,-144 1060.91,-144 1060.91,-144 1124.91,-144 1124.91,-144 1130.91,-144 1136.91,-150 1136.91,-156 1136.91,-156 1136.91,-168 1136.91,-168 1136.91,-174 1130.91,-180 1124.91,-180"/>
<text text-anchor="middle" x="1092.91" y="-159.5" font-family="sans" font-size="10.00">install_eggnog</text>
</g>
<!-- 41&#45;&gt;40 -->
<g id="edge84" class="edge">
<title>41&#45;&gt;40</title>
<path fill="none" stroke="grey" stroke-width="2" d="M1048.67,-147.07C1017.66,-136.99 975.39,-122.62 938.91,-108 938.81,-107.96 938.71,-107.92 938.61,-107.88"/>
<polygon fill="grey" stroke="grey" stroke-width="2" points="939.83,-104.6 929.26,-103.93 937.11,-111.05 939.83,-104.6"/>
</g>
<!-- 41&#45;&gt;42 -->
<g id="edge86" class="edge">
<title>41&#45;&gt;42</title>
<path fill="none" stroke="grey" stroke-width="2" d="M1087.22,-143.7C1084.66,-135.9 1081.58,-126.51 1078.73,-117.83"/>
<polygon fill="grey" stroke="grey" stroke-width="2" points="1081.98,-116.51 1075.53,-108.1 1075.33,-118.7 1081.98,-116.51"/>
</g>
<!-- 42&#45;&gt;0 -->
<g id="edge21" class="edge">
<title>42&#45;&gt;0</title>
<path fill="none" stroke="grey" stroke-width="2" d="M1028.34,-74.15C993.52,-61.72 944.26,-44.13 910.81,-32.18"/>
<polygon fill="grey" stroke="grey" stroke-width="2" points="911.56,-28.73 900.97,-28.66 909.21,-35.32 911.56,-28.73"/>
</g>
<!-- 43&#45;&gt;0 -->
<g id="edge18" class="edge">
<title>43&#45;&gt;0</title>
<path fill="none" stroke="grey" stroke-width="2" d="M1019.8,-359.72C1025.92,-349.76 1032.75,-336.73 1035.91,-324 1047.46,-277.41 1054.28,-260.35 1035.91,-216 1031.58,-205.55 973.44,-150.09 963.91,-144 924.81,-119.01 892.47,-146.05 865.91,-108 853.34,-89.99 857.12,-64.69 863.01,-45.66"/>
<polygon fill="grey" stroke="grey" stroke-width="2" points="866.36,-46.68 866.3,-36.09 859.74,-44.4 866.36,-46.68"/>
</g>
<!-- 44&#45;&gt;0 -->
<g id="edge6" class="edge">
<title>44&#45;&gt;0</title>
<path fill="none" stroke="grey" stroke-width="2" d="M1251.68,-74.18C1248.73,-73.39 1245.78,-72.65 1242.91,-72 1123.11,-44.73 978.06,-28.76 911.1,-22.33"/>
<polygon fill="grey" stroke="grey" stroke-width="2" points="911.32,-18.83 901.04,-21.37 910.66,-25.8 911.32,-18.83"/>
</g>
<!-- 45 -->
<g id="node46" class="node">
<title>45</title>
<path fill="none" stroke="#5682d8" stroke-width="2" d="M1337.41,-180C1337.41,-180 1256.41,-180 1256.41,-180 1250.41,-180 1244.41,-174 1244.41,-168 1244.41,-168 1244.41,-156 1244.41,-156 1244.41,-150 1250.41,-144 1256.41,-144 1256.41,-144 1337.41,-144 1337.41,-144 1343.41,-144 1349.41,-150 1349.41,-156 1349.41,-156 1349.41,-168 1349.41,-168 1349.41,-174 1343.41,-180 1337.41,-180"/>
<text text-anchor="middle" x="1296.91" y="-159.5" font-family="sans" font-size="10.00">deeptfactor_setup</text>
</g>
<!-- 45&#45;&gt;44 -->
<g id="edge89" class="edge">
<title>45&#45;&gt;44</title>
<path fill="none" stroke="grey" stroke-width="2" d="M1296.91,-143.7C1296.91,-135.98 1296.91,-126.71 1296.91,-118.11"/>
<polygon fill="grey" stroke="grey" stroke-width="2" points="1300.41,-118.1 1296.91,-108.1 1293.41,-118.1 1300.41,-118.1"/>
</g>
<!-- 45&#45;&gt;46 -->
<g id="edge90" class="edge">
<title>45&#45;&gt;46</title>
<path fill="none" stroke="grey" stroke-width="2" d="M1321.37,-143.88C1334.21,-134.89 1350.11,-123.76 1364,-114.03"/>
<polygon fill="grey" stroke="grey" stroke-width="2" points="1366.17,-116.79 1372.35,-108.19 1362.15,-111.06 1366.17,-116.79"/>
</g>
<!-- 45&#45;&gt;47 -->
<g id="edge93" class="edge">
<title>45&#45;&gt;47</title>
<path fill="none" stroke="grey" stroke-width="2" d="M1268.78,-143.88C1253.74,-134.72 1235.04,-123.34 1218.85,-113.48"/>
<polygon fill="grey" stroke="grey" stroke-width="2" points="1220.51,-110.4 1210.15,-108.19 1216.87,-116.38 1220.51,-110.4"/>
</g>
<!-- 46&#45;&gt;0 -->
<g id="edge23" class="edge">
<title>46&#45;&gt;0</title>
<path fill="none" stroke="grey" stroke-width="2" d="M1360.25,-74.56C1357.12,-73.6 1353.98,-72.73 1350.91,-72 1190.08,-33.95 992.13,-23.05 911.12,-20.06"/>
<polygon fill="grey" stroke="grey" stroke-width="2" points="911.05,-16.56 900.93,-19.71 910.8,-23.55 911.05,-16.56"/>
</g>
<!-- 47&#45;&gt;0 -->
<g id="edge1" class="edge">
<title>47&#45;&gt;0</title>
<path fill="none" stroke="grey" stroke-width="2" d="M1129.72,-74.23C1126.74,-73.46 1123.79,-72.71 1120.91,-72 1046.92,-53.77 959.58,-35.87 911.1,-26.25"/>
<polygon fill="grey" stroke="grey" stroke-width="2" points="911.57,-22.78 901.08,-24.27 910.21,-29.64 911.57,-22.78"/>
</g>
<!-- 48&#45;&gt;0 -->
<g id="edge22" class="edge">
<title>48&#45;&gt;0</title>
<path fill="none" stroke="grey" stroke-width="2" d="M1738.47,-503.59C1733.5,-476.9 1724.91,-424.19 1724.91,-379 1724.91,-379 1724.91,-379 1724.91,-161 1724.91,-99.48 1675.93,-95.09 1618.91,-72 1488.43,-19.17 1043.39,-17.83 911.21,-18.64"/>
<polygon fill="grey" stroke="grey" stroke-width="2" points="911.15,-15.14 901.18,-18.71 911.2,-22.14 911.15,-15.14"/>
</g>
</g>
</svg>
