<?xml version="1.0" encoding="UTF-8" standalone="no"?>
<!DOCTYPE svg PUBLIC "-//W3C//DTD SVG 1.1//EN"
 "http://www.w3.org/Graphics/SVG/1.1/DTD/svg11.dtd">
<!-- Generated by graphviz version 2.49.1 (20211004.0028)
 -->
<!-- Title: snakemake_dag Pages: 1 -->
<svg width="910pt" height="476pt"
 viewBox="0.00 0.00 909.51 476.00" xmlns="http://www.w3.org/2000/svg" xmlns:xlink="http://www.w3.org/1999/xlink">
<g id="graph0" class="graph" transform="scale(1 1) rotate(0) translate(4 472)">
<title>snakemake_dag</title>
<polygon fill="white" stroke="transparent" points="-4,4 -4,-472 905.51,-472 905.51,4 -4,4"/>
<!-- 0 -->
<g id="node1" class="node">
<title>0</title>
<path fill="none" stroke="#56d88a" stroke-width="2" d="M386.01,-36C386.01,-36 356.01,-36 356.01,-36 350.01,-36 344.01,-30 344.01,-24 344.01,-24 344.01,-12 344.01,-12 344.01,-6 350.01,0 356.01,0 356.01,0 386.01,0 386.01,0 392.01,0 398.01,-6 398.01,-12 398.01,-12 398.01,-24 398.01,-24 398.01,-30 392.01,-36 386.01,-36"/>
<text text-anchor="middle" x="371.01" y="-15.5" font-family="sans" font-size="10.00">all</text>
</g>
<!-- 1 -->
<g id="node2" class="node">
<title>1</title>
<path fill="none" stroke="#d8cb56" stroke-width="2" d="M195.51,-108C195.51,-108 108.51,-108 108.51,-108 102.51,-108 96.51,-102 96.51,-96 96.51,-96 96.51,-84 96.51,-84 96.51,-78 102.51,-72 108.51,-72 108.51,-72 195.51,-72 195.51,-72 201.51,-72 207.51,-78 207.51,-84 207.51,-84 207.51,-96 207.51,-96 207.51,-102 201.51,-108 195.51,-108"/>
<text text-anchor="middle" x="152.01" y="-87.5" font-family="sans" font-size="10.00">fix_gtdb_taxonomy</text>
</g>
<!-- 1&#45;&gt;0 -->
<g id="edge5" class="edge">
<title>1&#45;&gt;0</title>
<path fill="none" stroke="grey" stroke-width="2" d="M205.31,-71.97C245.18,-59.22 298.69,-42.12 333.98,-30.84"/>
<polygon fill="grey" stroke="grey" stroke-width="2" points="335.41,-34.06 343.87,-27.68 333.27,-27.39 335.41,-34.06"/>
</g>
<!-- 2 -->
<g id="node3" class="node">
<title>2</title>
<path fill="none" stroke="#d8b456" stroke-width="2" d="M207.51,-324C207.51,-324 108.51,-324 108.51,-324 102.51,-324 96.51,-318 96.51,-312 96.51,-312 96.51,-300 96.51,-300 96.51,-294 102.51,-288 108.51,-288 108.51,-288 207.51,-288 207.51,-288 213.51,-288 219.51,-294 219.51,-300 219.51,-300 219.51,-312 219.51,-312 219.51,-318 213.51,-324 207.51,-324"/>
<text text-anchor="middle" x="158.01" y="-303.5" font-family="sans" font-size="10.00">fetch_gtdb_taxonomy</text>
</g>
<!-- 2&#45;&gt;1 -->
<g id="edge12" class="edge">
<title>2&#45;&gt;1</title>
<path fill="none" stroke="grey" stroke-width="2" d="M157.53,-287.85C156.49,-250.83 154.04,-163.18 152.78,-118.39"/>
<polygon fill="grey" stroke="grey" stroke-width="2" points="156.27,-118.13 152.49,-108.23 149.28,-118.33 156.27,-118.13"/>
</g>
<!-- 3 -->
<g id="node4" class="node">
<title>3</title>
<path fill="none" stroke="#566bd8" stroke-width="2" d="M248.51,-396C248.51,-396 207.51,-396 207.51,-396 201.51,-396 195.51,-390 195.51,-384 195.51,-384 195.51,-372 195.51,-372 195.51,-366 201.51,-360 207.51,-360 207.51,-360 248.51,-360 248.51,-360 254.51,-360 260.51,-366 260.51,-372 260.51,-372 260.51,-384 260.51,-384 260.51,-390 254.51,-396 248.51,-396"/>
<text text-anchor="middle" x="228.01" y="-375.5" font-family="sans" font-size="10.00">gtdb_prep</text>
</g>
<!-- 3&#45;&gt;2 -->
<g id="edge13" class="edge">
<title>3&#45;&gt;2</title>
<path fill="none" stroke="grey" stroke-width="2" d="M210.71,-359.7C202.15,-351.14 191.67,-340.66 182.32,-331.3"/>
<polygon fill="grey" stroke="grey" stroke-width="2" points="184.66,-328.7 175.12,-324.1 179.71,-333.65 184.66,-328.7"/>
</g>
<!-- 4 -->
<g id="node5" class="node">
<title>4</title>
<path fill="none" stroke="#d88d56" stroke-width="2" d="M273.51,-468C273.51,-468 186.51,-468 186.51,-468 180.51,-468 174.51,-462 174.51,-456 174.51,-456 174.51,-444 174.51,-444 174.51,-438 180.51,-432 186.51,-432 186.51,-432 273.51,-432 273.51,-432 279.51,-432 285.51,-438 285.51,-444 285.51,-444 285.51,-456 285.51,-456 285.51,-462 279.51,-468 273.51,-468"/>
<text text-anchor="middle" x="230.01" y="-447.5" font-family="sans" font-size="10.00">copy_custom_fasta</text>
</g>
<!-- 4&#45;&gt;3 -->
<g id="edge14" class="edge">
<title>4&#45;&gt;3</title>
<path fill="none" stroke="grey" stroke-width="2" d="M229.52,-431.7C229.3,-423.98 229.03,-414.71 228.79,-406.11"/>
<polygon fill="grey" stroke="grey" stroke-width="2" points="232.28,-406 228.5,-396.1 225.29,-406.2 232.28,-406"/>
</g>
<!-- 10 -->
<g id="node11" class="node">
<title>10</title>
<path fill="none" stroke="#bed856" stroke-width="2" d="M424.01,-324C424.01,-324 356.01,-324 356.01,-324 350.01,-324 344.01,-318 344.01,-312 344.01,-312 344.01,-300 344.01,-300 344.01,-294 350.01,-288 356.01,-288 356.01,-288 424.01,-288 424.01,-288 430.01,-288 436.01,-294 436.01,-300 436.01,-300 436.01,-312 436.01,-312 436.01,-318 430.01,-324 424.01,-324"/>
<text text-anchor="middle" x="390.01" y="-303.5" font-family="sans" font-size="10.00">prokka_custom</text>
</g>
<!-- 4&#45;&gt;10 -->
<g id="edge23" class="edge">
<title>4&#45;&gt;10</title>
<path fill="none" stroke="grey" stroke-width="2" d="M242.85,-431.66C257.37,-412.73 282.36,-382.16 308.01,-360 321.08,-348.71 336.73,-338.02 350.84,-329.23"/>
<polygon fill="grey" stroke="grey" stroke-width="2" points="352.67,-332.21 359.39,-324.02 349.03,-326.23 352.67,-332.21"/>
</g>
<!-- 13 -->
<g id="node14" class="node">
<title>13</title>
<path fill="none" stroke="#56d873" stroke-width="2" d="M426.51,-396C426.51,-396 329.51,-396 329.51,-396 323.51,-396 317.51,-390 317.51,-384 317.51,-384 317.51,-372 317.51,-372 317.51,-366 323.51,-360 329.51,-360 329.51,-360 426.51,-360 426.51,-360 432.51,-360 438.51,-366 438.51,-372 438.51,-372 438.51,-384 438.51,-384 438.51,-390 432.51,-396 426.51,-396"/>
<text text-anchor="middle" x="378.01" y="-375.5" font-family="sans" font-size="10.00">extract_meta_prokka</text>
</g>
<!-- 4&#45;&gt;13 -->
<g id="edge27" class="edge">
<title>4&#45;&gt;13</title>
<path fill="none" stroke="grey" stroke-width="2" d="M266.22,-431.88C286.27,-422.39 311.38,-410.51 332.73,-400.42"/>
<polygon fill="grey" stroke="grey" stroke-width="2" points="334.38,-403.51 341.92,-396.07 331.39,-397.18 334.38,-403.51"/>
</g>
<!-- 15 -->
<g id="node16" class="node">
<title>15</title>
<path fill="none" stroke="#d6d856" stroke-width="2" d="M58.01,-396C58.01,-396 28.01,-396 28.01,-396 22.01,-396 16.01,-390 16.01,-384 16.01,-384 16.01,-372 16.01,-372 16.01,-366 22.01,-360 28.01,-360 28.01,-360 58.01,-360 58.01,-360 64.01,-360 70.01,-366 70.01,-372 70.01,-372 70.01,-384 70.01,-384 70.01,-390 64.01,-396 58.01,-396"/>
<text text-anchor="middle" x="43.01" y="-375.5" font-family="sans" font-size="10.00">mlst</text>
</g>
<!-- 4&#45;&gt;15 -->
<g id="edge30" class="edge">
<title>4&#45;&gt;15</title>
<path fill="none" stroke="grey" stroke-width="2" d="M177.1,-431.92C150.18,-422.89 116.84,-411.19 79.87,-396.18"/>
<polygon fill="grey" stroke="grey" stroke-width="2" points="80.98,-392.85 70.4,-392.29 78.32,-399.32 80.98,-392.85"/>
</g>
<!-- 18 -->
<g id="node19" class="node">
<title>18</title>
<path fill="none" stroke="#97d856" stroke-width="2" d="M165.51,-396C165.51,-396 100.51,-396 100.51,-396 94.51,-396 88.51,-390 88.51,-384 88.51,-384 88.51,-372 88.51,-372 88.51,-366 94.51,-360 100.51,-360 100.51,-360 165.51,-360 165.51,-360 171.51,-360 177.51,-366 177.51,-372 177.51,-372 177.51,-384 177.51,-384 177.51,-390 171.51,-396 165.51,-396"/>
<text text-anchor="middle" x="133.01" y="-375.5" font-family="sans" font-size="10.00">refseq_masher</text>
</g>
<!-- 4&#45;&gt;18 -->
<g id="edge35" class="edge">
<title>4&#45;&gt;18</title>
<path fill="none" stroke="grey" stroke-width="2" d="M206.03,-431.7C193.7,-422.8 178.5,-411.82 165.16,-402.2"/>
<polygon fill="grey" stroke="grey" stroke-width="2" points="166.87,-399.12 156.71,-396.1 162.77,-404.79 166.87,-399.12"/>
</g>
<!-- 5 -->
<g id="node6" class="node">
<title>5</title>
<path fill="none" stroke="#d85656" stroke-width="2" d="M429.01,-468C429.01,-468 319.01,-468 319.01,-468 313.01,-468 307.01,-462 307.01,-456 307.01,-456 307.01,-444 307.01,-444 307.01,-438 313.01,-432 319.01,-432 319.01,-432 429.01,-432 429.01,-432 435.01,-432 441.01,-438 441.01,-444 441.01,-444 441.01,-456 441.01,-456 441.01,-462 435.01,-468 429.01,-468"/>
<text text-anchor="middle" x="374.01" y="-447.5" font-family="sans" font-size="10.00">ncbi_genome_download</text>
</g>
<!-- 5&#45;&gt;3 -->
<g id="edge15" class="edge">
<title>5&#45;&gt;3</title>
<path fill="none" stroke="grey" stroke-width="2" d="M338.3,-431.88C317.71,-422 291.71,-409.54 270.12,-399.19"/>
<polygon fill="grey" stroke="grey" stroke-width="2" points="271.39,-395.92 260.86,-394.75 268.37,-402.23 271.39,-395.92"/>
</g>
<!-- 7 -->
<g id="node8" class="node">
<title>7</title>
<path fill="none" stroke="#70d856" stroke-width="2" d="M762.51,-108C762.51,-108 697.51,-108 697.51,-108 691.51,-108 685.51,-102 685.51,-96 685.51,-96 685.51,-84 685.51,-84 685.51,-78 691.51,-72 697.51,-72 697.51,-72 762.51,-72 762.51,-72 768.51,-72 774.51,-78 774.51,-84 774.51,-84 774.51,-96 774.51,-96 774.51,-102 768.51,-108 762.51,-108"/>
<text text-anchor="middle" x="730.01" y="-87.5" font-family="sans" font-size="10.00">ncbi_metadata</text>
</g>
<!-- 5&#45;&gt;7 -->
<g id="edge17" class="edge">
<title>5&#45;&gt;7</title>
<path fill="none" stroke="grey" stroke-width="2" d="M441.38,-437.54C548.58,-417.37 746.01,-371.46 746.01,-307 746.01,-307 746.01,-307 746.01,-233 746.01,-192.96 739.65,-146.97 734.95,-118.45"/>
<polygon fill="grey" stroke="grey" stroke-width="2" points="738.37,-117.69 733.25,-108.42 731.47,-118.86 738.37,-117.69"/>
</g>
<!-- 5&#45;&gt;10 -->
<g id="edge21" class="edge">
<title>5&#45;&gt;10</title>
<path fill="none" stroke="grey" stroke-width="2" d="M410.53,-431.92C424.61,-423.29 439.19,-411.35 447.01,-396 454.28,-381.75 453.4,-374.67 447.01,-360 442.08,-348.68 433.4,-338.68 424.28,-330.51"/>
<polygon fill="grey" stroke="grey" stroke-width="2" points="426.51,-327.81 416.59,-324.09 422.02,-333.19 426.51,-327.81"/>
</g>
<!-- 5&#45;&gt;13 -->
<g id="edge28" class="edge">
<title>5&#45;&gt;13</title>
<path fill="none" stroke="grey" stroke-width="2" d="M375,-431.7C375.44,-423.98 375.97,-414.71 376.46,-406.11"/>
<polygon fill="grey" stroke="grey" stroke-width="2" points="379.96,-406.29 377.03,-396.1 372.97,-405.89 379.96,-406.29"/>
</g>
<!-- 5&#45;&gt;15 -->
<g id="edge31" class="edge">
<title>5&#45;&gt;15</title>
<path fill="none" stroke="grey" stroke-width="2" d="M306.83,-434.5C302.5,-433.64 298.2,-432.79 294.01,-432 201.89,-414.51 173.3,-424.28 79.78,-395.77"/>
<polygon fill="grey" stroke="grey" stroke-width="2" points="80.8,-392.43 70.22,-392.8 78.72,-399.11 80.8,-392.43"/>
</g>
<!-- 5&#45;&gt;18 -->
<g id="edge36" class="edge">
<title>5&#45;&gt;18</title>
<path fill="none" stroke="grey" stroke-width="2" d="M311.18,-431.89C276.93,-422.42 233.59,-410.21 187.38,-396.37"/>
<polygon fill="grey" stroke="grey" stroke-width="2" points="188.38,-393.02 177.8,-393.49 186.36,-399.72 188.38,-393.02"/>
</g>
<!-- 6 -->
<g id="node7" class="node">
<title>6</title>
<path fill="none" stroke="#d86656" stroke-width="2" d="M144.01,-468C144.01,-468 26.01,-468 26.01,-468 20.01,-468 14.01,-462 14.01,-456 14.01,-456 14.01,-444 14.01,-444 14.01,-438 20.01,-432 26.01,-432 26.01,-432 144.01,-432 144.01,-432 150.01,-432 156.01,-438 156.01,-444 156.01,-444 156.01,-456 156.01,-456 156.01,-462 150.01,-468 144.01,-468"/>
<text text-anchor="middle" x="85.01" y="-447.5" font-family="sans" font-size="10.00">patric_genome_download</text>
</g>
<!-- 6&#45;&gt;3 -->
<g id="edge16" class="edge">
<title>6&#45;&gt;3</title>
<path fill="none" stroke="grey" stroke-width="2" d="M119.99,-431.88C140.02,-422.07 165.26,-409.72 186.31,-399.41"/>
<polygon fill="grey" stroke="grey" stroke-width="2" points="187.91,-402.53 195.35,-394.99 184.83,-396.24 187.91,-402.53"/>
</g>
<!-- 6&#45;&gt;10 -->
<g id="edge22" class="edge">
<title>6&#45;&gt;10</title>
<path fill="none" stroke="grey" stroke-width="2" d="M44.83,-431.77C30.18,-423.28 15.21,-411.48 7.01,-396 -0.48,-381.86 -3.67,-371.91 7.01,-360 54.04,-307.53 247.26,-336.41 333.94,-323.7"/>
<polygon fill="grey" stroke="grey" stroke-width="2" points="334.72,-327.11 343.96,-321.93 333.51,-320.22 334.72,-327.11"/>
</g>
<!-- 6&#45;&gt;13 -->
<g id="edge29" class="edge">
<title>6&#45;&gt;13</title>
<path fill="none" stroke="grey" stroke-width="2" d="M156.31,-431.97C202.24,-420.99 261.69,-406.79 307.46,-395.86"/>
<polygon fill="grey" stroke="grey" stroke-width="2" points="308.39,-399.23 317.31,-393.5 306.77,-392.42 308.39,-399.23"/>
</g>
<!-- 6&#45;&gt;15 -->
<g id="edge32" class="edge">
<title>6&#45;&gt;15</title>
<path fill="none" stroke="grey" stroke-width="2" d="M74.63,-431.7C69.75,-423.56 63.83,-413.69 58.43,-404.7"/>
<polygon fill="grey" stroke="grey" stroke-width="2" points="61.42,-402.88 53.27,-396.1 55.42,-406.48 61.42,-402.88"/>
</g>
<!-- 6&#45;&gt;18 -->
<g id="edge37" class="edge">
<title>6&#45;&gt;18</title>
<path fill="none" stroke="grey" stroke-width="2" d="M96.88,-431.7C102.52,-423.47 109.37,-413.48 115.58,-404.42"/>
<polygon fill="grey" stroke="grey" stroke-width="2" points="118.51,-406.33 121.28,-396.1 112.74,-402.37 118.51,-406.33"/>
</g>
<!-- 7&#45;&gt;0 -->
<g id="edge2" class="edge">
<title>7&#45;&gt;0</title>
<path fill="none" stroke="grey" stroke-width="2" d="M685.26,-78.56C675.32,-76.32 664.82,-74.03 655.01,-72 566.64,-53.75 462.22,-34.97 407.95,-25.43"/>
<polygon fill="grey" stroke="grey" stroke-width="2" points="408.55,-21.98 398.1,-23.7 407.34,-28.87 408.55,-21.98"/>
</g>
<!-- 8 -->
<g id="node9" class="node">
<title>8</title>
<path fill="none" stroke="#88d856" stroke-width="2" d="M633.51,-180C633.51,-180 552.51,-180 552.51,-180 546.51,-180 540.51,-174 540.51,-168 540.51,-168 540.51,-156 540.51,-156 540.51,-150 546.51,-144 552.51,-144 552.51,-144 633.51,-144 633.51,-144 639.51,-144 645.51,-150 645.51,-156 645.51,-156 645.51,-168 645.51,-168 645.51,-174 639.51,-180 633.51,-180"/>
<text text-anchor="middle" x="593.01" y="-159.5" font-family="sans" font-size="10.00">automlst_wrapper</text>
</g>
<!-- 8&#45;&gt;0 -->
<g id="edge1" class="edge">
<title>8&#45;&gt;0</title>
<path fill="none" stroke="grey" stroke-width="2" d="M584.22,-143.8C573.19,-123.83 552.47,-91.19 526.01,-72 490.44,-46.2 441.34,-32.24 408,-25.22"/>
<polygon fill="grey" stroke="grey" stroke-width="2" points="408.69,-21.79 398.2,-23.26 407.32,-28.65 408.69,-21.79"/>
</g>
<!-- 9 -->
<g id="node10" class="node">
<title>9</title>
<path fill="none" stroke="#afd856" stroke-width="2" d="M498.51,-252C498.51,-252 449.51,-252 449.51,-252 443.51,-252 437.51,-246 437.51,-240 437.51,-240 437.51,-228 437.51,-228 437.51,-222 443.51,-216 449.51,-216 449.51,-216 498.51,-216 498.51,-216 504.51,-216 510.51,-222 510.51,-228 510.51,-228 510.51,-240 510.51,-240 510.51,-246 504.51,-252 498.51,-252"/>
<text text-anchor="middle" x="474.01" y="-231.5" font-family="sans" font-size="10.00">format_gbk</text>
</g>
<!-- 9&#45;&gt;0 -->
<g id="edge9" class="edge">
<title>9&#45;&gt;0</title>
<path fill="none" stroke="grey" stroke-width="2" d="M483.14,-215.9C491.61,-197.7 501.68,-168.25 493.01,-144 477.34,-100.15 436.57,-63.93 406.45,-41.96"/>
<polygon fill="grey" stroke="grey" stroke-width="2" points="408.45,-39.09 398.27,-36.15 404.4,-44.79 408.45,-39.09"/>
</g>
<!-- 9&#45;&gt;8 -->
<g id="edge19" class="edge">
<title>9&#45;&gt;8</title>
<path fill="none" stroke="grey" stroke-width="2" d="M503.12,-215.88C518.68,-206.72 538.03,-195.34 554.79,-185.48"/>
<polygon fill="grey" stroke="grey" stroke-width="2" points="556.94,-188.28 563.79,-180.19 553.4,-182.24 556.94,-188.28"/>
</g>
<!-- 19 -->
<g id="node20" class="node">
<title>19</title>
<path fill="none" stroke="#56c9d8" stroke-width="2" d="M472.01,-180C472.01,-180 428.01,-180 428.01,-180 422.01,-180 416.01,-174 416.01,-168 416.01,-168 416.01,-156 416.01,-156 416.01,-150 422.01,-144 428.01,-144 428.01,-144 472.01,-144 472.01,-144 478.01,-144 484.01,-150 484.01,-156 484.01,-156 484.01,-168 484.01,-168 484.01,-174 478.01,-180 472.01,-180"/>
<text text-anchor="middle" x="450.01" y="-159.5" font-family="sans" font-size="10.00">antismash</text>
</g>
<!-- 9&#45;&gt;19 -->
<g id="edge39" class="edge">
<title>9&#45;&gt;19</title>
<path fill="none" stroke="grey" stroke-width="2" d="M468.08,-215.7C465.41,-207.9 462.19,-198.51 459.21,-189.83"/>
<polygon fill="grey" stroke="grey" stroke-width="2" points="462.43,-188.43 455.88,-180.1 455.81,-190.7 462.43,-188.43"/>
</g>
<!-- 10&#45;&gt;0 -->
<g id="edge8" class="edge">
<title>10&#45;&gt;0</title>
<path fill="none" stroke="grey" stroke-width="2" d="M343.89,-291.54C324.63,-283.38 304.17,-270.82 293.01,-252 251.82,-182.55 314.19,-88.41 349.5,-44.06"/>
<polygon fill="grey" stroke="grey" stroke-width="2" points="352.35,-46.1 355.95,-36.13 346.92,-41.68 352.35,-46.1"/>
</g>
<!-- 10&#45;&gt;9 -->
<g id="edge20" class="edge">
<title>10&#45;&gt;9</title>
<path fill="none" stroke="grey" stroke-width="2" d="M410.78,-287.7C421.25,-278.97 434.12,-268.24 445.51,-258.75"/>
<polygon fill="grey" stroke="grey" stroke-width="2" points="448.04,-261.19 453.49,-252.1 443.56,-255.82 448.04,-261.19"/>
</g>
<!-- 16 -->
<g id="node17" class="node">
<title>16</title>
<path fill="none" stroke="#56d8a9" stroke-width="2" d="M234.01,-252C234.01,-252 204.01,-252 204.01,-252 198.01,-252 192.01,-246 192.01,-240 192.01,-240 192.01,-228 192.01,-228 192.01,-222 198.01,-216 204.01,-216 204.01,-216 234.01,-216 234.01,-216 240.01,-216 246.01,-222 246.01,-228 246.01,-228 246.01,-240 246.01,-240 246.01,-246 240.01,-252 234.01,-252"/>
<text text-anchor="middle" x="219.01" y="-231.5" font-family="sans" font-size="10.00">eggnog</text>
</g>
<!-- 10&#45;&gt;16 -->
<g id="edge34" class="edge">
<title>10&#45;&gt;16</title>
<path fill="none" stroke="grey" stroke-width="2" d="M348.13,-288C322.64,-277.63 289.43,-264.1 260.01,-252 258.63,-251.43 257.22,-250.85 255.8,-250.27"/>
<polygon fill="grey" stroke="grey" stroke-width="2" points="256.93,-246.95 246.35,-246.36 254.26,-253.41 256.93,-246.95"/>
</g>
<!-- 21 -->
<g id="node22" class="node">
<title>21</title>
<path fill="none" stroke="#61d856" stroke-width="2" d="M706.01,-180C706.01,-180 676.01,-180 676.01,-180 670.01,-180 664.01,-174 664.01,-168 664.01,-168 664.01,-156 664.01,-156 664.01,-150 670.01,-144 676.01,-144 676.01,-144 706.01,-144 706.01,-144 712.01,-144 718.01,-150 718.01,-156 718.01,-156 718.01,-168 718.01,-168 718.01,-174 712.01,-180 706.01,-180"/>
<text text-anchor="middle" x="691.01" y="-159.5" font-family="sans" font-size="10.00">roary</text>
</g>
<!-- 10&#45;&gt;21 -->
<g id="edge40" class="edge">
<title>10&#45;&gt;21</title>
<path fill="none" stroke="grey" stroke-width="2" d="M436.06,-302.88C508.77,-298.53 645.29,-285.95 678.01,-252 693.46,-235.97 695.73,-210.18 694.72,-190.48"/>
<polygon fill="grey" stroke="grey" stroke-width="2" points="698.18,-189.95 693.87,-180.27 691.21,-190.52 698.18,-189.95"/>
</g>
<!-- 11 -->
<g id="node12" class="node">
<title>11</title>
<path fill="none" stroke="#5692d8" stroke-width="2" d="M862.01,-396C862.01,-396 786.01,-396 786.01,-396 780.01,-396 774.01,-390 774.01,-384 774.01,-384 774.01,-372 774.01,-372 774.01,-366 780.01,-360 786.01,-360 786.01,-360 862.01,-360 862.01,-360 868.01,-360 874.01,-366 874.01,-372 874.01,-372 874.01,-384 874.01,-384 874.01,-390 868.01,-396 862.01,-396"/>
<text text-anchor="middle" x="824.01" y="-375.5" font-family="sans" font-size="10.00">prokka_db_setup</text>
</g>
<!-- 11&#45;&gt;10 -->
<g id="edge25" class="edge">
<title>11&#45;&gt;10</title>
<path fill="none" stroke="grey" stroke-width="2" d="M773.8,-368.9C692.22,-355.74 531.43,-329.81 446.17,-316.06"/>
<polygon fill="grey" stroke="grey" stroke-width="2" points="446.59,-312.58 436.16,-314.44 445.47,-319.49 446.59,-312.58"/>
</g>
<!-- 12 -->
<g id="node13" class="node">
<title>12</title>
<path fill="none" stroke="#d8a456" stroke-width="2" d="M889.51,-468C889.51,-468 758.51,-468 758.51,-468 752.51,-468 746.51,-462 746.51,-456 746.51,-456 746.51,-444 746.51,-444 746.51,-438 752.51,-432 758.51,-432 758.51,-432 889.51,-432 889.51,-432 895.51,-432 901.51,-438 901.51,-444 901.51,-444 901.51,-456 901.51,-456 901.51,-462 895.51,-468 889.51,-468"/>
<text text-anchor="middle" x="824.01" y="-447.5" font-family="sans" font-size="10.00">prokka_reference_download</text>
</g>
<!-- 12&#45;&gt;11 -->
<g id="edge26" class="edge">
<title>12&#45;&gt;11</title>
<path fill="none" stroke="grey" stroke-width="2" d="M824.01,-431.7C824.01,-423.98 824.01,-414.71 824.01,-406.11"/>
<polygon fill="grey" stroke="grey" stroke-width="2" points="827.51,-406.1 824.01,-396.1 820.51,-406.1 827.51,-406.1"/>
</g>
<!-- 13&#45;&gt;10 -->
<g id="edge24" class="edge">
<title>13&#45;&gt;10</title>
<path fill="none" stroke="grey" stroke-width="2" d="M380.98,-359.7C382.3,-351.98 383.89,-342.71 385.36,-334.11"/>
<polygon fill="grey" stroke="grey" stroke-width="2" points="388.84,-334.55 387.08,-324.1 381.94,-333.37 388.84,-334.55"/>
</g>
<!-- 14 -->
<g id="node15" class="node">
<title>14</title>
<path fill="none" stroke="#56b9d8" stroke-width="2" d="M657.01,-252C657.01,-252 541.01,-252 541.01,-252 535.01,-252 529.01,-246 529.01,-240 529.01,-240 529.01,-228 529.01,-228 529.01,-222 535.01,-216 541.01,-216 541.01,-216 657.01,-216 657.01,-216 663.01,-216 669.01,-222 669.01,-228 669.01,-228 669.01,-240 669.01,-240 669.01,-246 663.01,-252 657.01,-252"/>
<text text-anchor="middle" x="599.01" y="-231.5" font-family="sans" font-size="10.00">install_automlst_wrapper</text>
</g>
<!-- 14&#45;&gt;8 -->
<g id="edge18" class="edge">
<title>14&#45;&gt;8</title>
<path fill="none" stroke="grey" stroke-width="2" d="M597.53,-215.7C596.87,-207.98 596.07,-198.71 595.34,-190.11"/>
<polygon fill="grey" stroke="grey" stroke-width="2" points="598.82,-189.77 594.48,-180.1 591.84,-190.37 598.82,-189.77"/>
</g>
<!-- 15&#45;&gt;0 -->
<g id="edge6" class="edge">
<title>15&#45;&gt;0</title>
<path fill="none" stroke="grey" stroke-width="2" d="M40.44,-360C36.65,-333.4 30.01,-280.3 30.01,-235 30.01,-235 30.01,-235 30.01,-161 30.01,-118.66 31.31,-98.9 64.01,-72 104.72,-38.51 261.41,-25.29 333.87,-20.89"/>
<polygon fill="grey" stroke="grey" stroke-width="2" points="334.14,-24.38 343.92,-20.31 333.74,-17.39 334.14,-24.38"/>
</g>
<!-- 16&#45;&gt;0 -->
<g id="edge10" class="edge">
<title>16&#45;&gt;0</title>
<path fill="none" stroke="grey" stroke-width="2" d="M218.83,-215.87C219.38,-183.96 224.87,-114.8 260.01,-72 278.71,-49.22 309.5,-35.6 333.91,-27.88"/>
<polygon fill="grey" stroke="grey" stroke-width="2" points="335,-31.21 343.59,-25.02 333.01,-24.5 335,-31.21"/>
</g>
<!-- 17 -->
<g id="node18" class="node">
<title>17</title>
<path fill="none" stroke="#56d8d0" stroke-width="2" d="M314.01,-324C314.01,-324 250.01,-324 250.01,-324 244.01,-324 238.01,-318 238.01,-312 238.01,-312 238.01,-300 238.01,-300 238.01,-294 244.01,-288 250.01,-288 250.01,-288 314.01,-288 314.01,-288 320.01,-288 326.01,-294 326.01,-300 326.01,-300 326.01,-312 326.01,-312 326.01,-318 320.01,-324 314.01,-324"/>
<text text-anchor="middle" x="282.01" y="-303.5" font-family="sans" font-size="10.00">install_eggnog</text>
</g>
<!-- 17&#45;&gt;16 -->
<g id="edge33" class="edge">
<title>17&#45;&gt;16</title>
<path fill="none" stroke="grey" stroke-width="2" d="M266.44,-287.7C258.81,-279.22 249.49,-268.86 241.14,-259.58"/>
<polygon fill="grey" stroke="grey" stroke-width="2" points="243.7,-257.2 234.41,-252.1 238.49,-261.88 243.7,-257.2"/>
</g>
<!-- 18&#45;&gt;0 -->
<g id="edge11" class="edge">
<title>18&#45;&gt;0</title>
<path fill="none" stroke="grey" stroke-width="2" d="M113.85,-359.57C104.4,-349.96 93.64,-337.3 87.01,-324 68.96,-287.8 68.01,-275.45 68.01,-235 68.01,-235 68.01,-235 68.01,-161 68.01,-120.55 58.04,-100.23 87.01,-72 121.61,-38.29 264.91,-25.3 333.76,-20.94"/>
<polygon fill="grey" stroke="grey" stroke-width="2" points="333.98,-24.43 343.75,-20.33 333.56,-17.44 333.98,-24.43"/>
</g>
<!-- 19&#45;&gt;0 -->
<g id="edge7" class="edge">
<title>19&#45;&gt;0</title>
<path fill="none" stroke="grey" stroke-width="2" d="M443.52,-143.74C436.34,-125.41 423.93,-95.85 410.01,-72 404.48,-62.53 397.62,-52.71 391.19,-44.13"/>
<polygon fill="grey" stroke="grey" stroke-width="2" points="393.84,-41.84 384.98,-36.03 388.29,-46.09 393.84,-41.84"/>
</g>
<!-- 22 -->
<g id="node23" class="node">
<title>22</title>
<path fill="none" stroke="#d87d56" stroke-width="2" d="M389.01,-108C389.01,-108 353.01,-108 353.01,-108 347.01,-108 341.01,-102 341.01,-96 341.01,-96 341.01,-84 341.01,-84 341.01,-78 347.01,-72 353.01,-72 353.01,-72 389.01,-72 389.01,-72 395.01,-72 401.01,-78 401.01,-84 401.01,-84 401.01,-96 401.01,-96 401.01,-102 395.01,-108 389.01,-108"/>
<text text-anchor="middle" x="371.01" y="-87.5" font-family="sans" font-size="10.00">bigscape</text>
</g>
<!-- 19&#45;&gt;22 -->
<g id="edge41" class="edge">
<title>19&#45;&gt;22</title>
<path fill="none" stroke="grey" stroke-width="2" d="M430.48,-143.7C420.63,-134.97 408.53,-124.24 397.82,-114.75"/>
<polygon fill="grey" stroke="grey" stroke-width="2" points="400.12,-112.12 390.32,-108.1 395.48,-117.36 400.12,-112.12"/>
</g>
<!-- 20 -->
<g id="node21" class="node">
<title>20</title>
<path fill="none" stroke="#56a2d8" stroke-width="2" d="M407.51,-252C407.51,-252 314.51,-252 314.51,-252 308.51,-252 302.51,-246 302.51,-240 302.51,-240 302.51,-228 302.51,-228 302.51,-222 308.51,-216 314.51,-216 314.51,-216 407.51,-216 407.51,-216 413.51,-216 419.51,-222 419.51,-228 419.51,-228 419.51,-240 419.51,-240 419.51,-246 413.51,-252 407.51,-252"/>
<text text-anchor="middle" x="361.01" y="-231.5" font-family="sans" font-size="10.00">antismash_db_setup</text>
</g>
<!-- 20&#45;&gt;19 -->
<g id="edge38" class="edge">
<title>20&#45;&gt;19</title>
<path fill="none" stroke="grey" stroke-width="2" d="M383.01,-215.7C394.22,-206.88 408.01,-196.03 420.17,-186.47"/>
<polygon fill="grey" stroke="grey" stroke-width="2" points="422.57,-189.04 428.26,-180.1 418.24,-183.54 422.57,-189.04"/>
</g>
<!-- 21&#45;&gt;0 -->
<g id="edge3" class="edge">
<title>21&#45;&gt;0</title>
<path fill="none" stroke="grey" stroke-width="2" d="M669.95,-144C644.54,-124.22 599.87,-91.76 557.01,-72 507.82,-49.32 446.76,-34.18 408.32,-26.08"/>
<polygon fill="grey" stroke="grey" stroke-width="2" points="408.61,-22.57 398.11,-23.98 407.2,-29.42 408.61,-22.57"/>
</g>
<!-- 22&#45;&gt;0 -->
<g id="edge4" class="edge">
<title>22&#45;&gt;0</title>
<path fill="none" stroke="grey" stroke-width="2" d="M371.01,-71.7C371.01,-63.98 371.01,-54.71 371.01,-46.11"/>
<polygon fill="grey" stroke="grey" stroke-width="2" points="374.51,-46.1 371.01,-36.1 367.51,-46.1 374.51,-46.1"/>
</g>
<!-- 23 -->
<g id="node24" class="node">
<title>23</title>
<path fill="none" stroke="#56d89a" stroke-width="2" d="M385.51,-180C385.51,-180 314.51,-180 314.51,-180 308.51,-180 302.51,-174 302.51,-168 302.51,-168 302.51,-156 302.51,-156 302.51,-150 308.51,-144 314.51,-144 314.51,-144 385.51,-144 385.51,-144 391.51,-144 397.51,-150 397.51,-156 397.51,-156 397.51,-168 397.51,-168 397.51,-174 391.51,-180 385.51,-180"/>
<text text-anchor="middle" x="350.01" y="-159.5" font-family="sans" font-size="10.00">install_bigscape</text>
</g>
<!-- 23&#45;&gt;22 -->
<g id="edge42" class="edge">
<title>23&#45;&gt;22</title>
<path fill="none" stroke="grey" stroke-width="2" d="M355.2,-143.7C357.54,-135.9 360.36,-126.51 362.96,-117.83"/>
<polygon fill="grey" stroke="grey" stroke-width="2" points="366.36,-118.69 365.88,-108.1 359.65,-116.68 366.36,-118.69"/>
</g>
</g>
</svg>
